<?xml version="1.0" encoding="utf-8"?>
<!-- Generator: Adobe Illustrator 27.7.0, SVG Export Plug-In . SVG Version: 6.00 Build 0)  -->
<svg version="1.1" id="Capa_1" xmlns="http://www.w3.org/2000/svg" xmlns:xlink="http://www.w3.org/1999/xlink" x="0px" y="0px"
	 viewBox="0 0 1080 1080" style="enable-background:new 0 0 1080 1080;" xml:space="preserve">
<style type="text/css">
	.st0{fill:#C3DA4C;}
	.st1{fill:#2D0D49;}
	.st2{fill:#662D91;}
	.st3{fill:#FFFFFF;}
	.st4{fill:#39B54A;stroke:#39B54A;stroke-width:2;stroke-miterlimit:10;}
	.st5{font-family:'Montserrat-ExtraBold';}
	.st6{font-size:14.6605px;}
</style>
<g>
	<path class="st0" d="M0-0.5v1081h1079.75V-0.5H0z M1021,1021H59V59h962V1021z"/>
</g>
<g>
	<path class="st1" d="M984.81,1063.23l-295.08-43.42c-26.02-3.83-44-28.02-40.17-54.04l14.9-101.3c3.83-26.02,28.02-44,54.04-40.17
		l295.08,43.42c26.02,3.83,44,28.02,40.17,54.04l-14.9,101.3C1035.02,1049.07,1010.83,1067.06,984.81,1063.23z"/>
	<path class="st2" d="M992.19,1059.42L697.11,1016c-26.02-3.83-44-28.02-40.17-54.04l14.9-101.3c3.83-26.02,28.02-44,54.04-40.17
		l295.08,43.42c26.02,3.83,44,28.02,40.17,54.04l-14.9,101.3C1042.4,1045.26,1018.21,1063.25,992.19,1059.42z"/>
	<g>
		<g>
			<path class="st3" d="M792.88,964.2l-4.28,29.07l-100.9-14.85l3.38-22.96l55.18-38.22c11.78-8.1,14.14-13.81,14.93-19.18
				c1.23-8.33-3.59-14.15-14.7-15.78c-9.44-1.39-18.59,1.62-25,9.18l-24.98-19.19c12.21-14.85,32.12-22.89,57.67-19.13
				c29.81,4.39,48.1,22.78,44.56,46.84c-1.85,12.59-7.06,23.55-28.08,37.86l-27.76,18.99L792.88,964.2z"/>
			<path class="st3" d="M907.3,968.17c-3.41,23.14-23.91,41.69-62.98,35.94c-17.96-2.64-36.37-9.89-48.29-20.16l17.2-25.65
				c9.52,8.59,21.93,14.2,34.34,16.02c12.4,1.83,21.47-1.95,22.75-10.65c1.17-7.96-3.43-13.93-23.25-16.85l-35.18-5.18l17.62-74.77
				l82.57,12.15l-4.17,28.33l-52.21-7.68l-4.44,18.64l8.7,1.28C898.3,925.23,910.68,945.21,907.3,968.17z"/>
		</g>
		<g>
			<path class="st3" d="M937.77,909.15c2.03-13.82,11.94-20.87,23.7-19.14c11.87,1.75,19.33,11.36,17.29,25.17
				c-2.05,13.93-11.94,20.87-23.81,19.13C943.18,932.58,935.72,923.08,937.77,909.15z M1008.58,897.99l16.44,2.42l-66.34,71.9
				l-16.44-2.42L1008.58,897.99z M964.94,913.15c1.19-8.11-1.19-11.72-5.07-12.3c-3.65-0.54-7.21,2.21-8.4,10.31
				c-1.19,8.11,1.42,11.76,5.07,12.3C960.42,924.04,963.75,921.26,964.94,913.15z M988.63,955.13c2.03-13.82,11.82-20.89,23.7-19.14
				c11.87,1.75,19.33,11.36,17.29,25.17c-2.05,13.93-11.94,20.87-23.81,19.13C993.93,978.54,986.58,969.06,988.63,955.13z
				 M1015.8,959.13c1.19-8.11-1.31-11.74-5.07-12.29c-3.77-0.55-7.21,2.21-8.4,10.31c-1.19,8.11,1.31,11.74,5.07,12.3
				C1011.17,970,1014.61,967.24,1015.8,959.13z"/>
			<path class="st3" d="M924.13,996.56c1.44-9.76,10.16-15.79,20.56-14.25c10.41,1.53,17.02,9.82,15.59,19.57
				s-10.16,15.79-20.56,14.25C929.3,1014.61,922.69,1006.32,924.13,996.56z M950.98,1000.52c0.83-5.62-2.49-9.86-7.41-10.59
				c-4.93-0.72-9.32,2.38-10.15,8c-0.83,5.62,2.49,9.86,7.42,10.59C945.76,1009.24,950.16,1006.14,950.98,1000.52z"/>
			<path class="st3" d="M975.66,994.79l-1.05,7.16l14.36,2.11l-1.05,7.11l-14.36-2.11l-1.64,11.15l-9.2-1.35l4.79-32.53l25.51,3.75
				l-1.05,7.11L975.66,994.79z"/>
			<path class="st3" d="M1005.49,999.18l-1.05,7.16l14.36,2.11l-1.05,7.11l-14.36-2.11l-1.64,11.15l-9.2-1.35l4.79-32.53l25.51,3.75
				l-1.05,7.11L1005.49,999.18z"/>
		</g>
	</g>
	<text transform="matrix(0.9892 0.1468 -0.1468 0.9892 732.8338 855.8022)" class="st4 st5 st6">/ / / /</text>
	<text transform="matrix(0.9892 0.1468 -0.1468 0.9892 1004.8802 867.6442)" class="st4 st5 st6">/ / / /</text>
	<text transform="matrix(0.9892 0.1468 -0.1468 0.9892 914.2427 1054.0509)" class="st4 st5 st6">/ / / /</text>
	<path class="st1" d="M652.67,906.68l-4.9,33.02c-0.71,4.77,4.17,8.41,8.54,6.36l27.4-12.81c3.92-1.83,4.7-7.08,1.48-9.97
		l-22.5-20.21C659.11,899.85,653.38,901.91,652.67,906.68z"/>
	<path class="st0" d="M649.49,908.4l-4.9,33.02c-0.71,4.77,4.17,8.41,8.54,6.36l27.4-12.81c3.92-1.83,4.7-7.08,1.48-9.97
		l-22.5-20.21C655.93,901.57,650.2,903.63,649.49,908.4z"/>
	<g>
		<path class="st1" d="M827.61,839.18l-6.3-2.59l1.55-3.18l5.88,3.66l0.53-7.35l3.49,0.52l-1.69,7.29l6.63-1.73l0.55,3.55
			l-6.87,0.55l3.63,6.18l-3.16,1.67l-2.64-6.81l-4.45,5.57l-2.58-2.42L827.61,839.18z"/>
	</g>
	<g>
		<path class="st1" d="M1043.37,991.93l-6.3-2.59l1.55-3.18l5.88,3.66l0.53-7.35l3.49,0.52l-1.69,7.29l6.63-1.73l0.55,3.55
			l-6.87,0.55l3.63,6.18l-3.16,1.67l-2.64-6.81l-4.45,5.57l-2.58-2.42L1043.37,991.93z"/>
	</g>
	<g>
		<path class="st1" d="M671.06,995.41l-6.3-2.59l1.55-3.18l5.88,3.66l0.53-7.35l3.49,0.52l-1.69,7.29l6.63-1.73l0.55,3.55
			l-6.87,0.55l3.63,6.18l-3.16,1.67l-2.64-6.81l-4.45,5.57l-2.58-2.42L671.06,995.41z"/>
	</g>
	<g>
		<path class="st3" d="M830.12,838.36l-6.3-2.59l1.55-3.18l5.88,3.66l0.53-7.35l3.49,0.52l-1.69,7.29l6.63-1.73l0.55,3.55
			l-6.87,0.55l3.63,6.18l-3.16,1.67l-2.64-6.81l-4.45,5.57l-2.58-2.42L830.12,838.36z"/>
	</g>
	<g>
		<path class="st3" d="M1045.88,991.11l-6.3-2.59l1.55-3.18l5.88,3.66l0.53-7.35l3.49,0.52l-1.69,7.29l6.63-1.73l0.55,3.55
			l-6.87,0.55l3.63,6.18l-3.16,1.67l-2.64-6.81l-4.45,5.57l-2.58-2.42L1045.88,991.11z"/>
	</g>
	<g>
		<path class="st3" d="M673.57,994.59l-6.3-2.59l1.55-3.18l5.88,3.66l0.53-7.35l3.49,0.52l-1.69,7.29l6.63-1.73l0.55,3.55
			l-6.87,0.55l3.63,6.18l-3.16,1.67l-2.64-6.81l-4.45,5.57l-2.58-2.42L673.57,994.59z"/>
	</g>
</g>
</svg>
