<svg xmlns="http://www.w3.org/2000/svg" xmlns:xlink="http://www.w3.org/1999/xlink" id="Capa_1" x="0" y="0" version="1.1" viewBox="0 0 1080 1080" style="enable-background:new 0 0 1080 1080" xml:space="preserve"><style type="text/css">.st0{fill:#c3da4c}.st1{fill:#2d0d49}.st2{fill:#662d91}.st3{fill:#fff}.st4{fill:#39b54a;stroke:#39b54a;stroke-width:2;stroke-miterlimit:10}.st5{font-family:&apos;Montserrat-ExtraBold&apos;}.st6{font-size:14.6605px}</style><g><path d="M0-0.5v1081h1079.75V-0.5H0z M1021,1021H59V59h962V1021z" class="st0"/></g><g><path d="M982.87,1063.32l-295.08-43.42c-26.02-3.83-44-28.02-40.17-54.04l14.9-101.3c3.83-26.02,28.02-44,54.04-40.17 l295.08,43.42c26.02,3.83,44,28.02,40.17,54.04l-14.9,101.3C1033.08,1049.16,1008.89,1067.15,982.87,1063.32z" class="st1"/><path d="M990.25,1059.51l-295.08-43.42c-26.02-3.83-44-28.02-40.17-54.04l14.9-101.3c3.83-26.02,28.02-44,54.04-40.17 L1019.02,864c26.02,3.83,44,28.02,40.17,54.04l-14.9,101.3C1040.46,1045.35,1016.27,1063.34,990.25,1059.51z" class="st2"/><g><path d="M787.66,950.99c-3.24,22.03-23.75,40.58-62.81,34.83c-17.96-2.64-36.37-9.89-48.48-20.18l17.39-25.62 c9.33,8.56,22.12,14.22,34.34,16.02c12.4,1.83,21.26-1.79,22.54-10.49c1.14-7.78-3.89-13.43-17.96-15.5l-15.37-2.26l3.4-23.14 l26.82-21.59l-51.1-7.52l4.17-28.33l93.68,13.78l-3.38,22.96l-31.09,24.93C780.97,916.72,790.38,932.48,787.66,950.99z" class="st3"/><path d="M800.41,928.09c6.29-42.77,33.98-63.85,67.12-58.97c32.95,4.85,53.4,33.01,47.11,75.78 c-6.29,42.77-33.98,63.85-66.94,59C814.56,999.02,794.12,970.85,800.41,928.09z M877.8,939.47c4-27.22-3.01-38.65-14.68-40.37 c-11.85-1.74-21.86,7.19-25.87,34.4c-4,27.22,3.01,38.65,14.86,40.39C863.78,975.62,873.79,966.69,877.8,939.47z" class="st3"/><g><path d="M935.93,908.54c2.03-13.82,11.94-20.87,23.7-19.14c11.87,1.75,19.33,11.36,17.29,25.17 c-2.05,13.93-11.94,20.87-23.81,19.13C941.35,931.97,933.88,922.47,935.93,908.54z M1006.75,897.38l16.44,2.42l-66.34,71.9 l-16.44-2.42L1006.75,897.38z M963.11,912.54c1.19-8.11-1.19-11.72-5.07-12.3c-3.65-0.54-7.21,2.21-8.4,10.31 c-1.19,8.11,1.42,11.76,5.07,12.29C958.59,923.42,961.91,920.64,963.11,912.54z M986.79,954.52 c2.03-13.82,11.82-20.89,23.7-19.14c11.87,1.75,19.33,11.36,17.29,25.17c-2.05,13.93-11.94,20.87-23.81,19.13 C992.1,977.93,984.74,968.45,986.79,954.52z M1013.97,958.52c1.19-8.11-1.31-11.74-5.07-12.3c-3.77-0.55-7.21,2.21-8.4,10.31 c-1.19,8.11,1.31,11.74,5.07,12.3C1009.33,969.38,1012.77,966.62,1013.97,958.52z" class="st3"/><path d="M922.29,995.95c1.44-9.76,10.16-15.79,20.56-14.25c10.41,1.53,17.02,9.82,15.59,19.57 s-10.16,15.79-20.56,14.25C927.47,1013.99,920.85,1005.71,922.29,995.95z M949.15,999.9c0.83-5.62-2.49-9.86-7.41-10.59 c-4.93-0.72-9.32,2.38-10.15,8c-0.83,5.62,2.49,9.86,7.42,10.59C943.92,1008.63,948.32,1005.52,949.15,999.9z" class="st3"/><path d="M973.82,994.18l-1.05,7.16l14.36,2.11l-1.05,7.11l-14.36-2.11l-1.64,11.15l-9.2-1.35l4.79-32.53l25.51,3.75 l-1.05,7.11L973.82,994.18z" class="st3"/><path d="M1003.65,998.57l-1.05,7.16l14.36,2.11l-1.05,7.11l-14.36-2.11l-1.64,11.15l-9.2-1.35l4.79-32.53l25.51,3.75 l-1.05,7.11L1003.65,998.57z" class="st3"/></g></g><text class="st4 st5 st6" transform="matrix(0.9892 0.1468 -0.1468 0.9892 755.9648 859.442)">/ / / /</text><text class="st4 st5 st6" transform="matrix(0.9892 0.1468 -0.1468 0.9892 1012.8085 869.0477)">/ / / /</text><text class="st4 st5 st6" transform="matrix(0.9892 0.1468 -0.1468 0.9892 922.171 1055.455)">/ / / /</text><path d="M650.73,906.77l-4.9,33.02c-0.71,4.77,4.17,8.41,8.54,6.36l27.4-12.81c3.92-1.83,4.7-7.08,1.48-9.97 l-22.5-20.21C657.17,899.94,651.44,902,650.73,906.77z" class="st1"/><path d="M647.56,908.49l-4.9,33.02c-0.71,4.77,4.17,8.41,8.54,6.36l27.4-12.81c3.92-1.83,4.7-7.08,1.48-9.97 l-22.5-20.21C653.99,901.66,648.26,903.72,647.56,908.49z" class="st0"/><g><path d="M922.19,853.47l-6.3-2.59l1.55-3.18l5.88,3.66l0.53-7.35l3.49,0.52l-1.69,7.29l6.63-1.73l0.55,3.55 l-6.87,0.55l3.63,6.18l-3.16,1.67l-2.64-6.81l-4.45,5.57l-2.58-2.42L922.19,853.47z" class="st1"/></g><g><path d="M1035.25,1032.75l-6.3-2.59l1.55-3.18l5.88,3.66l0.53-7.35l3.49,0.52l-1.69,7.29l6.63-1.73l0.55,3.55 l-6.87,0.55l3.63,6.18l-3.16,1.67l-2.64-6.81l-4.45,5.57l-2.58-2.42L1035.25,1032.75z" class="st1"/></g><g><path d="M782.34,1000.8l-6.3-2.59l1.55-3.18l5.88,3.66l0.53-7.35l3.49,0.52l-1.69,7.29l6.63-1.73l0.55,3.55 l-6.87,0.55l3.63,6.18l-3.16,1.67l-2.64-6.81l-4.45,5.57l-2.58-2.42L782.34,1000.8z" class="st1"/></g><g><path d="M924.69,852.65l-6.3-2.59l1.55-3.18l5.88,3.66l0.53-7.35l3.49,0.52l-1.69,7.29l6.63-1.73l0.55,3.55 l-6.87,0.55l3.63,6.18l-3.16,1.67l-2.64-6.81l-4.45,5.57l-2.58-2.42L924.69,852.65z" class="st3"/></g><g><path d="M1037.76,1031.93l-6.3-2.59l1.55-3.18l5.88,3.66l0.53-7.35l3.49,0.52l-1.69,7.29l6.63-1.73l0.55,3.55 l-6.87,0.55l3.63,6.18l-3.16,1.67l-2.64-6.81l-4.45,5.57l-2.58-2.42L1037.76,1031.93z" class="st3"/></g><g><path d="M784.85,999.98l-6.3-2.59l1.55-3.18l5.88,3.66l0.53-7.35l3.49,0.52l-1.69,7.29l6.63-1.73l0.55,3.55 l-6.87,0.55l3.63,6.18l-3.16,1.67l-2.64-6.81l-4.45,5.57l-2.58-2.42L784.85,999.98z" class="st3"/></g></g></svg>