<?xml version="1.0" encoding="utf-8"?>
<!-- Generator: Adobe Illustrator 27.7.0, SVG Export Plug-In . SVG Version: 6.00 Build 0)  -->
<svg version="1.1" id="Capa_1" xmlns="http://www.w3.org/2000/svg" xmlns:xlink="http://www.w3.org/1999/xlink" x="0px" y="0px"
	 viewBox="0 0 1080 1080" style="enable-background:new 0 0 1080 1080;" xml:space="preserve">
<style type="text/css">
	.st0{fill:#C3DA4C;}
	.st1{fill:#2D0D49;}
	.st2{fill:#662D91;}
	.st3{fill:#FFFFFF;}
	.st4{fill:#39B54A;stroke:#39B54A;stroke-width:2;stroke-miterlimit:10;}
	.st5{font-family:'Montserrat-ExtraBold';}
	.st6{font-size:14.6605px;}
</style>
<g>
	<path class="st0" d="M0-0.5v1081h1079.75V-0.5H0z M1021,1021H59V59h962V1021z"/>
</g>
<g>
	<path class="st1" d="M989.59,1062.92l-185.44-27.28c-26.02-3.83-44-28.02-40.17-54.04l14.9-101.3c3.83-26.02,28.02-44,54.04-40.17
		l185.44,27.28c26.02,3.83,44,28.02,40.17,54.04l-14.9,101.3C1039.8,1048.76,1015.6,1066.75,989.59,1062.92z"/>
	<path class="st2" d="M995.09,1058.83l-185.44-27.28c-26.02-3.83-44-28.02-40.17-54.04l14.9-101.3c3.83-26.02,28.02-44,54.04-40.17
		l185.44,27.28c26.02,3.83,44,28.02,40.17,54.04l-14.9,101.3C1045.3,1044.67,1021.1,1062.66,995.09,1058.83z"/>
	<g>
		<path class="st3" d="M910.64,967.82c-3.41,23.14-23.91,41.69-62.98,35.94c-17.96-2.64-36.37-9.89-48.29-20.16l17.2-25.65
			c9.52,8.59,21.93,14.2,34.34,16.02c12.4,1.83,21.47-1.95,22.75-10.65c1.17-7.96-3.43-13.93-23.25-16.85l-35.18-5.18l17.62-74.77
			l82.57,12.15l-4.17,28.33l-52.21-7.68l-4.45,18.64l8.7,1.28C901.64,924.89,914.02,944.87,910.64,967.82z"/>
		<path class="st3" d="M940.95,906.62c2.03-13.82,11.94-20.87,23.7-19.14c11.87,1.75,19.33,11.36,17.29,25.17
			c-2.05,13.93-11.94,20.87-23.81,19.13C946.37,930.05,938.9,920.55,940.95,906.62z M1011.77,895.46l16.44,2.42l-66.34,71.9
			l-16.44-2.42L1011.77,895.46z M968.12,910.62c1.19-8.11-1.19-11.72-5.07-12.3c-3.65-0.54-7.21,2.21-8.4,10.31
			c-1.19,8.11,1.42,11.76,5.07,12.29C963.61,921.5,966.93,918.73,968.12,910.62z M991.81,952.6c2.03-13.82,11.82-20.89,23.7-19.14
			c11.87,1.75,19.33,11.36,17.29,25.17c-2.05,13.93-11.94,20.87-23.81,19.13C997.11,976.01,989.76,966.53,991.81,952.6z
			 M1018.99,956.6c1.19-8.11-1.31-11.74-5.07-12.29c-3.77-0.55-7.21,2.21-8.4,10.31c-1.19,8.11,1.31,11.74,5.07,12.3
			C1014.35,967.47,1017.79,964.71,1018.99,956.6z"/>
		<path class="st3" d="M927.31,994.03c1.44-9.76,10.16-15.79,20.56-14.25c10.41,1.53,17.02,9.82,15.59,19.57
			c-1.44,9.76-10.16,15.79-20.56,14.25C932.49,1012.08,925.87,1003.79,927.31,994.03z M954.17,997.98
			c0.83-5.62-2.49-9.86-7.42-10.59c-4.93-0.72-9.32,2.38-10.15,8c-0.83,5.62,2.49,9.86,7.41,10.59
			C948.94,1006.71,953.34,1003.61,954.17,997.98z"/>
		<path class="st3" d="M978.84,992.26l-1.05,7.16l14.36,2.11l-1.05,7.11l-14.36-2.11l-1.64,11.15l-9.2-1.35l4.79-32.53l25.51,3.75
			l-1.05,7.11L978.84,992.26z"/>
		<path class="st3" d="M1008.67,996.65l-1.05,7.16l14.36,2.11l-1.05,7.11l-14.36-2.11l-1.64,11.15l-9.2-1.35l4.79-32.53l25.51,3.75
			l-1.05,7.11L1008.67,996.65z"/>
	</g>
	<text transform="matrix(0.9892 0.1468 -0.1468 0.9892 802.0176 883.6938)" class="st4 st5 st6">/ / / /</text>
	<text transform="matrix(0.9892 0.1468 -0.1468 0.9892 1016.4385 868.3297)" class="st4 st5 st6">/ / / /</text>
	<text transform="matrix(0.9892 0.1468 -0.1468 0.9892 925.803 1054.7362)" class="st4 st5 st6">/ / / /</text>
	<path class="st1" d="M764.12,922.06l-4.9,33.02c-0.71,4.77,4.17,8.41,8.54,6.36l27.4-12.81c3.92-1.83,4.7-7.08,1.48-9.97
		l-22.5-20.21C770.55,915.23,764.82,917.29,764.12,922.06z"/>
	<path class="st0" d="M760.94,923.78l-4.9,33.02c-0.71,4.77,4.17,8.41,8.54,6.36l27.4-12.81c3.92-1.83,4.7-7.08,1.48-9.97
		l-22.5-20.21C767.38,916.95,761.65,919.01,760.94,923.78z"/>
	<g>
		<path class="st1" d="M935.69,854.07l-6.3-2.59l1.55-3.18l5.88,3.66l0.53-7.35l3.49,0.52l-1.69,7.29l6.63-1.73l0.55,3.55
			l-6.87,0.55l3.63,6.18l-3.16,1.67l-2.64-6.81l-4.45,5.57l-2.58-2.42L935.69,854.07z"/>
	</g>
	<g>
		<path class="st1" d="M1041.88,1033.89l-6.3-2.59l1.55-3.18l5.88,3.66l0.53-7.35l3.49,0.52l-1.69,7.29l6.63-1.73l0.55,3.55
			l-6.87,0.55l3.63,6.18l-3.16,1.67l-2.64-6.81l-4.45,5.57l-2.58-2.42L1041.88,1033.89z"/>
	</g>
	<g>
		<path class="st1" d="M799.77,1017.02l-6.3-2.59l1.55-3.18l5.88,3.66l0.53-7.35l3.49,0.52l-1.69,7.29l6.63-1.73l0.55,3.55
			l-6.87,0.55l3.63,6.18l-3.16,1.67l-2.64-6.81l-4.45,5.57l-2.58-2.42L799.77,1017.02z"/>
	</g>
	<g>
		<path class="st3" d="M938.19,853.25l-6.3-2.59l1.55-3.18l5.88,3.66l0.53-7.35l3.49,0.52l-1.69,7.29l6.63-1.73l0.55,3.55
			l-6.87,0.55l3.63,6.18l-3.16,1.67l-2.64-6.81l-4.45,5.57l-2.58-2.42L938.19,853.25z"/>
	</g>
	<g>
		<path class="st3" d="M1044.39,1033.07l-6.3-2.59l1.55-3.18l5.88,3.66l0.53-7.35l3.49,0.52l-1.69,7.29l6.63-1.73l0.55,3.55
			l-6.87,0.55l3.63,6.18l-3.16,1.67l-2.64-6.81l-4.45,5.57l-2.58-2.42L1044.39,1033.07z"/>
	</g>
	<g>
		<path class="st3" d="M802.28,1016.2l-6.3-2.59l1.55-3.18l5.88,3.66l0.53-7.35l3.49,0.52l-1.69,7.29l6.63-1.73l0.55,3.55
			l-6.87,0.55l3.63,6.18l-3.16,1.67l-2.64-6.81l-4.45,5.57l-2.58-2.42L802.28,1016.2z"/>
	</g>
</g>
</svg>
