<svg xmlns="http://www.w3.org/2000/svg" xmlns:xlink="http://www.w3.org/1999/xlink" id="Capa_1" data-name="Capa 1" viewBox="0 0 1262.36 400.88"><defs><style>.cls-1{clip-path:url(#clippath-2)}.cls-2{fill:none}.cls-2,.cls-3,.cls-4,.cls-5{stroke-width:0}.cls-6{clip-path:url(#clippath-1)}.cls-3,.cls-7{fill:#fff}.cls-8{clip-path:url(#clippath)}.cls-4{fill:#77b900}.cls-9{clip-path:url(#clippath-3)}.cls-7{stroke:#fff;stroke-miterlimit:10}.cls-5{fill:url(#Degradado_sin_nombre)}.cls-10{clip-path:url(#clippath-5)}</style><clipPath id="clippath"><rect width="1081" height="90.1" x="11.7" y="170.39" class="cls-2"/></clipPath><clipPath id="clippath-1"><rect width="1081" height="90.1" x="11.7" y="170.39" class="cls-2"/></clipPath><clipPath id="clippath-2"><rect width="1081" height="90.1" x="11.7" y="170.39" class="cls-2"/></clipPath><clipPath id="clippath-3"><rect width="1081" height="90.1" x="11.7" y="170.39" class="cls-2"/></clipPath><linearGradient id="Degradado_sin_nombre" x1="324.6" x2="1106.9" y1="216.64" y2="216.64" data-name="Degradado sin nombre" gradientTransform="translate(0 432.78) scale(1 -1)" gradientUnits="userSpaceOnUse"><stop offset="0" stop-color="#fff" stop-opacity="0"/><stop offset="1" stop-color="#1d1d1b"/></linearGradient><mask id="mask" width="937.76" height="400.88" x="324.6" y="0" maskUnits="userSpaceOnUse"><g id="SVGID"><rect width="782.3" height="92.3" x="324.6" y="169.99" class="cls-5"/></g></mask><clipPath id="clippath-5"><rect width="1081" height="90.1" x="11.7" y="170.39" class="cls-2"/></clipPath></defs><g><g class="cls-8"><rect width="31" height="90.1" x="967.7" y="170.39" class="cls-4"/></g><g class="cls-6"><rect width="31" height="90.1" x="1014.7" y="170.39" class="cls-4"/></g><g class="cls-1"><rect width="31" height="90.1" x="1061.7" y="170.39" class="cls-4"/></g><g class="cls-9"><rect width="1104.7" height="92.3" y="169.99" class="cls-4"/></g><g class="cls-10"><g><path d="m66.3,215.39l-5-3.6,4.1-4-5.7-.7,1.9-5.8,5,2.6-1-5.6h6.1l-1,5.6,5.1-2.6,1.8,5.8-5.7.8,4.2,4-5,3.6-2.5-5-2.3,4.9Z" class="cls-7"/><path d="m82.2,233.09v-33.4h6.9v33.3h-6.9v.1Z" class="cls-7"/><path d="m97,233.09v-33.4h6.2l15.1,21.8v-21.8h6.6v33.3h-6.2l-15.1-21.7v21.8h-6.6Z" class="cls-7"/><path d="m146.5,233.69c-5,0-8.7-1.5-11.3-4.4-2.6-2.9-3.8-6.9-3.8-12.1v-1.8c0-3.4.6-6.3,1.8-8.7,1.2-2.4,2.9-4.4,5.1-5.7,2.2-1.3,5-2,8.3-2h.4c3.4,0,6.2.7,8.4,2.2s3.8,3.6,4.8,6.3l-6.5,2.2c-.5-1.7-1.3-2.8-2.4-3.6-1.2-.8-2.6-1.1-4.3-1.1h-.3c-2.6,0-4.6.9-6.1,2.5s-2.2,4.2-2.2,7.6v2.3c0,3.5.7,6.1,2.1,7.7,1.4,1.7,3.5,2.4,6.1,2.4h.3c1.7,0,3.2-.4,4.4-1.1,1.3-.7,2.1-1.9,2.6-3.6l6.3,2.5c-.9,2.6-2.6,4.7-4.9,6.1-2.3,1.5-5.1,2.2-8.5,2.2l-.3.1h0Z" class="cls-7"/><path d="m165.7,233.09v-33.4h6.9v27.3h14.5v6h-21.4v.1Z" class="cls-7"/><path d="m219.1,199.69v20.3c0,4.4-1.2,7.7-3.5,10.2-2.4,2.4-5.7,3.6-10,3.6h-.5c-4.3,0-7.7-1.2-10-3.6-2.4-2.4-3.6-5.8-3.6-10.2v-20.3h6.9v20.4c0,2.6.6,4.6,1.8,5.7s2.8,1.8,4.9,1.8h.4c2.1,0,3.8-.6,4.9-1.8,1.2-1.2,1.8-3.1,1.8-5.7v-20.4h6.9Z" class="cls-7"/><path d="m234,233.09v-13.1l-11.4-20.3h7.9l7.1,13.7,7.1-13.7h7.6l-11.4,20.3v13.1s-6.9,0-6.9,0Z" class="cls-7"/><path d="m256.8,233.09v-33.4h22.1v5.9h-15.2v7.7h12.3l-.8,5.9h-11.5v7.9h15.4v5.9h-22.4v.1h.1Z" class="cls-7"/><path d="m297.4,233.09v-33.4h12.6c3.9,0,6.9.9,9.2,2.7,2.2,1.8,3.4,4.3,3.4,7.5v.9c0,2.2-.5,4.2-1.7,5.7-1.1,1.6-2.6,2.7-4.6,3.5l7.3,12.9h-7.6l-6.6-11.9h-5.2v11.9h-6.8v.2Zm7-18h5.5c1.7,0,3.1-.3,4.2-.9,1.1-.7,1.7-1.7,1.7-3.2v-1.2c0-1.5-.5-2.4-1.7-3.1-1.1-.7-2.5-1-4.2-1h-5.5v9.4Z" class="cls-7"/><path d="m329,233.09v-33.4h22.1v5.9h-15.2v7.7h12.3l-.8,5.9h-11.6v7.9h15.4v5.9h-22.4v.1h.2Z" class="cls-7"/><path d="m371.4,233.69c-10.6,0-15.8-5.4-15.8-16.3v-1.8c0-3.4.6-6.4,1.8-8.9,1.3-2.4,3-4.4,5.3-5.7,2.3-1.3,5-2,8.3-2h.4c3.2,0,5.9.7,8.1,2,2.2,1.4,3.8,3.4,4.8,5.9l-6.4,2.2c-.9-2.8-3.1-4.2-6.6-4.2h-.3c-2.7,0-4.8.9-6.3,2.6-1.5,1.8-2.2,4.4-2.2,7.7v2.1c0,3.4.7,5.9,2.1,7.6,1.5,1.7,3.7,2.4,6.7,2.4h.3c1.3,0,2.4-.1,3.5-.3s2-.5,2.9-.9v-6.1h-7.1l.8-5.8h13v15.3c-1.7,1.3-3.6,2.2-5.7,2.9-2.2.7-4.6,1-7.2,1l-.4.3h0Z" class="cls-7"/><path d="m388.1,233.09l12.9-33.3h6.3l12.9,33.3h-7.5l-2.4-6.7h-12.6l-2.4,6.7h-7.2Zm11.6-12.5h8.5l-4.2-11.9-4.3,11.9Z" class="cls-7"/><path d="m424.7,233.09v-33.4h6.9v27.3h14.5v6h-21.4v.1Z" class="cls-7"/><path d="m465.8,233.69c-3.2,0-6-.7-8.3-2s-4.1-3.2-5.3-5.7c-1.3-2.4-1.8-5.3-1.8-8.7v-1.9c0-3.4.6-6.3,1.8-8.7,1.3-2.4,3-4.4,5.3-5.7s5.1-2,8.3-2h.5c3.2,0,6,.7,8.3,2s4.1,3.2,5.3,5.7c1.3,2.4,1.8,5.3,1.8,8.7v2c0,3.4-.6,6.3-1.8,8.7-1.3,2.4-3,4.4-5.3,5.7s-5.1,2-8.3,2h-.5v-.1Zm0-6.1h.4c2.6,0,4.7-.9,6.2-2.5,1.5-1.7,2.3-4.2,2.3-7.6v-2.2c0-3.4-.8-5.9-2.3-7.6-1.5-1.7-3.6-2.5-6.2-2.5h-.4c-2.6,0-4.7.9-6.2,2.5-1.5,1.7-2.3,4.2-2.3,7.6v2.2c0,3.4.8,5.9,2.3,7.6,1.6,1.7,3.6,2.5,6.2,2.5Z" class="cls-7"/><path d="m487.8,223.19l-.9-24.9h8.1l-.9,24.9h-6.3Zm-.4,9.9v-7.3h7v7.3h-7Z" class="cls-7"/></g></g></g><g><path d="m959.62,192.47c-.27,2.14-.53,4.28-.8,6.41-.24,1.9-.48,3.81-.72,5.71-.24,1.9-.48,3.81-.72,5.71-.24,1.87-.47,3.75-.7,5.62-.26,2.11-.53,4.21-.79,6.32-.24,1.9-.48,3.81-.72,5.71-.27,2.14-.53,4.28-.8,6.41-.24,1.9-.48,3.81-.72,5.71-.1.83-.2,1.65-.3,2.48-.03.25-.16.33-.41.33-3.63,0-7.27,0-10.9,0-.24,0-.32-.07-.34-.32-.21-2.51-.44-5.02-.67-7.52-.27-2.96-.56-5.92-.82-8.88-.18-1.93-.33-3.86-.5-5.78-.15-1.71-.32-3.41-.53-5.11-.13,1.47-.27,2.94-.4,4.4-.18,1.94-.36,3.88-.54,5.83-.14,1.54-.27,3.07-.41,4.61-.18,1.93-.36,3.85-.54,5.78-.14,1.52-.27,3.04-.41,4.56-.06.72-.13,1.44-.19,2.16-.02.2-.09.29-.29.27-.08,0-.16,0-.24,0-3.52,0-7.05,0-10.57,0-.41,0-.53-.12-.58-.52-.29-2.42-.61-4.84-.91-7.25-.3-2.39-.58-4.78-.88-7.16-.3-2.39-.61-4.77-.91-7.16-.27-2.14-.53-4.28-.79-6.42-.3-2.37-.61-4.74-.91-7.11-.24-1.87-.46-3.75-.7-5.62-.27-2.15-.54-4.31-.81-6.46-.11-.9-.22-1.81-.32-2.72,3.51,0,7.02,0,10.52,0,.2,1.26.25,2.53.38,3.8.15,1.53.27,3.07.41,4.61.18,1.94.36,3.88.54,5.83.14,1.55.27,3.1.41,4.65.21,2.37.42,4.73.65,7.09.05.54.02,1.09.22,1.73.09-.94.16-1.75.23-2.57.14-1.54.26-3.07.4-4.61.21-2.29.43-4.57.64-6.86.17-1.9.33-3.79.5-5.69.24-2.66.49-5.32.74-7.99,3.19,0,6.38,0,9.58,0,.18,1.97.37,3.94.55,5.92.18,1.99.33,3.98.51,5.97.27,2.94.55,5.89.82,8.83.21,2.33.41,4.66.61,7,.02-.04.04-.07.05-.1.16-1.09.22-2.19.32-3.29.18-2.02.37-4.04.55-6.06.13-1.49.26-2.98.4-4.46.18-1.97.36-3.95.55-5.92.11-1.24.25-2.47.34-3.71.1-1.4.32-2.78.32-4.18,3.54,0,7.08,0,10.62,0Z" class="cls-3"/><path d="m909.84,192.47c0,.17,0,.35,0,.52,0,16.41,0,32.82,0,49.24,0,.75.08.66-.65.66-3.11,0-6.22,0-9.34.01-.42,0-.56-.13-.62-.53-.47-2.87-.96-5.74-1.44-8.61-.52-3.12-1.03-6.23-1.56-9.35-.49-2.93-.99-5.86-1.48-8.79,0-.06-.02-.12-.11-.17,0,.2,0,.4,0,.59,0,8.75,0,17.5.01,26.25,0,.48-.12.6-.6.6-2.56-.03-5.12-.01-7.68-.01q-.62,0-.62-.62c0-16.4,0-32.79,0-49.19,0-.2-.01-.41-.02-.61,3.54,0,7.08,0,10.62,0-.03.22,0,.44.05.66.27,1.61.54,3.22.81,4.83.52,3.12,1.04,6.23,1.56,9.35.52,3.1,1.04,6.2,1.56,9.3.2,1.16.39,2.32.59,3.48.02,0,.05,0,.07,0v-27.61c2.94,0,5.88,0,8.82,0Z" class="cls-3"/><path d="m1007.49,192.47c-.29,1.27-.57,2.54-.88,3.81-1.68,7-3.37,14.01-5.06,21.01-.06.27-.06.53,0,.79,1.58,6.58,3.16,13.15,4.74,19.73.37,1.54.73,3.09,1.11,4.63.08.33.07.45-.31.45-3.24-.01-6.48,0-9.72,0-.3,0-.4-.1-.46-.39-.52-2.75-1.05-5.5-1.58-8.25-.68-3.57-1.37-7.13-2.05-10.7-.2-1.07-.4-2.13-.61-3.2-.03-.15-.08-.3-.17-.43,0,.24,0,.48,0,.72,0,7.22,0,14.44,0,21.67,0,.44-.09.59-.56.59-3.21-.02-6.41-.02-9.62,0-.38,0-.47-.11-.47-.48,0-16.59,0-33.18,0-49.76,0-.06,0-.13,0-.19,3.54,0,7.08,0,10.62,0,0,.2.01.41.01.61,0,7.3,0,14.6,0,21.9v.58c.04-.07.06-.09.07-.11.38-1.94.77-3.89,1.14-5.83.88-4.57,1.76-9.14,2.62-13.72.22-1.14.5-2.27.61-3.43,3.51,0,7.02,0,10.52,0Z" class="cls-3"/><path d="m974.88,192.47c.14,1.22.27,2.44.42,3.65.23,1.87.47,3.74.71,5.61.24,1.9.48,3.81.72,5.71.24,1.87.47,3.74.7,5.62.27,2.14.54,4.27.81,6.41.24,1.87.47,3.74.7,5.62.3,2.39.61,4.77.91,7.16.23,1.86.47,3.71.7,5.57.18,1.43.36,2.87.54,4.3,0,.08,0,.16.03.23.08.39-.02.55-.48.54-3-.02-6-.02-9,0-.38,0-.46-.12-.48-.48-.17-2.53-.36-5.05-.54-7.58-.02-.29-.12-.37-.4-.36-1.3.01-2.59.01-3.89,0-.28,0-.37.08-.39.37-.17,2.57-.37,5.15-.55,7.72-.02.24-.09.32-.34.32-3.1,0-6.19-.01-9.29,0-.38,0-.37-.2-.34-.45.17-1.36.34-2.71.51-4.07.24-1.87.48-3.74.71-5.61.27-2.15.54-4.3.82-6.46.23-1.86.47-3.71.7-5.57.27-2.15.55-4.3.82-6.46.24-1.87.47-3.74.7-5.62.23-1.86.46-3.71.7-5.57.24-1.89.48-3.77.72-5.66.18-1.42.36-2.84.54-4.26.03-.23.02-.47.03-.71,4.39,0,8.79,0,13.18,0Zm-6.56,10.14s-.03,0-.04,0c-.16,2.19-.33,4.38-.49,6.57-.19,2.62-.38,5.24-.57,7.86-.21,2.95-.4,5.91-.61,8.86-.02.29.04.35.31.35.92-.01,1.83-.01,2.75,0,.3,0,.37-.09.35-.38-.16-1.94-.3-3.89-.44-5.84-.14-1.99-.27-3.99-.41-5.98-.18-2.53-.37-5.05-.55-7.58-.09-1.29-.2-2.57-.29-3.86Z" class="cls-3"/><path d="m834.57,192.47c.32,2.53.63,5.05.96,7.58.3,2.36.61,4.71.91,7.06.27,2.14.53,4.28.8,6.41.27,2.12.55,4.24.82,6.36.27,2.14.53,4.28.79,6.41.27,2.12.55,4.24.82,6.36.27,2.14.53,4.28.79,6.41.14,1.12.28,2.25.44,3.37.05.32.01.45-.36.45-3.06-.01-6.13-.01-9.19,0-.28,0-.39-.08-.41-.36-.07-1.05-.17-2.1-.24-3.15-.11-1.52-.21-3.05-.3-4.57-.01-.24-.09-.33-.34-.33-1.33,0-2.65.01-3.98,0-.32,0-.37.17-.39.4-.04.52-.08,1.04-.11,1.55-.14,1.98-.27,3.96-.4,5.94-.02.38-.14.54-.56.53-3.16-.02-6.32,0-9.48,0v-.38c.09-.08.08-.2.09-.31.1-.87.2-1.75.31-2.62.27-2.12.55-4.24.82-6.36.27-2.14.52-4.28.79-6.41.3-2.37.61-4.74.91-7.11.3-2.39.59-4.78.89-7.16.3-2.43.62-4.87.93-7.3.26-2.09.52-4.18.79-6.27.27-2.17.55-4.34.82-6.5,4.36,0,8.72,0,13.08,0Zm-6.49,10.33c-.12.08-.12.2-.12.3-.07,1.07-.14,2.14-.21,3.2-.1,1.46-.2,2.92-.3,4.38-.18,2.54-.37,5.08-.55,7.63-.08,1.07-.17,2.13-.25,3.2-.11,1.46-.2,2.92-.32,4.38-.02.31.1.37.38.37.71-.02,1.42,0,2.13,0,.98,0,.96,0,.88-.97-.17-1.98-.31-3.95-.45-5.93-.14-1.96-.27-3.92-.4-5.89-.18-2.54-.37-5.08-.55-7.63-.07-1.01-.15-2.02-.23-3.04Z" class="cls-3"/><path d="m878.75,192.47c.25,1.96.51,3.93.76,5.89.27,2.12.53,4.24.8,6.37.24,1.87.48,3.74.71,5.62.27,2.14.54,4.27.8,6.41.24,1.9.48,3.81.72,5.71.27,2.12.54,4.24.81,6.36.24,1.87.47,3.74.7,5.62.27,2.14.54,4.27.81,6.41.07.56.14,1.12.22,1.68.04.28-.06.35-.33.35-3.1,0-6.19,0-9.29,0-.24,0-.33-.07-.35-.32-.08-1.1-.17-2.2-.25-3.29-.11-1.49-.21-2.98-.3-4.48-.01-.24-.09-.33-.34-.33-1.33,0-2.65.02-3.98,0-.4,0-.38.26-.39.5-.08.96-.14,1.91-.2,2.87-.1,1.55-.21,3.11-.3,4.66-.02.28-.11.38-.4.38-3.1,0-6.19,0-9.29,0-.26,0-.34-.04-.3-.35.44-3.45.86-6.9,1.29-10.34.47-3.76.95-7.52,1.42-11.28.44-3.49.88-6.99,1.32-10.48.49-3.87,1-7.73,1.49-11.6.27-2.12.52-4.24.78-6.37,4.36,0,8.72,0,13.08,0Zm-6.49,10.09c-.11.52-.13.98-.16,1.43-.05.97-.13,1.95-.2,2.92-.18,2.5-.37,4.99-.55,7.49-.11,1.48-.2,2.95-.31,4.43-.17,2.35-.35,4.71-.54,7.06-.03.32.11.37.38.36.84-.01,1.68-.03,2.51,0,.46.02.55-.15.52-.56-.17-2.1-.32-4.21-.47-6.31-.19-2.65-.38-5.31-.57-7.96-.21-2.94-.41-5.87-.62-8.87Z" class="cls-3"/><path d="m1024.75,192.47c0,2.63,0,5.26.02,7.9,0,.33-.17.34-.41.34-1.66,0-3.32,0-4.98-.01-.37,0-.52.06-.52.48.02,3.97.01,7.95,0,11.92,0,.36.09.48.47.48,1.66-.02,3.32,0,4.98-.02.34,0,.46.08.46.44-.02,2.46-.01,4.92,0,7.38,0,.33-.09.43-.43.43-1.67-.02-3.35,0-5.02-.01-.35,0-.46.08-.46.44.01,3.94.01,7.88,0,11.82,0,.38.14.44.47.43,1.66-.01,3.32,0,4.98-.01.34,0,.47.07.46.44-.02,2.51-.01,5.01,0,7.52,0,.34-.07.46-.44.46-5.21-.01-10.43-.01-15.64,0-.39,0-.46-.14-.46-.49,0-16.54,0-33.07,0-49.61,0-.11.01-.22.02-.33,5.5,0,11,0,16.5,0Z" class="cls-3"/><path d="m852.3,192.47c0,8.01,0,16.02,0,24.03,0,5.82,0,11.64-.01,17.45,0,.44.12.55.55.54,1.77-.02,3.54,0,5.31-.02.37,0,.52.07.52.48-.02,2.49-.02,4.98,0,7.47,0,.38-.12.47-.48.47-5.34-.01-10.68-.01-16.02,0-.47,0-.57-.13-.56-.58.01-16.41,0-32.83,0-49.24,0-.2,0-.41-.01-.61,3.57,0,7.14,0,10.71,0Z" class="cls-3"/><path d="m1045.13,192.47c0,.22-.01.44-.01.66,0,16.38,0,32.77,0,49.15q0,.61-.61.61c-3.18,0-6.35-.01-9.53.01-.46,0-.57-.12-.57-.58.01-16.41.01-32.83,0-49.24,0-.2,0-.41,0-.61,3.57,0,7.14,0,10.71,0Z" class="cls-3"/><path d="m1057.83,192.47c0,16.57,0,33.14,0,49.71,0,.83.12.71-.74.71-3.13,0-6.26,0-9.38,0-.38,0-.51-.07-.51-.49.01-16.58,0-33.17,0-49.75,0-.06,0-.13,0-.19,3.54,0,7.08,0,10.62,0Z" class="cls-3"/><path d="m1028.73,192.47c-.13.45.07.95-.17,1.49-.19-.34-.06-.62-.16-.89-.18.16-.2.39-.3.58-.05.09-.07.22-.22.21-.11-.01-.14-.11-.18-.2-.08-.18-.16-.37-.32-.55,0,.17,0,.35,0,.52,0,.09,0,.21-.12.22-.13,0-.13-.12-.13-.21,0-.39-.01-.78-.02-1.18.13,0,.25,0,.38,0,.07.36.21.69.44,1.05.15-.39.28-.72.41-1.05.13,0,.25,0,.38,0Z" class="cls-3"/><path d="m1027.02,192.47s-.01.04-.02.04c-.6.17-.46.66-.47,1.09,0,.11.02.25-.13.26-.16,0-.13-.15-.13-.25,0-.12,0-.25,0-.37,0-.3.05-.62-.41-.61-.02,0-.04-.1-.07-.16.41,0,.82,0,1.23,0Z" class="cls-3"/></g></svg>