<?xml version="1.0" encoding="UTF-8"?>
<svg id="Capa_1" data-name="Capa 1" xmlns="http://www.w3.org/2000/svg" viewBox="0 0 798.8 146.96">
  <defs>
    <style>
      .cls-1 {
        fill: #5b21a5;
      }

      .cls-1, .cls-2 {
        stroke-width: 0px;
      }

      .cls-2 {
        fill: #f2f2f2;
      }
    </style>
  </defs>
  <rect class="cls-1" width="798.8" height="146.96" rx="25.54" ry="25.54"/>
  <g>
    <path class="cls-2" d="m102.7,103.53v-26.04h-17.01v26.04h-11.52v-60.1h11.52v24.64h17.01v-24.64h11.48v60.1h-11.48Z"/>
    <path class="cls-2" d="m136.76,90.98l-3.55,12.55h-12.22l19.69-60.1h10.53l19.32,60.1h-12.22l-3.51-12.55h-18.04Zm15.31-9.87l-6.15-22.12-6.32,22.12h12.47Z"/>
    <path class="cls-2" d="m206.62,84.83c-.37-.93-1-1.82-1.88-2.64-.91-.8-2.08-1.53-3.53-2.21-1.44-.67-3.24-1.3-5.39-1.88-3.33-.91-6.25-2.01-8.77-3.3-2.52-1.29-4.58-2.71-6.17-4.25-1.6-1.54-2.8-3.25-3.61-5.12-.81-1.87-1.22-3.91-1.22-6.11,0-2.53.54-4.83,1.61-6.89,1.07-2.06,2.56-3.82,4.46-5.28,1.9-1.46,4.14-2.58,6.73-3.36,2.59-.78,5.39-1.18,8.42-1.18s6.01.45,8.61,1.36c2.6.91,4.84,2.17,6.71,3.8,1.87,1.65,3.33,3.61,4.38,5.86,1.05,2.26,1.57,4.73,1.57,7.43h-11.31c-.06-1.35-.3-2.59-.72-3.71-.43-1.13-1.05-2.1-1.88-2.93-.85-.8-1.91-1.42-3.16-1.88-1.25-.45-2.72-.68-4.4-.68-1.54,0-2.91.19-4.11.56-1.2.37-2.21.89-3.03,1.55-.83.69-1.45,1.49-1.88,2.42-.43.92-.64,1.92-.64,2.99,0,1.13.28,2.15.85,3.05.56.91,1.38,1.72,2.46,2.44,1.07.74,2.37,1.42,3.9,2.02,1.53.61,3.25,1.17,5.18,1.69,2.06.58,4.03,1.28,5.9,2.1,1.87.83,3.59,1.78,5.16,2.85,2.37,1.76,4.25,3.81,5.65,6.15s2.1,5.04,2.1,8.09c0,2.64-.53,4.99-1.59,7.04-1.06,2.05-2.53,3.78-4.4,5.18-1.87,1.43-4.1,2.51-6.69,3.24-2.59.73-5.41,1.09-8.46,1.09s-5.96-.45-8.9-1.34c-2.93-.89-5.48-2.21-7.66-3.94-2.06-1.71-3.69-3.71-4.89-6.03-1.2-2.31-1.8-5.02-1.8-8.13h11.39c.05,1.82.37,3.37.95,4.67.58,1.29,1.39,2.35,2.44,3.18,1.02.83,2.25,1.43,3.69,1.82,1.44.39,3.03.58,4.77.58,1.54,0,2.91-.18,4.11-.54,1.2-.36,2.21-.85,3.03-1.49s1.46-1.4,1.9-2.29c.44-.89.66-1.88.66-2.95s-.19-2.08-.56-3.01Z"/>
    <path class="cls-2" d="m252.33,52.88v50.65h-11.64v-50.65h-18.29v-9.45h48.46v9.45h-18.53Z"/>
    <path class="cls-2" d="m288.94,90.98l-3.55,12.55h-12.22l19.69-60.1h10.53l19.32,60.1h-12.22l-3.51-12.55h-18.04Zm15.31-9.87l-6.15-22.12-6.32,22.12h12.47Z"/>
    <path class="cls-2" d="m395.81,103.53v-46.11l-15.19,5.45v-9.99l26.17-9.45h.62v60.1h-11.6Z"/>
    <path class="cls-2" d="m467.82,90.92c-.89,2.96-2.18,5.43-3.86,7.41-1.68,2.01-3.73,3.52-6.15,4.54-2.42,1.02-5.15,1.53-8.17,1.53s-5.71-.51-8.13-1.53c-2.42-1.02-4.47-2.53-6.15-4.54-1.71-1.98-3.02-4.45-3.94-7.41-.92-2.96-1.38-6.38-1.38-10.26v-14.36c0-3.88.45-7.3,1.36-10.26.91-2.96,2.21-5.44,3.92-7.45,1.68-1.98,3.72-3.48,6.13-4.5,2.41-1.02,5.11-1.53,8.11-1.53s5.75.51,8.17,1.53c2.42,1.02,4.49,2.52,6.19,4.5,1.68,2.01,2.97,4.49,3.88,7.45s1.36,6.38,1.36,10.26v14.36c0,3.88-.45,7.3-1.34,10.26Zm-10.22-27.14c-.06-2.26-.3-4.19-.72-5.8-.43-1.61-1.05-2.9-1.88-3.86-.63-.77-1.41-1.34-2.33-1.71-.92-.37-1.96-.56-3.12-.56-1.29,0-2.43.24-3.41.72-.98.48-1.8,1.2-2.46,2.17-.72,1.02-1.25,2.34-1.59,3.96-.34,1.62-.52,3.55-.52,5.78v11.23l16.01-11.93Zm0,11.64v-3.84l-16.01,11.89c.05,1.82.24,3.43.56,4.83s.76,2.57,1.34,3.51c.66,1.13,1.5,1.97,2.52,2.52,1.02.55,2.23.83,3.63.83,1.29,0,2.43-.24,3.43-.72.99-.48,1.82-1.22,2.48-2.21.69-1.05,1.2-2.39,1.55-4.02.34-1.64.52-3.57.52-5.8v-6.98Z"/>
    <path class="cls-2" d="m477.1,49.66c.48-1.4,1.22-2.63,2.21-3.67.96-1.05,2.18-1.88,3.65-2.5,1.47-.62,3.18-.93,5.14-.93s3.75.31,5.22.93c1.47.62,2.69,1.45,3.65,2.5.96,1.05,1.68,2.27,2.17,3.67.48,1.4.72,2.9.72,4.5v3.18c0,1.57-.24,3.05-.72,4.44-.48,1.39-1.2,2.61-2.17,3.65-.96,1.07-2.17,1.91-3.63,2.52-1.46.61-3.18.91-5.16.91s-3.71-.3-5.18-.91c-1.47-.61-2.69-1.44-3.65-2.52-.99-1.05-1.73-2.26-2.23-3.65s-.74-2.87-.74-4.44v-3.18c0-1.6.24-3.1.72-4.5Zm7.24,9.51c.14.59.37,1.11.7,1.55.3.47.72.83,1.24,1.09.52.26,1.16.39,1.9.39s1.37-.13,1.88-.39c.51-.26.91-.62,1.22-1.09.3-.44.52-.96.66-1.55s.21-1.2.21-1.84v-3.18c0-.63-.07-1.25-.21-1.84s-.36-1.12-.66-1.59c-.33-.44-.75-.79-1.26-1.05-.51-.26-1.15-.39-1.92-.39s-1.36.13-1.86.39-.89.61-1.2,1.05c-.33.47-.56,1-.7,1.59s-.21,1.2-.21,1.84v3.18c0,.63.07,1.25.21,1.84Zm2.11,33.5l23.16-42.43,5.61,2.68-23.16,42.43-5.61-2.68Zm14.94-7.51c.5-1.4,1.24-2.64,2.23-3.71.96-1.04,2.18-1.87,3.65-2.48,1.47-.6,3.19-.91,5.14-.91s3.75.3,5.22.91c1.47.61,2.69,1.43,3.65,2.48.96,1.07,1.69,2.31,2.17,3.71s.72,2.89.72,4.46v3.22c0,1.57-.23,3.05-.7,4.46s-1.18,2.63-2.15,3.67c-.99,1.05-2.21,1.87-3.67,2.48-1.46.6-3.18.91-5.16.91s-3.71-.3-5.2-.91c-1.49-.61-2.71-1.43-3.67-2.48-.99-1.05-1.73-2.27-2.23-3.67-.5-1.4-.74-2.89-.74-4.46v-3.22c0-1.57.25-3.05.74-4.46Zm7.26,9.51c.17.59.43,1.11.78,1.55.33.47.75.83,1.26,1.09.51.26,1.11.39,1.79.39.85,0,1.54-.13,2.06-.39.52-.26.92-.63,1.2-1.09.28-.44.45-.95.54-1.53.08-.58.12-1.2.12-1.86v-3.22c0-.63-.07-1.24-.21-1.82-.14-.58-.36-1.1-.66-1.57-.33-.44-.75-.79-1.26-1.05-.51-.26-1.14-.39-1.88-.39s-1.38.13-1.9.39c-.52.26-.94.61-1.24,1.05-.3.47-.52.99-.66,1.57-.14.58-.21,1.18-.21,1.82v3.22c0,.63.08,1.25.25,1.84Z"/>
    <path class="cls-2" d="m623.04,85.26c-.47,2.33-1.14,4.48-2.02,6.46-.94,1.98-2.09,3.8-3.47,5.45s-2.94,3.03-4.71,4.13c-1.6.96-3.35,1.71-5.26,2.25-1.91.54-3.97.81-6.17.81-2.34,0-4.5-.3-6.48-.91-1.98-.61-3.78-1.46-5.41-2.56-1.6-1.16-3.03-2.55-4.29-4.19-1.27-1.64-2.33-3.49-3.18-5.55-.77-1.9-1.36-3.96-1.75-6.19-.4-2.23-.6-4.58-.6-7.06v-8.75c0-2.64.23-5.15.68-7.51.45-2.37,1.12-4.55,2-6.56.85-1.9,1.89-3.62,3.12-5.16,1.22-1.54,2.63-2.86,4.23-3.96,1.57-1.07,3.33-1.9,5.28-2.48,1.95-.58,4.07-.87,6.36-.87s4.48.3,6.5.89c2.02.59,3.84,1.44,5.47,2.54,1.62,1.05,3.05,2.31,4.27,3.8,1.22,1.49,2.28,3.12,3.16,4.91.96,2.04,1.7,4.27,2.21,6.69.51,2.42.76,4.99.76,7.72v8.75c0,2.59-.23,5.04-.7,7.37Zm-11.29-20.6c-.15-1.39-.39-2.68-.72-3.86-.41-1.49-.96-2.81-1.65-3.98-.69-1.17-1.5-2.13-2.44-2.87-.74-.55-1.58-.98-2.5-1.28-.92-.3-1.95-.45-3.08-.45s-2.04.14-2.91.41c-.87.28-1.64.67-2.33,1.2-.94.77-1.73,1.73-2.37,2.89-.65,1.16-1.15,2.5-1.51,4.04-.28,1.18-.47,2.48-.6,3.88-.12,1.4-.19,2.88-.19,4.42v8.83c0,1.46.05,2.86.17,4.21.11,1.35.3,2.6.58,3.76.3,1.46.75,2.79,1.34,3.98.59,1.2,1.29,2.17,2.08,2.91.74.66,1.59,1.17,2.54,1.53.95.36,2.03.54,3.24.54s2.21-.17,3.18-.5c.96-.33,1.82-.81,2.56-1.45.94-.77,1.73-1.74,2.37-2.91.65-1.17,1.16-2.5,1.55-3.98.3-1.16.53-2.42.68-3.8.15-1.38.23-2.81.23-4.29v-8.83c0-1.54-.08-3.01-.23-4.4Z"/>
    <path class="cls-2" d="m644.91,78.64v24.89h-11.64v-60.1h40.62v9.45h-28.98v16.35h25.76v9.41h-25.76Z"/>
    <path class="cls-2" d="m695.64,78.64v24.89h-11.64v-60.1h40.62v9.45h-28.98v16.35h25.76v9.41h-25.76Z"/>
  </g>
</svg>