<svg id="OBJECTS" xmlns="http://www.w3.org/2000/svg" viewBox="0 0 500 500"><defs><style>.cls-1{fill:#fff}.cls-2{fill:#5619db}.cls-4{fill:#40ff31}.cls-5{fill:#25008c}</style></defs><ellipse cx="111.7" cy="418" rx="63.1" ry="33.1" transform="rotate(-14.7 111.6 418)" style="fill:#f44b00"/><path class="cls-1" d="m76.7 433.9-2.2 1c-1.7.6-3 0-3.7-1.7l-.3-.8c-.7-1.6-.2-3 1.7-3.7l1-.2-.7-1.8c0-.1 0-.3.2-.3l1.4-.5.3.1c1 2.5 1.8 5 2.6 7.4 0 .2 0 .3-.3.4Zm-3-4-1 .2c-.8.3-.7 1-.5 1.6l.4.9c.3.7.6 1.2 1.4.9l.9-.4-1.2-3.3ZM83 429.7a72 72 0 0 0-3.7.9c.1.6.6 1 1.4.8.8-.1 1.7-.4 2.2-.6.2 0 .3 0 .3.2l.2.8c0 .2 0 .2-.2.3-.7.4-1.2.6-2.2.8-1.3.4-3 0-3.6-2l-.2-.7c-.6-1.7.1-3.1 2-3.6 2-.5 3.3.5 3.7 2.1l.2.7c0 .1 0 .2-.2.3Zm-2-.8c-.2-.8-.7-1-1.3-1-.7.2-1 .8-.8 1.6l2.1-.5ZM89.5 431.2l-1.4.2c-.1 0-.2 0-.3-.2-.4-2.7-1-5.3-1.5-8l.2-.2a72 72 0 0 1 1.9 0 201.7 201.7 0 0 1 1.1 8.2ZM96 430.6h-1.3l-.2-.1v-.2c-.5.3-1 .6-1.6.6-1 .1-2-.3-2.2-1.7-.2-1.4.6-2 2.7-2.2h.6v-.5c0-.6-.4-.7-1-.7-.8 0-1.7.2-2 .3h-.1c-.2 0-.3 0-.3-.2l-.1-.9c0-.1 0-.2.2-.2a10 10 0 0 1 2.1-.5c1.8-.1 3 .5 3.2 2a265 265 0 0 1 0 4.3Zm-1.8-2.6h-.7c-.9.1-1 .4-1 1 0 .5.3.6.8.5.4 0 .7-.1 1-.3l-.1-1.2ZM100 430.6c-.7 0-1.6 0-2.2-.2-.2 0-.3-.1-.3-.2v-1l.2-.2 2.1.2c.6 0 .7-.2.7-.5l-.4-.4-1.7-.9c-.7-.3-1.1-.9-1.2-1.6 0-1.1.7-1.7 2.5-1.8 1 0 1.7.2 2.3.3.2 0 .3.2.3.3v1l-.2.1-2.2-.2c-.5 0-.6.1-.6.4a46.5 46.5 0 0 1 2 1.2c1 .5 1.2 1.1 1.2 1.7 0 1-.8 1.8-2.5 1.8ZM75 423.1c-1.8.4-3.1.5-4.3.5-.3 0-.5 0-.6-.3l-.5-2.2c0-.3 0-.4.3-.5l4.4-.7c1.5-.3 1.9-1 1.7-2-.2-.6-.6-.9-1.9-1.3a368 368 0 0 0-3.5-1c-2.4-.8-3.4-2-3.8-3.6-.6-2.4.4-4.6 5-5.6 1.8-.4 4.3-.6 5.2-.6.2 0 .4.1.4.4l.5 2.2c0 .2 0 .4-.3.4h-.1l-5 .8c-1.4.3-1.8.8-1.6 1.6.2.6.5.8 2 1.1l3.2 1c2.6.7 3.6 2 4 3.8.4 2.3-.7 5-5.1 6ZM93.1 419.6c-.7.3-1.9.6-4.3 1-2.9.4-5.5.1-6.2-3.9l-1.4-7.3c-.7-4 2-5.2 5-5.7 2.6-.4 3.8-.3 4.7-.3.3 0 .5 0 .5.3l.3 2c0 .3-.1.6-.4.6l-4.8.7c-1.1.2-1.5.6-1.3 1.7l.3 2 6-.8c.4 0 .6 0 .6.3l.3 2.1c0 .3-.1.5-.4.5l-6 1 .4 2.3c.2 1.1.6 1.4 1.7 1.2l4.6-.6c.3 0 .5.1.5.3l.3 2.1c0 .3-.1.4-.4.5ZM111.3 418l-3 .2c-.2 0-.4-.1-.4-.4a42989.6 42989.6 0 0 1-.8-9.5l-.1.2-1.9 3.8c-.1.3-.3.5-.6.5l-1.9.1c-.3 0-.5 0-.7-.3a272.9 272.9 0 0 0-2.7-3.6v.2l.9 9.3c0 .2-.1.4-.3.4l-3 .4c-.2 0-.4 0-.4-.3l-1.9-15.4c0-.5.3-.8.8-.9l2.3-.2c.5 0 .8.1 1 .4a243 243 0 0 1 4.6 6.3c.1 0 .2 0 .3-.3l3.1-6.6c.2-.4.5-.7 1-.7l2.3-.1c.5 0 .9.3 1 .7l.7 15.5c0 .3-.2.3-.3.4ZM127.6 417.9h-3.2c-.2 0-.4-.3-.5-.5l-.8-3.7h-4.7l-.7 3.7c0 .3-.3.5-.5.5H114c-.2 0-.3 0-.4-.3l3-14c.6-2.2 2.4-2.6 4-2.6 1.7 0 3.5.3 4 2.5l3.4 14c0 .2-.2.4-.4.4Zm-6.6-13.4c0-.2-.1-.3-.3-.3-.3 0-.3 0-.4.3l-1.3 6.2h3.5l-1.5-6.2ZM142.5 418.7l-2.3-.2c-.4 0-.8-.1-1-.8a248 248 0 0 0-5-9.3c-.1 0-.2 0-.2.2l-.4 9c0 .3-.3.5-.5.5l-2.7-.1a.4.4 0 0 1-.4-.5l.4-15.3c0-.5.5-.9 1-.8h2.5c.4 0 .7.3 1 .8l5 9.6.2.2s.2 0 .2-.2l.6-9.5c0-.2.3-.4.6-.4l2.8.3c.3 0 .5.2.5.5l-1.4 15.3c0 .4-.5.8-1 .7ZM159.3 420.9l-3.2-.5a.5.5 0 0 1-.4-.5l-.2-3.8-4.8-.6a501 501 0 0 0-1.2 3.5c-.1.3-.3.4-.5.4l-3.2-.4c-.3 0-.4-.2-.4-.4l5-13.5c.8-2 2.7-2.2 4.3-2 1.7.3 3.5.9 3.7 3.1.5 4.8 1 9.5 1.3 14.3 0 .3-.2.4-.4.4Zm-4.7-14.2c0-.2 0-.3-.3-.4-.2 0-.3 0-.3.3l-2.3 6c1.2 0 2.4.2 3.5.4l-.6-6.3Z"/><g><path class="cls-2" d="M172 436c-6-1-12.1-1.5-16.2-1.9a272 272 0 0 0-38.4-.3c-12 .7-24.7 2-38.8 4.1l-6 1-1.2.2-.9.1-7.2 1.1c-4 .5-9.1 1.2-13.9 2.5-6.1 1.7-11 4.3-14.6 7.8l-.2.2v4.2l-3.6.7a47 47 0 0 0-12 5.3A67.2 67.2 0 0 0 .2 478c-.2.3-.2.6 0 .9l.4.2h.3c4.3-1.4 8.4-2.7 12.6-3.7l6.4-1.2a148.2 148.2 0 0 0-12.6 18c-1 2.3-1.8 4.7-2.2 7.2 0 .3 0 .5.3.7l.3.1.5-.1a106.3 106.3 0 0 1 14.7-9.4c5-2.6 10.4-5 16.2-7.3v2l.2 1v.3l.7 6.2c.1.4.3 1 .6 1.4-.2 1-.1 2 .4 3a4 4 0 0 0 3 2.1c.8.2 1.8 0 2.6-.3 2.3-1 4.5-2 7-2.9 11.7-4.2 25-7 41.5-8.5a421 421 0 0 1 77.1 2.8l4.8.6 2.4.3a407.3 407.3 0 0 1 10.3 1.2l4 .3 2.1.2c1 0 2.2-.2 3.2-.6l-.8-12 2.6-.3c3.3-.2 6.9-.2 11.3-.1 4.1.1 8.5.5 12.7.8l7.2.5c.2 0 .4 0 .6-.3.1-.2.2-.5 0-.8a66.4 66.4 0 0 0-25.7-18.2 83.9 83.9 0 0 1 5.7-1.8 60 60 0 0 1 11.5-1.3c.2 0 .5-.3.5-.5 0-.3 0-.6-.3-.8a65.7 65.7 0 0 0-26.9-7.6l.3-6-.8-.6a72 72 0 0 0-23-7.5Z"/><path class="cls-5" d="M33.7 456.1a34.1 34.1 0 0 0-1.4 13.9 46.5 46.5 0 0 0 4.4 13.9c.2-4.6 0-9.2-.6-13.7-.5-4.7-1.6-9.4-2.3-14v-.1ZM196.3 452.2c-3.5 8.6-4.2 19.9 1.4 27.8.6-4.5.4-9 .3-13.5a74 74 0 0 0-1.7-14.3Z"/><path class="cls-2" d="M149.8 480.7a101.8 101.8 0 0 0-35.2 3.6c6.7-.8 13.4-1 20.2-.8h-.1c8.3.2 16.6 1 24.9 2l12.2 1.1c4 .4 8.2 1.2 12.3.8-2.5-1.2-5.2-1.7-7.9-2.4a272.5 272.5 0 0 0-13-2.7c-4.5-.7-9-1.3-13.4-1.6Zm-15 2.7h.3-.3ZM96.5 440.9c17.3-1.8 34.6-.2 51.8-.8a107.5 107.5 0 0 0-51.8.7Z"/><path class="cls-4" d="m43.5 458.8.5-.1c.7-.1 1.5 0 2.4.5.7.4 1.4 1 2 1.7.6.6 1 1.2 1.4 1.9.2-1 .4-1.9.8-2.6a4 4 0 0 1 1.5-1.9l.6-.2.5-.1 1.2.3a5.1 5.1 0 0 1 2 1.8c.5.6.8 1.3 1 2.2.4 2 .1 4-.1 5.3a29.4 29.4 0 0 1-3.5 9l-.1.3-.9 1.3.5-.8H53c-.1.2-.4.3-.6.3h-1.3l-2-1.3-.3-.1-.4-.3-1.4-1c-1.1-.9-2.2-2-3.3-3.5a20.7 20.7 0 0 1-3-4.9c-.7-1.7-.9-3.3-.5-4.7.1-.7.5-1.4 1.1-2l1.2-.8a4 4 0 0 1 1-.4ZM183.8 455.2a4.2 4.2 0 0 0-3 0 7 7 0 0 0-2.3 1.4l-1.5 1.6c0-1-.2-1.8-.4-2.6a4 4 0 0 0-1.2-2.1l-.6-.4a3 3 0 0 0-.5 0c-.4-.2-.9 0-1.3 0a5 5 0 0 0-1.4.7l-.9.8c-.5.5-.9 1.2-1.2 2-.7 1.9-.7 4-.7 5.3a29 29 0 0 0 2.1 9.5l.1.2.6 1.5-.3-1 .1.2.6.4h1.3c.8-.1 1.5-.5 2.2-.8l.3-.1.4-.3 1.6-.7a21.7 21.7 0 0 0 7.4-7.4c1-1.6 1.4-3.2 1.3-4.6 0-.7-.4-1.5-.9-2.1-.2-.4-.6-.8-1-1-.2-.2-.5-.4-.9-.5Z"/></g><path class="cls-2" d="m184.7 402.3-1.2-.1c-1.1 0-2.1.4-2.9.8a10.4 10.4 0 0 0-3.5 2.8v-.6c-.1-1-.3-1.9-.7-2.7-.4-1-.9-1.7-1.5-2.3a5 5 0 0 0-2.7-1.2 6 6 0 0 0-3.3.6c-2.2 1.1-3 3-3.3 4.5-.3 1.8-.1 3.8.5 6.5a43 43 0 0 0 4.1 10.7l.2.3v.1c.2.3.3.4.6.5.3.1.5.1.8 0 2.3-1 4.3-2.5 6.5-4.8A41.3 41.3 0 0 0 186 406a5 5 0 0 0 .3-1.8c0-.5-.1-.9-.4-1.2-.2-.3-.6-.6-1-.8h-.2ZM50.7 423a2 2 0 0 0-.6.3 4 4 0 0 0-1 1.4 5.6 5.6 0 0 0-.5 2.3l-.2-.2a5 5 0 0 0-1.2-1c-.5-.2-1-.4-1.4-.4a2.5 2.5 0 0 0-1.6.4c-.4.3-.8.7-1.1 1.4-.6 1.1-.3 2.2 0 3 .5.8 1.2 1.6 2.4 2.6A23.3 23.3 0 0 0 51 436h.2c.1.1.3.1.4 0 .1 0 .2 0 .3-.2.7-1.2 1-2.5 1.2-4.2a22.4 22.4 0 0 0-.5-7.4c-.1-.4-.3-.6-.5-.8-.1-.2-.3-.4-.5-.4H50.7ZM188.4 422.4l-.6-.2a4 4 0 0 0-1.7.1 6.1 6.1 0 0 0-2.3 1.2l.1-.3c.1-.6.1-1.1 0-1.6 0-.6-.1-1.1-.3-1.6a2.6 2.6 0 0 0-1.3-1c-.5-.2-1.1-.2-1.8 0-1.4.4-2.1 1.4-2.5 2.2-.5 1-.7 2.2-.8 3.9a25.4 25.4 0 0 0 .2 5.4l.2 1.2V432l.3.3.4.1c1.4-.3 2.7-1 4.3-2a24.5 24.5 0 0 0 3.5-3 21.2 21.2 0 0 0 2.4-2.7c.2-.4.4-.7.4-1v-.7a1 1 0 0 0-.4-.6Z"/><g><path class="cls-1" d="m81.4 472.7-3.2.5c-.3 0-.5-.2-.5-.5L75.6 460c0-.2-.1-.2-.2-.2l-.1.2-1.5 5.4c0 .4-.3.6-.6.7l-2 .3c-.4.1-.7 0-.9-.3a344.8 344.8 0 0 0-3.5-4.7s-.1 0 0 .2l2.4 12.6c.1.3 0 .6-.2.7l-3.2.7c-.2 0-.5 0-.5-.4l-4.6-20.8c-.2-.7.2-1.2.7-1.3l2.5-.5c.6-.1 1 .1 1.3.6a323.4 323.4 0 0 1 6 8.2l.3-.5c.7-3 1.6-6.2 2.5-9.3.1-.5.4-1 1-1l2.5-.4c.6 0 1 .3 1.1 1l3.1 21c0 .4-.1.5-.3.5ZM99 470.8l-3.4.3c-.2 0-.5-.3-.5-.6l-1.4-4.9-5.1.5-.4 5.1c0 .4-.1.6-.4.7l-3.4.4c-.3 0-.5-.1-.5-.4v-.2c.4-6.5.8-13 1.4-19.4.2-3 2.2-3.7 4-3.9 1.9-.2 4 .1 4.8 3 1.9 6.2 3.6 12.5 5.3 18.7v.2c0 .3-.1.5-.4.5Zm-8.8-17.6c0-.3-.2-.5-.4-.4-.2 0-.3.2-.3.5l-.7 8.6 3.8-.4-2.4-8.3ZM107.6 470.6c-2 0-4.2 0-5.2-.2-.5 0-.8-.3-.8-1l-1.3-20.3c0-.7.3-1 .8-1.1 1-.3 3.5-.7 5.7-.8 5.4-.1 8.7 3.1 8.7 9.6v4c0 6.5-3 9.7-7.9 9.8Zm3.4-13.8c0-4.1-1.6-5.2-4-5.1l-2 .1.7 14.4h1.8c2.2-.1 3.7-1.2 3.6-5.4l-.1-4ZM132.3 470.8l-3.8-.2c-.3 0-.4-.4-.5-.7l-3-7.9h-.3l-1.8-.1-.2 7.8c0 .3-.3.6-.5.6H119c-.3 0-.5-.3-.5-.7l.2-20.6c0-1 .4-1.3 1.2-1.5 1.3-.2 3.6-.3 5.5-.2 4.7.2 8.1 2.2 7.7 7.6v.4c-.2 3.3-1.8 5.1-3.7 6a307.4 307.4 0 0 1 3.3 9.2c0 .2-.2.3-.4.3Zm-3.7-16.2c.1-1.8-1-2.8-3.3-2.9h-2.1l-.2 6h1.9c2.7.2 3.6-.6 3.7-2.7v-.4ZM145.4 472c-1 0-2.2.1-4.9-.2-3.1-.3-5.8-1.5-5.4-7.1l.8-10.2c.4-5.6 3.6-6.3 7.1-6 3 .4 4.3.8 5.2 1 .4.2.5.3.5.7l-.4 2.9c0 .3-.3.6-.6.5a240 240 0 0 0-5.4-.6c-1.3-.1-1.8.3-2 2 0 .8 0 1.8-.2 2.7l6.8.8c.3 0 .5.3.4.6l-.4 3c0 .3-.3.5-.6.5a249 249 0 0 0-6.6-.8l-.3 3.3c-.2 1.5.2 2 1.4 2.2l5 .6c.4 0 .5.4.5.7l-.4 2.8c0 .4-.2.6-.5.6ZM153.9 473.6a16 16 0 0 1-4.6-1.4c-.2 0-.4-.3-.4-.6l.5-3c0-.4.2-.6.5-.5 1 .2 3.8 1 4.7 1 1.8.4 2.4-.2 2.6-1.7.2-.8 0-1.4-1.2-2.5l-3.2-3c-2.1-2.1-2.5-4.1-2.2-6.3.5-3.4 2.5-5.8 7.7-5 2 .4 4.6 1.3 5.6 1.7.2.2.3.3.3.7l-.6 3c0 .3-.2.5-.5.5l-5.6-1.4c-1.5-.2-2.2.2-2.3 1.3-.2.8.1 1.3 1.4 2.4l3 2.7a6.6 6.6 0 0 1 2.2 6.8c-.6 3.2-3 6.2-8 5.4Z"/></g></svg>