<svg id="a" xmlns="http://www.w3.org/2000/svg" viewBox="0 0 209.8 205.6"><defs><style>.b{fill:#fff}</style></defs><rect x=".6" y="182.1" width="108.5" height="23.2" rx="11.4" ry="11.4" style="fill:#ff5400"/><path class="b" d="M54 196.3c-.2.7-.5 1.2-1 1.5s-1 .5-2 .5h-3c-.8 0-1.4-.1-1.7-.5s-.4-.8-.3-1.5l.6-3c.2-.6.5-1.1 1-1.4s1-.5 2-.5h3c.8 0 1.4.1 1.7.5.4.3.5.8.3 1.5l-.6 3Zm-4-3.4-.6.1a1 1 0 0 0-.7.6l-.1.4-.4 1.7v.5l.1.3.3.2h2.6l.4-.2.2-.3.2-.5.3-1.7c0-.2.1-.3 0-.4v-.4l-.3-.2h-2ZM57.3 195.6l-.6 2.7h-2.1l1-5c.2-.6.5-1.1 1-1.4s1-.5 2-.5H64l-.4 1.5h-4.6l-.7.1a1 1 0 0 0-.6.6l-.2.4h5.9l-.4 1.6h-5.8ZM72 196.7l-.4 1.6h-5.5c-.9 0-1.5-.1-1.8-.5s-.4-.8-.3-1.5l.7-3c.1-.6.4-1.1.9-1.4s1.1-.5 2-.5H73l-.4 1.6h-5.3a1 1 0 0 0-.6.6l-.2.4h6l-.4 1.6h-5.9V196.6l.4.2H71.9ZM80.7 198.3h-2.3l-1.8-2.4h-1.3l-.5 2.4h-2.1l1.5-7h5.5c.8 0 1.4.2 1.8.6.3.3.4.8.2 1.5l-.1.5c-.1.7-.4 1.1-.8 1.5s-1 .5-1.8.5l1.8 2.4ZM76 193l-.3 1.3h3.2l.4-.1.2-.2.1-.4v-.5l-.4-.1H76ZM90.8 193h-3l-1 5.3h-2.2l1.1-5.4h-2.9l.4-1.5H91l-.3 1.5ZM98.6 198.3h-2l.5-2.7h-3.7l-.6 2.7h-2.1l1-5c.2-.6.5-1.1 1-1.4s1-.5 2-.5h3c.8 0 1.4.1 1.7.5.4.3.4.8.3 1.5l-1 5Zm-1.2-4.3v-.8l-.4-.2h-2.5a1 1 0 0 0-.7.6l-.1.4h3.7ZM102.2 196.7l-.4 1.6h-2.1l.3-1.6h2.2Zm1-5.3-.9 4.6h-2l.9-4.6h2Z"/><rect x=".5" y="182.1" width="42.1" height="23.2" rx="11.6" ry="11.6" style="fill:#5902ab"/><g><path class="b" d="m10.1 198.3 1-4.6h2.1l-1 4.6h-2Zm1.2-5.3.3-1.6h2.1l-.3 1.5h-2.1ZM21.6 196.7l-.4 1.6h-5.4c-1 0-1.5-.1-1.8-.5s-.4-.8-.3-1.5l.6-3c.2-.6.5-1.1 1-1.4s1-.5 2-.5h5.4l-.3 1.6H17a1 1 0 0 0-.6.6l-.2.4h5.9l-.4 1.6H16l-.1.6.1.3.3.2h5.3ZM29.6 191.4h2.2l-1.5 7h-1.9l-3.1-4-.9 4h-2l1.4-7h1.9l3.1 4 .8-4Z"/></g></svg>