<svg xmlns="http://www.w3.org/2000/svg" id="Capa_1" data-name="Capa 1" viewBox="0 0 1080 1080"><defs><style>.cls-2{fill:#00d30a}</style></defs><path fill="#5000ad" d="M0 0h1080v64.53H0z"/><path d="m105.47 32.63-23 31.9H63.93l23.26-32.26 4.38-6.07 13.12 6.07.78.36z" class="cls-2"/><path d="m105.47 31.91-.78.36-13.12 6.07-4.38-6.07L63.93 0h18.54l23 31.91zm50.54.72-23 31.9h-18.54l23.26-32.26 4.38-6.07 13.12 6.07.78.36z" class="cls-2"/><path d="m156.01 31.91-.78.36-13.12 6.07-4.38-6.07L114.47 0h18.54l23 31.91zm50.53.72-23 31.9h-18.53l23.25-32.26 4.38-6.07 13.12 6.07.78.36z" class="cls-2"/><path d="m206.54 31.91-.78.36-13.12 6.07-4.38-6.07L165.01 0h18.53l23 31.91zm52.48.72-22.99 31.9H217.5l23.25-32.26 4.38-6.07 13.12 6.07.77.36z" class="cls-2"/><path d="m259.02 31.91-.77.36-13.12 6.07-4.38-6.07L217.5 0h18.53l22.99 31.91zm51.54.72-23 31.9h-18.54l23.25-32.26 4.38-6.07 13.12 6.07.79.36z" class="cls-2"/><path d="m310.56 31.91-.79.36-13.12 6.07-4.38-6.07L269.02 0h18.54l23 31.91zm48.52.72-23 31.9h-18.52l23.25-32.26 4.38-6.07 13.12 6.07.77.36z" class="cls-2"/><path d="m359.08 31.91-.77.36-13.12 6.07-4.38-6.07L317.56 0h18.52l23 31.91z" class="cls-2"/><text fill="#fff" font-family="Usuzi" font-size="52.97" transform="matrix(.91 0 -.41 .91 431.17 47.87)">ENTREGA INMEDIATA</text></svg>