<svg xmlns="http://www.w3.org/2000/svg" xmlns:xlink="http://www.w3.org/1999/xlink" id="Capa_1" x="0" y="0" version="1.1" viewBox="0 0 1080 1080" style="enable-background:new 0 0 1080 1080" xml:space="preserve"><style type="text/css">.st0{fill:none}.st3{fill:#fff}.st5{fill:#14a52e;stroke:#14a52e;stroke-miterlimit:10}.st6{font-family:&apos;RobotoMono-Bold&apos;}.st7{font-size:45.4696px}</style><rect width="1082" height="1080" x="-.5" y=".5" class="st0"/><g><defs><rect id="SVGID_1_" width="1081" height="109" x="1"/></defs><clipPath id="SVGID_00000093168177985395178150000002928808187069813921_"><use xlink:href="#SVGID_1_" style="overflow:visible"/></clipPath><rect x="-6" y="-1" style="clip-path:url(#SVGID_00000093168177985395178150000002928808187069813921_);fill:#5b2197" width="1091" height="110"/><g style="clip-path:url(#SVGID_00000093168177985395178150000002928808187069813921_)"><path d="M165.14,44.2l2.27-7.05l12.91,5.71l-1.24-14.83h7.54l-1.34,15.07l12.8-5.61l2.27,7.19l-13.7,3.13l9.22,11.12 l-6.13,4.44l-7.26-12.8l-7.26,12.42l-6.16-4.23l9.57-11.25L165.14,44.2z" class="st3"/><path d="M216.9,56.18v14.14h24.06v7.81H207.2V28.03h33.66v7.88H216.9v12.63h20.58v7.64H216.9z" class="st3"/><path d="M249.29,40.9h8.67l0.59,5.16c0.48-0.69,1.01-1.32,1.58-1.89c0.57-0.57,1.18-1.09,1.82-1.55 c1.1-0.78,2.31-1.38,3.61-1.79c1.31-0.41,2.7-0.62,4.16-0.62c1.88,0,3.6,0.28,5.16,0.83c1.56,0.55,2.91,1.42,4.06,2.62 c1.12,1.22,2,2.77,2.63,4.66c0.63,1.89,0.95,4.19,0.95,6.9v22.92h-9.57V55.35c0-1.47-0.17-2.68-0.5-3.63s-0.81-1.7-1.43-2.25 c-0.62-0.55-1.37-0.93-2.24-1.15c-0.87-0.22-1.86-0.33-2.96-0.33c-0.92,0-1.76,0.1-2.53,0.31c-0.77,0.21-1.45,0.52-2.05,0.93 c-0.48,0.3-0.92,0.65-1.31,1.07c-0.39,0.41-0.75,0.87-1.07,1.38v26.46h-9.6V40.9z" class="st3"/><path d="M309.13,40.9h13.9v7.05h-13.9v16c0,1.35,0.16,2.48,0.46,3.39c0.31,0.91,0.75,1.62,1.33,2.15 c0.57,0.55,1.27,0.94,2.08,1.17s1.73,0.34,2.74,0.34c0.73,0,1.48-0.03,2.25-0.1c0.77-0.07,1.51-0.16,2.22-0.28 c0.69-0.09,1.34-0.2,1.94-0.31c0.61-0.11,1.13-0.23,1.57-0.34l0.93,6.57c-0.67,0.39-1.45,0.73-2.34,1.02 c-0.89,0.29-1.85,0.52-2.86,0.71c-1.01,0.18-2.06,0.33-3.15,0.43c-1.09,0.1-2.16,0.16-3.22,0.16c-2.04,0-3.89-0.27-5.56-0.81 c-1.66-0.54-3.08-1.38-4.25-2.53c-1.19-1.12-2.11-2.56-2.75-4.32s-0.96-3.86-0.96-6.32V47.95h-8.5V40.9h8.5v-9.12h9.57V40.9z" class="st3"/><path d="M364.63,40.5c1.23,0.2,2.22,0.41,2.98,0.64l-1.41,9.53c-1.26-0.3-2.55-0.52-3.87-0.67 c-1.32-0.15-2.58-0.22-3.77-0.22c-1.24,0-2.36,0.11-3.36,0.33s-1.89,0.54-2.67,0.98c-0.94,0.5-1.74,1.15-2.41,1.93 s-1.22,1.7-1.65,2.75v22.37h-9.57V40.9h8.91l0.38,5.27l0.07,0.83c1.51-2.11,3.33-3.77,5.44-4.97c2.11-1.2,4.42-1.81,6.92-1.81 C362.06,40.21,363.4,40.31,364.63,40.5z" class="st3"/><path d="M386.43,77.41c-2.34-0.94-4.35-2.23-6.02-3.85c-1.67-1.61-2.96-3.5-3.87-5.7c-0.91-2.19-1.36-4.54-1.36-7.04 v-1.38c0-2.84,0.45-5.44,1.34-7.79c0.9-2.35,2.15-4.38,3.75-6.07c1.61-1.7,3.51-3.02,5.71-3.96c2.2-0.94,4.6-1.41,7.19-1.41 c2.68,0,5.08,0.44,7.17,1.33c2.1,0.88,3.88,2.13,5.35,3.73c1.45,1.61,2.55,3.54,3.3,5.8s1.14,4.75,1.14,7.48v4.06h-25.26v0.1 c0.32,1.49,0.73,2.69,1.24,3.6s1.18,1.73,2.03,2.46c0.87,0.76,1.87,1.34,2.99,1.75s2.35,0.62,3.68,0.62 c1.88,0,3.71-0.36,5.47-1.07s3.2-1.78,4.3-3.2l4.78,5.16c-1.22,1.72-3.14,3.28-5.78,4.68s-5.76,2.1-9.36,2.1 C391.37,78.82,388.77,78.35,386.43,77.41z M390.14,48.52c-0.89,0.38-1.67,0.92-2.34,1.63c-0.69,0.71-1.26,1.56-1.72,2.55 c-0.46,0.99-0.8,2.09-1.03,3.3h15.69v-0.76c0-1.01-0.18-1.96-0.55-2.86c-0.37-0.89-0.87-1.67-1.51-2.34 c-0.64-0.64-1.43-1.15-2.36-1.53c-0.93-0.38-2-0.57-3.22-0.57C392.03,47.95,391.04,48.14,390.14,48.52z" class="st3"/><path d="M418.55,51.5c0.7-2.34,1.7-4.35,3.01-6.02c1.31-1.67,2.89-2.97,4.75-3.89s3.96-1.38,6.3-1.38 c1.26,0,2.41,0.12,3.46,0.36c1.04,0.24,1.99,0.6,2.84,1.08c0.64,0.34,1.24,0.75,1.79,1.22c0.55,0.47,1.05,0.99,1.51,1.57 l0.38-3.54h8.71v36.03c0,2.52-0.43,4.77-1.29,6.75c-0.86,1.97-2.06,3.64-3.6,4.99c-1.56,1.35-3.42,2.38-5.59,3.08 c-2.17,0.7-4.56,1.05-7.17,1.05c-1.12,0-2.33-0.11-3.61-0.34c-1.29-0.23-2.56-0.58-3.82-1.07c-1.26-0.48-2.46-1.1-3.58-1.84 c-1.12-0.75-2.09-1.63-2.89-2.67l4.3-5.82c0.62,0.71,1.28,1.34,2,1.88c0.71,0.54,1.46,0.98,2.24,1.33 c0.76,0.34,1.54,0.6,2.36,0.77c0.81,0.17,1.66,0.26,2.53,0.26c1.4,0,2.64-0.2,3.73-0.58c1.09-0.39,2-0.96,2.74-1.72 c0.67-0.69,1.17-1.54,1.53-2.55c0.36-1.01,0.53-2.15,0.53-3.41V74.9c-0.46,0.5-0.94,0.96-1.45,1.38c-0.5,0.41-1.04,0.78-1.62,1.1 c-0.85,0.46-1.78,0.81-2.8,1.07c-1.02,0.25-2.12,0.38-3.29,0.38c-2.32,0-4.4-0.48-6.25-1.43c-1.85-0.95-3.42-2.26-4.73-3.94 c-1.31-1.67-2.31-3.67-3.01-5.97c-0.7-2.31-1.05-4.81-1.05-7.52v-0.72C417.5,56.42,417.85,53.84,418.55,51.5z M427.57,64.32 c0.31,1.34,0.79,2.51,1.43,3.49c0.64,1.01,1.46,1.8,2.44,2.37c0.99,0.57,2.16,0.86,3.51,0.86c0.83,0,1.58-0.08,2.25-0.24 s1.29-0.39,1.84-0.69c0.57-0.32,1.08-0.71,1.51-1.17s0.81-0.97,1.14-1.55V51.63c-0.34-0.64-0.76-1.2-1.24-1.69 c-0.48-0.48-1.03-0.87-1.65-1.17c-0.53-0.25-1.11-0.45-1.74-0.58s-1.31-0.21-2.05-0.21c-1.35,0-2.52,0.29-3.51,0.88 s-1.8,1.38-2.44,2.39c-0.67,1.03-1.16,2.23-1.48,3.6c-0.32,1.37-0.48,2.83-0.48,4.39v0.72C427.11,61.52,427.26,62.97,427.57,64.32 z" class="st3"/><path d="M483.44,76.55c-0.16-0.6-0.3-1.23-0.41-1.89c-0.53,0.57-1.14,1.11-1.82,1.62c-0.69,0.5-1.45,0.94-2.27,1.31 c-0.85,0.39-1.78,0.69-2.79,0.91c-1.01,0.22-2.1,0.33-3.27,0.33c-1.9,0-3.65-0.28-5.25-0.83s-2.96-1.32-4.11-2.31 s-2.04-2.16-2.68-3.53s-0.96-2.85-0.96-4.46c0-2.06,0.4-3.89,1.2-5.49c0.8-1.59,2.01-2.91,3.61-3.94 c1.45-0.94,3.23-1.66,5.35-2.15s4.56-0.74,7.31-0.74h5.33v-2.2c0-0.87-0.14-1.66-0.41-2.36s-0.69-1.3-1.24-1.81 c-0.57-0.53-1.29-0.93-2.15-1.22s-1.86-0.43-3.01-0.43c-1.01,0-1.88,0.12-2.62,0.36c-0.73,0.24-1.33,0.58-1.79,1.02 c-0.41,0.39-0.72,0.86-0.91,1.41c-0.2,0.55-0.29,1.16-0.29,1.82h-9.57c0-1.58,0.35-3.08,1.05-4.51s1.73-2.67,3.08-3.75 c1.33-1.08,2.96-1.93,4.9-2.56c1.94-0.63,4.16-0.95,6.66-0.95c2.25,0,4.34,0.28,6.28,0.83s3.62,1.37,5.04,2.44 c1.42,1.08,2.54,2.44,3.34,4.08c0.8,1.64,1.21,3.54,1.21,5.7v15.97c0,2,0.13,3.65,0.38,4.96c0.25,1.31,0.62,2.43,1.1,3.37v0.58 h-9.71C483.8,77.67,483.6,77.15,483.44,76.55z M477.59,71.08c0.83-0.23,1.57-0.53,2.24-0.9c0.67-0.37,1.24-0.79,1.72-1.26 c0.48-0.47,0.86-0.95,1.14-1.43v-6.4h-4.89c-1.49,0-2.77,0.14-3.82,0.43c-1.06,0.29-1.92,0.68-2.58,1.19 c-0.67,0.53-1.16,1.15-1.48,1.88s-0.48,1.51-0.48,2.36c0,0.67,0.12,1.28,0.36,1.84c0.24,0.56,0.59,1.04,1.05,1.43 c0.46,0.37,1.03,0.66,1.7,0.88c0.68,0.22,1.46,0.33,2.36,0.33C475.87,71.42,476.77,71.31,477.59,71.08z" class="st3"/><path d="M576.12,28.03v7.81h-9.77v34.52h9.77v7.78h-28.98v-7.78h9.53V35.84h-9.53v-7.81H576.12z" class="st3"/><path d="M587.65,40.9h8.67l0.59,5.16c0.48-0.69,1.01-1.32,1.58-1.89c0.57-0.57,1.18-1.09,1.82-1.55 c1.1-0.78,2.31-1.38,3.61-1.79c1.31-0.41,2.7-0.62,4.16-0.62c1.88,0,3.6,0.28,5.16,0.83c1.56,0.55,2.91,1.42,4.06,2.62 c1.12,1.22,2,2.77,2.63,4.66c0.63,1.89,0.95,4.19,0.95,6.9v22.92h-9.57V55.35c0-1.47-0.17-2.68-0.5-3.63s-0.81-1.7-1.43-2.25 c-0.62-0.55-1.37-0.93-2.24-1.15c-0.87-0.22-1.86-0.33-2.96-0.33c-0.92,0-1.76,0.1-2.53,0.31c-0.77,0.21-1.45,0.52-2.05,0.93 c-0.48,0.3-0.92,0.65-1.31,1.07c-0.39,0.41-0.75,0.87-1.07,1.38v26.46h-9.6V40.9z" class="st3"/><path d="M636.17,45.4c0.71-1.61,1.69-2.87,2.94-3.8c1.25-0.93,2.77-1.39,4.56-1.39c0.87,0,1.65,0.1,2.34,0.31 c0.69,0.21,1.29,0.53,1.79,0.96c0.39,0.32,0.73,0.71,1.01,1.15s0.53,0.96,0.74,1.53c0.32-0.55,0.68-1.05,1.08-1.5 s0.84-0.83,1.33-1.15c0.6-0.41,1.27-0.73,2.03-0.96s1.58-0.34,2.48-0.34c1.12,0,2.17,0.21,3.15,0.62 c0.97,0.41,1.83,1.07,2.56,1.96c0.71,0.92,1.27,2.09,1.67,3.53c0.4,1.43,0.6,3.18,0.6,5.25v26.57h-8.71v-26.6 c0-0.71-0.07-1.3-0.22-1.75s-0.35-0.83-0.6-1.1c-0.25-0.25-0.54-0.43-0.88-0.53c-0.33-0.1-0.67-0.16-1.02-0.16 c-0.37,0-0.69,0.05-0.98,0.14c-0.29,0.09-0.56,0.22-0.81,0.38c-0.21,0.16-0.39,0.34-0.55,0.53c-0.16,0.2-0.3,0.42-0.41,0.67 c0,0.05,0,0.15,0,0.31s0,0.38,0,0.65v27.46h-8.43V51.5c0-0.71-0.07-1.3-0.21-1.75s-0.32-0.81-0.55-1.07 c-0.25-0.25-0.54-0.43-0.86-0.53c-0.32-0.1-0.67-0.16-1.03-0.16c-0.41,0-0.78,0.07-1.1,0.21s-0.61,0.33-0.86,0.58 c-0.18,0.18-0.34,0.4-0.48,0.65c-0.14,0.25-0.26,0.53-0.38,0.83v27.88h-8.71V40.9h8.22L636.17,45.4z" class="st3"/><path d="M682.49,77.41c-2.34-0.94-4.35-2.23-6.02-3.85c-1.67-1.61-2.96-3.5-3.87-5.7c-0.91-2.19-1.36-4.54-1.36-7.04 v-1.38c0-2.84,0.45-5.44,1.34-7.79c0.9-2.35,2.15-4.38,3.75-6.07c1.61-1.7,3.51-3.02,5.71-3.96c2.2-0.94,4.6-1.41,7.19-1.41 c2.68,0,5.08,0.44,7.17,1.33c2.1,0.88,3.88,2.13,5.35,3.73c1.45,1.61,2.55,3.54,3.3,5.8s1.14,4.75,1.14,7.48v4.06h-25.26v0.1 c0.32,1.49,0.73,2.69,1.24,3.6s1.18,1.73,2.03,2.46c0.87,0.76,1.87,1.34,2.99,1.75s2.35,0.62,3.68,0.62 c1.88,0,3.71-0.36,5.47-1.07s3.2-1.78,4.3-3.2l4.78,5.16c-1.22,1.72-3.14,3.28-5.78,4.68s-5.76,2.1-9.36,2.1 C687.44,78.82,684.83,78.35,682.49,77.41z M686.21,48.52c-0.89,0.38-1.67,0.92-2.34,1.63c-0.69,0.71-1.26,1.56-1.72,2.55 c-0.46,0.99-0.8,2.09-1.03,3.3h15.69v-0.76c0-1.01-0.18-1.96-0.55-2.86c-0.37-0.89-0.87-1.67-1.51-2.34 c-0.64-0.64-1.43-1.15-2.36-1.53c-0.93-0.38-2-0.57-3.22-0.57C688.09,47.95,687.11,48.14,686.21,48.52z" class="st3"/><path d="M714.52,51.5c0.65-2.34,1.61-4.35,2.87-6.02s2.79-2.97,4.59-3.89s3.86-1.38,6.18-1.38 c1.95,0,3.67,0.35,5.14,1.05c1.48,0.7,2.79,1.69,3.94,2.98V25.27h9.6v52.86h-8.64l-0.48-3.89c-1.17,1.45-2.55,2.57-4.13,3.37 s-3.42,1.21-5.51,1.21c-2.27,0-4.31-0.48-6.11-1.43c-1.8-0.95-3.32-2.26-4.56-3.94c-1.26-1.67-2.23-3.67-2.89-5.97 c-0.67-2.31-1-4.81-1-7.52v-0.72C713.54,56.42,713.86,53.84,714.52,51.5z M723.5,64.32c0.26,1.34,0.69,2.51,1.29,3.49 c0.6,1.01,1.37,1.8,2.31,2.37c0.94,0.57,2.09,0.86,3.44,0.86c1.65,0,3.02-0.35,4.11-1.07c1.09-0.71,1.96-1.69,2.6-2.92V51.98 c-0.64-1.26-1.5-2.24-2.58-2.94c-1.08-0.7-2.43-1.05-4.06-1.05c-1.35,0-2.51,0.29-3.46,0.88s-1.73,1.38-2.32,2.39 c-0.6,1.03-1.03,2.23-1.31,3.6s-0.41,2.83-0.41,4.39v0.72C723.1,61.52,723.24,62.97,723.5,64.32z" class="st3"/><path d="M779.65,40.9v29.46h10.08v7.78h-30.35v-7.78h10.6V48.71h-10.6V40.9H779.65z M769.68,29.32 c0.26-0.63,0.64-1.18,1.12-1.63c0.48-0.44,1.06-0.78,1.74-1.03c0.68-0.25,1.43-0.38,2.25-0.38c1.7,0,3.05,0.48,4.04,1.43 c1,0.95,1.5,2.17,1.5,3.67c0,1.49-0.5,2.71-1.5,3.67s-2.35,1.43-4.04,1.43c-0.83,0-1.58-0.13-2.25-0.38 c-0.68-0.25-1.26-0.61-1.74-1.07c-0.48-0.44-0.85-0.97-1.12-1.6c-0.26-0.63-0.4-1.31-0.4-2.05 C769.29,30.63,769.42,29.95,769.68,29.32z" class="st3"/><path d="M821.8,76.55c-0.16-0.6-0.3-1.23-0.41-1.89c-0.53,0.57-1.14,1.11-1.82,1.62c-0.69,0.5-1.45,0.94-2.27,1.31 c-0.85,0.39-1.78,0.69-2.79,0.91c-1.01,0.22-2.1,0.33-3.27,0.33c-1.9,0-3.65-0.28-5.25-0.83s-2.96-1.32-4.11-2.31 s-2.04-2.16-2.68-3.53s-0.96-2.85-0.96-4.46c0-2.06,0.4-3.89,1.2-5.49c0.8-1.59,2.01-2.91,3.61-3.94 c1.45-0.94,3.23-1.66,5.35-2.15s4.56-0.74,7.31-0.74h5.33v-2.2c0-0.87-0.14-1.66-0.41-2.36s-0.69-1.3-1.24-1.81 c-0.57-0.53-1.29-0.93-2.15-1.22s-1.86-0.43-3.01-0.43c-1.01,0-1.88,0.12-2.62,0.36c-0.73,0.24-1.33,0.58-1.79,1.02 c-0.41,0.39-0.72,0.86-0.91,1.41c-0.2,0.55-0.29,1.16-0.29,1.82h-9.57c0-1.58,0.35-3.08,1.05-4.51s1.73-2.67,3.08-3.75 c1.33-1.08,2.96-1.93,4.9-2.56c1.94-0.63,4.16-0.95,6.66-0.95c2.25,0,4.34,0.28,6.28,0.83s3.62,1.37,5.04,2.44 c1.42,1.08,2.54,2.44,3.34,4.08c0.8,1.64,1.21,3.54,1.21,5.7v15.97c0,2,0.13,3.65,0.38,4.96c0.25,1.31,0.62,2.43,1.1,3.37v0.58 h-9.71C822.16,77.67,821.96,77.15,821.8,76.55z M815.95,71.08c0.83-0.23,1.57-0.53,2.24-0.9c0.67-0.37,1.24-0.79,1.72-1.26 c0.48-0.47,0.86-0.95,1.14-1.43v-6.4h-4.89c-1.49,0-2.77,0.14-3.82,0.43c-1.06,0.29-1.92,0.68-2.58,1.19 c-0.67,0.53-1.16,1.15-1.48,1.88s-0.48,1.51-0.48,2.36c0,0.67,0.12,1.28,0.36,1.84c0.24,0.56,0.59,1.04,1.05,1.43 c0.46,0.37,1.03,0.66,1.7,0.88c0.68,0.22,1.46,0.33,2.36,0.33C814.23,71.42,815.13,71.31,815.95,71.08z" class="st3"/><path d="M858.97,40.9h13.9v7.05h-13.9v16c0,1.35,0.16,2.48,0.46,3.39c0.31,0.91,0.75,1.62,1.33,2.15 c0.57,0.55,1.27,0.94,2.08,1.17s1.73,0.34,2.74,0.34c0.73,0,1.48-0.03,2.25-0.1c0.77-0.07,1.51-0.16,2.22-0.28 c0.69-0.09,1.34-0.2,1.94-0.31c0.61-0.11,1.13-0.23,1.57-0.34l0.93,6.57c-0.67,0.39-1.45,0.73-2.34,1.02 c-0.89,0.29-1.85,0.52-2.86,0.71c-1.01,0.18-2.06,0.33-3.15,0.43c-1.09,0.1-2.16,0.16-3.22,0.16c-2.04,0-3.89-0.27-5.56-0.81 c-1.66-0.54-3.08-1.38-4.25-2.53c-1.19-1.12-2.11-2.56-2.75-4.32s-0.96-3.86-0.96-6.32V47.95h-8.5V40.9h8.5v-9.12h9.57V40.9z" class="st3"/><path d="M906.39,76.55c-0.16-0.6-0.3-1.23-0.41-1.89c-0.53,0.57-1.14,1.11-1.82,1.62c-0.69,0.5-1.45,0.94-2.27,1.31 c-0.85,0.39-1.78,0.69-2.79,0.91c-1.01,0.22-2.1,0.33-3.27,0.33c-1.9,0-3.65-0.28-5.25-0.83s-2.96-1.32-4.11-2.31 s-2.04-2.16-2.68-3.53s-0.96-2.85-0.96-4.46c0-2.06,0.4-3.89,1.2-5.49c0.8-1.59,2.01-2.91,3.61-3.94 c1.45-0.94,3.23-1.66,5.35-2.15s4.56-0.74,7.31-0.74h5.33v-2.2c0-0.87-0.14-1.66-0.41-2.36s-0.69-1.3-1.24-1.81 c-0.57-0.53-1.29-0.93-2.15-1.22s-1.86-0.43-3.01-0.43c-1.01,0-1.88,0.12-2.62,0.36c-0.73,0.24-1.33,0.58-1.79,1.02 c-0.41,0.39-0.72,0.86-0.91,1.41c-0.2,0.55-0.29,1.16-0.29,1.82h-9.57c0-1.58,0.35-3.08,1.05-4.51s1.73-2.67,3.08-3.75 c1.33-1.08,2.96-1.93,4.9-2.56c1.94-0.63,4.16-0.95,6.66-0.95c2.25,0,4.34,0.28,6.28,0.83s3.62,1.37,5.04,2.44 c1.42,1.08,2.54,2.44,3.34,4.08c0.8,1.64,1.21,3.54,1.21,5.7v15.97c0,2,0.13,3.65,0.38,4.96c0.25,1.31,0.62,2.43,1.1,3.37v0.58 h-9.71C906.75,77.67,906.55,77.15,906.39,76.55z M900.54,71.08c0.83-0.23,1.57-0.53,2.24-0.9c0.67-0.37,1.24-0.79,1.72-1.26 c0.48-0.47,0.86-0.95,1.14-1.43v-6.4h-4.89c-1.49,0-2.77,0.14-3.82,0.43c-1.06,0.29-1.92,0.68-2.58,1.19 c-0.67,0.53-1.16,1.15-1.48,1.88s-0.48,1.51-0.48,2.36c0,0.67,0.12,1.28,0.36,1.84c0.24,0.56,0.59,1.04,1.05,1.43 c0.46,0.37,1.03,0.66,1.7,0.88c0.68,0.22,1.46,0.33,2.36,0.33C898.82,71.42,899.72,71.31,900.54,71.08z" class="st3"/></g><path style="clip-path:url(#SVGID_00000093168177985395178150000002928808187069813921_);fill:none;stroke:#f7f7f7;stroke-width:2;stroke-miterlimit:10" d="M130.53-511.3l0-133.63c0-6.74-5.43-12.2-12.12-12.2l-334.06,0c-6.7,0-12.12,5.46-12.12,12.2l0,587.79l0,0c0,0.01,0,0.03,0,0.04 c0.01,2.08,0.71,4.11,1.89,5.83l56.57,82.45c0.36,0.52,0.67,1.07,0.92,1.64c1.92,4.41,6.27,7.3,11.1,7.3l275.7,0 c6.7,0,12.12-5.46,12.12-12.2l0-122.34c0-5.37-1.99-10.54-5.59-14.5l-6.32-6.96c-3.48-3.83-5.41-8.84-5.41-14.03l0-346.68 c0-5.74,2.36-11.22,6.51-15.16l4.08-3.86C128.09-499.7,130.53-505.37,130.53-511.3z"/><path style="clip-path:url(#SVGID_00000093168177985395178150000002928808187069813921_);fill:none;stroke:#f7f7f7;stroke-width:2;stroke-miterlimit:10" d="M1401.21,314.61l102.91,0c5.19,0,9.39-4.18,9.39-9.34l0-257.26c0-5.16-4.21-9.34-9.39-9.34l-452.65,0l0,0c-0.01,0-0.02,0-0.03,0 c-1.6,0.01-3.16,0.55-4.49,1.46L983.46,83.7c-0.4,0.27-0.82,0.52-1.26,0.71c-3.4,1.48-5.62,4.83-5.62,8.55l0,212.31 c0,5.16,4.21,9.34,9.39,9.34l94.21,0c4.13,0,8.12-1.54,11.17-4.31l5.36-4.87c2.95-2.68,6.81-4.17,10.81-4.17l266.98,0 c4.42,0,8.64,1.81,11.67,5.01l2.97,3.14C1392.28,312.74,1396.64,314.61,1401.21,314.61z"/><g style="clip-path:url(#SVGID_00000093168177985395178150000002928808187069813921_)"><text class="st5 st6 st7" transform="matrix(1 0 0 1 31.1416 54.4668)">///</text></g></g></svg>