<svg xmlns="http://www.w3.org/2000/svg" id="Capa_1" data-name="Capa 1" viewBox="0 0 209.8 12.5"><defs><style>.cls-2{fill:#00d300}</style></defs><path fill="#450491" d="M0 0h209.8v12.5H0z"/><path d="M20.5 6.3 16 12.5h-3.6l4.5-6.2.9-1.2 2.5 1.2h.2z" class="cls-2"/><path d="m20.5 6.2-.2.1-2.5 1.2-.9-1.2L12.4 0H16l4.5 6.2zm9.8.1-4.5 6.2h-3.6l4.6-6.2.8-1.2 2.6 1.2h.1z" class="cls-2"/><path d="m30.3 6.2-.1.1-2.6 1.2-.8-1.2L22.2 0h3.6l4.5 6.2zm9.8.1-4.4 6.2H32l4.6-6.2.8-1.2L40 6.3h.1z" class="cls-2"/><path d="m40.1 6.2-.1.1-2.6 1.2-.8-1.2L32 0h3.7l4.4 6.2zm10.2.1-4.4 6.2h-3.6l4.5-6.2.8-1.2 2.6 1.2h.1z" class="cls-2"/><path d="m50.3 6.2-.1.1-2.6 1.2-.8-1.2L42.3 0h3.6l4.4 6.2zm10 .1-4.4 6.2h-3.6l4.5-6.2.8-1.2 2.6 1.2h.1z" class="cls-2"/><path d="m60.3 6.2-.1.1-2.6 1.2-.8-1.2L52.3 0h3.6l4.4 6.2zm9.5.1-4.5 6.2h-3.6l4.5-6.2.9-1.2 2.5 1.2h.2z" class="cls-2"/><path d="m69.8 6.2-.2.1-2.5 1.2-.9-1.2L61.7 0h3.6l4.5 6.2z" class="cls-2"/><path fill="#fff" d="M90.4 9.3h-4.3c-.7 0-1.1-.1-1.3-.4s-.2-.6 0-1.2l1-2.3a2.5 2.5 0 0 1 1-1.2 3.1 3.1 0 0 1 1.7-.3h4.3L92.3 5h-3.7a2 2 0 0 0-.5 0 1.1 1.1 0 0 0-.3.2 1 1 0 0 0-.3.3 1.8 1.8 0 0 0-.2.3H92l-.5 1.3h-4.6a1.7 1.7 0 0 0-.2.4.4.4 0 0 0 0 .3.4.4 0 0 0 .3.1 1.8 1.8 0 0 0 .4 0H91Zm9.6-5.4-2.5 5.4H96l-1.7-3.1-1.4 3.1h-1.7L93.8 4H95l2 3 1.4-3.1Zm4.1 1.2-1.8 4.2h-1.7l1.9-4.2h-2.3l.6-1.2h6.2l-.6 1.2Zm6.6 2.3 1 2h-1.9l-1-2h-1l-.8 2h-1.6l2.4-5.5h4.3c.7 0 1.1 0 1.3.3s.2.7 0 1.2l-.3.4a2.7 2.7 0 0 1-.9 1.2 3 3 0 0 1-1.5.4Zm.3-2.3h-2.1l-.5 1h2.1a1.7 1.7 0 0 0 .7 0 .8.8 0 0 0 .4-.5 2.5 2.5 0 0 0 0-.2.2.2 0 0 0 0-.2.3.3 0 0 0-.2 0 2.4 2.4 0 0 0-.4-.1Zm7.7 4.2h-4.4c-.6 0-1-.1-1.3-.4s-.1-.6.1-1.2l1-2.3a2.5 2.5 0 0 1 1-1.2 3.1 3.1 0 0 1 1.7-.3h4.3l-.6 1.2H117a2 2 0 0 0-.5 0 1 1 0 0 0-.4.2 1 1 0 0 0-.2.3 1.8 1.8 0 0 0-.2.3h4.5l-.5 1.3H115a1.7 1.7 0 0 0-.1.4.4.4 0 0 0 0 .3.4.4 0 0 0 .2.1 1.8 1.8 0 0 0 .5 0h3.6Zm7 0h-4.3c-.7 0-1-.1-1.3-.4s-.1-.6.1-1.2l1-2.3a2.5 2.5 0 0 1 1-1.2 3.1 3.1 0 0 1 1.6-.3h4.4l-.6 1.2H124a2 2 0 0 0-.5 0 1 1 0 0 0-.4.2 1.1 1.1 0 0 0-.2.3 2.4 2.4 0 0 0-.2.3l-.6 1.3a1.7 1.7 0 0 0-.1.4.4.4 0 0 0 0 .3.4.4 0 0 0 .2.1 1.8 1.8 0 0 0 .4 0h2l.8-1.7h1.7Zm8.9-3.9-1.8 4h-1.6l1-2.2h-3l-1 2.1h-1.6l1.7-3.9a2.6 2.6 0 0 1 1-1.2 3.1 3.1 0 0 1 1.6-.3h2.4c.7 0 1.1 0 1.3.3s.2.7 0 1.2Zm-4.9.5h3a1.7 1.7 0 0 0 0-.3.4.4 0 0 0 0-.3.3.3 0 0 0-.1-.2 1.4 1.4 0 0 0-.5 0H131a1.8 1.8 0 0 0-.5 0 1 1 0 0 0-.3.2 1.1 1.1 0 0 0-.3.3 2.4 2.4 0 0 0-.2.3Zm9.3 3.4h-1.7l2.5-5.4h1.6Zm9.5-5.4-2.4 5.4h-1.5L143 6.2l-1.4 3.1h-1.7l2.5-5.4h1.4l1.8 3.1 1.4-3.1Zm2.5 0 .9 2.9 3.4-3h1.7l-2.4 5.5h-1.7l1.3-2.9-3.3 2.7h-.2l-.8-2.7-1.3 3h-1.7l2.4-5.5Zm10.6 5.4h-4.3c-.7 0-1.1-.1-1.3-.4s-.2-.6 0-1.2l1-2.3a2.5 2.5 0 0 1 1-1.2 3.1 3.1 0 0 1 1.7-.3h4.3l-.6 1.2h-3.6a2 2 0 0 0-.5 0 1.2 1.2 0 0 0-.4.2 1 1 0 0 0-.2.3 2.4 2.4 0 0 0-.2.3h4.6l-.6 1.3H158a2.4 2.4 0 0 0-.1.4.4.4 0 0 0 0 .3.4.4 0 0 0 .1.1 1.7 1.7 0 0 0 .5 0h3.6Zm8.8-3.9-1 2.3a2.5 2.5 0 0 1-1 1.2 3.1 3.1 0 0 1-1.6.4h-4.4L165 4h4.3c.7 0 1 0 1.3.3s.1.7-.1 1.2Zm-2.4-.3h-2l-1.3 3h2a2.3 2.3 0 0 0 .5 0 1.2 1.2 0 0 0 .3-.2.9.9 0 0 0 .3-.3 1.8 1.8 0 0 0 .2-.3l.6-1.3a2.7 2.7 0 0 0 .1-.4.5.5 0 0 0 0-.3.4.4 0 0 0-.2-.1 1.4 1.4 0 0 0-.5-.1Zm3.2 4.2h-1.7L172 4h1.7Zm8.8-3.9-1.7 4h-1.7l1-2.2h-3l-1 2.1H172l1.7-3.9a2.5 2.5 0 0 1 1-1.2 3.1 3.1 0 0 1 1.7-.3h2.3c.7 0 1.2 0 1.4.3s.1.7-.1 1.2Zm-4.8.5h3a2.7 2.7 0 0 0 0-.3.5.5 0 0 0 0-.3.4.4 0 0 0-.2-.2 1.4 1.4 0 0 0-.4 0h-1a2 2 0 0 0-.6 0 1.2 1.2 0 0 0-.3.2 1 1 0 0 0-.3.3 2.4 2.4 0 0 0-.2.3Zm9.7-.8L183 9.3h-1.7l2-4.2H181l.6-1.2h6.2l-.6 1.2Zm9.1.3-1.6 4h-1.7l1-2.2h-3l-.9 2.1h-1.6l1.7-3.9a2.5 2.5 0 0 1 1-1.2 3.1 3.1 0 0 1 1.6-.3h2.4c.7 0 1.1 0 1.3.3s.1.7-.1 1.2Zm-4.7.5h2.9a2.7 2.7 0 0 0 .1-.3.5.5 0 0 0 0-.3.4.4 0 0 0-.2-.2 1.4 1.4 0 0 0-.4 0h-1a2 2 0 0 0-.6 0 1.2 1.2 0 0 0-.3.2 1 1 0 0 0-.3.3 2.4 2.4 0 0 0-.2.3Z"/></svg>