<?xml version="1.0" encoding="utf-8"?>
<!-- Generator: Adobe Illustrator 27.8.1, SVG Export Plug-In . SVG Version: 6.00 Build 0)  -->
<svg version="1.1" id="Capa_1" xmlns="http://www.w3.org/2000/svg" xmlns:xlink="http://www.w3.org/1999/xlink" x="0px" y="0px"
	 viewBox="0 0 1080 1080" style="enable-background:new 0 0 1080 1080;" xml:space="preserve">
<style type="text/css">
	.st0{fill:#01D212;}
</style>
<g>
	<g>
		<path class="st0" d="M186.5,989.5c8.4-37.4,18.2-80.9,28-124.6c12.8-55.9,25.2-111.9,38.5-167.6c3.1-12.8-0.2-20.5-9.8-28.8
			C171.3,606,99.9,542.8,28.1,480.4C8,463-3.5,442.7,4.7,415.8c8.4-27.4,28.5-39.3,56.6-41.8c90.5-7.7,181.1-17,271.8-23.9
			c22.9-1.7,35.1-9.4,44.1-31.6c34.8-85.5,71.7-170.1,108.4-254.7c12.6-29,35.1-42.3,62.8-38.1c23.9,3.7,37.8,18.5,47,40
			c35.8,84.3,73.1,168,107.3,252.9c9.1,22.5,21.9,29.5,44.2,31.3c91.4,7.3,182.5,16.4,273.9,24.5c27.4,2.4,46.5,15.4,54.5,41.6
			c7.9,25.7-2.4,46.1-22,63.3c-71.7,62.6-143,125.7-215,187.9c-10.8,9.4-14.2,17.8-10.8,32.3c21.9,92.6,42.5,185.5,63.6,278.1
			c5.9,25.9,2.4,49.1-20.1,65.9c-23.2,17.3-46.7,13.8-70.4-0.5c-81.5-49.1-163.4-97.5-244.6-147c-11.9-7.3-20.1-7-31.8,0.2
			c-82,49.6-164.3,98.6-246.6,147.9c-20.8,12.4-41.8,15.9-63.5,3C195.2,1035.3,185.9,1018.1,186.5,989.5z"/>
	</g>
</g>
</svg>
