<?xml version="1.0" encoding="UTF-8"?><svg xmlns="http://www.w3.org/2000/svg" xmlns:xlink="http://www.w3.org/1999/xlink" viewBox="0 0 900 900"><defs><linearGradient id="Gradient_bez_nazwy_17" x1="-2710.1" y1="-1572.8" x2="-1050" y2="-1572.8" gradientTransform="translate(2353 822)" gradientUnits="userSpaceOnUse"><stop offset="0" stop-color="#fff" stop-opacity="0"/><stop offset="1"/></linearGradient><linearGradient id="Gradient_bez_nazwy_17-2" x1="-1475.1" y1="-2919.8" x2="39.9" y2="-2919.8" gradientTransform="translate(28.1 3516)" xlink:href="#Gradient_bez_nazwy_17"/><clipPath id="clippath"><path class="cls-7" d="M-359-1354.5H841v1200H-359z"/></clipPath><clipPath id="clippath-1"><path class="cls-7" d="M-1438 52.5h1080v1080h-1080z"/></clipPath><style>.cls-1{fill:#fff}.cls-7{fill:none}</style></defs><g style="isolation:isolate"><g id="Capa_1"><g style="clip-path:url(#clippath)"><path style="fill:#38ccf4" d="M-357-1520.1H854.8V11.1H-357z"/><path transform="rotate(180 473 -750.7)" style="fill:url(#Gradient_bez_nazwy_17);mix-blend-mode:multiply" d="M-357.1-1512.5H1303V11.1H-357.1z"/></g><g style="clip-path:url(#clippath-1)"><path transform="rotate(180 -689.5 596.2)" style="mix-blend-mode:multiply;fill:url(#Gradient_bez_nazwy_17-2)" d="M-1447 46H68v1100.5h-1515z"/><path class="cls-1" d="M-358.5 126.8c-124.4 0-479 17.7-479 280.1 0 120.4 13.3 153.8 267.3 407.7 88 88 148.7 206 181.9 254.7 14.3 21 45.4 21 59.7 0 33.2-48.7 94-166.7 182-254.7C107.2 560.7 120.6 527.3 120.6 407c0-262.4-354.7-280.1-479.2-280.1Zm327.8 425.4c-50 89.9-236.6 298.4-317 362.8-3.1.5-6.2-.6-7.7-2.8-2.1-3.3-.6-8.8 4-14.6l4.2-5 7-7.8 5.7-6.1C-148.7 676.8-70.8 560.8-70.8 475c0-77-50.3-168.6-290.2-168.6h-8.4c-40.6 0-105 .7-161.7 22.2-72.8 27.4-109.7 80.7-109.7 158-1.7 46.8 25.4 106 70.6 154.8 47.9 50.5 85.5 82.8 114.6 98.4 21.9 14.2 41.2 23 64.1 19.8l2.6-.4.8-.2 1.1-.2c23.5-4.9 50.6-16.6 89.7-68.5a277 277 0 0 0 17-26c29.8-45.1 67.2-110.5 48.6-157.8-9.2-23.3-31.1-39.3-65.2-47.6l-1.3-.5c-17.7-4-37.7-6-59.6-6.2-50 .4-132.3 15.2-132.3 84.7 0 25 21.4 77.7 49 94 20.9 12.1 45.3 16 63.8 9.6 3.2-1.1 27.4-10.8 26.4-35 0-14.5-6.3-24.6-28.4-21.9-33 4-33-32.1-33-32.1-1.1-29.9 53.7-25 53.7-25 15.6 0 47.4 8.6 54.9 29.6 3 8.1 4 16 3.7 23.5v.5c-.3 63-55 111.3-97.7 115.5l-2 .2-1.1.1c-2.2.2-4.5.3-6.8.3h-1c-8-.2-16.4-1.6-25.6-5-57.4-21.6-128.3-111.8-128.3-184.8 0-94.7 96.2-118 191.4-118h10c2 0 197.6 1.3 197.6 118 0 52.6-74 182.5-143.9 252.8-66.3 64.5-104.5 44-145 22.1l-8.1-4.4c-100-59.6-258.7-202.8-258.7-333.1 0-180.4 224.4-207.3 358.2-207.3s352.8 26 358 200.7c-1 43.9-9.4 78.3-27.7 114.9Z"/></g><path d="M314.5 900.5c-195.3-.7-325.5 1-325.5 1l.4-245c2.8 14.8 17.8 80.4 61.6 96.9 17.5 8.1 39.7 10.8 68.1 5 122.6-24.8 216.8 63 195.4 142.1Z" style="fill:#98050c"/><path class="cls-1" d="M51 802.3c-9 0-34.4 1.3-34.4 20.2 0 8.6 1 11 19.2 29.3 6.3 6.3 10.7 14.8 13 18.3 1 1.5 3.3 1.5 4.3 0 2.4-3.5 6.8-12 13.1-18.3 18.3-18.3 19.2-20.7 19.2-29.3 0-18.9-25.5-20.2-34.4-20.2ZM74.6 833A141 141 0 0 1 51.8 859c-.3 0-.5 0-.6-.2-.2-.2 0-.6.3-1l.3-.4.5-.6.4-.4c13.4-14.5 19-22.9 19-29 0-5.5-3.7-12.1-20.9-12.1h-.6c-3 0-7.6 0-11.6 1.6-5.3 2-8 5.8-8 11.3 0 3.4 2 7.6 5.2 11.1 3.4 3.7 6.1 6 8.2 7.1 1.6 1 3 1.7 4.6 1.4H49c1.7-.4 3.7-1.2 6.5-5 .4-.4.7-1 1.2-1.8 2.1-3.3 4.8-8 3.5-11.4-.7-1.6-2.2-2.8-4.7-3.4a20 20 0 0 0-4.4-.5c-3.6 0-9.5 1.1-9.5 6.1 0 1.8 1.6 5.6 3.5 6.8 1.5.9 3.3 1.1 4.6.7.3-.1 2-.8 2-2.5 0-1-.5-1.8-2.1-1.6-2.4.3-2.4-2.3-2.4-2.3 0-2.2 3.9-1.8 3.9-1.8 1.1 0 3.4.6 4 2.1l.2 1.7c0 4.6-4 8-7 8.3H47.4c-.6 0-1.2 0-1.9-.3-4-1.5-9.2-8-9.2-13.3 0-6.8 7-8.4 13.8-8.4h.7c.1 0 14.2 0 14.2 8.4 0 3.8-5.3 13.2-10.3 18.2-4.8 4.6-7.6 3.2-10.5 1.6a16 16 0 0 1-.6-.3c-7.1-4.3-18.6-14.6-18.6-24 0-13 16.2-14.9 25.8-14.9s25.4 2 25.7 14.5c0 3.1-.6 5.6-2 8.2ZM112.2 843c-7.5 0-13.5-4.1-13.5-14.7v-5.5c0-10.6 6-14.6 13.5-14.6s13.6 4 13.6 14.6v5.5c0 10.6-6 14.6-13.6 14.6Zm5.7-20.2c0-5.5-1.8-7.8-5.7-7.8s-5.6 2.3-5.6 7.8v5.5c0 5.4 1.8 7.8 5.6 7.8s5.7-2.4 5.7-7.8v-5.5ZM151.2 814.9h-9.3c-2.1 0-3 .7-3 3v4.2h12c.4 0 .8.4.8 1v4.2c0 .6-.4 1-.9 1H139v13.3c0 .5-.4 1-1 1h-5.9a1 1 0 0 1-.9-1V818c0-8.3 5.3-9.8 11.2-9.8 4.9 0 7.2.4 8.8.6.6.1.9.3.9 1v4.2c0 .5-.4.9-1 .9ZM177.7 842.3c-1.6.3-4 .6-8.8.6-6 0-11.1-1.5-11.1-9.8v-15.2c0-8.3 5.2-9.7 11-9.7 5 0 7.3.3 8.9.6.6 0 1 .3 1 .9v4.2c0 .5-.5 1-1 1h-9.3c-2.1 0-2.9.7-2.9 3v4.2h11.8c.5 0 1 .4 1 1v4.2c0 .6-.5 1-1 1h-11.8v4.8c0 2.4.8 3.1 3 3.1h9.2c.5 0 1 .4 1 1v4.2c0 .6-.4.8-1 1ZM209.9 842.5h-7c-.5 0-.7-.5-.9-.9l-6.1-11.6-.5.1H192v11.5c0 .5-.4 1-.9 1h-6a1 1 0 0 1-.8-1V811c0-1.6.6-2 2-2.2 2.1-.3 6-.6 9.3-.6 7.8 0 13.8 2.6 13.8 10.7v.6c0 4.8-2.6 7.8-6 9.1l7 12.9.1.5c0 .3-.2.5-.7.5Zm-8.2-23.7c0-2.7-2.2-4-6-4l-3.6.1v8.8h3.3c4.8 0 6.3-1.1 6.3-4.2v-.6ZM235.5 815H228v26.6c0 .5-.4 1-1 1h-6a1 1 0 0 1-.8-1V815h-7.5c-.5 0-.9-.4-.9-.9v-4.7c0-.5.4-.8 1-.8h22.6c.5 0 1 .3 1 .8v4.7c0 .5-.5 1-1 1ZM263.3 842.5h-6.4c-.5 0-.8-.4-1-.8l-1.6-7.5H245l-1.7 7.5c0 .4-.4.8-.9.8H236c-.4 0-.7-.3-.7-.7v-.2l6.8-28.4c1-4.4 4.4-5 7.6-5s6.5.6 7.5 5l6.8 28.3v.3c0 .4-.2.7-.7.7Zm-13-27.2c-.1-.4-.2-.6-.6-.6s-.6.2-.7.6l-2.8 12.7h6.8l-2.8-12.7ZM110.1 867c-.8.3-2.7.4-4 .4-3.1 0-6-.8-6-5.2v-12.7c0-.2.3-.4.6-.4h3.2c.2 0 .5.2.5.4v12.7c0 1.2.4 1.6 1.5 1.6h4.2c.3 0 .5.2.5.5v2.3c0 .3-.1.4-.5.5ZM126.6 867.2h-3.4c-.3 0-.5-.2-.5-.5l-1-4h-5l-.8 4c0 .3-.2.5-.5.5H112c-.2 0-.4-.2-.4-.4v-.1l3.6-15.2c.6-2.3 2.4-2.7 4-2.7s3.6.4 4.1 2.7l3.7 15.2c0 .3-.2.5-.4.5Zm-7-14.5c0-.3 0-.4-.3-.4s-.3.1-.3.4l-1.5 6.7h3.6l-1.5-6.7ZM142.6 867.2h-2.4c-.5 0-.9-.1-1.3-.8l-5.5-9.6-.3-.2v10.1c0 .3-.3.5-.6.5h-2.8a.5.5 0 0 1-.5-.5V850c0-.5.4-1 .9-1h2.5c.5 0 .7.3 1 .8l5.8 10c0 .2 0 .3.2.3V849.5c0-.3.3-.4.6-.4h2.9c.2 0 .4.1.4.4v16.8c0 .5-.4.9-1 .9ZM158.5 867.2h-11c-.6 0-1-.2-1-.8v-2c0-.3 0-.6.3-1l6.8-10.3.1-.2c0-.2 0-.2-.2-.2h-6.1c-.3 0-.5-.2-.5-.5v-2.7c0-.3.2-.4.5-.4h10.5c.5 0 1 .2 1 .6v2.3c0 .2 0 .4-.2.6l-6.9 10.5-.1.3c0 .1 0 .2.3.2h6.5c.3 0 .5.1.5.4v2.7c0 .3-.2.5-.5.5ZM175.7 867.2h-3.4c-.3 0-.5-.2-.5-.5l-.9-4h-5l-.9 4c0 .3-.2.5-.5.5h-3.4c-.2 0-.4-.2-.4-.4v-.1l3.7-15.2c.5-2.3 2.3-2.7 4-2.7s3.5.4 4 2.7l3.7 15.2c0 .3-.2.5-.4.5Zm-7-14.5c0-.3 0-.4-.3-.4s-.3.1-.3.4l-1.5 6.7h3.6l-1.5-6.7ZM194.4 867.2H191c-.2 0-.3-.2-.3-.5v-10.2c0-.2-.1-.2-.2-.2l-.2.2-2.2 4c-.1.3-.4.4-.7.4h-2a.8.8 0 0 1-.7-.4l-2.2-4c0-.1 0-.2-.2-.2V866.7c0 .3-.3.5-.5.5h-3.2c-.2 0-.4 0-.4-.4v-17c0-.4.4-.8.9-.8h2.3c.5 0 .8.3 1 .7l3.8 7c0 .2.1.3.2.3l.3-.3 3.7-7c.3-.4.6-.7 1.1-.7h2.3c.5 0 .9.4.9.9v17c0 .2-.2.3-.4.3ZM202 867.2h-3.4c-.2 0-.4-.2-.4-.5v-17.2c0-.3.2-.5.4-.5h3.3c.3 0 .5.2.5.5v17.2c0 .3-.2.5-.5.5ZM216.4 867c-.9.2-2.1.4-4.8.4-3.1 0-5.9-.8-5.9-5.2V854c0-4.5 2.8-5.3 6-5.3 2.6 0 3.8.2 4.7.4.3 0 .5.1.5.4v2.3c0 .3-.3.5-.5.5h-5c-1.1 0-1.5.4-1.5 1.7v2.2h6.3c.3 0 .5.2.5.5v2.3c0 .3-.2.5-.5.5h-6.3v2.6c0 1.2.4 1.6 1.5 1.6h5c.2 0 .5.3.5.5v2.3c0 .3-.2.5-.5.5ZM233.4 867.2H231c-.5 0-1-.1-1.3-.8l-5.6-9.6-.2-.2-.1.2v9.9c0 .3-.2.5-.5.5h-2.9a.5.5 0 0 1-.5-.5V850c0-.5.4-1 1-1h2.4c.5 0 .8.3 1 .8l5.8 10 .2.3s.2 0 .2-.3v-10.3c0-.3.2-.4.4-.4h3c.2 0 .4.1.4.4v16.8c0 .5-.4.9-1 .9ZM248.6 852.5h-4v14.2c0 .3-.2.5-.4.5H241a.5.5 0 0 1-.5-.5v-14.2h-4c-.3 0-.5-.2-.5-.5v-2.5c0-.3.2-.4.5-.4h12c.4 0 .6.1.6.4v2.5c0 .3-.2.5-.5.5ZM257.5 867.4c-4 0-7.2-2.2-7.2-7.8v-3c0-5.6 3.2-7.8 7.2-7.8s7.2 2.2 7.2 7.9v2.9c0 5.6-3.2 7.8-7.2 7.8Zm3-10.7c0-3-1-4.2-3-4.2s-3 1.2-3 4.2v2.9c0 2.9 1 4.1 3 4.1s3-1.2 3-4.1v-3Z"/></g></g></svg>