<svg xmlns="http://www.w3.org/2000/svg" id="Capa_1" viewBox="0 0 500 500"><defs><style>.cls-1{fill:#fff}</style></defs><path fill="#fc5226" d="m171.1 335.8-124 37.6-.7.2c-3.8 1.2-9.2 2.9-13.5 9.4L2.6 428.2a8.4 8.4 0 0 0-1.1 7l10.5 36a8.5 8.5 0 0 0 4.8 5.4l49.6 20.9a22.4 22.4 0 0 0 17.1.1l93.9-28.4 24.7-49-22.8-79.9a6.5 6.5 0 0 0-8.2-4.5ZM35.3 449.6A5.8 5.8 0 1 1 25 444a5.8 5.8 0 0 1 10.1 5.5Z"/><path d="M156.4 378.2c0 3-2.4 5.4-5.5 5.4a5.4 5.4 0 1 1 .1-10.7c3 0 5.4 2.3 5.4 5.3Zm-9.6 0c0 2.3 1.8 4.2 4.1 4.2a4 4 0 0 0 4.1-4.1c0-2.4-1.7-4.3-4-4.4a4.2 4.2 0 0 0-4.2 4.2Zm3.3 2.7h-1.3v-5.3l2.1-.1c1 0 1.5.1 1.9.4.3.2.5.6.5 1.1 0 .7-.5 1.1-1.1 1.3.5.2.8.7 1 1.4 0 .8.2 1 .3 1.3h-1.3c-.2-.2-.3-.7-.4-1.3-.1-.6-.4-.8-1.1-.8h-.6v2Zm0-3h.6c.7 0 1.3-.2 1.3-.7 0-.5-.4-.8-1.2-.8h-.7v1.5ZM85.2 404v21.7h-11v-18.6c0-4-2.3-6.6-6.1-6.6-4.4 0-7 3.5-7 8.2v17H50v-44l11-3.2V397c2.5-4.1 6.5-6.2 11.6-6.2 7.6 0 12.6 5.1 12.6 13.2Z" class="cls-1"/><path d="M122.8 408.5c0 10.6-7.6 17.6-18.8 17.6s-18.9-7-18.9-17.6 7.6-17.6 18.9-17.6 18.8 7 18.8 17.6Zm-26.5.1c0 5.4 3 9 7.7 9s7.7-3.6 7.7-9-3.2-9-7.7-9-7.7 3.7-7.7 9Z" class="cls-1"/><path d="M146 423.9a18.7 18.7 0 0 1-9.2 2.3c-6.6 0-11.4-3.7-11.4-10.9v-15.2h-4.8v-7.2h4.8v-9.6h11v9.5h9v7.3h-9v13.5c0 2.6 1 3.8 3.1 3.7a12 12 0 0 0 4.3-1.1l2.2 7.7ZM78 461l-5.3-17.5-5.2 17.5H59l-9.8-27.6H58l5.5 19 5.4-19H77l5.5 19 5.4-19h8.3L86.4 461H78Z" class="cls-1"/><path d="M119.3 449.6H100c.9 3.3 3.2 5.1 6.5 5.1 2.4 0 4.8-1 6.6-2.8l4.7 4.5c-2.8 3.1-7 5-12 5-9 0-14.7-5.7-14.7-14.1s5.8-14.2 14.4-14.2c9.7 0 14.5 6.4 14 16.5Zm-8.5-4.8c0-3.4-2.1-5.6-5.3-5.6s-5.2 2.3-5.8 5.6h11.1Z" class="cls-1"/><path d="M144.5 449.6H125c1 3.3 3.3 5.1 6.6 5.1 2.4 0 4.7-1 6.6-2.8l4.6 4.5c-2.8 3.1-7 5-12 5-9 0-14.7-5.7-14.7-14.1S122 433 130.5 433c9.8 0 14.6 6.4 14 16.5Zm-8.5-4.8c0-3.4-2.2-5.6-5.4-5.6s-5.2 2.3-5.7 5.6h11Z" class="cls-1"/><path d="M152.5 453.5v7.5h-8.9v-33.1c2.4-.2 5.7-2 6.5-3.3l-.6-1.6h3v20l9.1-9.6h10L161.5 444l10.4 17h-10.5l-6-10.7-3 3.2Z" class="cls-1"/><path d="M163.7 438.6c1.4-2.2 6.7-7.9 6.7-7.9l7 38.5-13.2-22.5a7.8 7.8 0 0 1-.5-8.1Z" opacity=".1"/><path fill="#2e334d" d="m202.1 420.1-28.3 8.5a7.9 7.9 0 0 0-5.3 9.7l8.9 30.9L202 420Z"/></svg>