<?xml version="1.0" encoding="UTF-8"?><svg id="a" xmlns="http://www.w3.org/2000/svg" viewBox="0 0 209.8 205.6"><defs><style>.b{fill:#fff;}.c{fill:#fc5226;}.d{opacity:.15;}.e{fill:#2e334d;}</style></defs><path class="c" d="M72.18,137l-52.18,15.8s-.24,.08-.25,.08c-1.63,.52-3.87,1.22-5.7,3.96L1.28,175.84c-.59,.87-.76,1.96-.46,2.97l4.41,15.1c.3,1.02,1.04,1.86,2.03,2.27l20.87,8.8c3.21,1.36,5.71,.54,7.21,.05-.03,0,23.59-7.12,39.46-11.95l10.4-20.64-9.59-33.57c-.42-1.48-1.97-2.32-3.44-1.88ZM15.03,184.84c-.64,1.18-2.12,1.62-3.3,.98-1.18-.64-1.62-2.12-.98-3.3,.64-1.18,2.12-1.63,3.3-.98,1.18,.64,1.62,2.12,.98,3.3Z"/><path class="b" d="M65.53,154.46c-.01,1.28-1.05,2.28-2.35,2.27-1.31-.01-2.34-1.04-2.33-2.31,.01-1.28,1.06-2.27,2.38-2.26,1.29,0,2.31,1.02,2.3,2.3Zm-4.1-.04c-.01,1.02,.75,1.83,1.76,1.84,.99,.02,1.74-.79,1.75-1.79,0-1.01-.73-1.84-1.75-1.85-.99,0-1.76,.8-1.77,1.8Zm1.39,1.19h-.53l.02-2.28c.21-.03,.5-.06,.88-.06,.43,0,.62,.08,.78,.19,.14,.1,.23,.27,.23,.49,0,.28-.21,.46-.48,.54v.03c.22,.07,.33,.25,.4,.56,.07,.35,.12,.48,.16,.56h-.56c-.07-.09-.11-.28-.18-.56-.04-.23-.18-.35-.47-.35h-.25v.9Zm.02-1.28h.25c.29,0,.53-.09,.53-.33,0-.21-.15-.35-.48-.35-.14,0-.24,.01-.29,.02v.66Z"/><g><g><path class="b" d="M36.86,163.58v8.73h-4.44v-7.5c0-1.62-.92-2.62-2.44-2.62-1.75,0-2.83,1.39-2.83,3.29v6.83h-4.44v-17.66l4.44-1.3v7.41c.98-1.64,2.59-2.47,4.65-2.49,3.06,0,5.06,2.08,5.06,5.32Z"/><path class="b" d="M51.97,165.38c0,4.26-3.03,7.09-7.55,7.09s-7.58-2.83-7.58-7.09,3.03-7.06,7.58-7.06,7.55,2.8,7.55,7.06Zm-10.66,.05c0,2.16,1.26,3.6,3.11,3.6s3.08-1.44,3.08-3.6-1.26-3.6-3.08-3.6-3.11,1.46-3.11,3.6Z"/><path class="b" d="M61.3,171.57c-1,.59-2.36,.95-3.7,.95-2.67,0-4.6-1.52-4.6-4.39v-6.11h-1.93v-2.9h1.93v-3.85h4.42v3.83h3.62v2.93h-3.62v5.42c0,1.08,.46,1.54,1.28,1.52,.46,0,1.05-.18,1.72-.46l.87,3.08Z"/><path class="b" d="M33.24,176.92l-1.52,2.88c-1.67-.9-3.21-1.39-4.37-1.39-.8,0-1.36,.31-1.36,.95,0,1.9,7.29,.98,7.27,5.8,0,2.85-2.49,4.42-5.83,4.42-2.31,0-4.55-.67-6.22-1.95l1.41-2.83c1.57,1.1,3.36,1.72,4.91,1.72,.87,0,1.52-.31,1.52-.95,0-2.03-7.17-.98-7.14-5.83,0-2.85,2.41-4.39,5.62-4.39,2,0,4.01,.56,5.7,1.57Z"/><path class="b" d="M46.21,180.36v9.04h-4.34v-1.59c-.9,1.18-2.36,1.8-4.24,1.8-2.95,0-4.75-1.8-4.75-4.34s1.87-4.16,5.32-4.19h3.65v-.21c0-1.36-.9-2.18-2.7-2.18-1.16,0-2.67,.41-4.14,1.16l-1.26-2.93c2.16-1,4.11-1.57,6.42-1.57,3.8,0,6.01,1.87,6.04,5.01Zm-4.37,4.34v-1.23h-2.8c-1.34,0-2,.46-2,1.49s.72,1.64,1.95,1.64c1.39,0,2.57-.77,2.85-1.9Z"/><path class="b" d="M67.07,183.68h-9.73c.44,1.64,1.62,2.57,3.26,2.57,1.21,0,2.39-.49,3.31-1.41l2.34,2.29c-1.41,1.54-3.49,2.44-6.04,2.44-4.52,0-7.35-2.83-7.35-7.04s2.93-7.11,7.22-7.11c4.88,0,7.29,3.21,6.99,8.27Zm-4.26-2.39c0-1.7-1.08-2.8-2.67-2.8s-2.59,1.13-2.88,2.8h5.55Z"/><path class="b" d="M47.7,189.4v-15.67c1.77-.56,3.24-1.52,4.44-3.14v18.81h-4.44Z"/></g><g><path class="b" d="M21.68,196.17c0,.39-.27,.67-.65,.67s-.65-.28-.65-.67,.28-.66,.65-.66,.65,.27,.65,.66Z"/><path class="b" d="M25.94,193.16l-.87,.63c-.24-.3-.59-.49-1.03-.48-.63,0-1.07,.49-1.07,1.21s.44,1.22,1.07,1.22c.46,0,.82-.18,1.05-.53l.89,.6c-.38,.63-1.08,1-2,1-1.37,0-2.3-.92-2.3-2.29s.93-2.31,2.31-2.31c.86,0,1.55,.34,1.95,.95Z"/><path class="b" d="M30.49,194.51c0,1.37-.97,2.3-2.41,2.3s-2.42-.93-2.42-2.3,.97-2.3,2.42-2.3,2.41,.91,2.41,2.3Zm-3.54,.02c0,.74,.45,1.24,1.12,1.24s1.12-.5,1.12-1.24-.46-1.24-1.12-1.24-1.12,.5-1.12,1.24Z"/><path class="b" d="M38.35,193.93v2.83h-1.28v-2.46c0-.58-.34-.92-.87-.92-.62,0-1,.49-1,1.15v2.23h-1.28v-2.46c0-.58-.34-.92-.86-.92-.63,0-1.01,.49-1.01,1.15v2.23h-1.29v-4.51h1.29v.78c.32-.55,.85-.82,1.53-.83,.76,0,1.31,.39,1.53,1.04,.29-.7,.86-1.03,1.63-1.04,1,0,1.63,.67,1.63,1.73Z"/><path class="b" d="M39.89,196.17c0,.39-.27,.67-.65,.67s-.65-.28-.65-.67,.28-.66,.65-.66,.65,.27,.65,.66Z"/><path class="b" d="M42.88,196.23c-.3,.38-.79,.59-1.42,.59-.96,0-1.55-.59-1.55-1.41s.61-1.35,1.72-1.36h1.24v-.08c0-.48-.32-.75-.94-.75-.4,0-.87,.13-1.34,.39l-.4-.89c.67-.34,1.25-.52,2.04-.52,1.21,0,1.9,.6,1.91,1.62v2.94h-1.26v-.53Zm0-1.01v-.4h-1.01c-.49,0-.74,.15-.74,.51s.27,.57,.7,.57c.54,0,.97-.29,1.05-.68Z"/><path class="b" d="M45.96,193.07c.31-.55,.82-.85,1.49-.86v1.22c-.92-.08-1.49,.41-1.49,1.17v2.17h-1.29v-4.51h1.29v.81Z"/></g></g><path class="d" d="M69.06,180.2c.57-.92,2.8-3.27,2.8-3.27l2.95,16.16-5.55-9.47c-.92-1.44-.58-2.8-.2-3.42Z"/><path class="e" d="M85.21,172.44c-.99,.3-7.23,2.17-11.89,3.57-1.74,.52-2.73,2.34-2.24,4.09l3.72,12.99,10.4-20.64Z"/></svg>