<svg xmlns="http://www.w3.org/2000/svg" id="Capa_2" version="1.1" viewBox="0 0 1000 1000"><defs id="defs50"><style id="style48">.cls-2{fill:#fc5226}</style></defs><g id="logo" transform="translate(3.2 757.3) scale(.4868)"><path xmlns="http://www.w3.org/2000/svg" id="path52" stroke="#000" stroke-width="2" d="M509 1 138 113l-2 1c-12 4-28 9-41 28L4 277c-4 7-5 14-3 22l31 107c3 7 8 13 15 16l149 63c22 10 40 4 51 0l281-85 74-147-68-239c-3-10-14-16-25-13ZM102 342a17.2 17.2 0 1 1-30-17 17.2 17.2 0 0 1 30 17z" style="fill:#fff"/><path id="path54" d="M465 128c0 9-7 16-16 16-10 0-17-8-17-16 0-9 8-16 17-16s16 7 16 16zm-29 0c0 7 6 12 13 12 7 1 12-5 12-12s-5-13-12-13-13 6-13 13zm10 8h-4l1-16 6-1c3 0 4 1 5 2l2 3c0 2-2 3-4 4 2 1 3 2 3 4l1 4h-4l-1-4c0-2-1-2-3-2h-2zm0-9h2l4-2c0-2-1-3-4-3h-2zm-194 78v65h-33v-56c0-12-7-19-18-19-13 0-22 10-22 24v51h-33V138l33-9v55c8-12 20-18 35-19 23 0 38 16 38 40zm112 13c0 32-22 53-56 53s-56-21-56-53 22-52 56-52 56 21 56 52zm-79 1c0 16 9 27 23 27s23-11 23-27-9-27-23-27-23 11-23 27z" class="cls-2"/><path id="path56" d="M434 264c-8 5-18 8-28 8-20 0-34-12-34-33v-46h-14v-21h14v-29h33v28h27v22h-27v41c0 8 3 11 10 11l12-3z" class="cls-2"/><g id="g66"><path id="path58" d="m230 376-16-53-15 53h-26l-29-83h26l17 57 16-57h24l16 57 17-57h25l-30 83z" class="cls-2"/><path id="path60" d="M354 342h-58c2 9 10 15 19 15 8 0 15-3 20-9l14 14c-8 9-21 15-36 15-27 0-44-17-44-42s18-43 43-43c29 0 44 19 42 50zm-25-15c0-10-7-16-16-16s-16 6-18 16z" class="cls-2"/><path id="path62" d="M429 342h-58c3 9 10 15 20 15 7 0 14-3 19-9l14 14c-8 9-20 15-36 15-27 0-44-17-44-42s18-43 44-43c29 0 43 19 41 50zm-25-15c0-10-7-16-16-16s-16 6-17 16z" class="cls-2"/><path id="path64" d="M453 353v23h-26v-99c7-1 17-6 19-10l-2-5h9v60l28-29h30l-31 32 32 51h-32l-18-32z" class="cls-2"/></g><path id="path68" d="m487 308 20-23 21 115-40-67c-6-10-4-20-1-25z" style="opacity:.15"/><path id="path70" d="m602 253-85 26c-12 3-19 16-16 29l27 92z" style="fill:#2e334d"/></g></svg>