<svg xmlns="http://www.w3.org/2000/svg" xmlns:svg="http://www.w3.org/2000/svg" id="Capa_2" width="1000" height="1000" version="1.1" viewBox="0 0 1000 1000"><metadata id="metadata76"/><defs id="defs50"><style id="style48">.cls-2{fill:#fc5226}</style></defs><g id="logo" transform="matrix(0.48680761,0,0,0.48680761,3.1502556,757.32281)"><path id="path52" d="m 509,1 -371,112 -2,1 c -12,4 -28,9 -41,28 L 4,277 c -4,7 -5,14 -3,22 l 31,107 c 3,7 8,13 15,16 l 149,63 c 22,10 40,4 51,0 L 528,400 602,253 534,14 C 531,4 520,-2 509,1 Z M 102,342 a 17.24094,17.24094 0 1 1 -30,-17 17.24094,17.24094 0 0 1 30,17 z" style="fill:#fff"/><path id="path54" d="m 465,128 c 0,9 -7,16 -16,16 -10,0 -17,-8 -17,-16 0,-9 8,-16 17,-16 9,0 16,7 16,16 z m -29,0 c 0,7 6,12 13,12 7,1 12,-5 12,-12 0,-7 -5,-13 -12,-13 -7,0 -13,6 -13,13 z m 10,8 h -4 l 1,-16 6,-1 c 3,0 4,1 5,2 l 2,3 c 0,2 -2,3 -4,4 2,1 3,2 3,4 l 1,4 h -4 l -1,-4 c 0,-2 -1,-2 -3,-2 h -2 z m 0,-9 h 2 l 4,-2 c 0,-2 -1,-3 -4,-3 h -2 z m -194,78 v 65 h -33 v -56 c 0,-12 -7,-19 -18,-19 -13,0 -22,10 -22,24 v 51 H 146 V 138 l 33,-9 v 55 c 8,-12 20,-18 35,-19 23,0 38,16 38,40 z m 112,13 c 0,32 -22,53 -56,53 -34,0 -56,-21 -56,-53 0,-32 22,-52 56,-52 34,0 56,21 56,52 z m -79,1 c 0,16 9,27 23,27 14,0 23,-11 23,-27 0,-16 -9,-27 -23,-27 -14,0 -23,11 -23,27 z" class="cls-2"/><path id="path56" d="m 434,264 c -8,5 -18,8 -28,8 -20,0 -34,-12 -34,-33 v -46 h -14 v -21 h 14 v -29 h 33 v 28 h 27 v 22 h -27 v 41 c 0,8 3,11 10,11 l 12,-3 z" class="cls-2"/><g id="g66"><path id="path58" d="m 230,376 -16,-53 -15,53 h -26 l -29,-83 h 26 l 17,57 16,-57 h 24 l 16,57 17,-57 h 25 l -30,83 z" class="cls-2"/><path id="path60" d="m 354,342 h -58 c 2,9 10,15 19,15 8,0 15,-3 20,-9 l 14,14 c -8,9 -21,15 -36,15 -27,0 -44,-17 -44,-42 0,-25 18,-43 43,-43 29,0 44,19 42,50 z m -25,-15 c 0,-10 -7,-16 -16,-16 -9,0 -16,6 -18,16 z" class="cls-2"/><path id="path62" d="m 429,342 h -58 c 3,9 10,15 20,15 7,0 14,-3 19,-9 l 14,14 c -8,9 -20,15 -36,15 -27,0 -44,-17 -44,-42 0,-25 18,-43 44,-43 29,0 43,19 41,50 z m -25,-15 c 0,-10 -7,-16 -16,-16 -9,0 -16,6 -17,16 z" class="cls-2"/><path id="path64" d="m 453,353 v 23 h -26 v -99 c 7,-1 17,-6 19,-10 l -2,-5 h 9 v 60 l 28,-29 h 30 l -31,32 32,51 h -32 l -18,-32 z" class="cls-2"/></g><path id="path68" d="m 487,308 20,-23 21,115 -40,-67 c -6,-10 -4,-20 -1,-25 z" style="opacity:.15"/><path id="path70" d="m 602,253 -85,26 c -12,3 -19,16 -16,29 l 27,92 z" style="fill:#2e334d"/></g></svg>