<?xml version="1.0" encoding="UTF-8"?>
<svg id="Capa_1" data-name="Capa 1" xmlns="http://www.w3.org/2000/svg" xmlns:xlink="http://www.w3.org/1999/xlink" viewBox="0 0 1797.67 1547">
  <defs>
    <style>
      .cls-1 {
        fill: #cde300;
      }

      .cls-2 {
        clip-path: url(#clippath);
      }

      .cls-3 {
        fill: none;
      }
    </style>
    <clipPath id="clippath">
      <rect class="cls-3" width="1080" height="1080"/>
    </clipPath>
  </defs>
  <g class="cls-2">
    <path id="_3" data-name="3" class="cls-1" d="M864.47,983.8s119.49-160.85,186.9-200.44c67.41-39.59,187.46-88.35,340.73-18.8,153.27,69.54,276.77,82.23,276.77,82.23,0,0,220.31-16.98,84.69,205.93-135.62,222.91-649.43,397.76-649.43,397.76,0,0-261.01,68.08-359.82-4.44-98.81-72.52-134.54-93.23-243.74-29.09-109.2,64.14-365.01,178.12-406.19,108.02-41.18-70.1,21.2-173.83,238.25-301.32,217.05-127.49,436.98-123.88,531.84-239.85Z"/>
  </g>
  <rect class="cls-3" width="1080" height="1080"/>
</svg>