<svg xmlns="http://www.w3.org/2000/svg" id="a" viewBox="0 0 1187.5 344.6"><defs><style>.b{fill:#fff}.d{fill:#00ce00}</style></defs><path d="m343.7 177.3 21.9 51.8 57.8-51.8h29.8l-33.8 97.6h-30l18-51.8-53.8 47.8h-4l-19.9-47.8-17.9 51.8h-29.9l33.9-97.6h27.9Zm227 27.9L547 274.9h-30l12-37.8h-51.8l-14 37.8h-29.8l24-69.7c3.9-10 7.9-16 15.9-22 8-4 17.9-6 29.8-6H545c12 0 19.9 2 23.9 6 4 6 4 12 2 22Zm-85.6 10H537l2-8v-4l-6-2-8-2H507l-16 4c-1.9 2-5.9 6-5.9 12Zm153.4 59.7-12-27.9-31.8 27.9h-35.9l57.8-47.8-21.9-49.8h31.9l14 27.9 31.8-28h33.9l-55.8 49.9 21.9 47.8h-33.9Zm77.7 0h-29.9l33.9-97.6h29.9l-33.9 97.6Zm77.7-97.6 22 51.8 57.7-51.8h27.9l-33.9 97.6h-29.9l18-51.8-51.9 47.8h-6L778 223.1l-18 51.8h-29.9l34-97.6h29.8Zm207.2 0h29.9l-26 69.7c-2 10-8 16-13.9 22-8 3.9-18 5.9-29.9 5.9h-43.8c-12 0-20-2-24-6-3.9-6-3.9-12 0-21.9l24-69.7h29.9l-22 59.7v12l4 4h36l5.9-4 4-4 4-8 21.9-59.7Zm131.5 79.7-14 14-18 3.9H1011l8-22h71.7l4-2V249h-2l-49.8-29.9-6-8a22.1 22.1 0 0 1 2-15.9l14-14 16-4h91.6l-8 22h-75.7v6l51.8 27.9 2 2 2 4 2 7.9-2 8v2Z" class="b"/><path d="M311.8 332.7h-37.9l-11.9-4v-10l8-19.9c0-4 4-8 6-10l13.9-4h37.9l-4 12h-31.9l-6 2-4 4-4 12v6h22l6-14h13.9l-10 25.9h2Zm69.7-34-10 34h-13.9l6-18h-25.9l-6 18h-14l12-34 6-9.9 14-4h21.9l10 4v10Zm-39.8 4h25.9v-4l-2-1.9h-14l-6 2-4 4Zm65.7-17.9 10 26 27.9-26h14l-16 47.9h-14l8-26-25.9 24h-2l-8-24-10 26h-13.9l16-47.9h14Zm55.8 47.9h-14l16-47.9h16l-18 47.9Zm77.7-47.9-16 47.9H511l-16-28-9.9 28h-14l16-47.9h12l17.9 28 10-28h13.9Zm43.8 47.9H549l-12-4v-10l6-20 8-9.9 14-4h35.8l-4 12h-29.9l-8 2-4 4-4 12v5.9h24l4-14h14l-8 26Zm61.8-30h25.9l6-17.9h14l-16 47.9h-14l6-18h-23.9l-8 18h-14l16-47.9h14l-6 18Zm101.6-4-12 34h-14l6-18h-23.8l-6 18h-14l10-34 8-9.9 14-4H736l12 4v10Zm-39.8 4h23.9l2-2-2-2-2-1.9h-12l-8 2-2 4Zm79.6 14 10 16h-16l-9.9-16h-8l-6 16h-13.9l16-47.8h35.8l12 4v13.9l-8 10-12 4Zm0-19.9H770l-4 8h24l2-2 2-2v-4h-6Zm79.7 2-6 19.9-8 10-13.9 4H804l16-47.9h35.8l12 4v10Zm-19.9-2h-18l-7.9 24h24l2-4 1.9-2 4-12v-4l-2-2h-4Zm75.7 18 10-30h14l-10 34-8 9.9-14 4h-35.8l-10-4v-10l10-33.8h14l-10 29.8v6h12l11.9-35.8h14l-12 35.8h12l2-4v-2Zm79.7-16-10 33.8h-14l6-17.9h-25.8l-6 18h-14l12-34c0-4 4-7.9 6-9.9l14-4H991l12 4v10Zm-39.8 4h25.9v-4l-2-2h-14l-6 2-4 4Zm79.7 13.9 10 16h-16l-10-16h-8l-6 16h-13.9l16-47.9h37.8c6 0 8 2 10 4l2 10-2 4-6 10-14 3.9Zm0-19.9h-18l-2 8h24l2-2v-2l2-2-2-2h-6Zm69.7 35.8h-35.9l-12-4v-9.9l6-20 8-9.9 14-4h35.8l-4 12h-29.8l-8 2-4 4h39.9l-4 12h-37.9l-2 1.9v4h37.9l-4 12ZM140.5 137.4a103.6 103.6 0 1 0 0 207.3 103.6 103.6 0 0 0 0-207.3Zm0 187.3a83.7 83.7 0 1 1 0-167.3 83.7 83.7 0 0 1 0 167.3Z" class="d"/><path d="M176.3 207.2c-2 0-4 14-2-4 2-6-2-10-6-12-7.9-8-23.8-12-35.8-10-8 2-18 4-23.9 12l-4 10c4 18 0 4 0 4s-6 53.8-4 57.7l30 24 3.9 11.9-2-10-2-49.8-19.9-16v-3.9l24 14 1.9 21.9 4 4 4-4 2-22 23.9-13.9-2 4-18 16-2 37.8-4 21.9 4-12 32-23.9-4-57.7Zm-41.8-22-14 6-6 8v12h-2c-15.9-20 22-26 24-28l-2 2Z" class="d"/><path d="M62.1 59.2A22.9 22.9 0 0 1 100 47.1L138 81.7l38.2 34.6a22.9 22.9 0 0 1-8.4 38.7l-49 15.8-49 15.7A22.9 22.9 0 0 1 40.3 160l10.9-50.4 10.9-50.3Z" style="fill:#ff0101"/><path d="m102.2 64-13.4-3.1c-1.5-.4-3 .5-3.5 2l-4 13a2.9 2.9 0 0 1-5.5.5l-6-12.4c-.6-1.4-2.2-2-3.6-1.5l-12.8 5a3 3 0 0 1-3.7-4l6-12.4c.6-1.3.1-3-1.2-3.7l-11.9-7a3 3 0 0 1 .8-5.3L57 32a3 3 0 0 0 2.2-3.3L57 15a3 3 0 0 1 4.7-2.7L72.5 21a3 3 0 0 0 4-.3l9.4-10a3 3 0 0 1 5 2v13.8c0 1.5 1.2 2.7 2.7 2.9l13.7 1c2.7.3 3.7 3.6 1.6 5.2l-10.8 8.6a2.9 2.9 0 0 0-.6 3.9l7.8 11.4a3 3 0 0 1-3.1 4.5Z" class="b"/><rect width="192.7" height="45.9" x="21.6" y="145.4" class="b" rx="23" ry="23" transform="rotate(-17.8 118 168.4)"/></svg>