<?xml version="1.0" encoding="UTF-8"?><svg id="Capa_2" xmlns="http://www.w3.org/2000/svg" xmlns:xlink="http://www.w3.org/1999/xlink" viewBox="0 0 367.1 55.19"><defs><style>.cls-1,.cls-2{fill:#fff;}.cls-2{filter:url(#outer-glow-1);}</style><filter id="outer-glow-1" filterUnits="userSpaceOnUse"><feOffset dx="0" dy="0"/><feGaussianBlur result="blur" stdDeviation="6.45"/><feFlood flood-color="#ca7028" flood-opacity=".5"/><feComposite in2="blur" operator="in"/><feComposite in="SourceGraphic"/></filter></defs><g id="Capa_1-2"><path class="cls-1" d="M27.6,0C12.36,0,0,12.36,0,27.6s12.36,27.6,27.6,27.6,27.6-12.36,27.6-27.6S42.84,0,27.6,0Zm0,49.98c-12.37,0-22.39-10.02-22.39-22.39S15.23,5.21,27.6,5.21s22.39,10.02,22.39,22.39-10.02,22.39-22.39,22.39Z"/><path class="cls-2" d="M37.15,18.68c-.17,.12-1.06,3.46-.24-1.27,.24-1.36-.49-2.41-1.49-3.24-2.59-2.13-6.56-2.76-9.8-2.27-2.21,.33-4.98,1.08-6.51,2.84-.63,.72-.97,1.72-.8,2.67,.82,4.73-.08,1.4-.24,1.27,0,0-1.45,14.1-1.05,15.46,.33,1.14,6.28,5.1,8.22,6.37l.93,2.94-.33-2.56h.01s-.86-7.51-.79-13.26c0,0-4.89-3.94-5.16-4.37-.26-.43,0-.52-.26-.9,0,0,6.5,3.36,6.5,3.6s.41,5.95,.5,6.24c.09,.28,1,1.06,1,1.06,0,0,.91-.77,.99-1.06,.09-.29,.5-6,.5-6.24s6.5-3.6,6.5-3.6c-.26,.38,0,.47-.26,.9-.26,.43-5.15,4.37-5.15,4.37,.04,3.33-.23,8-.47,10.39l-.71,5.43,.91-2.89c1.85-1.21,7.96-5.26,8.29-6.42,.39-1.37-1.05-15.46-1.05-15.46Zm-10.95-6.08c-1.29,.55-2.64,1.11-3.73,2.02-.69,.58-1.21,1.3-1.49,2.16-.2,.61-.28,1.26-.27,1.9,0,.32,.19,.87,.09,1.18-.06,.17-.23,.21-.35,.06-4.3-5.76,5.44-7.18,6.29-7.54-.18,.08-.36,.15-.55,.23Z"/><g><path class="cls-1" d="M86.53,0l7,17.05L112.11,0h11l-11.76,34.11h-11.52l5.41-15.76-16.29,14.52h-2.06l-6.23-14.52-5.41,15.76h-11.47L75.54,0h10.99Z"/><path class="cls-1" d="M155.28,34.11h-11.41l4.41-12.76h-16.18l-4.41,12.76h-11.47l8.23-24c1.18-3.41,3.04-5.95,5.59-7.61,2.55-1.67,6-2.5,10.35-2.5h14.29c4.35,0,7.2,.83,8.56,2.5s1.44,4.21,.26,7.61l-8.23,24Zm-13.94-25.23c-1.92,0-3.31,.3-4.15,.89s-1.52,1.49-2.03,2.7h16.11c.32-1.22,.26-2.12-.18-2.7-.43-.59-1.58-.89-3.47-.89h-6.29Z"/><path class="cls-1" d="M186.39,34.11l-4.12-8.76-10.11,8.76h-13.23l19.58-16.99L170.69,0h13.17l4.06,8.94L198.21,0h13.12l-19.65,17.11,7.88,16.99h-13.17Z"/><path class="cls-1" d="M214.32,34.11h-11.35L214.73,0h11.35l-11.76,34.11Z"/><path class="cls-1" d="M241.96,0l7,17.05L267.54,0h11l-11.76,34.11h-11.52l5.41-15.76-16.29,14.52h-2.06l-6.23-14.52-5.41,15.76h-11.47L230.97,0h10.99Z"/><path class="cls-1" d="M311.06,0h11.41l-8.29,23.99c-1.18,3.41-3.02,5.95-5.53,7.62-2.51,1.67-5.94,2.5-10.29,2.5h-14.29c-4.39,0-7.27-.82-8.64-2.47s-1.47-4.2-.29-7.65L283.42,0h11.47l-7.23,20.93c-.23,.71-.39,1.34-.47,1.89-.08,.55,0,1,.23,1.35,.23,.35,.65,.62,1.23,.79s1.41,.27,2.47,.27h6.29c1.06,0,1.94-.09,2.65-.27,.7-.18,1.29-.44,1.76-.79,.47-.35,.87-.8,1.18-1.35,.32-.55,.59-1.18,.82-1.89l7.24-20.93Z"/><path class="cls-1" d="M357.28,27.87c-1.25,1.89-2.78,3.39-4.58,4.53-1.8,1.13-3.86,1.7-6.17,1.7h-30.76l3.12-9.05h24.47c-.08,0-.12-.04-.12-.12l-16.76-9.41c-.94-.78-1.57-1.88-1.91-3.29s-.22-2.92,.33-4.53c.11-.35,.22-.64,.29-.85s.2-.4,.35-.56c1.25-1.88,2.8-3.4,4.65-4.56,1.84-1.15,3.92-1.73,6.23-1.73h30.7l-3.12,9.05h-24.47s.02,.06,.06,.06l16.76,9.52c.15,.08,.4,.34,.73,.77,.34,.43,.64,.99,.91,1.68,.27,.69,.44,1.48,.5,2.38s-.09,1.88-.44,2.94c-.23,.75-.49,1.23-.77,1.47Z"/></g><g><path class="cls-1" d="M74.9,55.19h-12.17c-2.01,0-3.32-.38-3.95-1.13s-.67-1.92-.13-3.49l2.17-6.34c.54-1.56,1.39-2.72,2.55-3.48s2.74-1.14,4.73-1.14h12.17l-1.4,4.06h-10.34c-.48,0-.89,.04-1.21,.12-.32,.08-.6,.2-.82,.36s-.4,.37-.54,.62c-.13,.25-.25,.54-.36,.86l-1.24,3.55c-.11,.32-.18,.61-.21,.86-.04,.25,0,.46,.11,.62s.29,.28,.56,.36c.27,.08,.64,.12,1.13,.12h5.13l1.69-4.89h5.21l-3.09,8.94Z"/><path class="cls-1" d="M91.53,55.19l.35-4.89h-6.66l-2.98,4.89h-5.4l6.66-11.07c.25-.41,.6-.88,1.05-1.4,.45-.52,.94-1.01,1.49-1.48,.55-.46,1.11-.85,1.68-1.17,.57-.31,1.12-.47,1.64-.47h5.72c.54,0,.99,.14,1.36,.42,.37,.28,.66,.64,.87,1.07,.21,.44,.36,.93,.44,1.46,.08,.54,.11,1.06,.09,1.56l-.89,11.07h-5.43Zm-1.71-11.39c-.21,.09-.42,.23-.63,.43-.21,.2-.44,.46-.69,.79-.24,.33-.51,.74-.82,1.22h4.49c.05-.97,0-1.64-.13-2.01-.14-.38-.42-.56-.83-.56h-.72c-.23,0-.45,.04-.66,.13Z"/><path class="cls-1" d="M104.12,55.19h-5.26l3.76-10.96c.55-1.58,1.41-2.74,2.56-3.49,1.16-.75,2.74-1.13,4.74-1.13h11.44c2.04,0,3.38,.38,4,1.13s.66,1.92,.11,3.49l-3.76,10.96h-5.26l3.3-9.56c.11-.32,.17-.61,.2-.86,.03-.25-.01-.46-.12-.62s-.3-.28-.56-.36c-.27-.08-.64-.12-1.13-.12h-1.29l-3.97,11.52h-5.26l3.98-11.52h-1.24c-.48,0-.89,.04-1.21,.12-.32,.08-.6,.2-.82,.36s-.4,.37-.54,.62c-.13,.25-.25,.54-.36,.86l-3.3,9.56Z"/><path class="cls-1" d="M129.05,55.19h-5.18l5.37-15.58h5.18l-5.37,15.58Z"/><path class="cls-1" d="M136.49,55.19h-5.24l3.76-10.96c.54-1.56,1.39-2.72,2.55-3.48s2.74-1.14,4.73-1.14h6.53c1.99,0,3.29,.38,3.91,1.14s.66,1.92,.12,3.48l-3.76,10.96h-5.21l3.3-9.56c.11-.32,.17-.61,.2-.86,.03-.25,0-.46-.11-.62s-.28-.28-.55-.36c-.27-.08-.64-.12-1.13-.12h-2.87c-.48,0-.89,.04-1.21,.12-.32,.08-.6,.2-.82,.36s-.4,.37-.54,.62c-.13,.25-.25,.54-.36,.86l-3.3,9.56Z"/><path class="cls-1" d="M168.26,54.05c-1.15,.76-2.71,1.14-4.7,1.14h-6.53c-2.01,0-3.32-.38-3.95-1.13s-.67-1.92-.13-3.49l2.17-6.34c.54-1.56,1.39-2.72,2.55-3.48s2.74-1.14,4.73-1.14h12.17l-1.4,4.06h-10.34c-.48,0-.89,.04-1.21,.12-.32,.08-.6,.2-.82,.36s-.4,.37-.54,.62c-.13,.25-.25,.54-.36,.86l-1.24,3.55c-.11,.32-.18,.61-.21,.86-.04,.25,0,.46,.11,.62s.29,.28,.56,.36c.27,.08,.64,.12,1.13,.12h2.87c.48,0,.89-.04,1.21-.12,.32-.08,.59-.2,.81-.36s.39-.37,.54-.62c.14-.25,.27-.54,.38-.86l1.02-2.93h5.21l-1.5,4.32c-.54,1.56-1.38,2.72-2.52,3.48Z"/><path class="cls-1" d="M190.68,45.31h7.39l1.96-5.69h5.21l-5.37,15.58h-5.21l1.99-5.8h-7.39l-1.99,5.8h-5.24l5.37-15.58h5.24l-1.96,5.69Z"/><path class="cls-1" d="M216.49,55.19l.35-4.89h-6.66l-2.98,4.89h-5.4l6.66-11.07c.25-.41,.6-.88,1.05-1.4,.45-.52,.94-1.01,1.49-1.48,.55-.46,1.11-.85,1.68-1.17,.57-.31,1.12-.47,1.64-.47h5.72c.54,0,.99,.14,1.36,.42,.37,.28,.66,.64,.87,1.07,.21,.44,.36,.93,.44,1.46,.08,.54,.11,1.06,.09,1.56l-.89,11.07h-5.43Zm-1.71-11.39c-.21,.09-.42,.23-.63,.43-.21,.2-.44,.46-.69,.79-.24,.33-.51,.74-.82,1.22h4.49c.05-.97,0-1.64-.13-2.01-.14-.38-.42-.56-.83-.56h-.72c-.23,0-.45,.04-.66,.13Z"/><path class="cls-1" d="M242.95,48.65c-.91,.76-2.16,1.21-3.73,1.36l3.17,5.18h-6.12l-3.2-5.1h-2.23l-1.75,5.1h-5.26l5.37-15.58h12.17c2.01,0,3.32,.38,3.94,1.14,.62,.76,.66,1.93,.12,3.5l-.4,1.15c-.47,1.4-1.16,2.48-2.07,3.24Zm-9.91-4.9l-.75,2.18h5.4c.73,0,1.26-.08,1.57-.23,.31-.15,.54-.43,.68-.85,.07-.23,.11-.43,.12-.58,0-.15-.04-.26-.15-.33s-.28-.12-.51-.15c-.23-.03-.56-.04-.97-.04h-5.4Z"/><path class="cls-1" d="M263.28,50.57c-.54,1.56-1.38,2.72-2.52,3.48-1.15,.76-2.71,1.14-4.7,1.14h-12.19l5.37-15.58h12.19c1.99,0,3.29,.38,3.91,1.14s.66,1.92,.12,3.48l-2.18,6.34Zm-10.21-6.9l-2.58,7.47h5.13c.48,0,.89-.04,1.21-.12,.32-.08,.59-.2,.81-.36s.39-.37,.54-.62c.14-.25,.27-.54,.38-.86l1.24-3.55c.11-.32,.17-.61,.2-.86,.03-.25,0-.46-.11-.62s-.28-.28-.55-.36c-.27-.08-.64-.12-1.13-.12h-5.13Z"/><path class="cls-1" d="M286.94,39.62h5.26l-3.79,10.96c-.54,1.58-1.38,2.74-2.54,3.49s-2.74,1.13-4.77,1.13h-11.44c-2.01,0-3.33-.38-3.96-1.13s-.68-1.92-.15-3.49l3.79-10.96h5.26l-3.3,9.56c-.11,.32-.18,.61-.21,.86s0,.46,.11,.62,.3,.28,.56,.36c.27,.08,.64,.12,1.13,.12h1.32l3.98-11.52h5.26l-3.97,11.52h1.21c.48,0,.89-.04,1.21-.12,.32-.08,.59-.2,.82-.36,.22-.16,.41-.37,.55-.62,.14-.25,.27-.54,.38-.86l3.3-9.56Z"/><path class="cls-1" d="M302.79,55.19l.35-4.89h-6.66l-2.98,4.89h-5.4l6.66-11.07c.25-.41,.6-.88,1.05-1.4,.45-.52,.94-1.01,1.49-1.48,.55-.46,1.11-.85,1.68-1.17,.57-.31,1.12-.47,1.64-.47h5.72c.54,0,.99,.14,1.36,.42,.37,.28,.66,.64,.87,1.07,.21,.44,.36,.93,.44,1.46,.08,.54,.11,1.06,.09,1.56l-.89,11.07h-5.43Zm-1.71-11.39c-.21,.09-.42,.23-.63,.43-.21,.2-.44,.46-.69,.79-.24,.33-.51,.74-.82,1.22h4.49c.05-.97,0-1.64-.13-2.01-.14-.38-.42-.56-.83-.56h-.72c-.23,0-.45,.04-.66,.13Z"/><path class="cls-1" d="M329.24,48.65c-.91,.76-2.16,1.21-3.73,1.36l3.17,5.18h-6.12l-3.2-5.1h-2.23l-1.75,5.1h-5.26l5.37-15.58h12.17c2.01,0,3.32,.38,3.94,1.14,.62,.76,.66,1.93,.12,3.5l-.4,1.15c-.47,1.4-1.16,2.48-2.07,3.24Zm-9.91-4.9l-.75,2.18h5.4c.73,0,1.26-.08,1.57-.23,.31-.15,.54-.43,.68-.85,.07-.23,.11-.43,.12-.58,0-.15-.04-.26-.15-.33s-.28-.12-.51-.15c-.23-.03-.56-.04-.97-.04h-5.4Z"/><path class="cls-1" d="M347.99,55.19h-12.17c-2.01,0-3.32-.38-3.95-1.13s-.67-1.92-.13-3.49l2.17-6.34c.54-1.56,1.39-2.72,2.55-3.48s2.74-1.14,4.73-1.14h12.17l-1.4,4.06h-10.34c-.88,0-1.51,.13-1.89,.4-.39,.27-.69,.68-.93,1.24h12.6l-1.42,4.08h-12.6c-.2,.59-.19,1.03,.01,1.32,.21,.29,.76,.43,1.65,.43h10.34l-1.4,4.06Z"/></g></g></svg>