<svg xmlns="http://www.w3.org/2000/svg" viewBox="0 0 204.5 166.6"><defs><style>.d{fill:#fff}</style></defs><g id="b"><g id="c"><path d="M173 0 47 39h-1c-4 1-9 3-14 9L1 94l-1 7 11 37 5 5 50 22c8 3 14 1 18 0l95-29 26-50-24-81c-1-4-4-6-8-5ZM35 116Z" style="fill:#fc5226"/><path class="d" d="M157 43c0 3-3 5-6 5s-5-3-5-6 2-5 5-5 6 2 6 6Zm-10-1c0 3 2 5 4 5 3 0 4-2 5-4 0-3-2-5-5-5-2 0-4 2-4 4Zm3 3h-1v-5h4l1 1-1 2 1 1v1h-1l-1-1-1-1h-1v2Zm0-3h1l1-1h-2v1ZM88 65v21H77V68c0-4-2-7-6-7s-7 4-7 8v17H53V43l11-3v18c2-4 6-6 11-6 8 0 13 5 13 13Z"/><path class="d" d="M124 69c0 10-7 17-18 17s-19-7-19-17 8-17 19-17 18 7 18 17Zm-26 0c0 5 3 9 8 9s7-4 7-9-3-9-7-9-8 4-8 9Z"/><path class="d" d="m147 84-9 2c-7 0-11-3-11-10V61h-5v-7h5V44h10v10h9v7h-9v13c0 3 1 4 3 4l5-2 2 8ZM79 97l-4 7-10-4c-2 0-4 1-4 3 0 4 18 2 18 14 0 7-6 10-14 10-6 0-11-1-15-4l3-7c4 3 8 4 12 4l4-2c0-5-18-3-18-14 0-7 6-11 14-11 5 0 10 1 14 4Z"/><path class="d" d="M110 105v22h-10v-4c-3 3-6 5-11 5-7 0-11-5-11-11s4-10 13-10h9v-1c0-3-3-5-7-5l-10 3-3-7c5-3 10-4 16-4 9 0 14 5 14 12Zm-10 11v-3h-7c-3 0-5 1-5 3s2 4 5 4 6-2 7-4ZM161 113h-24c1 4 4 6 8 6 3 0 6-1 8-3l6 6c-4 3-9 5-15 5-11 0-18-6-18-17s7-17 18-17c12 0 17 8 17 20Zm-11-6c0-4-2-6-6-6s-6 2-7 6h13ZM114 127V89c4-1 8-4 11-7v45h-11Z"/><g><path class="d" d="m51 143-2 2-1-2 1-1 2 1ZM61 136l-2 2-2-2-3 3c0 1 1 3 3 3l2-1 2 2c-1 1-2 2-5 2s-5-2-5-6 2-5 5-5l5 2Z"/><path class="d" d="M72 139c0 4-2 6-6 6s-6-2-6-6 3-5 6-5 6 2 6 5Zm-8 0c0 2 1 3 2 3s3-1 3-3-1-3-3-3-2 2-2 3ZM91 138v7h-3v-6l-2-2c-2 0-2 1-2 2v6h-4v-6c0-1 0-2-2-2l-2 2v6h-3v-11h3v2c1-2 2-2 4-2l3 2 4-2c3 0 4 1 4 4ZM95 143l-2 2-1-2 1-1 2 1ZM102 144l-3 1c-3 0-4-1-4-3s1-4 4-4h3l-2-2-3 1-1-2 5-1c2 0 4 1 4 4v7h-3v-1Zm0-3v-1h-2l-2 1s0 2 2 2l2-2ZM110 136l3-2v3c-2 0-3 1-3 3v5h-4v-11h4v2Z"/></g><path d="m165 105 7-8 7 39-13-23c-2-3-2-7-1-8Z" style="opacity:.15"/><path d="m204 86-28 9c-4 1-7 5-6 10l9 31 25-50Z" style="fill:#2e334d"/></g></g></svg>