<svg xmlns="http://www.w3.org/2000/svg" id="Capa_1" data-name="Capa 1" viewBox="0 0 1000 107"><defs><style>.cls-1{fill:#fff}.cls-2{fill:#5ac1d6}</style></defs><g id="Capa_2" data-name="Capa 2"><path d="m156 22 11 26 29-26h15l-17 49h-15l9-26-27 24h-2l-10-24-9 26h-15l17-49h14Zm114 14-12 35h-15l6-19h-26l-7 19h-15l12-35c2-5 4-8 8-11 4-2 9-3 15-3h21c6 0 10 1 12 3 2 3 2 6 1 11Zm-43 5h26l1-4v-2l-3-1-4-1h-9l-8 2c-1 1-3 3-3 6Zm77 30-6-14-16 14h-18l29-24-11-25h16l7 14 16-14h17l-28 25 11 24h-17Zm39 0h-15l17-49h15l-17 49Zm39-49 11 26 29-26h14l-17 49h-15l9-26-26 24h-3l-10-24-9 26h-15l17-49h15Zm104 0h15l-13 35c-1 5-4 8-7 11-4 2-9 3-15 3h-22c-6 0-10-1-12-3-2-3-2-6 0-11l12-35h15l-11 30v6l2 2h18l3-2 2-2 2-4 11-30Zm66 40-7 7-9 2h-45l4-11h36l2-1v-1h-1l-25-15-3-4 1-8 7-7 8-2h46l-4 11h-38v3l26 14 1 1 1 2 1 4-1 4v1Z" class="cls-1"/><path d="M140 100h-19l-6-2v-5l4-10c0-2 2-4 3-5l7-2h19l-2 6h-16l-3 1-2 2-2 6v3h11l3-7h7l-5 13h1Zm35-17-5 17h-7l3-9h-13l-3 9h-7l6-17 3-5 7-2h11l5 2v5Zm-20 2h13v-2l-1-1h-7l-3 1-2 2Zm33-9 5 13 14-13h7l-8 24h-7l4-13-13 12h-1l-4-12-5 13h-7l8-24h7Zm28 24h-7l8-24h8l-9 24Zm39-24-8 24h-7l-8-14-5 14h-7l8-24h6l9 14 5-14h7Zm22 24h-18l-6-2v-5l3-10 4-5 7-2h18l-2 6h-15l-4 1-2 2-2 6v3h12l2-7h7l-4 13Zm31-15h13l3-9h7l-8 24h-7l3-9h-12l-4 9h-7l8-24h7l-3 9Zm51-2-6 17h-7l3-9h-12l-3 9h-7l5-17 4-5 7-2h10l6 2v5Zm-20 2h12l1-1-1-1-1-1h-6l-4 1-1 2Zm40 7 5 8h-8l-5-8h-4l-3 8h-7l8-24h18l6 2v7l-4 5-6 2Zm0-10h-9l-2 4h12l1-1 1-1v-2h-3Zm40 1-3 10-4 5-7 2h-18l8-24h18l6 2v5Zm-10-1h-9l-4 12h12l1-2 1-1 2-6v-2l-1-1h-2Zm38 9 5-15h7l-5 17-4 5-7 2h-18l-5-2v-5l5-17h7l-5 15v3h6l6-18h7l-6 18h6l1-2v-1Zm40-8-5 17h-7l3-9h-13l-3 9h-7l6-17c0-2 2-4 3-5l7-2h10l6 2v5Zm-20 2h13v-2l-1-1h-7l-3 1-2 2Zm40 7 5 8h-8l-5-8h-4l-3 8h-7l8-24h19c3 0 4 1 5 2l1 5-1 2-3 5-7 2Zm0-10h-9l-1 4h12l1-1v-1l1-1-1-1h-3Zm35 18h-18l-6-2v-5l3-10 4-5 7-2h18l-2 6h-15l-4 1-2 2h20l-2 6h-19l-1 1v2h19l-2 6ZM54 2a52 52 0 1 0 0 105A52 52 0 0 0 54 2Zm0 94a42 42 0 1 1 0-84 42 42 0 0 1 0 84Z" class="cls-2"/><path d="M72 37c-1 0-2 7-1-2 1-3-1-5-3-6-4-4-12-6-18-5-4 1-9 2-12 6l-2 5c2 9 0 2 0 2s-3 27-2 29l15 12 2 6-1-5-1-25-10-8v-2l12 7 1 11 2 2 2-2 1-11 12-7-1 2-9 8-1 19-2 11 2-6 16-12-2-29ZM51 26l-7 3-3 4v6h-1c-8-10 11-13 12-14l-1 1ZM660 13l-1-1c-2-2-4-2-6-1h-4l-4-1c-3-2-6-2-10 0l-5 4 4-3 5-2 4 1 8 4h2l2-1h4l2 1v1c3 4 4 8 4 13v4c1 3 0 5-1 8a180 180 0 0 1-14 27h-3v1l2 2v2-2l-1-1v-1h1l1 1h-1v-1h-1l1 1h1l1 2-1 1v1l3 3 1 2v-1l2 2-1-1c-1 1 0 3 1 4v-2l1 2-1 1h1l1 1h-2l1 2 1-1v1h-1l2 1v2l-1 9c-1 3-3 4-5 5l-3 1h-4l2-1h4l1-2v-2l-1 1-2 2h1c1 0 0 0 0 0v-1h1l-2 2h-1c-1-1-2 0-3 1h-1l1-1-2 1h-1l2-2c1 1 2 0 3-1v-1h1v-1h-1v1l-1 1v-2l-1 1v-1h1v-1l-1-1-1 1h1v1l-1 1-1 2-2 2-7-1c-4-1-6-4-7-8l1-10c1-6 3-12 6-17v-1l-10-18-5-12c-1-6-1-12 2-18l5-7h1l1-1 2-2 3-1 7-1h6l6 2 3 1 2 1 2 2Zm-25 6 3-1c5-1 10 2 12 6l1 9-2 10a127 127 0 0 1-6 14l2 3 3 4 4-7 8-18c1-5 2-9 1-14-1-4-3-8-6-11h-1l-3 1h-1l-5-2h-3c-3 1-5 3-7 6Zm7 35 7-17V27c-1-4-3-6-7-7-3-1-5 0-8 1v1c-2 4-3 9-1 14 1 4 3 9 6 13l3 5Zm-6 14v1l-3 8-3 12 1 6c1 2 2 3 4 3 3 0 4-1 5-3l1-2 1-6a40 40 0 0 0-6-19Zm-9-40c2 0 4-1 4-3s-2-4-4-4-4 1-4 4c0 2 2 3 4 3Zm20 67v-1l1 1-1 1 1 1h2l1-2 1 1c0 1 0 0 0 0h-1v-1 2l1-1v-1l-1-1-1 1v-4l-1 2v1l-1 1v-1h-1l-1 1v1h1v-1Zm-3-14h5c2 0 2 1 2 3v1-4l-3-1h-2l-1-1 1-2v3l1-1-1-2h-2v2l-1-1v1l1 1v1Zm13 6-1-3-3-6v-2l-3-3 1 4 1 1 1 1 2 5 1 1c-1 1 0 1 1 2Zm-11-17-2-2v1l1 1 2 2h1v-2l-1-1-2-2v1h1-1v1l1 1Zm2 6 1-1 1 1v1l1 2h2q-2-1-2-3l-1-1-1-1h-2l1 2Zm-7 26 3-2-1-1-1-2 2-1v1h-1v1l2-1v-1l-1-1h-1l-1 1h-1l1 1 1 2c1 1 0 2-1 2l-1 1Zm10-19h-1c-1-2-3-1-5 0l1 1 5-1Zm-6-11v1l-1-1 1-1 1 1 2 1-1-1-2-1-1-1v1h-1l1 1v1h2l-1-1Zm10 11-1-2-2-1 1 2 2 1Zm-3 4 3-3h-3l-1 3h1Zm-25-69 1 1 2-1-1-1-2 1Zm0 11-1 2 1 1 1-1-1-2Zm15 72v-2l-2-1 2 3Zm0-36 1 2 1 1v-2h-1l-1-1Zm13 20-1 2 1-1v-1Zm-12 18 1-2-1 1v1Zm-1 1c0-2-1-2-3-2v1l3 1Zm5-24 1-2-1-1v3Zm8 8 1-2-1 2Zm1 1 1-1-1-1v2Zm-11-19-2-1v1h2Zm1-2v-2 2Zm13 20-2-1 1 1h1Zm-2 0v1h1v-1h-1Z" class="cls-1"/><path d="m654 74-2-1v-1l2 2ZM627 26l-1-2 1-1 1 1-1 2ZM630 24v2l-1-1 1-1ZM625 27l-1-2 1 1v1ZM627 27v-1l2 1h-2ZM629 22l-1 1-1-1h2ZM626 22v1h-2l2-1ZM776 54l-1 7c0 2 0 2 2 2h7l1 1c0 4-1 5-5 5h-3l-2 1v8c1 2 2 4 4 4h28l1-2c0-4 0-7 2-11s6-6 11-7l12 1 1 1v23c0 2-1 1-2 1h-4l-2-1v-9l-1 1-4 6c-1 2-4 3-7 3h-37c-5 0-9-3-9-8v-9c0-2 0-2-2-2q-3 0-3-3v-1c0-2 0-2 3-2 2 0 2 0 2-2l1-3 7-4Zm50 14h-7c-2 0-3 1-3 3l1 9c0 2 2 3 3 1l1-1c3-4 4-8 5-12ZM719 82l11 6c4 2 7 7 5 11l-8-4-18-10c-5-2-8-6-10-10-3-9 2-19 11-21 4-1 9-1 13 1 9 4 11 15 4 22l-4 3-4 2Zm4-13-1-3c-1-6-8-9-13-5-3 2-4 8-2 12s6 6 9 8l1-1c4-3 6-6 6-11ZM800 37l2-17c1-3 1-3 4-3h2c2 0 2 1 2 2l-2 10-4 15-1 1h-7l-2-2-3-17v-1l-3 13-1 6-1 1h-7l-2-1-6-27h7l1 2 3 16 1 2 1-9a328 328 0 0 0 4-11h6l2 2 3 18v1l1-1ZM889 70c0-8 5-13 12-14 4-1 8-1 12 1 7 3 10 11 7 18-2 7-6 11-12 13h-5c-8-1-15-10-14-18Zm24 1v-1c0-3-1-6-4-8-3-1-7-1-10 1l-2 4c-2 6 0 12 4 17 3 3 5 3 8 0 3-4 4-8 4-13ZM888 31V19l2-2 12 1c9 0 13 5 13 14-1 8-6 12-14 13h-11c-1 0-2 0-2-2V31Zm8 0v7l1 2 5-1c2 0 4-2 5-4l-1-8c0-1-1-3-3-3l-6-1-1 1v7ZM810 31c0-5 2-9 6-12 5-3 17-3 21 5 2 5 2 10-1 15-1 3-3 4-5 5-4 2-8 2-12 0-5-1-7-4-8-9l-1-4Zm8 0 1 6c1 2 3 3 5 3 3 0 4-1 5-3 2-4 2-7 0-11-1-2-2-3-4-3-3-1-5 0-6 3l-1 5Z" class="cls-1"/><path d="m752 77-2 4-3 5-3 2c-4 2-7 0-8-3-2-5-2-11 0-16s6-6 11-7l12 1 1 1v23l-1 1h-6l-1-1V77Zm0-9h-7c-2 0-3 2-3 3v8l2 3 4-2 4-12ZM858 31l2 4 3 8 1 2h-7l-1-1-2-7c-1-2-2-3-4-3l-2 1v8c0 1 0 2-2 2h-4l-1-1V17l15 1c5 0 7 4 6 9 0 2-2 3-4 4Zm-10-5q0 3 3 3h1c2 0 3-1 3-3s-1-3-3-3q-4-1-4 3ZM737 45l3-6 7-20 2-2 6 1 2 1 9 25v1h-6c-2 0-3 0-3-2l-2-2h-6l-2 2c-1 2-1 2-4 2h-6Zm15-20-3 10 1 1h4l1-1-1-4-2-6ZM958 82h17c2 0 3 0 2 2v1c-1 3-1 3-3 3h-21l-2-1c-1-3 0-4 2-5l11-8 4-4c2-5-1-9-6-8l-10 1c0-3 2-6 5-7h11c8 2 11 11 5 17-2 3-6 5-10 7l-5 2ZM924 63c1-5 1-6 7-7h8c8 1 11 10 6 16-1 3-4 5-7 6l-7 3-2 1h18c1 0 2 0 2 2-1 4-1 4-5 4h-20c-1 0-2 0-2-2 0-3 0-3 3-4l10-8 4-5c2-4 0-8-5-8l-10 2ZM861 63l2-5 1-1c4-2 9-2 13-1 10 2 9 13 5 17l-11 7-5 2h18c2 0 2 1 2 2l-1 3-2 1h-22l-1-1c-1-3-1-4 2-5l11-8 4-5c1-4-1-8-6-7l-9 1h-1ZM950 27v-8l2-2h5l1 2a791 791 0 0 0 1 18c0 2 2 3 4 3s3-1 4-3V19l2-2h5l1 2v17c0 4-3 7-7 9h-11c-4-2-6-5-6-9v-9h-1ZM978 31V19c0-1 0-2 2-2l10 1h2c5 1 8 4 7 9 0 4-3 7-7 8h-5l-1 2v6c0 2-1 2-2 2h-4c-1 0-2 0-2-2V31Zm8-5v1c0 4 0 3 3 3s4-3 3-5-4-3-6-2v3ZM742 17l-2 6h-9l-2 2v3l2 1h6l-2 6h-5l-1 1v7l-1 2h-6l-2-1V19l1-1 21-1ZM704 18l-2 5h-9l-2 2c0 4 0 4 4 4h4l-2 6h-4c-2 0-2 1-2 2v7l-1 1h-6l-1-1V19l1-2h19l1 1ZM948 24h-2c-2-1-5-2-7-1-4 0-7 4-7 8 0 5 3 8 7 9l7-1 2 1v1c0 4 0 3-3 4-5 1-10 1-14-2-5-2-8-8-7-14s5-10 11-12l12 1 1 1v5ZM847 73l2-5 6-6c2 0 2 0 2 2l1 5-1 1c-4 0-6 2-7 4l-3 12c0 2 0 2-2 2h-4l-2-1V75a382 382 0 0 0 2-12h4l1 1 1 9ZM867 31V19l2-2h4l2 2v19l2 1h8l1 2c0 4 0 4-4 4h-13l-2-1V31ZM715 31v12c0 2 0 2-2 2h-5c-1 0-2 0-2-2V20q0-3 3-3h4q2 0 2 2v12ZM909 72l-3 4h-1l-4-3v-2l4-3h1l3 4Z" class="cls-1"/></g></svg>