<?xml version="1.0" encoding="UTF-8"?><svg id="Capa_1" xmlns="http://www.w3.org/2000/svg" viewBox="0 0 1529.29 214"><defs><style>.cls-1{fill:#00dbf2;}.cls-2{fill:#fff;}.cls-3{fill:#00ce00;}</style></defs><path class="cls-2" d="M310.4,43.75l21.91,51.8,57.77-51.8h29.88l-33.87,97.62h-29.88l17.93-51.8-53.79,47.81h-3.98l-19.92-47.81-17.93,51.8h-29.88l33.87-97.62h27.89Zm227.1,27.89l-23.91,69.73h-29.88l11.95-37.85h-51.8l-13.95,37.85h-29.88l23.91-69.73c3.98-9.96,7.97-15.94,15.94-21.91,7.97-3.98,17.93-5.98,29.88-5.98h41.84c11.95,0,19.92,1.99,23.91,5.98,3.98,5.98,3.98,11.95,1.99,21.91Zm-85.66,9.96h51.8l1.99-7.97v-3.98l-5.98-1.99-7.97-1.99h-17.93l-15.94,3.98c-1.99,1.99-5.98,5.98-5.98,11.95h.01Zm153.4,59.76l-11.95-27.89-31.87,27.89h-35.86l57.77-47.81-21.91-49.8h31.87l13.95,27.89,31.87-27.89h33.87l-55.78,49.8,21.91,47.81h-33.87Zm77.69,0h-29.88l33.87-97.62h29.88l-33.87,97.62Zm77.69-97.62l21.91,51.8,57.77-51.8h27.89l-33.87,97.62h-29.88l17.93-51.8-51.8,47.81h-5.98l-19.92-47.81-17.93,51.8h-29.88l33.87-97.62h29.89Zm207.18,0h29.88l-25.9,69.73c-1.99,9.96-7.97,15.94-13.95,21.91-7.97,3.98-17.93,5.98-29.88,5.98h-43.83c-11.95,0-19.92-1.99-23.91-5.98-3.98-5.98-3.98-11.95,0-21.91l23.91-69.73h29.88l-21.91,59.76v11.95l3.98,3.98h35.86l5.98-3.98,3.98-3.98,3.98-7.97,21.91-59.76h.02Zm131.48,79.69l-13.95,13.95-17.93,3.98h-89.65l7.97-21.91h71.72l3.98-1.99v-1.99h-1.99l-49.8-29.88-5.98-7.97c-1.39-5.38-.6-11.16,1.99-15.94l13.95-13.95,15.94-3.98h91.64l-7.97,21.91h-75.7v5.98l51.8,27.89,1.99,1.99,1.99,3.98,1.99,7.97-1.99,7.97s0,1.99,0,1.99Z"/><path class="cls-3" d="M278.52,199.13h-37.85l-11.95-3.98v-9.96l7.97-19.92c0-3.98,3.98-7.97,5.98-9.96l13.95-3.98h37.85l-3.98,11.95h-31.87l-5.98,1.99-3.98,3.98-3.98,11.95v5.98h21.91l5.98-13.95h13.95l-9.96,25.9h1.96Zm69.73-33.87l-9.96,33.87h-13.95l5.98-17.93h-25.9l-5.98,17.93h-13.95l11.95-33.87,5.98-9.96,13.95-3.98h21.91l9.96,3.98v9.96h0Zm-39.84,3.98h25.9v-3.98l-1.99-1.99h-13.95l-5.98,1.99-3.98,3.98h0Zm65.74-17.93l9.96,25.9,27.89-25.9h13.95l-15.94,47.81h-13.95l7.97-25.9-25.9,23.91h-1.99l-7.97-23.91-9.96,25.9h-13.95l15.94-47.81h13.95Zm55.78,47.81h-13.95l15.94-47.81h15.94l-17.93,47.81Zm77.69-47.81l-15.94,47.81h-13.95l-15.94-27.89-9.96,27.89h-13.95l15.94-47.81h11.95l17.93,27.89,9.96-27.89h13.96Zm43.83,47.81h-35.86l-11.95-3.98v-9.96l5.98-19.92,7.97-9.96,13.95-3.98h35.86l-3.98,11.95h-29.88l-7.97,1.99-3.98,3.98-3.98,11.95v5.98h23.91l3.98-13.95h13.95l-7.97,25.9h-.03Zm61.76-29.88h25.9l5.98-17.93h13.95l-15.94,47.81h-13.95l5.98-17.93h-23.91l-7.97,17.93h-13.95l15.94-47.81h13.95l-5.98,17.93h0Zm101.6-3.98l-11.95,33.87h-13.95l5.98-17.93h-23.91l-5.98,17.93h-13.95l9.96-33.87,7.97-9.96,13.95-3.98h19.92l11.95,3.98v9.96h.01Zm-39.84,3.98h23.91l1.99-1.99-1.99-1.99-1.99-1.99h-11.95l-7.97,1.99-1.99,3.98h-.01Zm79.69,13.95l9.96,15.94h-15.94l-9.96-15.94h-7.97l-5.98,15.94h-13.95l15.94-47.81h35.86l11.95,3.98v13.95l-7.97,9.96-11.95,3.98h0Zm0-19.92h-17.93l-3.98,7.97h23.91l1.99-1.99,1.99-1.99v-3.98h-5.98Zm79.69,1.98l-5.98,19.92-7.97,9.96-13.95,3.98h-35.86l15.94-47.81h35.86l11.95,3.98v9.96h0Zm-19.92-1.98h-17.93l-7.97,23.91h23.91l1.99-3.98,1.99-1.99,3.98-11.95v-3.98l-1.99-1.99h-3.98v-.02Zm75.7,17.93l9.96-29.88h13.95l-9.96,33.87-7.97,9.96-13.95,3.98h-35.86l-9.96-3.98v-9.96l9.96-33.87h13.95l-9.96,29.88v5.98h11.95l11.95-35.86h13.95l-11.95,35.86h11.95l1.99-3.98v-1.99h0Zm79.69-15.95l-9.96,33.87h-13.95l5.98-17.93h-25.9l-5.98,17.93h-13.95l11.95-33.87c0-3.98,3.98-7.97,5.98-9.96l13.95-3.98h19.92l11.95,3.98v9.96h.01Zm-39.84,3.98h25.9v-3.98l-1.99-1.99h-13.95l-5.98,1.99-3.98,3.98h0Zm79.69,13.95l9.96,15.94h-15.94l-9.96-15.94h-7.97l-5.98,15.94h-13.95l15.94-47.81h37.85c5.98,0,7.97,1.99,9.96,3.98l1.99,9.96-1.99,3.98-5.98,9.96-13.95,3.98h.02Zm0-19.91h-17.93l-1.99,7.97h23.91l1.99-1.99v-1.99l1.99-1.99-1.99-1.99h-5.98Zm69.73,35.85h-35.86l-11.95-3.98v-9.96l5.98-19.92,7.97-9.96,13.95-3.98h35.86l-3.98,11.95h-29.88l-7.97,1.99-3.98,3.98h39.84l-3.98,11.95h-37.85l-1.99,1.99v3.98h37.85l-3.98,11.95h-.03Z"/><path class="cls-3" d="M107.2,3.9C50.03,3.9,3.61,50.32,3.61,107.49s46.42,103.59,103.59,103.59,103.59-46.42,103.59-103.59S164.37,3.9,107.2,3.9Zm0,187.26c-46.22,0-83.67-37.45-83.67-83.67S60.98,23.82,107.2,23.82s83.67,37.45,83.67,83.67-37.45,83.67-83.67,83.67h0Z"/><path class="cls-3" d="M143.06,73.63c-1.99,0-3.98,13.95-1.99-3.98,1.99-5.98-1.99-9.96-5.98-11.95-7.97-7.97-23.91-11.95-35.86-9.96-7.97,1.99-17.93,3.98-23.91,11.95l-3.98,9.96c3.98,17.93,0,3.98,0,3.98,0,0-5.98,53.79-3.98,57.77l29.88,23.91,3.98,11.95-1.99-9.96-1.99-49.8-19.92-15.94v-3.98l23.91,13.95,1.99,21.91,3.98,3.98,3.98-3.98,1.99-21.91,23.91-13.95-1.99,3.98-17.93,15.94-1.99,37.85-3.98,21.91,3.98-11.95,31.87-23.91-3.98-57.77h0Zm-41.84-21.91l-13.95,5.98-5.98,7.97v11.95h-1.99c-15.94-19.92,21.91-25.9,23.91-27.89,0,0-1.99,1.99-1.99,1.99Z"/><g><rect class="cls-2" x="1177.03" y="95.11" width="335.23" height="51.36"/><rect class="cls-1" x="1177.03" y="43.75" width="335.23" height="51.36"/><rect class="cls-1" x="1177.03" y="146.48" width="335.23" height="51.36"/></g></svg>