<?xml version="1.0" encoding="UTF-8"?><svg id="Capa_1" xmlns="http://www.w3.org/2000/svg" viewBox="0 0 100 100"><defs><style>.cls-1{fill:#ff8600;}.cls-2{fill:#fff;}.cls-3{fill:#5500b7;}.cls-4{fill:#17e800;}.cls-5{fill:#20ff00;}.cls-6{fill:#6100d1;}.cls-7{fill:#26af00;}.cls-8{fill:#7c00f4;}.cls-9{fill:#17ef00;}.cls-10{fill:#00ef04;}.cls-11{fill:#4a00a0;}.cls-12{fill:#b3b3b3;}.cls-13{fill:#6c00ea;}.cls-14{fill:#139600;}.cls-15{fill:#6400e3;}</style></defs><path class="cls-15" d="M57.74,95.76l-20.51,2.24-1.53,.17h-.02l-16.77,1.83H0v-10.26l.74-.48,.58-.37,4.92-3.18,.44-.28,.42-.28h0l.41-.27,1.5-.97,.27-.18,.26-.17,.2-.13,5.51-3.56,9.22,3.45,.12,.04,3.38,1.26,.3,.12h0l.04,.02,1.74,.66h0l1.02,.38,2.41,.9,.71,.27s0,0,0,0l.39,.14,.86,.32,22.27,8.32Z"/><polygon class="cls-10" points="5.43 98.93 6.74 97.39 9.88 98.59 5.43 98.93"/><polygon class="cls-1" points="12 84.74 10.9 82.01 13.19 80.44 12 84.74"/><polygon class="cls-10" points="21.47 87.67 22.44 87.36 22.78 88.22 21.47 87.67"/><polygon class="cls-10" points="13.65 79.28 12.73 78.21 13.57 78.7 13.65 79.28"/><polygon class="cls-15" points="30.29 89.64 31.17 87.49 29.91 88.44 30.29 89.64"/><polygon class="cls-12" points=".28 77.82 0 78.17 0 77.63 .28 77.82"/><polygon class="cls-12" points="32.26 81.25 32.56 80.98 32.83 81.63 32.26 81.25"/><polygon class="cls-15" points="6.28 76.45 6.05 75.98 6.87 74.94 6.28 76.45"/><polygon class="cls-15" points="18.63 91.76 18.4 91.29 19.22 90.25 18.63 91.76"/><polygon class="cls-10" points="10.45 75 9.88 76.06 10.7 76.39 10.45 75"/><polygon class="cls-10" points="5.13 80.73 5.43 79.6 6.9 81.28 5.13 80.73"/><polygon class="cls-12" points="4.44 83.02 3.64 82.66 4.01 82.48 4.44 83.02"/><polygon class="cls-10" points="40.67 93.91 41.63 93.61 41.97 94.47 40.67 93.91"/><polygon class="cls-12" points="6.01 89.96 7.08 89.54 7.72 89.86 6.01 89.96"/><polygon class="cls-15" points="13.1 93.46 13.16 94.04 14.86 93.55 13.1 93.46"/><polygon class="cls-10" points="3.1 97.84 2.43 100 1.77 100 3.1 97.84"/><polygon class="cls-1" points="40.77 98.08 43.03 97.45 44.88 98.87 40.77 98.08"/><polygon class="cls-15" points="25.16 92.45 23.51 92.71 22.66 91 25.16 92.45"/><polygon class="cls-1" points="29.49 95.85 27.21 97.11 30.38 97.44 29.49 95.85"/><polygon class="cls-12" points="12.26 88.96 11.46 88.6 11.83 88.42 12.26 88.96"/><polygon class="cls-15" points=".29 87.29 1.97 87.9 .99 86.03 .29 87.29"/><g><path class="cls-8" d="M14.89,80.61l-2.35,2.15-.25,.23-.23,.21-.27,.25-.23,.21-.07,.06-1-2.44-.25-.63-.02-.05h-2.02l-.95,2.76-1.19,3.47h2.09l.02-.06,.97-2.82,.23,.52,.21,.48,.19,.44,.52,1.21h.39l.28-.25,.24-.23,2.44-2.17-.18,.51-.17,.49-.12,.33-.53,1.55h2.1l.02-.06,2.11-6.13,.02-.05h-2.02Z"/><path class="cls-8" d="M20.06,80.61c-.79,0-1.42,.16-1.89,.46-.25,.17-.47,.37-.64,.64-.16,.22-.28,.47-.38,.75l-.87,2.53c-.1,.29-.15,.55-.15,.76h0c0,.27,.07,.47,.2,.64,.25,.3,.78,.45,1.59,.45h4.86l.02-.06,.54-1.57h-4.13c-.36,0-.59-.06-.67-.17-.08-.12-.09-.29,0-.53h5.05v-.02l.57-1.6h-5.04c.09-.23,.22-.4,.37-.51,.15-.11,.4-.16,.75-.16h4.14l.54-1.58,.02-.05h-4.87Z"/><path class="cls-8" d="M27.47,80.61c-.42,0-.8,.11-1.14,.31-.34,.22-.63,.49-.85,.84-.03,.02-.05,.06-.07,.1,0,.04-.03,.09-.05,.16-.1,.29-.12,.57-.06,.82,.06,.26,.18,.46,.35,.61l3.04,1.71h.02s0,.03,.02,.03h-4.47l-.57,1.65h5.62c.18,0,.34-.02,.5-.06,.23-.05,.44-.14,.63-.25,.33-.21,.62-.48,.84-.82,.05-.05,.1-.14,.14-.27,.07-.2,.1-.37,.09-.54-.02-.17-.05-.3-.1-.43s-.11-.23-.17-.31-.11-.12-.14-.14l-3.06-1.74s0,0,0,0h4.47l.05-.14,.19-.54,.03-.08,.28-.85,.02-.05h-5.61Z"/></g><g><path class="cls-6" d="M15.29,80.61l-2.89,2.64h0l-.23,.22-.27,.25-.11-.26-.67-1.6-.31-.77-.18-.42-.02-.05h-2.01l-.84,2.44-1.31,3.8h2.1l.02-.06,.79-2.3,.18-.52,.21,.48,.19,.44,.73,1.72h.39l.24-.22,2.15-1.92,.58-.51-.17,.48-.12,.33-.7,2.06h2.1l.02-.06,2.1-6.13,.02-.05h-2.01Z"/><path class="cls-6" d="M20.46,80.61c-.79,0-1.42,.16-1.89,.46-.47,.3-.8,.76-1.02,1.39l-.87,2.53c-.22,.63-.2,1.1,.05,1.4,.25,.3,.78,.45,1.59,.45h4.86l.02-.06,.54-1.57h-4.14c-.35,0-.58-.06-.66-.17-.09-.12-.09-.29,0-.53h5.04v-.02l.58-1.6h-5.04c.09-.23,.22-.4,.36-.51,.16-.11,.41-.16,.76-.16h4.14l.54-1.58,.02-.05h-4.87Z"/><path class="cls-6" d="M27.88,80.61c-.42,0-.8,.11-1.13,.31-.34,.22-.63,.49-.85,.84-.03,.02-.05,.06-.07,.1,0,.04-.03,.09-.05,.16-.1,.29-.12,.57-.06,.82,.06,.26,.18,.46,.34,.61l3.04,1.71h.02s0,.03,.03,.03h-4.47l-.57,1.65h5.62c.2,0,.38-.02,.56-.07,.21-.05,.39-.14,.57-.24,.33-.21,.61-.48,.84-.82,.05-.05,.1-.14,.14-.27,.07-.2,.09-.37,.08-.54s-.04-.3-.09-.43c-.05-.13-.11-.23-.17-.31s-.11-.12-.14-.14l-3.06-1.74s0,0,0,0h4.47l.55-1.6,.02-.05h-5.61Z"/></g><g><path class="cls-3" d="M15.67,80.61l-3.17,2.91-.23,.21-.11-.25-.11-.26-.64-1.56-.31-.76-.1-.23-.02-.05h-2.01l-.72,2.11h0l-1.42,4.12h2.09l.02-.06,.63-1.82,.18-.52,.17-.48,.19,.44,.85,1.96,.11,.24h.37l.07-.05,1.79-1.59,.58-.52,.54-.48-.12,.33-.87,2.54h2.11l.02-.06,2.1-6.13,.02-.05h-2.01Z"/><path class="cls-3" d="M20.84,80.61c-.79,0-1.43,.16-1.89,.46-.47,.3-.81,.76-1.03,1.39l-.87,2.53c-.22,.63-.2,1.1,.06,1.4s.77,.45,1.58,.45h4.87l.02-.06,.54-1.57h-4.14c-.35,0-.58-.06-.66-.17-.09-.12-.09-.29,0-.53h5.04v-.02l.57-1.6h-5.04c.1-.23,.22-.4,.37-.51,.16-.11,.41-.16,.76-.16h4.13l.54-1.58,.02-.05h-4.86Z"/><path class="cls-3" d="M28.26,80.61c-.43,0-.8,.11-1.14,.31-.33,.22-.62,.49-.84,.84-.03,.02-.06,.06-.07,.1-.02,.04-.03,.09-.06,.16-.1,.29-.12,.57-.06,.82,.07,.26,.19,.46,.35,.61l3.04,1.71h.02s0,.03,.02,.03h-4.47l-.57,1.65h5.63c.42,0,.79-.11,1.13-.31,.33-.21,.61-.48,.84-.82,.05-.05,.09-.14,.14-.27,.06-.2,.09-.37,.08-.54s-.04-.3-.09-.43c-.05-.13-.11-.23-.17-.31-.07-.08-.11-.12-.14-.14h-.03l-3.01-1.73h-.02s0,0,0-.02h4.47l.57-1.65h-5.61Z"/></g><g><path class="cls-14" d="M10.35,89.17l-.67,1.92-.15,.42-.18,.51-.14,.39-1.65-2.53-.08-.13-.33-.51-.05-.07h-1.82l-2.14,6.23h2.09l.03-.08,.1-.29,.39-1.13,.6-1.73,.25,.39,.33,.5,.31,.48,.39,.6,.45,.68,.38,.58h1.8l.03-.08,2.1-6.09,.02-.07h-2.08Z"/><path class="cls-14" d="M13.32,89.17l-.02,.07-2.1,6.09-.03,.08h2.07l.03-.08,.5-1.46,.13-.36,1.48-4.27,.02-.07h-2.07Z"/><path class="cls-14" d="M22.73,89.57c-.16-.2-.41-.32-.78-.4-.23-.04-.48-.06-.78-.06h-2.6c-.8,0-1.43,.15-1.9,.46-.11,.07-.21,.15-.3,.24-.27,.25-.5,.6-.65,1.01-.03,.05-.05,.11-.07,.16l-.88,2.56h0v.04l-.61,1.74-.03,.08h2.09l.03-.08,1.3-3.79c.05-.13,.1-.24,.16-.34,.06-.11,.13-.19,.22-.25,.08-.06,.19-.11,.32-.15,.13-.03,.28-.04,.48-.04h1.15c.12,0,.23,0,.32,.02,.05,0,.09,0,.13,.02,.11,.04,.18,.09,.23,.15,.04,.07,.06,.15,.04,.25,0,.1-.04,.22-.09,.34l-1.33,3.86h2.08l.03-.08,1.45-4.19h0l.02-.09,.03-.07c.22-.64,.2-1.11-.05-1.41Zm-1.15-2.23l-.13,.11-.34,.28-.26,.22-.29-.5-.06-.11h-1.29l-2.05,1.64h1.69l.73-.6,.13,.22,.17,.27,.06,.11h1.3l1.16-.93,.24-.2,.52-.41,.14-.11h-1.71Z"/><path class="cls-14" d="M26.58,89.17c-.79,0-1.43,.16-1.89,.46-.33,.22-.61,.51-.8,.89-.09,.14-.15,.29-.22,.46l-.18,.51-.24,.71-.46,1.35c-.09,.26-.14,.5-.14,.69-.02,.29,.05,.53,.2,.7,.24,.3,.77,.45,1.58,.45h4.87l.03-.08,.13-.37,.4-1.17h-4.14c-.36,0-.58-.06-.67-.17-.08-.12-.08-.29,0-.53h5.04v-.03l.57-1.59h-5.04c.1-.23,.22-.4,.37-.51,.16-.11,.41-.16,.75-.16h4.14l.54-1.56,.02-.07h-4.86Z"/><path class="cls-14" d="M38.89,89.49c-.1-.12-.23-.21-.4-.25-.15-.05-.31-.07-.51-.07h-5.61l-.57,1.65h4.47l-.07,.03-4.27,1.73-.03,.03c-.06,.04-.15,.11-.25,.19-.12,.09-.23,.2-.36,.31-.12,.12-.23,.24-.35,.4-.11,.15-.2,.31-.25,.48-.02,.08-.04,.13-.05,.17-.02,.04-.02,.08,0,.11,0,.34,.09,.62,.27,.82,.2,.21,.51,.31,.93,.31h5.62l.03-.08,.54-1.58h-4.45s0,0,.03-.02l4.23-1.71c.27-.16,.54-.36,.78-.61,.24-.25,.41-.53,.51-.83,.05-.14,.06-.23,.05-.25,0-.35-.09-.63-.27-.83Z"/></g><g><path class="cls-7" d="M10.73,89.17l-.79,2.31-.15,.42-.18,.51-.25-.39-1.81-2.78-.05-.07h-1.82l-2.15,6.23h2.09l.03-.08,.11-.32,.49-1.4,.36-1.04,.14-.39,.33,.51,.31,.48,.77,1.17,.29,.46,.4,.61h1.8l.03-.08,2.1-6.09,.02-.07h-2.08Z"/><path class="cls-7" d="M13.7,89.17l-.03,.07-2.11,6.16h2.06l.03-.08,.54-1.58,.08-.23,1.49-4.29,.02-.07h-2.07Z"/><path class="cls-7" d="M23.12,89.57c-.16-.2-.41-.32-.77-.39,0,0,0,0-.02,0-.22-.04-.48-.06-.77-.06h-2.61c-.79,0-1.43,.15-1.89,.46-.47,.3-.81,.77-1.03,1.41l-1.52,4.42h2.09l.03-.08,1.3-3.79c.04-.13,.09-.24,.15-.34,.06-.11,.13-.19,.22-.25,.09-.06,.2-.11,.32-.15,.06,0,.12-.02,.19-.03,.07,0,.14,0,.22,0h1.23c.13,0,.23,0,.32,.02,.05,0,.09,0,.13,.02,.11,.04,.19,.09,.23,.15,.05,.07,.06,.15,.05,.25-.02,.1-.05,.22-.09,.34l-1.33,3.86h2.08l.03-.08,1.28-3.73,.13-.35,.09-.26c.22-.64,.2-1.11-.05-1.41Zm-1.15-2.23l-.31,.26h-.02l-.06,.06-.03,.03-.31,.25-.13-.22-.17-.28-.06-.11h-1.29l-2.06,1.64h1.7l.47-.38,.25-.22,.17,.28,.1,.15,.1,.17h1.29l1.04-.82,.09-.07,.8-.65,.14-.11h-1.7Z"/><path class="cls-7" d="M26.97,89.17c-.79,0-1.42,.16-1.89,.46s-.8,.76-1.02,1.39l-.23,.67-.34,.99-.3,.88c-.22,.64-.2,1.1,.05,1.4,.25,.3,.78,.45,1.59,.45h4.86l.03-.08,.22-.64,.31-.91h-4.13c-.36,0-.59-.06-.67-.17-.08-.12-.09-.29,0-.53h5.04v-.03l.58-1.59h-5.04c.09-.23,.22-.4,.37-.51,.15-.11,.4-.16,.75-.16h4.14l.54-1.56,.02-.07h-4.87Z"/><path class="cls-7" d="M39.55,90.32c0-.35-.08-.63-.26-.83-.09-.1-.21-.18-.34-.23h-.02c-.15-.06-.33-.09-.56-.09h-5.61l-.57,1.65h4.48l-.07,.03-4.28,1.73-.03,.03c-.06,.04-.14,.11-.25,.19-.11,.09-.23,.2-.35,.31s-.24,.24-.35,.4c-.12,.15-.2,.31-.25,.48-.02,.08-.04,.13-.06,.17,0,.04,0,.08,0,.11,0,.34,.09,.62,.28,.82s.5,.31,.92,.31h5.63l.03-.08,.54-1.58h-4.46s.02,0,.03-.02l4.23-1.71c.28-.16,.54-.36,.78-.61,.24-.25,.42-.53,.52-.83,.04-.14,.06-.23,.04-.25Z"/></g><g><path class="cls-4" d="M11.24,89.17l-.97,2.82-.15,.42-.33-.51-.25-.39-1.49-2.27-.05-.07h-1.81l-2.15,6.23h2.09l.03-.08,.13-.36,.41-1.18,.24-.71,.14-.38,.18-.51,.31,.48,1.27,1.94h0l.11,.17,.42,.65h1.8l.03-.08,2.09-6.09h0l.02-.07h-2.08Z"/><path class="cls-4" d="M14.21,89.17l-2.15,6.23h2.07l.03-.08,.6-1.74v-.04l.96-2.72,.55-1.59,.02-.07h-2.07Z"/><path class="cls-4" d="M23.63,89.57c-.07-.08-.15-.15-.24-.21,0,0-.02,0-.04-.02-.29-.16-.71-.23-1.28-.23h-2.61c-.79,0-1.43,.15-1.89,.46-.47,.3-.81,.77-1.03,1.41l-1.53,4.42h2.1l.03-.08,1.3-3.79,.03-.09c.03-.1,.07-.18,.12-.25,.06-.11,.13-.19,.22-.25,.06-.04,.11-.07,.18-.09h0s.09-.04,.14-.06c.13-.03,.29-.04,.48-.04h1.15c.16,0,.27,0,.37,.03,.03,0,.05,0,.08,0,.11,.04,.19,.09,.23,.15,.05,.07,.06,.15,.05,.25-.02,.1-.05,.22-.09,.34l-1.33,3.86h2.08l.03-.08,.62-1.77,.46-1.35,.24-.71,.18-.51c.22-.64,.2-1.11-.05-1.41Zm-1.15-2.23l-.04,.03-.56,.47-.07,.06-.07,.05-.13-.23-.04-.06v-.03l-.13-.19-.06-.11h-1.29l-2.06,1.64h1.7l.13-.11,.25-.21,.34-.28,.09,.16,.26,.44h1.3l1.93-1.54,.14-.11h-1.7Z"/><path class="cls-4" d="M27.47,89.17c-.79,0-1.42,.16-1.89,.46-.47,.3-.8,.76-1.02,1.39l-.31,.91-.24,.7-.31,.92c-.22,.64-.2,1.1,.05,1.4,.25,.3,.78,.45,1.59,.45h4.86l.06-.18h0l.5-1.45h-4.14c-.35,0-.58-.06-.66-.17-.09-.12-.09-.29,0-.53h5.04l.58-1.63h-5.04c.09-.23,.22-.39,.36-.5,.16-.11,.41-.16,.76-.16h4.14l.56-1.62h-4.87Z"/><path class="cls-4" d="M40.06,90.32c0-.35-.08-.63-.26-.83-.19-.22-.49-.32-.92-.32h-5.61l-.02,.07-.55,1.59h4.48l-4.34,1.76-.03,.03c-.06,.04-.15,.11-.25,.19-.11,.09-.23,.2-.35,.31-.13,.12-.24,.24-.35,.4-.12,.15-.2,.31-.25,.48-.02,.08-.04,.13-.06,.17,0,.04,0,.08,0,.11,0,.34,.09,.62,.28,.82,.03,.03,.06,.05,.09,.07,.19,.17,.47,.24,.83,.24h5.63l.57-1.65h-4.46s.02,0,.03-.02l.05-.02,4.18-1.69c.27-.16,.54-.36,.78-.61,.24-.25,.42-.53,.52-.83,.04-.14,.06-.23,.04-.25Z"/></g><g><g><path class="cls-2" d="M15.92,80.66l-3.34,3.06-.08-.21-.11-.23v-.03l-.11-.26-.63-1.51-.31-.75-.03-.08h-1.97l-.61,1.75-1.51,4.37h2.05l.47-1.38,.18-.52,.17-.48,.16-.45,.94,2.18,.11,.25,.08,.17h.37l1.42-1.26,.58-.52,.54-.48,.39-.34-.98,2.83h2.07l.35-1.02h0l1.4-4.06,.36-1.05h-1.98Z"/><path class="cls-11" d="M15.92,80.66l-3.3,3.11-.06,.06c-.11-.28-1.14-2.72-1.32-3.14l.08,.05h-1.97l.09-.05-2.08,6.13-.12-.16h2.05l-.13,.08c.06-.18,1.06-3.13,1.08-3.19,.42,.98,.84,1.98,1.26,2.95l-.12-.07h.37l-.09,.03,2.94-2.59,.32-.28-.14,.4-.99,2.82-.09-.13h2.07l-.08,.07,.36-1.02v.03s0-.03,0-.04l1.81-5.08c.19,.09-1.99-.01-1.95,0h0Zm0,0l1.98-.03h.04v.04s-1.73,5.21-1.72,5.09c0,.01,0,.03,0,.04l-.35,1.02c-.02,.06,0,.06-.08,.06h-2.21l.04-.12,.97-2.83,.18,.12-2.91,2.62-.04,.03h-.05c-.06,0-.41,0-.46,0-.4-.9-.78-1.78-1.17-2.68h.27l-.98,2.81-.03,.09h-2.32l.06-.17,2.14-6.12,.02-.06h2.03c.06,0,.06,0,.08,.06,.14,.34,1.19,2.91,1.24,3.07l-.1-.02,3.38-3.02h0Z"/></g><g><path class="cls-2" d="M20.42,82.41c.16-.11,.4-.16,.74-.16h4.07l.55-1.59h-4.78c-.78,0-1.4,.15-1.86,.45-.46,.29-.79,.75-1,1.37l-.86,2.49c-.21,.63-.2,1.08,.06,1.38,.24,.29,.76,.44,1.55,.44h4.78l.55-1.59h-4.06c-.35,0-.57-.06-.66-.17-.08-.12-.08-.27,0-.5t0-.02h4.95l.56-1.6h-4.95c.09-.23,.22-.38,.36-.49Z"/><path class="cls-11" d="M20.42,82.41c.55-.3,1.74-.12,2.39-.17l2.42-.02c-.1,.13,.53-1.6,.51-1.58l.04,.06-4.74,.03c-.77,0-1.59,.14-2.15,.68-.58,.52-.72,1.34-.99,2.07-.18,.83-1.3,2.58-.1,3.02,.7,.29,5.04,.09,5.86,.15l-.12,.08,.56-1.59,.11,.15-2.38-.02h-1.19c-.39-.05-.82,.1-1.22-.22-.12-.21-.07-.43,0-.6-.06,.09,.06-.04,.07-.04-.04,.02,5.14-.02,4.91,.06l.57-1.6,.03,.05-4.95-.03c.04-.19,.2-.37,.36-.49h0Zm0,0c-.17,.12-.29,.32-.36,.49l4.95-.03h.05l-.02,.05-.55,1.61s0,.03-.04,.03l-4.95,.03s.13-.14,.05,0l.02-.03c-.05,.15-.06,.35,0,.42,.31,.26,1.79,.08,2.27,.12l2.38-.02c.19,0,.17-.05,.11,.15l-.54,1.6c-.03,.08,0,.09-.12,.08-.93-.06-5.14,.18-5.95-.17-1.42-.58-.27-2.35,0-3.32,.28-.72,.43-1.57,1.07-2.14,.62-.57,1.48-.71,2.27-.7l4.74,.03h.06l-.02,.06-.57,1.61s-2.43,0-2.44-.02c-.65,.05-1.84-.15-2.39,.14h0Z"/></g><g><path class="cls-2" d="M28.29,80.66c-.42,0-.79,.1-1.13,.31-.32,.21-.61,.48-.83,.81-.03,.03-.05,.07-.06,.11-.02,.04-.03,.09-.06,.15-.1,.29-.12,.56-.06,.81,.07,.25,.18,.45,.34,.6l3.01,1.69s0,.02,.02,.02h-4.39v.03l-.56,1.59h5.53c.06,0,.12,0,.18,0,.34-.02,.66-.13,.93-.29,.32-.21,.6-.48,.82-.82,.05-.04,.1-.13,.14-.25,.07-.2,.09-.37,.08-.53,0-.17-.04-.31-.09-.43-.05-.13-.11-.23-.17-.3s-.1-.13-.13-.14l-3.01-1.71s0,0,0,0h4.39v-.02l.56-1.6h-5.51Z"/><path class="cls-11" d="M28.29,80.66c-1.31-.08-2.88,1.63-1.77,2.77-.03-.02,3.03,1.67,3.02,1.67l.03,.05s-.02-.05-.04-.04v.11l-4.39,.03,.09-.06-.55,1.63-.1-.14s5.68-.05,5.7-.05c1.14-.04,2.47-1.47,1.54-2.53l-3-1.73h.04s-.11-.05-.1-.09l.03-.09h.06s4.6-.02,4.34,.06c0,.02,.56-1.6,.57-1.61,.32,.14-5.56-.03-5.47,.01h0Zm0,0l5.51-.04h.06l-.02,.06-.54,1.61s-.02,.04-.03,.06c0-.01-4.41,.04-4.43,.03l.09-.09c.02-.07-.15-.1-.03-.07l3.03,1.69c.48,.38,.58,1.43,.22,1.82-.72,1.25-2.02,1.26-3.28,1.19-.91,0-3.34-.03-4.28-.03h-.15l.05-.14,.57-1.62c.02-.07,.01-.06,.09-.06l4.39,.03v.11s-.08-.05-.08-.08c.2,.2-3.01-1.71-2.97-1.67-1.13-1.18,.46-2.9,1.81-2.81h0Z"/></g></g><g><path class="cls-13" d="M38.76,80.86c-.12-.14-.35-.21-.71-.21h-2.22l-.81,2.39h0l-.15,.44h2.21c.36,0,.65-.07,.86-.21,.21-.14,.36-.35,.46-.63l.39-1.15c.1-.28,.09-.5-.02-.64Zm-1.01,.89l-.23,.65c-.02,.06-.05,.11-.07,.16-.03,.04-.06,.08-.1,.11-.04,.03-.09,.05-.15,.07-.06,0-.14,.02-.23,.02h-.93l.47-1.36h.93c.09,0,.16,0,.21,.02,.05,.02,.09,.04,.1,.07,.02,.03,.03,.07,.02,.12,0,.04,0,.1-.03,.16Z"/><path class="cls-13" d="M40.6,81.39h1.88l.25-.73h-2.21c-.36,0-.66,.07-.86,.21-.22,.14-.37,.35-.47,.64l-.39,1.15c-.1,.28-.09,.49,.02,.63,.12,.14,.36,.21,.72,.21h2.21l.25-.73h-1.88c-.17,0-.26-.03-.3-.08-.04-.05-.04-.13,0-.23h2.29l.25-.74h-2.29c.05-.11,.1-.18,.17-.23,.08-.05,.19-.08,.35-.08Z"/></g><g><path class="cls-9" d="M35.52,86.16c-.09,0-.16,0-.21-.02-.05-.02-.08-.04-.1-.07-.02-.03-.03-.07-.02-.11,0-.05,.02-.1,.04-.16l.6-1.74h-.95l-.68,2c-.1,.28-.1,.49,.02,.63,.12,.14,.35,.21,.71,.21h2.22l.24-.73h-1.88Z"/><path class="cls-9" d="M41.3,84.6c0-.1-.04-.19-.08-.26-.04-.09-.1-.15-.16-.2-.07-.06-.16-.08-.25-.08h-1.04c-.1,0-.2,.03-.29,.09-.11,.05-.21,.13-.31,.21-.06,.06-.12,.12-.17,.18-.04,.03-.07,.06-.1,.1-.09,.09-.15,.18-.2,.25l-1.21,2.01h.99l.54-.88h1.21l-.07,.88h.99l.13-1.51,.04-.5c0-.1,0-.19-.02-.28Zm-1.02,.67h-.81c.06-.09,.11-.16,.15-.23,.05-.06,.09-.11,.13-.14,.03-.03,.05-.05,.08-.06h0s.02-.02,.03-.02c.04-.02,.08-.03,.12-.03h.14c.07,0,.12,.04,.15,.11,0,.03,.02,.06,.02,.11,0,.06,0,.15,0,.25Z"/></g><g><g><path class="cls-2" d="M11.63,89.24l-1.1,3.16-.26-.41-.33-.51-.25-.39-1.21-1.85h-1.78l-.19,.53-.06,.17-1.85,5.39h2.04l.14-.4,.34-.99,.14-.39,.14-.38,.18-.51,.17-.49,2.06,3.16h1.76l2.1-6.09h-2.04Z"/><path class="cls-5" d="M11.63,89.24l-1.04,3.18-.03,.11-.06-.09c.07,.05-2.33-3.4-2.02-3.1h-1.78l.09-.06-2.06,6.1-.13-.18h2.04l-.14,.09,1.11-3.15,.09-.24,.14,.22,2.05,3.17-.09-.05h1.76l-.09,.07c.73-1.95,1.4-4.27,2.19-6.02l-2.03-.03h0Zm0,0l2.03-.03c-.49,1.94-1.37,4.13-2.01,6.15l-.02,.06h-1.89s-2.08-3.14-2.11-3.19l.23-.03-1.08,3.17-.03,.1h-2.34l.06-.19,2.13-6.07,.02-.07h1.85c.76,.98,1.41,2.17,2.11,3.23h-.1l1.15-3.13h0Z"/></g><g><path class="cls-2" d="M14.53,89.24l-2.1,6.09h2.03l1.91-5.51,.2-.58h-2.03Z"/><path class="cls-5" d="M14.53,89.24c-.66,2.09-1.29,4.13-1.98,6.13l-.13-.18h2.03l-.14,.08c.71-2.03,1.43-4.05,2.18-6.06l.06,.09-2.03-.07h0Zm0,0l2.03-.07h.09c-.65,2.08-1.36,4.14-2.06,6.2-.04,.1,0,.1-.14,.1-.07,0-2.22-.02-2.21-.01,.73-2.11,1.52-4.2,2.29-6.22h0Z"/></g><g><path class="cls-2" d="M23.74,89.62c-.09-.1-.21-.19-.35-.25,0,0-.02,0-.04-.02-.24-.11-.58-.17-1-.17,0,0,0,0-.02,0h-2.67c-.78,0-1.4,.16-1.85,.45-.46,.3-.79,.76-1,1.38l-1.5,4.32h2.05l1.24-3.61,.06-.17c.04-.13,.09-.24,.15-.34,.02-.04,.04-.07,.07-.1h0c.04-.06,.08-.1,.13-.14,.09-.07,.2-.12,.31-.15,.13-.03,.28-.05,.48-.05h1.13c.07,0,.14,0,.2,0,.03,0,.05,0,.08,0,.06,0,.12,.02,.17,.03,.1,.03,.18,.08,.22,.15,.04,.06,.06,.14,.04,.23,0,.1-.04,.22-.08,.34l-1.3,3.78h2.04l.37-1.08,.66-1.92h0l.27-.79,.19-.54c.06-.17,.1-.33,.12-.48,.07-.38,0-.68-.16-.9Zm-1.14-2.17l-.1,.08-.46,.38-.16,.13-.08-.14-.08-.13-.09-.16-.1-.17h-1.26l-1.93,1.54-.09,.07h1.66l.09-.07,.2-.17,.33-.27,.1-.08,.3,.52,.04,.07h1.27l2.02-1.6h-1.67Z"/><g><path class="cls-5" d="M23.74,89.62c-.36-.38-.91-.42-1.4-.43l-2.72,.02c-1.48-.07-2.6,.83-2.9,2.27-.29,.82-1.01,3.03-1.31,3.89l-.1-.14,2.05-.02-.11,.08c.39-1.05,1.06-3.46,1.54-4.27,.58-.59,1.8-.31,2.44-.33,.29,0,.59,.25,.51,.53-.32,1.22-1.02,2.92-1.42,4.13l-.06-.09,2.03,.02-.05,.03s1.07-3.01,1.05-3c.19-.75,.96-1.94,.44-2.69h0Zm0,0c.53,.74-.22,1.95-.4,2.71,.02-.02-1,3-1,3.01v.03h-.05l-2.03,.02c-.11,0-.1,.02-.06-.09,.23-.69,.81-2.43,1.04-3.09,.05-.34,.57-1.15,.12-1.28-.39-.07-.92-.02-1.38-.03-.43,0-.84,.04-1.04,.38-.43,1.13-1.01,2.92-1.45,4.09l-.03,.08h-.09l-2.05-.02h-.15l.05-.14c.32-.86,1.07-3.04,1.37-3.86,.33-1.47,1.52-2.39,3.03-2.29,.9,0,1.86,0,2.73,.03,.49,0,1.04,.07,1.39,.45h0Z"/><path class="cls-5" d="M22.6,87.45l-.69,.62-.03,.03-.02-.04-.37-.57,.05,.03-1.26,.03c-.36,.4-1.35,1.12-1.93,1.61l-.08-.24h1.66l-.09,.02,.72-.58,.13-.1c.05,.09,.36,.63,.42,.73l-.12-.07h1.27l-.08,.04,2.05-1.56,.04,.12-1.67-.07h0Zm0,0c.1,0,1.81-.07,1.87-.07-.07,.03-2.07,1.79-2.21,1.8h-1.35l-.39-.64,.21,.04-.71,.59-.04,.03h-1.72l-.39-.02,.3-.23c.06-.04,2-1.55,2.07-1.6h.03l1.26,.03s.04,0,.06,.03l.32,.6h-.05l.74-.57h0Z"/></g></g><g><path class="cls-2" d="M27.49,89.24c-.77,0-1.39,.15-1.85,.44-.45,.3-.78,.75-1,1.36l-.31,.93-.23,.65-.3,.9c-.22,.62-.2,1.08,.05,1.37,.24,.29,.76,.44,1.55,.44h4.76l.06-.18,.48-1.37v-.04h-4.04c-.34,0-.56-.06-.65-.17-.08-.11-.08-.27,0-.49,0,0,0-.02,0-.03h4.92l.56-1.59h-4.92c.09-.23,.21-.38,.36-.48,.15-.11,.39-.16,.73-.16h4.05v-.03l.54-1.56h-4.76Z"/><path class="cls-5" d="M27.49,89.24c-1.18-.05-2.41,.51-2.78,1.7-.27,.98-.92,2.36-1.01,3.35,.13,1.37,1.97,.88,2.93,.97l3.52-.02-.09,.06s.54-1.58,.53-1.54v-.04l.11,.13-2.62,.02h-1.31c-.22,0-.45,.02-.7-.08-.3-.11-.3-.5-.2-.74v.04c.06-.17,0-.17,.14-.17,1.64-.02,3.28,.01,4.92,.02l-.11,.08,.57-1.59,.1,.15-4.92-.03c-.11,0-.07,0-.08-.1,.21-.71,1.04-.71,1.61-.68h1.2l2.41,.02c-.14,.18,.54-1.59,.51-1.55,.2,.11-4.76-.02-4.73,0h0Zm0,0c.05,.02,4.75-.04,4.8-.03v.04l-.54,1.59s0,.03-.04,.03c-.8,.01-2.84,.02-3.61,.02-.61-.03-1.28,0-1.46,.56,.01,.03-.08-.07-.08-.07l4.92-.03h.15s-.59,1.66-.6,1.74l-.03,.08c-1.67,0-3.34,.04-5.01,.02l.14-.14c-.05,.18-.12,.46,.04,.48,.35,.14,1.51,.05,1.9,.08l2.62,.02h.13c.01,.05-.57,1.63-.59,1.72l-.02,.06h-.06l-3.52-.02c-.99-.08-2.93,.34-3.02-1.1,.1-1.03,.76-2.36,1.06-3.37,.4-1.19,1.64-1.75,2.83-1.68h0Z"/></g><g><path class="cls-2" d="M39.53,89.54c-.13-.15-.32-.24-.59-.28h-.02c-.09,0-.18-.02-.28-.02h-5.48l-.55,1.59v.03h4.36l-4.24,1.72-.03,.02c-.06,.04-.15,.11-.25,.19-.11,.09-.23,.19-.34,.3-.13,.12-.23,.24-.34,.39-.12,.15-.2,.3-.25,.47-.02,.08-.04,.13-.05,.17,0,.04-.02,.07,0,.1,0,.34,.09,.61,.27,.81,.02,.03,.05,.05,.08,.07,.03,.03,.06,.05,.09,.07,.19,.12,.43,.17,.73,.17h5.49l.55-1.58v-.04h-4.34s.02,0,.03-.02l4.13-1.67c.27-.16,.53-.35,.76-.6,.24-.24,.41-.52,.51-.81,.04-.13,.05-.22,.04-.25,0-.33-.08-.61-.26-.81Z"/><path class="cls-5" d="M39.53,89.54c-.54-.5-1.38-.23-2.05-.29-.91,0-3.38,.03-4.32,.03l.04-.03-.55,1.62-.06-.08,4.37-.03h.46l-.43,.17-4.22,1.75c-.43,.29-1.06,.91-1.2,1.48-.02,1.09,.85,1.04,1.76,1.03,1.01,.01,3.73,.02,4.77,.03l-.09,.07,.56-1.57h0v-.03l.09,.11-4.35-.03s0-.12,0-.11h.02l4.14-1.66c.81-.43,1.8-1.54,1.06-2.45h0Zm0,0c.76,.91-.21,2.04-1.04,2.5l-4.12,1.7s-.03,.02-.05,.02v-.11l4.35-.03c.11,0,.13-.05,.08,.11,0,0-.01,.04-.01,.05l-.54,1.58-.02,.07c-1.1,0-3.78,.03-4.84,.04-.52-.03-1.2,.13-1.64-.27-.31-.2-.5-.91-.32-1.29,.28-.62,.75-1.08,1.31-1.44l4.25-1.69,.03,.17-4.37-.03h-.08l.03-.08,.57-1.61v-.03c.99,.02,3.42,.02,4.37,.03,.67,.07,1.51-.19,2.05,.32h0Z"/></g></g></svg>