<svg xmlns="http://www.w3.org/2000/svg" id="Capa_1_copia" data-name="Capa 1 copia" viewBox="0 0 209.8 205.6"><defs><style>.cls-1{fill:#c40000}.cls-2{fill:#fff}.cls-3{fill:#0f0}</style></defs><path d="M.39 0H209.4v8.83H.39z" class="cls-1"/><path d="M200.86 0h8.94v205.6h-8.94zM-.03-.03h8.94v205.6H-.03z" class="cls-1"/><path d="M.79 196.77H209.8v8.83H.79z" class="cls-1"/><path d="M31.68 173.22 30 176.73a4 4 0 0 1-1.58 1.8 5.27 5.27 0 0 1-2.66.59H22c-1.1 0-1.8-.2-2.1-.59s-.27-1 .11-1.8l1.66-3.51a3.89 3.89 0 0 1 1.58-1.8 5.23 5.23 0 0 1 2.65-.59h3.8c1.1 0 1.8.2 2.1.59s.26.99-.12 1.8Zm-3.93-.5h-1.69a3.25 3.25 0 0 0-.82.08 1.69 1.69 0 0 0-.56.23 1.94 1.94 0 0 0-.41.4 4.14 4.14 0 0 0-.27.57l-1 2a2.62 2.62 0 0 0-.2.57.56.56 0 0 0 0 .39.61.61 0 0 0 .34.24 2.92 2.92 0 0 0 .75.07h1.69a3.72 3.72 0 0 0 .8-.07 1.65 1.65 0 0 0 1-.63 3.74 3.74 0 0 0 .32-.57l.93-2a3 3 0 0 0 .2-.56.53.53 0 0 0 0-.4.55.55 0 0 0-.35-.23 2.41 2.41 0 0 0-.73-.09Z" class="cls-2"/><path d="M25.79 179.37H22c-1.19 0-1.94-.22-2.3-.68s-.34-1.16.09-2.06l1.65-3.52a4.27 4.27 0 0 1 1.68-1.91 5.53 5.53 0 0 1 2.78-.62h3.8c1.19 0 1.94.22 2.3.68s.34 1.17-.09 2.07l-1.65 3.51a4.21 4.21 0 0 1-1.68 1.91 5.5 5.5 0 0 1-2.79.62Zm.1-8.29a5.1 5.1 0 0 0-2.53.55 3.82 3.82 0 0 0-1.48 1.7l-1.65 3.51c-.34.71-.38 1.23-.14 1.54s.64.49 1.9.49h3.8a5.1 5.1 0 0 0 2.53-.55 3.74 3.74 0 0 0 1.48-1.69l1.65-3.52c.34-.71.39-1.23.15-1.54s-.65-.49-1.91-.49Zm-.26 6.4h-1.69a2.9 2.9 0 0 1-.82-.09.78.78 0 0 1-.49-.35.89.89 0 0 1-.06-.57 3.24 3.24 0 0 1 .23-.62l.92-2a3.68 3.68 0 0 1 .35-.59 1.71 1.71 0 0 1 .47-.46 1.83 1.83 0 0 1 .65-.28 4.23 4.23 0 0 1 .87-.08h1.69a2.84 2.84 0 0 1 .8.09.8.8 0 0 1 .5.35.86.86 0 0 1 .06.58 4.64 4.64 0 0 1-.22.61l-.93 2a3.66 3.66 0 0 1-.35.6 2.05 2.05 0 0 1-.47.46 2 2 0 0 1-.65.27 3.7 3.7 0 0 1-.86.08Zm.43-4.51a3.28 3.28 0 0 0-.76.07 1.31 1.31 0 0 0-.48.2 1.37 1.37 0 0 0-.34.34 2.84 2.84 0 0 0-.3.52l-.93 2a2.77 2.77 0 0 0-.19.51.31.31 0 0 0 0 .22.43.43 0 0 0 .2.12 2.71 2.71 0 0 0 .67.06h1.69a3.15 3.15 0 0 0 .74-.07 1.29 1.29 0 0 0 .49-.2 1.33 1.33 0 0 0 .34-.33 2.85 2.85 0 0 0 .31-.53l.92-2a3.27 3.27 0 0 0 .19-.5.44.44 0 0 0 0-.23.36.36 0 0 0-.2-.11 2.28 2.28 0 0 0-.66-.07Z" class="cls-3"/><path d="M32.9 179.12h-2.65l2.77-5.9a4 4 0 0 1 1.58-1.8 5.25 5.25 0 0 1 2.65-.59h6.92l-.89 1.89h-5.86a3.17 3.17 0 0 0-.81.08 1.69 1.69 0 0 0-.56.23 1.56 1.56 0 0 0-.41.4 2.73 2.73 0 0 0-.32.56h7.35l-.88 1.89h-7.37Z" class="cls-2"/><path d="M33.06 179.37h-3.21l2.95-6.26a4.21 4.21 0 0 1 1.68-1.91 5.49 5.49 0 0 1 2.77-.62h7.31L43.44 173h-6a3.18 3.18 0 0 0-.75.07 1.31 1.31 0 0 0-.48.2 1.41 1.41 0 0 0-.35.34 1 1 0 0 0-.11.17h7.34L42 176.14h-7.42Zm-2.42-.5h2.1l1.52-3.23h7.37l.65-1.39h-7.36l.16-.35a3.17 3.17 0 0 1 .36-.61 1.71 1.71 0 0 1 .47-.46 1.78 1.78 0 0 1 .64-.28 4.3 4.3 0 0 1 .87-.08h5.7l.65-1.39h-6.52a5.09 5.09 0 0 0-2.52.55 3.76 3.76 0 0 0-1.48 1.7Z" class="cls-3"/><path d="M51.63 179.12h-6.91c-1.1 0-1.8-.2-2.1-.59s-.27-1 .11-1.8l1.66-3.51a3.89 3.89 0 0 1 1.58-1.8 5.23 5.23 0 0 1 2.65-.59h6.91l-.89 1.89h-5.85a3.25 3.25 0 0 0-.82.08 1.69 1.69 0 0 0-.56.23 1.73 1.73 0 0 0-.41.4 4.14 4.14 0 0 0-.32.56H54l-.89 1.89h-7.32v.07a2.62 2.62 0 0 0-.2.57.56.56 0 0 0 0 .39.61.61 0 0 0 .34.24 2.88 2.88 0 0 0 .74.07h5.86Z" class="cls-2"/><path d="M51.79 179.37h-7.07c-1.19 0-1.94-.22-2.3-.68s-.34-1.16.09-2.06l1.65-3.52a4.27 4.27 0 0 1 1.68-1.91 5.53 5.53 0 0 1 2.78-.62h7.3L54.8 173h-6a3.28 3.28 0 0 0-.8 0 1.31 1.31 0 0 0-.48.2 1.22 1.22 0 0 0-.34.34l-.12.17h7.34l-1.12 2.39H46a2.42 2.42 0 0 0-.16.44.31.31 0 0 0 0 .22.43.43 0 0 0 .2.12 2.68 2.68 0 0 0 .66.06h6.25Zm-3.17-8.29a5.1 5.1 0 0 0-2.53.55 3.82 3.82 0 0 0-1.48 1.7L43 176.84c-.34.71-.38 1.23-.14 1.54s.64.49 1.9.49h6.75l.66-1.39h-5.51a2.87 2.87 0 0 1-.81-.09.78.78 0 0 1-.49-.35.89.89 0 0 1-.06-.57 3.24 3.24 0 0 1 .23-.62l.1-.21H53l.65-1.39h-7.37l.17-.35a3.16 3.16 0 0 1 .35-.61 1.71 1.71 0 0 1 .47-.46 1.83 1.83 0 0 1 .65-.28 4.23 4.23 0 0 1 .87-.08h5.69l.66-1.39Z" class="cls-3"/><path d="m61.62 176.25 1.5 2.87h-3l-1.57-2.86H57l-1.35 2.86H53l3.89-8.29h6.92c1.09 0 1.79.2 2.1.59s.26 1-.12 1.8l-.3.64A4.05 4.05 0 0 1 64 175.6a4.68 4.68 0 0 1-2.38.65Zm.4-3.53h-3.38l-.77 1.64h3.38a2.93 2.93 0 0 0 1.14-.16 1.28 1.28 0 0 0 .57-.65 1.72 1.72 0 0 0 .16-.44.24.24 0 0 0-.07-.25.69.69 0 0 0-.35-.11 6 6 0 0 0-.7-.03Z" class="cls-2"/><path d="M63.53 179.37H60l-1.57-2.86h-1.29l-1.35 2.86h-3.21l4.14-8.79h7.07c1.19 0 1.94.22 2.3.68s.33 1.17-.09 2.07l-.3.64a4.29 4.29 0 0 1-1.54 1.84 4.44 4.44 0 0 1-2.14.66Zm-3.24-.5h2.42l-1.5-2.87h.4a4.47 4.47 0 0 0 2.28-.61 3.87 3.87 0 0 0 1.36-1.64l.3-.64c.33-.71.38-1.23.14-1.54s-.64-.49-1.9-.49H57l-3.66 7.79h2.1l1.38-2.87h1.9Zm1-4.26h-3.81l1-2.14H62a6.62 6.62 0 0 1 .71 0 .88.88 0 0 1 .48.17.49.49 0 0 1 .16.49 2.79 2.79 0 0 1-.18.49 1.48 1.48 0 0 1-.7.77 3 3 0 0 1-1.22.22Zm-3-.5h3a2.69 2.69 0 0 0 1-.14 1 1 0 0 0 .46-.53 1.88 1.88 0 0 0 .14-.38s0-.05-.21-.07L62 173h-3.2Z" class="cls-3"/><path d="m73.63 172.72-3 6.4H68l3-6.4h-3.68l.89-1.89h10l-.89 1.89Z" class="cls-2"/><path d="M70.78 179.37h-3.21l3-6.4h-3.64l1.12-2.39h10.51L77.44 173h-3.65Zm-2.42-.5h2.1l3-6.4h3.65l.65-1.39h-9.4l-.66 1.39h3.66Z" class="cls-3"/><path d="m82.39 179.12.49-2.71h-4.16l-2 2.71H74l4.39-5.92a7.25 7.25 0 0 1 .64-.72 7.42 7.42 0 0 1 .89-.78 6.08 6.08 0 0 1 1-.62 2.12 2.12 0 0 1 .91-.25h3.33a1.1 1.1 0 0 1 .69.22 1.37 1.37 0 0 1 .4.57 2.28 2.28 0 0 1 .15.76 3.7 3.7 0 0 1 0 .82l-1.14 5.92Zm.85-4.6a3.37 3.37 0 0 0 .08-1.4.52.52 0 0 0-.57-.4h-.41a1.44 1.44 0 0 0-.51.09 1.67 1.67 0 0 0-.47.3 5.7 5.7 0 0 0-.54.55l-.7.86Z" class="cls-2"/><path d="M85.35 179.37h-3.26l.49-2.71h-3.74l-2 2.71h-3.38l4.68-6.32a9.33 9.33 0 0 1 .66-.75 9 9 0 0 1 .92-.8 6.55 6.55 0 0 1 1-.64 2.25 2.25 0 0 1 1-.28h3.33a1.32 1.32 0 0 1 .85.28 1.6 1.6 0 0 1 .47.67 2.46 2.46 0 0 1 .17.84 3.69 3.69 0 0 1 0 .88Zm-2.66-.5h2.24l1.1-5.71a3.21 3.21 0 0 0 0-.76 2.35 2.35 0 0 0-.13-.69 1.11 1.11 0 0 0-.33-.46.75.75 0 0 0-.53-.17h-3.29a1.9 1.9 0 0 0-.79.22 6.36 6.36 0 0 0-.94.59 7.91 7.91 0 0 0-.86.76 6.79 6.79 0 0 0-.62.7l-4.09 5.52h2.11l2-2.71h4.59Zm.76-4.1H79.6l.32-.41.71-.86a6.35 6.35 0 0 1 .57-.58 2 2 0 0 1 .54-.34 1.52 1.52 0 0 1 .6-.11h.41a.79.79 0 0 1 .82.59 3.91 3.91 0 0 1-.08 1.51Zm-2.81-.5H83a2.74 2.74 0 0 0 0-1.08c0-.13-.1-.22-.33-.22h-.41a1.07 1.07 0 0 0-.41.07 1.46 1.46 0 0 0-.41.26 5.36 5.36 0 0 0-.51.53c-.03.17-.16.27-.29.44Z" class="cls-3"/><path d="M97.19 177.59a4.21 4.21 0 0 1-1.27 1.11 3.12 3.12 0 0 1-1.59.42h-8l.88-1.89h6.36a.37.37 0 0 0 .37-.18v-.16l-.1-.07-4.25-2.42a1.14 1.14 0 0 1-.38-.76 1.77 1.77 0 0 1 .19-1l.12-.23a4.33 4.33 0 0 1 1.27-1.11 3.15 3.15 0 0 1 1.59-.42h8l-.89 1.89h-6.36a.69.69 0 0 0-.24.05.33.33 0 0 0-.15.13.17.17 0 0 0 0 .13.32.32 0 0 0 .09.08l4.26 2.43a.83.83 0 0 1 .15.18 1.18 1.18 0 0 1 .17.39 1.55 1.55 0 0 1 .06.55 1.81 1.81 0 0 1-.18.68.77.77 0 0 1-.1.2Z" class="cls-2"/><path d="M94.33 179.37h-8.41L87 177h6.57l-4.16-2.36a1.44 1.44 0 0 1-.5-1 2.09 2.09 0 0 1 .21-1.19 1.88 1.88 0 0 1 .16-.29 4.7 4.7 0 0 1 1.37-1.16 3.36 3.36 0 0 1 1.72-.46h8.4L99.64 173H93.1l4.14 2.38c.06 0 .12.08.24.25a1.7 1.7 0 0 1 .2.45 1.91 1.91 0 0 1 .07.65 2 2 0 0 1-.21.77 1.2 1.2 0 0 1-.16.29 4.76 4.76 0 0 1-1.33 1.16 3.42 3.42 0 0 1-1.72.42Zm-7.62-.5h7.62a2.89 2.89 0 0 0 1.47-.39 4.1 4.1 0 0 0 1.2-1s0-.08.08-.16a1.58 1.58 0 0 0 .16-.59 1.36 1.36 0 0 0 0-.47.86.86 0 0 0-.14-.32l-.08-.11-4.24-2.42a.53.53 0 0 1-.16-.13.42.42 0 0 1-.09-.33v-.08a.57.57 0 0 1 .27-.26.89.89 0 0 1 .35-.08h6.2l.65-1.39h-7.63a2.91 2.91 0 0 0-1.47.39 3.94 3.94 0 0 0-1.19 1 1.12 1.12 0 0 0-.09.17 1.6 1.6 0 0 0-.17.9 1 1 0 0 0 .3.62L94 176.6l.13.09a.36.36 0 0 1 .08.46.6.6 0 0 1-.6.33h-6.2Z" class="cls-3"/><path fill="red" d="m20.8 185.09-3.22 6.84H14l3.7-7.87a5.29 5.29 0 0 1 2.1-2.4 7 7 0 0 1 3.54-.78h5.07c1.46 0 2.4.26 2.8.78s.36 1.32-.15 2.4l-3.7 7.87h-3.5l3.21-6.84a4 4 0 0 0 .27-.74.74.74 0 0 0 0-.54.71.71 0 0 0-.46-.31 3.68 3.68 0 0 0-1-.1h-2.27a4.82 4.82 0 0 0-1.09.1 2.32 2.32 0 0 0-.75.31 2 2 0 0 0-.54.54 4 4 0 0 0-.43.74Zm19.43 6.84.66-3.62h-5.55l-2.71 3.62H29l5.83-7.93a10.57 10.57 0 0 1 .86-1 10.82 10.82 0 0 1 1.18-1 9.68 9.68 0 0 1 1.3-.82 2.72 2.72 0 0 1 1.2-.33h4.45a1.39 1.39 0 0 1 .92.3 1.8 1.8 0 0 1 .53.75 3.19 3.19 0 0 1 .2 1 4.92 4.92 0 0 1-.06 1.09l-1.52 7.89Zm1.14-6.13a4.87 4.87 0 0 0 .11-1.86.71.71 0 0 0-.77-.54h-.55a1.85 1.85 0 0 0-.67.12 2.21 2.21 0 0 0-.63.4 8.37 8.37 0 0 0-.72.73l-.94 1.15Zm10.05-1.28a20.1 20.1 0 0 0-.37 3.25 4.84 4.84 0 0 0 .11 1.17c.07.3.18.46.34.46h.18a1.31 1.31 0 0 0 .72-.33 9.07 9.07 0 0 0 1.25-1.26c.54-.62 1.24-1.48 2.11-2.6s2-2.55 3.33-4.33h3.64l-5.9 7.89a8.32 8.32 0 0 1-.9 1 15.75 15.75 0 0 1-1.24 1 9.54 9.54 0 0 1-1.35.82 3 3 0 0 1-1.24.33h-3.3a1.4 1.4 0 0 1-.91-.3 2 2 0 0 1-.6-.75 2.94 2.94 0 0 1-.26-1 4.39 4.39 0 0 1 0-1.09l1.42-7.89h3.66Zm11.24 7.41H59.1l5.2-11.05h3.56Zm18.83-7.87-2.2 4.69a5.25 5.25 0 0 1-2.11 2.4 7 7 0 0 1-3.53.78h-9.22l5.2-11.05h9.21c1.46 0 2.4.26 2.8.78s.36 1.34-.15 2.4Zm-5.24-.66H72l-2.83 6h4.26a4.79 4.79 0 0 0 1.08-.11 2.29 2.29 0 0 0 .76-.31 2.46 2.46 0 0 0 .54-.53 5.13 5.13 0 0 0 .43-.75l1.24-2.63a4 4 0 0 0 .27-.74.79.79 0 0 0 0-.54.71.71 0 0 0-.46-.31 3.63 3.63 0 0 0-1.04-.08Zm16.69 8.53h-9.21c-1.47 0-2.4-.26-2.8-.78s-.36-1.32.15-2.4l2.2-4.69a5.25 5.25 0 0 1 2.11-2.4 7 7 0 0 1 3.53-.78h9.22L97 183.4h-7.8a4.88 4.88 0 0 0-1.09.1 2.32 2.32 0 0 0-.75.31 2 2 0 0 0-.54.54 4 4 0 0 0-.43.74h9.82L95 187.62h-9.85l-.05.1a3.65 3.65 0 0 0-.27.75.72.72 0 0 0 0 .53.69.69 0 0 0 .45.31 3.55 3.55 0 0 0 1 .11h7.8Zm8.55-6.84-3.22 6.84h-3.54l3.7-7.87a5.25 5.25 0 0 1 2.11-2.4 7 7 0 0 1 3.53-.78h5.07c1.46 0 2.4.26 2.8.78s.36 1.32-.15 2.4l-3.7 7.87h-3.54l3.21-6.84a3.4 3.4 0 0 0 .27-.74.74.74 0 0 0 0-.54.71.71 0 0 0-.46-.31 3.68 3.68 0 0 0-1-.1h-2.27a4.82 4.82 0 0 0-1.09.1 2.32 2.32 0 0 0-.75.31 2 2 0 0 0-.54.54 4 4 0 0 0-.43.74Zm7.89-4.93h-2.27l-.63-1.24-1.73 1.24h-2.59l3.63-2.52h2.28l.62 1.24 1.73-1.24H113Zm11.54 11.77.66-3.62H116l-2.71 3.62h-3.64l5.84-7.89a10.57 10.57 0 0 1 .86-1 10.82 10.82 0 0 1 1.18-1 9.68 9.68 0 0 1 1.3-.82 2.72 2.72 0 0 1 1.2-.33h4.45a1.39 1.39 0 0 1 .92.3 1.8 1.8 0 0 1 .53.75 3.19 3.19 0 0 1 .2 1 4.92 4.92 0 0 1-.06 1.09l-1.52 7.89Zm1.14-6.13a4.87 4.87 0 0 0 .11-1.86.71.71 0 0 0-.77-.54h-.55a1.85 1.85 0 0 0-.67.12 2.21 2.21 0 0 0-.63.4 8.37 8.37 0 0 0-.72.73l-.94 1.15Zm18.59 4.09a5.82 5.82 0 0 1-1.69 1.48 4.23 4.23 0 0 1-2.12.56h-10.69l1.19-2.51h8.47a.49.49 0 0 0 .49-.25q.07-.15 0-.21l-.13-.1-5.67-3.22a1.56 1.56 0 0 1-.51-1 2.44 2.44 0 0 1 .26-1.4 1.39 1.39 0 0 1 .16-.3 5.82 5.82 0 0 1 1.69-1.48 4.24 4.24 0 0 1 2.13-.56h10.66l-1.18 2.52h-8.47a.71.71 0 0 0-.32.07.39.39 0 0 0-.2.17.21.21 0 0 0 0 .18.45.45 0 0 0 .13.11l5.68 3.24a.87.87 0 0 1 .19.23 1.93 1.93 0 0 1 .24.52 2.42 2.42 0 0 1 .07.74 2.35 2.35 0 0 1-.25.91 1 1 0 0 1-.13.3Z"/><path d="M209.8 161.28v44.32h-53.51c-7.94-30.08 25.28-57.16 53.51-44.32Z" class="cls-1"/><path fill="#00f502" d="M193.43 177.48c-.13.1-.85 2.74-.2-1 0-4-5.91-4.79-9-4.38-2.3.35-6.14 1.41-5.83 4.38.65 3.75-.07 1.11-.2 1s-1.15 11.19-.84 12.27c.27.91 5 4.05 6.56 5.05l.74 2.34-.27-2a102.84 102.84 0 0 1-.63-10.52c-.32-.37-4.46-3.19-4.32-4.18 5.54 3.14 5.14 1.12 5.58 7.8.07.23.79.84.79.84s.72-.61.79-.84c.43-6.68.07-4.67 5.58-7.8.15 1-4 3.83-4.32 4.18a79.21 79.21 0 0 1-.94 12.55l.73-2.3c1.48-1 6.35-4.17 6.62-5.09.31-1.11-.84-12.3-.84-12.3Zm-8.74-4.82c-2.59.82-5 2.81-4.31 5.75-4.33-3.64 4.07-6 4.75-5.93Z"/></svg>