<svg xmlns="http://www.w3.org/2000/svg" id="Capa_1" data-name="Capa 1" viewBox="0 0 1080 1080"><defs><clipPath id="clip-path"><path fill="none" d="M168.5 970.8h706.7a2.2 2.2 0 0 1 2.1 2.2v80a2.2 2.2 0 0 1-2.1 2.2H170.7a2.2 2.2 0 0 1-2.2-2.2v-82.2Z"/></clipPath><style>.cls-3{fill:#0065ff}.cls-38{fill:#2334d5}.cls-50{fill:#282dcf}.cls-52{fill:#292cce}</style></defs><g clip-path="url(#clip-path)"><path d="m744.6 1055.2 84.8-84.4h5.8a42.2 42.2 0 0 1 42.1 42.2 42.2 42.2 0 0 1-42.1 42.2Z" class="cls-3"/><path d="m735 1055.2 84.8-84.4h9.6l-84.8 84.4H735z" class="cls-3"/><path fill="#0163fd" d="m725.4 1055.2 84.8-84.4h9.6l-84.8 84.4h-9.6z"/><path fill="#0361fc" d="m715.8 1055.2 84.8-84.4h9.6l-84.8 84.4h-9.6z"/><path fill="#045ffa" d="m706.3 1055.2 84.8-84.4h9.5l-84.8 84.4h-9.5z"/><path fill="#055df8" d="m696.7 1055.2 84.8-84.4h9.6l-84.8 84.4h-9.6z"/><path fill="#075cf7" d="m687.1 1055.2 84.8-84.4h9.6l-84.8 84.4h-9.6z"/><path fill="#085af5" d="m677.5 1055.2 84.8-84.4h9.6l-84.8 84.4h-9.6z"/><path fill="#0958f4" d="m667.9 1055.2 84.8-84.4h9.6l-84.8 84.4h-9.6z"/><path fill="#0b56f2" d="m658.4 1055.2 84.8-84.4h9.5l-84.8 84.4h-9.5z"/><path fill="#0c55f1" d="m648.8 1055.2 84.8-84.4h9.6l-84.8 84.4h-9.6z"/><path fill="#0d53ef" d="m639.2 1055.2 84.8-84.4h9.6l-84.8 84.4h-9.6z"/><path fill="#0e51ee" d="m629.6 1055.2 84.8-84.4h9.6l-84.8 84.4h-9.6z"/><path fill="#0f50ed" d="m620 1055.2 84.8-84.4h9.6l-84.8 84.4H620z"/><path fill="#104eeb" d="m610.5 1055.2 84.8-84.4h9.5l-84.8 84.4h-9.5z"/><path fill="#124dea" d="m600.9 1055.2 84.8-84.4h9.6l-84.8 84.4h-9.6z"/><path fill="#134be9" d="m591.3 1055.2 84.8-84.4h9.6l-84.8 84.4h-9.6z"/><path fill="#144ae7" d="m581.7 1055.2 84.8-84.4h9.6l-84.8 84.4h-9.6z"/><path fill="#1548e6" d="m572.1 1055.2 84.8-84.4h9.6l-84.8 84.4h-9.6z"/><path fill="#1647e5" d="m562.5 1055.2 84.9-84.4h9.5l-84.8 84.4h-9.6z"/><path fill="#1745e4" d="m553 1055.2 84.8-84.4h9.6l-84.9 84.4H553z"/><path fill="#1844e3" d="m543.4 1055.2 84.8-84.4h9.6l-84.8 84.4h-9.6z"/><path fill="#1943e2" d="m533.8 1055.2 84.8-84.4h9.6l-84.8 84.4h-9.6z"/><path fill="#1942e1" d="m524.2 1055.2 84.8-84.4h9.6l-84.8 84.4h-9.6z"/><path fill="#1a40e0" d="m514.6 1055.2 84.9-84.4h9.5l-84.8 84.4h-9.6z"/><path fill="#1b3fdf" d="m505.1 1055.2 84.8-84.4h9.6l-84.9 84.4h-9.5z"/><path fill="#1c3ede" d="m495.5 1055.2 84.8-84.4h9.6l-84.8 84.4h-9.6z"/><path fill="#1d3ddd" d="m485.9 1055.2 84.8-84.4h9.6l-84.8 84.4h-9.6z"/><path fill="#1e3cdc" d="m476.3 1055.2 84.8-84.4h9.6l-84.8 84.4h-9.6z"/><path fill="#1e3bdb" d="m466.7 1055.2 84.8-84.4h9.6l-84.8 84.4h-9.6z"/><path fill="#1f3ada" d="m457.2 1055.2 84.8-84.4h9.5l-84.8 84.4h-9.5z"/><path fill="#2039d9" d="m447.6 1055.2 84.8-84.4h9.6l-84.8 84.4h-9.6z"/><path fill="#2038d8" d="m438 1055.2 84.8-84.4h9.6l-84.8 84.4H438z"/><path fill="#2137d7" d="m428.4 1055.2 84.8-84.4h9.6l-84.8 84.4h-9.6z"/><path fill="#2236d7" d="m418.8 1055.2 84.8-84.4h9.6l-84.8 84.4h-9.6z"/><path fill="#2235d6" d="m409.3 1055.2 84.8-84.4h9.5l-84.8 84.4h-9.5z"/><path d="m399.7 1055.2 84.8-84.4h9.6l-84.8 84.4h-9.6z" class="cls-38"/><path d="m390.1 1055.2 84.8-84.4h9.6l-84.8 84.4h-9.6z" class="cls-38"/><path fill="#2433d4" d="m380.5 1055.2 84.8-84.4h9.6l-84.8 84.4h-9.6z"/><path fill="#2432d3" d="m370.9 1055.2 84.9-84.4h9.5l-84.8 84.4h-9.6z"/><path fill="#2532d3" d="m361.4 1055.2 84.8-84.4h9.6l-84.9 84.4h-9.5z"/><path fill="#2531d2" d="m351.8 1055.2 84.8-84.4h9.6l-84.8 84.4h-9.6z"/><path fill="#2630d2" d="m342.2 1055.2 84.8-84.4h9.6l-84.8 84.4h-9.6z"/><path fill="#2630d1" d="m332.6 1055.2 84.8-84.4h9.6l-84.8 84.4h-9.6z"/><path fill="#272fd1" d="m323 1055.2 84.9-84.4h9.5l-84.8 84.4H323z"/><path fill="#272fd0" d="m313.4 1055.2 84.9-84.4h9.6l-84.9 84.4h-9.6z"/><path fill="#272ed0" d="m303.9 1055.2 84.8-84.4h9.6l-84.9 84.4h-9.5z"/><path fill="#282ed0" d="m294.3 1055.2 84.8-84.4h9.6l-84.8 84.4h-9.6z"/><path fill="#282ecf" d="m284.7 1055.2 84.8-84.4h9.6l-84.8 84.4h-9.6z"/><path d="m275.1 1055.2 84.8-84.4h9.6l-84.8 84.4h-9.6z" class="cls-50"/><path d="m265.6 1055.2 84.8-84.4h9.5l-84.8 84.4h-9.5z" class="cls-50"/><path d="m256 1055.2 84.8-84.4h9.6l-84.8 84.4H256z" class="cls-50"/><path fill="#292dce" d="m246.4 1055.2 84.8-84.4h9.6l-84.8 84.4h-9.6z"/><path d="m236.8 1055.2 84.8-84.4h9.6l-84.8 84.4h-9.6z" class="cls-52"/><path d="m227.2 1055.2 84.9-84.4h9.5l-84.8 84.4h-9.6z" class="cls-52"/><path d="m217.7 1055.2 84.8-84.4h9.6l-84.9 84.4h-9.5z" class="cls-52"/><path d="m208.1 1055.2 84.8-84.4h9.6l-84.8 84.4h-9.6z" class="cls-52"/><path d="m198.5 1055.2 84.8-84.4h9.6l-84.8 84.4h-9.6zm84.8-84.4-84.8 84.4a30 30 0 0 1-30-30v-54.4Z" class="cls-52"/></g><path fill="#10d100" d="m142.2 901.8-11.6 33.8q-4 11.7-14 17.4t-28 5.6H47q-18 0-24-5.6t-2-17.4l11.6-33.8q4-11.7 14-17.4t28-5.6h41.7q18 0 24 5.6t1.9 17.4Zm-44-4.8H79.8a42 42 0 0 0-8.7.8 16.7 16.7 0 0 0-5.8 2.2 12.4 12.4 0 0 0-3.7 3.9 23.9 23.9 0 0 0-2.4 5.3l-6.6 19a21 21 0 0 0-1.3 5.4 5.3 5.3 0 0 0 1.1 3.8 7.8 7.8 0 0 0 4.2 2.3 35 35 0 0 0 8.2.8h18.6a42 42 0 0 0 8.6-.8 17.4 17.4 0 0 0 5.8-2.3 12.3 12.3 0 0 0 3.8-3.8 26.4 26.4 0 0 0 2.6-5.4l6.6-19a22.3 22.3 0 0 0 1-5.4 5.3 5.3 0 0 0-1-3.8 7.8 7.8 0 0 0-4.3-2.3 34.5 34.5 0 0 0-8.1-.7Zm67.1 61.6h-29l19.6-56.8q4-11.7 14-17.4t28-5.6h75.6l-6.3 18.2H203a42 42 0 0 0-8.7.8 16.6 16.6 0 0 0-5.8 2.2 12.3 12.3 0 0 0-3.7 3.9 24.8 24.8 0 0 0-2.5 5.4h80.6l-6.2 18.3h-80.6Zm204 0h-75.7q-18 0-24-5.6t-2-17.4l11.5-33.8q4-11.7 14-17.4t28-5.6h75.7l-6.3 18.2h-64.2a42 42 0 0 0-8.7.8 16.7 16.7 0 0 0-5.8 2.2 12.4 12.4 0 0 0-3.7 3.9 23.9 23.9 0 0 0-2.4 5.4h-.1 80.6l-6.2 18.2h-80.6l-.3.7a21 21 0 0 0-1.2 5.4 5.3 5.3 0 0 0 1 3.8 7.8 7.8 0 0 0 4.3 2.3 35 35 0 0 0 8.1.7h64.2Zm124.7 0h-32.5L439 931.1h-17.5l-9.5 27.5h-29l27.5-79.8h75.6q18 0 24 5.6t2.1 17.4l-2 6.2q-4 11.1-12.8 16.8t-25.3 6.2ZM433.3 897l-5.4 15.8h37a62 62 0 0 0 7.2-.3 17.2 17.2 0 0 0 4.9-1.3 7.6 7.6 0 0 0 3-2.4 15 15 0 0 0 2-3.9 12.8 12.8 0 0 0 1-4.1 2.8 2.8 0 0 0-1.2-2.5 9 9 0 0 0-4-1q-2.8-.4-7.4-.3Zm162.9 0L575 958.6h-29.1L567 897h-40l6.4-18.2h109L636 897Zm161.5 4.8L738 958.6h-29l10.8-31.2h-51.7l-10.7 31.2h-29l19.5-56.8q4-11.7 14-17.4t28-5.6h41.7q18 0 24 5.6t2 17.4Zm-83.2 7.4h51.7a22.8 22.8 0 0 0 1-5.4 5.4 5.4 0 0 0-1-3.8 7.8 7.8 0 0 0-4.3-2.3 34.5 34.5 0 0 0-8.1-.8h-18.6a42 42 0 0 0-8.7.8 16.6 16.6 0 0 0-5.8 2.3 12.4 12.4 0 0 0-3.7 3.8 24.8 24.8 0 0 0-2.5 5.4ZM868 943.9a36 36 0 0 1-11.9 10.7 33.7 33.7 0 0 1-16.7 4h-87.6l6.2-18.2h69.5c2.2 0 3.4-.6 3.8-1.8.3-.7.2-1.2-.2-1.5a5.6 5.6 0 0 0-1.3-.8l-51-23.1a10.4 10.4 0 0 1-6.2-7.2 17.7 17.7 0 0 1 .8-10.3 15.2 15.2 0 0 1 1-2.2 35.8 35.8 0 0 1 11.9-10.6 33.5 33.5 0 0 1 16.7-4.1h87.5l-6.4 18.2h-69.6a5.6 5.6 0 0 0-2.5.6 2.6 2.6 0 0 0-1.3 1.2l-.2.1a2.6 2.6 0 0 0 1.8 2.2l51.2 23.3a13.4 13.4 0 0 1 3.2 2.3 10.5 10.5 0 0 1 2.4 3.6 14.7 14.7 0 0 1 1 5 18.3 18.3 0 0 1-1.2 6.4 7.1 7.1 0 0 1-.9 2.2Z"/><path fill="#fff" d="m326 1003.8-6.7 21.9q-2.2 7.5-8 11.2t-16 3.7h-43.6l15.8-51.7H311q10.4 0 13.8 3.7t1.2 11.2Zm-25.3-3.1h-20.1l-8.7 28.1h20.2a21.2 21.2 0 0 0 5-.5 9.6 9.6 0 0 0 3.3-1.5 7.8 7.8 0 0 0 2.2-2.4 18.6 18.6 0 0 0 1.5-3.5l3.8-12.3a15.8 15.8 0 0 0 .6-3.5 3.8 3.8 0 0 0-.6-2.5 4.3 4.3 0 0 0-2.5-1.4 17.7 17.7 0 0 0-4.7-.5Zm85 39.8H342c-6.9 0-11.5-1.2-13.8-3.6s-2.7-6.2-1.1-11.2l6.6-22q2.3-7.5 8-11.1t16.2-3.7h43.5l-3.6 11.8H361a21.6 21.6 0 0 0-5 .5 9 9 0 0 0-3.3 1.4 7.7 7.7 0 0 0-2.2 2.5 16.4 16.4 0 0 0-1.3 3.5h-.1 46.3l-3.6 11.8h-46.4l-.1.5a15.6 15.6 0 0 0-.7 3.5 3.7 3.7 0 0 0 .6 2.4 4.3 4.3 0 0 0 2.4 1.5 17.7 17.7 0 0 0 4.7.5h37Zm107.9 0h-18.7l-12.9-17.8h-10l-5.5 17.8h-16.7l15.8-51.6H489q10.4 0 13.8 3.7t1.2 11.2l-1.1 4q-2.3 7.2-7.3 10.9t-14.6 4Zm-35-39.8-3 10.2h21.2a31.4 31.4 0 0 0 4.2-.2 8.9 8.9 0 0 0 2.8-.8 4.4 4.4 0 0 0 1.8-1.6 10 10 0 0 0 1-2.5 9.2 9.2 0 0 0 .6-2.6 1.9 1.9 0 0 0-.7-1.6 4.6 4.6 0 0 0-2.3-.7 39.9 39.9 0 0 0-4.3-.2Zm104.9 39.8H520c-7 0-11.5-1.2-13.8-3.6s-2.7-6.2-1.2-11.2l6.7-22q2.3-7.5 8-11.1t16.1-3.7h43.5l-3.6 11.8h-36.9a21.6 21.6 0 0 0-5 .5 9 9 0 0 0-3.3 1.4 7.7 7.7 0 0 0-2.1 2.5 16.4 16.4 0 0 0-1.4 3.5h46.3l-3.6 11.8h-46.4l-.1.5a15.6 15.6 0 0 0-.8 3.5 3.7 3.7 0 0 0 .7 2.4 4.3 4.3 0 0 0 2.4 1.5 17.7 17.7 0 0 0 4.7.5h36.9Zm70.1-51.5h16.7l-5.9 19q-2.3 7.5-8 11.1t-16 3.7h-3.7l-5.4 17.8h-16.7l5.4-17.8h-3.6c-7 0-11.6-1.2-14-3.7s-2.6-6.1-1-11.2l5.8-19h16.7l-4.4 14.2a15 15 0 0 0-.7 3.5 3.7 3.7 0 0 0 .7 2.4 4.3 4.3 0 0 0 2.4 1.5 18.2 18.2 0 0 0 4.7.5h10.7a21.8 21.8 0 0 0 5-.5 9.4 9.4 0 0 0 3.3-1.5 7.5 7.5 0 0 0 2.2-2.4 18 18 0 0 0 1.5-3.5Zm71.8 51.5h-43.6c-6.9 0-11.5-1.2-13.8-3.6s-2.7-6.2-1.1-11.2l6.6-22q2.3-7.5 8-11.1t16.1-3.7h43.6l-3.6 11.8h-37a21.6 21.6 0 0 0-5 .5 8.8 8.8 0 0 0-3.2 1.4 7.5 7.5 0 0 0-2.2 2.5 16.4 16.4 0 0 0-1.4 3.5H715l-3.5 11.8h-46.4l-.2.5a15 15 0 0 0-.7 3.5 3.7 3.7 0 0 0 .6 2.4 4.3 4.3 0 0 0 2.4 1.5 17.6 17.6 0 0 0 4.7.5h37Zm74.6-9.5a21.7 21.7 0 0 1-6.7 6.9 17.7 17.7 0 0 1-9.7 2.6h-50.4l3.6-11.7h40c1.2 0 2-.4 2.2-1.2.2-.4.1-.8-.1-1a2.8 2.8 0 0 0-.8-.5l-29.3-15a6.6 6.6 0 0 1-3.6-4.6 12.8 12.8 0 0 1 .5-6.7 10.7 10.7 0 0 1 .5-1.4 21.9 21.9 0 0 1 6.9-6.9 17.7 17.7 0 0 1 9.6-2.6H793l-3.6 11.7h-40.1a2.9 2.9 0 0 0-1.4.4 1.6 1.6 0 0 0-.8.8h-.1a1.7 1.7 0 0 0 1 1.5l29.4 15a7.8 7.8 0 0 1 1.9 1.5 6.7 6.7 0 0 1 1.3 2.3 10.1 10.1 0 0 1 .6 3.3 13.3 13.3 0 0 1-.7 4.1 5.3 5.3 0 0 1-.4 1.5Zm21.7 9.5H785l3.6-11.7h16.7Zm5.4-17.5h-16.7l10.4-34h16.7Z"/></svg>