<svg xmlns="http://www.w3.org/2000/svg" viewBox="0 0 75.95 15.38"><defs><clipPath id="clip-path"><path fill="none" d="M13 8h58.13a3.68 3.68 0 0 1 3.68 3.68 3.68 3.68 0 0 1-3.68 3.68H16.68A3.68 3.68 0 0 1 13 11.7V8Z"/></clipPath><style>.cls-3{fill:#0065ff}.cls-38{fill:#2334d5}.cls-52{fill:#292cce}</style></defs><g id="Capa_2" data-name="Capa 2"><g id="Capa_1-2" data-name="Capa 1"><g clip-path="url(#clip-path)"><path d="m63.23 15.38 7.4-7.35h4.18v7.35H63.23z" class="cls-3"/><path d="m62.4 15.38 7.39-7.35h.84l-7.4 7.35h-.83z" class="cls-3"/><path fill="#0163fd" d="m61.56 15.38 7.4-7.35h.83l-7.39 7.35h-.84z"/><path fill="#0361fc" d="m60.73 15.38 7.39-7.35h.84l-7.4 7.35h-.83z"/><path fill="#045ffa" d="m59.89 15.38 7.4-7.35h.83l-7.39 7.35h-.84z"/><path fill="#055df8" d="m59.06 15.38 7.39-7.35h.84l-7.4 7.35h-.83z"/><path fill="#075cf7" d="m58.22 15.38 7.4-7.35h.83l-7.39 7.35h-.84z"/><path fill="#085af5" d="m57.39 15.38 7.39-7.35h.84l-7.4 7.35h-.83z"/><path fill="#0958f4" d="m56.55 15.38 7.4-7.35h.83l-7.39 7.35h-.84z"/><path fill="#0b56f2" d="m55.72 15.38 7.39-7.35h.84l-7.4 7.35h-.83z"/><path fill="#0c55f1" d="m54.88 15.38 7.39-7.35h.84l-7.39 7.35h-.84z"/><path fill="#0d53ef" d="m54.05 15.38 7.39-7.35h.83l-7.39 7.35h-.83z"/><path fill="#0e51ee" d="m53.21 15.38 7.39-7.35h.84l-7.39 7.35h-.84z"/><path fill="#0f50ed" d="m52.37 15.38 7.4-7.35h.83l-7.39 7.35h-.84z"/><path fill="#104eeb" d="m51.54 15.38 7.39-7.35h.84l-7.4 7.35h-.83z"/><path fill="#124dea" d="m50.7 15.38 7.4-7.35h.83l-7.39 7.35h-.84z"/><path fill="#134be9" d="m49.87 15.38 7.39-7.35h.84l-7.4 7.35h-.83z"/><path fill="#144ae7" d="m49.03 15.38 7.4-7.35h.83l-7.39 7.35h-.84z"/><path fill="#1548e6" d="m48.2 15.38 7.39-7.35h.84l-7.4 7.35h-.83z"/><path fill="#1647e5" d="m47.36 15.38 7.4-7.35h.83l-7.39 7.35h-.84z"/><path fill="#1745e4" d="m46.53 15.38 7.39-7.35h.84l-7.4 7.35h-.83z"/><path fill="#1844e3" d="m45.69 15.38 7.4-7.35h.83l-7.39 7.35h-.84z"/><path fill="#1943e2" d="m44.86 15.38 7.39-7.35h.84l-7.4 7.35h-.83z"/><path fill="#1942e1" d="m44.02 15.38 7.4-7.35h.83l-7.39 7.35h-.84z"/><path fill="#1a40e0" d="m43.19 15.38 7.39-7.35h.84l-7.4 7.35h-.83z"/><path fill="#1b3fdf" d="m42.35 15.38 7.39-7.35h.84l-7.39 7.35h-.84z"/><path fill="#1c3ede" d="m41.52 15.38 7.39-7.35h.83l-7.39 7.35h-.83z"/><path fill="#1d3ddd" d="m40.68 15.38 7.39-7.35h.84l-7.39 7.35h-.84z"/><path fill="#1e3cdc" d="m39.84 15.38 7.4-7.35h.83l-7.39 7.35h-.84z"/><path fill="#1e3bdb" d="m39.01 15.38 7.39-7.35h.84l-7.4 7.35h-.83z"/><path fill="#1f3ada" d="m38.17 15.38 7.4-7.35h.83l-7.39 7.35h-.84z"/><path fill="#2039d9" d="m37.34 15.38 7.39-7.35h.84l-7.4 7.35h-.83z"/><path fill="#2038d8" d="m36.5 15.38 7.4-7.35h.83l-7.39 7.35h-.84z"/><path fill="#2137d7" d="m35.67 15.38 7.39-7.35h.84l-7.4 7.35h-.83z"/><path fill="#2236d7" d="m34.83 15.38 7.4-7.35h.83l-7.39 7.35h-.84z"/><path fill="#2235d6" d="m34 15.38 7.39-7.35h.84l-7.4 7.35H34z"/><path d="m33.16 15.38 7.4-7.35h.83L34 15.38h-.84z" class="cls-38"/><path d="m32.33 15.38 7.39-7.35h.84l-7.4 7.35h-.83z" class="cls-38"/><path fill="#2433d4" d="m31.49 15.38 7.4-7.35h.83l-7.39 7.35h-.84z"/><path fill="#2432d3" d="m30.66 15.38 7.39-7.35h.84l-7.4 7.35h-.83z"/><path fill="#2532d3" d="m29.82 15.38 7.4-7.35h.83l-7.39 7.35h-.84z"/><path fill="#2531d2" d="m28.98 15.38 7.4-7.35h.84l-7.4 7.35h-.84z"/><path fill="#2630d2" d="m28.15 15.38 7.39-7.35h.84l-7.4 7.35h-.83z"/><path fill="#2630d1" d="m27.31 15.38 7.4-7.35h.83l-7.39 7.35h-.84z"/><path fill="#272fd1" d="m26.48 15.38 7.39-7.35h.84l-7.4 7.35h-.83z"/><path fill="#272fd0" d="m25.64 15.38 7.4-7.35h.83l-7.39 7.35h-.84z"/><path fill="#272ed0" d="m24.81 15.38 7.39-7.35h.84l-7.4 7.35h-.83z"/><path fill="#282ed0" d="m23.97 15.38 7.4-7.35h.83l-7.39 7.35h-.84z"/><path fill="#282ecf" d="m23.14 15.38 7.39-7.35h.84l-7.4 7.35h-.83z"/><path fill="#282dcf" d="m22.3 15.38 7.4-7.35h.83l-7.39 7.35h-.84zm-.83 0 7.39-7.35h.84l-7.4 7.35h-.83zm-.84 0 7.4-7.35h.83l-7.39 7.35h-.84z"/><path fill="#292dce" d="m19.8 15.38 7.39-7.35h.84l-7.4 7.35h-.83z"/><path d="m18.96 15.38 7.4-7.35h.83l-7.39 7.35h-.84z" class="cls-52"/><path d="m18.13 15.38 7.39-7.35h.84l-7.4 7.35h-.83z" class="cls-52"/><path d="m17.29 15.38 7.39-7.35h.84l-7.39 7.35h-.84z" class="cls-52"/><path d="m16.45 15.38 7.4-7.35h.83l-7.39 7.35h-.84zm-.83 0 7.4-7.35h.83l-7.4 7.35h-.83z" class="cls-52"/><path d="m23.02 8.03-7.4 7.35H13V8.03h10.02z" class="cls-52"/></g><path fill="#10d100" d="m10.71 2-1 3a2.63 2.63 0 0 1-1.22 1.47A5 5 0 0 1 6 7H2.41a3.18 3.18 0 0 1-2.1-.49A1.36 1.36 0 0 1 .14 5l1-3A2.61 2.61 0 0 1 2.37.49 5 5 0 0 1 4.81 0h3.63a3.18 3.18 0 0 1 2.1.49A1.35 1.35 0 0 1 10.71 2Zm-3.83-.42H5.26a4 4 0 0 0-.76.07 1.34 1.34 0 0 0-.5.2 1.29 1.29 0 0 0-.33.33 2.9 2.9 0 0 0-.21.47l-.57 1.66a1.65 1.65 0 0 0-.11.47.42.42 0 0 0 .1.33.62.62 0 0 0 .36.2 3.21 3.21 0 0 0 .76.07h1.58a4 4 0 0 0 .75-.07 1.47 1.47 0 0 0 .51-.2 1.29 1.29 0 0 0 .33-.33 3 3 0 0 0 .22-.47L8 2.65a1.81 1.81 0 0 0 .1-.47.42.42 0 0 0-.1-.33.62.62 0 0 0-.37-.2 3.18 3.18 0 0 0-.75-.07ZM12.73 7H10.2l1.7-5A2.64 2.64 0 0 1 13.12.49 5 5 0 0 1 15.56 0h6.6l-.55 1.58H16a4 4 0 0 0-.77.07 1.34 1.34 0 0 0-.5.2 1.12 1.12 0 0 0-.32.33 1.82 1.82 0 0 0-.21.47h7l-.5 1.6h-7Zm17.78 0h-6.6a3.15 3.15 0 0 1-2.09-.49A1.34 1.34 0 0 1 21.64 5l1-3A2.64 2.64 0 0 1 23.87.49 5 5 0 0 1 26.31 0h6.6l-.55 1.58h-5.59a3.86 3.86 0 0 0-.76.07 1.33 1.33 0 0 0-.51.2 1.12 1.12 0 0 0-.32.33 1.82 1.82 0 0 0-.21.47h7l-.54 1.59h-7v.06a2.07 2.07 0 0 0-.11.47.52.52 0 0 0 .1.33.62.62 0 0 0 .37.2 3.18 3.18 0 0 0 .71.07h5.59Zm10.87 0h-2.83L36.6 4.56h-1.53L34.24 7h-2.53l2.4-7h6.59a3.18 3.18 0 0 1 2.1.49A1.34 1.34 0 0 1 43 2l-.18.54A2.73 2.73 0 0 1 41.7 4a4.37 4.37 0 0 1-2.21.54Zm-5.29-5.42L35.62 3h3.23a5.22 5.22 0 0 0 .62 0 1.6 1.6 0 0 0 .43-.1.75.75 0 0 0 .27-.21 1.2 1.2 0 0 0 .17-.34 1.25 1.25 0 0 0 .08-.36.25.25 0 0 0-.1-.22.88.88 0 0 0-.32-.16 5.55 5.55 0 0 0-.65 0Zm14.21 0L48.45 7h-2.54l1.85-5.38h-3.48L44.83 0h9.5l-.55 1.58ZM64.38 2l-1.71 5h-2.53l.94-2.72h-4.5L55.64 7h-2.53l1.7-5A2.64 2.64 0 0 1 56 .49 5 5 0 0 1 58.47 0h3.64a3.15 3.15 0 0 1 2.09.49A1.34 1.34 0 0 1 64.38 2Zm-7.25.65h4.5a1.76 1.76 0 0 0 .09-.47.46.46 0 0 0-.09-.33.65.65 0 0 0-.37-.2 3.32 3.32 0 0 0-.71-.07h-1.62a3.86 3.86 0 0 0-.76.07 1.33 1.33 0 0 0-.51.2 1.12 1.12 0 0 0-.32.33 1.82 1.82 0 0 0-.21.47ZM74 5.68a3.21 3.21 0 0 1-1 .93 3 3 0 0 1-1.5.39h-7.64l.54-1.58h6.06c.19 0 .3-.06.34-.16a.13.13 0 0 0 0-.14.34.34 0 0 0-.14-.12l-4.44-2a.91.91 0 0 1-.54-.63 1.53 1.53 0 0 1 .06-.89 1.56 1.56 0 0 1 .09-.2 3.21 3.21 0 0 1 1-.93A3 3 0 0 1 68.32 0H76l-.6 1.58h-6.07a.46.46 0 0 0-.21 0 .19.19 0 0 0-.12.11.23.23 0 0 0 .16.19L73.6 4a1.31 1.31 0 0 1 .28.2.81.81 0 0 1 .21.32 1.19 1.19 0 0 1 .08.44 1.46 1.46 0 0 1-.1.55.56.56 0 0 1-.07.17Z"/><path fill="#fff" d="m26.74 10.9-.58 1.91a1.76 1.76 0 0 1-.7 1 2.68 2.68 0 0 1-1.41.31h-3.79l1.38-4.5h3.79a1.7 1.7 0 0 1 1.21.32 1 1 0 0 1 .1.96Zm-2.21-.27h-1.76L22 13.08h1.76a1.74 1.74 0 0 0 .43 0 .83.83 0 0 0 .3-.13 1 1 0 0 0 .19-.21 1.83 1.83 0 0 0 .12-.31l.34-1.07a1.33 1.33 0 0 0 .05-.3.3.3 0 0 0-.05-.22.43.43 0 0 0-.22-.13 1.53 1.53 0 0 0-.39-.08Zm7.41 3.47h-3.8a1.68 1.68 0 0 1-1.2-.31 1 1 0 0 1-.1-1l.58-1.91a1.68 1.68 0 0 1 .7-1 2.61 2.61 0 0 1 1.4-.32h3.8l-.32 1h-3.21a1.83 1.83 0 0 0-.44 0 .71.71 0 0 0-.29.13.59.59 0 0 0-.19.22 1 1 0 0 0-.12.3h4l-.31 1h-4a1 1 0 0 0-.06.31.3.3 0 0 0 .05.21.36.36 0 0 0 .21.13 1.53 1.53 0 0 0 .41 0h3.22Zm9.41 0h-1.63l-1.13-1.55h-.87l-.48 1.55h-1.46l1.38-4.5H41a1.69 1.69 0 0 1 1.21.32 1 1 0 0 1 .1 1l-.1.35a1.75 1.75 0 0 1-.63.94 2.26 2.26 0 0 1-1.27.35Zm-3.05-3.47-.27.89h2.22a.68.68 0 0 0 .24-.07.36.36 0 0 0 .16-.14.69.69 0 0 0 .1-.21.85.85 0 0 0 0-.24.18.18 0 0 0-.06-.14.43.43 0 0 0-.2-.06H38.3Zm9.15 3.47h-3.8a1.68 1.68 0 0 1-1.2-.31 1 1 0 0 1-.1-1l.58-1.91a1.64 1.64 0 0 1 .7-1A2.61 2.61 0 0 1 45 9.6h3.8l-.32 1h-3.19a1.74 1.74 0 0 0-.43 0 .71.71 0 0 0-.29.13.59.59 0 0 0-.19.22 1 1 0 0 0-.12.3h4l-.31 1h-4.01a1 1 0 0 0-.06.31.3.3 0 0 0 .05.21.36.36 0 0 0 .21.13 1.53 1.53 0 0 0 .41 0h3.22Zm6.11-4.5H55l-.51 1.66a1.62 1.62 0 0 1-.7 1 2.5 2.5 0 0 1-1.4.32h-.31l-.48 1.55h-1.45l.48-1.55h-.32a1.64 1.64 0 0 1-1.21-.32 1 1 0 0 1-.1-1l.51-1.66H51l-.38 1.24a1 1 0 0 0-.06.3.32.32 0 0 0 0 .22.36.36 0 0 0 .21.12 1.47 1.47 0 0 0 .41 0h.93a1.69 1.69 0 0 0 .43 0 .82.82 0 0 0 .3-.12.67.67 0 0 0 .19-.22 1.42 1.42 0 0 0 .13-.3Zm6.26 4.5H56a1.71 1.71 0 0 1-1.21-.31 1 1 0 0 1-.1-1l.58-1.91a1.73 1.73 0 0 1 .7-1 2.68 2.68 0 0 1 1.43-.28h3.8l-.32 1h-3.22a1.89 1.89 0 0 0-.44 0 .86.86 0 0 0-.29.13.67.67 0 0 0-.18.22 1 1 0 0 0-.12.3h4l-.31 1h-4a1.48 1.48 0 0 0-.07.31.37.37 0 0 0 .06.21.36.36 0 0 0 .21.13 1.48 1.48 0 0 0 .41 0h3.22Zm6.51-.83a2.05 2.05 0 0 1-.6.61 1.55 1.55 0 0 1-.84.22H60.5l.31-1h3.48c.11 0 .18 0 .2-.1s0-.07 0-.09h-.07l-2.55-1.31a.56.56 0 0 1-.32-.4 1.16 1.16 0 0 1 0-.58l.05-.13a1.91 1.91 0 0 1 .6-.6 1.55 1.55 0 0 1 .84-.23h4.38l-.31 1h-3.46a.28.28 0 0 0-.13 0 .12.12 0 0 0-.07.07.12.12 0 0 0 .08.12l2.57 1.31a.65.65 0 0 1 .16.13.53.53 0 0 1 .12.21.78.78 0 0 1 .05.28 1.23 1.23 0 0 1-.06.36.49.49 0 0 1-.04.13Zm1.88.83h-1.45l.31-1h1.45Zm.47-1.52h-1.45l.91-3h1.45Z"/></g></g></svg>