<?xml version="1.0" encoding="utf-8"?>
<!-- Generator: Adobe Illustrator 27.8.1, SVG Export Plug-In . SVG Version: 6.00 Build 0)  -->
<svg version="1.1" id="Capa_1" xmlns="http://www.w3.org/2000/svg" xmlns:xlink="http://www.w3.org/1999/xlink" x="0px" y="0px"
	 viewBox="0 0 1046 381" style="enable-background:new 0 0 1046 381;" xml:space="preserve">
<style type="text/css">
	.st0{fill:#14A52E;stroke:#14A52E;stroke-miterlimit:10;}
	.st1{fill:none;stroke:#5B2197;stroke-width:2;stroke-miterlimit:10;}
	.st2{fill:#1A1A1A;}
	.st3{fill:#FFFFFF;}
</style>
<g>
	<path class="st0" d="M1012.3,69.9l-414.1,0.2c-6.5,0-12.7-4.3-16.5-11.7l-6-11.3c-3.5-6.7-9.1-10.6-15-10.6L32.8,37.2
		c-5.2,0-9.4,5.9-9.4,13.1l0.1,174.4c0,4.4,1.6,8.5,4.2,11L46.5,253c3.7,3.4,3.7,10.8,0,14.2l-14.6,13.5c-5.2,4.8-8.3,12.9-8.3,21.7
		l0,57.5c0,9.5,5.6,17.3,12.4,17.3l886.9-0.9c4.4,0,8.7-2.2,12.1-6.2l89.6-106.3c4.2-4.9,6.6-12.2,6.5-19.8l-0.1-148.1
		C1030.9,81.6,1022.6,69.9,1012.3,69.9z"/>
	<path class="st1" d="M999.9,57.6l-414.1,0.2c-6.5,0-12.7-4.3-16.5-11.7l-6-11.3c-3.5-6.7-9.1-10.6-15-10.6L20.4,24.9
		c-5.2,0-9.4,5.9-9.4,13.1l0.1,174.4c0,4.4,1.6,8.5,4.2,11l18.8,17.3c3.7,3.4,3.7,10.8,0,14.2l-14.6,13.5
		c-5.2,4.8-8.3,12.9-8.3,21.7l0,57.5c0,9.5,5.6,17.3,12.4,17.3l886.9-0.9c4.4,0,8.7-2.2,12.1-6.2l89.6-106.3
		c4.2-4.9,6.6-12.2,6.5-19.8l-0.1-148.1C1018.5,69.2,1010.2,57.6,999.9,57.6z"/>
	<g>
		<g>
			<path class="st2" d="M632.4,12h7.8l-9.4,13.8l9.8,14.3h-7.8l-6.5-9.2l-6.4,9.2H612l9.8-14.3L612.4,12h7.8l6.1,8.8L632.4,12z"/>
			<path class="st2" d="M677.2,12h7.8l-9.4,13.8l9.8,14.3h-7.8l-6.5-9.2l-6.4,9.2h-7.8l9.8-14.3L657.2,12h7.8l6.1,8.8L677.2,12z"/>
			<path class="st2" d="M722.1,12h7.8l-9.4,13.8l9.8,14.3h-7.8l-6.5-9.2l-6.4,9.2h-7.8l9.8-14.3L702.1,12h7.8l6.1,8.8L722.1,12z"/>
			<path class="st2" d="M767,12h7.8l-9.4,13.8l9.8,14.3h-7.8l-6.5-9.2l-6.4,9.2h-7.8l9.8-14.3L746.9,12h7.8l6.1,8.8L767,12z"/>
			<path class="st2" d="M811.8,12h7.8l-9.4,13.8l9.8,14.3h-7.8l-6.5-9.2l-6.4,9.2h-7.8l9.8-14.3L791.8,12h7.8l6.1,8.8L811.8,12z"/>
			<path class="st2" d="M856.7,12h7.8L855,25.8l9.8,14.3H857l-6.5-9.2l-6.4,9.2h-7.8l9.8-14.3L836.6,12h7.8l6.1,8.8L856.7,12z"/>
			<path class="st2" d="M901.5,12h7.8l-9.4,13.8l9.8,14.3h-7.8l-6.5-9.2l-6.4,9.2h-7.8l9.8-14.3L881.5,12h7.8l6.1,8.8L901.5,12z"/>
			<path class="st2" d="M946.4,12h7.8l-9.4,13.8l9.8,14.3h-7.8l-6.5-9.2l-6.4,9.2H926l9.8-14.3L926.4,12h7.8l6.1,8.8L946.4,12z"/>
			<path class="st2" d="M991.2,12h7.8l-9.4,13.8l9.8,14.3h-7.8l-6.5-9.2l-6.4,9.2h-7.8l9.8-14.3L971.2,12h7.8l6.1,8.8L991.2,12z"/>
		</g>
	</g>
	<g>
		<path class="st3" d="M443.6,226.8c-0.8,3.8-1.9,7.4-3.3,10.6c-1.5,3.3-3.4,6.2-5.7,9c-2.3,2.7-4.8,5-7.7,6.8
			c-2.6,1.6-5.5,2.8-8.6,3.7c-3.1,0.9-6.5,1.3-10.1,1.3c-3.8,0-7.4-0.5-10.7-1.5c-3.3-1-6.2-2.4-8.9-4.2c-2.6-1.9-5-4.2-7.1-6.9
			c-2.1-2.7-3.8-5.7-5.2-9.1c-1.3-3.1-2.2-6.5-2.9-10.2c-0.7-3.7-1-7.5-1-11.6l0-14.4c0-4.3,0.4-8.5,1.1-12.3
			c0.7-3.9,1.8-7.5,3.3-10.8c1.4-3.1,3.1-5.9,5.1-8.5c2-2.5,4.3-4.7,6.9-6.5c2.6-1.8,5.5-3.1,8.7-4.1c3.2-0.9,6.7-1.4,10.4-1.4
			c3.8,0,7.4,0.5,10.7,1.5c3.3,1,6.3,2.4,9,4.2c2.7,1.7,5,3.8,7,6.2c2,2.4,3.7,5.1,5.2,8.1c1.6,3.3,2.8,7,3.6,11
			c0.8,4,1.3,8.2,1.3,12.7l0,14.4C444.8,219,444.4,223,443.6,226.8z M425.1,193c-0.3-2.3-0.6-4.4-1.2-6.3c-0.7-2.4-1.6-4.6-2.7-6.5
			c-1.1-1.9-2.5-3.5-4-4.7c-1.2-0.9-2.6-1.6-4.1-2.1c-1.5-0.5-3.2-0.7-5.1-0.7c-1.8,0-3.4,0.2-4.8,0.7c-1.4,0.5-2.7,1.1-3.8,2
			c-1.5,1.3-2.8,2.8-3.9,4.8c-1.1,1.9-1.9,4.1-2.5,6.6c-0.5,1.9-0.8,4.1-1,6.4c-0.2,2.3-0.3,4.7-0.3,7.3l0,14.5
			c0,2.4,0.1,4.7,0.3,6.9c0.2,2.2,0.5,4.3,1,6.2c0.5,2.4,1.2,4.6,2.2,6.5c1,2,2.1,3.6,3.4,4.8c1.2,1.1,2.6,1.9,4.2,2.5
			c1.6,0.6,3.3,0.9,5.3,0.9c1.9,0,3.6-0.3,5.2-0.8c1.6-0.5,3-1.3,4.2-2.4c1.5-1.3,2.8-2.9,3.9-4.8c1.1-1.9,1.9-4.1,2.5-6.5
			c0.5-1.9,0.9-4,1.1-6.2c0.2-2.3,0.4-4.6,0.4-7.1l0-14.5C425.4,197.7,425.3,195.3,425.1,193z"/>
		<path class="st3" d="M478.1,197.3l-19.3,0l0-13.9l19.3,0l0-4c0-4.8,0.8-9.1,2.3-12.8c1.5-3.7,3.7-6.8,6.6-9.4
			c2.8-2.5,6.3-4.4,10.4-5.7c4.1-1.3,8.6-1.9,13.6-1.9c1.6,0,3.1,0.1,4.6,0.2c1.5,0.1,2.9,0.3,4.3,0.4c1.4,0.2,2.8,0.4,4.2,0.6
			c1.4,0.2,2.9,0.5,4.4,0.7l-1.2,14.8c-1.7-0.4-3.7-0.7-5.8-0.9s-4.7-0.4-7.7-0.4c-3.2,0-5.9,0.4-8.1,1.1c-2.2,0.7-4,1.8-5.3,3.2
			c-1.2,1.2-2,2.6-2.6,4.3c-0.6,1.7-0.8,3.7-0.8,5.8l0,4l26.5,0l0,13.9l-26.5,0l0,59.5l-18.9,0L478.1,197.3z"/>
		<path class="st3" d="M563.5,255.3c-4.6-1.9-8.6-4.4-11.9-7.6c-3.3-3.2-5.8-6.9-7.6-11.2c-1.8-4.3-2.7-8.9-2.7-13.9l0-2.7
			c0-5.6,0.9-10.7,2.6-15.4c1.8-4.6,4.2-8.6,7.4-12s6.9-6,11.3-7.8c4.3-1.9,9.1-2.8,14.2-2.8c5.3,0,10,0.9,14.1,2.6
			s7.7,4.2,10.6,7.4c2.9,3.2,5,7,6.5,11.4c1.5,4.5,2.2,9.4,2.2,14.8l0,8l-49.8,0v0.2c0.6,2.9,1.4,5.3,2.4,7.1c1,1.8,2.3,3.4,4,4.8
			c1.7,1.5,3.7,2.6,5.9,3.5c2.2,0.8,4.6,1.2,7.3,1.2c3.7,0,7.3-0.7,10.8-2.1c3.5-1.4,6.3-3.5,8.5-6.3l9.4,10.2
			c-2.4,3.4-6.2,6.5-11.4,9.2c-5.2,2.8-11.3,4.1-18.4,4.1C573.3,258.1,568.1,257.2,563.5,255.3z M570.8,198.4
			c-1.8,0.7-3.3,1.8-4.6,3.2c-1.4,1.4-2.5,3.1-3.4,5c-0.9,1.9-1.6,4.1-2,6.5l30.9,0l0-1.5c0-2-0.4-3.9-1.1-5.6
			c-0.7-1.8-1.7-3.3-3-4.6c-1.3-1.3-2.8-2.3-4.6-3c-1.8-0.7-3.9-1.1-6.3-1.1C574.5,197.3,572.6,197.6,570.8,198.4z"/>
		<path class="st3" d="M687.2,182.5c2.4,0.4,4.4,0.8,5.9,1.2l-2.8,18.8c-2.5-0.6-5-1-7.6-1.3c-2.6-0.3-5.1-0.4-7.4-0.4
			c-2.4,0-4.6,0.2-6.6,0.6c-2,0.4-3.7,1.1-5.3,1.9c-1.9,1-3.4,2.3-4.7,3.8c-1.3,1.5-2.4,3.4-3.3,5.4l0,44.1l-18.9,0l0-73.4l17.6,0
			l0.8,10.4l0.1,1.6c3-4.2,6.6-7.4,10.7-9.8c4.2-2.4,8.7-3.6,13.6-3.6C682.2,182,684.8,182.1,687.2,182.5z"/>
		<path class="st3" d="M744.6,183.3l27.4,0l0,13.9l-27.4,0l0,31.5c0,2.7,0.3,4.9,0.9,6.7c0.6,1.8,1.5,3.2,2.6,4.2
			c1.1,1.1,2.5,1.9,4.1,2.3c1.6,0.5,3.4,0.7,5.4,0.7c1.4,0,2.9-0.1,4.4-0.2c1.5-0.1,3-0.3,4.4-0.5c1.4-0.2,2.6-0.4,3.8-0.6
			s2.2-0.5,3.1-0.7l1.8,13c-1.3,0.8-2.8,1.4-4.6,2c-1.8,0.6-3.6,1-5.6,1.4c-2,0.4-4.1,0.6-6.2,0.9c-2.1,0.2-4.3,0.3-6.3,0.3
			c-4,0-7.7-0.5-11-1.6c-3.3-1.1-6.1-2.7-8.4-5c-2.4-2.2-4.2-5.1-5.4-8.5c-1.3-3.5-1.9-7.6-1.9-12.4l0-33.4l-16.8,0l0-13.9l16.8,0
			l0-18l18.9,0L744.6,183.3z"/>
		<path class="st3" d="M838.1,253.5c-0.3-1.2-0.6-2.4-0.8-3.7c-1,1.1-2.2,2.2-3.6,3.2c-1.4,1-2.8,1.9-4.5,2.6
			c-1.7,0.8-3.5,1.4-5.5,1.8c-2,0.4-4.1,0.6-6.4,0.6c-3.8,0-7.2-0.5-10.3-1.6c-3.1-1.1-5.8-2.6-8.1-4.5c-2.3-1.9-4-4.3-5.3-6.9
			c-1.3-2.7-1.9-5.6-1.9-8.8c0-4.1,0.8-7.7,2.4-10.8c1.6-3.1,4-5.7,7.1-7.8c2.8-1.9,6.4-3.3,10.5-4.2c4.2-1,9-1.5,14.4-1.5l10.5,0
			l0-4.3c0-1.7-0.3-3.3-0.8-4.6c-0.5-1.4-1.4-2.6-2.4-3.6c-1.1-1-2.5-1.8-4.2-2.4c-1.7-0.6-3.7-0.8-5.9-0.8c-2,0-3.7,0.2-5.2,0.7
			c-1.4,0.5-2.6,1.1-3.5,2c-0.8,0.8-1.4,1.7-1.8,2.8c-0.4,1.1-0.6,2.3-0.6,3.6l-18.9,0c0-3.1,0.7-6.1,2.1-8.9
			c1.4-2.8,3.4-5.3,6.1-7.4c2.6-2.1,5.8-3.8,9.7-5.1s8.2-1.9,13.1-1.9c4.4,0,8.6,0.5,12.4,1.6c3.8,1.1,7.1,2.7,9.9,4.8
			c2.8,2.1,5,4.8,6.6,8c1.6,3.2,2.4,7,2.4,11.2l0,31.5c0,3.9,0.3,7.2,0.8,9.8c0.5,2.6,1.2,4.8,2.2,6.6v1.2l-19.1,0
			C838.8,255.7,838.4,254.7,838.1,253.5z M826.6,242.7c1.6-0.5,3.1-1,4.4-1.8c1.3-0.7,2.4-1.5,3.4-2.5c0.9-0.9,1.7-1.9,2.2-2.8
			l0-12.6l-9.6,0c-2.9,0-5.5,0.3-7.5,0.9c-2.1,0.6-3.8,1.3-5.1,2.3c-1.3,1-2.3,2.3-2.9,3.7c-0.6,1.4-0.9,3-0.9,4.6
			c0,1.3,0.2,2.5,0.7,3.6c0.5,1.1,1.2,2,2.1,2.8c0.9,0.7,2,1.3,3.4,1.7s2.9,0.6,4.6,0.6C823.2,243.4,825,243.2,826.6,242.7z"/>
		<path class="st3" d="M900.8,239.9c1.9-2,4.6-3,8.1-3c3.3,0,6,1,8,3c2,2,3,4.5,3,7.5c0,2.9-1,5.3-3,7.3c-2,2-4.7,3-8,3
			c-3.4,0-6.1-1-8.1-2.9c-1.9-2-2.9-4.4-2.9-7.3C897.9,244.4,898.8,241.9,900.8,239.9z M900.3,222.1l-1.1-64.2l19.3,0l-1.1,64.2
			L900.3,222.1z"/>
	</g>
	<g>
		<g>
			<path class="st3" d="M137.4,281.2c1.7-7.5,3.6-16.2,5.6-25c2.6-11.2,5.1-22.4,7.7-33.6c0.6-2.6,0-4.1-2-5.8
				c-14.4-12.5-28.7-25.2-43.1-37.7c-4-3.5-6.3-7.6-4.7-13c1.7-5.5,5.7-7.9,11.4-8.4c18.1-1.5,36.3-3.4,54.5-4.8
				c4.6-0.3,7-1.9,8.8-6.3c7-17.1,14.4-34.1,21.7-51.1c2.5-5.8,7-8.5,12.6-7.6c4.8,0.7,7.6,3.7,9.4,8c7.2,16.9,14.7,33.7,21.5,50.7
				c1.8,4.5,4.4,5.9,8.9,6.3c18.3,1.5,36.6,3.3,54.9,4.9c5.5,0.5,9.3,3.1,10.9,8.3c1.6,5.2-0.5,9.2-4.4,12.7
				c-14.4,12.6-28.7,25.2-43.1,37.7c-2.2,1.9-2.8,3.6-2.2,6.5c4.4,18.6,8.5,37.2,12.8,55.8c1.2,5.2,0.5,9.8-4,13.2
				c-4.7,3.5-9.4,2.8-14.1-0.1c-16.3-9.8-32.8-19.6-49.1-29.5c-2.4-1.5-4-1.4-6.4,0c-16.4,9.9-32.9,19.8-49.5,29.7
				c-4.2,2.5-8.4,3.2-12.7,0.6C139.1,290.4,137.3,287,137.4,281.2z"/>
		</g>
	</g>
</g>
</svg>
