<svg xmlns="http://www.w3.org/2000/svg" id="Layer_1" data-name="Layer 1" viewBox="0 0 125 125"><defs><style>.cls-1{fill:#5800d6}</style></defs><path d="M25.19 103.77h37.35v7.63a11.26 11.26 0 0 1-11.26 11.26H25.19v-18.89Z" class="cls-1"/><path d="M39.83 119.08a3.74 3.74 0 0 0-2.13 3.59H4.05a18.9 18.9 0 0 1 18.89-18.9h22.47a261.97 261.97 0 0 0-8.78 6.18c-2 1.6-1.54 5.15 2.5 4.53s3.35 3.2.7 4.6Z" class="cls-1"/><path fill="#2ed300" d="M70.83 108.55a14.12 14.12 0 0 1-14.11 14.12H52.4a3.74 3.74 0 0 1 2.13-3.59c2.65-1.4 3.35-5.23-.7-4.6s-4.53-2.93-2.5-4.53c1.4-1.1 6-4.3 8.78-6.18h6a4.78 4.78 0 0 1 4.72 4.78Z"/><path fill="#fff" d="M16.82 112.73a2.19 2.19 0 0 1-.82 1.12 2.75 2.75 0 0 1-1.52.37h-2.1a1.64 1.64 0 0 1-1.28-.37 1.15 1.15 0 0 1 0-1.12l.7-2a2.11 2.11 0 0 1 .83-1.12 2.69 2.69 0 0 1 1.52-.37h2.11a1.59 1.59 0 0 1 1.26.37 1.15 1.15 0 0 1 0 1.12Zm-2.57-2.23a1.41 1.41 0 0 0-.39 0 .57.57 0 0 0-.26.12.5.5 0 0 0-.18.2 1.69 1.69 0 0 0-.11.27l-.4 1.15a1.08 1.08 0 0 0-.07.27.32.32 0 0 0 0 .2.41.41 0 0 0 .18.12 1.22 1.22 0 0 0 .37 0h.93a1.51 1.51 0 0 0 .39 0 .89.89 0 0 0 .26-.12.67.67 0 0 0 .17-.2 1.11 1.11 0 0 0 .12-.27l.4-1.15a1 1 0 0 0 .06-.27.3.3 0 0 0 0-.2.24.24 0 0 0-.18-.12 1.15 1.15 0 0 0-.36 0Zm5.12 1.85-.64 1.87H17l1.21-3.54a2.11 2.11 0 0 1 .83-1.12 2.69 2.69 0 0 1 1.52-.37h3.93l-.45 1.31h-3.3a1.08 1.08 0 0 0-.61.13 1 1 0 0 0-.3.4h4.07l-.46 1.32Zm9.92 1.87h-3.93a1.6 1.6 0 0 1-1.27-.37 1.14 1.14 0 0 1-.05-1.12l.71-2a2 2 0 0 1 .82-1.12 2.69 2.69 0 0 1 1.52-.37H31l-.45 1.31h-3.32a1.08 1.08 0 0 0-.61.13 1 1 0 0 0-.3.4h4.07l-.46 1.32h-4.07a.46.46 0 0 0 0 .42c.06.09.24.14.53.14h3.34Zm6.91-2.11a2.1 2.1 0 0 1-1.2.43l1 1.68h-2l-1-1.65h-.72l-.56 1.65H30l1.74-5h3.92a1.6 1.6 0 0 1 1.27.37 1.17 1.17 0 0 1 0 1.13l-.13.37a2.25 2.25 0 0 1-.6 1.02Zm-3.2-1.58-.25.7h1.75a1.22 1.22 0 0 0 .51-.08.41.41 0 0 0 .22-.27.5.5 0 0 0 0-.19.1.1 0 0 0-.05-.1.3.3 0 0 0-.16 0H33Zm8.49-.03-1.28 3.72h-1.69l1.28-3.72h-2l.45-1.31H44l-.45 1.31Zm7.21 3.72H47l.65-1.88h-2.36l-.65 1.88H43l1.21-3.54a2.09 2.09 0 0 1 .82-1.12 2.75 2.75 0 0 1 1.53-.37h2.1c.64 0 1.07.12 1.26.37a1.12 1.12 0 0 1 0 1.12Zm-2.05-3.72a1 1 0 0 0-.61.13.83.83 0 0 0-.3.4h2.37a.44.44 0 0 0 0-.4c-.06-.09-.23-.13-.51-.13Zm10.47 4.72 4.13-3.55a1.25 1.25 0 0 1-.46.19 2.77 2.77 0 0 1-.6.06h-1.38a1.16 1.16 0 0 1-.9-.25c-.14-.17-.14-.43 0-.8l.45-1.33a1.54 1.54 0 0 1 .58-.8 1.87 1.87 0 0 1 1.06-.25h1.39a1.15 1.15 0 0 1 .89.25.78.78 0 0 1 0 .8l-.46 1.33a1.67 1.67 0 0 1-.34.59l3.33-2.85h2.41l-4.1 3.53a1.89 1.89 0 0 1 1-.23h1.39a1.15 1.15 0 0 1 .89.25q.22.25 0 .81l-.4 1.33a1.54 1.54 0 0 1-.58.8 1.9 1.9 0 0 1-1.07.25H63a1.14 1.14 0 0 1-.89-.25c-.15-.17-.15-.44 0-.8l.45-1.33a1.92 1.92 0 0 1 .29-.54l-3.25 2.79Zm2.9-5.53a.32.32 0 0 0-.22.06.37.37 0 0 0-.12.17l-.19.57a.21.21 0 0 0 0 .16s.09 0 .19 0h.47a.39.39 0 0 0 .24 0 .32.32 0 0 0 .1-.16l.19-.57v-.17c0-.04-.09-.06-.2-.06Zm4.18 3.42a.38.38 0 0 0-.24.06.42.42 0 0 0-.11.17l-.19.57v.16c0 .03.09.05.19.05h.47a.39.39 0 0 0 .24-.05.34.34 0 0 0 .11-.16l.19-.57a.21.21 0 0 0 0-.17s-.08-.06-.2-.06Zm-50.69 4.77a1.19 1.19 0 0 1-.48.66 1.51 1.51 0 0 1-.88.22h-2.3l1-2.94h2.3a1 1 0 0 1 .74.21.68.68 0 0 1 0 .66Zm-1.92-1.3L11.1 118h1.22a.48.48 0 0 0 .16-.07.4.4 0 0 0 .1-.12.59.59 0 0 0 .07-.16l.23-.67a.53.53 0 0 0 0-.16.16.16 0 0 0 0-.12.14.14 0 0 0-.1-.06.65.65 0 0 0-.22 0Zm5.41 2.18h-2.3a.92.92 0 0 1-.74-.22.67.67 0 0 1 0-.66l.41-1.19a1.27 1.27 0 0 1 .48-.66 1.66 1.66 0 0 1 .9-.21H18l-.26.76h-2a.64.64 0 0 0-.36.08.62.62 0 0 0-.18.23h2.38l-.27.77H15a.27.27 0 0 0 0 .25s.14.08.31.08h1.95Zm4.85-2.46v1a2.43 2.43 0 0 0 .05.35c0 .1.06.14.1.14a.28.28 0 0 0 .17-.1 2.45 2.45 0 0 0 .32-.4l.55-.83.86-1.38h1.28l-1.59 2.61a2.18 2.18 0 0 1-.26.33 4.12 4.12 0 0 1-.37.35 2.79 2.79 0 0 1-.42.28.89.89 0 0 1-.38.11h-1a.55.55 0 0 1-.31-.1.75.75 0 0 1-.22-.25 1.05 1.05 0 0 1-.13-.35 1.1 1.1 0 0 1 0-.36l.18-2.62H22Zm6.59 2.46h-2.87q-.72 0-.93-.27a.84.84 0 0 1 0-.82l.52-1.5a1.47 1.47 0 0 1 .6-.82 2 2 0 0 1 1.11-.27h2.83l-.32 1h-2.44a.84.84 0 0 0-.45.09.71.71 0 0 0-.22.3h3l-.33 1h-3a.33.33 0 0 0 0 .31c0 .07.18.1.39.1h2.44Zm5.05-1.55a1.52 1.52 0 0 1-.88.32l.75 1.23h-1.44l-.76-1.21h-.52l-.42 1.21H29l1.27-3.68h2.87a1.2 1.2 0 0 1 .93.27.89.89 0 0 1 0 .83l-.1.27a1.55 1.55 0 0 1-.48.76Zm-2.34-1.15-.17.51h1.27a1 1 0 0 0 .37 0 .3.3 0 0 0 .16-.2.44.44 0 0 0 0-.14.11.11 0 0 0 0-.08.35.35 0 0 0-.12 0h-1.51Zm6.76 2.7h-1.22l.47-1.38h-1.74l-.48 1.38h-1.23l.88-2.59a1.53 1.53 0 0 1 .61-.82 2 2 0 0 1 1.11-.27h1.54a1.16 1.16 0 0 1 .92.27.82.82 0 0 1 0 .82Zm-1.5-2.76a.83.83 0 0 0-.44.09.64.64 0 0 0-.22.3h1.73a.33.33 0 0 0 0-.3c0-.06-.17-.09-.37-.09Zm7.52-.92-1.27 3.68h-1.07l-1.24-1.91-.66 1.91h-1.24l1.27-3.68h1.07L42 117l.66-1.91Zm3.85 2.59a1.61 1.61 0 0 1-.6.82 2 2 0 0 1-1.11.27h-1.54a1.2 1.2 0 0 1-.93-.27.82.82 0 0 1 0-.82l.51-1.5a1.53 1.53 0 0 1 .61-.82 2 2 0 0 1 1.11-.27h1.54a1.16 1.16 0 0 1 .92.27.82.82 0 0 1 0 .82ZM45.9 116a1.09 1.09 0 0 0-.28 0 .93.93 0 0 0-.2.08.44.44 0 0 0-.12.15l-.09.2-.29.84a1.94 1.94 0 0 0-.05.2.19.19 0 0 0 0 .15.22.22 0 0 0 .13.08.88.88 0 0 0 .26 0H46a1.17 1.17 0 0 0 .29 0l.19-.08a.44.44 0 0 0 .12-.15.72.72 0 0 0 .09-.2l.29-.84a.53.53 0 0 0 0-.2.24.24 0 0 0 0-.15.32.32 0 0 0-.13-.08 1 1 0 0 0-.27 0Z"/></svg>