<svg xmlns="http://www.w3.org/2000/svg" id="Layer_1" data-name="Layer 1" viewBox="0 0 125 125"><defs><style>.cls-1{fill:#5800d6}.cls-2{fill:#2ed300}.cls-3{fill:#fff}.cls-4{fill:#450491}.cls-5{fill:#00d300}</style></defs><path d="M25.19,103.77H62.54a0,0,0,0,1,0,0v7.63a11.26,11.26,0,0,1-11.26,11.26H25.19a0,0,0,0,1,0,0V103.77a0,0,0,0,1,0,0Z" class="cls-1"/><path d="M39.83,119.08a3.74,3.74,0,0,0-2.13,3.59H4.05a18.9,18.9,0,0,1,18.89-18.9H45.41c-2.75,1.88-7.39,5.08-8.78,6.18-2,1.6-1.54,5.15,2.5,4.53S42.48,117.68,39.83,119.08Z" class="cls-1"/><path d="M70.83,108.55a14.12,14.12,0,0,1-14.11,14.12H52.4a3.74,3.74,0,0,1,2.13-3.59c2.65-1.4,3.35-5.23-.7-4.6s-4.53-2.93-2.5-4.53c1.4-1.1,6-4.3,8.78-6.18h6A4.78,4.78,0,0,1,70.83,108.55Z" class="cls-2"/><path d="M16.82,112.73a2.19,2.19,0,0,1-.82,1.12,2.75,2.75,0,0,1-1.52.37h-2.1a1.64,1.64,0,0,1-1.28-.37,1.15,1.15,0,0,1,0-1.12l.7-2a2.11,2.11,0,0,1,.83-1.12,2.69,2.69,0,0,1,1.52-.37h2.11a1.59,1.59,0,0,1,1.26.37,1.15,1.15,0,0,1,0,1.12Zm-2.57-2.23a1.41,1.41,0,0,0-.39,0,.57.57,0,0,0-.26.12.5.5,0,0,0-.18.2,1.69,1.69,0,0,0-.11.27l-.4,1.15a1.08,1.08,0,0,0-.07.27.32.32,0,0,0,0,.2.41.41,0,0,0,.18.12,1.22,1.22,0,0,0,.37,0h.93a1.51,1.51,0,0,0,.39,0,.89.89,0,0,0,.26-.12.67.67,0,0,0,.17-.2,1.11,1.11,0,0,0,.12-.27l.4-1.15a1,1,0,0,0,.06-.27.3.3,0,0,0,0-.2.24.24,0,0,0-.18-.12,1.15,1.15,0,0,0-.36,0Z" class="cls-3"/><path d="M19.37,112.35l-.64,1.87H17l1.21-3.54a2.11,2.11,0,0,1,.83-1.12,2.69,2.69,0,0,1,1.52-.37h3.93l-.45,1.31H20.74a1.08,1.08,0,0,0-.61.13,1,1,0,0,0-.3.4H23.9l-.46,1.32Z" class="cls-3"/><path d="M29.29,114.22H25.36a1.6,1.6,0,0,1-1.27-.37,1.14,1.14,0,0,1-.05-1.12l.71-2a2,2,0,0,1,.82-1.12,2.69,2.69,0,0,1,1.52-.37H31l-.45,1.31H27.23a1.08,1.08,0,0,0-.61.13,1,1,0,0,0-.3.4h4.07l-.46,1.32H25.86a.46.46,0,0,0,0,.42c.06.09.24.14.53.14h3.34Z" class="cls-3"/><path d="M36.2,112.11a2.1,2.1,0,0,1-1.2.43l1,1.68h-2l-1-1.65h-.72l-.56,1.65H30l1.74-5h3.92a1.6,1.6,0,0,1,1.27.37,1.17,1.17,0,0,1,0,1.13l-.13.37A2.25,2.25,0,0,1,36.2,112.11ZM33,110.53l-.25.7H34.5a1.22,1.22,0,0,0,.51-.08.41.41,0,0,0,.22-.27.5.5,0,0,0,0-.19.1.1,0,0,0-.05-.1.3.3,0,0,0-.16,0H33Z" class="cls-3"/><path d="M41.49,110.5l-1.28,3.72H38.52l1.28-3.72h-2l.45-1.31H44l-.45,1.31Z" class="cls-3"/><path d="M48.7,114.22H47l.65-1.88H45.29l-.65,1.88H43l1.21-3.54a2.09,2.09,0,0,1,.82-1.12,2.75,2.75,0,0,1,1.53-.37h2.1c.64,0,1.07.12,1.26.37a1.12,1.12,0,0,1,0,1.12Zm-2.05-3.72a1,1,0,0,0-.61.13.83.83,0,0,0-.3.4h2.37a.44.44,0,0,0,0-.4c-.06-.09-.23-.13-.51-.13Z" class="cls-3"/><path d="M57.12,115.22l4.13-3.55a1.25,1.25,0,0,1-.46.19,2.77,2.77,0,0,1-.6.06H58.81a1.16,1.16,0,0,1-.9-.25c-.14-.17-.14-.43,0-.8l.45-1.33a1.54,1.54,0,0,1,.58-.8,1.87,1.87,0,0,1,1.06-.25h1.39a1.15,1.15,0,0,1,.89.25.78.78,0,0,1,0,.8l-.46,1.33a1.67,1.67,0,0,1-.34.59l3.33-2.85h2.41l-4.1,3.53a1.89,1.89,0,0,1,1-.23h1.39a1.15,1.15,0,0,1,.89.25q.22.25,0,.81L66,114.3a1.54,1.54,0,0,1-.58.8,1.9,1.9,0,0,1-1.07.25H63a1.14,1.14,0,0,1-.89-.25c-.15-.17-.15-.44,0-.8l.45-1.33a1.92,1.92,0,0,1,.29-.54l-3.25,2.79Zm2.9-5.53a.32.32,0,0,0-.22.06.37.37,0,0,0-.12.17l-.19.57a.21.21,0,0,0,0,.16s.09,0,.19,0h.47a.39.39,0,0,0,.24,0,.32.32,0,0,0,.1-.16l.19-.57c0-.08,0-.13,0-.17s-.09-.06-.2-.06Zm4.18,3.42a.38.38,0,0,0-.24.06.42.42,0,0,0-.11.17l-.19.57c0,.08,0,.13,0,.16s.09.05.19.05h.47a.39.39,0,0,0,.24-.05.34.34,0,0,0,.11-.16l.19-.57a.21.21,0,0,0,0-.17s-.08-.06-.2-.06Z" class="cls-3"/><path d="M13.51,117.88a1.19,1.19,0,0,1-.48.66,1.51,1.51,0,0,1-.88.22H9.85l1-2.94h2.3a1,1,0,0,1,.74.21.68.68,0,0,1,0,.66Zm-1.92-1.3L11.1,118h1l.22,0a.48.48,0,0,0,.16-.07.4.4,0,0,0,.1-.12.59.59,0,0,0,.07-.16l.23-.67a.53.53,0,0,0,0-.16.16.16,0,0,0,0-.12.14.14,0,0,0-.1-.06.65.65,0,0,0-.22,0Z" class="cls-3"/><path d="M17,118.76h-2.3a.92.92,0,0,1-.74-.22.67.67,0,0,1,0-.66l.41-1.19a1.27,1.27,0,0,1,.48-.66,1.66,1.66,0,0,1,.9-.21H18l-.26.76h-2a.64.64,0,0,0-.36.08.62.62,0,0,0-.18.23h2.38l-.27.77H15a.27.27,0,0,0,0,.25s.14.08.31.08h1.95Z" class="cls-3"/><path d="M21.85,116.3c0,.16,0,.33,0,.51s0,.34,0,.49a2.43,2.43,0,0,0,.05.35c0,.1.06.14.1.14H22a.28.28,0,0,0,.17-.1,2.45,2.45,0,0,0,.32-.4c.14-.2.32-.47.55-.83l.86-1.38h1.28l-1.59,2.61a2.18,2.18,0,0,1-.26.33,4.12,4.12,0,0,1-.37.35,2.79,2.79,0,0,1-.42.28.89.89,0,0,1-.38.11h-1a.55.55,0,0,1-.31-.1.75.75,0,0,1-.22-.25,1.05,1.05,0,0,1-.13-.35,1.1,1.1,0,0,1,0-.36l.18-2.62H22Z" class="cls-3"/><path d="M28.44,118.76H25.57q-.72,0-.93-.27a.84.84,0,0,1,0-.82l.52-1.5a1.47,1.47,0,0,1,.6-.82,2,2,0,0,1,1.11-.27H29.7l-.32,1H26.94a.84.84,0,0,0-.45.09.71.71,0,0,0-.22.3h3l-.33,1h-3a.33.33,0,0,0,0,.31c0,.07.18.1.39.1h2.44Z" class="cls-3"/><path d="M33.49,117.21a1.52,1.52,0,0,1-.88.32l.75,1.23H31.92l-.76-1.21h-.52l-.42,1.21H29l1.27-3.68h2.87a1.2,1.2,0,0,1,.93.27.89.89,0,0,1,0,.83l-.1.27A1.55,1.55,0,0,1,33.49,117.21Zm-2.34-1.15-.17.51h1.27a1,1,0,0,0,.37,0,.3.3,0,0,0,.16-.2.44.44,0,0,0,0-.14.11.11,0,0,0,0-.08.35.35,0,0,0-.12,0H31.15Z" class="cls-3"/><path d="M37.91,118.76H36.69l.47-1.38H35.42l-.48,1.38H33.71l.88-2.59a1.53,1.53,0,0,1,.61-.82,2,2,0,0,1,1.11-.27h1.54a1.16,1.16,0,0,1,.92.27.82.82,0,0,1,0,.82ZM36.41,116a.83.83,0,0,0-.44.09.64.64,0,0,0-.22.3h1.73a.33.33,0,0,0,0-.3c0-.06-.17-.09-.37-.09Z" class="cls-3"/><path d="M43.93,115.08l-1.27,3.68H41.59l-1.24-1.91-.66,1.91H38.45l1.27-3.68h1.07L42,117l.66-1.91Z" class="cls-3"/><path d="M47.78,117.67a1.61,1.61,0,0,1-.6.82,2,2,0,0,1-1.11.27H44.53a1.2,1.2,0,0,1-.93-.27.82.82,0,0,1,0-.82l.51-1.5a1.53,1.53,0,0,1,.61-.82,2,2,0,0,1,1.11-.27h1.54a1.16,1.16,0,0,1,.92.27.82.82,0,0,1,0,.82ZM45.9,116a1.09,1.09,0,0,0-.28,0,.93.93,0,0,0-.2.08.44.44,0,0,0-.12.15l-.09.2-.29.84a1.94,1.94,0,0,0-.05.2.19.19,0,0,0,0,.15.22.22,0,0,0,.13.08.88.88,0,0,0,.26,0H46a1.17,1.17,0,0,0,.29,0l.19-.08a.44.44,0,0,0,.12-.15.72.72,0,0,0,.09-.2l.29-.84a.53.53,0,0,0,0-.2.24.24,0,0,0,0-.15.32.32,0,0,0-.13-.08,1,1,0,0,0-.27,0Z" class="cls-3"/><rect width="125.01" height="7.47" y=".01" class="cls-4" transform="translate(-0.01 0.17) rotate(-0.15)"/><polygon points="12.21 3.92 9.55 7.63 7.41 7.63 10.09 3.89 10.59 3.19 12.12 3.88 12.21 3.92" class="cls-5"/><polygon points="12.21 3.84 12.12 3.88 10.6 4.59 10.09 3.89 7.39 .16 9.53 .16 12.21 3.84" class="cls-5"/><polygon points="18.05 3.91 15.4 7.61 13.26 7.62 15.94 3.87 16.44 3.17 17.96 3.87 18.05 3.91" class="cls-5"/><polygon points="18.05 3.83 17.96 3.87 16.45 4.57 15.94 3.87 13.24 .15 15.38 .14 18.05 3.83" class="cls-5"/><polygon points="23.9 3.89 21.25 7.59 19.11 7.6 21.79 3.86 22.29 3.15 23.81 3.85 23.9 3.89" class="cls-5"/><polygon points="23.9 3.81 23.81 3.85 22.3 4.56 21.79 3.86 19.09 .13 21.23 .12 23.9 3.81" class="cls-5"/><polygon points="29.98 3.88 27.33 7.58 25.18 7.58 27.86 3.84 28.37 3.14 29.89 3.83 29.98 3.88" class="cls-5"/><polygon points="29.98 3.79 29.89 3.83 28.37 4.54 27.86 3.84 25.16 .11 27.31 .11 29.98 3.79" class="cls-5"/><polygon points="35.94 3.86 33.29 7.56 31.15 7.57 33.83 3.83 34.33 3.12 35.85 3.82 35.94 3.86" class="cls-5"/><polygon points="35.94 3.78 35.85 3.82 34.34 4.53 33.83 3.83 31.13 .1 33.27 .09 35.94 3.78" class="cls-5"/><polygon points="41.56 3.85 38.91 7.55 36.76 7.55 39.45 3.81 39.95 3.1 41.47 3.8 41.56 3.85" class="cls-5"/><polygon points="41.56 3.76 41.47 3.8 39.95 4.51 39.45 3.81 36.74 .08 38.89 .08 41.56 3.76" class="cls-5"/><path d="M53.87,5.58H51.31c-.41,0-.67-.08-.78-.23s-.1-.39,0-.71l.61-1.38a1.51,1.51,0,0,1,.58-.7,1.8,1.8,0,0,1,1-.23h2.57L55,3.07H52.81a1.21,1.21,0,0,0-.3,0,.51.51,0,0,0-.21.09.46.46,0,0,0-.15.16.66.66,0,0,0-.12.22h2.73l-.33.74H51.7v0a1,1,0,0,0-.08.22.24.24,0,0,0,0,.15.19.19,0,0,0,.13.1,1,1,0,0,0,.28,0H54.2Z" class="cls-3"/><path d="M59.53,2.32,58.09,5.57h-.88l-1-1.86-.82,1.87h-1l1.44-3.25h.88l1,1.86.82-1.86Z" class="cls-3"/><path d="M62,3.05,60.93,5.56h-1l1.11-2.51H59.7L60,2.32h3.69l-.32.74Z" class="cls-3"/><path d="M66,4.42l.56,1.13h-1.1l-.59-1.12h-.59l-.5,1.12h-1L64.22,2.3h2.56c.41,0,.67.07.78.22s.1.39,0,.71l-.11.25a1.52,1.52,0,0,1-.54.69A1.65,1.65,0,0,1,66,4.42ZM66.13,3H64.87l-.28.65h1.25a1,1,0,0,0,.42-.06.53.53,0,0,0,.22-.26,1.2,1.2,0,0,0,.06-.17.12.12,0,0,0,0-.1.33.33,0,0,0-.13,0Z" class="cls-3"/><path d="M70.7,5.54H68.14c-.41,0-.67-.07-.78-.23s-.1-.38,0-.7L68,3.23a1.54,1.54,0,0,1,.58-.71,1.91,1.91,0,0,1,1-.23h2.56L71.81,3H69.64a1.26,1.26,0,0,0-.3,0,.67.67,0,0,0-.21.09.57.57,0,0,0-.15.16,2.18,2.18,0,0,0-.12.22h2.73l-.33.74H68.53v0a1,1,0,0,0-.08.22.21.21,0,0,0,0,.16.19.19,0,0,0,.12.09,1,1,0,0,0,.28,0H71Z" class="cls-3"/><path d="M74.92,5.52H72.36c-.41,0-.67-.07-.78-.23s-.1-.38,0-.7l.61-1.38a1.49,1.49,0,0,1,.58-.71,1.89,1.89,0,0,1,1-.23h2.57L76,3H73.86a1.26,1.26,0,0,0-.3,0,.58.58,0,0,0-.21.09.57.57,0,0,0-.15.16.78.78,0,0,0-.12.22l-.34.77a1,1,0,0,0-.08.22.27.27,0,0,0,0,.16.22.22,0,0,0,.13.09,1,1,0,0,0,.28,0h1.18l.47-1.07h1Z" class="cls-3"/><path d="M80.16,3.2l-1,2.31h-1l.57-1.28H77l-.56,1.27h-1l1-2.31A1.5,1.5,0,0,1,77,2.5a1.87,1.87,0,0,1,1-.23h1.41c.41,0,.67.08.78.23S80.3,2.88,80.16,3.2Zm-2.86.31H79a1.19,1.19,0,0,0,.08-.22.24.24,0,0,0,0-.15A.34.34,0,0,0,79,3a1,1,0,0,0-.28,0h-.62a1.42,1.42,0,0,0-.31,0,.53.53,0,0,0-.2.09.61.61,0,0,0-.16.16A.9.9,0,0,0,77.3,3.51Z" class="cls-3"/><path d="M82.83,5.5h-1l1.44-3.26h1Z" class="cls-3"/><path d="M88.48,2.24,87,5.49h-.88l-1-1.86L84.31,5.5h-1l1.44-3.25h.88l1,1.85.82-1.86Z" class="cls-3"/><path d="M90,2.23,90.48,4l2.06-1.75h1L92.07,5.48h-1l.75-1.71L89.93,5.36h-.14l-.51-1.58-.75,1.71h-1L89,2.24Z" class="cls-3"/><path d="M96.29,5.47H93.72c-.41,0-.67-.07-.78-.22s-.1-.39,0-.71l.61-1.38a1.54,1.54,0,0,1,.58-.71,1.91,1.91,0,0,1,1-.23h2.56L97.4,3H95.22a1.26,1.26,0,0,0-.3,0,.67.67,0,0,0-.21.09.75.75,0,0,0-.15.16l-.12.22h2.73l-.32.74H94.11v0a1.6,1.6,0,0,0-.08.23.24.24,0,0,0,0,.15.19.19,0,0,0,.12.09,1,1,0,0,0,.28,0h2.17Z" class="cls-3"/><path d="M101.53,3.14l-.61,1.38a1.55,1.55,0,0,1-.59.71,1.87,1.87,0,0,1-1,.23H96.78l1.44-3.26h2.57a1,1,0,0,1,.78.22C101.68,2.59,101.67,2.82,101.53,3.14ZM100.07,3H98.88L98.1,4.72h1.18a1.26,1.26,0,0,0,.3,0,.5.5,0,0,0,.22-.1.67.67,0,0,0,.14-.15,1.16,1.16,0,0,0,.13-.22l.34-.78a1.28,1.28,0,0,0,.07-.21.27.27,0,0,0,0-.16.19.19,0,0,0-.13-.09A1,1,0,0,0,100.07,3Z" class="cls-3"/><path d="M102,5.45h-1l1.44-3.25h1Z" class="cls-3"/><path d="M107.23,3.12l-1,2.32h-1l.56-1.27H104l-.56,1.28h-1l1-2.32a1.51,1.51,0,0,1,.58-.7,1.91,1.91,0,0,1,1-.24h1.41c.41,0,.67.07.78.23A.71.71,0,0,1,107.23,3.12Zm-2.87.31h1.75a.79.79,0,0,0,.07-.22.21.21,0,0,0,0-.16A.19.19,0,0,0,106,3a.91.91,0,0,0-.27,0h-.63a1.26,1.26,0,0,0-.3,0,1,1,0,0,0-.21.1.46.46,0,0,0-.15.16A2,2,0,0,0,104.36,3.43Z" class="cls-3"/><path d="M110.16,2.92l-1.11,2.51h-1l1.11-2.51h-1.36l.33-.74h3.7l-.33.74Z" class="cls-3"/><path d="M115.64,3.1l-1,2.32h-1l.56-1.27h-1.75l-.56,1.27h-1l1-2.32a1.54,1.54,0,0,1,.58-.71,1.91,1.91,0,0,1,1-.23h1.41c.4,0,.66.07.78.23S115.78,2.78,115.64,3.1Zm-2.87.31h1.75a1.76,1.76,0,0,0,.07-.22.27.27,0,0,0,0-.16.19.19,0,0,0-.13-.09,1,1,0,0,0-.27,0h-.63a1.26,1.26,0,0,0-.3,0A.51.51,0,0,0,113,3a.54.54,0,0,0-.15.15Z" class="cls-3"/></svg>