<svg id="Capa_1" xmlns="http://www.w3.org/2000/svg" viewBox="0 0 1080 1080"><defs><style>.cls-1{fill:#fff}.cls-2{fill:#6400e5}</style></defs><path d="m0 934 1 137c0 8 10 12 16 6l47-46 341-94c20-5 34-24 34-45v-88c0-9-9-16-18-13L22 905c-13 4-22 16-22 29Z" style="fill:#0bd300"/><path class="cls-1" d="M95 936c0 4-2 8-4 10-2 3-6 5-10 6l-16 5H54c-2-1-3-4-3-8l1-16c0-4 1-7 3-10 3-3 6-5 11-6l16-5h11c2 1 3 4 2 8v16Zm-25-10-3 1-1 2-1 1v3l-1 9v2l1 1 2 1 2-1 8-2 2-1 2-1 1-2v-3l1-9-1-2v-1l-2-1-3 1-7 2ZM113 928v15l-13 4 1-29c0-4 1-7 4-10l10-6 30-8v10l-26 8-4 2-1 3 31-9-1 11-31 9ZM193 919l-30 9c-5 2-8 2-10 0-3-1-3-4-3-8v-16c0-4 2-7 4-10s6-5 11-6l29-9v11l-25 7-5 2-1 4 31-9-1 11-30 9 1 3 4-1 25-7v10ZM240 889l-8 6 12 10-15 4-12-10-5 2-1 13-12 4 1-40 30-9c5-1 8-2 10 0 2 1 3 4 3 8v3l-3 9Zm-28-4v5l13-4 4-1 1-3v-1l-1-1h-1l-2 1-14 4ZM277 866l-1 29-13 4 1-30-15 5v-11l43-12v10l-15 5ZM340 876l-13 4 1-15-18 5-1 15-13 4 1-28 4-10c2-3 6-5 11-6l16-5h10c2 2 3 4 3 8l-1 28Zm-24-22-4 2-2 4 18-5-1-3h-4l-7 2ZM390 855l-4 6c-1 2-3 3-6 4l-34 10v-11l27-8-22-5-3-2-1-5v-2c1-2 2-5 4-6 1-2 4-4 6-4l34-10v10l-27 8 22 5 1 1 1 1a8 8 0 0 1 2 6v2Z"/><g><path class="cls-1" d="M87 979c0 3-1 6-3 8s-5 4-9 5l-14 4v11l-11 3 2-34 25-7h8c2 1 2 4 2 7v3Zm-25 3v5l11-3 2-1h1l1-1v-2l-1-2-3 1-11 3ZM126 989l-10 3v-13l-14 4-1 13-11 3 2-24c0-4 1-6 3-9l9-5 13-3h8c2 1 3 3 2 7l-1 24Zm-19-20-4 2-1 3 15-4-1-2h-3l-6 1ZM165 963c-1 2-3 4-6 5l9 9-12 3-10-8-4 1-1 11-10 3 2-34 24-7h9l2 7v3c0 3-1 5-3 7Zm-22-4-1 5 11-3 3-1 1-2v-2h-3l-11 3ZM207 966l-11 3 1-13-15 4-1 13-10 3 1-24c0-3 1-6 3-8 2-3 5-4 9-5l13-4h9c1 1 2 3 2 7l-1 24Zm-20-20-3 2-1 3 14-4-1-2h-3l-6 1Z"/><path class="cls-2" d="M269 927c0 3-1 6-3 8-2 3-5 4-9 5l-14 4v12l-11 3 2-35 25-7h8c2 2 3 4 2 7v3Zm-25 3v5l11-3h2l1-1 1-1v-1l-1-2h-3l-11 3ZM308 937l-10 3 1-13-15 4-1 13-10 3 1-24c0-3 1-6 3-8 2-3 5-4 9-5l13-4h8c2 1 3 4 3 7l-2 24Zm-19-19-4 1-1 3 15-4-1-2h-3l-6 2ZM350 904c0 4-2 6-3 9-2 2-5 3-9 4l-14 4-1 12-10 3 2-35 24-6c4-2 7-2 9 0 1 1 2 3 2 7v2Zm-25 3-1 5 11-3h2l1-1 1-1v-3h-3l-11 3ZM389 914l-11 3 1-13-15 4v13l-11 3 1-24 4-8c1-3 4-4 8-5l13-4h9c2 1 2 3 2 7l-1 24Zm-19-20-4 2-1 3 15-4-1-2h-4l-5 1Zm-3-8 6-11 11-3-10 12-7 2Z"/></g></svg>