<svg xmlns="http://www.w3.org/2000/svg" id="Capa_1_copia" data-name="Capa 1 copia" viewBox="0 0 209.8 205.6"><defs><linearGradient id="Degradado_sin_nombre_23" x1="212.6" x2="57" y1="-8.9" y2="13" gradientUnits="userSpaceOnUse"><stop offset=".6" stop-color="#292cce"/><stop offset="1" stop-color="#0065ff"/></linearGradient><clipPath id="clip-path"><path fill="none" d="M29.5 189.4h119.7a.4.4 0 0 1 .4.4v13.5a.4.4 0 0 1-.4.4H29.9a.4.4 0 0 1-.4-.4v-13.9Z"/></clipPath><style>.cls-3{fill:#00d300}.cls-4{fill:#fff}.cls-6{fill:#0065ff}.cls-53{fill:#282dcf}.cls-55{fill:#292cce}</style></defs><path fill="url(#Degradado_sin_nombre_23)" d="M0 0h209.8v12.5H0z"/><path d="M20.5 6.3 16 12.5h-3.6l4.5-6.2.9-1.2 2.5 1.2h.2z" class="cls-3"/><path d="m20.5 6.2-.2.1-2.5 1.2-.9-1.2L12.4 0H16l4.5 6.2zm9.8.1-4.5 6.2h-3.6l4.6-6.2.8-1.2 2.6 1.2h.1z" class="cls-3"/><path d="m30.3 6.2-.1.1-2.6 1.2-.8-1.2L22.2 0h3.6l4.5 6.2zm9.8.1-4.4 6.2H32l4.6-6.2.8-1.2L40 6.3h.1z" class="cls-3"/><path d="m40.1 6.2-.1.1-2.6 1.2-.8-1.2L32 0h3.7l4.4 6.2zm10.2.1-4.4 6.2h-3.6l4.5-6.2.8-1.2 2.6 1.2h.1z" class="cls-3"/><path d="m50.3 6.2-.1.1-2.6 1.2-.8-1.2L42.3 0h3.6l4.4 6.2zm10 .1-4.4 6.2h-3.6l4.5-6.2.8-1.2 2.6 1.2h.1z" class="cls-3"/><path d="m60.3 6.2-.1.1-2.6 1.2-.8-1.2L52.3 0h3.6l4.4 6.2zm9.5.1-4.5 6.2h-3.6l4.5-6.2.9-1.2 2.5 1.2h.2z" class="cls-3"/><path d="m69.8 6.2-.2.1-2.5 1.2-.9-1.2L61.7 0h3.6l4.5 6.2z" class="cls-3"/><path d="M90.4 9.3h-4.3c-.7 0-1.1-.1-1.3-.4s-.2-.6 0-1.2l1-2.3a2.5 2.5 0 0 1 1-1.2 3.1 3.1 0 0 1 1.7-.3h4.3L92.3 5h-3.7a1.9 1.9 0 0 0-.5 0 1 1 0 0 0-.3.2 1 1 0 0 0-.3.3 1.9 1.9 0 0 0-.2.3H92l-.5 1.3h-4.6a1.5 1.5 0 0 0-.2.4.4.4 0 0 0 0 .3.3.3 0 0 0 .3.1 1.4 1.4 0 0 0 .4 0H91Zm9.6-5.4-2.5 5.4H96l-1.7-3.1-1.4 3.1h-1.7l2.5-5.5H95L97 7l1.4-3.1Zm4.1 1.1-1.8 4.3h-1.7l1.9-4.2h-2.3l.6-1.3h6.2l-.6 1.3Zm6.6 2.4 1 2h-1.9l-1-2h-1l-.8 2h-1.6l2.4-5.5h4.3c.7 0 1.1 0 1.3.3s.2.7 0 1.2l-.3.4a2.7 2.7 0 0 1-.9 1.2 2.9 2.9 0 0 1-1.5.4Zm.3-2.3h-2.1l-.5 1h2.1a1.7 1.7 0 0 0 .7 0 .9.9 0 0 0 .4-.5 2 2 0 0 0 0-.2.2.2 0 0 0 0-.2.4.4 0 0 0-.2 0Zm7.7 4.2h-4.4c-.6 0-1-.1-1.3-.4s-.1-.6.1-1.2l1-2.3a2.5 2.5 0 0 1 1-1.2 3.1 3.1 0 0 1 1.7-.3h4.3l-.6 1.2H117a1.9 1.9 0 0 0-.5 0 .9.9 0 0 0-.4.2 1 1 0 0 0-.2.3 1.9 1.9 0 0 0-.2.3h4.5l-.5 1.3H115a1.5 1.5 0 0 0-.1.4.4.4 0 0 0 0 .3.3.3 0 0 0 .2.1 1.4 1.4 0 0 0 .5 0h3.6Zm7 0h-4.3c-.7 0-1-.1-1.3-.4s-.1-.6.1-1.2l1-2.3a2.5 2.5 0 0 1 1-1.2 3.1 3.1 0 0 1 1.6-.3h4.4l-.6 1.2H124a1.9 1.9 0 0 0-.5 0 .9.9 0 0 0-.4.2 1.3 1.3 0 0 0-.2.3 2.6 2.6 0 0 0-.2.3l-.6 1.3a1.5 1.5 0 0 0-.1.4.4.4 0 0 0 0 .3.3.3 0 0 0 .2.1 1.4 1.4 0 0 0 .4 0h2l.8-1.7h1.7Zm8.9-3.9-1.8 4h-1.6l1-2.2h-3l-1 2.1h-1.6l1.7-3.9a2.6 2.6 0 0 1 1-1.2 3.1 3.1 0 0 1 1.6-.3h2.4c.7 0 1.1 0 1.3.3s.2.7 0 1.2Zm-4.9.5h3a1.8 1.8 0 0 0 0-.3.4.4 0 0 0 0-.3.3.3 0 0 0-.1-.1 1.4 1.4 0 0 0-.5-.1H131a1.8 1.8 0 0 0-.5 0 .9.9 0 0 0-.3.2 1.3 1.3 0 0 0-.3.3 2.6 2.6 0 0 0-.2.3Zm9.3 3.4h-1.7l2.5-5.5h1.6Zm9.5-5.4-2.4 5.4h-1.5L143 6.2l-1.4 3.1h-1.7l2.5-5.5h1.4l1.8 3.2 1.4-3.1Zm2.5 0 .9 2.9 3.4-3h1.7l-2.4 5.5h-1.7l1.3-2.9-3.3 2.7h-.2l-.8-2.7-1.3 3h-1.7l2.4-5.6Zm10.6 5.4h-4.3c-.7 0-1.1-.1-1.3-.4s-.2-.6 0-1.2l1-2.3a2.6 2.6 0 0 1 1-1.2 3.1 3.1 0 0 1 1.7-.3h4.3l-.6 1.2h-3.6a1.9 1.9 0 0 0-.5 0 1 1 0 0 0-.4.2 1.2 1.2 0 0 0-.2.3 2.6 2.6 0 0 0-.2.3h4.6l-.6 1.3H158a2 2 0 0 0-.1.4.4.4 0 0 0 0 .3.3.3 0 0 0 .1.1 1.3 1.3 0 0 0 .5 0h3.6Zm8.8-3.9-1 2.3a2.6 2.6 0 0 1-1 1.2 3.1 3.1 0 0 1-1.6.4h-4.4l2.5-5.5h4.3c.7 0 1 .2 1.3.4s.1.7-.1 1.2Zm-2.4-.3h-2l-1.3 3h2a1.8 1.8 0 0 0 .5 0 1 1 0 0 0 .3-.2 1 1 0 0 0 .3-.3 2.1 2.1 0 0 0 .2-.4l.6-1.3a2.8 2.8 0 0 0 .1-.3.4.4 0 0 0 0-.3.3.3 0 0 0-.2-.1 1.4 1.4 0 0 0-.5-.1Zm3.2 4.2h-1.7l2.4-5.5h1.7Zm8.8-3.9-1.7 4h-1.7l1-2.2h-3l-1 2.1H172l1.7-3.9a2.6 2.6 0 0 1 1-1.2 3.1 3.1 0 0 1 1.7-.3h2.3c.7 0 1.2 0 1.4.3s.1.7-.1 1.2Zm-4.8.5h3a2.8 2.8 0 0 0 0-.3.4.4 0 0 0 0-.3.3.3 0 0 0-.2-.1 1.4 1.4 0 0 0-.4-.1h-1a1.9 1.9 0 0 0-.6 0 1 1 0 0 0-.3.2 1.2 1.2 0 0 0-.3.3 2.6 2.6 0 0 0-.2.3Zm9.7-.9L183 9.4h-1.7l2-4.2H181l.6-1.2h6.2l-.6 1.2Zm9.1.4-1.6 4h-1.7l1-2.2h-3l-.9 2.1h-1.6l1.7-3.9a2.6 2.6 0 0 1 1-1.2 3.1 3.1 0 0 1 1.6-.3h2.4c.7 0 1.1 0 1.3.3s.1.7-.1 1.2Zm-4.7.5h2.9a2.8 2.8 0 0 0 .1-.3.4.4 0 0 0 0-.3.3.3 0 0 0-.2-.1 1.4 1.4 0 0 0-.4-.1h-1a1.9 1.9 0 0 0-.6 0 1 1 0 0 0-.3.2 1.2 1.2 0 0 0-.3.3 2.6 2.6 0 0 0-.2.3Z" class="cls-4"/><g clip-path="url(#clip-path)"><path d="m127 203.7 14.4-14.3h1a7.1 7.1 0 0 1 7.2 7.1 7.1 7.1 0 0 1-7.2 7.2h-15.3Z" class="cls-6"/><path d="m125.5 203.7 14.3-14.3h1.6l-14.3 14.3h-1.6z" class="cls-6"/><path fill="#0163fd" d="m123.8 203.7 14.4-14.3h1.6l-14.3 14.3h-1.7z"/><path fill="#0361fc" d="m122.2 203.7 14.4-14.3h1.6l-14.4 14.3h-1.6z"/><path fill="#045ffa" d="m120.6 203.7 14.4-14.3h1.6l-14.4 14.3h-1.6z"/><path fill="#055df8" d="m119 203.7 14.3-14.3h1.7l-14.4 14.3H119z"/><path fill="#075cf7" d="m117.3 203.7 14.4-14.3h1.6L119 203.7h-1.7z"/><path fill="#085af5" d="m115.7 203.7 14.4-14.3h1.6l-14.4 14.3h-1.6z"/><path fill="#0958f4" d="m114.1 203.7 14.4-14.3h1.6l-14.4 14.3h-1.6z"/><path fill="#0b56f2" d="m112.5 203.7 14.3-14.3h1.7l-14.4 14.3h-1.6z"/><path fill="#0c55f1" d="m110.9 203.7 14.3-14.3h1.6l-14.3 14.3h-1.6z"/><path fill="#0d53ef" d="m109.2 203.7 14.4-14.3h1.6l-14.3 14.3h-1.7z"/><path fill="#0e51ee" d="m107.6 203.7 14.4-14.3h1.6l-14.4 14.3h-1.6z"/><path fill="#0f50ed" d="m106 203.7 14.4-14.3h1.6l-14.4 14.3H106z"/><path fill="#104eeb" d="m104.4 203.7 14.3-14.3h1.7L106 203.7h-1.6z"/><path fill="#124dea" d="m102.8 203.7 14.3-14.3h1.6l-14.3 14.3h-1.6z"/><path fill="#134be9" d="m101.1 203.7 14.4-14.3h1.6l-14.3 14.3h-1.7z"/><path fill="#144ae7" d="m99.5 203.7 14.4-14.3h1.6l-14.4 14.3h-1.6z"/><path fill="#1548e6" d="m97.9 203.7 14.3-14.3h1.7l-14.4 14.3h-1.6z"/><path fill="#1647e5" d="m96.3 203.7 14.3-14.3h1.6l-14.3 14.3h-1.6z"/><path fill="#1745e4" d="m94.6 203.7 14.4-14.3h1.6l-14.3 14.3h-1.7z"/><path fill="#1844e3" d="m93 203.7 14.4-14.3h1.6l-14.4 14.3H93z"/><path fill="#1943e2" d="m91.4 203.7 14.4-14.3h1.6L93 203.7h-1.6z"/><path fill="#1942e1" d="m89.8 203.7 14.3-14.3h1.7l-14.4 14.3h-1.6z"/><path fill="#1a40e0" d="m88.1 203.7 14.4-14.3h1.6l-14.3 14.3h-1.7z"/><path fill="#1b3fdf" d="m86.5 203.7 14.4-14.3h1.6l-14.4 14.3h-1.6z"/><path fill="#1c3ede" d="m84.9 203.7 14.4-14.3h1.6l-14.4 14.3h-1.6z"/><path fill="#1d3ddd" d="m83.3 203.7 14.3-14.3h1.7l-14.4 14.3h-1.6z"/><path fill="#1e3cdc" d="M81.7 203.7 96 189.4h1.6l-14.3 14.3h-1.6z"/><path fill="#1e3bdb" d="m80 203.7 14.4-14.3H96l-14.3 14.3H80z"/><path fill="#1f3ada" d="m78.4 203.7 14.4-14.3h1.6L80 203.7h-1.6z"/><path fill="#2039d9" d="m76.8 203.7 14.4-14.3h1.6l-14.4 14.3h-1.6z"/><path fill="#2038d8" d="m75.2 203.7 14.3-14.3h1.7l-14.4 14.3h-1.6z"/><path fill="#2137d7" d="m73.5 203.7 14.4-14.3h1.6l-14.3 14.3h-1.7z"/><path fill="#2236d7" d="m71.9 203.7 14.4-14.3h1.6l-14.4 14.3h-1.6z"/><path fill="#2235d6" d="m70.3 203.7 14.4-14.3h1.6l-14.4 14.3h-1.6z"/><path fill="#2334d5" d="M68.7 203.7 83 189.4h1.7l-14.4 14.3h-1.6zm-1.7 0 14.4-14.3H83l-14.3 14.3H67z"/><path fill="#2433d4" d="m65.4 203.7 14.4-14.3h1.6L67 203.7h-1.6z"/><path fill="#2432d3" d="m63.8 203.7 14.4-14.3h1.6l-14.4 14.3h-1.6z"/><path fill="#2532d3" d="m62.2 203.7 14.3-14.3h1.7l-14.4 14.3h-1.6z"/><path fill="#2531d2" d="m60.6 203.7 14.3-14.3h1.6l-14.3 14.3h-1.6z"/><path fill="#2630d2" d="m58.9 203.7 14.4-14.3h1.6l-14.3 14.3h-1.7z"/><path fill="#2630d1" d="m57.3 203.7 14.4-14.3h1.6l-14.4 14.3h-1.6z"/><path fill="#272fd1" d="m55.7 203.7 14.4-14.3h1.6l-14.4 14.3h-1.6z"/><path fill="#272fd0" d="m54.1 203.7 14.3-14.3h1.7l-14.4 14.3h-1.6z"/><path fill="#272ed0" d="m52.5 203.7 14.3-14.3h1.6l-14.3 14.3h-1.6z"/><path fill="#282ed0" d="m50.8 203.7 14.4-14.3h1.6l-14.3 14.3h-1.7z"/><path fill="#282ecf" d="m49.2 203.7 14.4-14.3h1.6l-14.4 14.3h-1.6z"/><path d="M47.6 203.7 62 189.4h1.6l-14.4 14.3h-1.6zm-1.6 0 14.3-14.3H62l-14.4 14.3H46z" class="cls-53"/><path d="m44.3 203.7 14.4-14.3h1.6L46 203.7h-1.7z" class="cls-53"/><path fill="#292dce" d="m42.7 203.7 14.4-14.3h1.6l-14.4 14.3h-1.6z"/><path d="m41.1 203.7 14.4-14.3h1.6l-14.4 14.3h-1.6z" class="cls-55"/><path d="m39.5 203.7 14.3-14.3h1.7l-14.4 14.3h-1.6z" class="cls-55"/><path d="m37.9 203.7 14.3-14.3h1.6l-14.3 14.3h-1.6z" class="cls-55"/><path d="m36.2 203.7 14.4-14.3h1.6l-14.3 14.3h-1.7z" class="cls-55"/><path d="M34.6 203.7 49 189.4h1.6l-14.4 14.3h-1.6z" class="cls-55"/><path d="m49 189.4-14.4 14.3a5 5 0 0 1-5-5v-9.3Z" class="cls-55"/></g><path fill="#10d100" d="m25 177.7-2 5.8a5.2 5.2 0 0 1-2.3 2.9 9.8 9.8 0 0 1-4.7 1H9c-2 0-3.4-.3-4-1s-.9-1.6-.4-3l2-5.7a5.2 5.2 0 0 1 2.4-3 9.7 9.7 0 0 1 4.7-.9h7c2 0 3.5.3 4.1 1s.7 1.6.3 3Zm-7.4-.8h-3.1a6.7 6.7 0 0 0-1.5.1 2.7 2.7 0 0 0-1 .4 2.2 2.2 0 0 0-.6.6 4.2 4.2 0 0 0-.4 1l-1.1 3.2a3.5 3.5 0 0 0-.2 1 1 1 0 0 0 .1.6 1.3 1.3 0 0 0 .8.3 5.9 5.9 0 0 0 1.3.2h3.2a6.5 6.5 0 0 0 1.5-.2 3.1 3.1 0 0 0 1-.3 2.2 2.2 0 0 0 .6-.7 4.6 4.6 0 0 0 .4-.9l1.1-3.2a3.6 3.6 0 0 0 .2-1 .9.9 0 0 0-.2-.6 1.3 1.3 0 0 0-.7-.4 6.3 6.3 0 0 0-1.4 0ZM29 187.3h-5l3.4-9.6a5.2 5.2 0 0 1 2.4-3 9.7 9.7 0 0 1 4.7-.9h12.8l-1 3.1h-11a6.7 6.7 0 0 0-1.4.1 2.7 2.7 0 0 0-1 .4 2 2 0 0 0-.6.7 4.6 4.6 0 0 0-.4.9h13.6l-1 3H30.8Zm34.5 0H50.7c-2 0-3.4-.3-4-1s-.9-1.6-.4-2.9l2-5.7a5.2 5.2 0 0 1 2.4-3 9.7 9.7 0 0 1 4.7-1h12.8l-1 3.2h-11a6.6 6.6 0 0 0-1.4 0 2.7 2.7 0 0 0-1 .5 2 2 0 0 0-.6.6 4.6 4.6 0 0 0-.5 1h13.7l-1 3H51.6v.1a3.7 3.7 0 0 0-.2 1 .9.9 0 0 0 .2.6 1.3 1.3 0 0 0 .7.4 5.8 5.8 0 0 0 1.4 0h10.8Zm21.2 0H79l-3.7-4.6h-3l-1.7 4.6H66l4.6-13.5h12.8c2 0 3.4.3 4.1 1s.8 1.6.3 3l-.3 1a5.3 5.3 0 0 1-2.2 2.8 8.6 8.6 0 0 1-4.2 1ZM74.4 177l-1 2.7h6.3a9.7 9.7 0 0 0 1.2 0 2.8 2.8 0 0 0 .9-.3 1.1 1.1 0 0 0 .5-.4 2.5 2.5 0 0 0 .3-.7 2.1 2.1 0 0 0 .2-.6.5.5 0 0 0-.2-.5 1.6 1.6 0 0 0-.7-.1h-1.3Zm27.6 0-3.6 10.3h-5L97 177h-6.7l1-3h18.5l-1 3Zm27.3.7-3.3 9.6h-5l2-5.3h-8.8l-1.9 5.3h-4.9l3.3-9.6a5.2 5.2 0 0 1 2.4-3 9.7 9.7 0 0 1 4.8-.9h7c2 0 3.4.3 4 1s.9 1.6.4 3Zm-14 1.3h8.7a3.6 3.6 0 0 0 .2-1 1 1 0 0 0-.2-.6 1.4 1.4 0 0 0-.7-.3 5.7 5.7 0 0 0-1.4-.2h-3.2a7.4 7.4 0 0 0-1.4.2 3 3 0 0 0-1 .3 2.2 2.2 0 0 0-.7.7 4.2 4.2 0 0 0-.4.9Zm32.7 5.8a6.2 6.2 0 0 1-2 1.9 5.7 5.7 0 0 1-2.8.6h-14.9l1-3h11.8c.3 0 .6-.1.6-.3v-.3a.7.7 0 0 0-.2-.1l-8.6-4a1.8 1.8 0 0 1-1-1.2 3 3 0 0 1 0-1.7 2.6 2.6 0 0 1 .2-.4 6.2 6.2 0 0 1 2-1.8 5.6 5.6 0 0 1 2.9-.7h14.8l-1 3.1h-11.9a1 1 0 0 0-.4.1.5.5 0 0 0-.2.2.4.4 0 0 0 .3.4l8.7 4a2.5 2.5 0 0 1 .5.3 1.8 1.8 0 0 1 .4.6 2.3 2.3 0 0 1 .2.9 3 3 0 0 1-.2 1 1.5 1.5 0 0 1-.2.4Z"/><path d="m56.2 195-1.1 3.7a3.3 3.3 0 0 1-1.4 2 5.1 5.1 0 0 1-2.7.5h-7.4l2.7-8.7h7.4a3.3 3.3 0 0 1 2.3.6 1.9 1.9 0 0 1 .2 1.9Zm-4.3-.5h-3.4l-1.5 4.7h3.4a3.4 3.4 0 0 0 .9 0 1.8 1.8 0 0 0 .5-.3 1.2 1.2 0 0 0 .4-.4 2.8 2.8 0 0 0 .2-.6l.7-2a2.4 2.4 0 0 0 0-.7.6.6 0 0 0 0-.4.7.7 0 0 0-.4-.3 3 3 0 0 0-.8 0Zm14.4 6.7h-7.4a3.2 3.2 0 0 1-2.3-.6 1.9 1.9 0 0 1-.2-1.9l1.1-3.7a3.3 3.3 0 0 1 1.4-1.9 5 5 0 0 1 2.7-.6H69l-.6 2H62a3.5 3.5 0 0 0-.8 0 1.5 1.5 0 0 0-.6.3 1.4 1.4 0 0 0-.4.4 3 3 0 0 0-.2.6h8l-.6 2h-8v.1a2 2 0 0 0 0 .6.6.6 0 0 0 0 .4.8.8 0 0 0 .5.3 3 3 0 0 0 .8 0h6.2Zm18.3 0h-3.2l-2.2-3h-1.7l-.9 3h-2.8l2.6-8.7h7.4a3.3 3.3 0 0 1 2.4.6 1.9 1.9 0 0 1 .1 1.9l-.2.7a3.4 3.4 0 0 1-1.2 1.8 4.5 4.5 0 0 1-2.5.7Zm-6-6.7-.5 1.7h3.7a5.3 5.3 0 0 0 .6 0 1.6 1.6 0 0 0 .5-.1.7.7 0 0 0 .3-.3 2 2 0 0 0 .2-.4 1.7 1.7 0 0 0 .1-.5.3.3 0 0 0-.1-.2.7.7 0 0 0-.4-.2 4.3 4.3 0 0 0-.7 0Zm17.8 6.7H89a3.2 3.2 0 0 1-2.3-.6 1.9 1.9 0 0 1-.2-1.9l1.2-3.7a3.3 3.3 0 0 1 1.3-1.9 5 5 0 0 1 2.7-.6h7.4l-.6 2h-6.3a3.4 3.4 0 0 0-.8 0 1.5 1.5 0 0 0-.6.3 1.3 1.3 0 0 0-.3.4 2.5 2.5 0 0 0-.3.6h7.9l-.6 2h-7.9v.1a2 2 0 0 0-.1.6.6.6 0 0 0 0 .4.8.8 0 0 0 .5.3 3 3 0 0 0 .8 0H97Zm11.9-8.7h2.8l-1 3.2a3.2 3.2 0 0 1-1.3 1.9 5 5 0 0 1-2.7.6h-.7l-.9 3h-2.8l.9-3h-.6a3.2 3.2 0 0 1-2.4-.6 1.9 1.9 0 0 1-.1-2l1-3.1h2.8l-.8 2.4a3.2 3.2 0 0 0 0 .6.7.7 0 0 0 0 .4.7.7 0 0 0 .4.2 3 3 0 0 0 .8.1h1.8a3.4 3.4 0 0 0 .9 0 1.5 1.5 0 0 0 .6-.3 1.3 1.3 0 0 0 .3-.4 3.2 3.2 0 0 0 .3-.6Zm12.2 8.7H113a3.2 3.2 0 0 1-2.4-.6 1.9 1.9 0 0 1-.2-1.9l1.2-3.7a3.3 3.3 0 0 1 1.3-2 5.1 5.1 0 0 1 2.7-.5h7.4l-.6 2h-6.2a3.4 3.4 0 0 0-.9 0 1.4 1.4 0 0 0-.5.3 1.1 1.1 0 0 0-.4.4 2.5 2.5 0 0 0-.2.6h7.8l-.6 2h-7.9v.1a2.4 2.4 0 0 0 0 .6.6.6 0 0 0 0 .4.8.8 0 0 0 .4.3 3 3 0 0 0 .8 0h6.3Zm12.6-1.6a3.6 3.6 0 0 1-1.2 1.2 3 3 0 0 1-1.6.4h-8.5l.6-2h6.8c.2 0 .3 0 .3-.2v-.2a.6.6 0 0 0-.1 0l-5-2.6a1.1 1.1 0 0 1-.6-.8 2.2 2.2 0 0 1 0-1 2.4 2.4 0 0 1 .2-.3 3.7 3.7 0 0 1 1.1-1.2 3 3 0 0 1 1.6-.4h8.6l-.7 2H128a.5.5 0 0 0-.3 0 .3.3 0 0 0-.1.2.3.3 0 0 0 .2.2l5 2.5a1.3 1.3 0 0 1 .3.3 1.2 1.2 0 0 1 .2.4 1.7 1.7 0 0 1 .1.5 2 2 0 0 1-.1.7.7.7 0 0 1-.1.3Zm3.7 1.6h-2.9l.6-2h2.9Zm.9-3h-2.9l1.8-5.7h2.8Z" class="cls-4"/></svg>