<svg xmlns="http://www.w3.org/2000/svg" id="Capa_1_copia" data-name="Capa 1 copia" viewBox="0 0 209.8 205.6"><defs><style>.cls-1{fill:#fe5102}</style></defs><path d="M34.8 175.1a1.9 1.9 0 0 0 .3-.7 2.1 2.1 0 0 1 2.3-1.6.4.4 0 0 0 .4-.3 12.8 12.8 0 0 1 .4-1.2 2.2 2.2 0 0 1 2.6-1.5 2.1 2.1 0 0 1 1.6 2.5 5 5 0 0 0 0 1.9c.2 0 .2-.3.3-.4.4-1 .8-2 1.3-2.8a2.1 2.1 0 0 1 3-1 2 2 0 0 1 1 2 16.3 16.3 0 0 1-.5 3.4 3.5 3.5 0 0 0-.1 1c0 .2.1.3.3.1a2.3 2.3 0 0 1 1-.6c.3 0 .4-.3.5-.5a3.8 3.8 0 0 1 .6-1.2 2.1 2.1 0 0 1 3.7 1c0 .2 0 .4.2.5.2 0 .2-.3.3-.4l1-2.4a2.1 2.1 0 0 1 2.7-1.2 2 2 0 0 1 1.4 2c0 .4 0 .5.5.4a.7.7 0 0 1 .5 0c.5.2.7 0 1-.4a2.1 2.1 0 0 1 2.6-1.1.5.5 0 0 0 .5-.2 2 2 0 0 1 1.3-.7 1.3 1.3 0 0 0 .6-.3 2 2 0 0 1 3 .4c.3.3.4.4.7.2a6 6 0 0 1 3.6 1c.4.3.4 0 .5-.3a2.1 2.1 0 0 1 3.2-1 2 2 0 0 1 .8 1.3c0 .4.2.5.6.5a.4.4 0 0 1 .1 0c.8.1.8.1 1-.7l.7-1.9a2.2 2.2 0 0 1 2.5-1.6 2.2 2.2 0 0 1 1.7 2.5l-.2 1.2a.4.4 0 0 0 0 .3h.3a2.5 2.5 0 0 1 1-.4c.3 0 .3-.3.3-.5l.8-2.7a2.2 2.2 0 0 1 2-1.7 2.1 2.1 0 0 1 2.2 2.1 10 10 0 0 1-.3 2.3c0 .2-.2.4 0 .5s.2 0 .4-.2a2.2 2.2 0 0 1 3 .6c.1.2.3.2.5 0a2.1 2.1 0 0 1 2.4-.5c.3.1.4 0 .5-.2l.5-1.4a2.2 2.2 0 0 1 2.4-1.5 2.2 2.2 0 0 1 1.8 2.3v1.4c0 .3 0 .4.3.4a2.1 2.1 0 0 1 2.6 2v1.4l.4-.1a2 2 0 0 1 2.3-.4 2.1 2.1 0 0 1 1.3 2 12.7 12.7 0 0 1-.5 3.3 151 151 0 0 1-1 4.2.8.8 0 0 0 0 .8 2.4 2.4 0 0 1 .7 2 15.4 15.4 0 0 1-.6 3.1l-.7 2.3a2.2 2.2 0 0 1-1.9 1.7.6.6 0 0 0-.5.3l-.6 1.3a2.3 2.3 0 0 1-2.4 1.3 2.1 2.1 0 0 1-1.8-2c0-.3-.2-.3-.4 0a2.2 2.2 0 0 1-2.8.4 1.4 1.4 0 0 0-.5-.1 2.1 2.1 0 0 1-1.5-.7c-.2-.2-.3-.3-.6 0a2 2 0 0 1-2 .4c-.3-.1-.4 0-.5.2a3.6 3.6 0 0 1-.9 1.3 2 2 0 0 1-2.3.4c-.3-.1-.5-.1-.7.2a2 2 0 0 1-3.7-.5c-.1-.4-.2-.4-.5-.2a2.2 2.2 0 0 1-3.4-.2 2.5 2.5 0 0 0-.3-.3c-.4-.5-.6-.4-1 0a2 2 0 0 1-2.2.5.6.6 0 0 0-.7.1 2 2 0 0 1-2.7.4c-.3-.2-.5-.2-.5.2a11.8 11.8 0 0 1-.5 1.4 2.2 2.2 0 0 1-2.4 1.5 2 2 0 0 1-1.7-2.2c0-.3 0-.5-.4-.6a1.4 1.4 0 0 1-.3-.1c-.6-.5-.6-.5-.8.3a5.7 5.7 0 0 1-.6 1.2 2.1 2.1 0 0 1-2.6.9A2.1 2.1 0 0 1 62 199l.5-1.7c-.2-.1-.3 0-.4 0a2 2 0 0 1-2.1.3c-.4-.2-.5 0-.6.2a4.4 4.4 0 0 1-.3 1 2 2 0 0 1-2.7 1 .8.8 0 0 0-.8 0 2 2 0 0 1-1.7 0 .9.9 0 0 0-.7.1 2 2 0 0 1-2-.2 1 1 0 0 0-.8-.2 4.8 4.8 0 0 0-2.3.7c-.8.3-1.9.3-2.8.6a1 1 0 0 1-.5 0 .7.7 0 0 0-.7.2 2 2 0 0 1-1.8.4.4.4 0 0 0-.6.3 2 2 0 0 1-3.7-.1l-.1-.2c-.8-.3-1.4-1-2.3-1a6.6 6.6 0 0 1-1.7 0 1.4 1.4 0 0 0-1.2.4 2 2 0 0 1-3.3-.2c-.2-.3-.3-.2-.5.1l-1.1 2.3a2.2 2.2 0 0 1-3.4 1h-1c-.6-.3-.9 0-1.2.5a1.9 1.9 0 0 1-2.1.8 2 2 0 0 1-1.6-1.7c0-.5-.2-.6-.7-.4A2 2 0 0 1 15 202c-.1-.3-.2-.5-.6-.3a1.9 1.9 0 0 1-1.9 0H10a3.3 3.3 0 0 1-1.7-.2c-.2 0-.3 0-.4.2a4.3 4.3 0 0 1-.5 1 2.1 2.1 0 0 1-2.6 1 2.1 2.1 0 0 1-1.2-2.5l.1-.6c.1-.2.2-.3 0-.4s-.3 0-.4 0a2.1 2.1 0 0 1-3-2.2 3.3 3.3 0 0 0-.1-1.8A2.2 2.2 0 0 1 0 195c.4-3.8.2-7.6.6-11.4a7.5 7.5 0 0 1 .2-1.5 2 2 0 0 1 2.5-1.6c.4 0 .5 0 .5-.3a6.4 6.4 0 0 1 .6-2.2c.5-.9 1-1.8 1.3-2.7a2 2 0 0 1 2.3-1 2.1 2.1 0 0 1 1.7 1.8l.1 1.2c.1.1.7-.2 1-.2a9.4 9.4 0 0 0 2 0 2 2 0 0 1 2 1.5 1.4 1.4 0 0 0 .2.4c.4.5.7.4 1-.2l.6-1.6a2.2 2.2 0 0 1 2-1.5 2 2 0 0 1 2 1.3c.2.4.4.2.5 0a8.3 8.3 0 0 1 .4-.8 2 2 0 0 1 1.8-1 .6.6 0 0 0 .6-.5 2.7 2.7 0 0 1 .5-1 2.2 2.2 0 0 1 2.3-.7 2 2 0 0 1 1.5 2l.1.4c.1.1.3-.2.4-.3a2.1 2.1 0 0 1 2.3-.6.7.7 0 0 0 .7 0 2 2 0 0 1 3 .6.7.7 0 0 0 .1 0Zm25 6.4c0-1.8-.7-2.7-2.1-3a9.4 9.4 0 0 0-3.6 0 3 3 0 0 1-2.2-.1 1 1 0 0 0-1.3.3 2.8 2.8 0 0 0-.5 3 3.2 3.2 0 0 1 .4 1l.6 4.2 1 6.1a14.3 14.3 0 0 0 .4 2.3 1.3 1.3 0 0 0 2.5 0 2.2 2.2 0 0 0 .2-1.3l-.3-1.4c-.1-.4 0-.7.5-.8l2.7-.3 4.6-.4a3.3 3.3 0 0 0 1.4-.4 1.2 1.2 0 0 0 .6-1.1 1.2 1.2 0 0 0-.7-1.2 3 3 0 0 0-1.7-.1l-5.9.7a.3.3 0 0 1-.3-.2v-.3a46.6 46.6 0 0 0 2.6-4.2 8 8 0 0 0 1-2.8Zm20.6 12.2a6 6 0 0 0 0 1.2A1.3 1.3 0 0 0 82 196a1.4 1.4 0 0 0 1.2-1.4l.5-5.7c0-.8.3-1 1-1a8 8 0 0 0 1.7 0c.7-.2.9 0 1 .6l.7 2.2a17.7 17.7 0 0 0 .7 2.3 1.3 1.3 0 0 0 1.6.9 1.2 1.2 0 0 0 1-1.5 3.5 3.5 0 0 0-.2-.7l-1.7-6.5a73 73 0 0 0-2.5-8 2.8 2.8 0 0 0-2.5-1.8 1.2 1.2 0 0 0-1.5 1 9.1 9.1 0 0 0-.3.8 44.7 44.7 0 0 0-1.3 7.3 1.7 1.7 0 0 1-.8 1.3 1.1 1.1 0 0 0-.2 2 1.6 1.6 0 0 1 .4 1.5l-.3 4.4Zm-61.8-1.4a17.6 17.6 0 0 0-3-8.8 5 5 0 0 0-1.2-1.3 4 4 0 0 0-4.5-.2l-1 .7a4.7 4.7 0 0 0-2.3 3.2 19 19 0 0 0 .1 7.6 9.2 9.2 0 0 0 2.5 4.9 4.8 4.8 0 0 0 7.4-.4 8.5 8.5 0 0 0 2-5.7Zm22.9 5.5h.9a18 18 0 0 0 6-2.6 1.7 1.7 0 0 0 .3-.3 1.3 1.3 0 0 0 .3-2c-.4-.5-1-.6-1.8-.2l-2.3 1.3a6.6 6.6 0 0 1-3.2.9c-.8 0-1.1-.3-1.4-1.1s-.2-1.5-.4-2.2c-.1-.5 0-.8.6-1l1.8-.5a1.4 1.4 0 0 0 1.2-1.1 1.4 1.4 0 0 0-1.8-1.5l-1.3.4c-.8.2-1 .1-1-.7l-.5-3c-.1-1 0-1 .8-1h.2a16.6 16.6 0 0 0 3-.6c.8-.3 1.2-.9 1-1.7a1.4 1.4 0 0 0-1.7-1 47.7 47.7 0 0 1-5.2.7 2.7 2.7 0 0 0-2.3 1.3 1.3 1.3 0 0 0 .6 2 1.1 1.1 0 0 1 .9 1.1l.4 2.6a1.6 1.6 0 0 1-.3 1.4 1.2 1.2 0 0 0 .2 1.8 2 2 0 0 1 .6 1.2 17.9 17.9 0 0 0 .7 3.1 3.6 3.6 0 0 0 3.7 2.7Zm-11-14.5h1.1c1 0 1.7-.5 1.7-1.3a1.6 1.6 0 0 0-1.6-1.6 31.2 31.2 0 0 0-7 .4 2.4 2.4 0 0 1-1.7-.3 1 1 0 0 0-1.3.1 8.6 8.6 0 0 1-1.4 1 1.3 1.3 0 0 0-.8 1.4 1.4 1.4 0 0 0 1.2 1.3.8.8 0 0 1 .6.4 4.3 4.3 0 0 1 .5 3.5 1.4 1.4 0 0 0 .4 1.7 1.4 1.4 0 0 1 .4.8l.8 4.7a12.3 12.3 0 0 0 1 3.2 1.3 1.3 0 0 0 1.6.8 1.4 1.4 0 0 0 1-1.9c-.7-2.2-1-4.6-1.5-6.9a.6.6 0 0 1 .5-.7l.5-.1c.7-.2 1.4-.1 2-.3a1.5 1.5 0 0 0 1.3-1.7 1.4 1.4 0 0 0-1.7-1.1l-2.4.2c-.6 0-.7 0-.9-.6l-.3-1.7c-.2-.6 0-1 .7-1 1.7 0 3.4-.3 5.2-.3ZM77 180a1.3 1.3 0 0 0 1-.6 1.4 1.4 0 0 0-1.1-2.1 8 8 0 0 0-1.8-.1l-5.2.4a1.5 1.5 0 0 1-1.4-.6 1.3 1.3 0 0 0-2.2.4 1.5 1.5 0 0 1-1.4 1 17 17 0 0 0-2.9.4 1.2 1.2 0 0 0-1 1.2 1.4 1.4 0 0 0 1.9 1.5l2.6-.5c.8-.2 1.2 0 1.4 1l2 11a11.1 11.1 0 0 0 1 2.7 1.4 1.4 0 0 0 1.6.8 1.3 1.3 0 0 0 1-1.4 2.2 2.2 0 0 0-.2-.8 35.6 35.6 0 0 1-1.4-5.6c-.4-2.4-.7-4.8-1.3-7.1-.1-.9.1-1.1.8-1.2a33.5 33.5 0 0 1 6.6-.4Zm19.3-4a4.4 4.4 0 0 0-3.5 1.7 5.3 5.3 0 0 0 0 6 13.8 13.8 0 0 0 3.6 3.7 7 7 0 0 1 1.5 1.5c.5.6.4.9-.4 1a6.1 6.1 0 0 1-2.4-.2 1.3 1.3 0 0 0-1.6.9 1.2 1.2 0 0 0 .8 1.6c2.5 1.1 5 .7 6.6-1.9a1.1 1.1 0 0 0 .2-.6 4.5 4.5 0 0 0-1.6-3 17.4 17.4 0 0 0-2.7-2.3 5.7 5.7 0 0 1-2.1-2.8 2.3 2.3 0 0 1 .6-2.6c.6-.4.9-.4 1.2.2a1.1 1.1 0 0 0 1.2.6 1.3 1.3 0 0 0 1.1-.7 2.1 2.1 0 0 0-1.1-2.9 3.6 3.6 0 0 0-1.4-.3Z" class="cls-1"/><path fill="#fefcfb" d="M59.8 181.5a8 8 0 0 1-1 2.8 46.6 46.6 0 0 1-2.7 4.2c0 .1-.1.2 0 .4a.3.3 0 0 0 .3.1l5.9-.7a3 3 0 0 1 1.7.1 1.2 1.2 0 0 1 .7 1.2 1.2 1.2 0 0 1-.6 1.2 3.3 3.3 0 0 1-1.4.3l-4.6.4c-1 0-1.8.3-2.7.4-.5 0-.6.3-.5.7l.3 1.5a2.2 2.2 0 0 1-.2 1.3 1.3 1.3 0 0 1-2.5-.1 14.3 14.3 0 0 1-.4-2.3l-1-6.1-.6-4.1a3.2 3.2 0 0 0-.4-1.1 2.8 2.8 0 0 1 .5-3 1 1 0 0 1 1.3-.3 3 3 0 0 0 2.2.2 9.4 9.4 0 0 1 3.6 0c1.4.2 2.1 1.1 2 2.9Zm-6 5.1a21.9 21.9 0 0 0 3-5c.2-.2 0-.4-.2-.4l-2.9.2a.5.5 0 0 0-.4.6l.6 4.6Zm26.6 7.1.3-4.4a1.6 1.6 0 0 0-.4-1.6 1.1 1.1 0 0 1 .2-1.9 1.7 1.7 0 0 0 .8-1.3 44.7 44.7 0 0 1 1.4-7.3 9.1 9.1 0 0 1 .3-.9 1.2 1.2 0 0 1 1.4-.9 2.8 2.8 0 0 1 2.5 1.8 73 73 0 0 1 2.5 8l1.8 6.5a3.5 3.5 0 0 1 .1.7 1.2 1.2 0 0 1-1 1.5 1.3 1.3 0 0 1-1.5-.9 17.7 17.7 0 0 1-.8-2.3l-.6-2.1c-.2-.8-.4-.8-1.1-.7a8 8 0 0 1-1.6 0c-.8 0-1 .2-1.1 1l-.5 5.7a1.4 1.4 0 0 1-1.2 1.4 1.3 1.3 0 0 1-1.5-1.1 6 6 0 0 1 0-1.2Zm4.5-13.6a15.8 15.8 0 0 0-.8 4.3c0 .7.2.8.8.7a3.3 3.3 0 0 1 .9 0c.5.1.6 0 .5-.6l-.5-2a14.2 14.2 0 0 0-.9-2.4Zm-66.3 12.2a8.5 8.5 0 0 1-2 5.7 4.8 4.8 0 0 1-7.4.4 9.2 9.2 0 0 1-2.5-5 19 19 0 0 1-.2-7.5 4.7 4.7 0 0 1 2.3-3.3l1-.6a4 4 0 0 1 4.5.2 5 5 0 0 1 1.3 1.3 17.6 17.6 0 0 1 3 8.8ZM9 188.8l.1 1.5a13.6 13.6 0 0 0 .8 4.4 4.5 4.5 0 0 0 1.7 2 1.9 1.9 0 0 0 2.6-.3 6.2 6.2 0 0 0 1.5-5.2A16.2 16.2 0 0 0 14 186a3.4 3.4 0 0 0-1.3-1.5.8.8 0 0 0-1 0 1.6 1.6 0 0 1-1 .6 1.5 1.5 0 0 0-1.3 1.2 12.6 12.6 0 0 0-.3 2.6Zm32.5 9a3.6 3.6 0 0 1-3.7-2.7 17.9 17.9 0 0 1-.7-3 2 2 0 0 0-.6-1.3 1.2 1.2 0 0 1-.2-1.8 1.6 1.6 0 0 0 .3-1.4l-.4-2.6a1.1 1.1 0 0 0-.9-1 1.3 1.3 0 0 1-.6-2 2.7 2.7 0 0 1 2.3-1.4 47.7 47.7 0 0 0 5.2-.6 1.4 1.4 0 0 1 1.7 1c.2.7-.2 1.3-1 1.6a16.6 16.6 0 0 1-3 .5h-.2c-.9.1-1 .3-.8 1.1l.4 3c.1.8.3 1 1 .7l1.4-.3a1.4 1.4 0 0 1 1.8 1.4 1.4 1.4 0 0 1-1.1 1.2l-1.9.5c-.6.1-.7.4-.6 1l.5 2.2c.2.7.5 1 1.3 1a6.6 6.6 0 0 0 3.2-.9l2.3-1.2c.8-.4 1.4-.3 1.8.2a1.3 1.3 0 0 1-.3 2 1.7 1.7 0 0 1-.3.3 18 18 0 0 1-6 2.5H42Zm-11.1-14.5c-1.7 0-3.5.3-5.3.4-.7 0-.8.2-.6 1l.3 1.7c0 .6.2.7.8.6a30 30 0 0 1 2.5-.3 1.4 1.4 0 0 1 1.6 1.2 1.5 1.5 0 0 1-1.2 1.6c-.7.3-1.4.2-2 .3l-.6.1a.6.6 0 0 0-.4.8c.5 2.3.7 4.6 1.4 6.9a1.4 1.4 0 0 1-1 1.9 1.3 1.3 0 0 1-1.7-.8 12.3 12.3 0 0 1-.8-3.2l-.9-4.7a1.4 1.4 0 0 0-.4-.8 1.4 1.4 0 0 1-.4-1.8 4.3 4.3 0 0 0-.4-3.5.8.8 0 0 0-.7-.3 1.4 1.4 0 0 1-1.2-1.4 1.3 1.3 0 0 1 .8-1.4 8.6 8.6 0 0 0 1.4-1 1 1 0 0 1 1.3-.1 2.4 2.4 0 0 0 1.7.3 31.2 31.2 0 0 1 7-.4 1.6 1.6 0 0 1 1.6 1.6c0 .8-.7 1.3-1.6 1.3h-1.2ZM77 180a33.5 33.5 0 0 0-6.6.3c-.6 0-.9.3-.7 1.2l1.3 7a35.6 35.6 0 0 0 1.4 5.7 2.2 2.2 0 0 1 .2.8 1.3 1.3 0 0 1-1 1.4 1.4 1.4 0 0 1-1.6-.8 11.1 11.1 0 0 1-1-2.8L67 182c-.3-1-.4-1.1-1.4-1l-2.7.5a1.4 1.4 0 0 1-1.8-1.6 1.2 1.2 0 0 1 1-1 17 17 0 0 1 2.9-.6 1.5 1.5 0 0 0 1.3-1 1.3 1.3 0 0 1 2.3-.3 1.5 1.5 0 0 0 1.4.6l5.1-.4a8 8 0 0 1 1.8 0 1.4 1.4 0 0 1 1.1 2.3 1.3 1.3 0 0 1-1 .5Z"/><path fill="#fefbfb" d="M96.3 175.8a3.6 3.6 0 0 1 1.4.3 2.1 2.1 0 0 1 1.1 2.8 1.3 1.3 0 0 1-1.1.8 1.1 1.1 0 0 1-1.2-.6c-.4-.6-.7-.7-1.2-.2a2.3 2.3 0 0 0-.7 2.6 5.7 5.7 0 0 0 2.2 2.8 17.4 17.4 0 0 1 2.7 2.3 4.5 4.5 0 0 1 1.5 3 1.1 1.1 0 0 1-.1.6c-1.6 2.6-4.1 3-6.7 1.9a1.2 1.2 0 0 1-.7-1.7 1.3 1.3 0 0 1 1.6-.8 6.1 6.1 0 0 0 2.4.2c.7-.2.8-.4.4-1a7 7 0 0 0-1.6-1.6 13.8 13.8 0 0 1-3.6-3.6 5.3 5.3 0 0 1 0-6 4.4 4.4 0 0 1 3.6-1.8Z"/><path d="m53.9 186.6-.6-4.6a.5.5 0 0 1 .4-.5l2.9-.3c.3 0 .4.2.3.5a21.9 21.9 0 0 1-3 5Zm31.1-6.5a14.2 14.2 0 0 1 .8 2.4l.5 2c.2.7 0 .6-.5.6a3.3 3.3 0 0 0-.9 0c-.6 0-.8 0-.8-.7a15.8 15.8 0 0 1 .8-4.3Z" class="cls-1"/><path fill="#fe5001" d="M9 188.8a12.6 12.6 0 0 1 .3-2.5 1.5 1.5 0 0 1 1.3-1.3 1.6 1.6 0 0 0 1-.5.8.8 0 0 1 1 0 3.4 3.4 0 0 1 1.3 1.4 16.2 16.2 0 0 1 1.8 5.4 6.2 6.2 0 0 1-1.5 5.1 1.9 1.9 0 0 1-2.6.3 4.5 4.5 0 0 1-1.7-2 13.6 13.6 0 0 1-.8-4.3 9 9 0 0 0-.1-1.6Z"/></svg>