<?xml version="1.0" encoding="utf-8"?>
<!-- Generator: Adobe Illustrator 27.8.1, SVG Export Plug-In . SVG Version: 6.00 Build 0)  -->
<svg version="1.1" id="Capa_1" xmlns="http://www.w3.org/2000/svg" xmlns:xlink="http://www.w3.org/1999/xlink" x="0px" y="0px"
	 viewBox="0 0 1080 153" style="enable-background:new 0 0 1080 153;" xml:space="preserve">
<style type="text/css">
	.st0{fill:#14A52E;stroke:#14A52E;stroke-miterlimit:10;}
	.st1{fill:none;stroke:#5B2197;stroke-width:2;stroke-miterlimit:10;}
	.st2{fill:#1A1A1A;}
	.st3{fill:#FFFFFF;}
</style>
<g>
	<path class="st0" d="M364.9,33.6L222,33.7c-2.3,0-4.4-1.5-5.7-4l-2.1-3.9c-1.2-2.3-3.1-3.7-5.2-3.7L26.9,22.3c-1.8,0-3.3,2-3.3,4.5
		l0,60.2c0,1.5,0.5,2.9,1.5,3.8l6.5,6c1.3,1.2,1.3,3.7,0,4.9l-5,4.7c-1.8,1.7-2.9,4.5-2.9,7.5l0,19.8c0,3.3,1.9,6,4.3,6l306.1-0.3
		c1.5,0,3-0.8,4.2-2.1l30.9-36.7c1.4-1.7,2.3-4.2,2.3-6.8l0-51.1C371.4,37.6,368.5,33.6,364.9,33.6z"/>
	<path class="st1" d="M360.7,29.4l-142.9,0.1c-2.3,0-4.4-1.5-5.7-4l-2.1-3.9c-1.2-2.3-3.1-3.7-5.2-3.7L22.6,18.1
		c-1.8,0-3.3,2-3.3,4.5l0,60.2c0,1.5,0.5,2.9,1.5,3.8l6.5,6c1.3,1.2,1.3,3.7,0,4.9l-5,4.7c-1.8,1.7-2.9,4.5-2.9,7.5l0,19.8
		c0,3.3,1.9,6,4.3,6l306.1-0.3c1.5,0,3-0.8,4.2-2.1l30.9-36.7c1.4-1.7,2.3-4.2,2.3-6.8l0-51.1C367.1,33.4,364.2,29.4,360.7,29.4z"/>
	<g>
		<g>
			<path class="st2" d="M233.8,13.6h2.7l-3.3,4.8l3.4,4.9h-2.7l-2.2-3.2l-2.2,3.2h-2.7l3.4-4.9l-3.2-4.8h2.7l2.1,3L233.8,13.6z"/>
			<path class="st2" d="M249.3,13.6h2.7l-3.3,4.8l3.4,4.9h-2.7l-2.2-3.2l-2.2,3.2h-2.7l3.4-4.9l-3.2-4.8h2.7l2.1,3L249.3,13.6z"/>
			<path class="st2" d="M264.8,13.6h2.7l-3.3,4.8l3.4,4.9h-2.7l-2.2-3.2l-2.2,3.2h-2.7l3.4-4.9l-3.2-4.8h2.7l2.1,3L264.8,13.6z"/>
			<path class="st2" d="M280.3,13.6h2.7l-3.3,4.8l3.4,4.9h-2.7l-2.2-3.2l-2.2,3.2h-2.7l3.4-4.9l-3.2-4.8h2.7l2.1,3L280.3,13.6z"/>
			<path class="st2" d="M295.8,13.6h2.7l-3.3,4.8l3.4,4.9h-2.7l-2.2-3.2l-2.2,3.2h-2.7l3.4-4.9l-3.2-4.8h2.7l2.1,3L295.8,13.6z"/>
			<path class="st2" d="M311.2,13.6h2.7l-3.3,4.8l3.4,4.9h-2.7l-2.2-3.2l-2.2,3.2h-2.7l3.4-4.9l-3.2-4.8h2.7l2.1,3L311.2,13.6z"/>
			<path class="st2" d="M326.7,13.6h2.7l-3.3,4.8l3.4,4.9h-2.7l-2.2-3.2l-2.2,3.2h-2.7l3.4-4.9l-3.2-4.8h2.7l2.1,3L326.7,13.6z"/>
			<path class="st2" d="M342.2,13.6h2.7l-3.3,4.8l3.4,4.9h-2.7l-2.2-3.2l-2.2,3.2h-2.7l3.4-4.9l-3.2-4.8h2.7l2.1,3L342.2,13.6z"/>
			<path class="st2" d="M357.7,13.6h2.7l-3.3,4.8l3.4,4.9h-2.7l-2.2-3.2l-2.2,3.2h-2.7l3.4-4.9l-3.2-4.8h2.7l2.1,3L357.7,13.6z"/>
		</g>
	</g>
	<g>
		<path class="st3" d="M168.7,87.8c-0.3,1.3-0.6,2.5-1.1,3.7c-0.5,1.1-1.2,2.2-2,3.1c-0.8,0.9-1.7,1.7-2.7,2.3c-0.9,0.5-1.9,1-3,1.3
			c-1.1,0.3-2.3,0.5-3.5,0.5c-1.3,0-2.6-0.2-3.7-0.5c-1.1-0.3-2.1-0.8-3.1-1.4c-0.9-0.7-1.7-1.4-2.4-2.4c-0.7-0.9-1.3-2-1.8-3.1
			c-0.4-1.1-0.8-2.2-1-3.5c-0.2-1.3-0.3-2.6-0.3-4l0-5c0-1.5,0.1-2.9,0.4-4.3c0.3-1.3,0.6-2.6,1.1-3.7c0.5-1.1,1.1-2.1,1.8-2.9
			c0.7-0.9,1.5-1.6,2.4-2.2c0.9-0.6,1.9-1.1,3-1.4c1.1-0.3,2.3-0.5,3.6-0.5c1.3,0,2.5,0.2,3.7,0.5c1.1,0.3,2.2,0.8,3.1,1.4
			c0.9,0.6,1.7,1.3,2.4,2.2c0.7,0.8,1.3,1.8,1.8,2.8c0.5,1.2,1,2.4,1.3,3.8c0.3,1.4,0.4,2.8,0.4,4.4l0,5
			C169.1,85,169,86.4,168.7,87.8z M162.3,76.1c-0.1-0.8-0.2-1.5-0.4-2.2c-0.2-0.8-0.5-1.6-0.9-2.3c-0.4-0.7-0.9-1.2-1.4-1.6
			c-0.4-0.3-0.9-0.6-1.4-0.7c-0.5-0.2-1.1-0.3-1.7-0.3c-0.6,0-1.2,0.1-1.7,0.2c-0.5,0.2-0.9,0.4-1.3,0.7c-0.5,0.4-1,1-1.3,1.6
			c-0.4,0.7-0.7,1.4-0.9,2.3c-0.2,0.7-0.3,1.4-0.3,2.2c-0.1,0.8-0.1,1.6-0.1,2.5l0,5c0,0.8,0,1.6,0.1,2.4c0.1,0.8,0.2,1.5,0.3,2.1
			c0.2,0.8,0.4,1.6,0.8,2.3c0.3,0.7,0.7,1.2,1.2,1.7c0.4,0.4,0.9,0.7,1.4,0.9c0.5,0.2,1.2,0.3,1.8,0.3c0.7,0,1.3-0.1,1.8-0.3
			c0.5-0.2,1-0.5,1.5-0.8c0.5-0.4,1-1,1.3-1.7c0.4-0.7,0.7-1.4,0.9-2.3c0.2-0.7,0.3-1.4,0.4-2.2c0.1-0.8,0.1-1.6,0.1-2.4l0-5
			C162.4,77.7,162.4,76.9,162.3,76.1z"/>
		<path class="st3" d="M180.6,77.6l-6.6,0l0-4.8l6.6,0l0-1.4c0-1.7,0.3-3.1,0.8-4.4c0.5-1.3,1.3-2.4,2.3-3.2c1-0.9,2.2-1.5,3.6-2
			c1.4-0.4,3-0.7,4.7-0.7c0.5,0,1.1,0,1.6,0.1c0.5,0,1,0.1,1.5,0.2c0.5,0.1,1,0.1,1.5,0.2c0.5,0.1,1,0.2,1.5,0.3l-0.4,5.1
			c-0.6-0.1-1.3-0.2-2-0.3c-0.7-0.1-1.6-0.1-2.6-0.1c-1.1,0-2,0.1-2.8,0.4c-0.8,0.2-1.4,0.6-1.8,1.1c-0.4,0.4-0.7,0.9-0.9,1.5
			c-0.2,0.6-0.3,1.3-0.3,2l0,1.4l9.1,0l0,4.8l-9.1,0l0,20.5l-6.5,0L180.6,77.6z"/>
		<path class="st3" d="M210.1,97.6c-1.6-0.6-3-1.5-4.1-2.6c-1.1-1.1-2-2.4-2.6-3.9c-0.6-1.5-0.9-3.1-0.9-4.8l0-0.9
			c0-1.9,0.3-3.7,0.9-5.3c0.6-1.6,1.5-3,2.5-4.1c1.1-1.2,2.4-2.1,3.9-2.7c1.5-0.6,3.1-1,4.9-1c1.8,0,3.5,0.3,4.9,0.9
			c1.4,0.6,2.6,1.4,3.6,2.5c1,1.1,1.7,2.4,2.2,3.9c0.5,1.5,0.8,3.2,0.8,5.1l0,2.8l-17.2,0v0.1c0.2,1,0.5,1.8,0.8,2.4
			c0.3,0.6,0.8,1.2,1.4,1.7c0.6,0.5,1.3,0.9,2,1.2c0.8,0.3,1.6,0.4,2.5,0.4c1.3,0,2.5-0.2,3.7-0.7c1.2-0.5,2.2-1.2,2.9-2.2l3.3,3.5
			c-0.8,1.2-2.1,2.2-3.9,3.2c-1.8,1-3.9,1.4-6.4,1.4C213.4,98.6,211.7,98.2,210.1,97.6z M212.6,78c-0.6,0.3-1.1,0.6-1.6,1.1
			c-0.5,0.5-0.9,1.1-1.2,1.7c-0.3,0.7-0.5,1.4-0.7,2.2l10.7,0l0-0.5c0-0.7-0.1-1.3-0.4-1.9c-0.3-0.6-0.6-1.1-1-1.6
			c-0.4-0.4-1-0.8-1.6-1s-1.4-0.4-2.2-0.4C213.9,77.6,213.2,77.7,212.6,78z"/>
		<path class="st3" d="M252.8,72.5c0.8,0.1,1.5,0.3,2,0.4l-1,6.5c-0.9-0.2-1.7-0.4-2.6-0.5c-0.9-0.1-1.8-0.2-2.6-0.2
			c-0.8,0-1.6,0.1-2.3,0.2c-0.7,0.1-1.3,0.4-1.8,0.7c-0.6,0.3-1.2,0.8-1.6,1.3c-0.5,0.5-0.8,1.2-1.1,1.9l0,15.2l-6.5,0l0-25.3l6.1,0
			l0.3,3.6l0,0.6c1-1.4,2.3-2.6,3.7-3.4c1.4-0.8,3-1.2,4.7-1.2C251,72.3,251.9,72.3,252.8,72.5z"/>
		<path class="st3" d="M272.6,72.7l9.5,0l0,4.8l-9.5,0l0,10.9c0,0.9,0.1,1.7,0.3,2.3c0.2,0.6,0.5,1.1,0.9,1.5
			c0.4,0.4,0.9,0.6,1.4,0.8s1.2,0.2,1.9,0.2c0.5,0,1,0,1.5-0.1c0.5,0,1-0.1,1.5-0.2c0.5-0.1,0.9-0.1,1.3-0.2s0.8-0.2,1.1-0.2
			l0.6,4.5c-0.5,0.3-1,0.5-1.6,0.7c-0.6,0.2-1.3,0.4-1.9,0.5c-0.7,0.1-1.4,0.2-2.1,0.3c-0.7,0.1-1.5,0.1-2.2,0.1
			c-1.4,0-2.6-0.2-3.8-0.5c-1.1-0.4-2.1-0.9-2.9-1.7c-0.8-0.8-1.4-1.7-1.9-2.9c-0.4-1.2-0.7-2.6-0.7-4.3l0-11.5l-5.8,0l0-4.8l5.8,0
			l0-6.2l6.5,0L272.6,72.7z"/>
		<path class="st3" d="M304.8,97c-0.1-0.4-0.2-0.8-0.3-1.3c-0.4,0.4-0.8,0.8-1.2,1.1c-0.5,0.3-1,0.6-1.5,0.9
			c-0.6,0.3-1.2,0.5-1.9,0.6c-0.7,0.1-1.4,0.2-2.2,0.2c-1.3,0-2.5-0.2-3.6-0.6c-1.1-0.4-2-0.9-2.8-1.6c-0.8-0.7-1.4-1.5-1.8-2.4
			c-0.4-0.9-0.7-1.9-0.7-3c0-1.4,0.3-2.6,0.8-3.7c0.5-1.1,1.4-2,2.5-2.7c1-0.6,2.2-1.1,3.6-1.5c1.4-0.3,3.1-0.5,5-0.5l3.6,0l0-1.5
			c0-0.6-0.1-1.1-0.3-1.6c-0.2-0.5-0.5-0.9-0.8-1.2c-0.4-0.4-0.9-0.6-1.5-0.8c-0.6-0.2-1.3-0.3-2-0.3c-0.7,0-1.3,0.1-1.8,0.2
			c-0.5,0.2-0.9,0.4-1.2,0.7c-0.3,0.3-0.5,0.6-0.6,1c-0.1,0.4-0.2,0.8-0.2,1.2l-6.5,0c0-1.1,0.2-2.1,0.7-3.1c0.5-1,1.2-1.8,2.1-2.6
			c0.9-0.7,2-1.3,3.3-1.7c1.3-0.4,2.8-0.6,4.5-0.6c1.5,0,3,0.2,4.3,0.6c1.3,0.4,2.5,0.9,3.4,1.7c1,0.7,1.7,1.7,2.3,2.8
			c0.5,1.1,0.8,2.4,0.8,3.9l0,10.9c0,1.4,0.1,2.5,0.3,3.4c0.2,0.9,0.4,1.7,0.8,2.3V98l-6.6,0C305.1,97.7,304.9,97.4,304.8,97z
			 M300.9,93.3c0.6-0.2,1.1-0.4,1.5-0.6c0.5-0.2,0.8-0.5,1.2-0.9c0.3-0.3,0.6-0.6,0.8-1l0-4.4l-3.3,0c-1,0-1.9,0.1-2.6,0.3
			c-0.7,0.2-1.3,0.5-1.8,0.8c-0.5,0.4-0.8,0.8-1,1.3c-0.2,0.5-0.3,1-0.3,1.6c0,0.5,0.1,0.9,0.2,1.3c0.2,0.4,0.4,0.7,0.7,1
			c0.3,0.2,0.7,0.4,1.2,0.6c0.5,0.1,1,0.2,1.6,0.2C299.7,93.5,300.3,93.4,300.9,93.3z"/>
		<path class="st3" d="M326.5,92.3c0.7-0.7,1.6-1,2.8-1c1.2,0,2.1,0.3,2.8,1c0.7,0.7,1,1.5,1,2.6c0,1-0.3,1.8-1,2.5
			c-0.7,0.7-1.6,1-2.8,1c-1.2,0-2.1-0.3-2.8-1c-0.7-0.7-1-1.5-1-2.5C325.5,93.8,325.8,93,326.5,92.3z M326.3,86.1L325.9,64l6.7,0
			l-0.4,22.2L326.3,86.1z"/>
	</g>
	<g>
		<g>
			<path class="st3" d="M63,106.5c0.6-2.6,1.3-5.6,1.9-8.6c0.9-3.9,1.7-7.7,2.7-11.6c0.2-0.9,0-1.4-0.7-2c-5-4.3-9.9-8.7-14.9-13
				c-1.4-1.2-2.2-2.6-1.6-4.5c0.6-1.9,2-2.7,3.9-2.9c6.3-0.5,12.5-1.2,18.8-1.7c1.6-0.1,2.4-0.7,3.1-2.2c2.4-5.9,5-11.8,7.5-17.6
				c0.9-2,2.4-2.9,4.3-2.6c1.7,0.3,2.6,1.3,3.3,2.8c2.5,5.8,5.1,11.6,7.4,17.5c0.6,1.6,1.5,2,3.1,2.2c6.3,0.5,12.6,1.1,19,1.7
				c1.9,0.2,3.2,1.1,3.8,2.9c0.5,1.8-0.2,3.2-1.5,4.4c-5,4.3-9.9,8.7-14.9,13c-0.7,0.7-1,1.2-0.7,2.2c1.5,6.4,2.9,12.8,4.4,19.2
				c0.4,1.8,0.2,3.4-1.4,4.6c-1.6,1.2-3.2,1-4.9,0c-5.6-3.4-11.3-6.7-16.9-10.2c-0.8-0.5-1.4-0.5-2.2,0c-5.7,3.4-11.4,6.8-17.1,10.2
				c-1.4,0.9-2.9,1.1-4.4,0.2C63.6,109.7,63,108.5,63,106.5z"/>
		</g>
	</g>
</g>
</svg>
