<svg id="Capa_1" data-name="Capa 1" xmlns="http://www.w3.org/2000/svg" viewBox="0 0 1080 1080"><defs><linearGradient id="Degradado_sin_nombre_3" data-name="Degradado sin nombre 3" x1="200.9" y1="913.8" x2="198.7" y2="1075" gradientUnits="userSpaceOnUse"><stop offset=".2" stop-color="#282162"/><stop offset=".4" stop-color="#36178c"/><stop offset=".9" stop-color="#5b01f8"/><stop offset=".9" stop-color="#5e00ff"/></linearGradient><style>.cls-1{fill:#fff}.cls-4{fill:#00ce00}.cls-5{fill:#5000ce}</style></defs><path class="cls-4" d="M505 1002h-67l15-6h1l23-9-9-14 55 1h13l-40 15 9 13z"/><path d="M391 947v98l-7 4v8c0 6-5 11-11 11h-17l5 2h2l-5 3H38c-16 0-30-14-30-31v-95c0-17 14-31 30-31h323c17 0 30 14 30 31Z" style="fill:url(#Degradado_sin_nombre_3)"/><path class="cls-5" d="M429 974v41l-1 6-22 14h-9v-81h12c11 0 20 9 20 20Z"/><path class="cls-5" d="M429 1016v-41l-1-6-23-15h-9v83h12c12 0 21-9 21-21Z"/><path class="cls-5" d="m377 911-10-2H31l-5 1a30 30 0 0 0-25 30v113a30 30 0 0 0 30 25h311l17-7 2-1-6-2 3-3h1H31c-9 0-17-8-17-17V940c0-10 8-17 17-17h336c9 0 17 7 17 17v109l13-8V940c0-13-8-24-20-29Z"/><path class="cls-5" d="M397 935a30 30 0 0 0-30-25H31a30 30 0 0 0-30 30v108l1 6 10 5 27 12 17 8h311a30 30 0 0 0 13-3l-25-8 3-3H31c-9 0-17-7-17-17V940c0-9 8-17 17-17h336c9 0 17 8 17 17v109l13-8V935Z"/><path class="cls-5" d="M397 1048V947l-13-8v109c0 9-8 17-17 17l-336 1c-9 0-17-8-17-17V941c0-10 8-17 17-17l327-1-3-3 25-8a30 30 0 0 0-14-3l-310 1-17 8-27 12-11 5v114a30 30 0 0 0 30 30l336-1h5a30 30 0 0 0 25-30Z"/><path class="cls-1" d="M53 1055c-15 0-28-10-28-37v-13c0-27 12-38 28-38s29 11 29 37v14c0 27-13 37-29 37Zm12-51c0-13-4-19-12-19s-12 6-11 20v13c0 14 3 20 11 20s12-6 12-20v-14ZM135 984h-20c-4 0-6 2-6 8v10h25c1 0 2 1 2 3v11l-2 2h-25l1 34-2 2H95l-2-2v-60c0-21 11-25 23-25 11 0 16 1 19 2 1 0 2 0 2 2v11l-2 2ZM191 1053c-4 1-8 2-19 2-12 0-23-4-23-25v-38c0-21 11-25 23-25l19 1 1 2 1 11c0 2-1 3-2 3h-20c-4 0-6 2-6 8v10h25l2 2v11c0 2-1 3-2 3h-25v12c0 6 2 8 6 8h20l2 2v11l-2 2ZM258 1053h-14l-2-2-13-29h-8v29l-2 3h-12c-1 0-2-1-2-3v-77c0-4 1-5 4-6l19-2c17 0 29 7 29 27v2c0 12-5 20-12 23l15 33v1l-2 1Zm-17-60c0-7-5-10-13-10l-7 1v22h7c10 0 13-3 13-11v-2ZM312 983h-16l1 68-2 2h-13l-2-2v-67h-16c-1 0-2-1-2-3v-11c0-2 1-3 2-3h48l2 2v12l-2 2ZM370 1053h-13l-2-2-3-19h-20l-3 19-2 2h-14l-1-2 14-72c2-11 9-13 16-13 6 0 13 2 15 13l15 71v1l-2 2Zm-27-69-1-2-2 2-5 32h14l-6-32Z"/><text transform="matrix(.76 0 0 1 396 1005)" style="font-family:NeoSansStd-Bold,'Neo Sans Std';font-size:24.69px;fill:#fff"><tspan x="0" y="0">DE</tspan></text><g><path class="cls-4" d="m127 957-1 4h-1l-13 1c-3 0-4-1-5-2s0-3 0-5l4-10c0-2 1-3 3-4l5-2h13l1 1-2 4h-12l-2 1-2 3h15l-2 4v1h-15v2l2 1h11l1 1ZM150 957l-2 4h-14l-4-1v-5l6-16h4l1 1-5 13v2l2 1h11l1 1ZM173 957l-2 4h-14l-4-1v-5l3-10 4-5 5-1h13l1 1-2 4h-12l-2 1-2 2h14l1 1-2 4v1h-15v2l2 1h11l1 1ZM196 955c0 2-1 4-3 5l-5 1h-8l-4-1v-5l3-10 4-5 5-1h7l5 1v5l-1 2h-5v-2l-2-1h-4l-2 1-2 2-2 6v2l2 1h5l1-1 1-1 1-1h5l-1 2ZM222 944h-7l-5 17h-5v-1l5-15-1-1h-5l-1-1 1-4h20l-1 4-1 1ZM239 961h-5l-3-7v-1h-3v1l-3 7h-4l-1-1 7-21h14l5 1-1 5v2l-3 5-4 1-1 1 3 6-1 1Zm-8-17-1 3v1h9l1-2v-2h-9ZM265 954l-3 5-5 2h-8c-2 0-4 0-4-2v-4l3-10 3-5 5-1 8-1 4 2v5l-3 9Zm-8-10h-3l-1 3-2 5v3l2 1h5l1-1 1-1v-2l2-5v-3h-5Z"/></g></svg>