<?xml version="1.0" encoding="utf-8"?>
<!-- Generator: Adobe Illustrator 27.7.0, SVG Export Plug-In . SVG Version: 6.00 Build 0)  -->
<svg version="1.1" id="Capa_1" xmlns="http://www.w3.org/2000/svg" xmlns:xlink="http://www.w3.org/1999/xlink" x="0px" y="0px"
	 viewBox="0 0 1080 1080" style="enable-background:new 0 0 1080 1080;" xml:space="preserve">
<style type="text/css">
	.st0{clip-path:url(#SVGID_00000081636432197673461840000003339090722978281662_);}
	.st1{fill:#14A52E;}
	
		.st2{clip-path:url(#SVGID_00000081636432197673461840000003339090722978281662_);fill:none;stroke:#F7F7F7;stroke-width:2;stroke-miterlimit:10;}
	.st3{fill:#5B2197;}
	.st4{fill:#FFFFFF;stroke:#FFFFFF;stroke-width:0.75;stroke-miterlimit:10;}
	.st5{font-family:'RobotoMono-Bold';}
	.st6{font-size:31.1897px;}
	.st7{fill:none;}
	.st8{fill:none;stroke:#000000;stroke-width:2;stroke-miterlimit:10;}
</style>
<g>
	<defs>
		<path id="SVGID_1_" d="M357.39,804.63l-66.38-71.22c-1.44-1.54-3.45-2.42-5.56-2.42H73.74c-4.19,0-7.59,3.4-7.59,7.59v160.31
			c0,5,2.35,9.72,6.35,12.73l26.37,19.86c3.2,2.41,3.2,7.21,0,9.62l-26.37,19.86c-4,3.01-6.35,7.72-6.35,12.73v42.99
			c0,4.19,3.4,7.59,7.59,7.59h278.1c4.19,0,7.59-3.4,7.59-7.59V809.81C359.43,807.89,358.7,806.04,357.39,804.63z"/>
	</defs>
	<clipPath id="SVGID_00000130627926486497187730000007433925347972873137_">
		<use xlink:href="#SVGID_1_"  style="overflow:visible;"/>
	</clipPath>
	<g style="clip-path:url(#SVGID_00000130627926486497187730000007433925347972873137_);">
		<path class="st1" d="M357.39,804.63l-66.38-71.22c-1.44-1.54-3.45-2.42-5.56-2.42H73.74c-4.19,0-7.59,3.4-7.59,7.59v160.31
			c0,5,2.35,9.72,6.35,12.73l26.37,19.86c3.2,2.41,3.2,7.21,0,9.62l-26.37,19.86c-4,3.01-6.35,7.72-6.35,12.73v42.99
			c0,4.19,3.4,7.59,7.59,7.59h278.1c4.19,0,7.59-3.4,7.59-7.59V809.81C359.43,807.89,358.7,806.04,357.39,804.63z"/>
	</g>
	
		<path style="clip-path:url(#SVGID_00000130627926486497187730000007433925347972873137_);fill:none;stroke:#F7F7F7;stroke-width:2;stroke-miterlimit:10;" d="
		M107.06,434.21l0-107.89c0-5.44-4.38-9.85-9.79-9.85l-269.7,0c-5.41,0-9.79,4.41-9.79,9.85l0,474.54l0,0c0,0.01,0,0.02,0,0.03
		c0.01,1.68,0.57,3.32,1.53,4.71l45.67,66.56c0.29,0.42,0.54,0.86,0.75,1.33c1.55,3.56,5.06,5.89,8.96,5.89l222.58,0
		c5.41,0,9.79-4.41,9.79-9.85l0-98.77c0-4.33-1.61-8.51-4.52-11.71l-5.1-5.62c-2.81-3.1-4.37-7.14-4.37-11.33l0-279.89
		c0-4.63,1.9-9.06,5.26-12.24l3.3-3.12C105.1,443.57,107.06,439,107.06,434.21z"/>
	
		<path style="clip-path:url(#SVGID_00000130627926486497187730000007433925347972873137_);fill:none;stroke:#F7F7F7;stroke-width:2;stroke-miterlimit:10;" d="
		M621.69,553.15V445.26c0-5.44-4.38-9.85-9.79-9.85l-269.7,0c-5.41,0-9.79,4.41-9.79,9.85l0,474.54l0,0c0,0.01,0,0.02,0,0.03
		c0.01,1.68,0.57,3.32,1.53,4.71l45.67,66.56c0.29,0.42,0.54,0.86,0.75,1.33c1.55,3.56,5.06,5.89,8.96,5.89l222.58,0
		c5.41,0,9.79-4.41,9.79-9.85l0-98.77c0-4.33-1.61-8.51-4.52-11.71l-5.1-5.62c-2.81-3.1-4.37-7.14-4.37-11.33l0-279.89
		c0-4.63,1.9-9.06,5.26-12.24l3.3-3.12C619.72,562.52,621.69,557.94,621.69,553.15z"/>
</g>
<path class="st3" d="M58,918.17v38.28c0,3.37,3.85,5.29,6.54,3.26l25.41-19.14c2.17-1.63,2.17-4.89,0-6.52l-25.41-19.14
	C61.85,912.88,58,914.8,58,918.17z"/>
<g>
	<g>
		<g>
			<path d="M267.68,805.4c-0.95,0.7-6.23,19.49-1.3-7.2c1.43-7.7-2.6-13.7-8.22-18.43c-14.52-12.23-36.95-16-55.3-13.48
				c-12.49,1.73-28.24,5.77-37,15.69c-3.59,4.03-5.56,9.67-4.69,15.06c4.34,26.8-0.53,7.9-1.46,7.17c0,0-9.05,79.64-6.91,87.38
				c1.71,6.12,31.51,26.72,43.99,35.16c0.75,0.51,1.44,0.98,2.06,1.39l5.08,16.7l-1.73-14.48c0.04,0.02,0.06,0.04,0.06,0.04
				s-0.17-1.57-0.41-4.34c-1.09-11.62-3.83-44.44-3.23-70.72c0,0-27.4-22.56-28.88-25.03c-1.46-2.45,0.03-2.93-1.41-5.09
				c1.1,0.58,36.51,19.41,36.5,20.76c-0.01,1.34,1.96,33.67,2.42,35.31c0.49,1.6,5.57,6.01,5.57,6.01s5.16-4.3,5.68-5.89
				c0.5-1.63,3.18-33.9,3.2-35.24c0.01-1.34,35.81-19.39,36.92-19.95c-1.49,2.12-0.01,2.64-1.52,5.06
				c-1.52,2.44-29.41,24.39-29.41,24.39c0,18.8-1.82,45.2-3.29,58.7l-1.27,9.06l-3.07,21.6l5.34-16.29
				c2.41-1.52,6.08-3.89,10.35-6.7c14.38-9.48,35.44-24.05,36.94-29.11C274.99,885.22,267.68,805.4,267.68,805.4z M206.14,770.36
				c-7.35,3-15.01,6.1-21.21,11.17c-3.91,3.23-6.91,7.3-8.54,12.13c-1.17,3.42-1.69,7.07-1.65,10.69c0.02,1.82,1.01,4.92,0.41,6.67
				c-0.32,0.96-1.31,1.16-1.95,0.29c-23.62-32.44,29.81-40.09,35.83-42.14C208.06,769.57,207.11,769.95,206.14,770.36z"/>
		</g>
	</g>
</g>
<g>
	<path d="M110.87,971.75l1.71-5.13l9.37,4.27l-0.79-10.84l5.5,0.06l-1.1,10.99l9.39-3.99l1.6,5.27l-10.02,2.18l6.64,8.19l-4.51,3.19
		l-5.2-9.4l-5.4,9.01l-4.46-3.14l7.07-8.14L110.87,971.75z"/>
	<path d="M165.49,986.01c-0.3,1.41-0.72,2.72-1.27,3.92c-0.58,1.2-1.3,2.3-2.15,3.29c-0.85,1-1.81,1.82-2.89,2.48
		c-0.98,0.58-2.05,1.02-3.22,1.33c-1.17,0.31-2.42,0.46-3.76,0.45c-1.42-0.02-2.74-0.21-3.94-0.6c-1.2-0.38-2.29-0.91-3.27-1.59
		c-0.96-0.71-1.83-1.57-2.58-2.58c-0.76-1-1.39-2.14-1.9-3.4c-0.46-1.16-0.8-2.42-1.03-3.78c-0.23-1.36-0.33-2.79-0.32-4.3
		l0.06-5.33c0.02-1.61,0.17-3.13,0.46-4.57c0.29-1.44,0.71-2.76,1.26-3.98c0.53-1.15,1.18-2.19,1.93-3.12
		c0.76-0.93,1.62-1.72,2.6-2.38c0.96-0.64,2.04-1.13,3.23-1.47c1.19-0.34,2.48-0.5,3.87-0.49c1.41,0.02,2.72,0.21,3.95,0.58
		c1.23,0.37,2.33,0.9,3.31,1.58c0.98,0.65,1.84,1.43,2.57,2.34c0.73,0.91,1.36,1.92,1.89,3.01c0.57,1.25,1,2.61,1.3,4.08
		c0.29,1.48,0.43,3.05,0.41,4.7l-0.06,5.33C165.95,983.11,165.79,984.6,165.49,986.01z M158.76,973.4
		c-0.08-0.85-0.22-1.63-0.41-2.35c-0.24-0.91-0.57-1.72-0.98-2.44c-0.41-0.72-0.9-1.3-1.46-1.76c-0.45-0.34-0.95-0.6-1.51-0.8
		c-0.56-0.19-1.18-0.29-1.87-0.3c-0.65-0.01-1.24,0.07-1.77,0.23c-0.53,0.16-1.01,0.4-1.43,0.71c-0.57,0.46-1.06,1.04-1.46,1.74
		c-0.4,0.7-0.72,1.51-0.94,2.45c-0.18,0.72-0.31,1.5-0.39,2.36c-0.08,0.85-0.13,1.75-0.14,2.69l-0.06,5.38
		c-0.01,0.89,0.01,1.74,0.07,2.56c0.06,0.82,0.17,1.58,0.33,2.29c0.17,0.89,0.44,1.7,0.79,2.43s0.77,1.33,1.25,1.78
		c0.45,0.41,0.96,0.72,1.53,0.95c0.58,0.22,1.23,0.34,1.97,0.35c0.7,0.01,1.35-0.09,1.94-0.28c0.59-0.19,1.11-0.48,1.57-0.86
		c0.57-0.46,1.06-1.05,1.46-1.75c0.4-0.71,0.72-1.51,0.97-2.41c0.19-0.7,0.34-1.47,0.44-2.31c0.1-0.83,0.16-1.71,0.17-2.61
		l0.06-5.38C158.88,975.14,158.84,974.25,158.76,973.4z"/>
	<path d="M195.06,985.12c-0.02,2.04-0.32,3.86-0.9,5.44c-0.58,1.58-1.4,2.92-2.47,3.99c-1.08,1.09-2.4,1.92-3.93,2.47
		c-1.54,0.55-3.29,0.82-5.25,0.8c-1.84-0.02-3.5-0.32-4.98-0.91s-2.74-1.43-3.78-2.53c-1.04-1.1-1.84-2.45-2.4-4.06
		c-0.56-1.61-0.83-3.43-0.81-5.47l0.29-24.24l7.06,0.08l-0.24,24.24c0,1.22,0.11,2.29,0.33,3.22s0.55,1.69,0.99,2.3
		c0.41,0.56,0.92,0.98,1.52,1.26c0.6,0.28,1.29,0.43,2.08,0.44c0.85,0.01,1.61-0.13,2.28-0.41c0.66-0.29,1.22-0.72,1.66-1.3
		c0.48-0.6,0.84-1.35,1.08-2.25c0.24-0.9,0.38-1.95,0.41-3.13l0.29-24.24l7.01,0.08L195.06,985.12z"/>
	<path d="M216.72,966.87l-0.34,30.82l-7.08-0.08l0.34-30.82l-11.13-0.12l0.06-5.75l29.49,0.32l-0.06,5.75L216.72,966.87z"/>
	<path d="M255.79,992.42l-0.06,5.7l-24.21-0.27l0.4-36.57l7.08,0.08l-0.34,30.87L255.79,992.42z"/>
	<path d="M268.95,982.24l-0.11,10.32l17.56,0.19l-0.06,5.7l-24.64-0.27l0.4-36.57l24.57,0.27l-0.06,5.75l-17.48-0.19l-0.1,9.22
		l15.02,0.17l-0.06,5.58L268.95,982.24z"/>
	<path d="M307.48,967.86l-0.34,30.82l-7.08-0.08l0.34-30.82l-11.13-0.12l0.06-5.75l29.49,0.33l-0.06,5.75L307.48,967.86z"/>
</g>
<text transform="matrix(1 0 0 1 286.8379 829.084)" class="st4 st5 st6">///</text>
<rect x="-0.5" y="0.5" class="st7" width="1082" height="1080"/>
<g>
	<path class="st8" d="M358.65,805.76l-66.38-71.22c-1.44-1.54-3.45-2.42-5.56-2.42H75c-4.19,0-7.59,3.4-7.59,7.59v160.31
		c0,5,2.35,9.72,6.35,12.73l26.37,19.86c3.2,2.41,3.2,7.21,0,9.62l-26.37,19.86c-4,3.01-6.35,7.72-6.35,12.73v42.99
		c0,4.19,3.4,7.59,7.59,7.59h278.1c4.19,0,7.59-3.4,7.59-7.59V810.94C360.69,809.02,359.96,807.17,358.65,805.76z"/>
</g>
</svg>
