<svg xmlns="http://www.w3.org/2000/svg" xmlns:xlink="http://www.w3.org/1999/xlink" id="Capa_1" x="0" y="0" version="1.1" viewBox="0 0 1080 135" style="enable-background:new 0 0 1080 135" xml:space="preserve"><style type="text/css">.st0{fill:#77b900}.st1{fill:#fe6401}.st2{fill:#2a3c47}.st3{fill:#fe6002}.st4{fill:#3f3f42}.st5{fill:#bc531f}.st6{fill:#343d45}.st7{fill:#a85026}.st8{fill:#b55222}.st9{fill:#474040}.st10{fill:#704636}.st11{fill:#5b423b}.st12{fill:#7d4832}.st13{fill:#8a4b2f}.st14{fill:#ef5c0b}.st15{fill:#e25a11}.st16{fill:#9b4e2a}.st17{fill:#c3541d}.st18{fill:#4c413f}.st19{fill:#d75816}.st20{fill:#8f4c2d}.st21{fill:#d15718}.st22{fill:#5f433a}.st23{fill:#e85b0e}.st24{fill:#ca551b}.st25{fill:#f25d09}.st26{fill:#54423d}.st27{fill:#989fa3}.st28{fill:#dda086}.st29{fill:#fee8d5}.st30{fill:#fefefe}.st31{fill:#fff;stroke:#fff;stroke-miterlimit:10}</style><rect width="1080.5" height="135" x="-.2" y="1.1" class="st0"/><g><path d="M1032.4,31.5c0,2.8,0,5.7,0,8.5c0,1.7-0.9,2.7-2.6,2.7c-4.5,0-9,0-13.5,0c-1.2,0-2.2-1-2.2-2.2 c0-1.1-0.1-2.2-0.1-3.3c0-4.7,0.1-9.5,0-14.2c0-1.9,1.2-2.6,2.7-2.6c4.2,0,8.3,0,12.5,0c1,0,2.3-0.1,2.8,1.1 c0.2,0.4,0.3,0.9,0.3,1.4C1032.4,25.8,1032.4,28.6,1032.4,31.5z M1023.3,23.7c-0.1,0-0.2,0-0.4,0c-0.7,0-1.4,0-2.2,0 c-0.1,0-0.1,0-0.2,0c-0.3,0.1-0.6,0.1-0.9,0.2c-1.4,0.6-2.5,3.1-2.1,4.5c0.1,0.2,0.4,0.4,0.6,0.4c0.9,0.1,1.7,0,2.6,0 c0.1-0.6,0.2-1.1,0.3-1.7c0.8,0,1.6,0,2.4,0c0.5,0,1-0.1,1.3-0.4c0.8-0.6,1.4-1.3,2.1-2c0.5-0.5,0.4-0.8-0.3-0.9 C1025.6,23.8,1024.5,23.8,1023.3,23.7z M1028.5,25.4c-0.5,0.4-0.9,0.6-1.2,0.9c-2.8,2.7-5.5,5.4-8.3,8c-1.4,1.3-2,2.8-1.6,4.8 c0.2,0,0.5,0.1,0.7,0.1c2.7,0,5.5,0,8.2-0.1c1.7,0,2.3-0.5,2.7-2.2c0.2-0.8,0-1-0.8-1c-1.9,0-3.7,0-5.6,0c-0.3,0-0.5,0-0.9,0 c0.2-0.2,0.2-0.4,0.3-0.4c1.5-1.4,2.9-2.9,4.5-4.2C1028.4,29.7,1028.9,27.8,1028.5,25.4z" class="st1"/><path d="M919.9,31.5c-0.3,0.4-0.4,0.7-0.5,0.9c-1,2-2.1,4-3.1,6.1c-0.3,0.5-0.5,0.8-1.2,0.8c-0.8-0.1-1.7,0.2-2.3-0.1 s-0.7-1.3-1.1-2c-2.2-4.3-4.3-8.5-6.5-12.8c-0.3-0.6-0.2-0.8,0.5-0.8c1.4,0,2.8,0.1,4.2,0c0.8,0,1.2,0.3,1.5,0.9 c0.9,2,1.9,4,2.9,6.1c0.3-0.5,0.6-0.8,0.8-1.2c0.9-1.7,1.7-3.4,2.5-5.2c0.3-0.6,0.6-0.8,1.2-0.7c0.8,0,1.6,0.1,2.3,0 c0.8-0.1,1.1,0.3,1.3,0.9c0.9,1.9,1.8,3.8,2.7,5.7c0.1,0.1,0.1,0.2,0.3,0.4c0.2-0.3,0.3-0.4,0.4-0.6c0.9-1.9,1.9-3.9,2.8-5.8 c0.2-0.4,0.4-0.6,0.9-0.6c1.7,0,3.4,0,5.1,0c0.1,0.1,0.1,0.2,0.2,0.3c-0.5,1-1,2-1.5,2.9c-1.7,3.4-3.5,6.8-5.2,10.2 c-0.2,0.4-0.4,0.8-0.6,1.3c-0.3,0.9-1,1.1-1.8,1.1c-0.3,0-0.6,0-0.9,0c-0.7,0.1-1.1-0.2-1.4-0.9c-1-2.1-2.1-4.1-3.1-6.2 C920.3,32.1,920.1,31.9,919.9,31.5z" class="st2"/><path d="M906.3,39.2c-1,0-2.1,0-3.1,0c-0.8,0-1.5,0-2.3,0.1c-1,0.2-1.6-0.4-2.2-1c-1.7-1.6-3.4-3.3-5.1-4.9 c-0.2-0.2-0.4-0.5-0.4-0.8c0-1,0-2,0-3.1c1.6,0,3.1,0,4.7,0c1,0,1.1-0.1,1.1-1.1c0-0.7-0.6-0.7-0.9-0.7c-2.2,0-4.4,0-6.6,0 c-0.2,0-0.5,0.4-0.5,0.6c0,3,0,6,0.1,9c0,2,0.1,2-1.9,2c-1,0-1.9,0-2.9,0c-0.4,0-0.7-0.1-0.7-0.6c0-5,0-10,0-15.1 c0.3,0,0.5,0,0.8,0c4.5,0,9,0,13.6,0c1.4,0,2.8,0.3,3.7,1.5c0.4,0.5,0.7,1.2,0.8,1.8c0.1,1.2,0,2.4-0.1,3.5 c-0.2,1.3-1.6,2.5-2.9,2.6c-0.3,0-0.7,0.1-1.1,0.2c2.1,2,4.1,3.9,6.1,5.7C906.3,39,906.3,39.1,906.3,39.2z" class="st2"/><path d="M829.1,38.8c1-0.8,2-1.5,2.9-2.4c1.1-1.1,2.4-1.3,3.9-1.2c1.4,0.1,2.8,0,4.2,0c0.7,0,1-0.2,1-0.9 c0-2.1,0-4.1,0-6.3c-0.5-0.1-0.9-0.2-1.3-0.2c-2.2,0-4.4,0-6.7,0c-1,0-1.2,0.2-1.2,1.3c0,1.4,0,2.8,0,4.2c0,0.3-0.2,0.6-0.4,0.8 c-1.3,1-2.6,2.1-3.9,3.1c-0.5,0.4-0.9,0.2-0.9-0.4c-0.1-1.8-0.1-3.6-0.2-5.4c0-1.2,0-2.4,0-3.6c-0.1-2.4,1.7-4,3.9-4 c3.7,0,7.3-0.1,11-0.1c0.3,0,0.5,0,0.8,0c1,0,1.7,0.2,2,1.3c0.2,0.8,0.6,1.6,1.1,2.4c0.9,1.3,0.9,2.9,1,4.4c0.1,1.3,0,2.5,0,3.8 c0,2.3-1.5,3.6-3.5,3.7c-2.2,0.2-4.4,0.1-6.6,0.1c-1.8,0-3.6,0.1-5.5,0.1c-0.6,0-1.1-0.2-1.7-0.3C829.1,39,829.1,38.9,829.1,38.8z" class="st2"/><path d="M980.5,33.1c1.6,0,3.2,0,4.7,0c0.2,0,0.5,0.4,0.5,0.5c0,1,0,2.1-0.2,3.1c-0.3,1.3-1.4,2-2.6,2.2 c-1.2,0.2-2.5,0.2-3.8,0.3c-2,0-4.1,0-6.1,0c-1.5,0-2.9,0-4.4-0.2c-1.2-0.2-2.7-1.5-2.7-3.2c0.1-2.1,0-4.3,0-6.4 c0-0.4,0.1-0.8,0.3-1.1c0.6-1.3,1.2-2.7,1.9-4c0.1-0.3,0.6-0.6,0.9-0.6c2.4-0.1,4.8-0.1,7.2-0.2c1.7,0,3.3-0.1,5,0 c0.9,0,1.8,0.3,2.6,0.6c1.1,0.4,1.7,1.4,1.8,2.5c0.1,0.9,0.1,1.8,0,2.6c0,0.2-0.4,0.4-0.6,0.4c-1.4,0-2.7,0-4.1,0 c-1,0-0.7-0.8-0.8-1.2c0-0.8-0.4-0.8-1-0.8c-2.3,0-4.6,0-6.9,0c-1,0-1.3,0.3-1.3,1.3c0,1.5,0,3,0,4.4c0,1.3,0.3,1.6,1.6,1.6 c1.9,0,3.8,0,5.6,0C980.3,35.2,980.4,35.3,980.5,33.1z" class="st2"/><path d="M988,23.6c0.1,0,0.2,0,0.3,0h0.1h0.1c1.5,0,3.1,0,4.8,0c0,0.6,0,1.2,0,1.7c0,1.3,0,2.5,0,3.8 c0,0.2,0.3,0.6,0.5,0.6c2.9,0,5.8,0,8.8,0c0-1.7,0-3.4,0-5c0-1,0-1,1.1-1s2.3,0,3.4,0c0.4,0,0.7,0.1,0.7,0.6 c0,4.7,0.1,9.5,0.1,14.2c0,0.7-0.2,1.1-1,1c-1.2-0.1-2.4,0-3.6,0c-0.5,0-0.7-0.2-0.7-0.7s0-0.9,0-1.4c0-1.3,0-2.7,0-4.1 c-3.2,0-6.2,0-9.2,0c0,1.3,0,2.5,0,3.7c0,0.5,0,1.1,0,1.6c0,0.6-0.2,0.8-0.8,0.8c-1.5,0-3,0-4.6,0C988,34.1,988,28.9,988,23.6 C987.9,23.6,987.9,23.6,988,23.6z" class="st2"/><path d="M883.1,39.3c-4.8,0-9.7,0-14.5,0.1c-0.6,0-0.8-0.2-0.8-0.8c0-3.1,0-6.2,0-9.4c0-0.5,0.2-1.1,0.4-1.6 c0.5-1.2,1.1-2.3,1.7-3.4c0.1-0.3,0.5-0.6,0.8-0.6c4.2,0,8.4,0,12.5,0c0.1,0,0.2,0,0.4,0.1c0,1.2,0,2.3,0,3.5c0,0.1,0,0.1,0,0.2 c-0.3,0.1-0.6,0.4-0.8,0.4c-2.9,0-5.8,0-8.8,0c-0.3,0-0.6,0-0.9,0c0,0.6,0,1.2,0,1.8c2.9,0,5.8,0,8.7,0c0,1.1,0,2.1,0,3.1 c0,0.2-0.5,0.4-0.8,0.4c-2.2,0-4.4,0-6.7,0c-0.4,0-0.8,0-1.3,0c0.1,0.7,0.1,1.2,0.2,1.8c0.1,0,0.1,0.1,0.2,0.1c2.5,0,5,0,7.5,0 c0.7,0,1.3,0,2,0c0.5,0,0.8,0.2,0.8,0.8c0,0.9,0,1.8,0,2.7c0,0.2-0.2,0.4-0.3,0.6C883.2,39.3,883.1,39.3,883.1,39.3z" class="st2"/><path d="M846.1,23.6c1.9,0,3.7,0,5.4,0c0.6,0,0.8,0.5,1,1c1.4,2.9,2.8,5.8,4.3,9c0.5-1,0.9-1.7,1.3-2.5 c1.1-2.3,2.2-4.6,3.3-6.8c0.2-0.4,0.5-0.6,1-0.6c1.7,0,3.4,0,5.3,0c-0.4,1-0.8,1.8-1.1,2.5c-1.8,3.5-3.6,7.1-5.5,10.6 c-0.3,0.7-0.6,1.4-1,2c-0.2,0.3-0.7,0.6-1,0.6c-1.5,0.1-2.9,0-4.4,0c-0.7,0-1-0.5-1.2-1c-2.2-4.3-4.3-8.7-6.5-13 C846.7,24.8,846.4,24.3,846.1,23.6z" class="st2"/><path d="M940.2,29.6c-1.1,2.2-2.2,4.2-3.2,6.2c-0.5,1-0.9,2-1.5,3c-0.2,0.3-0.6,0.6-0.9,0.6c-1.6,0.1-3.3,0-5.2,0 c0.4-0.8,0.7-1.5,1-2.2c2-4,4.1-8,6-12.1c0.6-1.2,1.2-1.6,2.4-1.5s2.5,0.1,3.8,0c0.5,0,0.7,0.2,0.9,0.6c2.3,4.7,4.7,9.5,7,14.2 c0.1,0.2,0.2,0.5,0.3,0.9c-1.9,0-3.6,0-5.4,0c-0.2,0-0.5-0.4-0.7-0.6c-1.4-2.8-2.8-5.6-4.3-8.5C940.5,30,940.4,29.8,940.2,29.6z" class="st2"/><path d="M966.2,23.7c-0.4,1-0.9,1.8-1.2,2.6c-0.4,1.3-1.2,1.7-2.5,1.5c-1.3-0.1-2.5,0-3.9,0c0,1.2,0,2.3,0,3.4 c0,2.4,0,4.9,0,7.3c0,0.5-0.1,0.8-0.7,0.8c-1.5,0-3,0-4.6,0c0-3.9,0-7.7,0-11.6c-1.7,0-3.3,0-5,0c-0.5,0-0.8-0.1-1-0.6 c-0.4-1-1-2-1.4-3c-0.1-0.2-0.1-0.3-0.2-0.5C952.6,23.7,959.3,23.7,966.2,23.7z" class="st2"/><path d="M994.7,109.1c-3.8,0-7.5,0-11.3,0c-2.6-0.3-4.4-1.7-5.6-4c-0.3-0.6-0.5-1.2-0.7-1.9c1,0,2-0.1,3-0.1 c1.4,0,2.7-0.1,4.1,0c0.7,0,1-0.2,1.2-0.8c0.3,0.2,0.6,0.3,0.9,0.5c-0.1,0.1-0.2,0.1-0.2,0.2l0.1,0.1c0-0.1,0.1-0.2,0.1-0.3 c0.3,0,0.6,0,0.9,0.1c0.1,0,0.1,0,0.2,0c1.3,0,2.6,0,3.9,0c0.8,0,1.5-0.3,2.1-0.9c0.1,1,0.1,1,1.3,0.9c0.2,0,0.3,0,0.5,0 c2,0.1,4.1,0.1,6.1,0.2c0,0.1,0,0.1,0,0.2h-0.1v0.1c-0.7,3.1-2.7,4.9-5.7,5.7C995.2,109,995,109,994.7,109.1z" class="st3"/><path d="M948,109.1c-3.1,0-6.3,0-9.4,0c-2.1-0.1-3.7-1.2-4.8-2.9c-0.7-1.1-1.1-2.5-1.6-3.7c0.6,0,1.1,0,1.7,0 c1.6-0.1,3.2-0.1,4.9-0.2c0.2,0,0.3-0.2,0.5-0.3c0.2-0.1,0.3-0.2,0.5-0.3c0.6,1,1.6,1.2,2.7,1.2c0.9,0,1.8-0.1,2.8-0.1 c0.8,0,1.4-0.4,1.9-1.1c0.2,0.2,0.4,0.5,0.7,0.6c0.5,0.1,1.1,0,1.7,0c1.7,0,3.5,0,5.2,0c-0.1,1.6-0.6,3-1.6,4.1 C951.7,108,950,108.9,948,109.1z" class="st3"/><path d="M887.5,109.1c-2.8,0-5.5,0-8.3,0c-0.2-0.4-0.5-0.7-0.6-1.1c-0.3-1.9-0.6-3.9-0.9-5.8c1.2,0,2.5,0,3.7,0 c2.1,0,4.3,0,6.4,0c0.4,0,0.9-0.1,1.3-0.1c-0.3,1.8-0.6,3.5-0.9,5.3c0,0.3,0,0.6-0.1,0.9C888,108.5,887.7,108.8,887.5,109.1z" class="st3"/><path d="M977,57.4c0.4-1.3,0.9-2.6,2-3.6c0.2,0.3,0.4,0.6,0.7,0.7c0.5,0.2,1.1,0.2,1.6,0.2c5.2,0,10.5,0,15.7,0 c0.8,0,1.7-0.2,2.5-0.3c0.9,1,1.3,2.2,1.5,3.4c-0.4-0.1-0.8-0.1-1.1-0.1c-2,0-3.9,0-5.9,0c-0.6,0-1.1,0.1-1.4,0.6 c-1.1-0.2-2.3-0.4-3.4-0.4c-1.1-0.1-2.1,0.1-3.2,0.1c-0.2-0.1-0.5-0.4-0.7-0.4C982.6,57.4,979.8,57.4,977,57.4z" class="st4"/><path d="M917.3,88.1c-2.6,0-5.2,0-7.8,0c-0.2,0-0.3,0.1-0.5,0.1h-0.1c-1.4,0-2.8,0-4.1,0c-1.1,0-2.3,0-3.4,0 c0-0.9,0-1.8,0-2.7c0.6-0.1,1.3-0.2,1.9-0.1c2.3,0,4.6,0.1,6.9,0.1c2.3,0,4.6-0.1,6.9-0.1c2,0,4.1,0,6.1,0c0.7,0,1.3,0,2,0 c0,1,0,2,0,3c-0.5,0.1-1,0.2-1.5,0.2c-2-0.1-4.1,0.2-6.1-0.3h-0.1C917.4,88.2,917.3,88.2,917.3,88.1z" class="st5"/><path d="M999.6,54.4c-0.8,0.1-1.7,0.3-2.5,0.3c-5.2,0-10.5,0-15.7,0c-0.5,0-1.1,0-1.6-0.2c-0.3-0.1-0.5-0.5-0.7-0.7 c1.2-1.5,2.9-2.1,4.7-2.2c2.7-0.1,5.5-0.2,8.2-0.1c1.3,0,2.5,0.3,3.8,0.4C997.5,52.1,998.6,53.2,999.6,54.4z" class="st6"/><path d="M901.3,83.3c0-0.9,0-1.8,0-2.7c0.4,0.1,0.8,0.1,1.1,0.1c2.1,0,4.2,0,6.3,0c0.1,0.1,0.1,0.2,0.2,0.3 c2.7,0,5.4,0,8.1,0c0.2,0,0.4-0.2,0.6-0.3c0.3,0,0.5,0,0.8,0c0.7,0,1.5,0.1,2.2,0.2c0.3,0,0.6-0.1,0.9-0.1c1.2,0,2.4,0,3.6,0 c0,0.8,0,1.7,0,2.5C917.2,83.3,909.2,83.3,901.3,83.3z" class="st7"/><path d="M903.1,54.4c0.9-1.5,2.3-2.2,4-2.6c1.2-0.3,2.5-0.4,3.8-0.3c2.8,0,5.6,0.1,8.4,0.3c1.6,0.2,3,1.1,4,2.5 c-0.4,0.2-0.8,0.5-1.2,0.5c-3.3,0-6.6,0-10,0c-2.3,0-4.6,0-7,0C904.4,54.7,903.8,54.5,903.1,54.4z" class="st6"/><path d="M901.3,83.3c8,0,15.9,0,23.9,0c0,0.7,0,1.5,0,2.2c-0.7,0-1.3,0-2,0c-2,0-4.1,0-6.1,0c-2.3,0-4.6,0.1-6.9,0.1 c-2.3,0-4.6-0.1-6.9-0.1c-0.6,0-1.3,0.1-1.9,0.1C901.3,84.8,901.3,84.1,901.3,83.3z" class="st8"/><path d="M924.7,56.9c0.1,0.9,0.3,1.8,0.4,2.7c-0.3-0.1-0.5-0.2-0.8-0.1c-2.4,0.1-4.8-0.3-7.2,0.3 c-0.5-0.5-1-1.1-1.8-1.1c-1.3,0-2.5-0.2-3.8-0.1c-0.9,0-1.7,0.5-2.2,1.4c-0.9-0.1-1.8-0.1-2.7-0.2c-1.7,0-3.5,0-5.3,0 c0.2-1,0.4-2,0.6-3c0.4,0.1,0.9,0.3,1.3,0.3c4,0,8,0,12,0c2.7,0,5.4,0,8.1,0C923.8,57,924.2,56.9,924.7,56.9z" class="st9"/><path d="M952.6,54.4c0.9,0.7,1.1,1.7,1.4,2.7c-0.3,0.1-0.5,0.2-0.8,0.2c-2.5,0-5.1,0-7.6,0c-0.5,0-0.9,0-1,0.6 c-1,0.1-2,0.1-3,0.2c0-0.7-0.6-0.6-1-0.6c-1.2,0-2.4,0-3.6,0c-1.4,0-2.9,0-4.3,0c0.5-1,0.9-2,1.4-3c0.5,0.2,1.1,0.4,1.6,0.5 c5,0,10,0,14.9,0C951.3,54.8,951.9,54.5,952.6,54.4z" class="st4"/><path d="M952.6,54.4c-0.6,0.2-1.3,0.5-1.9,0.5c-5,0-10,0-14.9,0c-0.5,0-1.1-0.3-1.6-0.5c1.4-1.8,3.3-2.8,5.6-2.8 c1.9,0,3.7-0.2,5.6-0.1c1.3,0,2.7,0.2,4,0.5C950.6,52.3,951.8,53,952.6,54.4z" class="st6"/><path d="M924.7,56.9c-0.4,0.1-0.9,0.2-1.3,0.2c-2.7,0-5.4,0-8.1,0c-4,0-8,0-12,0c-0.4,0-0.9-0.2-1.3-0.3 c0.4-0.8,0.8-1.6,1.2-2.3c0.7,0.1,1.3,0.3,2,0.3c2.3,0,4.6,0,7,0c3.3,0,6.6,0,10,0c0.4,0,0.8-0.3,1.2-0.5 C923.7,55.1,924.2,56,924.7,56.9z" class="st4"/><path d="M1020,82.8c-0.4-1.4-0.8-2.7-1.3-4.1c1.9-0.1,3.8,0.3,5.6-0.3c0.1,0,0.2,0.1,0.3,0.1c0.3,0.1,0.5,0.2,0.8,0.2 c2.3,0,4.6,0,6.9,0c0,1.4,0,2.7,0,4.1c-1.2-0.1-2.4-0.2-3.7-0.1c-2.2,0-4.5,0.1-6.7,0.1C1021.3,82.8,1020.7,82.8,1020,82.8z" class="st7"/><path d="M1032.4,109c-2.5,0-5,0-7.5,0c-0.1-0.1-0.1-0.2-0.2-0.3c0-0.1,0-0.1,0-0.2c0-2,0-4,0.1-6.1 c0.5-0.1,1.1-0.1,1.6-0.1c1.5,0,3.1,0,4.6,0c0.5,0,1,0.1,1.5,0.1C1032.4,104.7,1032.4,106.9,1032.4,109z" class="st3"/><path d="M841.7,68.9c0-1.5,0-2.9,0-4.4c0.5,0.1,1.1,0.2,1.6,0.1c3.2,0,6.4-0.1,9.6-0.1c0.4,1.5,0.8,2.9,1.2,4.4 c-0.4,0.1-0.7,0.1-1.1,0.1c-1,0-2-0.1-3-0.1C847.3,68.9,844.5,68.9,841.7,68.9z" class="st10"/><path d="M853,64.5c-3.2,0.1-6.4,0.1-9.6,0.1c-0.5,0-1.1-0.1-1.6-0.1c0-1.6,0-3.1,0-4.7c0.5,0,0.9,0,1.4,0 c2.8,0,5.7,0,8.5,0C852,61.4,852.5,63,853,64.5z" class="st11"/><path d="M841.7,68.9c2.8,0,5.6,0,8.5,0c1,0,2,0.1,3,0.1c0.4,0,0.7-0.1,1.1-0.1c0.4,1.2,0.7,2.5,1.1,3.7 c-1.9,0-3.7,0-5.6,0c-0.1-0.2-0.2-0.5-0.4-0.9c0,0.6,0,0.9-0.1,1.2c-2.5-0.1-5-0.1-7.5-0.2C841.7,71.5,841.7,70.2,841.7,68.9z" class="st12"/><path d="M1016.2,109.1c-2.4,0-4.7,0-7.1,0c-0.1-0.2-0.3-0.4-0.3-0.6c0-1.8,0-3.7,0-5.5c1.6-0.1,3.2-0.3,4.7-0.3 c1,0,2,0.3,2.9-0.5c0,1.9,0,3.8,0,5.8l0,0v0.1c0,0.1,0,0.3,0,0.4s0,0.2,0,0.3l0,0C1016.3,109,1016.3,109,1016.2,109.1L1016.2,109.1 z" class="st3"/><path d="M854.1,87c-0.4-1.3-0.8-2.6-1.3-3.9c0.3-0.1,0.5-0.3,0.8-0.3c1.9-0.1,3.9-0.2,5.8-0.2c1.8,0,3.7,0.1,5.5,0.1 c0,1.4,0,2.7,0,4.1c-2.5,0.1-5,0.1-7.5,0.2C856.3,87.1,855.2,87,854.1,87z" class="st8"/><path d="M864.9,82.8c-1.8-0.1-3.7-0.1-5.5-0.1c-1.9,0-3.9,0.1-5.8,0.2c-0.3,0-0.5,0.2-0.8,0.3c-0.3-1.2-0.7-2.4-1-3.6 c0.2-0.1,0.4-0.2,0.5-0.2c1.1,0,2.3,0,3.4,0c0.3,0,0.6-0.2,0.8-0.4c0.2-0.2,0.2-0.4,0.4-0.7c0.1,0.3,0.3,0.5,0.4,0.8 c0.2,0,0.5,0,0.7,0c2.3,0,4.6,0,6.9,0C865,80.2,864.9,81.5,864.9,82.8z" class="st7"/><path d="M849.1,109.1c-2.5,0-4.9,0-7.4,0c0-2.1,0-4.2,0-6.2c2.5,0,5,0,7.5,0c0,2,0,3.9,0,5.9 C849.2,108.8,849.1,109,849.1,109.1z" class="st3"/><path d="M834.1,109c-2.5,0-4.9,0-7.4,0c-0.1-0.1-0.1-0.3-0.1-0.4c0-1.9,0-3.8,0-5.7c1.7-0.1,3.4-0.3,5.1-0.3 c0.8,0,1.6,0.2,2.4-0.1C834.1,104.8,834.1,106.9,834.1,109z" class="st3"/><path d="M969,109.1c-2.3,0-4.6,0-6.9,0l0,0c-0.1-0.3-0.2-0.5-0.3-0.8c0-1.8,0-3.6,0.1-5.5c1.5-0.1,2.9-0.2,4.4-0.1 c1,0,2,0.4,3-0.2c0,0.5,0,1,0,1.6l0,0v0.1c0,0.2,0,0.3,0,0.5c0,0.7,0,1.4,0,2.2c0,0.1,0,0.2,0,0.3c0,0.3,0,0.6,0,0.9 c0,0.2,0,0.3,0,0.5l-0.1,0.1C969.1,108.9,969.1,109,969,109.1z" class="st3"/><path d="M1020,82.8c0.7,0,1.3,0,2,0c2.2,0,4.5-0.1,6.7-0.1c1.2,0,2.4,0.1,3.7,0.1c0,1.3,0,2.6,0,3.9 c-3.7,0-7.4,0-11.1,0C1020.9,85.4,1020.4,84.1,1020,82.8z" class="st8"/><path d="M864.9,109c-2.4,0-4.7,0-7.1,0.1c-0.1,0-0.2,0-0.3,0c0,0-0.1,0-0.1-0.1c0-2.1,0-4.1,0-6.2 c0.8,0.4,1.7,0.3,2.5,0.1c0.6-0.1,1.2-0.1,1.9-0.1c1.1,0.1,2.1,0.2,3.2,0.3C864.9,105.1,864.9,107.1,864.9,109z" class="st3"/><path d="M1016.4,72.2c0,0.2,0,0.4,0,0.6c0,0.1,0,0.2,0,0.3c0,0.2,0,0.3-0.1,0.5c-0.5,0.2-1,0.6-1.5,0.6 c-2,0-4-0.1-6-0.1c0-0.9,0-1.9,0-2.8c0.5,0,1,0.1,1.5,0.1c1-0.1,1.9-0.3,2.9-0.2c1.1,0,2.2,0.4,3.2,0.4c1.7,0,3.4-0.3,5.1-0.4 c0.2,0,0.3-0.1,0.4-0.2c0.4,1.4,0.8,2.8,1.3,4.2c-1.9,0.1-3.8,0.1-5.6,0.2c-0.3-1-0.7-2.1-1-3.1c0-0.1,0-0.2-0.1-0.4h-0.1 C1016.5,72,1016.5,72.1,1016.4,72.2z" class="st13"/><path d="M889,102c-0.4,0.1-0.9,0.1-1.3,0.1c-2.1,0-4.3,0-6.4,0c-1.2,0-2.5,0-3.7,0c-0.1-0.9-0.3-1.7-0.4-2.6 c0-0.2,0-0.4,0-0.7l0,0c0,0,0-0.1-0.1-0.1c0-0.1,0-0.1,0-0.2c2.4-0.1,4.8-0.3,7.2-0.3c1.7,0,3.4,0.1,5,0.2c0.1,0,0.1,0.1,0.2,0.1 C889.4,99.7,889.2,100.9,889,102z" class="st14"/><path d="M925.1,109c-2.4,0-4.7,0-7.1,0.1c-0.1,0-0.2,0-0.3,0c0,0-0.1,0-0.1-0.1c0-2,0-3.9,0-5.9c0.7,0,1.3,0.1,2,0.1 s1.3-0.1,2-0.1c1.2,0,2.3,0.1,3.5,0.1C925.1,105.2,925.1,107.1,925.1,109z" class="st3"/><path d="M889.5,98.6c-0.1,0-0.1-0.1-0.2-0.1c-1.7-0.1-3.4-0.2-5-0.2c-2.4,0-4.8,0.2-7.2,0.3c-0.2-0.8-0.3-1.6-0.5-2.5 c-0.1-0.3-0.1-0.7-0.1-1c1.2-0.1,2.3-0.1,3.5-0.2c0.6,0,1.3,0,1.9,0c0.5,0,1,0.2,1.5,0.2c0.6,0,1.2-0.2,1.8-0.2 c1.2,0,2.4,0.1,3.6,0.1c0.4,0,0.9,0,1.3,0c-0.1,1-0.3,2-0.4,3.1C889.6,98.3,889.6,98.5,889.5,98.6z" class="st15"/><path d="M1022,70.9c-0.1,0.1-0.3,0.1-0.4,0.2c-1.7,0.2-3.4,0.4-5.1,0.4c-1.1,0-2.1-0.4-3.2-0.4 c-0.9,0-1.9,0.2-2.9,0.2c-0.5,0-1-0.1-1.5-0.1c0-1.2,0-2.4,0-3.6c0.9,0.1,1.8,0.1,2.7,0.1c2.8,0,5.6,0,8.4,0c0.3,0,0.7-0.1,1-0.2 C1021.4,68.8,1021.7,69.8,1022,70.9z" class="st12"/><path d="M908.8,109c-2.4,0-4.7,0-7.1,0.1c-0.1,0-0.2,0-0.3,0c0,0-0.1,0-0.1-0.1c0-2,0-3.9,0-5.9c2.5,0.1,5,0.1,7.5,0.2 C908.8,105.2,908.8,107.1,908.8,109z" class="st3"/><path d="M943.7,76.4c1.7,1,3.4,2.1,5.1,3.1c-0.4,0.6-1,0.8-1.7,0.8c-2.7,0-5.5,0-8.2,0c-0.4,0-0.7,0.2-1.1,0.3 c-1.6-0.9-3.2-1.8-4.3-3.3c0.8-0.2,1.7-0.4,2.5-0.4c2-0.1,4,0,5.9,0C942.6,76.9,943.2,76.9,943.7,76.4z" class="st16"/><path d="M1021.1,67.7c-0.3,0.1-0.7,0.2-1,0.2c-2.8,0-5.6,0-8.4,0c-0.9,0-1.8-0.1-2.7-0.1c0-1.1,0-2.3,0-3.4 c0.9,0.1,1.8,0.2,2.7,0.1c2.2,0,4.3-0.1,6.5-0.2c0.6,0,1.3-0.2,1.9-0.3C1020.4,65.2,1020.7,66.4,1021.1,67.7z" class="st10"/><path d="M1020,63.9c-0.6,0.1-1.3,0.3-1.9,0.3c-2.2,0.1-4.3,0.1-6.5,0.2c-0.9,0-1.8-0.1-2.7-0.1c0-1.3,0-2.5-0.1-3.8 c3.4,0,6.8,0,10.1,0C1019.4,61.6,1019.7,62.8,1020,63.9z" class="st11"/><path d="M1008.9,56.4c0-1.5-0.1-3,0-4.4c0-0.2,0.3-0.5,0.5-0.5c2.2,0,4.4,0,6.6,0c0.6,0,0.6,0.5,0.7,0.8 c0.4,1.4,0.8,2.8,1.1,4.2C1014.8,56.4,1011.9,56.4,1008.9,56.4z" class="st6"/><path d="M854.1,87c1.1,0,2.2,0,3.3,0c2.5,0,5-0.1,7.5-0.2c0,1.2,0,2.5,0,3.8c-0.5,0.1-0.9,0.2-1.4,0.2 c-2.7,0-5.5,0-8.2,0C854.9,89.5,854.5,88.3,854.1,87z" class="st17"/><path d="M1021.3,86.7c3.7,0,7.4,0,11.1,0c0,1.2,0,2.5,0,3.7c-1.7,0-3.5,0-5.2,0c-1.5,0-3.1,0.1-4.6,0.1 C1022.1,89.3,1021.7,88,1021.3,86.7z" class="st17"/><path d="M1008.9,56.4c3,0,5.9,0,8.9,0c0.4,1.2,0.7,2.4,1.1,3.6c0,0.1,0.1,0.3,0.1,0.4c-3.4,0-6.8,0-10.1,0 C1008.9,59.1,1008.9,57.8,1008.9,56.4z" class="st18"/><path d="M851.6,59.9c-2.8,0-5.7,0-8.5,0c-0.5,0-0.9,0-1.4,0c0-1.4,0-2.8,0-4.2c1.4,0,2.9-0.1,4.3-0.1 c1.4,0,2.9,0.1,4.3,0.1C850.7,57,851.2,58.4,851.6,59.9z" class="st9"/><path d="M890.1,95.2c-0.4,0-0.9,0-1.3,0c-1.2,0-2.4-0.1-3.6-0.1c-0.6,0-1.2,0.2-1.8,0.2c-0.5,0-1-0.2-1.5-0.2 c-0.6,0-1.3,0-1.9,0c-1.2,0-2.3,0.1-3.5,0.2c-0.1-0.7-0.2-1.5-0.3-2.2c0.2,0,0.3-0.1,0.5-0.1c2.1,0,4.2,0.1,6.2,0.1 c0.1,0.6,0.3,1.1,0.4,1.7h0.1c0.2-1.1,0.4-2.3,0.5-3.4c2,0,4.1,0,6.1,0c0.2,0,0.3,0.2,0.5,0.2C890.5,92.7,890.3,93.9,890.1,95.2z" class="st19"/><path d="M937.8,80.6c0.4-0.1,0.7-0.3,1.1-0.3c2.7,0,5.5,0,8.2,0c0.7,0,1.3-0.2,1.7-0.8c1.6,1,3.1,2.1,4.7,3.1 c-0.9,0.5-1.8,0.5-2.8,0.5c-2.3,0-4.5,0-6.8,0c-0.7,0-1.3,0.1-2,0.2C940.6,82.4,939.2,81.5,937.8,80.6z" class="st7"/><path d="M925.2,72.8c0,1.5,0,3,0,4.5c-2.5-0.1-5.1,0.3-7.6-0.3c0-1.5,0-3,0-4.5C920.1,72.6,922.6,72.7,925.2,72.8z" class="st20"/><path d="M1022.5,90.6c1.5-0.1,3.1-0.1,4.6-0.1c1.7,0,3.5,0,5.2,0c0,1.2,0,2.5,0,3.8c-2.9,0-5.8,0-8.7,0 C1023.3,93,1022.9,91.8,1022.5,90.6z" class="st21"/><path d="M1016.5,89.7c0,1.5,0,3,0,4.5c-0.8,0.4-1.5,0.8-2.4,0.6c-0.7-0.1-1.4-0.1-2.2-0.1c-0.5,0-1,0.1-1.5,0.1 s-1,0-1.5,0c0-1.5,0-3,0-4.5c0.3,0,0.6-0.1,0.9-0.1C1012,90.2,1014.3,90.8,1016.5,89.7z" class="st21"/><path d="M850.3,55.6c-1.4,0-2.9-0.1-4.3-0.1c-1.4,0-2.9,0.1-4.3,0.1c-0.1-1.2-0.1-2.3-0.2-3.5c0-0.5,0.1-0.7,0.7-0.7 c2.1,0,4.3,0,6.4,0c0.5,0,0.7,0.1,0.8,0.6C849.6,53.2,850,54.4,850.3,55.6z" class="st6"/><path d="M879.8,71.4c0.2,1,0.3,2,0.5,3c0.1,0.6,0.1,1.1,0.1,1.7c-0.3,0.1-0.6,0.3-0.8,0.3c-2,0.1-4,0.1-6,0.2 c-0.2-1.6-0.5-3.1-0.7-4.7c2.2-0.1,4.4-0.2,6.6-0.3C879.6,71.6,879.7,71.5,879.8,71.4z" class="st13"/><path d="M1001.6,86.4c0,1.5,0,3,0,4.5c-0.4,0-0.8,0.1-1.2,0.1c-1.4,0.1-2.9,0.1-4.3,0.2c-0.7,0-1.5,0-2.2,0 c0-1.5,0-2.9,0-4.4c0.3-0.1,0.7-0.1,1-0.2C997.1,86.6,999.4,87,1001.6,86.4z" class="st17"/><path d="M1001.6,71.7c0,1.5,0,2.9,0,4.4c-0.2,0-0.4,0.1-0.6,0.1c-1.1,0.1-2.2,0.3-3.3,0.4c-1.3,0-2.5-0.1-3.8-0.1 c0-1.5,0-2.9,0-4.4c0.5,0,1.1,0.2,1.6,0.1C997.6,72,999.6,71.9,1001.6,71.7z" class="st13"/><path d="M857.4,55.8c0-1.4,0-2.8,0-4.3c2.5,0,5,0,7.5,0c0,1.5,0,3,0,4.5C862.4,55.9,859.9,55.8,857.4,55.8z" class="st6"/><path d="M908.8,91.9c0,1.5,0,3,0,4.5c-2.5,0-5,0-7.5,0c0-1.5,0-3,0-4.5C903.8,91.9,906.3,91.9,908.8,91.9z" class="st19"/><path d="M834.1,71.7c0,1.5,0,3,0,4.5c-2.5-0.4-5,0.1-7.5-0.3c0-1.5,0-3,0-4.5C829.1,71.8,831.7,71.4,834.1,71.7z" class="st13"/><path d="M925.2,72.8c-2.5-0.1-5-0.2-7.6-0.3c0-1.5,0-2.9,0-4.4c0.5,0.1,1,0.3,1.5,0.3c1,0,2.1-0.1,3.1-0.1 s2,0.1,2.9,0.1C925.2,69.9,925.2,71.4,925.2,72.8z" class="st12"/><path d="M993.9,91.3c0.7,0,1.5,0,2.2,0c1.4-0.1,2.9-0.1,4.3-0.2c0.4,0,0.8-0.1,1.2-0.1c0,1.4,0,2.8,0,4.2 c-0.5,0.1-0.9,0.1-1.4,0.1c-2.1,0.1-4.2,0.1-6.3,0.2C993.9,94.1,993.9,92.7,993.9,91.3z" class="st19"/><path d="M932.2,65.2c0-1.4,0-2.7,0-4.1c1.9,0.1,3.7,0.1,5.6,0.1c0.7,0,1.4-0.2,2.1-0.3c0,1.4,0,2.8,0,4.2 c-0.4,0.2-0.9,0.4-1.3,0.4c-0.7,0.1-1.5,0-2.2,0C934.9,65.6,933.5,65.8,932.2,65.2z" class="st22"/><path d="M849.2,90.8c0,1.5,0,2.9,0,4.4c-2.5,0-5,0-7.5,0c0-1.5,0-2.9,0-4.4c1.4,0,2.9,0,4.3,0 C847,90.8,848.1,90.8,849.2,90.8z" class="st21"/><path d="M976.6,68.8c0-1.4,0-2.7,0-4.1c0.4,0.1,0.8,0.3,1.2,0.3c2.2,0,4.4-0.1,6.5-0.1c0,1.4,0,2.7,0,4.1 c-0.4,0.1-0.8,0.3-1.1,0.3C981,69.1,978.7,69.7,976.6,68.8z" class="st10"/><path d="M1008.9,94.8c0.5,0,1,0,1.5,0s1-0.1,1.5-0.1c0.7,0,1.5,0,2.2,0.1c0.9,0.1,1.6-0.3,2.4-0.6c0,1.4,0,2.8,0,4.2 c-0.1,0-0.3,0-0.4,0.1c-0.3,0.6-0.9,0.5-1.4,0.5c-1,0-1.9,0-2.9,0c-1,0.1-2,0.2-2.9,0.3C1008.9,97.9,1008.9,96.4,1008.9,94.8z" class="st15"/><path d="M1023.6,94.2c2.9,0,5.8,0,8.7,0c0,1.4,0,2.7,0,4.1c-2.6-0.1-5.2-0.1-7.7-0.2 C1024.3,96.8,1024,95.5,1023.6,94.2z" class="st15"/><path d="M932.2,65.2c1.3,0.6,2.7,0.5,4.1,0.5c0.7,0,1.5,0.1,2.2,0c0.5,0,0.9-0.3,1.3-0.4c0,1.5,0,2.9,0,4.4 c-0.4,0.1-0.8,0.4-1.1,0.4c-1.4,0-2.8-0.2-4.3-0.2c-0.8,0-1.6,0.1-2.3-0.3C932.2,68,932.2,66.6,932.2,65.2z" class="st10"/><path d="M826.7,92c0-0.1,0-0.2,0-0.3c0-0.1,0-0.2,0-0.3c0-0.1,0-0.2,0-0.3c0-0.1,0-0.2,0-0.3c0-0.1,0-0.2,0-0.3 c0.9,0.1,1.8,0.3,2.7,0.3c1.6,0,3.2,0,4.8,0c0,1.4,0,2.8,0,4.2c-0.4,0.1-0.8,0.1-1.2,0.1c-1.6,0-3.2,0-4.8,0 c-0.2,0-0.4-0.1-0.5-0.1c-0.3,0-0.6,0-0.9-0.1c0-0.9,0-1.8,0-2.7C826.7,92.2,826.7,92.1,826.7,92z" class="st21"/><path d="M1024.6,98.1c2.6,0.1,5.2,0.1,7.7,0.2c0,1.4,0,2.8,0,4.2c-0.5-0.1-1-0.1-1.5-0.1c-1.5,0-3.1,0-4.6,0 c-0.5,0-1.1,0.1-1.6,0.1C1024.7,101,1024.6,99.6,1024.6,98.1z" class="st14"/><path d="M1024.7,55.6c0-1.2-0.1-2.4-0.1-3.7c0-0.2,0.3-0.5,0.5-0.5c2.2,0,4.3,0,6.5,0c0.5,0,0.8,0.2,0.7,0.8 c-0.1,1.1,0,2.3,0,3.4C1029.8,55.6,1027.3,55.6,1024.7,55.6z" class="st6"/><path d="M942,83.3c0.7-0.1,1.3-0.2,2-0.2c2.3,0,4.5,0,6.8,0c1,0,1.9,0,2.8-0.5c1,0.9,1.2,2.1,1.2,3.3 c-0.7,0.1-1.5,0.1-2.2,0.1c-1.5,0-3,0-4.5,0c-0.6,0-1,0.1-1.2,0.6c-1.4-1-2.8-2-4.3-3C942.3,83.6,942.2,83.4,942,83.3z" class="st8"/><path d="M931.9,98.8c-0.1-1.2-0.1-2.4-0.2-3.6c0-0.6,0.2-0.9,0.9-0.9c2.1,0,4.1,0,6.2,0c0.2,0,0.5,0.2,0.7,0.3 c0,0.2,0,0.3,0,0.5c0,1,0,2.1,0,3.1c-0.4,0.1-0.9,0.1-1.3,0.2C936,98.4,933.9,98.6,931.9,98.8z" class="st15"/><path d="M993.9,95.5c2.1-0.1,4.2-0.1,6.3-0.2c0.5,0,0.9-0.1,1.4-0.1c0,1.3-0.1,2.6-0.1,3.9c-0.7,0.1-1.4,0.3-2,0.3 c-1.8,0.1-3.7,0.1-5.5,0.2C993.9,98.2,993.9,96.8,993.9,95.5z" class="st15"/><path d="M826.7,95c0.3,0,0.6,0,0.9,0.1c0.2,0,0.4,0.1,0.5,0.1c1.6,0,3.2,0,4.8,0c0.4,0,0.8-0.1,1.2-0.1 c0,1.4,0,2.8,0,4.2c-0.4,0.1-0.9,0.2-1.3,0.1c-1.3,0-2.6-0.1-3.9-0.1c-0.8,0-1.5,0.1-2.3,0.1C826.7,97.9,826.7,96.5,826.7,95z" class="st15"/><path d="M943.7,76.4c-0.5,0.5-1.1,0.5-1.8,0.5c-2,0-4-0.1-5.9,0c-0.8,0-1.7,0.3-2.5,0.4c-0.9-1.1-1.4-2.3-1.3-3.7 c1.9,0,3.8,0,5.7,0c0.7,0,1.3-0.2,2-0.3C940.6,75,942.3,75.4,943.7,76.4z" class="st20"/><path d="M849.2,90.8c-1.1,0-2.2,0-3.2,0c-1.4,0-2.9,0-4.3,0c0-1.4,0-2.7,0-4.1c2.5,0,5,0,7.5,0 C849.2,88.1,849.2,89.4,849.2,90.8z" class="st17"/><path d="M873.5,76.6c2-0.1,4-0.1,6-0.2c0.3,0,0.6-0.2,0.8-0.3c0.2,0.8,0.3,1.7,0.5,2.5c0.1,0.7,0.2,1.5,0.3,2.2 c-1.7,0.1-3.4,0.1-5.1,0.2c-0.6,0-1.2,0.1-1.8,0.2c-0.2-1.2-0.4-2.4-0.6-3.6C873.6,77.2,873.6,76.9,873.5,76.6z" class="st16"/><path d="M841.7,95.2c2.5,0,5,0,7.5,0c0,1.4,0,2.7,0,4.1c-2.5,0-5,0-7.5,0C841.7,97.9,841.7,96.5,841.7,95.2z" class="st15"/><path d="M901.3,77.2c0-1.4,0-2.7,0-4.1c2.5,0.1,5.1,0.1,7.6,0.2c0,1.3,0,2.6,0,3.9C906.3,77.2,903.8,77.2,901.3,77.2z" class="st20"/><path d="M976.6,76.6c0-1.3,0-2.6,0-3.9c1.2,0.8,2.5,0.5,3.7,0.4c1.3,0,2.7-0.2,4-0.3c0,1.4,0,2.7,0,4.1 c-0.7,0.1-1.5,0.1-2.2,0.2c-1.3,0.1-2.6,0.1-3.9,0.1c-0.3,0-0.5-0.1-0.8-0.2C977.1,76.8,976.8,76.7,976.6,76.6z" class="st20"/><path d="M984.3,72.8c-1.3,0.1-2.7,0.3-4,0.3s-2.6,0.4-3.7-0.4c0-1.3,0-2.6,0-3.9c2.2,0.9,4.4,0.3,6.6,0.4 c0.4,0,0.7-0.2,1.1-0.3C984.3,70.2,984.3,71.5,984.3,72.8z" class="st12"/><path d="M826.7,75.9c2.5,0.4,5-0.1,7.5,0.3c0,1.4,0,2.7,0,4.1c-2.5-0.1-5-0.1-7.5-0.2 C826.7,78.8,826.7,77.3,826.7,75.9z" class="st16"/><path d="M954.6,65.5c0,1.2,0,2.4,0,3.6c0,0.1-0.1,0.1-0.1,0.2c-0.1,0-0.1,0-0.2,0.1c-2.3,0-4.5,0-6.8,0 c-0.4,0-0.6-0.1-0.6-0.6c0.1-1.1,0.1-2.2,0.2-3.3c0.7-0.1,1.5-0.2,2.2-0.1C951.1,65.4,952.8,65.4,954.6,65.5z" class="st10"/><path d="M984.3,64.9c-2.2,0-4.4,0.1-6.5,0.1c-0.4,0-0.8-0.2-1.2-0.3c0-1.3,0-2.6,0-3.9c1.1,0.1,2.2,0.3,3.3,0.3 c1.5,0.1,3,0,4.4,0C984.3,62.4,984.3,63.6,984.3,64.9z" class="st22"/><path d="M939.8,60.9c-0.7,0.1-1.4,0.3-2.1,0.3c-1.9,0-3.7-0.1-5.6-0.1c-0.1-1.3,0-2.5,0.5-3.7c1.4,0,2.9,0,4.3,0 c1.2,0,2.4,0,3.6,0c0.4,0,0.9-0.1,1,0.6C940.2,58.4,939.9,59,939.8,60.9z" class="st18"/><path d="M917.6,96.3c0-1.4,0-2.7,0-4.1c0.4,0.1,0.9,0.3,1.3,0.3c2.1,0,4.1-0.1,6.2-0.1c0,1.3,0,2.7,0,4 c-0.5,0.1-0.9,0.2-1.4,0.2c-1.1,0-2.3-0.2-3.4-0.1C919.4,96.5,918.5,96.5,917.6,96.3z" class="st19"/><path d="M908.9,73.3c-2.5-0.1-5.1-0.1-7.6-0.2c0-1.3,0-2.6,0-3.9c2.5,0.1,5.1,0.1,7.6,0.2 C908.9,70.7,908.9,72,908.9,73.3z" class="st12"/><path d="M855.3,90.8c2.7,0,5.5,0,8.2,0c0.5,0,0.9-0.1,1.4-0.2c0,1.1,0,2.2,0,3.3c-0.5,0.1-0.9,0.1-1.4,0.1 c-2.4,0-4.8,0-7.2,0c-0.3-1-0.6-1.9-0.8-2.9c0-0.1-0.1-0.2-0.1-0.2C855.3,90.9,855.3,90.8,855.3,90.8z" class="st21"/><path d="M901.3,96.4c2.5,0,5,0,7.5,0c0,1.3,0,2.6,0,3.9c-0.9,0-1.8,0-2.8,0c-1.6,0-3.2,0-4.8,0 C901.3,99,901.3,97.7,901.3,96.4z" class="st23"/><path d="M1016.5,89.7c-2.2,1.1-4.4,0.5-6.7,0.5c-0.3,0-0.6,0.1-0.9,0.1c0-1.3,0-2.6,0-3.9c0.4,0,0.8,0,1.2,0 c2.1-0.2,4.3,0.4,6.4-0.6C1016.4,87.1,1016.5,88.4,1016.5,89.7z" class="st17"/><path d="M925.1,92.4c-2.1,0.1-4.1,0.1-6.2,0.1c-0.4,0-0.9-0.2-1.3-0.3c0-1.3,0-2.6,0-3.9c2,0.5,4.1,0.2,6.1,0.3 c0.5,0,1-0.1,1.5-0.2C925.1,89.7,925.1,91,925.1,92.4z" class="st24"/><path d="M931.9,98.8c2.1-0.2,4.1-0.3,6.2-0.5c0.4,0,0.9-0.1,1.3-0.2c0,0.7,0,1.4,0.1,2.2c0,0.1,0,0.1,0,0.2 c0.1,0.4,0.1,0.8,0.2,1.2c-0.2,0.1-0.3,0.2-0.5,0.3c-0.2,0.1-0.3,0.3-0.5,0.3c-1.6,0.1-3.2,0.1-4.9,0.2c-0.6,0-1.1,0-1.7,0 C932.1,101.3,932,100,931.9,98.8z" class="st14"/><path d="M890.7,91.5c-0.2-0.1-0.3-0.2-0.5-0.2c-2,0-4.1,0-6.1,0c0.2-1.5,0.4-2.9,0.6-4.4c2.3,0,4.5,0,6.8,0 C891.1,88.4,890.9,90,890.7,91.5z" class="st17"/><path d="M976.6,90.3c0-1.2,0-2.5,0-3.7c1.3,0.1,2.6,0.3,3.8,0.3c1.3,0,2.6,0.3,3.9-0.3c0,1.3,0,2.6,0,3.9 c-0.4,0.1-0.8,0.3-1.2,0.3c-1,0-1.9-0.1-2.9-0.1C979,90.6,977.8,90.9,976.6,90.3z" class="st17"/><path d="M1001.6,71.7c-2,0.2-4,0.3-6,0.4c-0.5,0-1.1-0.1-1.6-0.1c0-1.4,0-2.7,0-4.1c0.7,0.1,1.4,0.3,2.1,0.3 c0.6,0,1.2-0.1,1.8-0.1c1.3-0.1,2.5-0.2,3.8-0.3C1001.6,69.1,1001.6,70.4,1001.6,71.7z" class="st12"/><path d="M917.6,96.3c0.9,0.3,1.8,0.3,2.7,0.2c1.1-0.1,2.3,0.1,3.4,0.1c0.5,0,0.9-0.1,1.4-0.2c0,1.3,0,2.6,0,3.9 c-2.5,0-5,0.1-7.5-0.2C917.6,98.9,917.6,97.6,917.6,96.3z" class="st23"/><path d="M939.8,73.3c-0.7,0.1-1.3,0.3-2,0.3c-1.9,0-3.8,0-5.7,0c0-1.4,0-2.8,0-4.2c0.7,0.4,1.5,0.4,2.3,0.3 c1.4,0,2.8,0.1,4.3,0.2c0.4,0,0.8-0.2,1.1-0.4C939.8,70.8,939.8,72,939.8,73.3z" class="st12"/><path d="M984.3,61.1c-1.5,0-3,0-4.4,0c-1.1,0-2.2-0.2-3.3-0.3c0.2-1.1,0.3-2.3,0.5-3.4c2.8,0.1,5.6,0.1,8.4,0.2 c0.2,0,0.5,0.3,0.7,0.4c-0.8,0.4-1.4,0.8-1.6,1.7C984.4,60.1,984.4,60.6,984.3,61.1z" class="st18"/><path d="M879.8,71.4c-0.1,0.1-0.2,0.1-0.3,0.2c-2.2,0.1-4.4,0.2-6.6,0.3c-0.2-1.5-0.5-2.9-0.7-4.4c2.4,0,4.8,0,7.2,0 C879.5,68.8,879.6,70.1,879.8,71.4z" class="st12"/><path d="M841.7,72.8c2.5,0.1,5,0.1,7.5,0.2c0,1.2,0,2.5,0,3.7c-2.5,0-5,0-7.5,0C841.7,75.4,841.7,74.1,841.7,72.8z" class="st20"/><path d="M992.7,58.3c0.3-0.5,0.8-0.6,1.4-0.6c2,0,3.9,0,5.9,0c0.4,0,0.8,0.1,1.1,0.1c0.1,1.1,0.2,2.3,0.3,3.4 c-2.5,0.1-5.1,0.1-7.6,0.2C993.8,60.2,993.7,59.1,992.7,58.3z" class="st18"/><path d="M993.9,76.4c1.3,0.1,2.5,0.2,3.8,0.1c1.1,0,2.2-0.2,3.3-0.4c0.2,0,0.4-0.1,0.6-0.1c0,1.2,0,2.4,0,3.6 c-1.1,0.2-2.2,0.4-3.3,0.4c-1.5,0.1-3,0-4.4,0C993.9,78.9,993.9,77.7,993.9,76.4z" class="st16"/><path d="M864.9,65.5c0,1.2,0,2.5,0,3.7c-0.6,0-1.2,0-1.8,0c-1.9-0.1-3.8-0.2-5.7-0.3c0-1.2,0-2.5,0-3.7 c0.7,0.1,1.5,0.3,2.2,0.3C861.4,65.5,863.2,65.5,864.9,65.5z" class="st10"/><path d="M841.7,76.7c2.5,0,5,0,7.5,0c0,1.2,0,2.5,0,3.7c-0.6,0-1.2,0.1-1.8,0.1c-1.9,0-3.8,0-5.8,0 C841.7,79.3,841.7,78,841.7,76.7z" class="st16"/><path d="M895.6,60.8c-0.2,1.3-0.4,2.6-0.6,3.9c-1.1,0-2.2,0-3.4,0c-1.3-0.1-2.5-0.2-3.8-0.3c0.1-1,0.2-2.1,0.3-3.1 c0-0.3,0.1-0.6,0.1-1c1.1,0.2,2.2,0.4,3.3,0.5C892.9,60.8,894.3,60.8,895.6,60.8z" class="st11"/><path d="M834.1,90.8c-1.6,0-3.2,0-4.8,0c-0.9,0-1.8-0.2-2.7-0.3c0-1.2,0-2.5,0-3.7c2.5,0.7,5,0,7.5,0.3 C834.2,88.3,834.1,89.5,834.1,90.8z" class="st17"/><path d="M834.1,71.7c-2.5-0.4-5,0.1-7.5-0.3c0-1.2,0-2.4,0-3.6c2.5,0,5,0,7.5,0C834.1,69.1,834.1,70.4,834.1,71.7z" class="st12"/><path d="M1032.3,78.8c-2.3,0-4.6,0-6.9,0c-0.3,0-0.5-0.1-0.8-0.2c0-0.3,0-0.6,0.1-0.9c0-0.2,0-0.3,0-0.5 c0-0.1,0-0.2,0-0.3l0,0c0-0.1,0-0.2,0-0.3c0-0.5,0-0.9,0-1.4c0.9-0.1,1.8-0.1,2.6-0.1c1.7,0,3.3,0,5,0 C1032.3,76.3,1032.3,77.5,1032.3,78.8z" class="st16"/><path d="M961.9,76.3c0-1.2,0-2.5,0-3.7c2.4-0.1,4.8-0.1,7.3-0.2c0,1.2,0,2.5,0,3.7c-1.4,0.1-2.8,0.3-4.2,0.3 C964,76.4,963,76.3,961.9,76.3z" class="st13"/><path d="M887.8,64.4c1.3,0.1,2.5,0.2,3.8,0.3c1.1,0.1,2.2,0,3.4,0c-0.2,1.2-0.4,2.5-0.6,3.7c-0.9,0.1-1.7,0.2-2.6,0.1 c-1.5,0-3.1-0.1-4.6-0.1C887.4,67.1,887.6,65.7,887.8,64.4z" class="st10"/><path d="M1008.9,99.4c1-0.1,2-0.2,2.9-0.3c1-0.1,1.9,0,2.9,0c0.5,0,1.1,0.1,1.4-0.5c0-0.1,0.2-0.1,0.4-0.1 c0,1.3,0,2.5,0,3.8c-0.8,0.8-1.8,0.5-2.9,0.5c-1.6,0-3.1,0.2-4.7,0.3C1008.9,101.8,1008.9,100.6,1008.9,99.4z" class="st25"/><path d="M1001.6,86.4c-2.2,0.6-4.5,0.2-6.7,0.3c-0.3,0-0.7,0.1-1,0.2c0-1.2,0-2.5,0-3.7c2.6-0.1,5.2-0.1,7.7-0.2 C1001.6,84.1,1001.6,85.3,1001.6,86.4z" class="st8"/><path d="M976.6,90.3c1.2,0.6,2.4,0.2,3.7,0.3c1,0.1,1.9,0.1,2.9,0.1c0.4,0,0.8-0.2,1.2-0.3c0,1.1,0,2.3,0,3.4 c-0.4,0.1-0.7,0.4-1.1,0.4c-1.6,0.1-3.2,0.1-4.8,0c-0.6,0-1.2-0.3-1.8-0.4C976.6,92.7,976.6,91.5,976.6,90.3z" class="st21"/><path d="M976.6,76.6c0.3,0.1,0.5,0.3,0.8,0.4s0.5,0.2,0.8,0.2c1.3,0,2.6-0.1,3.9-0.1c0.7,0,1.5-0.1,2.2-0.2 c0,1.2,0,2.4,0,3.6c-1.6,0.1-3.3,0.1-4.9,0.2c-1,0-2,0.1-2.8-0.5C976.6,79,976.6,77.8,976.6,76.6z" class="st16"/><path d="M895.6,60.8c-1.3,0-2.7,0.1-4,0c-1.1-0.1-2.2-0.3-3.3-0.5c0.2-1.2,0.4-2.4,0.6-3.6c1.1,0.1,2.1,0.3,3.2,0.3 c1.4,0.1,2.8,0,4.2,0C896,58.3,895.8,59.5,895.6,60.8z" class="st18"/><path d="M961.9,76.3c1.1,0.1,2.1,0.2,3.2,0.1c1.4,0,2.8-0.2,4.2-0.3c0,1.3,0,2.5,0,3.8c-0.4,0.1-0.8,0.1-1.1,0.2 c-2.1,0-4.1,0-6.2,0C961.9,78.8,961.9,77.5,961.9,76.3z" class="st16"/><path d="M908.8,91.9c-2.5,0-5,0-7.5,0c0-1.2,0-2.4,0-3.6c1.1,0,2.3,0,3.4,0c1.4,0,2.8,0,4.1,0 C908.8,89.5,908.8,90.7,908.8,91.9z" class="st24"/><path d="M993.9,99.5c1.8-0.1,3.7-0.1,5.5-0.2c0.7,0,1.4-0.2,2-0.3c-0.1,1.3-0.2,2.6-0.3,3.9c-2-0.1-4.1-0.1-6.1-0.2 c-0.2,0-0.3,0-0.5,0c-1.1,0.1-1.1,0.1-1.3-0.9C993.5,101.1,993.7,100.3,993.9,99.5z" class="st25"/><path d="M917.6,77c2.5,0.6,5,0.2,7.6,0.3c0,1.1,0,2.3,0,3.4c-1.2,0-2.4,0-3.6,0c-0.3,0-0.6,0.1-0.9,0.1 c-0.7,0-1.5-0.1-2.2-0.2c-0.2,0-0.5,0-0.8,0C917.6,79.5,917.6,78.3,917.6,77z" class="st16"/><path d="M893.7,72.3c-0.2,1.2-0.4,2.5-0.6,3.7c-2.3,0-4.7,0-7,0c0.2-1.1,0.3-2.1,0.5-3.2c0-0.2,0.1-0.4,0.2-0.6 C889,72.3,891.4,72.3,893.7,72.3z" class="st13"/><path d="M841.7,99.2c2.5,0,5,0,7.5,0c0,1.2,0,2.4,0,3.6c-2.5,0-5,0-7.5,0C841.7,101.6,841.7,100.4,841.7,99.2z" class="st25"/><path d="M908.9,69.4c-2.5-0.1-5.1-0.1-7.6-0.2c0-1.2,0-2.4,0-3.6c0.7,0.1,1.4,0.1,2.2,0.2c1.8,0.1,3.6,0.1,5.4,0.2 C908.9,67.1,908.9,68.2,908.9,69.4z" class="st10"/><path d="M961.9,99.4c0-1.2,0-2.4,0-3.6c2.4-0.1,4.9,0.2,7.3-0.2c0,1.1,0,2.3,0,3.4c-0.8,0.6-1.8,0.3-2.7,0.3 C965,99.4,963.5,99.4,961.9,99.4z" class="st15"/><path d="M865,78.9c-2.3,0-4.6,0-6.9,0c-0.2,0-0.5,0-0.7,0c0-1.1,0-2.3,0.1-3.4c0.8,0,1.7,0,2.5,0c0.5,0,1,0,1.5,0 c1.2,0,2.4,0,3.5,0C865,76.6,865,77.8,865,78.9z" class="st16"/><path d="M1032.3,75c-1.7,0-3.3,0-5,0c-0.9,0-1.8,0.1-2.6,0.1c0-1.1,0-2.3,0.1-3.4c2.1-0.2,4.2-0.5,6.3-0.2 c0.4,0.1,0.9,0,1.3,0C1032.3,72.7,1032.3,73.9,1032.3,75z" class="st13"/><path d="M901.3,77.2c2.5,0,5.1,0,7.6,0c0,0.8,0,1.5,0,2.3c0,0.1,0,0.1,0,0.2c0,0.2,0,0.5,0,0.7c0,0.1-0.1,0.2-0.1,0.3 c-2.1,0-4.2,0-6.3,0c-0.4,0-0.8-0.1-1.1-0.1C901.3,79.5,901.3,78.3,901.3,77.2z" class="st16"/><path d="M954.7,92c0,1.2,0,2.4,0,3.6c-0.8,0-1.6,0.1-2.4,0.1c-0.6,0-1.2-0.1-1.9-0.1c-1.1,0-2.2,0-3.2,0 c0-1.2,0-2.4,0-3.6c0.2,0.1,0.4,0.1,0.6,0.1C950.1,92.1,952.4,92.1,954.7,92z" class="st19"/><path d="M993.8,61.4c2.5-0.1,5.1-0.1,7.6-0.2c0.1,1.1,0.1,2.2,0.2,3.3c-1.6,0.1-3.1,0.2-4.7,0.3c-1,0.1-2,0.1-2.9,0.2 C993.9,63.8,993.9,62.6,993.8,61.4z" class="st22"/><path d="M969.2,65.5c0,1.1,0,2.3,0,3.4c-0.9,0.1-1.7,0.3-2.6,0.3c-0.7,0-1.5-0.1-2.2-0.1c-0.8,0.1-1.6,0.2-2.4-0.2 c0-1.2,0-2.4,0-3.6c0.7,0.1,1.4,0.3,2,0.3c0.8,0,1.7-0.1,2.5-0.1C967.4,65.5,968.3,65.5,969.2,65.5z" class="st10"/><path d="M893.7,72.3c-2.3,0-4.7,0-7,0c0.2-1.3,0.3-2.6,0.5-3.9c1.5,0.1,3.1,0.1,4.6,0.1c0.9,0,1.7-0.1,2.6-0.1 C894.1,69.7,893.9,71,893.7,72.3z" class="st12"/><path d="M857.4,55.8c2.5,0.1,5,0.1,7.5,0.2c0,1.1,0,2.3,0,3.4c-2.5-0.1-5-0.1-7.6-0.2 C857.4,58.1,857.4,56.9,857.4,55.8z" class="st9"/><path d="M925.2,68.4c-1-0.1-2-0.1-2.9-0.1c-1,0-2.1,0.1-3.1,0.1c-0.5,0-1-0.2-1.5-0.3c0-1.1,0-2.3,0-3.4 c2.5,0.1,5,0.2,7.5,0.3C925.2,66.2,925.2,67.3,925.2,68.4z" class="st10"/><path d="M826.7,99.4c0.8-0.1,1.5-0.2,2.3-0.1c1.3,0,2.6,0.1,3.9,0.1c0.4,0,0.9-0.1,1.3-0.1c0,1.1,0,2.3,0,3.4 c-0.8,0.3-1.6,0.1-2.4,0.1c-1.7,0-3.4,0.2-5.1,0.3C826.7,101.8,826.7,100.6,826.7,99.4z" class="st25"/><path d="M878.2,60c0.2,0.9,0.3,1.9,0.5,2.8c0,0.3,0.1,0.5,0.1,0.8c-0.7,0.1-1.3,0.3-2,0.3c-1.7,0.1-3.5,0.2-5.2,0.3 c-0.2-1.3-0.4-2.5-0.6-3.8c1.8,0,3.6,0,5.4,0C877,60.4,877.6,60.2,878.2,60z" class="st11"/><path d="M969.2,95.6c-2.4,0.4-4.9,0-7.3,0.2c0-1.1,0-2.3,0-3.4c0.4,0,0.8-0.1,1.1-0.1c2.1,0,4.2,0.4,6.2-0.2 C969.2,93.2,969.2,94.4,969.2,95.6z" class="st19"/><path d="M1024.7,55.6c2.5,0,5.1,0,7.6,0c0,1.2,0,2.4,0,3.6c-0.5-0.1-1.1-0.3-1.6-0.3c-2.1,0-4.1,0-6.2,0 C1024.6,57.8,1024.7,56.7,1024.7,55.6z" class="st9"/><path d="M901.3,59.7c1.8,0,3.5,0,5.3,0c0.9,0,1.8,0.1,2.7,0.2c-0.5,1-0.4,2.2-0.4,3.3c-2.5-0.1-5.1-0.1-7.6-0.2 C901.3,61.9,901.3,60.8,901.3,59.7z" class="st26"/><path d="M891.4,86.9c-2.3,0-4.5,0-6.8,0c0.2-1.3,0.4-2.6,0.6-3.9c1,0.1,2.1,0.3,3.1,0.3c1.2,0,2.5-0.1,3.7-0.1 C891.8,84.4,891.6,85.6,891.4,86.9z" class="st8"/><path d="M834.2,87c-2.5-0.3-5,0.3-7.5-0.3c0-1.1,0-2.2,0-3.3c2.5,0.1,5,0.1,7.5,0.2C834.2,84.7,834.2,85.9,834.2,87z" class="st8"/><path d="M1016.4,76.4c0,1.1,0,2.2,0,3.3c-0.7,0.4-1.5,0.5-2.4,0.5c-1.7,0-3.4,0-5.2,0c0-1.1,0-2.3,0-3.4 c1.5,0,3.1-0.1,4.6,0C1014.5,76.8,1015.5,77,1016.4,76.4z" class="st16"/><path d="M984.3,86.6c-1.3,0.6-2.6,0.3-3.9,0.3c-1.3,0-2.6-0.2-3.8-0.3c0-1.1,0-2.2,0-3.3c2.6,0.6,5.1,0.3,7.7,0.2 C984.3,84.5,984.3,85.5,984.3,86.6z" class="st8"/><path d="M886.1,76.1c2.3,0,4.7,0,7,0c-0.2,1.2-0.4,2.4-0.6,3.6c-1.1,0-2.2-0.1-3.2,0c-1.2,0.1-2.5,0.3-3.6-0.3 C885.8,78.3,885.9,77.2,886.1,76.1z" class="st16"/><path d="M871.7,64.2c1.7-0.1,3.5-0.2,5.2-0.3c0.7,0,1.3-0.2,2-0.3c0.2,1.3,0.3,2.6,0.5,3.9c-2.4,0-4.8,0-7.2,0 C872,66.4,871.8,65.3,871.7,64.2z" class="st10"/><path d="M954.6,102.3c-1.7,0-3.5,0-5.2,0c-0.6,0-1.1,0-1.7,0c-0.3,0-0.5-0.4-0.7-0.6c0.1-0.9,0.2-1.9,0.2-2.8 c0.5,0.1,1,0.2,1.5,0.2c1.2,0,2.4-0.2,3.6-0.1c0.8,0.1,1.6,0.2,2.4-0.2C954.7,99.9,954.6,101.1,954.6,102.3z" class="st14"/><path d="M994,65c1-0.1,2-0.1,2.9-0.2c1.6-0.1,3.1-0.2,4.7-0.3c0,1.1,0,2.2,0,3.3c-1.3,0.1-2.5,0.2-3.8,0.3 c-0.6,0-1.2,0.2-1.8,0.1c-0.7,0-1.4-0.2-2.1-0.3C994,67,994,66,994,65z" class="st10"/><path d="M961.9,99.4c1.6,0,3.1,0,4.7,0c0.9,0,1.8,0.3,2.7-0.3c0,1.1,0,2.3,0,3.4c-1,0.6-2,0.2-3,0.2 c-1.4,0-2.9,0.1-4.4,0.1C961.9,101.7,961.9,100.5,961.9,99.4z" class="st25"/><path d="M878.2,60c-0.6,0.2-1.2,0.4-1.8,0.5c-1.8,0.1-3.6,0-5.4,0c-0.2-0.8-0.3-1.7-0.5-2.5c-0.1-0.3-0.1-0.6-0.1-1 c2.5,0,5,0,7.5,0C878,58,878.1,59,878.2,60z" class="st18"/><path d="M865,75.5c-1.2,0-2.4,0-3.5,0c-0.5,0-1,0-1.5,0c-0.8,0-1.7,0-2.5,0c0-1.2,0-2.4,0-3.6 c0.8,0.1,1.7,0.2,2.5,0.3c0.4,0.1,0.9,0.1,1.3,0.1c1.2,0,2.5,0,3.7,0C865,73.4,865,74.4,865,75.5z" class="st13"/><path d="M834.1,58.1c0,1.1,0,2.2,0,3.3c-2.5-0.1-5-0.1-7.5-0.2c0-1.1,0-2.2,0-3.3c2.1,0,4.1,0,6.2,0 C833.3,58,833.7,58.1,834.1,58.1z" class="st18"/><path d="M826.7,54.5c0-0.9,0-1.7,0-2.6c0-0.5,0.2-0.6,0.6-0.6c0.9,0,1.8,0,2.7,0c1.4,0,2.8,0,4.2,0c0,1.2,0,2.3,0,3.4 c-1.8,0-3.5,0-5.3,0C828.1,54.8,827.4,54.6,826.7,54.5z" class="st6"/><path d="M1032.3,71.6c-0.4,0-0.9,0.1-1.3,0c-2.1-0.4-4.2,0-6.3,0.2c0-1.1,0-2.2,0-3.3c1.4-0.1,2.8-0.3,4.2-0.3 c1.1,0,2.3,0.1,3.4,0.1C1032.3,69.4,1032.3,70.5,1032.3,71.6z" class="st12"/><path d="M834.2,83.6c-2.5-0.1-5-0.1-7.5-0.2c0-1.1,0-2.2,0-3.3c2.5,0.1,5,0.1,7.5,0.2 C834.1,81.4,834.2,82.5,834.2,83.6z" class="st7"/><path d="M849.2,86.7c-2.5,0-5,0-7.5,0c0-1,0-2.1,0-3.1c0.5-0.1,0.9-0.2,1.4-0.2c2.1,0,4.1,0.1,6.1,0.1 C849.2,84.6,849.2,85.7,849.2,86.7z" class="st8"/><path d="M962,68.9c0.8,0.4,1.6,0.3,2.4,0.2c0.7-0.1,1.5,0.1,2.2,0.1c0.9,0,1.7-0.2,2.6-0.3c0,1.1,0,2.3,0,3.4 c-2.4,0.1-4.8,0.1-7.3,0.2C962,71.3,962,70.1,962,68.9z" class="st12"/><path d="M1032.3,68.3c-1.1-0.1-2.3-0.2-3.4-0.1c-1.4,0-2.8,0.2-4.2,0.3c0-1.1,0-2.2,0-3.3c2.5,0,5,0,7.5,0 C1032.3,66.2,1032.3,67.2,1032.3,68.3z" class="st10"/><path d="M954.8,98.8c-0.8,0.4-1.6,0.3-2.4,0.2c-1.2-0.1-2.4,0.1-3.6,0.1c-0.5,0-1-0.1-1.5-0.2c0-1.1,0-2.2,0-3.3 c1.1,0,2.2,0,3.2,0c0.6,0,1.2,0.1,1.9,0.1c0.8,0,1.6-0.1,2.4-0.1C954.7,96.7,954.8,97.7,954.8,98.8z" class="st15"/><path d="M976.6,93.9c0.6,0.2,1.2,0.4,1.8,0.4c1.6,0,3.2,0,4.8,0c0.4,0,0.7-0.3,1.1-0.4c0,1.1,0,2.2,0,3.3 c-0.6,0.1-1.2,0.3-1.8,0.3c-0.7,0-1.5,0-2.2-0.1c-1.2-0.2-2.5,0.3-3.7-0.3C976.6,96,976.6,95,976.6,93.9z" class="st15"/><path d="M1016.4,85.8c-2,1.1-4.3,0.5-6.4,0.6c-0.4,0-0.8,0-1.2,0c0-1,0-2.1,0-3.1c1.3-0.1,2.7-0.1,4-0.2 c0.8,0,1.6,0,2.4,0c0.4,0,0.8-0.2,1.2-0.3C1016.4,83.8,1016.4,84.8,1016.4,85.8z" class="st8"/><path d="M834.1,67.8c-2.5,0-5,0-7.5,0c0-1,0-2.1,0-3.1c0.4-0.1,0.8-0.2,1.2-0.1c2.1,0,4.2,0.1,6.3,0.1 C834.1,65.7,834.1,66.8,834.1,67.8z" class="st10"/><path d="M834.1,64.7c-2.1-0.1-4.2-0.1-6.3-0.1c-0.4,0-0.8,0.1-1.2,0.1c0-1.1,0-2.3,0-3.4c2.5,0.1,5,0.1,7.5,0.2 C834.1,62.5,834.1,63.6,834.1,64.7z" class="st22"/><path d="M976.6,97c1.2,0.6,2.5,0.1,3.7,0.3c0.7,0.1,1.5,0.2,2.2,0.1c0.6,0,1.2-0.2,1.8-0.3c0,1,0,2.1,0,3.1 c-0.4,0.1-0.8,0.2-1.1,0.1c-2.2-0.2-4.4,0.4-6.6-0.1C976.6,99.2,976.6,98.1,976.6,97z" class="st23"/><path d="M856.3,94.1c2.4,0,4.8,0,7.2,0c0.5,0,0.9-0.1,1.4-0.1c0,1,0,2,0,3c-0.6,0.1-1.3,0.1-1.9,0.1 c-2,0.1-3.9,0.1-5.9,0.2C856.8,96.1,856.6,95.1,856.3,94.1z" class="st15"/><path d="M1024.6,58.9c2.1,0,4.1,0,6.2,0c0.5,0,1.1,0.2,1.6,0.3c0,1,0,2.1,0,3.1c-0.7-0.1-1.5-0.3-2.2-0.3 c-1.8,0-3.6,0.1-5.4,0.1c0-0.8-0.1-1.5-0.1-2.3C1024.7,59.6,1024.6,59.2,1024.6,58.9z" class="st26"/><path d="M857.1,97.2c2-0.1,3.9-0.1,5.9-0.2c0.6,0,1.3-0.1,1.9-0.1c0,1.1,0,2.2,0,3.3c-2.5,0-5,0-7.5-0.3 C857.3,99,857.2,98.1,857.1,97.2z" class="st23"/><path d="M961.9,80c2.1,0,4.1,0,6.2,0c0.4,0,0.8-0.1,1.1-0.2c0,1.1,0,2.2,0,3.3c-1,0-2,0-3,0c-1.4,0-2.9,0-4.3,0 C961.9,82.1,961.9,81,961.9,80z" class="st7"/><path d="M826.7,54.5c0.7,0.1,1.5,0.3,2.2,0.3c1.8,0,3.5,0,5.3,0c0,1.1,0,2.2,0,3.3c-0.4-0.1-0.9-0.1-1.3-0.1 c-2.1,0-4.1,0-6.2,0C826.7,56.8,826.7,55.7,826.7,54.5z" class="st4"/><path d="M885.6,79.4c1.2,0.6,2.4,0.5,3.6,0.3c1.1-0.1,2.2,0,3.2,0c-0.2,1.1-0.3,2.3-0.5,3.4c-1.2,0.1-2.5,0.2-3.7,0.1 c-1,0-2.1-0.2-3.1-0.3c0.1-0.9,0.2-1.8,0.3-2.8C885.5,79.9,885.6,79.7,885.6,79.4z" class="st7"/><path d="M864.9,72.4c-1.2,0-2.5,0-3.7,0c-0.4,0-0.9-0.1-1.3-0.1c-0.8-0.1-1.7-0.2-2.5-0.3c0-1,0-2,0-3 c1.9,0.1,3.8,0.2,5.7,0.3c0.6,0,1.2,0,1.8,0C864.9,70.3,864.9,71.3,864.9,72.4z" class="st12"/><path d="M954.7,92c-2.3,0.1-4.6,0.1-6.9,0.1c-0.2,0-0.4-0.1-0.6-0.1c0-1,0-2.1-0.1-3.1c0-0.1-0.1-0.1-0.1-0.2v-0.1 c0.8,0.6,1.8,0.5,2.7,0.5c1,0,2.1,0,3.1,0c0.6,0,1.2-0.2,1.8-0.3C954.8,89.8,954.8,90.9,954.7,92z" class="st24"/><path d="M1001.6,83c-2.6,0.1-5.2,0.1-7.7,0.2c0-1,0-2,0-3c1.5,0,3,0.1,4.4,0c1.1-0.1,2.2-0.3,3.3-0.4 C1001.6,80.8,1001.6,81.9,1001.6,83z" class="st7"/><path d="M857.4,59.2c2.5,0.1,5,0.1,7.6,0.2c0,1,0,2.1,0,3.1c-1.2,0-2.4,0-3.6,0c-1.3-0.1-2.6-0.2-3.9-0.3 C857.4,61.2,857.4,60.2,857.4,59.2z" class="st26"/><path d="M944.6,57.8c0.1-0.6,0.5-0.6,1-0.6c2.5,0,5.1,0,7.6,0c0.3,0,0.5-0.1,0.8-0.2c0.2,1,0.4,2,0.6,3 c-2.5,0-5.1,0-7.6,0C946.8,58.6,945.9,58,944.6,57.8z" class="st18"/><path d="M984.3,83.4c-2.6,0.2-5.2,0.4-7.7-0.2c0-1,0-2.1,0-3.1c0.9,0.6,1.9,0.5,2.8,0.5c1.6,0,3.3-0.1,4.9-0.2 C984.3,81.5,984.3,82.5,984.3,83.4z" class="st7"/><path d="M1016.4,82.8c-0.4,0.1-0.8,0.3-1.2,0.3c-0.8,0-1.6,0-2.4,0c-1.3,0-2.7,0.1-4,0.2c0-1,0-2.1,0-3.1 c1.7,0,3.4,0,5.2,0c0.8,0,1.6-0.1,2.4-0.5C1016.4,80.7,1016.4,81.8,1016.4,82.8z" class="st7"/><path d="M969.3,59.4c0,1,0,2,0,3c-2.1,0.1-4.2,0.1-6.3,0.2c-0.4,0-0.8-0.1-1.1-0.1c0-1,0.1-2,0.1-3 C964.4,59.4,966.8,59.4,969.3,59.4z" class="st26"/><path d="M969.3,92c-2.1,0.6-4.2,0.3-6.2,0.2c-0.4,0-0.8,0.1-1.1,0.1c0-1,0-2.1,0-3.1c0.6,0,1.2,0,1.8,0 c1.9-0.1,3.8,0.3,5.6-0.1C969.3,90.1,969.3,91,969.3,92z" class="st24"/><path d="M857.4,62.2c1.3,0.1,2.6,0.2,3.9,0.3c1.2,0.1,2.4,0,3.6,0c0,1,0,2,0,3c-1.8,0-3.6,0-5.3,0 c-0.7,0-1.5-0.2-2.2-0.3C857.4,64.2,857.4,63.2,857.4,62.2z" class="st22"/><path d="M961.9,83.1c1.4,0,2.9,0,4.3,0c1,0,2,0,3,0c0,1,0,2,0,3c-0.5,0.1-0.9,0.1-1.4,0.2c-2,0-4,0-6,0 C961.9,85.2,961.9,84.2,961.9,83.1z" class="st8"/><path d="M1024.8,62.2c1.8-0.1,3.6-0.1,5.4-0.1c0.7,0,1.5,0.2,2.2,0.3c0,0.9,0,1.9,0,2.8c-2.5,0-5,0-7.5,0 C1024.8,64.2,1024.8,63.2,1024.8,62.2z" class="st22"/><path d="M849.2,83.6c-2-0.1-4.1-0.1-6.1-0.1c-0.5,0-0.9,0.1-1.4,0.2c0-1,0-2,0-3c1.9,0,3.8,0,5.8,0 c0.6,0,1.2-0.1,1.8-0.1C849.2,81.5,849.2,82.6,849.2,83.6z" class="st7"/><path d="M954.8,88.8c-0.6,0.1-1.2,0.3-1.8,0.3c-1,0-2.1,0-3.1,0c-0.9,0-1.9,0.1-2.7-0.5c-0.1-0.6-0.2-1.3-0.3-1.9 c0.3-0.5,0.7-0.6,1.2-0.6c1.5,0,3,0,4.5,0c0.7,0,1.5-0.1,2.2-0.1C954.7,86.9,954.7,87.8,954.8,88.8z" class="st5"/><path d="M874.3,81.1c0.6-0.1,1.2-0.1,1.8-0.2c1.7-0.1,3.4-0.1,5.1-0.2c0.2,1.1,0.3,2.3,0.5,3.4c-2.3,0-4.6,0-6.8,0 C874.7,83.2,874.5,82.1,874.3,81.1z" class="st7"/><path d="M961.8,62.4c0.4,0.1,0.8,0.2,1.1,0.1c2.1,0,4.2-0.1,6.3-0.2c0,1,0,2.1,0,3.1c-0.9,0-1.8,0-2.8,0 c-0.8,0-1.7,0.1-2.5,0.1c-0.7,0-1.4-0.2-2-0.3C961.9,64.3,961.9,63.3,961.8,62.4z" class="st22"/><path d="M961.9,86.3c2,0,4,0,6,0c0.5,0,0.9-0.1,1.4-0.2c0,1,0,2,0,3c-1.9,0.4-3.7,0-5.6,0.1c-0.6,0-1.2,0-1.8,0 C961.9,88.2,961.9,87.2,961.9,86.3z" class="st17"/><path d="M874.8,84.2c2.3,0,4.6,0,6.8,0c0.1,0.9,0.2,1.8,0.3,2.6c-0.3,0.5-0.7,0.6-1.2,0.6c-1.8,0-3.7,0.1-5.5,0.1 c-0.1-0.9-0.3-1.8-0.4-2.8C874.8,84.7,874.8,84.4,874.8,84.2z" class="st5"/><path d="M875.3,87.7c1.8-0.1,3.7-0.1,5.5-0.1c0.6,0,1-0.2,1.2-0.6c0.2,0.9,0.3,1.9,0.5,2.8c0.1,0.3,0.1,0.6,0.1,1 c-2.2,0.1-4.5,0.1-6.7,0.2c-0.2-0.8-0.3-1.7-0.5-2.5C875.4,88,875.3,87.9,875.3,87.7z" class="st17"/><path d="M857.4,99.8c2.5,0.3,5,0.3,7.5,0.3c0,1,0,2,0,3c-1.1-0.1-2.1-0.2-3.2-0.3c-0.6,0-1.2,0-1.9,0.1 c-0.9,0.1-1.7,0.2-2.5-0.1C857.4,101.8,857.4,100.8,857.4,99.8z" class="st25"/><path d="M925.2,65c-2.5-0.1-5-0.2-7.5-0.3c0-0.9,0-1.9,0-2.8c0.3,0.1,0.7,0.1,1,0.1c2.2,0,4.4,0,6.6,0 C925.2,63,925.2,64,925.2,65z" class="st22"/><path d="M917.6,100.2c2.5,0.3,5,0.2,7.5,0.2c0,1,0,2,0,3c-1.2-0.1-2.3-0.1-3.5-0.1c-0.7,0-1.3,0.1-2,0.1 s-1.3-0.1-2-0.1C917.6,102.1,917.6,101.1,917.6,100.2z" class="st25"/><path d="M976.6,100.3c2.2,0.6,4.4,0,6.6,0.1c0.4,0,0.8-0.1,1.1-0.1c0,0.8,0.4,1.4,1,2c-0.1,0.6-0.5,0.9-1.2,0.8 c-1.4,0-2.7,0-4.1,0c-1,0-2,0.1-3,0.1C976.9,102.3,976.7,101.3,976.6,100.3z" class="st25"/><path d="M969.3,59.4c-2.4,0-4.9,0-7.3,0c0-0.9,0-1.9,0-2.8c2.4-0.1,4.9-0.1,7.3-0.2C969.2,57.4,969.3,58.4,969.3,59.4z" class="st9"/><path d="M901.3,100.3c1.6,0,3.2,0,4.8,0c0.9,0,1.8,0,2.8,0c0,1,0,2,0,3c-2.5-0.1-5-0.1-7.5-0.2 C901.3,102.2,901.3,101.3,901.3,100.3z" class="st25"/><path d="M946.9,60c2.5,0,5.1,0,7.6,0c0,0.9,0,1.9,0,2.8c-2.5,0-5,0-7.5,0C947,61.9,947,60.9,946.9,60z" class="st26"/><path d="M889.2,54.2c0.1-0.8,0.1-1.5,0.3-2.3c0-0.2,0.4-0.5,0.6-0.5c2.3,0,4.5,0,7,0c-0.1,0.9-0.2,1.8-0.4,2.6 c-0.7,0.1-1.4,0.1-2.1,0.1C892.8,54.2,891,54.2,889.2,54.2z" class="st6"/><path d="M877.9,57c-2.5,0-5,0-7.5,0c-0.1-0.9-0.2-1.8-0.3-2.7c1.2-0.1,2.4-0.1,3.6-0.2c1.2-0.1,2.5-0.1,3.7-0.2 c0.1,0.6,0.2,1.2,0.3,1.8C877.8,56.3,877.8,56.7,877.9,57z" class="st4"/><path d="M877.4,54.1c-1.2,0.1-2.5,0.1-3.7,0.2c-1.2,0.1-2.4,0.1-3.6,0.2c-0.2-0.9-0.3-1.7-0.5-2.6 c0-0.1,0.3-0.3,0.5-0.3c2.2,0,4.3,0,6.5,0c0.7,0,0.6,0.5,0.6,0.9C877.4,52.8,877.4,53.5,877.4,54.1z" class="st6"/><path d="M961.8,54.2c0-0.8,0-1.5,0-2.3c0-0.2,0.3-0.5,0.5-0.5c2.1,0,4.3,0,6.4,0c0.2,0,0.5,0.3,0.5,0.5 c0,0.7,0,1.4-0.1,2.1C966.8,54.1,964.3,54.2,961.8,54.2z" class="st6"/><path d="M889.2,54.2c1.8,0,3.6,0,5.4,0c0.7,0,1.4-0.1,2.1-0.1c-0.2,1-0.3,2-0.5,3c-1.4,0-2.8,0-4.2,0 c-1.1,0-2.1-0.2-3.2-0.3C889,55.9,889.1,55.1,889.2,54.2z" class="st4"/><path d="M901.3,63c2.5,0.1,5.1,0.1,7.6,0.2c0,0.9,0,1.9,0,2.8c-1.8-0.1-3.6-0.1-5.4-0.2c-0.7,0-1.4-0.1-2.2-0.2 C901.3,64.7,901.3,63.9,901.3,63z" class="st22"/><path d="M925.2,62c-2.2,0-4.4,0-6.6,0c-0.3,0-0.7-0.1-1-0.1c-0.2-0.7-0.3-1.5-0.5-2.2c2.4-0.6,4.8-0.2,7.2-0.3 c0.3,0,0.5,0.1,0.8,0.1C925.1,60.4,925.1,61.2,925.2,62z" class="st26"/><path d="M1017.7,75.3c1.9-0.1,3.8-0.1,5.6-0.2c0.2,0.7,0.4,1.4,0.6,2c0.1,0.4,0.3,0.8,0.4,1.3 c-1.8,0.6-3.7,0.2-5.6,0.3C1018.4,77.6,1018,76.5,1017.7,75.3z" class="st16"/><path d="M1016.4,76.4c-0.9,0.6-1.9,0.4-2.9,0.3c-1.5-0.1-3.1,0-4.6,0c0-0.9,0-1.8,0-2.7c2,0.1,4,0.1,6,0.1 c0.5,0,1-0.4,1.5-0.6C1016.4,74.5,1016.4,75.5,1016.4,76.4z" class="st20"/><path d="M947.1,62.8c2.5,0,5,0,7.5,0c0,0.9,0,1.8,0,2.7c-1.8-0.1-3.5-0.1-5.3-0.1c-0.7,0-1.5,0.1-2.2,0.1 C947.1,64.6,947.1,63.7,947.1,62.8z" class="st22"/><path d="M849.7,72.7c1.9,0,3.7,0,5.6,0c0.3,1,0.6,2.1,0.9,3.1c-1.9,0.1-3.7,0.1-5.6,0.2 C850.3,74.8,850,73.8,849.7,72.7z" class="st13"/><path d="M850.7,75.9c1.9-0.1,3.7-0.1,5.6-0.2c0.2,0.8,0.4,1.6,0.7,2.3c-0.1,0.2-0.2,0.5-0.4,0.7s-0.5,0.4-0.8,0.4 c-1.1,0-2.3,0-3.4,0c-0.2,0-0.4,0.2-0.5,0.2C851.4,78.3,851,77.1,850.7,75.9z" class="st16"/><path d="M961.8,54.2c2.5-0.1,4.9-0.1,7.4-0.2c0,0.8,0,1.6,0,2.3c-2.4,0.1-4.9,0.1-7.3,0.2 C961.9,55.8,961.9,55,961.8,54.2z" class="st4"/><path d="M875.9,90.8c2.2-0.1,4.5-0.1,6.7-0.2c0.1,0.8,0.2,1.6,0.3,2.3c-2.1,0-4.2-0.1-6.2-0.1c-0.2,0-0.3,0.1-0.5,0.1 c-0.1-0.6-0.2-1.1-0.3-1.7l0,0v-0.1C875.9,91,875.9,90.9,875.9,90.8z" class="st21"/><path d="M1011.3,20.8c-0.4,0.4,0.6,1.1-0.4,1.2c-0.5,0.1-0.7-0.1-0.7-0.6C1010.1,20.7,1010.6,20.8,1011.3,20.8z" class="st4"/><path d="M906.3,39.2c0-0.1,0-0.2,0-0.3c0.1,0.1,0.2,0.2,0.3,0.3C906.5,39.2,906.4,39.2,906.3,39.2z" class="st27"/><path d="M939.4,95c0-0.2,0-0.3,0-0.5C939.4,94.7,939.4,94.9,939.4,95z" class="st28"/><path d="M1024.7,76.6c0,0.1,0,0.2,0,0.3C1024.7,76.8,1024.7,76.7,1024.7,76.6z" class="st28"/><path d="M826.7,92c0,0.1,0,0.2,0,0.3C826.7,92.2,826.7,92.1,826.7,92z" class="st17"/><path d="M826.7,91.4c0,0.1,0,0.2,0,0.3C826.7,91.6,826.7,91.5,826.7,91.4z" class="st17"/><path d="M826.7,90.8c0,0.1,0,0.2,0,0.3C826.7,91,826.7,90.9,826.7,90.8z" class="st17"/><path d="M883.1,39.3c0.1,0,0.1,0,0.2,0C883.2,39.3,883.1,39.3,883.1,39.3z" class="st27"/><path d="M939.5,100.5c0-0.1,0-0.1,0-0.2C939.4,100.4,939.5,100.4,939.5,100.5z" class="st28"/><path d="M883.6,27.4c0-0.1,0-0.1,0-0.2C883.6,27.2,883.6,27.3,883.6,27.4z" class="st27"/><path d="M1001.1,103.3L1001.1,103.3C1001.1,103.2,1001.1,103.2,1001.1,103.3C1001.1,103.2,1001.1,103.2,1001.1,103.3z" class="st25"/><path d="M873.4,35.1c-0.1,0-0.1-0.1-0.2-0.1C873.2,35.1,873.3,35.1,873.4,35.1z" class="st29"/><path d="M947.1,88.7c0,0.1,0.1,0.1,0.1,0.2C947.1,88.9,947.1,88.8,947.1,88.7z" class="st29"/><path d="M988.5,23.6L988.5,23.6C988.4,23.6,988.4,23.6,988.5,23.6C988.4,23.6,988.4,23.6,988.5,23.6z" class="st29"/><path d="M988,23.6L988,23.6C987.9,23.6,987.9,23.6,988,23.6z" class="st29"/><path d="M875.9,91.1L875.9,91.1L875.9,91.1L875.9,91.1z" class="st17"/><path d="M877.2,98.8C877.2,98.8,877.2,98.9,877.2,98.8L877.2,98.8C877.1,98.9,877.1,98.8,877.2,98.8z" class="st15"/><path d="M954.3,69.3c0.1,0,0.1,0,0.2-0.1C954.4,69.3,954.3,69.3,954.3,69.3z" class="st13"/><path d="M954.5,69.3c0-0.1,0.1-0.1,0.1-0.2C954.5,69.1,954.5,69.2,954.5,69.3z" class="st13"/><path d="M969.3,104.2L969.3,104.2L969.3,104.2L969.3,104.2z" class="st23"/><path d="M855.4,90.9c0,0.1,0.1,0.2,0.1,0.2C855.4,91.1,855.4,91,855.4,90.9z" class="st17"/><path d="M1016.4,73.1c0-0.1,0-0.2,0-0.3C1016.4,72.9,1016.4,73,1016.4,73.1z" class="st29"/><path d="M908.9,88.3c0.2,0,0.3-0.1,0.5-0.1C909.3,88.2,909.1,88.2,908.9,88.3z" class="st28"/><path d="M917.3,88.1c0.1,0,0.1,0.1,0.2,0.1C917.4,88.2,917.3,88.2,917.3,88.1z" class="st28"/><path d="M1028.5,25.4c0.4,2.4-0.1,4.3-2,5.9c-1.6,1.3-3,2.8-4.5,4.2c-0.1,0.1-0.2,0.2-0.3,0.4c0.4,0,0.6,0,0.9,0 c1.9,0,3.7,0,5.6,0c0.8,0,1,0.2,0.8,1c-0.4,1.7-0.9,2.1-2.7,2.2c-2.7,0-5.5,0-8.2,0.1c-0.3,0-0.5,0-0.7-0.1 c-0.4-1.9,0.1-3.5,1.6-4.8c2.8-2.6,5.5-5.3,8.3-8C1027.6,26,1028,25.7,1028.5,25.4z" class="st30"/><path d="M1020.8,23.7c0.7,0,1.4,0,2.2,0c0.1,0,0.2,0,0.4,0c1.2,0.1,2.3,0.1,3.5,0.2c0.6,0.1,0.8,0.4,0.3,0.9 c-0.7,0.7-1.3,1.4-2.1,2c-0.3,0.3-0.9,0.4-1.3,0.4c-0.8,0.1-1.6,0-2.4,0c-0.1,0.6-0.2,1.1-0.3,1.7c-0.9,0-1.8,0-2.6,0 c-0.2,0-0.6-0.2-0.6-0.4c-0.5-1.4,0.7-3.9,2.1-4.5c0.3-0.1,0.6-0.2,0.9-0.2C1020.7,23.7,1020.7,23.7,1020.8,23.7z" class="st30"/><path d="M1023.3,23.7c-0.1,0-0.2,0-0.4,0C1023.1,23.7,1023.2,23.7,1023.3,23.7z" class="st28"/><path d="M1020.8,23.7c-0.1,0-0.1,0-0.2,0C1020.7,23.7,1020.7,23.7,1020.8,23.7z" class="st28"/><path d="M986.2,102.8C986.2,102.8,986.3,102.8,986.2,102.8c0,0.1-0.1,0.2-0.1,0.3L986,103 C986.1,102.9,986.2,102.8,986.2,102.8z" class="st25"/><path d="M987.2,102.9c0.1,0,0.1,0,0.2,0C987.3,102.9,987.3,102.9,987.2,102.9z" class="st14"/><path d="M908.9,80.5c0,0.2,0.1,0.4,0.1,0.6c-0.1-0.1-0.1-0.2-0.2-0.3C908.8,80.7,908.9,80.6,908.9,80.5z" class="st28"/><path d="M908.9,79.5c0,0.1,0,0.1,0,0.2C908.9,79.6,908.9,79.6,908.9,79.5z" class="st28"/></g><g><path d="M56.6,62.4L49.1,57l6.2-6l-8.6-1.2l2.9-8.8l7.6,4l-1.5-8.5H65L63.5,45l7.7-4l2.8,8.8L65.4,51l6.3,6l-7.5,5.4 l-3.8-7.6L56.6,62.4z" class="st31"/><path d="M80.7,89.2V38.7h10.5v50.5H80.7z" class="st31"/><path d="M103.2,89.2V38.7h9.4l22.9,33v-33h10v50.5h-9.4l-22.9-33v33H103.2z" class="st31"/><path d="M178.2,90.2c-7.5,0-13.2-2.2-17.1-6.6c-3.9-4.4-5.8-10.5-5.8-18.3v-2.8c0-5.1,0.9-9.5,2.7-13.2 s4.4-6.6,7.8-8.6c3.4-2,7.6-3,12.5-3h0.6c5.1,0,9.4,1.1,12.8,3.4c3.4,2.3,5.8,5.5,7.2,9.6l-9.9,3.4c-0.7-2.5-1.9-4.3-3.7-5.5 s-4-1.7-6.5-1.7h-0.4c-3.9,0-7,1.3-9.2,3.8s-3.3,6.4-3.3,11.5v3.2c0,5.3,1.1,9.2,3.2,11.7c2.1,2.5,5.3,3.7,9.3,3.7h0.4 c2.6,0,4.8-0.6,6.7-1.7c1.9-1.1,3.2-2.9,4-5.4l9.6,3.8c-1.4,4-3.9,7.1-7.4,9.3c-3.5,2.2-7.8,3.3-12.9,3.3L178.2,90.2L178.2,90.2z" class="st31"/><path d="M207.2,89.2V38.7h10.5v41.4h22v9.1H207.2z" class="st31"/><path d="M288.1,38.7v30.7c0,6.6-1.8,11.7-5.3,15.4c-3.6,3.7-8.6,5.5-15.2,5.5h-0.7c-6.5,0-11.6-1.8-15.2-5.5 c-3.6-3.7-5.4-8.8-5.4-15.4V38.7h10.5v30.9c0,4,0.9,6.9,2.7,8.7c1.8,1.8,4.3,2.7,7.4,2.7h0.6c3.2,0,5.7-0.9,7.4-2.7 c1.8-1.8,2.7-4.7,2.7-8.7V38.7L288.1,38.7L288.1,38.7z" class="st31"/><path d="M310.7,89.2V69.4l-17.2-30.7h12l10.7,20.7L327,38.7h11.5l-17.3,30.7v19.8H310.7z" class="st31"/><path d="M345.2,89.2V38.7h33.5v8.9h-23v11.6h18.7l-1.2,8.9h-17.5v12h23.4V89h-33.9V89.2z" class="st31"/><path d="M406.8,89.2V38.7h19.1c5.9,0,10.5,1.4,14,4.1c3.4,2.7,5.2,6.5,5.2,11.4v1.4c0,3.4-0.8,6.3-2.5,8.7 s-4,4.1-7,5.3l11,19.6h-11.5l-10-18h-7.9v18H406.8z M417.3,62h8.3c2.5,0,4.7-0.5,6.3-1.4c1.7-1,2.5-2.6,2.5-4.8V54 c0-2.2-0.8-3.7-2.5-4.7s-3.8-1.5-6.3-1.5h-8.3V62z" class="st31"/><path d="M454.6,89.2V38.7h33.5v8.9h-23v11.6h18.7l-1.2,8.9h-17.5v12h23.4V89h-33.9V89.2z" class="st31"/><path d="M518.9,90.2c-16,0-24-8.2-24-24.7v-2.8c0-5.2,0.9-9.7,2.8-13.5c1.9-3.7,4.5-6.6,8-8.6s7.6-3,12.5-3h0.6 c4.9,0,9,1,12.3,3.1s5.8,5.1,7.3,9l-9.7,3.4c-1.3-4.2-4.7-6.3-10-6.3h-0.5c-4.1,0-7.3,1.3-9.5,4s-3.3,6.6-3.3,11.7v3.2 c0,5.2,1.1,9,3.2,11.5c2.2,2.5,5.6,3.7,10.2,3.7h0.4c1.9,0,3.7-0.1,5.3-0.4c1.7-0.3,3.1-0.7,4.4-1.3v-9.3h-10.8l1.2-8.8H539v23.2 c-2.5,1.9-5.4,3.4-8.7,4.4c-3.4,1-7,1.5-10.9,1.5L518.9,90.2L518.9,90.2z" class="st31"/><path d="M544.2,89.2l19.5-50.5h9.5l19.6,50.5h-11.4L577.8,79h-19.1l-3.6,10.2H544.2z M561.7,70.3h12.9l-6.4-18.1 L561.7,70.3z" class="st31"/><path d="M599.6,89.2V38.7h10.5v41.4h22v9.1H599.6z" class="st31"/><path d="M661.8,90.2c-4.9,0-9.1-1-12.6-3s-6.2-4.9-8-8.6c-1.9-3.7-2.8-8.1-2.8-13.2v-2.9c0-5.1,0.9-9.5,2.8-13.2 c1.9-3.7,4.5-6.6,8-8.6s7.7-3,12.6-3h0.7c4.9,0,9.1,1,12.6,3s6.2,4.9,8,8.6c1.9,3.7,2.8,8.1,2.8,13.2v2.9c0,5.1-0.9,9.5-2.8,13.2 c-1.9,3.7-4.5,6.6-8,8.6s-7.7,3-12.6,3H661.8z M661.9,80.9h0.6c3.9,0,7.1-1.3,9.4-3.8c2.3-2.5,3.5-6.4,3.5-11.5v-3.3 c0-5.1-1.2-9-3.5-11.5s-5.5-3.8-9.4-3.8h-0.6c-3.9,0-7.1,1.3-9.4,3.8c-2.3,2.5-3.5,6.4-3.5,11.5v3.3c0,5.1,1.2,9,3.5,11.5 C654.8,79.7,657.9,80.9,661.9,80.9z" class="st31"/><path d="M695.1,74.2l-1.4-37.7H706l-1.4,37.7H695.1z M694.5,89.2v-11h10.6v11H694.5z" class="st31"/></g></svg>