<?xml version="1.0" encoding="UTF-8"?>
<svg id="Capa_1" data-name="Capa 1" xmlns="http://www.w3.org/2000/svg" xmlns:xlink="http://www.w3.org/1999/xlink" viewBox="0 0 1080 1080">
  <defs>
    <style>
      .cls-1 {
        fill: url(#Degradado_sin_nombre_5);
      }

      .cls-2 {
        fill: #fff;
      }
    </style>
    <linearGradient id="Degradado_sin_nombre_5" data-name="Degradado sin nombre 5" x1="0" y1="540" x2="1080" y2="540" gradientUnits="userSpaceOnUse">
      <stop offset="0" stop-color="#ff771e"/>
      <stop offset="1" stop-color="#f21"/>
    </linearGradient>
  </defs>
  <path class="cls-1" d="M0,0v1080h1080V0H0ZM540.4,895.1c-36.4,0-70.1,19.2-88.8,50.4l-52.2,87.6H46.8V46.8h986.3v848.3h-492.8Z"/>
  <g>
    <path class="cls-2" d="M618.8,948.5c-1.3,7.4-8.5,13.4-16,13.4h-23.4c-.3,0-.6.3-.7.6l-1.7,9.5c-.3,1.6-1.8,2.8-3.4,2.8h-9.7c-1.6,0-2.7-1.3-2.4-2.8l8.2-45.6c.3-1.6,1.8-2.8,3.4-2.8h36.5c7.5,0,12.5,6,11.2,13.4l-2.1,11.7ZM602.9,936.3h-18.9c-.3,0-.6.3-.7.6l-2.1,11.6c0,.3.2.6.5.6h18.9c1.4,0,2.8-1.1,3-2.5l1.4-7.7c.3-1.4-.7-2.5-2.1-2.5Z"/>
    <path class="cls-2" d="M613,971.2l29.7-45c1.5-2,3.4-2.5,6.1-2.6h0s0,0,0,0h0c.7,0,1.5,0,2.3,0h.4c.3,0,.6,0,.9,0,1.1,0,2.3,0,3.6,0,0,0,2.6,0,3.5,2.6l14.7,45c.2.7,0,1.7-.4,2.4-.5.7-1.3,1.2-2,1.2h-11.7c-.8,0-1.5-.5-1.7-1.3l-1.3-4.2h-24.7l-1,1.5-1.9,2.7c-.6.8-1.5,1.3-2.4,1.3h-12.3c-.9,0-1.6-.4-1.9-1.2-.3-.7-.2-1.6.4-2.4ZM640.2,957h13l-4.2-13.4-8.8,13.4Z"/>
    <path class="cls-2" d="M680.9,974.8c-1.6,0-2.7-1.3-2.4-2.8l8.2-45.6c.3-1.6,1.8-2.8,3.4-2.8h36.5c7.5,0,12.5,6,11.2,13.4l-2.1,11.7c-.9,5.1-4.6,9.5-9.2,11.7-.3.2-.5.5-.3.8l6,10.5c.8,1.4-.2,3.1-1.8,3.1-5,0-8.2.2-10.2.1-3.5,0-4.7,0-5.3-1.4l-5.5-10.8c-.2-.5-.7-.8-1.3-.8h-11.7c-.3,0-.6.3-.7.6l-1.7,9.5c-.3,1.6-1.8,2.8-3.4,2.8h-9.7ZM698.3,948.5c0,.3.2.6.5.6h18.9c1.4,0,2.8-1.1,3-2.5l1.4-7.7c.3-1.4-.7-2.5-2.1-2.5h-18.9c-.3,0-.6.3-.7.6l-2.1,11.6Z"/>
    <path class="cls-2" d="M794.6,926.4l-1.3,7.4c-.3,1.6-1.8,2.8-3.4,2.8h-14.1c-.3,0-.6.3-.7.6l-6.3,34.8c-.3,1.6-1.8,2.8-3.4,2.8h-9.7c-1.6,0-2.7-1.3-2.4-2.8l6.3-34.8c0-.3-.2-.6-.5-.6h-14.1c-1.6,0-2.7-1.3-2.4-2.8l1.3-7.4c.3-1.6,1.8-2.8,3.4-2.8h44.9c1.6,0,2.7,1.3,2.4,2.8Z"/>
    <path class="cls-2" d="M812.2,923.6c1.6,0,2.7,1.3,2.4,2.8l-8.2,45.6c-.3,1.6-1.8,2.8-3.4,2.8h-9.7c-1.6,0-2.7-1.3-2.4-2.8l8.2-45.6c.3-1.6,1.8-2.8,3.4-2.8h9.7Z"/>
    <path class="cls-2" d="M815.6,961.4l4.5-24.6c1.3-7.4,8.5-13.3,16-13.3h28.3c1.6,0,2.7,1.3,2.4,2.8l-1.4,7.6c-.3,1.6-1.8,2.8-3.4,2.8h-24.7c-1,0-1.9.8-2,1.7l-3.9,21.3c-.2.9.5,1.7,1.4,1.7h24.7c1.6,0,2.7,1.3,2.4,2.8l-1.4,7.7c-.3,1.6-1.8,2.8-3.4,2.8h-28.4c-7.5,0-12.5-6-11.2-13.4Z"/>
    <path class="cls-2" d="M886.2,923.6c1.6,0,2.7,1.3,2.4,2.8l-8.2,45.6c-.3,1.6-1.8,2.8-3.4,2.8h-9.7c-1.6,0-2.7-1.3-2.4-2.8l8.2-45.6c.3-1.6,1.8-2.8,3.4-2.8h9.7Z"/>
    <path class="cls-2" d="M945.7,948.5c-1.3,7.4-8.5,13.4-16,13.4h-23.4c-.3,0-.6.3-.7.6l-1.7,9.5c-.3,1.6-1.8,2.8-3.4,2.8h-9.7c-1.6,0-2.7-1.3-2.4-2.8l8.2-45.6c.3-1.6,1.8-2.8,3.4-2.8h36.5c7.5,0,12.5,6,11.2,13.4l-2.1,11.7ZM929.8,936.3h-18.9c-.3,0-.6.3-.7.6l-2.1,11.6c0,.3.2.6.5.6h18.9c1.4,0,2.8-1.1,3-2.5l1.4-7.7c.3-1.4-.7-2.5-2.1-2.5Z"/>
    <path class="cls-2" d="M940,971.2l29.7-45c1.5-2,3.4-2.5,6.1-2.6h0s0,0,0,0h0c.7,0,1.5,0,2.3,0h.4c.3,0,.6,0,.9,0,1.1,0,2.3,0,3.6,0,0,0,2.6,0,3.5,2.6l14.7,45c.2.7,0,1.7-.4,2.4-.5.7-1.3,1.2-2,1.2h-11.7c-.8,0-1.5-.5-1.7-1.3l-1.3-4.2h-24.7l-1,1.5-1.9,2.7c-.6.8-1.5,1.3-2.4,1.3h-12.3c-.9,0-1.6-.4-1.9-1.2-.3-.7-.2-1.6.4-2.4ZM967.2,957h13l-4.2-13.4-8.8,13.4Z"/>
    <path class="cls-2" d="M459.6,1040.2l8.3-45.7c.3-1.6,1.8-2.8,3.4-2.8h34.4c7.5,0,12.5,6,11.2,13.4l-4.5,24.7c-1.3,7.4-8.5,13.4-16,13.4h-34.4c-1.6,0-2.7-1.3-2.4-2.8ZM477.3,1027.9c-.2.9.5,1.7,1.4,1.7h16.3c1,0,1.9-.8,2-1.7l3.9-21.3c.2-.9-.5-1.7-1.4-1.7h-16.3c-1,0-1.9.8-2,1.7l-3.9,21.3Z"/>
    <path class="cls-2" d="M517.8,1040.1l8.2-45.6c.3-1.6,1.8-2.9,3.4-2.9h43.2c1,0,1.6.8,1.4,1.7l-1.8,9.7c-.2.9-1.1,1.7-2,1.7h-30c-.3,0-.6.3-.7.6l-1,5.3c0,.3.2.6.5.6h24.1c1,0,1.6.8,1.4,1.7l-1.6,8.9c-.2.9-1.1,1.7-2,1.7h-24.1c-.3,0-.6.3-.7.6l-.9,4.9c0,.3.2.6.5.6h30c1,0,1.6.8,1.4,1.7l-1.8,10c-.2.9-1.1,1.7-2,1.7h-43.2c-1.6,0-2.7-1.3-2.4-2.9Z"/>
    <path class="cls-2" d="M583.9,991.7h9.7c1.6,0,2.7,1.3,2.4,2.8l-6,33.3c-.2.9.5,1.7,1.4,1.7h23.6c1.6,0,2.7,1.3,2.4,2.8l-1.4,7.7c-.3,1.6-1.8,2.8-3.4,2.8h-37.8c-1.6,0-2.7-1.3-2.4-2.8l8.2-45.6c.3-1.6,1.8-2.8,3.4-2.8Z"/>
    <path class="cls-2" d="M655.8,1043c-1.6,0-2.7-1.3-2.4-2.8l1.4-7.7c.3-1.6,1.8-2.8,3.4-2.8h32.2c1,0,1.9-.8,2-1.7l.4-2.4c.2-.9-.5-1.7-1.4-1.7h-23.1c-7.5,0-12.5-6-11.2-13.4l.9-5.2c1.3-7.4,8.5-13.4,16-13.4h34.2c1.6,0,2.7,1.3,2.4,2.9l-1.3,7.4c-.3,1.6-1.8,2.8-3.4,2.8h-31.3c-1,0-1.9.8-2,1.7l-.6,3.2c-.2.9.5,1.7,1.4,1.7h23.1c7.5,0,12.5,6,11.2,13.4l-.9,4.8c-1.3,7.4-8.5,13.4-16,13.4h-1.5s-33.6,0-33.6,0Z"/>
    <path class="cls-2" d="M773.9,1005l-4.5,24.7c-1.3,7.4-8.5,13.4-16,13.4h-29.6c-7.5,0-12.5-6-11.2-13.4l4.5-24.7c1.3-7.4,8.5-13.4,16-13.4h29.6c7.5,0,12.5,6,11.2,13.4ZM758.1,1006.5c.2-.9-.5-1.7-1.4-1.7h-22.3c-1,0-1.9.8-2,1.7l-3.9,21.3c-.2.9.5,1.7,1.4,1.7h22.3c1,0,1.9-.8,2-1.7l3.9-21.3Z"/>
    <path class="cls-2" d="M777.4,1043c-1.6,0-2.7-1.3-2.4-2.8l8.2-45.6c.3-1.6,1.8-2.8,3.4-2.8h36.5c7.5,0,12.5,6,11.2,13.4l-2.1,11.7c-.9,5.1-4.6,9.5-9.2,11.7-.3.2-.5.5-.3.8l6,10.5c.8,1.4-.2,3.1-1.8,3.1-5,0-8.2.2-10.2.1-3.5,0-4.7,0-5.3-1.4l-5.5-10.8c-.2-.5-.7-.8-1.3-.8h-11.7c-.3,0-.6.3-.7.6l-1.7,9.5c-.3,1.6-1.8,2.8-3.4,2.8h-9.7ZM794.7,1016.7c0,.3.2.6.5.6h18.9c1.4,0,2.8-1.1,3-2.5l1.4-7.7c.3-1.4-.7-2.5-2.1-2.5h-18.9c-.3,0-.6.3-.7.6l-2.1,11.6Z"/>
    <path class="cls-2" d="M891,994.6l-1.3,7.4c-.3,1.6-1.8,2.8-3.4,2.8h-14.1c-.3,0-.6.3-.7.6l-6.3,34.8c-.3,1.6-1.8,2.8-3.4,2.8h-9.7c-1.6,0-2.7-1.3-2.4-2.8l6.3-34.8c0-.3-.2-.6-.5-.6h-14.1c-1.6,0-2.7-1.3-2.4-2.8l1.3-7.4c.3-1.6,1.8-2.8,3.4-2.8h44.9c1.6,0,2.7,1.3,2.4,2.8Z"/>
    <path class="cls-2" d="M887.4,1040.1l8.2-45.6c.3-1.6,1.8-2.9,3.4-2.9h43.2c1,0,1.6.8,1.4,1.7l-1.7,9.7c-.2.9-1.1,1.7-2,1.7h-30c-.3,0-.6.3-.7.6l-1,5.3c0,.3.2.6.5.6h24.1c1,0,1.6.8,1.4,1.7l-1.6,8.9c-.2.9-1.1,1.7-2,1.7h-24.1c-.3,0-.6.3-.7.6l-.9,4.9c0,.3.2.6.5.6h30c1,0,1.6.8,1.4,1.7l-1.8,10c-.2.9-1.1,1.7-2,1.7h-43.2c-1.6,0-2.7-1.3-2.4-2.9Z"/>
    <path class="cls-2" d="M1004.4,1005l-4.5,24.7c-1.3,7.4-8.5,13.4-16,13.4h-29.6c-7.5,0-12.5-6-11.2-13.4l4.5-24.7c1.3-7.4,8.5-13.4,16-13.4h29.6c7.5,0,12.5,6,11.2,13.4ZM988.6,1006.5c.2-.9-.5-1.7-1.4-1.7h-22.3c-1,0-1.9.8-2,1.7l-3.9,21.3c-.2.9.5,1.7,1.4,1.7h22.3c1,0,1.9-.8,2-1.7l3.9-21.3Z"/>
  </g>
</svg>