<svg xmlns="http://www.w3.org/2000/svg" id="Capa_1_copia" data-name="Capa 1 copia" viewBox="0 0 209.8 205.6"><defs><style>.cls-1{fill:#d30e44}.cls-2{fill:#f9afae}</style></defs><path d="M33.71 170h72a5.39 5.39 0 0 1 5.39 5.39v1.52a28.91 28.91 0 0 1-28.91 28.91H-.59v-1.52a34.3 34.3 0 0 1 34.3-34.3Z" class="cls-1"/><path d="m27.24 181.09-.79 4.07a3.23 3.23 0 0 1-1.17 2.07 4.34 4.34 0 0 1-2.65.68h-4a3.19 3.19 0 0 1-2.38-.68 2.25 2.25 0 0 1-.38-2.07l.79-4.07a3.2 3.2 0 0 1 1.16-2.09 4.29 4.29 0 0 1 2.64-.68h4a3.21 3.21 0 0 1 2.38.68 2.25 2.25 0 0 1 .4 2.09Zm-4.24-.57h-1.84a3.26 3.26 0 0 0-.84.09 1.26 1.26 0 0 0-.53.27 1.09 1.09 0 0 0-.32.46 2.92 2.92 0 0 0-.19.65l-.44 2.27a3.53 3.53 0 0 0-.07.66.73.73 0 0 0 .57.72 2.92 2.92 0 0 0 .81.09h1.79a3.34 3.34 0 0 0 .83-.09 1.19 1.19 0 0 0 .86-.72 3.79 3.79 0 0 0 .19-.66l.44-2.27a4 4 0 0 0 .06-.65.89.89 0 0 0-.14-.46.83.83 0 0 0-.44-.27 2.81 2.81 0 0 0-.74-.09Zm7.15 7.39h-2.81l1.32-6.82a3.2 3.2 0 0 1 1.18-2.09 4.29 4.29 0 0 1 2.64-.68h7.31l-.42 2.18h-6.19a3.26 3.26 0 0 0-.84.09 1.26 1.26 0 0 0-.53.27 1.21 1.21 0 0 0-.33.46 3.59 3.59 0 0 0-.18.65h7.78l-.42 2.18h-7.79Zm19.85 0h-7.3a3.22 3.22 0 0 1-2.39-.68 2.25 2.25 0 0 1-.37-2.07l.79-4.07a3.2 3.2 0 0 1 1.13-2.09 4.29 4.29 0 0 1 2.64-.68h7.31l-.42 2.18H45.2a3.16 3.16 0 0 0-.84.09 1.37 1.37 0 0 0-.54.27 1.31 1.31 0 0 0-.32.46 3.57 3.57 0 0 0-.19.65h7.79l-.42 2.18h-7.79v.08a2.77 2.77 0 0 0-.06.66.89.89 0 0 0 .14.45.8.8 0 0 0 .43.27 2.82 2.82 0 0 0 .81.09h6.19Zm9.73-3.32 2.37 3.32H59l-2.44-3.3h-1.7l-.64 3.3h-2.85l1.86-9.57h7.31a3.21 3.21 0 0 1 2.38.68 2.22 2.22 0 0 1 .37 2.07l-.14.75a3.36 3.36 0 0 1-1 2 3.82 3.82 0 0 1-2.42.75Zm-.54-4.07h-3.57l-.37 1.9h3.58a2.4 2.4 0 0 0 1.15-.2 1 1 0 0 0 .43-.74 2.1 2.1 0 0 0 .05-.51.37.37 0 0 0-.14-.29.94.94 0 0 0-.41-.13 6.83 6.83 0 0 0-.72-.03Zm12.28 0L70 187.91h-2.8l1.43-7.39H64.8l.42-2.18h10.53l-.42 2.18Zm15.75.57-1.32 6.82h-2.81l.73-3.75h-5l-.73 3.75H75.3l1.32-6.82A3.24 3.24 0 0 1 77.8 179a4.29 4.29 0 0 1 2.64-.68h4a3.21 3.21 0 0 1 2.38.68 2.25 2.25 0 0 1 .4 2.09Zm-8 .9h5a2.58 2.58 0 0 0 .06-.65.81.81 0 0 0-.14-.46.83.83 0 0 0-.44-.27 2.81 2.81 0 0 0-.79-.09h-1.77a3.26 3.26 0 0 0-.84.09 1.26 1.26 0 0 0-.53.27 1.19 1.19 0 0 0-.32.46 2.92 2.92 0 0 0-.19.66Zm19.18 4.16a3.34 3.34 0 0 1-1 1.28 2.62 2.62 0 0 1-1.58.48h-8.5l.42-2.18h6.72c.2 0 .32-.07.35-.21s0-.15 0-.18l-.13-.08-5.15-2.79a1.87 1.87 0 0 1-.61-.89 2.24 2.24 0 0 1-.09-1.21 1 1 0 0 1 .07-.27 3.36 3.36 0 0 1 1-1.28 2.59 2.59 0 0 1 1.57-.48h8.46l-.42 2.18h-6.73a.48.48 0 0 0-.24.06.29.29 0 0 0-.13.15.24.24 0 0 0 .07.15l.12.09 5.17 2.81a1 1 0 0 1 .23.22 2.24 2.24 0 0 1 .29.44 2.76 2.76 0 0 1 .21.65 1.87 1.87 0 0 1 0 .78c-.06.18-.08.27-.1.28Z" class="cls-2"/><path fill="#fff" d="M23.07 192.85 22 198.63h-2.43l.61-3.18H16l-.62 3.18H13l1.12-5.78a2.69 2.69 0 0 1 1-1.77 3.72 3.72 0 0 1 2.24-.57h3.41a2.8 2.8 0 0 1 2 .57 2 2 0 0 1 .3 1.77Zm-6.75.75h4.22a2.13 2.13 0 0 0 .05-.54.65.65 0 0 0-.12-.4.74.74 0 0 0-.37-.23 2.45 2.45 0 0 0-.67-.07h-1.52a2.78 2.78 0 0 0-.71.07 1.19 1.19 0 0 0-.45.23 1 1 0 0 0-.27.4 2.13 2.13 0 0 0-.16.54Zm10.77-3.09 2.29 4.35 3.95-4.35h2.36l-1.58 8.12h-2.38l.83-4.27-3.71 4h-.32l-2.16-4-.83 4.27h-2.39l1.58-8.12Zm18.33 2.34-.67 3.44a2.73 2.73 0 0 1-1 1.77 3.72 3.72 0 0 1-2.24.57H38.1a2.8 2.8 0 0 1-2-.57 1.92 1.92 0 0 1-.31-1.77l.66-3.44a2.78 2.78 0 0 1 1-1.77 3.75 3.75 0 0 1 2.25-.57h3.41a2.75 2.75 0 0 1 2 .57 1.92 1.92 0 0 1 .31 1.77Zm-3.64-.49h-1.52a2.78 2.78 0 0 0-.71.07 1.19 1.19 0 0 0-.45.23 1.15 1.15 0 0 0-.28.4 3.46 3.46 0 0 0-.16.54l-.37 1.94a2.24 2.24 0 0 0 0 .55.6.6 0 0 0 .12.38.61.61 0 0 0 .36.24 2.44 2.44 0 0 0 .68.07h1.52a2.8 2.8 0 0 0 .7-.07 1 1 0 0 0 .46-.24.94.94 0 0 0 .27-.38 3.26 3.26 0 0 0 .17-.55l.37-1.94a2.13 2.13 0 0 0 0-.54.82.82 0 0 0-.12-.4.74.74 0 0 0-.37-.23 2.45 2.45 0 0 0-.67-.07Zm10.81 3.46 2 2.81h-2.65l-2.07-2.8h-1.44l-.54 2.8H45.5l1.58-8.12h6.2a2.8 2.8 0 0 1 2 .57 2 2 0 0 1 .31 1.77l-.12.63a2.94 2.94 0 0 1-.9 1.71 3.27 3.27 0 0 1-1.98.63Zm-.45-3.46h-3l-.35 1.64h3a2.23 2.23 0 0 0 1-.16.89.89 0 0 0 .36-.64 2 2 0 0 0 0-.43.29.29 0 0 0-.13-.24.67.67 0 0 0-.34-.12Zm13.65.49-.67 3.44a2.73 2.73 0 0 1-1 1.77 3.78 3.78 0 0 1-2.25.57h-3.4a2.75 2.75 0 0 1-2-.57 1.89 1.89 0 0 1-.32-1.77l.67-3.44a2.69 2.69 0 0 1 1-1.77 3.72 3.72 0 0 1 2.24-.57h3.41a2.8 2.8 0 0 1 2 .57 2 2 0 0 1 .32 1.77Zm-3.64-.49h-1.52a2.78 2.78 0 0 0-.71.07 1.19 1.19 0 0 0-.45.23 1.15 1.15 0 0 0-.28.4 2.65 2.65 0 0 0-.15.54l-.38 1.94a2.24 2.24 0 0 0 0 .55.6.6 0 0 0 .12.38.61.61 0 0 0 .36.24 2.48 2.48 0 0 0 .68.07h1.52a2.94 2.94 0 0 0 .71-.07 1 1 0 0 0 .45-.24 1.08 1.08 0 0 0 .28-.38 4.63 4.63 0 0 0 .16-.55l.37-1.94a2.13 2.13 0 0 0 .05-.54.65.65 0 0 0-.12-.4.74.74 0 0 0-.37-.23 2.45 2.45 0 0 0-.72-.07Zm13.13 4.77a2.87 2.87 0 0 1-.88 1.09 2.21 2.21 0 0 1-1.33.41h-7.2l.36-1.85h5.71c.17 0 .26-.06.29-.18s0-.13 0-.15l-.11-.07-4.41-2.38a1.66 1.66 0 0 1-.52-.75 1.88 1.88 0 0 1-.08-1 1 1 0 0 1 .06-.22 3 3 0 0 1 .88-1.09 2.18 2.18 0 0 1 1.34-.41h7.18l-.36 1.85h-5.7a.38.38 0 0 0-.21 0 .2.2 0 0 0-.1.13.18.18 0 0 0 .06.14l.1.07 4.39 2.38a1 1 0 0 1 .17.18 1.67 1.67 0 0 1 .25.38 2.28 2.28 0 0 1 .18.54 1.89 1.89 0 0 1 0 .67 1 1 0 0 1-.07.26Zm11.03-4.28-1.12 5.78h-2.38l.61-3.18H79.2l-.62 3.18H76.2l1.12-5.78a2.69 2.69 0 0 1 1-1.77 3.72 3.72 0 0 1 2.24-.57H84a2.8 2.8 0 0 1 2 .57 2 2 0 0 1 .31 1.77Zm-6.75.75h4.22a2.13 2.13 0 0 0 0-.54.65.65 0 0 0-.12-.4.74.74 0 0 0-.37-.23 2.45 2.45 0 0 0-.67-.07h-1.47a2.78 2.78 0 0 0-.71.07 1.19 1.19 0 0 0-.45.23 1 1 0 0 0-.27.4 2.13 2.13 0 0 0-.16.54Zm16.24 3.53a2.87 2.87 0 0 1-.88 1.09 2.21 2.21 0 0 1-1.33.41h-7.2l.36-1.85h5.71c.17 0 .26-.06.29-.18s0-.13 0-.15l-.11-.07-4.41-2.38a1.66 1.66 0 0 1-.52-.75 1.79 1.79 0 0 1-.07-1 .73.73 0 0 1 0-.22 3 3 0 0 1 .88-1.09 2.18 2.18 0 0 1 1.34-.41h7.18l-.36 1.85H91a.38.38 0 0 0-.21 0 .2.2 0 0 0-.1.13.18.18 0 0 0 .06.14l.1.07 4.39 2.38a1 1 0 0 1 .17.18 1.67 1.67 0 0 1 .25.38 2.28 2.28 0 0 1 .18.54 1.89 1.89 0 0 1 0 .67 1 1 0 0 1-.04.26Z"/><path d="m107.12 175.06-6.73 3.15-3.15-6.73a3.75 3.75 0 1 1 6.73-3.15 3.76 3.76 0 1 1 3.15 6.73Z" class="cls-2"/><path d="m96.31 164.81-3.13 4.53-4.52-3.13a2.78 2.78 0 1 1 3.12-4.53 2.78 2.78 0 1 1 4.53 3.13Z" class="cls-1"/><path d="m107.62 162.24-5.06 2.15-2.15-5.07a2.93 2.93 0 0 1 1-3.84 3 3 0 0 1 4.06 1.7 2.78 2.78 0 1 1 2.14 5.06Zm-.5 12.82-6.73 3.15-3.15-6.73a3.75 3.75 0 1 1 6.73-3.15 3.76 3.76 0 1 1 3.15 6.73Zm-10.81-10.25-3.13 4.53-4.52-3.13a2.78 2.78 0 1 1 3.12-4.53 2.78 2.78 0 1 1 4.53 3.13Z" class="cls-2"/><path d="m107.62 162.24-5.06 2.15-2.15-5.07a2.93 2.93 0 0 1 1-3.84 3 3 0 0 1 4.06 1.7 2.78 2.78 0 1 1 2.14 5.06Z" class="cls-1"/></svg>