<?xml version="1.0" encoding="UTF-8"?>
<svg id="Capa_1" data-name="Capa 1" xmlns="http://www.w3.org/2000/svg" xmlns:xlink="http://www.w3.org/1999/xlink" viewBox="0 0 1080 1080">
  <defs>
    <style>
      .cls-1 {
        clip-path: url(#clippath-4);
      }

      .cls-2 {
        fill: #fff;
      }

      .cls-3, .cls-4 {
        fill: none;
      }

      .cls-5 {
        clip-path: url(#clippath-1);
      }

      .cls-6 {
        clip-path: url(#clippath-5);
      }

      .cls-7 {
        clip-path: url(#clippath-3);
      }

      .cls-8 {
        opacity: .2;
      }

      .cls-4 {
        stroke: #fff;
        stroke-miterlimit: 10;
        stroke-width: 1.54px;
      }

      .cls-9 {
        clip-path: url(#clippath-2);
      }

      .cls-10 {
        fill: #029cfe;
      }

      .cls-11 {
        fill: #00ce00;
      }

      .cls-12 {
        clip-path: url(#clippath);
      }
    </style>
    <clipPath id="clippath">
      <polygon class="cls-3" points="1382.67 406.96 1904.73 406.96 1979.26 461.69 2352.52 460.52 2351.87 761.96 1382.67 761.96 1382.67 406.96"/>
    </clipPath>
    <clipPath id="clippath-1">
      <rect class="cls-3" x="1382.67" y="406.96" width="969.2" height="355"/>
    </clipPath>
    <clipPath id="clippath-2">
      <rect class="cls-3" x="1360.63" y="389.18" width="1013.09" height="386.34"/>
    </clipPath>
    <clipPath id="clippath-3">
      <polygon class="cls-3" points="1382.67 0 1904.73 0 1979.26 54.73 2352.52 53.57 2351.87 355 1382.67 355 1382.67 0"/>
    </clipPath>
    <clipPath id="clippath-4">
      <rect class="cls-3" x="1382.67" y="0" width="969.2" height="355"/>
    </clipPath>
    <clipPath id="clippath-5">
      <rect class="cls-3" x="1360.63" y="-17.78" width="1013.09" height="386.34"/>
    </clipPath>
  </defs>
  <g>
    <path class="cls-10" d="M0,0v1080h1080V0H0ZM1024.83,1024.83H55.17V55.17h969.65v969.65Z"/>
    <g>
      <path class="cls-10" d="M582.49,900.11c-.91-12.02-7.56-22.99-17.79-29.35l-76.57-47.59c-6.01-3.73-12.93-5.71-20.03-5.71-4.88,0-9.65.92-14.16,2.74-6.27,2.53-14.82,6.58-24.13,12.7-2.58-5.08-6.27-9.52-11.03-13.24-5.31-4.15-12.14-7.29-20.3-9.31-7-1.73-15.6-2.61-25.57-2.61s-18.58.88-25.6,2.61c-7.63,1.88-14.07,4.72-19.21,8.45-.62-.8-1.25-1.5-1.86-2.11-1.57-1.56-3.75-3.28-6.62-4.6v-8.24c0-8.34-3.64-15.55-9.99-19.79-3.69-2.46-8.05-3.76-12.62-3.76-2.36,0-4.82.35-7.3,1.04-.22.06-.45.13-.67.2-2.12.67-3.43,1.07-4.2,1.29-.16,0-.54-.01-1.18-.08-1-.1-2.88-.33-6.18-.83-.1-.01-3.29-.45-3.29-.45-.11-.02-.23-.03-.34-.04l-2.15-.25c-2.68-.36-4.9-.65-6.68-.88-2.59-.33-5.03-.5-7.24-.5-2.81,0-5.66.31-8.5.93-1.89.41-4.09.99-6.71,1.75-.32.09-.63.19-.94.3l-.1.04c-.32.11-.64.23-.96.36-.98.41-1.91.83-2.8,1.28-1.33-.62-2.73-1.09-4.19-1.41-.92-3.27-2.64-6.24-5.06-8.66-3.76-3.76-8.87-5.83-14.38-5.83h-6.52c-1.36,0-2.7.13-4,.37-1.3-.25-2.63-.37-4-.37h-19.52c-2.55,0-5.02.45-7.3,1.3-3.02-.86-6.33-1.3-9.91-1.3h-14.18c-3.31,0-6.48.75-9.3,2.17-2.82-1.42-5.98-2.17-9.3-2.17h-11.78c-3,0-5.66.39-8,1-2.04-.65-4.2-1-6.43-1h-19.52c-1.51,0-2.99.16-4.42.46-1.43-.3-2.91-.46-4.42-.46h-6.82c-2.29,0-4.53.36-6.65,1.07-2.12-.71-4.36-1.07-6.65-1.07h-6.77c-5.52,0-10.63,2.08-14.38,5.83-3.77,3.76-5.84,8.87-5.84,14.39v27.26c0,1.94.26,3.83.76,5.63-1.79,3.17-3.17,7.34-3.17,12.71v87.94c0,8.46,3.41,13.96,6.44,17.17-3.91,6.15-6.93,14.63-6.93,26.16v42.34c0,18.95,8.16,29.67,15,35.32,8.89,7.35,21.37,11.08,37.09,11.08h42.75c5.13,0,9.12-1.31,12.15-3,3.03,1.7,7.02,3,12.15,3h19.95c8.54,0,13.94-3.61,16.96-6.63,0,0,0,0,0,0,.24.24.49.47.75.7,3.02,2.71,8.33,5.93,16.49,5.93h20.49c5.76,0,10.09-1.65,13.23-3.65,3.14,2,7.47,3.65,13.23,3.65h20.22c8.53,0,13.93-3.61,16.96-6.64,2.15-2.16,4.61-5.52,5.84-10.36,1.23,4.85,3.68,8.21,5.82,10.35,3.03,3.03,8.43,6.65,16.98,6.65h20.9c6.41,0,11.05-2.03,14.25-4.33,3.2,2.3,7.84,4.33,14.25,4.33h62.97c5.56,0,9.78-1.53,12.89-3.44,3.11,1.9,7.33,3.44,12.89,3.44h20.9c8.53,0,13.93-3.61,16.96-6.64,0,0,0,0,0,0,3.03,3.03,8.43,6.64,16.96,6.64h21.04c8.53,0,13.93-3.61,16.96-6.64,3.02-3.03,6.63-8.42,6.63-16.96v-28.77c0-2.34-.17-4.53-.46-6.58,5.84-3.21,10.78-7.91,14.34-13.78,19.81-32.69,20.69-65.11,19.45-81.53ZM135.12,944.68c.35-.16.69-.32,1.02-.49l-1.02,2.67v-2.18Z"/>
      <g>
        <g>
          <g>
            <g>
              <path class="cls-11" d="M70.95,927.19h-20.36c-1.72,0-2.96-.38-3.73-1.15-.77-.77-1.15-2.01-1.15-3.73v-87.94c0-1.72.38-2.96,1.15-3.73.77-.77,2.01-1.15,3.73-1.15h14.11c1.72,0,3.19.27,4.41.81s2.42,1.49,3.6,2.85l26.33,30.13v-28.91c0-1.72.38-2.96,1.15-3.73.77-.77,2.01-1.15,3.73-1.15h20.36c1.72,0,2.96.39,3.73,1.15.77.77,1.15,2.01,1.15,3.73v87.94c0,1.72-.39,2.96-1.15,3.73-.77.77-2.01,1.15-3.73,1.15h-20.36c-1.72,0-2.96-.38-3.73-1.15-.77-.77-1.15-2.01-1.15-3.73v-16.69l-23.21-28.09v44.78c0,1.72-.39,2.96-1.15,3.73-.77.77-2.01,1.15-3.73,1.15Z"/>
              <path class="cls-2" d="M124.29,928.19h-20.36c-1.99,0-3.48-.49-4.44-1.45-.96-.96-1.45-2.45-1.45-4.44v-16.33l-21.2-25.67v42c0,1.99-.49,3.48-1.45,4.44-.96.96-2.45,1.45-4.44,1.45h-20.36c-1.99,0-3.48-.49-4.44-1.45-.96-.96-1.45-2.45-1.45-4.44v-87.94c0-1.99.49-3.48,1.45-4.44.96-.96,2.45-1.45,4.44-1.45h14.11c1.85,0,3.47.3,4.82.9s2.68,1.65,3.95,3.11l24.57,28.11v-26.24c0-1.99.49-3.48,1.45-4.44.96-.96,2.45-1.45,4.44-1.45h20.36c1.98,0,3.48.49,4.44,1.45.96.96,1.45,2.46,1.45,4.44v87.94c0,1.99-.49,3.48-1.45,4.44-.96.96-2.45,1.45-4.44,1.45ZM74.84,874.73l25.21,30.52v17.05c0,1.44.29,2.45.86,3.02.57.57,1.59.86,3.02.86h20.36c1.44,0,2.45-.29,3.02-.86.57-.57.86-1.59.86-3.02v-87.94c0-1.43-.29-2.45-.86-3.02-.57-.57-1.59-.86-3.02-.86h-20.36c-1.44,0-2.45.29-3.02.86-.57.57-.86,1.59-.86,3.02v31.58l-28.08-32.14c-1.08-1.24-2.17-2.11-3.25-2.59-1.09-.48-2.43-.73-4-.73h-14.11c-1.44,0-2.45.29-3.02.86-.57.57-.86,1.59-.86,3.02v87.94c0,1.44.29,2.45.86,3.02.57.57,1.59.86,3.02.86h20.36c1.44,0,2.45-.29,3.02-.86.57-.57.86-1.59.86-3.02v-47.57Z"/>
            </g>
            <g>
              <path class="cls-11" d="M150.61,927.19c-1.72,0-2.96-.38-3.73-1.15-.77-.77-1.15-2.01-1.15-3.73v-16.15c0-1.72.38-2.96,1.15-3.73.77-.77,2.01-1.15,3.73-1.15h13.43v-45.6h-13.43c-1.72,0-2.96-.38-3.73-1.15-.77-.77-1.15-2.01-1.15-3.73v-16.42c0-1.72.38-2.96,1.15-3.73.77-.77,2.01-1.15,3.73-1.15h57.81c1.72,0,2.96.39,3.73,1.15.77.77,1.15,2.01,1.15,3.73v16.42c0,1.72-.39,2.96-1.15,3.73-.77.77-2.01,1.15-3.73,1.15h-13.16v45.6h13.16c1.72,0,2.96.39,3.73,1.15.77.77,1.15,2.01,1.15,3.73v16.15c0,1.72-.39,2.96-1.15,3.73-.77.77-2.01,1.15-3.73,1.15h-57.81Z"/>
              <path class="cls-2" d="M208.43,928.19h-57.81c-1.99,0-3.48-.49-4.44-1.45-.96-.96-1.45-2.45-1.45-4.44v-16.15c0-1.99.49-3.48,1.45-4.44.96-.96,2.45-1.45,4.44-1.45h12.43v-43.59h-12.43c-1.99,0-3.48-.49-4.44-1.45-.96-.96-1.45-2.45-1.45-4.44v-16.42c0-1.99.49-3.48,1.45-4.44.96-.96,2.45-1.45,4.44-1.45h57.81c1.98,0,3.48.49,4.44,1.45.96.96,1.45,2.46,1.45,4.44v16.42c0,1.99-.49,3.48-1.45,4.44-.96.96-2.45,1.45-4.44,1.45h-12.16v43.59h12.16c1.98,0,3.48.49,4.44,1.45.96.96,1.45,2.46,1.45,4.44v16.15c0,1.99-.49,3.48-1.45,4.44-.96.96-2.45,1.45-4.44,1.45ZM150.61,902.27c-1.44,0-2.45.29-3.02.86-.57.57-.86,1.59-.86,3.02v16.15c0,1.44.29,2.45.86,3.02.57.57,1.59.86,3.02.86h57.81c1.44,0,2.45-.29,3.02-.86.57-.57.86-1.59.86-3.02v-16.15c0-1.43-.29-2.45-.86-3.02-.57-.57-1.59-.86-3.02-.86h-14.17v-47.6h14.17c1.44,0,2.45-.29,3.02-.86.57-.57.86-1.59.86-3.02v-16.42c0-1.43-.29-2.45-.86-3.02-.57-.57-1.59-.86-3.02-.86h-57.81c-1.44,0-2.45.29-3.02.86-.57.57-.86,1.59-.86,3.02v16.42c0,1.44.29,2.45.86,3.02.57.57,1.59.86,3.02.86h14.44v47.6h-14.44Z"/>
            </g>
            <g>
              <path class="cls-11" d="M255.24,927.19h-20.36c-1.72,0-2.96-.38-3.73-1.15-.77-.77-1.15-2.01-1.15-3.73v-87.94c0-1.72.38-2.96,1.15-3.73.77-.77,2.01-1.15,3.73-1.15h14.11c1.72,0,3.19.27,4.41.81s2.42,1.49,3.6,2.85l26.33,30.13v-28.91c0-1.72.38-2.96,1.15-3.73.77-.77,2.01-1.15,3.73-1.15h20.36c1.72,0,2.96.39,3.73,1.15.77.77,1.15,2.01,1.15,3.73v87.94c0,1.72-.39,2.96-1.15,3.73-.77.77-2.01,1.15-3.73,1.15h-20.36c-1.72,0-2.96-.38-3.73-1.15-.77-.77-1.15-2.01-1.15-3.73v-16.69l-23.21-28.09v44.78c0,1.72-.39,2.96-1.15,3.73-.77.77-2.01,1.15-3.73,1.15ZM271.53,823.51l-3.8-.54c-2.53-.36-4.66-.61-6.38-.75-1.72-.14-3.26-.14-4.61,0s-2.69.36-4,.68c-1.31.32-2.87.75-4.68,1.29-1.63.45-2.85.41-3.66-.14s-1.22-1.67-1.22-3.39v-13.71c0-1.72.43-2.92,1.29-3.6.86-.68,2.06-1.33,3.6-1.97,2.17-.63,3.98-1.11,5.43-1.42,1.45-.32,2.87-.47,4.27-.47s2.99.11,4.75.34c1.76.23,4,.52,6.72.88l2.31.27,2.99.41c2.99.45,5.36.77,7.12.95,1.76.18,3.3.23,4.61.14,1.31-.09,2.6-.32,3.87-.68,1.27-.36,2.89-.86,4.89-1.49,1.63-.45,2.85-.41,3.66.14s1.22,1.68,1.22,3.39v13.71c0,1.72-.43,2.92-1.29,3.6-.86.68-2.06,1.34-3.6,1.97-2.17.63-3.98,1.11-5.43,1.42-1.45.32-2.9.47-4.34.47s-3.05-.11-4.82-.34c-1.76-.22-4-.52-6.72-.88l-2.17-.27Z"/>
              <path class="cls-2" d="M308.58,928.19h-20.36c-1.99,0-3.48-.49-4.44-1.45-.96-.96-1.45-2.45-1.45-4.44v-16.33l-21.2-25.67v42c0,1.99-.49,3.48-1.45,4.44-.96.96-2.45,1.45-4.44,1.45h-20.36c-1.99,0-3.48-.49-4.44-1.45-.96-.96-1.45-2.45-1.45-4.44v-87.94c0-1.99.49-3.48,1.45-4.44s2.45-1.45,4.44-1.45h14.11c1.85,0,3.47.3,4.82.9,1.35.6,2.68,1.65,3.95,3.11l24.57,28.11v-26.24c0-1.99.49-3.48,1.45-4.44s2.45-1.45,4.44-1.45h20.36c1.98,0,3.48.49,4.44,1.45.96.96,1.45,2.46,1.45,4.44v87.94c0,1.99-.49,3.48-1.45,4.44-.96.96-2.45,1.45-4.44,1.45ZM259.13,874.73l25.21,30.52v17.05c0,1.44.29,2.45.86,3.02.57.57,1.59.86,3.02.86h20.36c1.44,0,2.45-.29,3.02-.86.57-.57.86-1.59.86-3.02v-87.94c0-1.43-.29-2.45-.86-3.02-.57-.57-1.59-.86-3.02-.86h-20.36c-1.44,0-2.45.29-3.02.86-.57.57-.86,1.59-.86,3.02v31.58l-28.08-32.14c-1.08-1.24-2.17-2.11-3.25-2.59-1.09-.48-2.43-.73-4-.73h-14.11c-1.44,0-2.45.29-3.02.86-.57.57-.86,1.59-.86,3.02v87.94c0,1.44.29,2.45.86,3.02.57.57,1.59.86,3.02.86h20.36c1.44,0,2.45-.29,3.02-.86.57-.57.86-1.59.86-3.02v-47.57ZM285.23,826c-1.49,0-3.15-.12-4.95-.35-1.76-.22-4.01-.52-6.72-.88l-2.18-.27-3.8-.54c-2.52-.36-4.65-.61-6.32-.74-1.65-.13-3.14-.13-4.44,0-1.3.13-2.6.35-3.87.66-1.31.32-2.87.75-4.63,1.27-1.96.55-3.43.46-4.51-.26-1.11-.74-1.67-2.16-1.67-4.23v-13.71c0-2.03.56-3.51,1.67-4.38.94-.74,2.19-1.43,3.84-2.11l.1-.04c2.19-.64,4.03-1.12,5.49-1.44,1.51-.33,3.02-.5,4.49-.5s3.07.12,4.88.35c1.77.23,4.01.52,6.72.88l2.29.27,3,.41c2.96.45,5.34.77,7.09.95,1.7.18,3.19.22,4.44.13,1.23-.08,2.46-.3,3.66-.64,1.24-.35,2.87-.85,4.86-1.48,1.98-.55,3.45-.46,4.52.26,1.11.74,1.67,2.16,1.67,4.23v13.71c0,2.03-.56,3.51-1.67,4.38-.93.74-2.23,1.45-3.84,2.11l-.1.04c-2.18.64-4.03,1.12-5.5,1.44-1.5.33-3.04.5-4.56.5ZM271.66,822.52l2.16.27c2.72.36,4.96.66,6.72.88,1.71.22,3.29.33,4.69.33s2.76-.15,4.13-.45c1.41-.31,3.2-.78,5.31-1.39,1.42-.59,2.53-1.19,3.31-1.81.6-.48.91-1.42.91-2.81v-13.71c0-.93-.13-2.13-.78-2.56-.55-.37-1.53-.37-2.84,0-2,.64-3.61,1.13-4.88,1.49-1.33.38-2.7.62-4.07.71-1.37.09-2.98.05-4.78-.14-1.79-.18-4.2-.5-7.17-.96l-2.97-.4-2.29-.27c-2.73-.36-4.97-.66-6.73-.88-1.72-.22-3.28-.33-4.62-.33s-2.69.15-4.06.45c-1.4.31-3.19.78-5.31,1.39-1.42.59-2.53,1.2-3.31,1.81-.6.48-.91,1.42-.91,2.81v13.71c0,.93.13,2.13.78,2.56.55.37,1.53.37,2.84,0,1.78-.53,3.37-.97,4.72-1.3,1.35-.33,2.75-.56,4.14-.7,1.41-.14,3.02-.14,4.79,0,1.71.14,3.88.39,6.44.75l3.79.54Z"/>
            </g>
            <g>
              <path class="cls-11" d="M414.97,901.54c0,4.16-.61,7.94-1.83,11.33s-3.39,6.29-6.51,8.69c-3.12,2.4-7.42,4.27-12.89,5.63-5.47,1.36-12.42,2.04-20.83,2.04s-15.38-.68-20.9-2.04c-5.52-1.36-9.84-3.23-12.96-5.63-3.12-2.4-5.29-5.29-6.51-8.69s-1.83-7.17-1.83-11.33v-46.28c0-4.16.61-7.94,1.83-11.33s3.39-6.31,6.51-8.75c3.12-2.44,7.44-4.34,12.96-5.7,5.52-1.36,12.49-2.04,20.9-2.04s15.36.68,20.83,2.04c5.47,1.36,9.77,3.26,12.89,5.7,3.12,2.44,5.29,5.36,6.51,8.75s1.83,7.17,1.83,11.33v46.28ZM361.5,896.65c0,1.81.68,3.32,2.04,4.55s4.48,1.83,9.36,1.83,8.01-.61,9.36-1.83,2.04-2.74,2.04-4.55v-36.51c0-1.72-.68-3.19-2.04-4.41s-4.48-1.83-9.36-1.83-8.01.61-9.36,1.83-2.04,2.69-2.04,4.41v36.51Z"/>
              <path class="cls-2" d="M372.9,930.23c-8.46,0-15.57-.69-21.14-2.06-5.63-1.38-10.12-3.34-13.33-5.81-3.26-2.5-5.56-5.58-6.85-9.14-1.26-3.49-1.89-7.41-1.89-11.67v-46.28c0-4.26.64-8.19,1.89-11.67,1.28-3.56,3.58-6.65,6.84-9.2,3.22-2.52,7.71-4.5,13.34-5.88,5.57-1.37,12.68-2.06,21.14-2.06s15.54.69,21.07,2.07c5.59,1.38,10.05,3.36,13.27,5.88,3.26,2.55,5.56,5.65,6.84,9.2,1.26,3.49,1.89,7.41,1.89,11.67v46.28c0,4.26-.64,8.19-1.89,11.67-1.28,3.56-3.59,6.64-6.85,9.14-3.21,2.47-7.68,4.42-13.26,5.81-5.53,1.37-12.62,2.07-21.07,2.07ZM372.9,828.45c-8.3,0-15.25.68-20.66,2.01-5.35,1.32-9.59,3.17-12.58,5.52-2.96,2.31-5.04,5.11-6.19,8.3-1.18,3.27-1.77,6.97-1.77,10.99v46.28c0,4.03.6,7.72,1.77,10.99,1.15,3.2,3.23,5.96,6.18,8.23,3,2.3,7.23,4.14,12.59,5.45,5.41,1.33,12.36,2.01,20.66,2.01s15.22-.67,20.59-2.01c5.31-1.32,9.53-3.15,12.52-5.45,2.95-2.27,5.03-5.03,6.18-8.23,1.18-3.27,1.77-6.97,1.77-10.99v-46.28c0-4.03-.6-7.72-1.77-10.99-1.15-3.2-3.23-5.99-6.19-8.3-2.99-2.34-7.21-4.2-12.52-5.52-5.37-1.33-12.3-2.01-20.59-2.01ZM372.9,904.04c-5.19,0-8.47-.68-10.03-2.09-1.57-1.41-2.37-3.19-2.37-5.29v-36.51c0-2.01.8-3.74,2.37-5.16,1.56-1.41,4.84-2.09,10.03-2.09s8.47.68,10.03,2.09c1.57,1.41,2.37,3.15,2.37,5.16v36.51c0,2.1-.8,3.88-2.37,5.29-1.56,1.41-4.84,2.09-10.03,2.09ZM372.9,854.91c-5.74,0-7.9.86-8.69,1.57-1.15,1.03-1.7,2.23-1.7,3.67v36.51c0,1.53.56,2.77,1.7,3.8.8.72,2.95,1.57,8.69,1.57s7.9-.86,8.69-1.57c1.15-1.03,1.7-2.28,1.7-3.8v-36.51c0-1.43-.56-2.63-1.7-3.67-.8-.72-2.95-1.57-8.69-1.57Z"/>
            </g>
          </g>
          <g>
            <path class="cls-2" d="M120.35,1035.65h-42.75c-11.31,0-19.7-2.26-25.17-6.79-5.48-4.52-8.21-11.49-8.21-20.9v-42.34c0-9.41,2.74-16.37,8.21-20.9,5.47-4.52,13.86-6.79,25.17-6.79h33.93c1.72,0,2.96.39,3.73,1.15.77.77,1.15,2.01,1.15,3.73v16.42c0,1.72-.39,2.96-1.15,3.73-.77.77-2.01,1.15-3.73,1.15h-28.23c-2.81,0-4.89.57-6.24,1.7-1.36,1.13-2.04,2.83-2.04,5.09v32.43c0,2.26.52,3.94,1.56,5.02,1.04,1.09,2.6,1.63,4.68,1.63h13.16v-21.17c0-1.72.38-2.96,1.15-3.73.77-.77,2.01-1.15,3.73-1.15h21.03c1.72,0,2.96.39,3.73,1.15.77.77,1.15,2.01,1.15,3.73v41.93c0,1.72-.39,2.96-1.15,3.73-.77.77-2.01,1.15-3.73,1.15Z"/>
            <path class="cls-2" d="M169.47,1030.77c0,1.72-.39,2.96-1.15,3.73-.77.77-2.01,1.15-3.73,1.15h-19.95c-1.72,0-2.96-.38-3.73-1.15-.77-.77-1.15-2.01-1.15-3.73v-35.83c0-2.71.43-5.84,1.29-9.36.86-3.53,2.19-7.64,4-12.35l11.81-30.81c.54-1.54,1.38-2.67,2.51-3.39,1.13-.72,2.6-1.09,4.41-1.09h36.51c1.72,0,3.14.36,4.27,1.09,1.13.73,1.97,1.86,2.51,3.39l11.81,30.81c1.81,4.71,3.14,8.82,4,12.35.86,3.53,1.29,6.65,1.29,9.36v35.83c0,1.72-.39,2.96-1.15,3.73-.77.77-2.01,1.15-3.73,1.15h-20.49c-1.81,0-3.14-.38-4-1.15-.86-.77-1.29-2.01-1.29-3.73v-19h-24.02v19ZM177.21,966.44l-6.38,20.63h21.31l-6.38-20.63c-.36-.81-.75-1.4-1.15-1.76-.41-.36-.88-.54-1.42-.54h-3.39c-.54,0-1.02.18-1.42.54-.41.36-.79.95-1.15,1.76Z"/>
            <path class="cls-2" d="M265.96,1035.65h-20.22c-1.72,0-2.96-.38-3.73-1.15-.77-.77-1.15-2.01-1.15-3.73v-87.94c0-1.72.38-2.96,1.15-3.73.77-.77,2.01-1.15,3.73-1.15h21.85c1.45,0,2.65.32,3.6.95.95.63,1.83,1.68,2.65,3.12l12.21,22.12c.45.81.84,1.4,1.15,1.76.32.36.75.54,1.29.54h1.22c.54,0,.97-.18,1.29-.54.32-.36.7-.95,1.15-1.76l12.08-22.12c.81-1.45,1.7-2.49,2.65-3.12.95-.63,2.15-.95,3.6-.95h21.99c1.72,0,2.96.39,3.73,1.15.77.77,1.15,2.01,1.15,3.73v87.94c0,1.72-.39,2.96-1.15,3.73-.77.77-2.01,1.15-3.73,1.15h-20.9c-1.72,0-2.96-.38-3.73-1.15-.77-.77-1.15-2.01-1.15-3.73v-47.77l-8.01,14.79c-.81,1.54-1.79,2.65-2.92,3.32-1.13.68-2.56,1.02-4.27,1.02h-5.43c-1.72,0-3.14-.34-4.27-1.02-1.13-.68-2.1-1.79-2.92-3.32l-8.01-14.79v47.77c0,1.72-.39,2.96-1.15,3.73-.77.77-2.01,1.15-3.73,1.15Z"/>
            <path class="cls-2" d="M423.93,1035.65h-62.97c-1.72,0-2.96-.38-3.73-1.15-.77-.77-1.15-2.01-1.15-3.73v-87.94c0-1.72.38-2.96,1.15-3.73.77-.77,2.01-1.15,3.73-1.15h62.97c1.72,0,2.96.39,3.73,1.15.77.77,1.15,2.01,1.15,3.73v15.88c0,1.72-.39,2.96-1.15,3.73-.77.77-2.01,1.15-3.73,1.15h-37.46v10.45h26.46c1.72,0,2.96.39,3.73,1.15.77.77,1.15,2.01,1.15,3.73v14.52c0,1.72-.39,2.96-1.15,3.73-.77.77-2.01,1.15-3.73,1.15h-26.46v11.67h37.46c1.72,0,2.96.39,3.73,1.15.77.77,1.15,2.01,1.15,3.73v15.88c0,1.72-.39,2.96-1.15,3.73-.77.77-2.01,1.15-3.73,1.15Z"/>
            <path class="cls-2" d="M470.61,1035.65h-20.9c-1.72,0-2.96-.38-3.73-1.15-.77-.77-1.15-2.01-1.15-3.73v-87.94c0-1.72.38-2.96,1.15-3.73.77-.77,2.01-1.15,3.73-1.15h45.19c10.13,0,17.12,2.1,20.97,6.31,3.84,4.21,5.77,9.66,5.77,16.35v6.24c0,3.8-.57,7.04-1.7,9.7-1.13,2.67-3.1,4.59-5.9,5.77,4.89.54,8.84,2.53,11.87,5.97,3.03,3.44,4.55,8.01,4.55,13.71v28.77c0,1.72-.39,2.96-1.15,3.73-.77.77-2.01,1.15-3.73,1.15h-21.04c-1.72,0-2.96-.38-3.73-1.15-.77-.77-1.15-2.01-1.15-3.73v-20.76c0-1.99-.39-3.46-1.15-4.41-.77-.95-2.1-1.42-4-1.42h-19v26.6c0,1.72-.39,2.96-1.15,3.73-.77.77-2.01,1.15-3.73,1.15ZM475.49,962.37v17.37h10.18c2.35,0,3.94-.61,4.75-1.83s1.22-2.74,1.22-4.55v-4.61c0-1.81-.41-3.32-1.22-4.55s-2.4-1.83-4.75-1.83h-10.18Z"/>
          </g>
          <g>
            <path class="cls-2" d="M54.91,817.53h-6.27c-.53,0-.92-.12-1.16-.36-.24-.24-.36-.62-.36-1.16v-27.26c0-.53.12-.92.36-1.16.24-.24.62-.36,1.16-.36h6.77c.45,0,.82.1,1.11.29.29.2.57.52.82.97l3.79,6.86c.14.25.26.44.36.55.1.11.23.17.4.17h.38c.17,0,.3-.06.4-.17.1-.11.22-.29.36-.55l3.74-6.86c.25-.45.53-.77.82-.97.29-.2.67-.29,1.12-.29h6.82c.53,0,.92.12,1.16.36.24.24.36.62.36,1.16v27.26c0,.53-.12.92-.36,1.16-.24.24-.62.36-1.16.36h-6.48c-.53,0-.92-.12-1.16-.36-.24-.24-.36-.62-.36-1.16v-14.81l-2.48,4.59c-.25.48-.55.82-.9,1.03-.35.21-.79.32-1.33.32h-1.68c-.53,0-.97-.11-1.33-.32-.35-.21-.65-.55-.9-1.03l-2.48-4.59v14.81c0,.53-.12.92-.36,1.16-.24.24-.62.36-1.16.36Z"/>
            <path class="cls-2" d="M103.88,817.53h-19.52c-.53,0-.92-.12-1.16-.36-.24-.24-.36-.62-.36-1.16v-27.26c0-.53.12-.92.36-1.16.24-.24.62-.36,1.16-.36h19.52c.53,0,.92.12,1.16.36.24.24.36.62.36,1.16v4.92c0,.53-.12.92-.36,1.16-.24.24-.62.36-1.16.36h-11.61v3.24h8.2c.53,0,.92.12,1.16.36.24.24.36.62.36,1.16v4.5c0,.53-.12.92-.36,1.16-.24.24-.62.36-1.16.36h-8.2v3.62h11.61c.53,0,.92.12,1.16.36.24.24.36.62.36,1.16v4.92c0,.53-.12.92-.36,1.16-.24.24-.62.36-1.16.36Z"/>
            <path class="cls-2" d="M124.41,817.53h-13.3c-.53,0-.92-.12-1.16-.36-.24-.24-.36-.62-.36-1.16v-4.92c0-.53.12-.92.36-1.16.24-.24.62-.36,1.16-.36h11.32c.36,0,.64-.12.82-.36.18-.24.27-.53.27-.86,0-.48-.09-.83-.27-1.05-.18-.22-.46-.35-.82-.38l-6.31-.88c-1.96-.28-3.54-.93-4.73-1.94-1.19-1.01-1.79-2.69-1.79-5.05v-4.42c0-2.38.77-4.21,2.31-5.49,1.54-1.28,3.67-1.91,6.4-1.91h11.78c.53,0,.92.12,1.16.36.24.24.36.62.36,1.16v5.01c0,.53-.12.92-.36,1.16-.24.24-.62.36-1.16.36h-9.8c-.36,0-.65.12-.84.36-.2.24-.29.54-.29.9s.1.67.29.93.48.39.84.42l6.27.84c1.96.28,3.55.93,4.75,1.94,1.21,1.01,1.81,2.69,1.81,5.05v4.42c0,2.38-.78,4.21-2.34,5.49-1.56,1.28-3.68,1.91-6.37,1.91Z"/>
            <path class="cls-2" d="M162.87,817.53h-14.18c-.53,0-.92-.12-1.16-.36-.24-.24-.36-.62-.36-1.16v-27.26c0-.53.12-.92.36-1.16.24-.24.62-.36,1.16-.36h14.18c3.51,0,6.11.7,7.8,2.1,1.7,1.4,2.55,3.56,2.55,6.48v13.13c0,2.92-.85,5.08-2.55,6.48-1.7,1.4-4.3,2.1-7.8,2.1ZM156.72,795.27v14.31h5.01c.67,0,1.17-.17,1.49-.5.32-.34.48-.86.48-1.56v-10.22c0-.7-.16-1.21-.48-1.54-.32-.32-.82-.48-1.49-.48h-5.01Z"/>
            <path class="cls-2" d="M199.6,817.53h-19.52c-.53,0-.92-.12-1.16-.36-.24-.24-.36-.62-.36-1.16v-27.26c0-.53.12-.92.36-1.16.24-.24.62-.36,1.16-.36h19.52c.53,0,.92.12,1.16.36.24.24.36.62.36,1.16v4.92c0,.53-.12.92-.36,1.16-.24.24-.62.36-1.16.36h-11.61v3.24h8.2c.53,0,.92.12,1.16.36.24.24.36.62.36,1.16v4.5c0,.53-.12.92-.36,1.16-.24.24-.62.36-1.16.36h-8.2v3.62h11.61c.53,0,.92.12,1.16.36.24.24.36.62.36,1.16v4.92c0,.53-.12.92-.36,1.16-.24.24-.62.36-1.16.36Z"/>
            <path class="cls-2" d="M229.01,817.53h-21.42c-.53,0-.92-.12-1.16-.36-.24-.24-.36-.62-.36-1.16v-27.26c0-.53.12-.92.36-1.16.24-.24.62-.36,1.16-.36h6.52c.53,0,.92.12,1.16.36.24.24.36.62.36,1.16v20.83h5.76v-6.82c0-.53.12-.92.36-1.16.24-.24.62-.36,1.16-.36h6.1c.53,0,.92.12,1.16.36.24.24.36.62.36,1.16v13.25c0,.53-.12.92-.36,1.16-.24.24-.62.36-1.16.36Z"/>
          </g>
        </g>
        <g>
          <g>
            <path class="cls-10" d="M562.84,901.59c-.44-5.82-3.63-11.04-8.55-14.1l-38.29-23.8-38.29-23.8c-4.92-3.06-11.01-3.6-16.42-1.42-13.12,5.29-37.66,18.24-55.24,45.84-5.55,8.72-3.05,20.24,5.62,25.63h0c7.31,4.54,16.82,3.31,22.88-2.95,8.34-8.62,20.08-19.07,27.54-18.61l27.82,17.29,27.82,17.29c3.71,6.49-.47,21.64-4.5,32.93-2.93,8.2.17,17.28,7.48,21.83h0c8.67,5.39,20.11,2.53,25.47-6.31,16.96-27.98,17.72-55.72,16.65-69.82Z"/>
            <path class="cls-2" d="M530.24,981.46c-3.53,0-6.99-.98-10.05-2.88-7.77-4.83-11.01-14.29-7.9-23.01,5.6-15.69,7.26-26.98,4.69-31.88l-55.2-34.31c-.06,0-.11,0-.17,0-5.55,0-14.87,6.48-26.34,18.32-6.44,6.66-16.37,7.93-24.13,3.11-4.37-2.72-7.41-6.99-8.56-12.04-1.17-5.16-.24-10.48,2.62-14.97,17.74-27.84,42.52-40.91,55.71-46.23,5.67-2.28,12.14-1.72,17.33,1.5l76.58,47.6c5.18,3.22,8.55,8.78,9.02,14.87h0c1.07,14.18.32,42.19-16.79,70.42-2.76,4.56-7.12,7.75-12.27,8.98-1.51.36-3.03.54-4.53.54ZM461.63,887.36c.18,0,.35,0,.52.02.17.01.33.06.47.15l55.65,34.59c.14.09.26.21.34.35,3.89,6.79-.26,22.11-4.43,33.77-2.8,7.83.11,16.31,7.07,20.64,3.91,2.43,8.55,3.18,13.06,2.1,4.62-1.11,8.53-3.97,11.02-8.07,16.82-27.75,17.56-55.29,16.51-69.23h0c-.41-5.46-3.43-10.44-8.08-13.32l-76.58-47.6c-4.64-2.89-10.45-3.39-15.52-1.34-12.97,5.23-37.33,18.08-54.77,45.45-2.58,4.04-3.41,8.82-2.36,13.45,1.03,4.52,3.75,8.35,7.66,10.79,6.96,4.32,15.85,3.17,21.63-2.8,8.42-8.7,19.99-18.93,27.79-18.93Z"/>
          </g>
          <g>
            <g>
              <g>
                <circle class="cls-10" cx="468.28" cy="863.87" r="20.39"/>
                <path class="cls-2" d="M468.24,885.27c-3.94,0-7.82-1.1-11.25-3.23-4.85-3.02-8.24-7.74-9.54-13.31-1.3-5.56-.35-11.3,2.66-16.15,6.23-10.02,19.44-13.1,29.46-6.88,4.85,3.02,8.24,7.74,9.54,13.31,1.3,5.56.35,11.3-2.66,16.15h0c-3.02,4.85-7.74,8.24-13.31,9.54-1.63.38-3.27.57-4.9.57ZM468.31,844.49c-6.48,0-12.83,3.25-16.5,9.15-2.73,4.4-3.59,9.6-2.41,14.64,1.18,5.04,4.25,9.33,8.65,12.06,4.4,2.73,9.6,3.59,14.64,2.41,5.04-1.18,9.33-4.25,12.06-8.65h0c2.73-4.4,3.59-9.6,2.41-14.64-1.18-5.04-4.25-9.33-8.65-12.06-3.18-1.97-6.71-2.92-10.2-2.92Z"/>
              </g>
              <g>
                <circle class="cls-10" cx="468.28" cy="863.87" r="16.86" transform="translate(-227.85 170.36) rotate(-16.65)"/>
                <path class="cls-2" d="M468.25,881.73c-3.29,0-6.53-.92-9.39-2.7-8.36-5.2-10.94-16.23-5.74-24.6,2.52-4.05,6.46-6.88,11.11-7.96,4.65-1.08,9.44-.29,13.49,2.22,4.05,2.52,6.88,6.46,7.96,11.11s.29,9.44-2.22,13.49c-2.52,4.05-6.46,6.88-11.11,7.96-1.36.32-2.73.47-4.09.47ZM468.31,848.01c-1.21,0-2.43.14-3.63.42-4.12.96-7.63,3.47-9.86,7.07-4.62,7.43-2.33,17.22,5.1,21.84,3.6,2.24,7.85,2.94,11.97,1.97,4.12-.96,7.63-3.47,9.86-7.07h0c4.62-7.43,2.33-17.22-5.1-21.84-2.54-1.58-5.42-2.4-8.34-2.4Z"/>
              </g>
              <g>
                <path class="cls-11" d="M476.66,864.6l-3.15-1.96,1.96-3.15c1.1-1.77.55-4.13-1.22-5.23-1.77-1.1-4.13-.55-5.23,1.22l-1.96,3.15-3.15-1.96c-1.77-1.1-4.13-.55-5.23,1.22-1.1,1.77-.55,4.12,1.22,5.23l3.15,1.96-1.96,3.15c-1.1,1.77-.55,4.13,1.22,5.23,1.77,1.1,4.13.55,5.23-1.22l1.96-3.15,3.15,1.96c1.77,1.1,4.13.55,5.23-1.22,1.1-1.77.55-4.13-1.22-5.23Z"/>
                <path class="cls-2" d="M464.32,875.04c-.86,0-1.74-.23-2.52-.72-2.25-1.4-2.94-4.36-1.54-6.61l1.43-2.3-2.3-1.43c-2.25-1.4-2.94-4.36-1.54-6.61,1.4-2.25,4.36-2.94,6.61-1.54l2.3,1.43,1.43-2.3c.67-1.08,1.73-1.84,2.98-2.13,1.25-.29,2.54-.08,3.62.59,1.08.67,1.84,1.73,2.13,2.99.29,1.25.08,2.54-.59,3.62l-1.43,2.3,2.3,1.43c2.25,1.4,2.94,4.36,1.54,6.61-.67,1.08-1.73,1.84-2.99,2.13-1.25.29-2.54.08-3.62-.59l-2.3-1.43-1.43,2.3c-.91,1.46-2.48,2.26-4.08,2.26ZM461.92,857.11c-.93,0-1.85.47-2.38,1.32-.81,1.31-.41,3.03.9,3.85l4,2.49-2.49,4c-.81,1.31-.41,3.03.9,3.85,1.31.81,3.03.41,3.85-.9l2.49-4,4,2.49c.63.39,1.38.51,2.11.34.73-.17,1.35-.61,1.74-1.24.81-1.31.41-3.03-.9-3.85l-4-2.49,2.49-4c.39-.63.51-1.38.34-2.11-.17-.73-.61-1.35-1.24-1.74-.63-.39-1.38-.51-2.11-.34-.73.17-1.35.61-1.74,1.24l-2.49,4-4-2.49c-.46-.28-.97-.42-1.47-.42Z"/>
              </g>
            </g>
            <g>
              <g>
                <circle class="cls-10" cx="536.97" cy="906.56" r="20.39" transform="translate(-182.19 136.49) rotate(-12.4)"/>
                <path class="cls-2" d="M536.94,927.95c-3.85,0-7.75-1.04-11.26-3.22-4.85-3.02-8.24-7.74-9.54-13.31-1.3-5.56-.35-11.3,2.66-16.15,3.02-4.85,7.74-8.24,13.31-9.54s11.3-.35,16.15,2.66c4.85,3.02,8.24,7.74,9.54,13.31,1.3,5.56.35,11.3-2.66,16.15-4.05,6.51-11.05,10.09-18.2,10.09ZM537.01,887.17c-1.48,0-2.97.17-4.44.51-5.04,1.18-9.33,4.25-12.06,8.65h0c-2.73,4.4-3.59,9.6-2.41,14.64,1.18,5.04,4.25,9.33,8.65,12.06,9.08,5.64,21.06,2.85,26.7-6.23,2.73-4.4,3.59-9.6,2.41-14.64-1.18-5.04-4.25-9.33-8.65-12.06-3.11-1.93-6.62-2.93-10.2-2.93Z"/>
              </g>
              <g>
                <circle class="cls-10" cx="536.97" cy="906.56" r="16.86" transform="translate(-396.36 1395.52) rotate(-87.01)"/>
                <path class="cls-2" d="M536.94,924.43c-3.29,0-6.53-.92-9.39-2.7-4.05-2.52-6.88-6.46-7.96-11.11s-.29-9.44,2.22-13.49c2.52-4.05,6.46-6.88,11.11-7.96,4.65-1.08,9.44-.29,13.49,2.22,8.36,5.2,10.94,16.23,5.74,24.6-2.52,4.05-6.46,6.88-11.11,7.96-1.36.32-2.73.47-4.09.47ZM537,890.7c-1.21,0-2.43.14-3.63.42-4.12.96-7.63,3.47-9.86,7.07h0c-4.62,7.43-2.33,17.22,5.1,21.84,3.6,2.24,7.85,2.94,11.97,1.97,4.12-.96,7.63-3.47,9.86-7.07,4.62-7.43,2.33-17.22-5.1-21.84-2.54-1.58-5.42-2.4-8.34-2.4Z"/>
              </g>
              <g>
                <path class="cls-11" d="M532.61,899.38l3.15,1.96,1.96-3.15c1.1-1.77,3.45-2.32,5.23-1.22,1.77,1.1,2.32,3.45,1.22,5.23l-1.96,3.15,3.15,1.96c1.77,1.1,2.32,3.45,1.22,5.23-1.1,1.77-3.45,2.32-5.23,1.22l-3.15-1.96-1.96,3.15c-1.1,1.77-3.45,2.32-5.23,1.22-1.77-1.1-2.32-3.45-1.22-5.23l1.96-3.15-3.15-1.96c-1.77-1.1-2.32-3.45-1.22-5.23,1.1-1.77,3.45-2.32,5.23-1.22Z"/>
                <path class="cls-2" d="M533,917.73c-.88,0-1.75-.24-2.52-.72-2.25-1.4-2.94-4.36-1.54-6.61l1.43-2.3-2.3-1.43c-2.25-1.4-2.94-4.36-1.54-6.61,1.4-2.25,4.36-2.94,6.61-1.54l2.3,1.43,1.43-2.3c.67-1.08,1.73-1.84,2.99-2.14,1.25-.29,2.54-.08,3.62.59,2.25,1.4,2.94,4.36,1.54,6.61l-1.43,2.3,2.3,1.43c2.25,1.4,2.94,4.36,1.54,6.61-1.4,2.25-4.36,2.94-6.61,1.54l-2.3-1.43-1.43,2.3c-.67,1.08-1.73,1.84-2.98,2.13-.37.09-.74.13-1.11.13ZM530.61,899.81c-.93,0-1.85.47-2.38,1.32-.81,1.31-.41,3.03.9,3.85l4,2.49-2.49,4c-.81,1.31-.41,3.03.9,3.85.63.39,1.38.51,2.11.34.73-.17,1.35-.61,1.74-1.24l2.49-4,4,2.49c1.31.81,3.03.41,3.85-.9.81-1.31.41-3.03-.9-3.85l-4-2.49,2.49-4c.81-1.31.41-3.03-.9-3.85-.63-.39-1.38-.51-2.11-.34-.73.17-1.35.61-1.74,1.24l-2.49,4-4-2.49c-.46-.28-.97-.42-1.47-.42Z"/>
              </g>
            </g>
          </g>
          <g>
            <path class="cls-11" d="M499.87,868.72h14.27c3.95,0,7.16,3.21,7.16,7.16v4.56c0,3.95-3.21,7.16-7.16,7.16h-14.27c-3.95,0-7.16-3.21-7.16-7.16v-4.56c0-3.95,3.21-7.16,7.16-7.16Z" transform="translate(539.97 -135.32) rotate(31.86)"/>
            <path class="cls-2" d="M512.62,892.93c-1.04,0-2.1-.28-3.05-.87l-16.16-10.04c-1.31-.82-2.23-2.09-2.58-3.6-.35-1.51-.1-3.06.72-4.37l4.92-7.91c.82-1.31,2.09-2.23,3.6-2.58,1.51-.35,3.06-.1,4.37.72l16.16,10.04c1.31.82,2.23,2.09,2.58,3.6.35,1.51.1,3.06-.72,4.37l-4.92,7.91c-1.1,1.76-2.99,2.73-4.93,2.73ZM510.63,890.36c1.77,1.1,4.11.56,5.21-1.22l4.92-7.91c.53-.86.7-1.87.47-2.86s-.83-1.82-1.69-2.35l-16.16-10.04c-.86-.53-1.87-.7-2.86-.47-.98.23-1.82.83-2.35,1.69l-4.92,7.91c-.53.86-.7,1.87-.47,2.86s.83,1.82,1.69,2.35l16.16,10.04Z"/>
          </g>
          <path class="cls-2" d="M411.49,888.98c-.19,0-.38-.05-.55-.16-.46-.3-.59-.92-.29-1.39.64-.97,15.77-23.9,32.43-32.6.49-.26,1.1-.07,1.35.42.26.49.07,1.1-.42,1.35-16.2,8.47-31.53,31.69-31.68,31.92-.19.29-.51.45-.84.45Z"/>
          <path class="cls-2" d="M519.02,960.99c-.13,0-.26-.03-.39-.08-.51-.21-.75-.8-.53-1.31.06-.15,6.18-14.79,6.58-25.91.02-.55.49-.99,1.04-.97.55.02.99.48.97,1.04-.41,11.49-6.48,26-6.73,26.61-.16.38-.53.61-.92.61Z"/>
          <g>
            <path class="cls-11" d="M485.89,894.05c-.69,1.11-2.15,1.45-3.27.76s-1.45-2.15-.76-3.27c.69-1.11,2.15-1.45,3.27-.76s1.45,2.15.76,3.27Z"/>
            <path class="cls-2" d="M483.87,896.17c-.61,0-1.22-.16-1.78-.51-1.58-.98-2.07-3.07-1.08-4.65.48-.77,1.22-1.3,2.1-1.5.88-.21,1.78-.06,2.55.42,1.58.98,2.07,3.07,1.08,4.65h0c-.64,1.03-1.74,1.59-2.87,1.59ZM483.88,891.43c-.1,0-.21.01-.31.04-.36.08-.66.3-.85.61-.4.64-.2,1.49.44,1.89.64.4,1.49.2,1.89-.44h0c.4-.64.2-1.49-.44-1.89-.22-.14-.47-.21-.72-.21Z"/>
          </g>
          <g>
            <path class="cls-11" d="M496.02,900.34c-.69,1.11-2.15,1.45-3.27.76s-1.45-2.15-.76-3.27c.69-1.11,2.15-1.45,3.27-.76s1.45,2.15.76,3.27Z"/>
            <path class="cls-2" d="M494,902.47c-.62,0-1.23-.17-1.77-.51-.77-.48-1.3-1.22-1.51-2.1-.2-.88-.06-1.78.42-2.55.48-.77,1.22-1.3,2.1-1.5.87-.2,1.78-.06,2.55.42,1.58.98,2.07,3.07,1.08,4.65h0c-.48.77-1.22,1.3-2.1,1.51-.26.06-.52.09-.77.09ZM494.01,897.72c-.1,0-.21.01-.31.04-.36.08-.66.3-.85.61-.19.31-.25.68-.17,1.03.08.36.3.66.61.85.31.19.68.25,1.03.17.36-.08.66-.3.85-.61.4-.64.2-1.49-.44-1.89-.22-.14-.47-.21-.72-.21Z"/>
          </g>
          <g>
            <path class="cls-11" d="M506.15,906.64c-.69,1.11-2.15,1.45-3.27.76s-1.45-2.15-.76-3.27c.69-1.11,2.15-1.45,3.27-.76,1.11.69,1.45,2.15.76,3.27Z"/>
            <path class="cls-2" d="M504.13,908.76c-.62,0-1.23-.17-1.77-.51-1.58-.98-2.07-3.07-1.08-4.65.48-.77,1.22-1.3,2.1-1.5.88-.2,1.78-.06,2.55.42.77.48,1.3,1.22,1.51,2.1.2.88.06,1.78-.42,2.55-.48.77-1.22,1.3-2.1,1.5-.26.06-.52.09-.77.09ZM504.14,904.02c-.1,0-.21.01-.31.04-.36.08-.66.3-.85.61-.4.64-.2,1.49.44,1.89.31.19.68.25,1.03.17.36-.08.66-.3.85-.61h0c.19-.31.25-.68.17-1.03-.08-.36-.3-.66-.61-.85-.22-.14-.47-.21-.72-.21Z"/>
          </g>
        </g>
      </g>
    </g>
  </g>
  <g class="cls-12">
    <g class="cls-5">
      <g class="cls-8">
        <g class="cls-9">
          <g>
            <g>
              <line class="cls-4" x1="1010.46" y1="220.74" x2="1010.46" y2="943.96"/>
              <line class="cls-4" x1="1047.72" y1="220.74" x2="1047.72" y2="943.96"/>
            </g>
            <g>
              <line class="cls-4" x1="1010.85" y1="944.33" x2="2723.88" y2="944.33"/>
              <line class="cls-4" x1="1010.85" y1="909.86" x2="2723.88" y2="909.86"/>
              <line class="cls-4" x1="1010.85" y1="875.38" x2="2723.88" y2="875.38"/>
              <line class="cls-4" x1="1010.85" y1="840.91" x2="2723.88" y2="840.91"/>
              <line class="cls-4" x1="1010.85" y1="806.43" x2="2723.88" y2="806.43"/>
              <line class="cls-4" x1="1010.85" y1="771.96" x2="2723.88" y2="771.96"/>
              <line class="cls-4" x1="1010.85" y1="737.49" x2="2723.88" y2="737.49"/>
              <line class="cls-4" x1="1010.85" y1="703.01" x2="2723.88" y2="703.01"/>
              <line class="cls-4" x1="1010.85" y1="668.54" x2="2723.88" y2="668.54"/>
              <line class="cls-4" x1="1010.85" y1="634.06" x2="2723.88" y2="634.06"/>
              <line class="cls-4" x1="1010.85" y1="599.59" x2="2723.88" y2="599.59"/>
              <line class="cls-4" x1="1010.85" y1="565.11" x2="2723.88" y2="565.11"/>
              <line class="cls-4" x1="1010.85" y1="530.64" x2="2723.88" y2="530.64"/>
              <line class="cls-4" x1="1010.85" y1="496.16" x2="2723.88" y2="496.16"/>
              <line class="cls-4" x1="1010.85" y1="461.69" x2="2723.88" y2="461.69"/>
              <line class="cls-4" x1="1010.85" y1="427.22" x2="2723.88" y2="427.22"/>
              <line class="cls-4" x1="1010.85" y1="392.74" x2="2723.88" y2="392.74"/>
              <line class="cls-4" x1="1010.85" y1="358.27" x2="2723.88" y2="358.27"/>
              <line class="cls-4" x1="1010.85" y1="323.79" x2="2723.88" y2="323.79"/>
              <line class="cls-4" x1="1010.85" y1="289.32" x2="2723.88" y2="289.32"/>
              <line class="cls-4" x1="1010.85" y1="254.84" x2="2723.88" y2="254.84"/>
              <line class="cls-4" x1="1010.85" y1="220.37" x2="2723.88" y2="220.37"/>
            </g>
          </g>
        </g>
      </g>
    </g>
  </g>
  <g class="cls-7">
    <g class="cls-1">
      <g class="cls-8">
        <g class="cls-6">
          <g>
            <g>
              <line class="cls-4" x1="1010.46" y1="-186.22" x2="1010.46" y2="537.01"/>
              <line class="cls-4" x1="1047.72" y1="-186.22" x2="1047.72" y2="537.01"/>
            </g>
            <g>
              <line class="cls-4" x1="1010.85" y1="537.38" x2="2723.88" y2="537.38"/>
              <line class="cls-4" x1="1010.85" y1="502.9" x2="2723.88" y2="502.9"/>
              <line class="cls-4" x1="1010.85" y1="468.43" x2="2723.88" y2="468.43"/>
              <line class="cls-4" x1="1010.85" y1="433.95" x2="2723.88" y2="433.95"/>
              <line class="cls-4" x1="1010.85" y1="399.48" x2="2723.88" y2="399.48"/>
              <line class="cls-4" x1="1010.85" y1="365" x2="2723.88" y2="365"/>
              <line class="cls-4" x1="1010.85" y1="330.53" x2="2723.88" y2="330.53"/>
              <line class="cls-4" x1="1010.85" y1="296.05" x2="2723.88" y2="296.05"/>
              <line class="cls-4" x1="1010.85" y1="261.58" x2="2723.88" y2="261.58"/>
              <line class="cls-4" x1="1010.85" y1="227.11" x2="2723.88" y2="227.11"/>
              <line class="cls-4" x1="1010.85" y1="192.63" x2="2723.88" y2="192.63"/>
              <line class="cls-4" x1="1010.85" y1="158.16" x2="2723.88" y2="158.16"/>
              <line class="cls-4" x1="1010.85" y1="123.68" x2="2723.88" y2="123.68"/>
              <line class="cls-4" x1="1010.85" y1="89.21" x2="2723.88" y2="89.21"/>
              <line class="cls-4" x1="1010.85" y1="54.73" x2="2723.88" y2="54.73"/>
              <line class="cls-4" x1="1010.85" y1="20.26" x2="2723.88" y2="20.26"/>
            </g>
          </g>
        </g>
      </g>
    </g>
  </g>
</svg>