<?xml version="1.0" encoding="UTF-8"?>
<svg id="Capa_1" data-name="Capa 1" xmlns="http://www.w3.org/2000/svg" xmlns:xlink="http://www.w3.org/1999/xlink" viewBox="0 0 1080 1081.25">
  <defs>
    <style>
      .cls-1 {
        fill: #fff;
      }

      .cls-2 {
        fill: #fefeff;
      }

      .cls-3 {
        fill: url(#Degradado_sin_nombre_171);
      }
    </style>
    <linearGradient id="Degradado_sin_nombre_171" data-name="Degradado sin nombre 171" x1="372.31" y1="1329.71" x2="707.69" y2="748.8" gradientTransform="translate(1080 2045) rotate(-180)" gradientUnits="userSpaceOnUse">
      <stop offset="0" stop-color="#e93200"/>
      <stop offset=".15" stop-color="#f22e00"/>
      <stop offset=".15" stop-color="#f32e00"/>
      <stop offset=".39" stop-color="#ff2a00"/>
      <stop offset=".73" stop-color="#5d0700"/>
      <stop offset="1" stop-color="#3f0000"/>
    </linearGradient>
  </defs>
  <path class="cls-2" d="m970.95,951.88c26.65,0,53.31,0,79.96-.02.91,0,1.08.2,1.08,1.08-.03,34.57-.03,69.14,0,103.71,0,1.07-.3,1.21-1.28,1.21-53.18-.03-106.36-.03-159.54,0-.9,0-1.17-.14-1.17-1.11.03-34.57.03-69.14,0-103.71,0-1.06.28-1.18,1.24-1.17,26.57.03,53.14.02,79.71.02Z"/>
  <rect class="cls-3" y="930.25" width="1080" height="151"/>
  <g>
    <path class="cls-1" d="m78.38,992.94l3.23-5.59h-6.46v-4.88h6.46l-3.23-5.59,4.23-2.44,3.23,5.59,3.23-5.59,4.23,2.44-3.23,5.59h6.46v4.88h-6.53l3.3,5.59-4.23,2.44-3.23-5.59-3.23,5.59-4.23-2.44Z"/>
    <path class="cls-1" d="m102.77,975.87h10.04v47.77h-10.04v-47.77Z"/>
    <path class="cls-1" d="m134.4,1023.64v-24.32c0-1.51-.86-2.29-2.44-2.29-1.43,0-2.58.36-3.3.72v25.9h-9.61v-34.93h7.96l.93,2.51c2.37-2.01,5.45-3.23,8.61-3.23,4.88,0,7.46,2.29,7.46,7.6v28.05h-9.61Z"/>
    <path class="cls-1" d="m148.39,1001.12c0-7.96,3.37-13.13,12.12-13.13,3.44,0,6.74.79,8.18,1.51l-1.15,7.68c-1.29-.5-3.16-.86-5.02-.86-3.44,0-4.52,1.72-4.52,4.66v10.4c0,2.94,1.08,4.66,4.52,4.66,1.87,0,3.73-.36,5.02-.86l1.15,7.67c-1.43.72-4.73,1.51-8.18,1.51-8.75,0-12.12-5.17-12.12-13.13v-10.11Z"/>
    <path class="cls-1" d="m172.34,1023.64v-49.21l9.61-1.43v50.64h-9.61Z"/>
    <path class="cls-1" d="m197.09,988.71v24.68c0,1.51.86,2.3,2.44,2.3,1.15,0,2.15-.29,2.94-.72v-26.25h9.61v34.93h-7.96l-.93-2.51c-2.3,2.01-5.24,3.23-8.25,3.23-4.88,0-7.46-2.3-7.46-7.6v-28.05h9.61Z"/>
    <path class="cls-1" d="m232.38,988.71h9.68l-11.12,49.06h-9.04l3.3-14.13h-2.8l-7.46-34.93h9.68l3.73,24.89,4.02-24.89Z"/>
    <path class="cls-1" d="m252.97,1009.87v1.72c0,3.51,1.36,5.02,5.52,5.02,2.8,0,5.74-.72,7.6-1.58l1.36,7.17c-2.65,1.29-6.96,2.15-10.62,2.15-9.04,0-13.49-4.52-13.49-12.62v-11.05c0-8.54,4.45-12.7,12.55-12.7,8.89,0,11.91,4.73,11.91,12.77v9.11h-14.85Zm6.03-10.97c0-2.37-.86-3.37-2.94-3.37-1.94,0-3.08,1-3.08,3.52v3.44h6.03v-3.59Z"/>
    <path class="cls-1" d="m286.32,975.87h10.04v47.77c0,6.89-2.65,10.47-9.04,14.85l-5.74-6.17c3.23-2.65,4.73-4.81,4.73-8.89v-47.56Z"/>
    <path class="cls-1" d="m311.86,988.71v24.68c0,1.51.86,2.3,2.44,2.3,1.15,0,2.15-.29,2.94-.72v-26.25h9.61v34.93h-7.96l-.93-2.51c-2.3,2.01-5.24,3.23-8.25,3.23-4.88,0-7.46-2.3-7.46-7.6v-28.05h9.61Z"/>
    <path class="cls-1" d="m341.19,1009.87v1.72c0,3.51,1.36,5.02,5.52,5.02,2.8,0,5.74-.72,7.6-1.58l1.36,7.17c-2.65,1.29-6.96,2.15-10.62,2.15-9.04,0-13.49-4.52-13.49-12.62v-11.05c0-8.54,4.45-12.7,12.55-12.7,8.89,0,11.91,4.73,11.91,12.77v9.11h-14.85Zm6.03-10.97c0-2.37-.86-3.37-2.94-3.37-1.94,0-3.08,1-3.08,3.52v3.44h6.03v-3.59Z"/>
    <path class="cls-1" d="m383.37,1001.91c0,8.32-4.16,12.27-12.05,12.34-.36.65-.65,1.36-.65,2.01,0,.86.43,1.36,1.43,1.51l4.38.57c5.74.72,8.18,2.94,8.18,9.54,0,7.53-4.66,10.62-13.49,10.62-3.73,0-7.96-.5-11.19-1.72l1.29-7.53c3.3,1.08,6.6,1.51,9.68,1.51,3.44,0,4.66-.65,4.66-2.3,0-1.43-.57-1.86-2.37-2.08l-5.88-.79c-4.09-.57-6.24-2.73-6.24-6.31,0-2.73,1.36-4.66,3.3-6.17-3.87-1.72-5.88-5.38-5.88-11.19v-1.51c.07-7.89,4.3-12.41,12.41-12.41,1.87,0,3.51.29,4.95.72h10.19v5.6l-3.44,1.08c.43,1.36.72,3.16.72,5.02v1.51Zm-9.25-2.44c0-2.87-1.08-4.02-3.16-4.02s-3.16,1.08-3.16,4.02v4.02c0,2.22,1,3.37,3.16,3.37s3.16-1.15,3.16-3.37v-4.02Z"/>
    <path class="cls-1" d="m400.66,1024.36c-8.89,0-13.2-4.81-13.2-12.19v-11.98c0-7.39,4.3-12.19,13.2-12.19s13.2,4.81,13.2,12.19v11.98c0,7.39-4.3,12.19-13.2,12.19Zm3.59-25.39c0-2.01-1.22-3.01-3.59-3.01s-3.59,1-3.59,3.01v14.42c0,2.01,1.22,3.01,3.59,3.01s3.59-1,3.59-3.01v-14.42Z"/>
    <path class="cls-1" d="m431.36,999.18c0-8.25,4.16-11.19,10.62-11.19,1.94,0,4.3.36,5.59.86v-14.42l9.61-1.43v50.64h-7.53l-.93-2.51c-1.94,1.72-4.95,3.23-8.39,3.23-6.38,0-8.97-3.59-8.97-10.26v-14.92Zm16.21-2.44c-.72-.29-1.79-.43-2.94-.43-2.44,0-3.66.93-3.66,3.44v13.7c0,1.72.79,2.73,2.8,2.73,1.65,0,2.87-.43,3.8-.93v-18.51Z"/>
    <path class="cls-1" d="m471.52,1009.87v1.72c0,3.51,1.36,5.02,5.52,5.02,2.8,0,5.74-.72,7.6-1.58l1.36,7.17c-2.65,1.29-6.96,2.15-10.62,2.15-9.04,0-13.49-4.52-13.49-12.62v-11.05c0-8.54,4.45-12.7,12.55-12.7,8.89,0,11.91,4.73,11.91,12.77v9.11h-14.85Zm6.03-10.97c0-2.37-.86-3.37-2.94-3.37-1.94,0-3.08,1-3.08,3.52v3.44h6.03v-3.59Z"/>
    <path class="cls-1" d="m521.8,998.03c-2.87.36-5.31.93-7.67,1.79v23.81h-9.61v-34.93h7.82l1,3.66c2.37-2.15,5.02-3.44,7.96-3.87l.5,9.54Z"/>
    <path class="cls-1" d="m533.07,1009.87v1.72c0,3.51,1.36,5.02,5.52,5.02,2.8,0,5.74-.72,7.6-1.58l1.36,7.17c-2.65,1.29-6.96,2.15-10.62,2.15-9.04,0-13.49-4.52-13.49-12.62v-11.05c0-8.54,4.45-12.7,12.55-12.7,8.89,0,11.91,4.73,11.91,12.77v9.11h-14.85Zm6.03-10.97c0-2.37-.86-3.37-2.94-3.37-1.94,0-3.08,1-3.08,3.52v3.44h6.03v-3.59Z"/>
    <path class="cls-1" d="m575.24,1001.91c0,8.32-4.16,12.27-12.05,12.34-.36.65-.65,1.36-.65,2.01,0,.86.43,1.36,1.43,1.51l4.38.57c5.74.72,8.18,2.94,8.18,9.54,0,7.53-4.66,10.62-13.49,10.62-3.73,0-7.96-.5-11.19-1.72l1.29-7.53c3.3,1.08,6.6,1.51,9.68,1.51,3.44,0,4.66-.65,4.66-2.3,0-1.43-.57-1.86-2.37-2.08l-5.88-.79c-4.09-.57-6.24-2.73-6.24-6.31,0-2.73,1.36-4.66,3.3-6.17-3.87-1.72-5.88-5.38-5.88-11.19v-1.51c.07-7.89,4.3-12.41,12.41-12.41,1.87,0,3.51.29,4.95.72h10.19v5.6l-3.44,1.08c.43,1.36.72,3.16.72,5.02v1.51Zm-9.25-2.44c0-2.87-1.08-4.02-3.16-4.02s-3.16,1.08-3.16,4.02v4.02c0,2.22,1,3.37,3.16,3.37s3.16-1.15,3.16-3.37v-4.02Z"/>
    <path class="cls-1" d="m604.29,1023.64h-7.68l-1.08-2.51c-1.72,1.65-4.66,3.23-8.11,3.23-6.6,0-8.75-4.38-8.75-11.12,0-7.6,2.94-10.47,10.4-10.47h5.59v-3.08c0-2.58-1.29-3.3-4.45-3.3s-5.88.65-8.32,1.65l-1.51-7.75c3.08-1.43,7.53-2.29,12.19-2.29,7.82,0,11.69,2.44,11.69,9.68v25.97Zm-9.61-13.27h-3.73c-2.08,0-2.65.86-2.65,3.08,0,2.37.57,3.37,2.94,3.37,1.43,0,2.73-.36,3.44-.72v-5.74Z"/>
    <path class="cls-1" d="m609.31,1023.64v-49.21l9.61-1.43v50.64h-9.61Z"/>
    <path class="cls-1" d="m636.86,1024.36c-8.89,0-13.2-4.81-13.2-12.19v-11.98c0-7.39,4.3-12.19,13.2-12.19s13.2,4.81,13.2,12.19v11.98c0,7.39-4.3,12.19-13.2,12.19Zm3.59-25.39c0-2.01-1.22-3.01-3.59-3.01s-3.59,1-3.59,3.01v14.42c0,2.01,1.22,3.01,3.59,3.01s3.59-1,3.59-3.01v-14.42Z"/>
    <path class="cls-1" d="m655.15,995.74v-19.87h9.61v19.87l-1.65,12.12h-6.31l-1.65-12.12Zm0,16.71h9.61v11.19h-9.61v-11.19Z"/>
  </g>
  <g>
    <path class="cls-1" d="m924.24,954.81c-.31.12-.63.05-.95.08-.24.02-.47.03-.71.05v.11c.45,0,.9-.02,1.35,0,3.37.14,6.66.78,9.91,1.65,4.37,1.18,8.49,2.97,12.39,5.25,2.81,1.64,5.37,3.63,7.83,5.76,2.07,1.79,3.97,3.75,5.67,5.89,2.18,2.74,4.12,5.64,5.76,8.74,1.04,1.97,1.89,4.02,2.65,6.11.98,2.67,1.66,5.43,2.21,8.21.39,1.96.63,3.94.73,5.93.08,1.72.13,3.44.06,5.16-.05,1.13-.08,2.27-.23,3.4-.04.29.09.29.31.29,2.25,0,4.5,0,6.75,0,.31,0,.36.1.34.38-.03.43-.02.87,0,1.31,0,.24-.05.34-.32.34-3.14-.01-6.29,0-9.43,0-.39,0-.44-.05-.38-.45.08-.51.19-1.01.26-1.52.27-1.98.33-3.98.32-5.97,0-1.8-.1-3.6-.31-5.39-.48-4.08-1.45-8.03-2.95-11.86-1.99-5.08-4.69-9.74-8.24-13.88-1.84-2.15-3.86-4.11-6.02-5.94-1.11-.94-2.27-1.83-3.47-2.65-4.5-3.06-9.34-5.39-14.6-6.79-1.91-.51-3.84-.96-5.81-1.22-2.89-.37-5.8-.58-8.71-.49-1.36.05-2.72.18-4.08.31-3.24.32-6.39,1.06-9.48,2.07-3.06.99-5.97,2.32-8.77,3.9-3.52,1.98-6.73,4.36-9.64,7.16-3.17,3.05-5.93,6.45-8.15,10.25-2.45,4.19-4.33,8.61-5.45,13.34-.24,1.02-.48,2.05-.61,3.1-.06.47-.07.47-.56.47-.57,0-1.15,0-1.72,0-.22,0-.28-.07-.24-.29.66-4.03,1.76-7.93,3.37-11.68.73-1.71,1.52-3.39,2.44-5,1.54-2.68,3.3-5.2,5.24-7.61,2.1-2.59,4.43-4.93,7.03-7,3.7-2.96,7.72-5.42,12.08-7.32,2.88-1.25,5.85-2.21,8.9-2.91,2.34-.54,4.73-.91,7.13-1.07.55-.04,1.11,0,1.67-.05-.41-.15-.86-.02-1.26-.18h7.71Z"/>
    <path class="cls-1" d="m915.5,1056.69c.33-.13.68-.04,1.01-.08.12-.01.25-.01.38-.08-.36-.04-.71-.1-1.07-.1-2.97-.03-5.83-.75-8.69-1.46-3.46-.86-6.75-2.19-9.92-3.79-3.69-1.86-7.09-4.17-10.23-6.85-1.95-1.67-3.77-3.47-5.42-5.42-3.14-3.74-5.82-7.77-7.8-12.25-1.76-3.99-3.01-8.13-3.75-12.43-.66-3.84-.86-7.7-.63-11.58.02-.25.01-.51.06-.75.07-.35-.09-.4-.39-.39-1.02.02-2.04,0-3.06.01-.31,0-.43-.07-.4-.4.03-.4,0-.8,0-1.2,0-.2.06-.29.27-.29,3.22.02,6.45-.03,9.67.02.27,0,.33.1.32.35-.02.34,0,.69,0,1.03,0,.47,0,.48-.46.48-1.03,0-2.07.01-3.1,0-.27,0-.37.05-.4.35-.22,2.67-.22,5.34,0,8.01.26,2.99.72,5.94,1.54,8.82,1.99,7.06,5.31,13.42,10.17,18.94,4.2,4.77,9.09,8.65,14.78,11.51,2.07,1.04,4.21,1.91,6.41,2.64,2.32.76,4.67,1.42,7.08,1.81,3.46.56,6.94.81,10.45.67,3.89-.16,7.7-.79,11.44-1.84,3.84-1.09,7.47-2.7,10.91-4.71,4.34-2.54,8.21-5.64,11.59-9.37,3.74-4.12,6.6-8.8,8.79-13.92,1.15-2.71,2.01-5.5,2.6-8.38.05-.26.15-.33.4-.33.63.02,1.26,0,1.89,0,.21,0,.25.05.21.26-.83,3.78-1.95,7.46-3.55,10.99-2.62,5.77-6.27,10.82-10.74,15.27-3.2,3.18-6.82,5.82-10.75,8.03-4.65,2.62-9.61,4.47-14.86,5.48-2.07.4-4.15.76-6.27.8-.09,0-.17.02-.31.04.22.14.45.03.62.15h-8.81Z"/>
    <path class="cls-1" d="m997,1008.02c-.12.43-.22.86-.35,1.29-.47,1.47-1.3,2.66-2.64,3.49-.62.38-1.32.53-2.03.59-1.89.15-3.78.05-5.68.08-.25,0-.24-.13-.24-.3,0-1.15.01-2.29.01-3.44,0-3.27-.01-6.54-.02-9.81,0-.19.03-.31.25-.31,2.06.04,4.13-.1,6.19.15,1.39.17,2.43.89,3.21,2.02.59.86,1,1.8,1.15,2.84.01.09,0,.2.14.17v3.24Zm-6.86-6.47c-.55,0-1.1.02-1.65,0-.31-.01-.39.09-.38.39.01,1.95,0,3.9,0,5.85,0,1.13,0,2.27,0,3.4,0,.15-.02.3.21.3,1.24,0,2.48.03,3.71-.1.94-.1,1.64-.59,2.13-1.4.58-.96.83-2,.87-3.1.06-1.37-.15-2.68-.87-3.86-.44-.72-1.06-1.22-1.93-1.35-.7-.11-1.4-.03-2.09-.12Z"/>
    <path class="cls-1" d="m848.31,1009.19c.14-.07.28-.08.43-.08.53,0,1.06.05,1.58-.03.13-.02.18,0,.19.15.18,1.56.82,2.3,2.33,2.54.91.15,1.83.1,2.7-.31,1.17-.55,1.65-1.96,1.03-3.01-.28-.48-.75-.75-1.26-.9-.89-.27-1.78-.51-2.67-.77-.94-.27-1.82-.65-2.57-1.32-1.35-1.2-1.35-4.08.46-5.25,1.83-1.19,4.97-1.46,7.03.48.66.62,1.08,1.39,1.33,2.25.06.2.01.28-.2.28-.56,0-1.12-.01-1.69,0-.16,0-.25-.06-.31-.21-.77-2.11-3.17-2.18-4.54-1.52-.68.32-1.02.87-1.02,1.62,0,.71.4,1.17,1.01,1.47.69.34,1.44.52,2.18.71.81.21,1.6.46,2.37.8,2.71,1.22,3.01,4.71.62,6.54-1.24.95-2.69,1.17-4.2,1.08-.57-.03-1.13-.16-1.67-.37-1.67-.63-2.63-1.85-2.98-3.57-.03-.15-.02-.32-.16-.43v-.14Z"/>
    <path class="cls-1" d="m900.8,1006.54c0-2.2,0-4.4,0-6.61,0-.24.08-.3.3-.3,2.22.03,4.45-.06,6.67.07,1.67.09,2.99,1.3,3.32,3.02.16.82.17,1.64-.15,2.43-.54,1.34-1.57,2.08-2.96,2.33-.29.05-.24.15-.11.33,1.28,1.75,2.55,3.5,3.82,5.25.06.09.2.17.15.29-.06.13-.2.04-.31.04-.6,0-1.19,0-1.79,0-.22,0-.36-.07-.49-.25-1.24-1.75-2.49-3.49-3.73-5.24-.12-.17-.24-.24-.45-.24-.65.01-1.31,0-1.96,0-.19,0-.28.01-.28.25.02,1.73,0,3.46.02,5.19,0,.27-.08.36-.35.34-.46-.02-.92-.02-1.38,0-.29.02-.34-.1-.34-.35,0-2.19,0-4.38,0-6.57Zm4.23-5.06c-.63,0-1.26,0-1.89,0-.17,0-.28.02-.28.24,0,1.26,0,2.52-.02,3.79,0,.17.05.25.23.25,1.39-.02,2.78.05,4.16-.07,1.26-.11,1.86-.7,1.9-1.96.04-1.08-.46-2.07-1.87-2.19-.74-.06-1.49-.06-2.23-.05Z"/>
    <path class="cls-1" d="m950.19,1006.51c0-2.17,0-4.34,0-6.5,0-.3.07-.39.38-.39,2.84,0,5.69,0,8.53-.01.29,0,.41.08.39.39-.03.42-.01.85,0,1.27,0,.21-.06.3-.3.3-2.19-.01-4.38,0-6.57-.01-.28,0-.37.08-.37.36.01,1.07,0,2.13,0,3.2,0,.24.11.25.29.25,1.94,0,3.88,0,5.82,0,.45,0,.45,0,.44.47,0,.38-.01.76.01,1.14.02.28-.08.38-.37.37-1.93-.01-3.85,0-5.78-.01-.32,0-.41.08-.4.4.02,1.12.02,2.25,0,3.37,0,.28.06.37.35.37,2.23-.01,4.45-.01,6.68,0,.8,0,.67-.08.68.67,0,.33,0,.67,0,1,0,.2-.07.28-.28.28-3.09,0-6.17-.01-9.26,0-.3,0-.23-.19-.23-.34,0-2.18,0-4.36,0-6.54Z"/>
    <path class="cls-1" d="m920.45,1006.52c0-2.18,0-4.36,0-6.54,0-.25.04-.37.33-.37,2.88,0,5.76,0,8.63,0,.31,0,.43.08.4.41-.03.38-.03.76,0,1.13.02.28-.09.34-.35.34-2.04-.01-4.08-.01-6.12-.01q-.84,0-.84.84c0,.83,0,1.65-.03,2.48,0,.22.05.29.29.29,1.98-.01,3.97,0,5.95-.02.27,0,.34.09.33.34-.01.4-.02.8,0,1.2.02.28-.06.38-.36.37-1.94-.01-3.88,0-5.81-.01-.28,0-.38.05-.38.37.02,1.87.01,3.74.01,5.61,0,.45,0,.45-.45.45-.4,0-.81-.03-1.2,0-.35.03-.38-.12-.38-.41,0-2.16,0-4.31,0-6.47Z"/>
    <path class="cls-1" d="m886.79,1002.56c-.25.66-.49,1.23-.69,1.81-.63,1.83-1.38,3.61-2.08,5.41-.43,1.1-.84,2.2-1.25,3.31-.08.22-.19.3-.43.3-.53-.01-1.06-.02-1.58,0-.3.01-.36-.06-.24-.34.61-1.48,1.21-2.97,1.82-4.45,1.19-2.9,2.4-5.79,3.58-8.69.09-.23.21-.33.45-.31.25.01.51.02.76,0,.33-.03.5.07.64.43.62,1.65,1.29,3.28,1.95,4.91,1.08,2.7,2.16,5.4,3.24,8.09.14.34.12.36-.26.35-.48,0-.96-.02-1.44,0-.26.01-.39-.08-.48-.32-.73-1.9-1.47-3.8-2.19-5.7-.58-1.52-1.13-3.05-1.69-4.57-.02-.05-.05-.1-.11-.23Z"/>
    <path class="cls-1" d="m938.17,1006.47c0-2.19,0-4.38,0-6.57,0-.2.04-.3.26-.3.53,0,1.05.01,1.58.01.21,0,.27.09.27.29,0,4.39,0,8.78,0,13.17,0,.26-.08.34-.34.32-.49-.02-.99,0-1.48,0-.2,0-.29-.03-.28-.26,0-2.22,0-4.45,0-6.67h0Z"/>
  </g>
</svg>