<svg id="a" xmlns="http://www.w3.org/2000/svg" viewBox="0 0 459 452.9"><defs><style>.b{fill:#fff}</style></defs><path d="M123 354.3c-.7-.6-1.4-.3-2-.2-4.4.5-8.8 1-13.2 1.3l-52.1 3.5c-6 .5-11.8 1.1-16.7 5.1l-10.5 8.8C21 379 13.9 385.4 6.3 391.3c-4.1 3.2-6 7-5.3 12 .7 5.6.7 11.2 2.4 16.6a9.4 9.4 0 0 0 4.5 5.7l19.4 11.5c7 4.2 13.8 8.5 20.9 12.6 4.7 2.7 10 3 15.4 2.7l34.4-2.2 46-3.1c5.6-.4 11.2-.3 16.5-2.2 8.3-3 13.4-8.6 14.7-17.5.9-5.7-.3-11.3-.9-16.9-.8-7.9-1.6-15.7-2.6-23.6-.3-1.8.1-3.4 1.3-4.7 1.3-1.4 1.8-3 1.9-4.9 0-.5.3-1.2-.3-1.5-.7-.4-1 .4-1.4.7-1.5 1-3 2.4-5.1 2.5-1.7.1-2-.9-2-2.1.1-1 .7-1.5 1.3-2 1.4-1.3 3.2-2 4.9-2.9a9 9 0 0 0 5-6.4c1.2-5.7-.3-10.9-3.3-15.6a33.5 33.5 0 0 1-5.2-18.2c0-.4.3-.9-.3-1.1-.5-.2-.8.2-1.1.4-1.6 1-1.6 2.8-2 4.4-1 4.2-.2 8.5-.5 12.8-.3 3.2-.2 6.5-2.5 9.2-1.4 1.6-3 2.7-4.9 3.7-3 1.8-6.2 3-9.9 2.9-2.1-.2-3.8-1.2-4.4-3.2-1.1-3.4-.4-6.6 1.7-9.6 1.2-1.7 3-3 4.7-5-5 .4-8.9 2.3-12.2 5.4-2.6 2.4-3.4 5.8-5.1 8.6-1.9 3-4 5.9-7 8-2 1.4-4.5 1.3-5.8-.4a7 7 0 0 1-1.1-6.9c1-2.6 2.5-4.8 4.7-6.7Z" style="fill:#fdfcfd"/><path d="M123 354.3c-2.2 1.9-3.7 4.1-4.7 6.7a7 7 0 0 0 1.2 7c1.2 1.6 3.7 1.7 5.8.2 3-2 5-4.8 7-7.9 1.6-2.9 2.5-6.2 5-8.6 3.4-3.1 7.2-5 12.2-5.5-1.6 2.1-3.4 3.3-4.7 5.1-2 3-2.7 6.2-1.7 9.6.6 2 2.3 3 4.5 3.2 3.6.2 6.8-1.1 9.9-2.9 1.8-1 3.5-2.1 4.9-3.8 2.2-2.6 2.1-6 2.4-9.1.4-4.3-.4-8.6.6-12.8.3-1.6.3-3.4 2-4.4.3-.2.6-.6 1-.4.6.2.3.7.3 1.1 0 6.6 1.7 12.6 5.3 18.1 3 4.8 4.5 10 3.2 15.7a9 9 0 0 1-5 6.4c-1.7.8-3.4 1.6-4.8 2.9-.6.5-1.2 1-1.3 2 0 1.2.3 2.2 2 2.1 2 0 3.5-1.4 5-2.6.5-.3.8-1 1.4-.6.6.3.3 1 .3 1.5 0 1.8-.5 3.4-1.8 4.8a5.6 5.6 0 0 0-1.4 4.8l2.7 23.6c.6 5.6 1.8 11.2.9 17-1.4 8.8-6.5 14.3-14.7 17.4-5.3 2-11 1.8-16.5 2.2l-46 3-34.4 2.3c-5.4.3-10.7 0-15.5-2.7-7-4.1-13.9-8.4-20.9-12.6L8 425.6a9.4 9.4 0 0 1-4.5-5.7c-1.7-5.4-1.7-11-2.5-16.6-.6-5 1.3-8.8 5.4-12 7.5-5.9 14.8-12.3 22.1-18.5L39 364c4.8-4 10.7-4.6 16.6-5l52.1-3.6c4.5-.3 9-.8 13.3-1.3.6 0 1.2-.4 2 .2ZM13.5 412.5c2.7 0 4.8-2 4.8-4.7.1-2.8-1.9-5-4.6-5-2.7 0-4.8 2-4.9 4.7a5 5 0 0 0 4.7 5Z" style="fill:#570ba1"/><path d="M13.4 412.5a4.9 4.9 0 0 1-4.7-5c0-2.7 2.2-4.7 4.9-4.7s4.7 2.2 4.6 5c0 2.7-2.1 4.7-4.8 4.7Z" style="fill:#f9f7fb"/><g><path class="b" d="m49.5 398.8 11.2-14.1 7.3-.7-3 24.8-7.3.6 1.5-13-10.5 13h-1L40 398.2l-1.6 13-7.4.7 3-24.8 7.3-.7 8.1 12.4ZM97.2 400.3l-.7 5.6-19.1 1.7c-3 .3-5.2 0-6.4-1.1-1.3-1-1.7-2.8-1.4-5.2l1.2-10.5c.3-2.4 1.2-4.3 2.7-5.6s3.8-2 6.8-2.3l19.2-1.8-.7 5.7-16.2 1.4c-1 .1-1.7.3-2.2.5s-1 .5-1.4.8c-.3.3-.5.8-.7 1.3l-.4 1.6 20.5-1.8-.7 5.6-20.4 1.9v.2c-.1.7-.2 1.2-.1 1.7 0 .4.2.8.5 1.1.2.3.6.5 1.1.6H81l16.2-1.4ZM129.7 389.3l-1.6 13.8-19.2 1.7c-3 .3-5.2-.1-6.4-1.2-1.2-1-1.7-2.7-1.4-5.2l1.3-10.5a8.4 8.4 0 0 1 2.7-5.5 12 12 0 0 1 6.8-2.4l19.1-1.7-.6 5.6-16.3 1.5c-.9 0-1.6.2-2.2.4l-1.3.8-.8 1.3-.3 1.7-.7 5.9c-.1.6-.1 1.2 0 1.6 0 .5.2.9.4 1.1.3.3.7.5 1.2.6.5.1 1.2.2 2.1 0l8.9-.7 1-8.1 7.3-.7ZM159.7 400.2l-7.4.7 1.1-9.7-13 1.2-1.2 9.7-7.4.6 2.1-17.6a8.4 8.4 0 0 1 2.7-5.6 12 12 0 0 1 6.8-2.3l10.6-1c3-.3 5.1.1 6.4 1.2 1.2 1 1.7 2.7 1.4 5.2l-2.2 17.6Zm-5.6-14.7c0-.6.1-1.2 0-1.6a2 2 0 0 0-.4-1.2c-.3-.3-.7-.4-1.2-.6h-2.1l-4.7.4c-1 .1-1.6.3-2.2.5-.6.2-1 .4-1.3.8-.4.3-.6.7-.8 1.2l-.4 1.7 13.1-1.2Z"/><g><path class="b" d="M46 427.6a5 5 0 0 1-1.7 3.4 7 7 0 0 1-4 1.4l-6.3.5c-1.9.2-3.1 0-3.9-.7-.7-.6-1-1.6-.8-3l.8-6.4a5 5 0 0 1 1.6-3.3 7 7 0 0 1 4-1.4l6.3-.5c1.8-.2 3.1 0 3.8.6.8.7 1 1.7.9 3.2l-.8 6.2Zm-9-6.3-1.2.3c-.4.1-.6.3-.8.5l-.5.7-.2 1-.4 3.6v1c0 .2.1.5.3.6.1.2.4.3.7.4H36l2.8-.2c.5 0 1-.2 1.3-.3l.8-.5.5-.7.2-1 .4-3.6v-1c0-.2-.1-.5-.3-.6-.1-.2-.4-.3-.7-.4H40l-2.8.2ZM52.8 425.5l-.7 5.8-4.4.4 1.2-10.5a5 5 0 0 1 1.6-3.4 7 7 0 0 1 4-1.4l11.5-1-.4 3.4-9.7.8a5 5 0 0 0-1.3.3l-.8.5-.4.7-.3 1 12.3-1-.4 3.3-12.2 1.1ZM83.5 425.1l-.4 3.4-11.4 1c-1.9.2-3.1 0-3.9-.7-.7-.6-1-1.6-.8-3l.8-6.4a5 5 0 0 1 1.6-3.3 7 7 0 0 1 4-1.4l11.5-1-.4 3.4-9.7.8a5 5 0 0 0-1.3.3 1.9 1.9 0 0 0-1.3 1.2l-.2 1 12.2-1-.4 3.3-12.2 1.1v1.2c0 .2.1.5.3.6l.7.4h1.2l9.7-.9ZM102.2 426.8l-5 .4-4.2-4.7-2.6.3-.6 5-4.4.5 1.7-14.8 11.5-1c1.8-.2 3 0 3.8.6.7.6 1 1.7.8 3.1l-.1 1.2a5.2 5.2 0 0 1-1.4 3.2c-.8.7-2 1.2-3.6 1.4l4 4.7Zm-11-10.4-.4 3 5.6-.5 1-.2c.4 0 .6-.2.8-.3l.4-.5.2-.7v-.8l-.3-.4-.6-.1h-1.2l-5.6.5ZM122 413.6l-6 .6-1.4 11.4-4.4.4 1.4-11.4-6.1.5.4-3.3 16.5-1.5-.4 3.3ZM139.5 423.4l-4.4.4.7-5.8-7.8.7-.7 5.8-4.4.4 1.2-10.6a5 5 0 0 1 1.6-3.3 7 7 0 0 1 4-1.4l6.4-.6c1.8-.1 3 .1 3.8.7.7.7 1 1.7.8 3.1l-1.2 10.6Zm-3.3-8.8v-1c0-.3-.1-.5-.3-.7l-.7-.3h-1.3l-2.8.2c-.5 0-1 .1-1.3.3-.3 0-.6.3-.8.5l-.4.7-.2 1 7.8-.7ZM157.4 421c-.6.6-1.4.9-2.4 1l-13.3 1.2.4-3.4 10.6-1c.3 0 .5-.1.5-.3l-.1-.3-.2-.1-8.5-3.5c-.4-.3-.8-.7-1-1.3a3.5 3.5 0 0 1-.2-2.2c.3-.8.8-1.5 1.5-2 .6-.7 1.4-1 2.4-1l13.2-1.3-.4 3.4-10.5 1c-.3 0-.5.1-.6.4l.2.2.2.1 8.4 3.6.4.2a3.6 3.6 0 0 1 .9 1.6v1.6c-.4.9-.9 1.6-1.5 2.1Z"/></g></g></svg>