<svg xmlns="http://www.w3.org/2000/svg" viewBox="0 0 1080 1080"><g data-name="Capa 2"><path fill="#00ff0c" stroke="#fff" stroke-miterlimit="10" stroke-width=".3" d="m113 950-8.8 18.6A21 21 0 0 1 96 978q-5.3 3-13.9 3H62q-8.6 0-11-3t.6-9.5l8.7-18.6a20.8 20.8 0 0 1 8.3-9.5 28 28 0 0 1 13.9-3.1h20q8.6 0 11 3t-.6 9.6Zm-20.7-2.6h-8.9a19.1 19.1 0 0 0-4.3.4 9 9 0 0 0-3 1.2 8.6 8.6 0 0 0-2.1 2.1 19.4 19.4 0 0 0-1.7 3l-4.9 10.4a14.7 14.7 0 0 0-1 3 3 3 0 0 0 .1 2 2.9 2.9 0 0 0 1.8 1.3 13.8 13.8 0 0 0 4 .4H81a18.7 18.7 0 0 0 4.2-.4 9 9 0 0 0 3-1.2 8.5 8.5 0 0 0 2.2-2.1 18.2 18.2 0 0 0 1.7-3L97 954a14.2 14.2 0 0 0 1-3 3 3 0 0 0 0-2.1 2.9 2.9 0 0 0-1.8-1.3 14.4 14.4 0 0 0-4-.4Zm27 33.7h-14L120 950a20.8 20.8 0 0 1 8.3-9.5q5.3-3.1 14-3.1h36.2l-4.7 10h-30.7a19.1 19.1 0 0 0-4.3.4 9 9 0 0 0-3 1.3 8.4 8.4 0 0 0-2.2 2 19.4 19.4 0 0 0-1.6 3h38.6l-4.6 10h-38.7Zm98.4 0h-36.3q-8.7 0-11-3t.6-9.6l8.6-18.5a20.8 20.8 0 0 1 8.3-9.5q5.3-3.1 14-3.1H238l-4.6 10h-30.8a19 19 0 0 0-4.2.4 9 9 0 0 0-3 1.3 8.4 8.4 0 0 0-2.2 2 18.6 18.6 0 0 0-1.7 3h38.7l-4.7 10H187l-.2.5a14.7 14.7 0 0 0-1 3 3 3 0 0 0 .1 2 2.8 2.8 0 0 0 1.8 1.3 13.8 13.8 0 0 0 4 .4h30.7ZM270 966l8 15.1h-15.6l-8.3-15h-8.4l-7 15h-14l20.5-43.7h36.3q8.6 0 11 3t-.6 9.6l-1.6 3.4a21.5 21.5 0 0 1-7.6 9.2q-4.7 3-12.6 3.4Zm2.2-18.6h-17.7l-4 8.6h17.7a14.9 14.9 0 0 0 6-.9 6.7 6.7 0 0 0 3-3.4 10.4 10.4 0 0 0 .8-2.3 1.3 1.3 0 0 0-.4-1.3 3.6 3.6 0 0 0-1.9-.6 32.9 32.9 0 0 0-3.5-.2Zm61-.1-15.8 33.9h-14l15.8-33.9H300l4.7-10H357l-4.7 10Zm46 33.8 2.5-14.3H360l-10.7 14.3H335l23-31.2a42.5 42.5 0 0 1 3.4-3.9 43 43 0 0 1 4.6-4 33.6 33.6 0 0 1 5.1-3.3 10.7 10.7 0 0 1 4.7-1.3h17.6a5.4 5.4 0 0 1 3.6 1.1 7.2 7.2 0 0 1 2 3 13 13 0 0 1 .9 4 20 20 0 0 1-.3 4.4l-6 31.2Zm4.4-24.3c.7-3.4.8-5.9.5-7.3a2.8 2.8 0 0 0-3-2.2h-2.2a7 7 0 0 0-2.6.5 9 9 0 0 0-2.5 1.6 28.6 28.6 0 0 0-2.8 3q-1.6 1.7-3.7 4.5Zm73.3 16.2a22.6 22.6 0 0 1-6.7 6 16.4 16.4 0 0 1-8.4 2.2h-42l4.6-10h33.4a2 2 0 0 0 2-1c.2-.5.2-.7 0-.9a5.5 5.5 0 0 0-.6-.4L417 956.2a6.3 6.3 0 0 1-2-4 9.7 9.7 0 0 1 1-5.6 5.6 5.6 0 0 1 .7-1.2 23 23 0 0 1 6.6-5.8 16.5 16.5 0 0 1 8.4-2.2h42l-4.7 10h-33.4a2.8 2.8 0 0 0-1.2.3 1.6 1.6 0 0 0-.8.6v.1a.8.8 0 0 0 .2.7 1.9 1.9 0 0 0 .5.4l22.3 12.9a3.8 3.8 0 0 1 .8 1 7.5 7.5 0 0 1 1 2 9 9 0 0 1 .2 2.9 9.5 9.5 0 0 1-1 3.5 6.2 6.2 0 0 1-.6 1.3Z"/><path fill="red" d="m55.8 1012.7-17 36.1H20.4l19.4-41.5a27.7 27.7 0 0 1 11-12.7q7-4.1 18.6-4.1H96q11.5 0 14.7 4t-.8 12.8l-19.5 41.5H71.8l17-36.1a19.3 19.3 0 0 0 1.3-4 4 4 0 0 0-.2-2.8 3.8 3.8 0 0 0-2.4-1.6 18.5 18.5 0 0 0-5.2-.6H70.5a24.8 24.8 0 0 0-5.7.6 11.7 11.7 0 0 0-4 1.7 11.1 11.1 0 0 0-2.8 2.8 24.3 24.3 0 0 0-2.2 3.9Zm102 36.1 3.5-19.1H132l-14.2 19.1h-19l30.6-41.6a55.8 55.8 0 0 1 4.6-5.2 56.5 56.5 0 0 1 6.2-5.5 45.5 45.5 0 0 1 6.8-4.3 14.2 14.2 0 0 1 6.4-1.8h23.3a7.3 7.3 0 0 1 4.8 1.6 9.7 9.7 0 0 1 2.8 4 17 17 0 0 1 1 5.4 26.3 26.3 0 0 1-.3 5.7l-8 41.7Zm6-32.4q1.3-7 .6-9.8c-.5-2-1.9-2.9-4-2.9h-3a9.2 9.2 0 0 0-3.4.7 12 12 0 0 0-3.4 2.1 38.2 38.2 0 0 0-3.7 3.9l-5 6Zm52.8-6.7a84.6 84.6 0 0 0-1.5 8.8 78.6 78.6 0 0 0-.5 8.3 26.8 26.8 0 0 0 .6 6.2c.3 1.6 1 2.4 1.8 2.4h1a7 7 0 0 0 3.7-1.7 49 49 0 0 0 6.5-6.6q4.3-5 11.2-13.8t17.4-22.9H276l-31 41.7a40.2 40.2 0 0 1-4.7 5.2 70.5 70.5 0 0 1-6.5 5.4 44.6 44.6 0 0 1-7.1 4.3 15.2 15.2 0 0 1-6.5 1.8h-17.3a7.5 7.5 0 0 1-4.8-1.6 11 11 0 0 1-3.1-4 15.2 15.2 0 0 1-1.4-5.3 22.8 22.8 0 0 1 .2-5.8l7.4-41.7h19.3Zm59 39.1h-18.7l27.3-58.4h18.7Zm98.8-41.5L363 1032a27.7 27.7 0 0 1-11 12.7q-7.1 4.1-18.6 4.1H285l27.3-58.4h48.3q11.5 0 14.7 4.2t-.8 12.6Zm-27.5-3.6h-22.4l-14.8 31.8H332a25 25 0 0 0 5.6-.5 11.9 11.9 0 0 0 4-1.7 11.4 11.4 0 0 0 2.8-2.8 24.2 24.2 0 0 0 2.3-4l6.5-13.8a19.3 19.3 0 0 0 1.4-4 4 4 0 0 0-.2-2.8 3.8 3.8 0 0 0-2.5-1.6 18.5 18.5 0 0 0-5-.6Zm87.6 45.1h-48.3q-11.5 0-14.7-4.1t.8-12.7l11.5-24.8a27.7 27.7 0 0 1 11-12.6q7-4.1 18.6-4.1h48.4l-6.2 13.2h-41a24.8 24.8 0 0 0-5.7.6 11.7 11.7 0 0 0-3.9 1.7 11.1 11.1 0 0 0-2.8 2.8 24.3 24.3 0 0 0-2.3 4h51.5l-6.2 13.3h-51.6l-.2.5a18.9 18.9 0 0 0-1.4 4 4 4 0 0 0 .2 2.8 3.8 3.8 0 0 0 2.4 1.6 18.5 18.5 0 0 0 5.2.6h41Zm44.9-36.1-16.9 36.1H444l19.5-41.5a27.8 27.8 0 0 1 11-12.7q7-4.1 18.6-4.1h26.6q11.5 0 14.7 4t-.8 12.8l-19.4 41.5h-18.6l16.9-36.1a20.6 20.6 0 0 0 1.4-4 4 4 0 0 0-.2-2.8 3.8 3.8 0 0 0-2.5-1.6 18.7 18.7 0 0 0-5.1-.6h-11.8a24.9 24.9 0 0 0-5.7.6 11.6 11.6 0 0 0-4 1.7 11 11 0 0 0-2.8 2.8 24.3 24.3 0 0 0-2.3 3.9Zm41.5-26h-12l-3.3-6.6-9 6.5h-13.7l19.1-13.3h12l3.3 6.6 9-6.5H540Zm60.6 62.1 3.4-19.1h-29.1l-14.3 19.1h-19l30.6-41.6a55.8 55.8 0 0 1 4.5-5.2 56.7 56.7 0 0 1 6.2-5.5 45 45 0 0 1 6.8-4.3 14.1 14.1 0 0 1 6.3-1.8h23.4a7.3 7.3 0 0 1 4.8 1.6 9.6 9.6 0 0 1 2.8 4 17 17 0 0 1 1 5.4 27 27 0 0 1-.3 5.8l-8 41.6Zm6-32.4q1.3-7 .5-9.8t-4-2.9h-3a9.3 9.3 0 0 0-3.5.7 11.7 11.7 0 0 0-3.3 2.1 37.1 37.1 0 0 0-3.8 3.9l-5 6ZM685 1038a30.2 30.2 0 0 1-8.9 7.8 21.9 21.9 0 0 1-11.1 3h-56l6.1-13.3h44.5a2.6 2.6 0 0 0 2.6-1.3c.3-.5.3-.9 0-1.1a7.4 7.4 0 0 0-.7-.5l-29.8-17a8.4 8.4 0 0 1-2.6-5.4 13 13 0 0 1 1.3-7.4 8 8 0 0 1 .9-1.6 30.4 30.4 0 0 1 8.9-7.8 21.9 21.9 0 0 1 11.1-3h56l-6.2 13.3h-44.5a3.8 3.8 0 0 0-1.7.4 2.2 2.2 0 0 0-1 1 1.3 1.3 0 0 0 .2 1 2.9 2.9 0 0 0 .7.6l29.8 17a5 5 0 0 1 1 1.3 9.7 9.7 0 0 1 1.2 2.7 11.8 11.8 0 0 1 .4 4 12.8 12.8 0 0 1-1.3 4.7 8.3 8.3 0 0 1-.9 1.6Z"/></g></svg>