<?xml version="1.0" encoding="utf-8"?>
<!-- Generator: Adobe Illustrator 27.8.1, SVG Export Plug-In . SVG Version: 6.00 Build 0)  -->
<svg version="1.1" id="Capa_1" xmlns="http://www.w3.org/2000/svg" xmlns:xlink="http://www.w3.org/1999/xlink" x="0px" y="0px"
	 viewBox="0 0 1080 1080" style="enable-background:new 0 0 1080 1080;" xml:space="preserve">
<style type="text/css">
	.st0{fill:#14A52E;stroke:#14A52E;stroke-miterlimit:10;}
	.st1{fill:none;stroke:#5B2197;stroke-width:2;stroke-miterlimit:10;}
	.st2{fill:#1A1A1A;}
	.st3{fill:#FFFFFF;}
</style>
<g>
	<path class="st0" d="M450.7,907.2l-160.6,0.1c-2.5,0-4.9-1.7-6.4-4.5l-2.3-4.4c-1.4-2.6-3.5-4.1-5.8-4.1l-204.7,0.3
		c-2,0-3.7,2.3-3.7,5.1l0,67.6c0,1.7,0.6,3.3,1.6,4.2l7.3,6.7c1.4,1.3,1.4,4.2,0,5.5l-5.7,5.2c-2,1.9-3.2,5-3.2,8.4l0,22.3
		c0,3.7,2.2,6.7,4.8,6.7l344-0.3c1.7,0,3.4-0.9,4.7-2.4l34.7-41.2c1.6-1.9,2.5-4.7,2.5-7.7l0-57.4
		C458,911.7,454.7,907.2,450.7,907.2z"/>
	<path class="st1" d="M445.9,902.4l-160.6,0.1c-2.5,0-4.9-1.7-6.4-4.5l-2.3-4.4c-1.4-2.6-3.5-4.1-5.8-4.1l-204.7,0.3
		c-2,0-3.7,2.3-3.7,5.1l0,67.6c0,1.7,0.6,3.3,1.6,4.2l7.3,6.7c1.4,1.3,1.4,4.2,0,5.5l-5.7,5.2c-2,1.9-3.2,5-3.2,8.4l0,22.3
		c0,3.7,2.2,6.7,4.8,6.7l344-0.3c1.7,0,3.4-0.9,4.7-2.4l34.7-41.2c1.6-1.9,2.5-4.7,2.5-7.7l0-57.4
		C453.2,906.9,449.9,902.4,445.9,902.4z"/>
	<g>
		<g>
			<path class="st2" d="M303.4,884.8h3l-3.7,5.3l3.8,5.6h-3l-2.5-3.6l-2.5,3.6h-3l3.8-5.6l-3.6-5.3h3l2.4,3.4L303.4,884.8z"/>
			<path class="st2" d="M320.8,884.8h3l-3.7,5.3l3.8,5.6h-3l-2.5-3.6l-2.5,3.6h-3l3.8-5.6l-3.6-5.3h3l2.4,3.4L320.8,884.8z"/>
			<path class="st2" d="M338.2,884.8h3l-3.7,5.3l3.8,5.6h-3l-2.5-3.6l-2.5,3.6h-3l3.8-5.6l-3.6-5.3h3l2.4,3.4L338.2,884.8z"/>
			<path class="st2" d="M355.6,884.8h3l-3.7,5.3l3.8,5.6h-3l-2.5-3.6l-2.5,3.6h-3l3.8-5.6l-3.6-5.3h3l2.4,3.4L355.6,884.8z"/>
			<path class="st2" d="M373,884.8h3l-3.7,5.3l3.8,5.6h-3l-2.5-3.6l-2.5,3.6h-3l3.8-5.6l-3.6-5.3h3l2.4,3.4L373,884.8z"/>
			<path class="st2" d="M390.4,884.8h3l-3.7,5.3l3.8,5.6h-3l-2.5-3.6l-2.5,3.6h-3l3.8-5.6l-3.6-5.3h3l2.4,3.4L390.4,884.8z"/>
			<path class="st2" d="M407.8,884.8h3l-3.7,5.3l3.8,5.6h-3l-2.5-3.6l-2.5,3.6h-3l3.8-5.6l-3.6-5.3h3l2.4,3.4L407.8,884.8z"/>
			<path class="st2" d="M425.2,884.8h3l-3.7,5.3l3.8,5.6h-3l-2.5-3.6l-2.5,3.6h-3l3.8-5.6l-3.6-5.3h3l2.4,3.4L425.2,884.8z"/>
			<path class="st2" d="M442.6,884.8h3l-3.7,5.3l3.8,5.6h-3l-2.5-3.6l-2.5,3.6h-3l3.8-5.6l-3.6-5.3h3l2.4,3.4L442.6,884.8z"/>
		</g>
	</g>
	<g>
		<path class="st3" d="M230.2,968.1c-0.3,1.5-0.7,2.9-1.3,4.1c-0.6,1.3-1.3,2.4-2.2,3.5s-1.9,1.9-3,2.6c-1,0.6-2.1,1.1-3.4,1.4
			c-1.2,0.3-2.5,0.5-3.9,0.5c-1.5,0-2.9-0.2-4.1-0.6c-1.3-0.4-2.4-0.9-3.4-1.6c-1-0.7-1.9-1.6-2.7-2.7c-0.8-1-1.5-2.2-2-3.5
			c-0.5-1.2-0.9-2.5-1.1-3.9c-0.3-1.4-0.4-2.9-0.4-4.5l0-5.6c0-1.7,0.1-3.3,0.4-4.8c0.3-1.5,0.7-2.9,1.3-4.2c0.5-1.2,1.2-2.3,2-3.3
			c0.8-1,1.7-1.8,2.7-2.5c1-0.7,2.1-1.2,3.4-1.6c1.2-0.4,2.6-0.6,4.1-0.6c1.5,0,2.9,0.2,4.1,0.6c1.3,0.4,2.5,0.9,3.5,1.6
			c1,0.7,1.9,1.5,2.7,2.4c0.8,0.9,1.5,2,2,3.1c0.6,1.3,1.1,2.7,1.4,4.3c0.3,1.5,0.5,3.2,0.5,4.9l0,5.6
			C230.6,965,230.5,966.6,230.2,968.1z M223,954.9c-0.1-0.9-0.3-1.7-0.5-2.5c-0.3-0.9-0.6-1.8-1.1-2.5c-0.4-0.7-1-1.4-1.6-1.8
			c-0.5-0.4-1-0.6-1.6-0.8c-0.6-0.2-1.2-0.3-2-0.3c-0.7,0-1.3,0.1-1.9,0.3c-0.6,0.2-1,0.4-1.5,0.8c-0.6,0.5-1.1,1.1-1.5,1.8
			c-0.4,0.7-0.7,1.6-1,2.6c-0.2,0.8-0.3,1.6-0.4,2.5s-0.1,1.8-0.1,2.8l0,5.6c0,0.9,0,1.8,0.1,2.7c0.1,0.9,0.2,1.7,0.4,2.4
			c0.2,0.9,0.5,1.8,0.9,2.5c0.4,0.8,0.8,1.4,1.3,1.9c0.5,0.4,1,0.7,1.6,1c0.6,0.2,1.3,0.3,2.1,0.3c0.7,0,1.4-0.1,2-0.3
			c0.6-0.2,1.2-0.5,1.6-0.9c0.6-0.5,1.1-1.1,1.5-1.9c0.4-0.7,0.7-1.6,1-2.5c0.2-0.7,0.3-1.5,0.4-2.4c0.1-0.9,0.1-1.8,0.1-2.7l0-5.6
			C223.1,956.8,223.1,955.8,223,954.9z"/>
		<path class="st3" d="M243.6,956.6l-7.5,0l0-5.4l7.5,0l0-1.6c0-1.9,0.3-3.5,0.9-5c0.6-1.4,1.4-2.6,2.6-3.6c1.1-1,2.4-1.7,4-2.2
			c1.6-0.5,3.3-0.8,5.3-0.8c0.6,0,1.2,0,1.8,0.1c0.6,0,1.1,0.1,1.7,0.2c0.5,0.1,1.1,0.1,1.6,0.2c0.6,0.1,1.1,0.2,1.7,0.3l-0.5,5.7
			c-0.7-0.1-1.4-0.3-2.3-0.4s-1.8-0.2-3-0.2c-1.2,0-2.3,0.1-3.1,0.4c-0.9,0.3-1.5,0.7-2.1,1.2c-0.5,0.5-0.8,1-1,1.7
			c-0.2,0.7-0.3,1.4-0.3,2.3l0,1.6l10.3,0l0,5.4l-10.3,0l0,23.1l-7.3,0L243.6,956.6z"/>
		<path class="st3" d="M276.7,979.1c-1.8-0.7-3.3-1.7-4.6-2.9c-1.3-1.2-2.3-2.7-3-4.4c-0.7-1.7-1-3.5-1-5.4l0-1.1c0-2.2,0.3-4.2,1-6
			c0.7-1.8,1.6-3.3,2.9-4.6s2.7-2.3,4.4-3c1.7-0.7,3.5-1.1,5.5-1.1c2.1,0,3.9,0.3,5.5,1s3,1.6,4.1,2.9c1.1,1.2,1.9,2.7,2.5,4.4
			c0.6,1.7,0.9,3.6,0.9,5.7l0,3.1l-19.3,0v0.1c0.2,1.1,0.6,2.1,0.9,2.7c0.4,0.7,0.9,1.3,1.6,1.9c0.7,0.6,1.4,1,2.3,1.3
			c0.9,0.3,1.8,0.5,2.8,0.5c1.4,0,2.8-0.3,4.2-0.8c1.3-0.5,2.4-1.4,3.3-2.4l3.7,3.9c-0.9,1.3-2.4,2.5-4.4,3.6
			c-2,1.1-4.4,1.6-7.2,1.6C280.5,980.2,278.5,979.9,276.7,979.1z M279.5,957c-0.7,0.3-1.3,0.7-1.8,1.2c-0.5,0.5-1,1.2-1.3,1.9
			c-0.4,0.8-0.6,1.6-0.8,2.5l12,0l0-0.6c0-0.8-0.1-1.5-0.4-2.2c-0.3-0.7-0.7-1.3-1.2-1.8c-0.5-0.5-1.1-0.9-1.8-1.2s-1.5-0.4-2.5-0.4
			C281,956.6,280.2,956.8,279.5,957z"/>
		<path class="st3" d="M324.7,950.9c0.9,0.1,1.7,0.3,2.3,0.5l-1.1,7.3c-1-0.2-2-0.4-3-0.5c-1-0.1-2-0.2-2.9-0.2
			c-0.9,0-1.8,0.1-2.6,0.3c-0.8,0.2-1.4,0.4-2,0.8c-0.7,0.4-1.3,0.9-1.8,1.5c-0.5,0.6-0.9,1.3-1.3,2.1l0,17.1l-7.3,0l0-28.5l6.8,0
			l0.3,4l0.1,0.6c1.2-1.6,2.5-2.9,4.2-3.8c1.6-0.9,3.4-1.4,5.3-1.4C322.7,950.7,323.7,950.7,324.7,950.9z"/>
		<path class="st3" d="M346.9,951.2l10.6,0l0,5.4l-10.6,0l0,12.2c0,1,0.1,1.9,0.4,2.6c0.2,0.7,0.6,1.2,1,1.6c0.4,0.4,1,0.7,1.6,0.9
			s1.3,0.3,2.1,0.3c0.6,0,1.1,0,1.7-0.1c0.6-0.1,1.2-0.1,1.7-0.2c0.5-0.1,1-0.1,1.5-0.2s0.9-0.2,1.2-0.3l0.7,5
			c-0.5,0.3-1.1,0.6-1.8,0.8c-0.7,0.2-1.4,0.4-2.2,0.5c-0.8,0.1-1.6,0.3-2.4,0.3c-0.8,0.1-1.7,0.1-2.5,0.1c-1.6,0-3-0.2-4.2-0.6
			c-1.3-0.4-2.4-1.1-3.2-1.9c-0.9-0.9-1.6-2-2.1-3.3c-0.5-1.3-0.7-3-0.7-4.8l0-12.9l-6.5,0l0-5.4l6.5,0l0-7l7.3,0L346.9,951.2z"/>
		<path class="st3" d="M383.2,978.4c-0.1-0.5-0.2-0.9-0.3-1.4c-0.4,0.4-0.9,0.9-1.4,1.2c-0.5,0.4-1.1,0.7-1.7,1
			c-0.6,0.3-1.4,0.5-2.1,0.7c-0.8,0.2-1.6,0.2-2.5,0.3c-1.5,0-2.8-0.2-4-0.6c-1.2-0.4-2.3-1-3.1-1.8c-0.9-0.8-1.6-1.7-2.1-2.7
			c-0.5-1-0.7-2.2-0.7-3.4c0-1.6,0.3-3,0.9-4.2c0.6-1.2,1.5-2.2,2.8-3c1.1-0.7,2.5-1.3,4.1-1.6c1.6-0.4,3.5-0.6,5.6-0.6l4.1,0l0-1.7
			c0-0.7-0.1-1.3-0.3-1.8c-0.2-0.5-0.5-1-0.9-1.4c-0.4-0.4-1-0.7-1.6-0.9c-0.7-0.2-1.4-0.3-2.3-0.3c-0.8,0-1.4,0.1-2,0.3
			c-0.6,0.2-1,0.4-1.4,0.8c-0.3,0.3-0.5,0.7-0.7,1.1s-0.2,0.9-0.2,1.4l-7.3,0c0-1.2,0.3-2.4,0.8-3.4c0.5-1.1,1.3-2,2.4-2.9
			c1-0.8,2.3-1.5,3.7-2s3.2-0.7,5.1-0.7c1.7,0,3.3,0.2,4.8,0.6c1.5,0.4,2.8,1,3.9,1.9c1.1,0.8,1.9,1.9,2.6,3.1
			c0.6,1.3,0.9,2.7,0.9,4.4l0,12.2c0,1.5,0.1,2.8,0.3,3.8c0.2,1,0.5,1.9,0.8,2.6v0.4l-7.4,0C383.5,979.3,383.3,978.9,383.2,978.4z
			 M378.7,974.2c0.6-0.2,1.2-0.4,1.7-0.7c0.5-0.3,0.9-0.6,1.3-1c0.4-0.4,0.7-0.7,0.9-1.1l0-4.9l-3.7,0c-1.1,0-2.1,0.1-2.9,0.3
			c-0.8,0.2-1.5,0.5-2,0.9c-0.5,0.4-0.9,0.9-1.1,1.4c-0.2,0.6-0.4,1.2-0.4,1.8c0,0.5,0.1,1,0.3,1.4c0.2,0.4,0.5,0.8,0.8,1.1
			c0.4,0.3,0.8,0.5,1.3,0.7s1.1,0.2,1.8,0.2C377.4,974.5,378.1,974.4,378.7,974.2z"/>
		<path class="st3" d="M407.5,973.2c0.8-0.8,1.8-1.2,3.1-1.2c1.3,0,2.3,0.4,3.1,1.2s1.2,1.7,1.2,2.9c0,1.1-0.4,2.1-1.2,2.8
			c-0.8,0.8-1.8,1.1-3.1,1.1c-1.3,0-2.4-0.4-3.1-1.1c-0.8-0.8-1.1-1.7-1.1-2.8C406.4,974.9,406.7,973.9,407.5,973.2z M407.3,966.2
			l-0.4-24.9l7.5,0l-0.4,24.9L407.3,966.2z"/>
	</g>
	<g>
		<g>
			<path class="st3" d="M111.4,989.2c0.7-2.9,1.4-6.3,2.2-9.7c1-4.3,2-8.7,3-13c0.2-1,0-1.6-0.8-2.2c-5.6-4.9-11.1-9.8-16.7-14.6
				c-1.6-1.4-2.5-2.9-1.8-5c0.7-2.1,2.2-3.1,4.4-3.3c7-0.6,14.1-1.3,21.1-1.9c1.8-0.1,2.7-0.7,3.4-2.5c2.7-6.6,5.6-13.2,8.4-19.8
				c1-2.3,2.7-3.3,4.9-3c1.9,0.3,2.9,1.4,3.7,3.1c2.8,6.6,5.7,13.1,8.3,19.7c0.7,1.8,1.7,2.3,3.4,2.4c7.1,0.6,14.2,1.3,21.3,1.9
				c2.1,0.2,3.6,1.2,4.2,3.2c0.6,2-0.2,3.6-1.7,4.9c-5.6,4.9-11.1,9.8-16.7,14.6c-0.8,0.7-1.1,1.4-0.8,2.5
				c1.7,7.2,3.3,14.4,4.9,21.6c0.5,2,0.2,3.8-1.6,5.1c-1.8,1.3-3.6,1.1-5.5,0c-6.3-3.8-12.7-7.6-19-11.4c-0.9-0.6-1.6-0.5-2.5,0
				c-6.4,3.9-12.8,7.7-19.2,11.5c-1.6,1-3.3,1.2-4.9,0.2C112.1,992.7,111.4,991.4,111.4,989.2z"/>
		</g>
	</g>
</g>
</svg>
