<svg xmlns="http://www.w3.org/2000/svg" xmlns:xlink="http://www.w3.org/1999/xlink" id="Capa_1" x="0" y="0" version="1.1" viewBox="0 0 1080 1080" style="enable-background:new 0 0 1080 1080" xml:space="preserve"><style type="text/css">.st0{fill:none}.st1{fill:#77b900}.st2{fill:#fe6401}.st3{fill:#2a3c47}.st4{fill:#fe6002}.st5{fill:#3f3f42}.st6{fill:#bc531f}.st7{fill:#343d45}.st8{fill:#a85026}.st9{fill:#b55222}.st10{fill:#474040}.st11{fill:#704636}.st12{fill:#5b423b}.st13{fill:#7d4832}.st14{fill:#8a4b2f}.st15{fill:#ef5c0b}.st16{fill:#e25a11}.st17{fill:#9b4e2a}.st18{fill:#c3541d}.st19{fill:#4c413f}.st20{fill:#d75816}.st21{fill:#8f4c2d}.st22{fill:#d15718}.st23{fill:#5f433a}.st24{fill:#e85b0e}.st25{fill:#ca551b}.st26{fill:#f25d09}.st27{fill:#54423d}.st28{fill:#989fa3}.st29{fill:#dda086}.st30{fill:#fee8d5}.st31{fill:#fefefe}.st32{fill:#fff;stroke:#fff;stroke-width:.5;stroke-miterlimit:10}</style><rect width="1080" height="1080" class="st0"/><rect width="1081" height="135" x="-.5" y="945" class="st1"/><g><path d="M1032.4,975.8c0,2.8,0,5.7,0,8.5c0,1.7-0.9,2.7-2.6,2.7c-4.5,0-9,0-13.5,0c-1.2,0-2.2-1-2.2-2.2 c0-1.1-0.1-2.2-0.1-3.3c0-4.7,0.1-9.5,0-14.2c0-1.9,1.2-2.6,2.7-2.6c4.2,0,8.3,0,12.5,0c1,0,2.3-0.1,2.8,1.1 c0.2,0.4,0.3,0.9,0.3,1.4C1032.4,970.1,1032.4,972.9,1032.4,975.8z M1023.3,968c-0.1,0-0.2,0-0.4,0c-0.7,0-1.4,0-2.2,0 c-0.1,0-0.1,0-0.2,0c-0.3,0.1-0.6,0.1-0.9,0.2c-1.4,0.6-2.5,3.1-2.1,4.5c0.1,0.2,0.4,0.4,0.6,0.4c0.9,0.1,1.7,0,2.6,0 c0.1-0.6,0.2-1.1,0.3-1.7c0.8,0,1.6,0,2.4,0c0.5,0,1-0.1,1.3-0.4c0.8-0.6,1.4-1.3,2.1-2c0.5-0.5,0.4-0.8-0.3-0.9 C1025.6,968.1,1024.5,968.1,1023.3,968z M1028.5,969.7c-0.5,0.4-0.9,0.6-1.2,0.9c-2.8,2.7-5.5,5.4-8.3,8c-1.4,1.3-2,2.8-1.6,4.8 c0.2,0,0.5,0.1,0.7,0.1c2.7,0,5.5,0,8.2-0.1c1.7,0,2.3-0.5,2.7-2.2c0.2-0.8,0-1-0.8-1c-1.9,0-3.7,0-5.6,0c-0.3,0-0.5,0-0.9,0 c0.2-0.2,0.2-0.4,0.3-0.4c1.5-1.4,2.9-2.9,4.5-4.2C1028.4,974,1028.9,972.1,1028.5,969.7z" class="st2"/><path d="M919.9,975.8c-0.3,0.4-0.4,0.7-0.5,0.9c-1,2-2.1,4-3.1,6.1c-0.3,0.5-0.5,0.8-1.2,0.8c-0.8-0.1-1.7,0.2-2.3-0.1 c-0.6-0.3-0.7-1.3-1.1-2c-2.2-4.3-4.3-8.5-6.5-12.8c-0.3-0.6-0.2-0.8,0.5-0.8c1.4,0,2.8,0.1,4.2,0c0.8,0,1.2,0.3,1.5,0.9 c0.9,2,1.9,4,2.9,6.1c0.3-0.5,0.6-0.8,0.8-1.2c0.9-1.7,1.7-3.4,2.5-5.2c0.3-0.6,0.6-0.8,1.2-0.7c0.8,0,1.6,0.1,2.3,0 c0.8-0.1,1.1,0.3,1.3,0.9c0.9,1.9,1.8,3.8,2.7,5.7c0.1,0.1,0.1,0.2,0.3,0.4c0.2-0.3,0.3-0.4,0.4-0.6c0.9-1.9,1.9-3.9,2.8-5.8 c0.2-0.4,0.4-0.6,0.9-0.6c1.7,0,3.4,0,5.1,0c0.1,0.1,0.1,0.2,0.2,0.3c-0.5,1-1,2-1.5,2.9c-1.7,3.4-3.5,6.8-5.2,10.2 c-0.2,0.4-0.4,0.8-0.6,1.3c-0.3,0.9-1,1.1-1.8,1.1c-0.3,0-0.6,0-0.9,0c-0.7,0.1-1.1-0.2-1.4-0.9c-1-2.1-2.1-4.1-3.1-6.2 C920.3,976.4,920.1,976.2,919.9,975.8z" class="st3"/><path d="M906.3,983.5c-1,0-2.1,0-3.1,0c-0.8,0-1.5,0-2.3,0.1c-1,0.2-1.6-0.4-2.2-1c-1.7-1.6-3.4-3.3-5.1-4.9 c-0.2-0.2-0.4-0.5-0.4-0.8c0-1,0-2,0-3.1c1.6,0,3.1,0,4.7,0c1,0,1.1-0.1,1.1-1.1c0-0.7-0.6-0.7-0.9-0.7c-2.2,0-4.4,0-6.6,0 c-0.2,0-0.5,0.4-0.5,0.6c0,3,0,6,0.1,9c0,2,0.1,2-1.9,2c-1,0-1.9,0-2.9,0c-0.4,0-0.7-0.1-0.7-0.6c0-5,0-10,0-15.1 c0.3,0,0.5,0,0.8,0c4.5,0,9,0,13.6,0c1.4,0,2.8,0.3,3.7,1.5c0.4,0.5,0.7,1.2,0.8,1.8c0.1,1.2,0,2.4-0.1,3.5 c-0.2,1.3-1.6,2.5-2.9,2.6c-0.3,0-0.7,0.1-1.1,0.2c2.1,2,4.1,3.9,6.1,5.7C906.3,983.3,906.3,983.4,906.3,983.5z" class="st3"/><path d="M829.1,983.1c1-0.8,2-1.5,2.9-2.4c1.1-1.1,2.4-1.3,3.9-1.2c1.4,0.1,2.8,0,4.2,0c0.7,0,1-0.2,1-0.9 c0-2.1,0-4.1,0-6.3c-0.5-0.1-0.9-0.2-1.3-0.2c-2.2,0-4.4,0-6.7,0c-1,0-1.2,0.2-1.2,1.3c0,1.4,0,2.8,0,4.2c0,0.3-0.2,0.6-0.4,0.8 c-1.3,1-2.6,2.1-3.9,3.1c-0.5,0.4-0.9,0.2-0.9-0.4c-0.1-1.8-0.1-3.6-0.2-5.4c0-1.2,0-2.4,0-3.6c-0.1-2.4,1.7-4,3.9-4 c3.7,0,7.3-0.1,11-0.1c0.3,0,0.5,0,0.8,0c1,0,1.7,0.2,2,1.3c0.2,0.8,0.6,1.6,1.1,2.4c0.9,1.3,0.9,2.9,1,4.4c0.1,1.3,0,2.5,0,3.8 c0,2.3-1.5,3.6-3.5,3.7c-2.2,0.2-4.4,0.1-6.6,0.1c-1.8,0-3.6,0.1-5.5,0.1c-0.6,0-1.1-0.2-1.7-0.3 C829.1,983.3,829.1,983.2,829.1,983.1z" class="st3"/><path d="M980.5,977.4c1.6,0,3.2,0,4.7,0c0.2,0,0.5,0.4,0.5,0.5c0,1,0,2.1-0.2,3.1c-0.3,1.3-1.4,2-2.6,2.2 c-1.2,0.2-2.5,0.2-3.8,0.3c-2,0-4.1,0-6.1,0c-1.5,0-2.9,0-4.4-0.2c-1.2-0.2-2.7-1.5-2.7-3.2c0.1-2.1,0-4.3,0-6.4 c0-0.4,0.1-0.8,0.3-1.1c0.6-1.3,1.2-2.7,1.9-4c0.1-0.3,0.6-0.6,0.9-0.6c2.4-0.1,4.8-0.1,7.2-0.2c1.7,0,3.3-0.1,5,0 c0.9,0,1.8,0.3,2.6,0.6c1.1,0.4,1.7,1.4,1.8,2.5c0.1,0.9,0.1,1.8,0,2.6c0,0.2-0.4,0.4-0.6,0.4c-1.4,0-2.7,0-4.1,0 c-1,0-0.7-0.8-0.8-1.2c0-0.8-0.4-0.8-1-0.8c-2.3,0-4.6,0-6.9,0c-1,0-1.3,0.3-1.3,1.3c0,1.5,0,3,0,4.4c0,1.3,0.3,1.6,1.6,1.6 c1.9,0,3.8,0,5.6,0C980.3,979.5,980.4,979.6,980.5,977.4z" class="st3"/><path d="M988,967.9c0.1,0,0.2,0,0.3,0c0,0,0.1,0,0.1,0l0.1,0c1.5,0,3.1,0,4.8,0c0,0.6,0,1.2,0,1.7c0,1.3,0,2.5,0,3.8 c0,0.2,0.3,0.6,0.5,0.6c2.9,0,5.8,0,8.8,0c0-1.7,0-3.4,0-5c0-1,0-1,1.1-1c1.1,0,2.3,0,3.4,0c0.4,0,0.7,0.1,0.7,0.6 c0,4.7,0.1,9.5,0.1,14.2c0,0.7-0.2,1.1-1,1c-1.2-0.1-2.4,0-3.6,0c-0.5,0-0.7-0.2-0.7-0.7c0-0.5,0-0.9,0-1.4c0-1.3,0-2.7,0-4.1 c-3.2,0-6.2,0-9.2,0c0,1.3,0,2.5,0,3.7c0,0.5,0,1.1,0,1.6c0,0.6-0.2,0.8-0.8,0.8c-1.5,0-3,0-4.6,0c0-5.3,0-10.5,0-15.8 C987.9,967.9,987.9,967.9,988,967.9z" class="st3"/><path d="M883.1,983.6c-4.8,0-9.7,0-14.5,0.1c-0.6,0-0.8-0.2-0.8-0.8c0-3.1,0-6.2,0-9.4c0-0.5,0.2-1.1,0.4-1.6 c0.5-1.2,1.1-2.3,1.7-3.4c0.1-0.3,0.5-0.6,0.8-0.6c4.2,0,8.4,0,12.5,0c0.1,0,0.2,0,0.4,0.1c0,1.2,0,2.3,0,3.5c0,0.1,0,0.1,0,0.2 c-0.3,0.1-0.6,0.4-0.8,0.4c-2.9,0-5.8,0-8.8,0c-0.3,0-0.6,0-0.9,0c0,0.6,0,1.2,0,1.8c2.9,0,5.8,0,8.7,0c0,1.1,0,2.1,0,3.1 c0,0.2-0.5,0.4-0.8,0.4c-2.2,0-4.4,0-6.7,0c-0.4,0-0.8,0-1.3,0c0.1,0.7,0.1,1.2,0.2,1.8c0.1,0,0.1,0.1,0.2,0.1c2.5,0,5,0,7.5,0 c0.7,0,1.3,0,2,0c0.5,0,0.8,0.2,0.8,0.8c0,0.9,0,1.8,0,2.7c0,0.2-0.2,0.4-0.3,0.6C883.2,983.6,883.1,983.6,883.1,983.6z" class="st3"/><path d="M846.1,967.9c1.9,0,3.7,0,5.4,0c0.6,0,0.8,0.5,1,1c1.4,2.9,2.8,5.8,4.3,9c0.5-1,0.9-1.7,1.3-2.5 c1.1-2.3,2.2-4.6,3.3-6.8c0.2-0.4,0.5-0.6,1-0.6c1.7,0,3.4,0,5.3,0c-0.4,1-0.8,1.8-1.1,2.5c-1.8,3.5-3.6,7.1-5.5,10.6 c-0.3,0.7-0.6,1.4-1,2c-0.2,0.3-0.7,0.6-1,0.6c-1.5,0.1-2.9,0-4.4,0c-0.7,0-1-0.5-1.2-1c-2.2-4.3-4.3-8.7-6.5-13 C846.7,969.1,846.4,968.6,846.1,967.9z" class="st3"/><path d="M940.2,973.9c-1.1,2.2-2.2,4.2-3.2,6.2c-0.5,1-0.9,2-1.5,3c-0.2,0.3-0.6,0.6-0.9,0.6c-1.6,0.1-3.3,0-5.2,0 c0.4-0.8,0.7-1.5,1-2.2c2-4,4.1-8,6-12.1c0.6-1.2,1.2-1.6,2.4-1.5c1.2,0.1,2.5,0.1,3.8,0c0.5,0,0.7,0.2,0.9,0.6 c2.3,4.7,4.7,9.5,7,14.2c0.1,0.2,0.2,0.5,0.3,0.9c-1.9,0-3.6,0-5.4,0c-0.2,0-0.5-0.4-0.7-0.6c-1.4-2.8-2.8-5.6-4.3-8.5 C940.5,974.3,940.4,974.1,940.2,973.9z" class="st3"/><path d="M966.2,968c-0.4,1-0.9,1.8-1.2,2.6c-0.4,1.3-1.2,1.7-2.5,1.5c-1.3-0.1-2.5,0-3.9,0c0,1.2,0,2.3,0,3.4 c0,2.4,0,4.9,0,7.3c0,0.5-0.1,0.8-0.7,0.8c-1.5,0-3,0-4.6,0c0-3.9,0-7.7,0-11.6c-1.7,0-3.3,0-5,0c-0.5,0-0.8-0.1-1-0.6 c-0.4-1-1-2-1.4-3c-0.1-0.2-0.1-0.3-0.2-0.5C952.6,968,959.3,968,966.2,968z" class="st3"/><path d="M994.7,1053.4c-3.8,0-7.5,0-11.3,0c-2.6-0.3-4.4-1.7-5.6-4c-0.3-0.6-0.5-1.2-0.7-1.9c1,0,2-0.1,3-0.1 c1.4,0,2.7-0.1,4.1,0c0.7,0,1-0.2,1.2-0.8c0.3,0.2,0.6,0.3,0.9,0.5c-0.1,0.1-0.2,0.1-0.2,0.2c0,0,0.1,0.1,0.1,0.1 c0-0.1,0.1-0.2,0.1-0.3c0.3,0,0.6,0,0.9,0.1c0.1,0,0.1,0,0.2,0c1.3,0,2.6,0,3.9,0c0.8,0,1.5-0.3,2.1-0.9c0.1,1,0.1,1,1.3,0.9 c0.2,0,0.3,0,0.5,0c2,0.1,4.1,0.1,6.1,0.2c0,0.1,0,0.1,0,0.2c0,0-0.1,0-0.1,0c0,0,0,0.1,0,0.1c-0.7,3.1-2.7,4.9-5.7,5.7 C995.2,1053.3,995,1053.3,994.7,1053.4z" class="st4"/><path d="M948,1053.4c-3.1,0-6.3,0-9.4,0c-2.1-0.1-3.7-1.2-4.8-2.9c-0.7-1.1-1.1-2.5-1.6-3.7c0.6,0,1.1,0,1.7,0 c1.6-0.1,3.2-0.1,4.9-0.2c0.2,0,0.3-0.2,0.5-0.3c0.2-0.1,0.3-0.2,0.5-0.3c0.6,1,1.6,1.2,2.7,1.2c0.9,0,1.8-0.1,2.8-0.1 c0.8,0,1.4-0.4,1.9-1.1c0.2,0.2,0.4,0.5,0.7,0.6c0.5,0.1,1.1,0,1.7,0c1.7,0,3.5,0,5.2,0c-0.1,1.6-0.6,3-1.6,4.1 C951.7,1052.3,950,1053.2,948,1053.4z" class="st4"/><path d="M887.5,1053.4c-2.8,0-5.5,0-8.3,0c-0.2-0.4-0.5-0.7-0.6-1.1c-0.3-1.9-0.6-3.9-0.9-5.8c1.2,0,2.5,0,3.7,0 c2.1,0,4.3,0,6.4,0c0.4,0,0.9-0.1,1.3-0.1c-0.3,1.8-0.6,3.5-0.9,5.3c0,0.3,0,0.6-0.1,0.9C888,1052.8,887.7,1053.1,887.5,1053.4z" class="st4"/><path d="M977,1001.7c0.4-1.3,0.9-2.6,2-3.6c0.2,0.3,0.4,0.6,0.7,0.7c0.5,0.2,1.1,0.2,1.6,0.2c5.2,0,10.5,0,15.7,0 c0.8,0,1.7-0.2,2.5-0.3c0.9,1,1.3,2.2,1.5,3.4c-0.4-0.1-0.8-0.1-1.1-0.1c-2,0-3.9,0-5.9,0c-0.6,0-1.1,0.1-1.4,0.6 c-1.1-0.2-2.3-0.4-3.4-0.4c-1.1-0.1-2.1,0.1-3.2,0.1c-0.2-0.1-0.5-0.4-0.7-0.4C982.6,1001.7,979.8,1001.7,977,1001.7z" class="st5"/><path d="M917.3,1032.4c-2.6,0-5.2,0-7.8,0c-0.2,0-0.3,0.1-0.5,0.1c0,0-0.1,0-0.1,0c-1.4,0-2.8,0-4.1,0 c-1.1,0-2.3,0-3.4,0c0-0.9,0-1.8,0-2.7c0.6-0.1,1.3-0.2,1.9-0.1c2.3,0,4.6,0.1,6.9,0.1c2.3,0,4.6-0.1,6.9-0.1c2,0,4.1,0,6.1,0 c0.7,0,1.3,0,2,0c0,1,0,2,0,3c-0.5,0.1-1,0.2-1.5,0.2c-2-0.1-4.1,0.2-6.1-0.3c0,0-0.1,0-0.1,0 C917.4,1032.5,917.3,1032.5,917.3,1032.4z" class="st6"/><path d="M999.6,998.7c-0.8,0.1-1.7,0.3-2.5,0.3c-5.2,0-10.5,0-15.7,0c-0.5,0-1.1,0-1.6-0.2c-0.3-0.1-0.5-0.5-0.7-0.7 c1.2-1.5,2.9-2.1,4.7-2.2c2.7-0.1,5.5-0.2,8.2-0.1c1.3,0,2.5,0.3,3.8,0.4C997.5,996.4,998.6,997.5,999.6,998.7z" class="st7"/><path d="M901.3,1027.6c0-0.9,0-1.8,0-2.7c0.4,0.1,0.8,0.1,1.1,0.1c2.1,0,4.2,0,6.3,0c0.1,0.1,0.1,0.2,0.2,0.3 c2.7,0,5.4,0,8.1,0c0.2,0,0.4-0.2,0.6-0.3c0.3,0,0.5,0,0.8,0c0.7,0,1.5,0.1,2.2,0.2c0.3,0,0.6-0.1,0.9-0.1c1.2,0,2.4,0,3.6,0 c0,0.8,0,1.7,0,2.5C917.2,1027.6,909.2,1027.6,901.3,1027.6z" class="st8"/><path d="M903.1,998.7c0.9-1.5,2.3-2.2,4-2.6c1.2-0.3,2.5-0.4,3.8-0.3c2.8,0,5.6,0.1,8.4,0.3c1.6,0.2,3,1.1,4,2.5 c-0.4,0.2-0.8,0.5-1.2,0.5c-3.3,0-6.6,0-10,0c-2.3,0-4.6,0-7,0C904.4,999,903.8,998.8,903.1,998.7z" class="st7"/><path d="M901.3,1027.6c8,0,15.9,0,23.9,0c0,0.7,0,1.5,0,2.2c-0.7,0-1.3,0-2,0c-2,0-4.1,0-6.1,0c-2.3,0-4.6,0.1-6.9,0.1 c-2.3,0-4.6-0.1-6.9-0.1c-0.6,0-1.3,0.1-1.9,0.1C901.3,1029.1,901.3,1028.4,901.3,1027.6z" class="st9"/><path d="M924.7,1001.2c0.1,0.9,0.3,1.8,0.4,2.7c-0.3-0.1-0.5-0.2-0.8-0.1c-2.4,0.1-4.8-0.3-7.2,0.3 c-0.5-0.5-1-1.1-1.8-1.1c-1.3,0-2.5-0.2-3.8-0.1c-0.9,0-1.7,0.5-2.2,1.4c-0.9-0.1-1.8-0.1-2.7-0.2c-1.7,0-3.5,0-5.3,0 c0.2-1,0.4-2,0.6-3c0.4,0.1,0.9,0.3,1.3,0.3c4,0,8,0,12,0c2.7,0,5.4,0,8.1,0C923.8,1001.3,924.2,1001.2,924.7,1001.2z" class="st10"/><path d="M952.6,998.7c0.9,0.7,1.1,1.7,1.4,2.7c-0.3,0.1-0.5,0.2-0.8,0.2c-2.5,0-5.1,0-7.6,0c-0.5,0-0.9,0-1,0.6 c-1,0.1-2,0.1-3,0.2c0-0.7-0.6-0.6-1-0.6c-1.2,0-2.4,0-3.6,0c-1.4,0-2.9,0-4.3,0c0.5-1,0.9-2,1.4-3c0.5,0.2,1.1,0.4,1.6,0.5 c5,0,10,0,14.9,0C951.3,999.1,951.9,998.8,952.6,998.7z" class="st5"/><path d="M952.6,998.7c-0.6,0.2-1.3,0.5-1.9,0.5c-5,0-10,0-14.9,0c-0.5,0-1.1-0.3-1.6-0.5c1.4-1.8,3.3-2.8,5.6-2.8 c1.9,0,3.7-0.2,5.6-0.1c1.3,0,2.7,0.2,4,0.5C950.6,996.6,951.8,997.3,952.6,998.7z" class="st7"/><path d="M924.7,1001.2c-0.4,0.1-0.9,0.2-1.3,0.2c-2.7,0-5.4,0-8.1,0c-4,0-8,0-12,0c-0.4,0-0.9-0.2-1.3-0.3 c0.4-0.8,0.8-1.6,1.2-2.3c0.7,0.1,1.3,0.3,2,0.3c2.3,0,4.6,0,7,0c3.3,0,6.6,0,10,0c0.4,0,0.8-0.3,1.2-0.5 C923.7,999.4,924.2,1000.3,924.7,1001.2z" class="st5"/><path d="M1020,1027.1c-0.4-1.4-0.8-2.7-1.3-4.1c1.9-0.1,3.8,0.3,5.6-0.3c0.1,0,0.2,0.1,0.3,0.1 c0.3,0.1,0.5,0.2,0.8,0.2c2.3,0,4.6,0,6.9,0c0,1.4,0,2.7,0,4.1c-1.2-0.1-2.4-0.2-3.7-0.1c-2.2,0-4.5,0.1-6.7,0.1 C1021.3,1027.1,1020.7,1027.1,1020,1027.1z" class="st8"/><path d="M1032.4,1053.3c-2.5,0-5,0-7.5,0c-0.1-0.1-0.1-0.2-0.2-0.3c0-0.1,0-0.1,0-0.2c0-2,0-4,0.1-6.1 c0.5-0.1,1.1-0.1,1.6-0.1c1.5,0,3.1,0,4.6,0c0.5,0,1,0.1,1.5,0.1C1032.4,1049,1032.4,1051.2,1032.4,1053.3z" class="st4"/><path d="M841.7,1013.2c0-1.5,0-2.9,0-4.4c0.5,0.1,1.1,0.2,1.6,0.1c3.2,0,6.4-0.1,9.6-0.1c0.4,1.5,0.8,2.9,1.2,4.4 c-0.4,0.1-0.7,0.1-1.1,0.1c-1,0-2-0.1-3-0.1C847.3,1013.2,844.5,1013.2,841.7,1013.2z" class="st11"/><path d="M853,1008.8c-3.2,0.1-6.4,0.1-9.6,0.1c-0.5,0-1.1-0.1-1.6-0.1c0-1.6,0-3.1,0-4.7c0.5,0,0.9,0,1.4,0 c2.8,0,5.7,0,8.5,0C852,1005.7,852.5,1007.3,853,1008.8z" class="st12"/><path d="M841.7,1013.2c2.8,0,5.6,0,8.5,0c1,0,2,0.1,3,0.1c0.4,0,0.7-0.1,1.1-0.1c0.4,1.2,0.7,2.5,1.1,3.7 c-1.9,0-3.7,0-5.6,0c-0.1-0.2-0.2-0.5-0.4-0.9c0,0.6,0,0.9-0.1,1.2c-2.5-0.1-5-0.1-7.5-0.2C841.7,1015.8,841.7,1014.5,841.7,1013.2 z" class="st13"/><path d="M1016.2,1053.4c-2.4,0-4.7,0-7.1,0c-0.1-0.2-0.3-0.4-0.3-0.6c0-1.8,0-3.7,0-5.5c1.6-0.1,3.2-0.3,4.7-0.3 c1,0,2,0.3,2.9-0.5c0,1.9,0,3.8,0,5.8c0,0,0,0,0,0c0,0,0,0.1,0,0.1c0,0.1,0,0.3,0,0.4c0,0.1,0,0.2,0,0.3c0,0,0,0,0,0 C1016.3,1053.3,1016.3,1053.3,1016.2,1053.4L1016.2,1053.4z" class="st4"/><path d="M854.1,1031.3c-0.4-1.3-0.8-2.6-1.3-3.9c0.3-0.1,0.5-0.3,0.8-0.3c1.9-0.1,3.9-0.2,5.8-0.2 c1.8,0,3.7,0.1,5.5,0.1c0,1.4,0,2.7,0,4.1c-2.5,0.1-5,0.1-7.5,0.2C856.3,1031.4,855.2,1031.3,854.1,1031.3z" class="st9"/><path d="M864.9,1027.1c-1.8-0.1-3.7-0.1-5.5-0.1c-1.9,0-3.9,0.1-5.8,0.2c-0.3,0-0.5,0.2-0.8,0.3 c-0.3-1.2-0.7-2.4-1-3.6c0.2-0.1,0.4-0.2,0.5-0.2c1.1,0,2.3,0,3.4,0c0.3,0,0.6-0.2,0.8-0.4c0.2-0.2,0.2-0.4,0.4-0.7 c0.1,0.3,0.3,0.5,0.4,0.8c0.2,0,0.5,0,0.7,0c2.3,0,4.6,0,6.9,0C865,1024.5,864.9,1025.8,864.9,1027.1z" class="st8"/><path d="M849.1,1053.4c-2.5,0-4.9,0-7.4,0c0-2.1,0-4.2,0-6.2c2.5,0,5,0,7.5,0c0,2,0,3.9,0,5.9 C849.2,1053.1,849.1,1053.3,849.1,1053.4z" class="st4"/><path d="M834.1,1053.3c-2.5,0-4.9,0-7.4,0c-0.1-0.1-0.1-0.3-0.1-0.4c0-1.9,0-3.8,0-5.7c1.7-0.1,3.4-0.3,5.1-0.3 c0.8,0,1.6,0.2,2.4-0.1C834.1,1049.1,834.1,1051.2,834.1,1053.3z" class="st4"/><path d="M969,1053.4c-2.3,0-4.6,0-6.9,0c0,0,0,0,0,0c-0.1-0.3-0.2-0.5-0.3-0.8c0-1.8,0-3.6,0.1-5.5 c1.5-0.1,2.9-0.2,4.4-0.1c1,0,2,0.4,3-0.2c0,0.5,0,1,0,1.6c0,0,0,0,0,0c0,0,0,0.1,0,0.1c0,0.2,0,0.3,0,0.5c0,0.7,0,1.4,0,2.2 c0,0.1,0,0.2,0,0.3c0,0.3,0,0.6,0,0.9c0,0.2,0,0.3,0,0.5c0,0-0.1,0.1-0.1,0.1C969.1,1053.2,969.1,1053.3,969,1053.4z" class="st4"/><path d="M1020,1027.1c0.7,0,1.3,0,2,0c2.2,0,4.5-0.1,6.7-0.1c1.2,0,2.4,0.1,3.7,0.1c0,1.3,0,2.6,0,3.9 c-3.7,0-7.4,0-11.1,0C1020.9,1029.7,1020.4,1028.4,1020,1027.1z" class="st9"/><path d="M864.9,1053.3c-2.4,0-4.7,0-7.1,0.1c-0.1,0-0.2,0-0.3,0c0,0-0.1,0-0.1-0.1c0-2.1,0-4.1,0-6.2 c0.8,0.4,1.7,0.3,2.5,0.1c0.6-0.1,1.2-0.1,1.9-0.1c1.1,0.1,2.1,0.2,3.2,0.3C864.9,1049.4,864.9,1051.4,864.9,1053.3z" class="st4"/><path d="M1016.4,1016.5c0,0.2,0,0.4,0,0.6c0,0.1,0,0.2,0,0.3c0,0.2,0,0.3-0.1,0.5c-0.5,0.2-1,0.6-1.5,0.6 c-2,0-4-0.1-6-0.1c0-0.9,0-1.9,0-2.8c0.5,0,1,0.1,1.5,0.1c1-0.1,1.9-0.3,2.9-0.2c1.1,0,2.2,0.4,3.2,0.4c1.7,0,3.4-0.3,5.1-0.4 c0.2,0,0.3-0.1,0.4-0.2c0.4,1.4,0.8,2.8,1.3,4.2c-1.9,0.1-3.8,0.1-5.6,0.2c-0.3-1-0.7-2.1-1-3.1c0-0.1,0-0.2-0.1-0.4 c0,0-0.1,0-0.1,0C1016.5,1016.3,1016.5,1016.4,1016.4,1016.5z" class="st14"/><path d="M889,1046.3c-0.4,0.1-0.9,0.1-1.3,0.1c-2.1,0-4.3,0-6.4,0c-1.2,0-2.5,0-3.7,0c-0.1-0.9-0.3-1.7-0.4-2.6 c0-0.2,0-0.4,0-0.7c0,0,0,0,0,0c0,0,0-0.1-0.1-0.1c0-0.1,0-0.1,0-0.2c2.4-0.1,4.8-0.3,7.2-0.3c1.7,0,3.4,0.1,5,0.2 c0.1,0,0.1,0.1,0.2,0.1C889.4,1044,889.2,1045.2,889,1046.3z" class="st15"/><path d="M925.1,1053.3c-2.4,0-4.7,0-7.1,0.1c-0.1,0-0.2,0-0.3,0c0,0-0.1,0-0.1-0.1c0-2,0-3.9,0-5.9 c0.7,0,1.3,0.1,2,0.1c0.7,0,1.3-0.1,2-0.1c1.2,0,2.3,0.1,3.5,0.1C925.1,1049.5,925.1,1051.4,925.1,1053.3z" class="st4"/><path d="M889.5,1042.9c-0.1,0-0.1-0.1-0.2-0.1c-1.7-0.1-3.4-0.2-5-0.2c-2.4,0-4.8,0.2-7.2,0.3 c-0.2-0.8-0.3-1.6-0.5-2.5c-0.1-0.3-0.1-0.7-0.1-1c1.2-0.1,2.3-0.1,3.5-0.2c0.6,0,1.3,0,1.9,0c0.5,0,1,0.2,1.5,0.2 c0.6,0,1.2-0.2,1.8-0.2c1.2,0,2.4,0.1,3.6,0.1c0.4,0,0.9,0,1.3,0c-0.1,1-0.3,2-0.4,3.1C889.6,1042.6,889.6,1042.8,889.5,1042.9z" class="st16"/><path d="M1022,1015.2c-0.1,0.1-0.3,0.1-0.4,0.2c-1.7,0.2-3.4,0.4-5.1,0.4c-1.1,0-2.1-0.4-3.2-0.4 c-0.9,0-1.9,0.2-2.9,0.2c-0.5,0-1-0.1-1.5-0.1c0-1.2,0-2.4,0-3.6c0.9,0.1,1.8,0.1,2.7,0.1c2.8,0,5.6,0,8.4,0c0.3,0,0.7-0.1,1-0.2 C1021.4,1013.1,1021.7,1014.1,1022,1015.2z" class="st13"/><path d="M908.8,1053.3c-2.4,0-4.7,0-7.1,0.1c-0.1,0-0.2,0-0.3,0c0,0-0.1,0-0.1-0.1c0-2,0-3.9,0-5.9 c2.5,0.1,5,0.1,7.5,0.2C908.8,1049.5,908.8,1051.4,908.8,1053.3z" class="st4"/><path d="M943.7,1020.7c1.7,1,3.4,2.1,5.1,3.1c-0.4,0.6-1,0.8-1.7,0.8c-2.7,0-5.5,0-8.2,0c-0.4,0-0.7,0.2-1.1,0.3 c-1.6-0.9-3.2-1.8-4.3-3.3c0.8-0.2,1.7-0.4,2.5-0.4c2-0.1,4,0,5.9,0C942.6,1021.2,943.2,1021.2,943.7,1020.7z" class="st17"/><path d="M1021.1,1012c-0.3,0.1-0.7,0.2-1,0.2c-2.8,0-5.6,0-8.4,0c-0.9,0-1.8-0.1-2.7-0.1c0-1.1,0-2.3,0-3.4 c0.9,0.1,1.8,0.2,2.7,0.1c2.2,0,4.3-0.1,6.5-0.2c0.6,0,1.3-0.2,1.9-0.3C1020.4,1009.5,1020.7,1010.7,1021.1,1012z" class="st11"/><path d="M1020,1008.2c-0.6,0.1-1.3,0.3-1.9,0.3c-2.2,0.1-4.3,0.1-6.5,0.2c-0.9,0-1.8-0.1-2.7-0.1c0-1.3,0-2.5-0.1-3.8 c3.4,0,6.8,0,10.1,0C1019.4,1005.9,1019.7,1007.1,1020,1008.2z" class="st12"/><path d="M1008.9,1000.7c0-1.5-0.1-3,0-4.4c0-0.2,0.3-0.5,0.5-0.5c2.2,0,4.4,0,6.6,0c0.6,0,0.6,0.5,0.7,0.8 c0.4,1.4,0.8,2.8,1.1,4.2C1014.8,1000.7,1011.9,1000.7,1008.9,1000.7z" class="st7"/><path d="M854.1,1031.3c1.1,0,2.2,0,3.3,0c2.5,0,5-0.1,7.5-0.2c0,1.2,0,2.5,0,3.8c-0.5,0.1-0.9,0.2-1.4,0.2 c-2.7,0-5.5,0-8.2,0C854.9,1033.8,854.5,1032.6,854.1,1031.3z" class="st18"/><path d="M1021.3,1031c3.7,0,7.4,0,11.1,0c0,1.2,0,2.5,0,3.7c-1.7,0-3.5,0-5.2,0c-1.5,0-3.1,0.1-4.6,0.1 C1022.1,1033.6,1021.7,1032.3,1021.3,1031z" class="st18"/><path d="M1008.9,1000.7c3,0,5.9,0,8.9,0c0.4,1.2,0.7,2.4,1.1,3.6c0,0.1,0.1,0.3,0.1,0.4c-3.4,0-6.8,0-10.1,0 C1008.9,1003.4,1008.9,1002.1,1008.9,1000.7z" class="st19"/><path d="M851.6,1004.2c-2.8,0-5.7,0-8.5,0c-0.5,0-0.9,0-1.4,0c0-1.4,0-2.8,0-4.2c1.4,0,2.9-0.1,4.3-0.1 c1.4,0,2.9,0.1,4.3,0.1C850.7,1001.3,851.2,1002.7,851.6,1004.2z" class="st10"/><path d="M890.1,1039.5c-0.4,0-0.9,0-1.3,0c-1.2,0-2.4-0.1-3.6-0.1c-0.6,0-1.2,0.2-1.8,0.2c-0.5,0-1-0.2-1.5-0.2 c-0.6,0-1.3,0-1.9,0c-1.2,0-2.3,0.1-3.5,0.2c-0.1-0.7-0.2-1.5-0.3-2.2c0.2,0,0.3-0.1,0.5-0.1c2.1,0,4.2,0.1,6.2,0.1 c0.1,0.6,0.3,1.1,0.4,1.7c0,0,0.1,0,0.1,0c0.2-1.1,0.4-2.3,0.5-3.4c2,0,4.1,0,6.1,0c0.2,0,0.3,0.2,0.5,0.2 C890.5,1037,890.3,1038.2,890.1,1039.5z" class="st20"/><path d="M937.8,1024.9c0.4-0.1,0.7-0.3,1.1-0.3c2.7,0,5.5,0,8.2,0c0.7,0,1.3-0.2,1.7-0.8c1.6,1,3.1,2.1,4.7,3.1 c-0.9,0.5-1.8,0.5-2.8,0.5c-2.3,0-4.5,0-6.8,0c-0.7,0-1.3,0.1-2,0.2C940.6,1026.7,939.2,1025.8,937.8,1024.9z" class="st8"/><path d="M925.2,1017.1c0,1.5,0,3,0,4.5c-2.5-0.1-5.1,0.3-7.6-0.3c0-1.5,0-3,0-4.5 C920.1,1016.9,922.6,1017,925.2,1017.1z" class="st21"/><path d="M1022.5,1034.9c1.5-0.1,3.1-0.1,4.6-0.1c1.7,0,3.5,0,5.2,0c0,1.2,0,2.5,0,3.8c-2.9,0-5.8,0-8.7,0 C1023.3,1037.3,1022.9,1036.1,1022.5,1034.9z" class="st22"/><path d="M1016.5,1034c0,1.5,0,3,0,4.5c-0.8,0.4-1.5,0.8-2.4,0.6c-0.7-0.1-1.4-0.1-2.2-0.1c-0.5,0-1,0.1-1.5,0.1 c-0.5,0-1,0-1.5,0c0-1.5,0-3,0-4.5c0.3,0,0.6-0.1,0.9-0.1C1012,1034.5,1014.3,1035.1,1016.5,1034z" class="st22"/><path d="M850.3,999.9c-1.4,0-2.9-0.1-4.3-0.1c-1.4,0-2.9,0.1-4.3,0.1c-0.1-1.2-0.1-2.3-0.2-3.5c0-0.5,0.1-0.7,0.7-0.7 c2.1,0,4.3,0,6.4,0c0.5,0,0.7,0.1,0.8,0.6C849.6,997.5,850,998.7,850.3,999.9z" class="st7"/><path d="M879.8,1015.7c0.2,1,0.3,2,0.5,3c0.1,0.6,0.1,1.1,0.1,1.7c-0.3,0.1-0.6,0.3-0.8,0.3c-2,0.1-4,0.1-6,0.2 c-0.2-1.6-0.5-3.1-0.7-4.7c2.2-0.1,4.4-0.2,6.6-0.3C879.6,1015.9,879.7,1015.8,879.8,1015.7z" class="st14"/><path d="M1001.6,1030.7c0,1.5,0,3,0,4.5c-0.4,0-0.8,0.1-1.2,0.1c-1.4,0.1-2.9,0.1-4.3,0.2c-0.7,0-1.5,0-2.2,0 c0-1.5,0-2.9,0-4.4c0.3-0.1,0.7-0.1,1-0.2C997.1,1030.9,999.4,1031.3,1001.6,1030.7z" class="st18"/><path d="M1001.6,1016c0,1.5,0,2.9,0,4.4c-0.2,0-0.4,0.1-0.6,0.1c-1.1,0.1-2.2,0.3-3.3,0.4c-1.3,0-2.5-0.1-3.8-0.1 c0-1.5,0-2.9,0-4.4c0.5,0,1.1,0.2,1.6,0.1C997.6,1016.3,999.6,1016.2,1001.6,1016z" class="st14"/><path d="M857.4,1000.1c0-1.4,0-2.8,0-4.3c2.5,0,5,0,7.5,0c0,1.5,0,3,0,4.5C862.4,1000.2,859.9,1000.1,857.4,1000.1z" class="st7"/><path d="M908.8,1036.2c0,1.5,0,3,0,4.5c-2.5,0-5,0-7.5,0c0-1.5,0-3,0-4.5C903.8,1036.2,906.3,1036.2,908.8,1036.2z" class="st20"/><path d="M834.1,1016c0,1.5,0,3,0,4.5c-2.5-0.4-5,0.1-7.5-0.3c0-1.5,0-3,0-4.5C829.1,1016.1,831.7,1015.7,834.1,1016z" class="st14"/><path d="M925.2,1017.1c-2.5-0.1-5-0.2-7.6-0.3c0-1.5,0-2.9,0-4.4c0.5,0.1,1,0.3,1.5,0.3c1,0,2.1-0.1,3.1-0.1 c1,0,2,0.1,2.9,0.1C925.2,1014.2,925.2,1015.7,925.2,1017.1z" class="st13"/><path d="M993.9,1035.6c0.7,0,1.5,0,2.2,0c1.4-0.1,2.9-0.1,4.3-0.2c0.4,0,0.8-0.1,1.2-0.1c0,1.4,0,2.8,0,4.2 c-0.5,0.1-0.9,0.1-1.4,0.1c-2.1,0.1-4.2,0.1-6.3,0.2C993.9,1038.4,993.9,1037,993.9,1035.6z" class="st20"/><path d="M932.2,1009.5c0-1.4,0-2.7,0-4.1c1.9,0.1,3.7,0.1,5.6,0.1c0.7,0,1.4-0.2,2.1-0.3c0,1.4,0,2.8,0,4.2 c-0.4,0.2-0.9,0.4-1.3,0.4c-0.7,0.1-1.5,0-2.2,0C934.9,1009.9,933.5,1010.1,932.2,1009.5z" class="st23"/><path d="M849.2,1035.1c0,1.5,0,2.9,0,4.4c-2.5,0-5,0-7.5,0c0-1.5,0-2.9,0-4.4c1.4,0,2.9,0,4.3,0 C847,1035.1,848.1,1035.1,849.2,1035.1z" class="st22"/><path d="M976.6,1013.1c0-1.4,0-2.7,0-4.1c0.4,0.1,0.8,0.3,1.2,0.3c2.2,0,4.4-0.1,6.5-0.1c0,1.4,0,2.7,0,4.1 c-0.4,0.1-0.8,0.3-1.1,0.3C981,1013.4,978.7,1014,976.6,1013.1z" class="st11"/><path d="M1008.9,1039.1c0.5,0,1,0,1.5,0c0.5,0,1-0.1,1.5-0.1c0.7,0,1.5,0,2.2,0.1c0.9,0.1,1.6-0.3,2.4-0.6 c0,1.4,0,2.8,0,4.2c-0.1,0-0.3,0-0.4,0.1c-0.3,0.6-0.9,0.5-1.4,0.5c-1,0-1.9,0-2.9,0c-1,0.1-2,0.2-2.9,0.3 C1008.9,1042.2,1008.9,1040.7,1008.9,1039.1z" class="st16"/><path d="M1023.6,1038.5c2.9,0,5.8,0,8.7,0c0,1.4,0,2.7,0,4.1c-2.6-0.1-5.2-0.1-7.7-0.2 C1024.3,1041.1,1024,1039.8,1023.6,1038.5z" class="st16"/><path d="M932.2,1009.5c1.3,0.6,2.7,0.5,4.1,0.5c0.7,0,1.5,0.1,2.2,0c0.5,0,0.9-0.3,1.3-0.4c0,1.5,0,2.9,0,4.4 c-0.4,0.1-0.8,0.4-1.1,0.4c-1.4,0-2.8-0.2-4.3-0.2c-0.8,0-1.6,0.1-2.3-0.3C932.2,1012.3,932.2,1010.9,932.2,1009.5z" class="st11"/><path d="M826.7,1036.3c0-0.1,0-0.2,0-0.3c0-0.1,0-0.2,0-0.3c0-0.1,0-0.2,0-0.3c0-0.1,0-0.2,0-0.3c0-0.1,0-0.2,0-0.3 c0.9,0.1,1.8,0.3,2.7,0.3c1.6,0,3.2,0,4.8,0c0,1.4,0,2.8,0,4.2c-0.4,0.1-0.8,0.1-1.2,0.1c-1.6,0-3.2,0-4.8,0 c-0.2,0-0.4-0.1-0.5-0.1c-0.3,0-0.6,0-0.9-0.1c0-0.9,0-1.8,0-2.7C826.7,1036.5,826.7,1036.4,826.7,1036.3z" class="st22"/><path d="M1024.6,1042.4c2.6,0.1,5.2,0.1,7.7,0.2c0,1.4,0,2.8,0,4.2c-0.5-0.1-1-0.1-1.5-0.1c-1.5,0-3.1,0-4.6,0 c-0.5,0-1.1,0.1-1.6,0.1C1024.7,1045.3,1024.6,1043.9,1024.6,1042.4z" class="st15"/><path d="M1024.7,999.9c0-1.2-0.1-2.4-0.1-3.7c0-0.2,0.3-0.5,0.5-0.5c2.2,0,4.3,0,6.5,0c0.5,0,0.8,0.2,0.7,0.8 c-0.1,1.1,0,2.3,0,3.4C1029.8,999.9,1027.3,999.9,1024.7,999.9z" class="st7"/><path d="M942,1027.6c0.7-0.1,1.3-0.2,2-0.2c2.3,0,4.5,0,6.8,0c1,0,1.9,0,2.8-0.5c1,0.9,1.2,2.1,1.2,3.3 c-0.7,0.1-1.5,0.1-2.2,0.1c-1.5,0-3,0-4.5,0c-0.6,0-1,0.1-1.2,0.6c-1.4-1-2.8-2-4.3-3C942.3,1027.9,942.2,1027.7,942,1027.6z" class="st9"/><path d="M931.9,1043.1c-0.1-1.2-0.1-2.4-0.2-3.6c0-0.6,0.2-0.9,0.9-0.9c2.1,0,4.1,0,6.2,0c0.2,0,0.5,0.2,0.7,0.3 c0,0.2,0,0.3,0,0.5c0,1,0,2.1,0,3.1c-0.4,0.1-0.9,0.1-1.3,0.2C936,1042.7,933.9,1042.9,931.9,1043.1z" class="st16"/><path d="M993.9,1039.8c2.1-0.1,4.2-0.1,6.3-0.2c0.5,0,0.9-0.1,1.4-0.1c0,1.3-0.1,2.6-0.1,3.9c-0.7,0.1-1.4,0.3-2,0.3 c-1.8,0.1-3.7,0.1-5.5,0.2C993.9,1042.5,993.9,1041.1,993.9,1039.8z" class="st16"/><path d="M826.7,1039.3c0.3,0,0.6,0,0.9,0.1c0.2,0,0.4,0.1,0.5,0.1c1.6,0,3.2,0,4.8,0c0.4,0,0.8-0.1,1.2-0.1 c0,1.4,0,2.8,0,4.2c-0.4,0.1-0.9,0.2-1.3,0.1c-1.3,0-2.6-0.1-3.9-0.1c-0.8,0-1.5,0.1-2.3,0.1 C826.7,1042.2,826.7,1040.8,826.7,1039.3z" class="st16"/><path d="M943.7,1020.7c-0.5,0.5-1.1,0.5-1.8,0.5c-2,0-4-0.1-5.9,0c-0.8,0-1.7,0.3-2.5,0.4c-0.9-1.1-1.4-2.3-1.3-3.7 c1.9,0,3.8,0,5.7,0c0.7,0,1.3-0.2,2-0.3C940.6,1019.3,942.3,1019.7,943.7,1020.7z" class="st21"/><path d="M849.2,1035.1c-1.1,0-2.2,0-3.2,0c-1.4,0-2.9,0-4.3,0c0-1.4,0-2.7,0-4.1c2.5,0,5,0,7.5,0 C849.2,1032.4,849.2,1033.7,849.2,1035.1z" class="st18"/><path d="M873.5,1020.9c2-0.1,4-0.1,6-0.2c0.3,0,0.6-0.2,0.8-0.3c0.2,0.8,0.3,1.7,0.5,2.5c0.1,0.7,0.2,1.5,0.3,2.2 c-1.7,0.1-3.4,0.1-5.1,0.2c-0.6,0-1.2,0.1-1.8,0.2c-0.2-1.2-0.4-2.4-0.6-3.6C873.6,1021.5,873.6,1021.2,873.5,1020.9z" class="st17"/><path d="M841.7,1039.5c2.5,0,5,0,7.5,0c0,1.4,0,2.7,0,4.1c-2.5,0-5,0-7.5,0C841.7,1042.2,841.7,1040.8,841.7,1039.5z" class="st16"/><path d="M901.3,1021.5c0-1.4,0-2.7,0-4.1c2.5,0.1,5.1,0.1,7.6,0.2c0,1.3,0,2.6,0,3.9 C906.3,1021.5,903.8,1021.5,901.3,1021.5z" class="st21"/><path d="M976.6,1020.9c0-1.3,0-2.6,0-3.9c1.2,0.8,2.5,0.5,3.7,0.4c1.3,0,2.7-0.2,4-0.3c0,1.4,0,2.7,0,4.1 c-0.7,0.1-1.5,0.1-2.2,0.2c-1.3,0.1-2.6,0.1-3.9,0.1c-0.3,0-0.5-0.1-0.8-0.2C977.1,1021.1,976.8,1021,976.6,1020.9z" class="st21"/><path d="M984.3,1017.1c-1.3,0.1-2.7,0.3-4,0.3c-1.3,0-2.6,0.4-3.7-0.4c0-1.3,0-2.6,0-3.9c2.2,0.9,4.4,0.3,6.6,0.4 c0.4,0,0.7-0.2,1.1-0.3C984.3,1014.5,984.3,1015.8,984.3,1017.1z" class="st13"/><path d="M826.7,1020.2c2.5,0.4,5-0.1,7.5,0.3c0,1.4,0,2.7,0,4.1c-2.5-0.1-5-0.1-7.5-0.2 C826.7,1023.1,826.7,1021.6,826.7,1020.2z" class="st17"/><path d="M954.6,1009.8c0,1.2,0,2.4,0,3.6c0,0.1-0.1,0.1-0.1,0.2c-0.1,0-0.1,0-0.2,0.1c-2.3,0-4.5,0-6.8,0 c-0.4,0-0.6-0.1-0.6-0.6c0.1-1.1,0.1-2.2,0.2-3.3c0.7-0.1,1.5-0.2,2.2-0.1C951.1,1009.7,952.8,1009.7,954.6,1009.8z" class="st11"/><path d="M984.3,1009.2c-2.2,0-4.4,0.1-6.5,0.1c-0.4,0-0.8-0.2-1.2-0.3c0-1.3,0-2.6,0-3.9c1.1,0.1,2.2,0.3,3.3,0.3 c1.5,0.1,3,0,4.4,0C984.3,1006.7,984.3,1007.9,984.3,1009.2z" class="st23"/><path d="M939.8,1005.2c-0.7,0.1-1.4,0.3-2.1,0.3c-1.9,0-3.7-0.1-5.6-0.1c-0.1-1.3,0-2.5,0.5-3.7c1.4,0,2.9,0,4.3,0 c1.2,0,2.4,0,3.6,0c0.4,0,0.9-0.1,1,0.6C940.2,1002.7,939.9,1003.3,939.8,1005.2z" class="st19"/><path d="M917.6,1040.6c0-1.4,0-2.7,0-4.1c0.4,0.1,0.9,0.3,1.3,0.3c2.1,0,4.1-0.1,6.2-0.1c0,1.3,0,2.7,0,4 c-0.5,0.1-0.9,0.2-1.4,0.2c-1.1,0-2.3-0.2-3.4-0.1C919.4,1040.8,918.5,1040.8,917.6,1040.6z" class="st20"/><path d="M908.9,1017.6c-2.5-0.1-5.1-0.1-7.6-0.2c0-1.3,0-2.6,0-3.9c2.5,0.1,5.1,0.1,7.6,0.2 C908.9,1015,908.9,1016.3,908.9,1017.6z" class="st13"/><path d="M855.3,1035.1c2.7,0,5.5,0,8.2,0c0.5,0,0.9-0.1,1.4-0.2c0,1.1,0,2.2,0,3.3c-0.5,0.1-0.9,0.1-1.4,0.1 c-2.4,0-4.8,0-7.2,0c-0.3-1-0.6-1.9-0.8-2.9c0-0.1-0.1-0.2-0.1-0.2C855.3,1035.2,855.3,1035.1,855.3,1035.1z" class="st22"/><path d="M901.3,1040.7c2.5,0,5,0,7.5,0c0,1.3,0,2.6,0,3.9c-0.9,0-1.8,0-2.8,0c-1.6,0-3.2,0-4.8,0 C901.3,1043.3,901.3,1042,901.3,1040.7z" class="st24"/><path d="M1016.5,1034c-2.2,1.1-4.4,0.5-6.7,0.5c-0.3,0-0.6,0.1-0.9,0.1c0-1.3,0-2.6,0-3.9c0.4,0,0.8,0,1.2,0 c2.1-0.2,4.3,0.4,6.4-0.6C1016.4,1031.4,1016.5,1032.7,1016.5,1034z" class="st18"/><path d="M925.1,1036.7c-2.1,0.1-4.1,0.1-6.2,0.1c-0.4,0-0.9-0.2-1.3-0.3c0-1.3,0-2.6,0-3.9c2,0.5,4.1,0.2,6.1,0.3 c0.5,0,1-0.1,1.5-0.2C925.1,1034,925.1,1035.3,925.1,1036.7z" class="st25"/><path d="M931.9,1043.1c2.1-0.2,4.1-0.3,6.2-0.5c0.4,0,0.9-0.1,1.3-0.2c0,0.7,0,1.4,0.1,2.2c0,0.1,0,0.1,0,0.2 c0.1,0.4,0.1,0.8,0.2,1.2c-0.2,0.1-0.3,0.2-0.5,0.3c-0.2,0.1-0.3,0.3-0.5,0.3c-1.6,0.1-3.2,0.1-4.9,0.2c-0.6,0-1.1,0-1.7,0 C932.1,1045.6,932,1044.3,931.9,1043.1z" class="st15"/><path d="M890.7,1035.8c-0.2-0.1-0.3-0.2-0.5-0.2c-2,0-4.1,0-6.1,0c0.2-1.5,0.4-2.9,0.6-4.4c2.3,0,4.5,0,6.8,0 C891.1,1032.7,890.9,1034.3,890.7,1035.8z" class="st18"/><path d="M976.6,1034.6c0-1.2,0-2.5,0-3.7c1.3,0.1,2.6,0.3,3.8,0.3c1.3,0,2.6,0.3,3.9-0.3c0,1.3,0,2.6,0,3.9 c-0.4,0.1-0.8,0.3-1.2,0.3c-1,0-1.9-0.1-2.9-0.1C979,1034.9,977.8,1035.2,976.6,1034.6z" class="st18"/><path d="M1001.6,1016c-2,0.2-4,0.3-6,0.4c-0.5,0-1.1-0.1-1.6-0.1c0-1.4,0-2.7,0-4.1c0.7,0.1,1.4,0.3,2.1,0.3 c0.6,0,1.2-0.1,1.8-0.1c1.3-0.1,2.5-0.2,3.8-0.3C1001.6,1013.4,1001.6,1014.7,1001.6,1016z" class="st13"/><path d="M917.6,1040.6c0.9,0.3,1.8,0.3,2.7,0.2c1.1-0.1,2.3,0.1,3.4,0.1c0.5,0,0.9-0.1,1.4-0.2c0,1.3,0,2.6,0,3.9 c-2.5,0-5,0.1-7.5-0.2C917.6,1043.2,917.6,1041.9,917.6,1040.6z" class="st24"/><path d="M939.8,1017.6c-0.7,0.1-1.3,0.3-2,0.3c-1.9,0-3.8,0-5.7,0c0-1.4,0-2.8,0-4.2c0.7,0.4,1.5,0.4,2.3,0.3 c1.4,0,2.8,0.1,4.3,0.2c0.4,0,0.8-0.2,1.1-0.4C939.8,1015.1,939.8,1016.3,939.8,1017.6z" class="st13"/><path d="M984.3,1005.4c-1.5,0-3,0-4.4,0c-1.1,0-2.2-0.2-3.3-0.3c0.2-1.1,0.3-2.3,0.5-3.4c2.8,0.1,5.6,0.1,8.4,0.2 c0.2,0,0.5,0.3,0.7,0.4c-0.8,0.4-1.4,0.8-1.6,1.7C984.4,1004.4,984.4,1004.9,984.3,1005.4z" class="st19"/><path d="M879.8,1015.7c-0.1,0.1-0.2,0.1-0.3,0.2c-2.2,0.1-4.4,0.2-6.6,0.3c-0.2-1.5-0.5-2.9-0.7-4.4 c2.4,0,4.8,0,7.2,0C879.5,1013.1,879.6,1014.4,879.8,1015.7z" class="st13"/><path d="M841.7,1017.1c2.5,0.1,5,0.1,7.5,0.2c0,1.2,0,2.5,0,3.7c-2.5,0-5,0-7.5,0 C841.7,1019.7,841.7,1018.4,841.7,1017.1z" class="st21"/><path d="M992.7,1002.6c0.3-0.5,0.8-0.6,1.4-0.6c2,0,3.9,0,5.9,0c0.4,0,0.8,0.1,1.1,0.1c0.1,1.1,0.2,2.3,0.3,3.4 c-2.5,0.1-5.1,0.1-7.6,0.2C993.8,1004.5,993.7,1003.4,992.7,1002.6z" class="st19"/><path d="M993.9,1020.7c1.3,0.1,2.5,0.2,3.8,0.1c1.1,0,2.2-0.2,3.3-0.4c0.2,0,0.4-0.1,0.6-0.1c0,1.2,0,2.4,0,3.6 c-1.1,0.2-2.2,0.4-3.3,0.4c-1.5,0.1-3,0-4.4,0C993.9,1023.2,993.9,1022,993.9,1020.7z" class="st17"/><path d="M864.9,1009.8c0,1.2,0,2.5,0,3.7c-0.6,0-1.2,0-1.8,0c-1.9-0.1-3.8-0.2-5.7-0.3c0-1.2,0-2.5,0-3.7 c0.7,0.1,1.5,0.3,2.2,0.3C861.4,1009.8,863.2,1009.8,864.9,1009.8z" class="st11"/><path d="M841.7,1021c2.5,0,5,0,7.5,0c0,1.2,0,2.5,0,3.7c-0.6,0-1.2,0.1-1.8,0.1c-1.9,0-3.8,0-5.8,0 C841.7,1023.6,841.7,1022.3,841.7,1021z" class="st17"/><path d="M895.6,1005.1c-0.2,1.3-0.4,2.6-0.6,3.9c-1.1,0-2.2,0-3.4,0c-1.3-0.1-2.5-0.2-3.8-0.3c0.1-1,0.2-2.1,0.3-3.1 c0-0.3,0.1-0.6,0.1-1c1.1,0.2,2.2,0.4,3.3,0.5C892.9,1005.1,894.3,1005.1,895.6,1005.1z" class="st12"/><path d="M834.1,1035.1c-1.6,0-3.2,0-4.8,0c-0.9,0-1.8-0.2-2.7-0.3c0-1.2,0-2.5,0-3.7c2.5,0.7,5,0,7.5,0.3 C834.2,1032.6,834.1,1033.8,834.1,1035.1z" class="st18"/><path d="M834.1,1016c-2.5-0.4-5,0.1-7.5-0.3c0-1.2,0-2.4,0-3.6c2.5,0,5,0,7.5,0C834.1,1013.4,834.1,1014.7,834.1,1016 z" class="st13"/><path d="M1032.3,1023.1c-2.3,0-4.6,0-6.9,0c-0.3,0-0.5-0.1-0.8-0.2c0-0.3,0-0.6,0.1-0.9c0-0.2,0-0.3,0-0.5 c0-0.1,0-0.2,0-0.3c0,0,0,0,0,0c0-0.1,0-0.2,0-0.3c0-0.5,0-0.9,0-1.4c0.9-0.1,1.8-0.1,2.6-0.1c1.7,0,3.3,0,5,0 C1032.3,1020.6,1032.3,1021.8,1032.3,1023.1z" class="st17"/><path d="M961.9,1020.6c0-1.2,0-2.5,0-3.7c2.4-0.1,4.8-0.1,7.3-0.2c0,1.2,0,2.5,0,3.7c-1.4,0.1-2.8,0.3-4.2,0.3 C964,1020.7,963,1020.6,961.9,1020.6z" class="st14"/><path d="M887.8,1008.7c1.3,0.1,2.5,0.2,3.8,0.3c1.1,0.1,2.2,0,3.4,0c-0.2,1.2-0.4,2.5-0.6,3.7 c-0.9,0.1-1.7,0.2-2.6,0.1c-1.5,0-3.1-0.1-4.6-0.1C887.4,1011.4,887.6,1010,887.8,1008.7z" class="st11"/><path d="M1008.9,1043.7c1-0.1,2-0.2,2.9-0.3c1-0.1,1.9,0,2.9,0c0.5,0,1.1,0.1,1.4-0.5c0-0.1,0.2-0.1,0.4-0.1 c0,1.3,0,2.5,0,3.8c-0.8,0.8-1.8,0.5-2.9,0.5c-1.6,0-3.1,0.2-4.7,0.3C1008.9,1046.1,1008.9,1044.9,1008.9,1043.7z" class="st26"/><path d="M1001.6,1030.7c-2.2,0.6-4.5,0.2-6.7,0.3c-0.3,0-0.7,0.1-1,0.2c0-1.2,0-2.5,0-3.7c2.6-0.1,5.2-0.1,7.7-0.2 C1001.6,1028.4,1001.6,1029.6,1001.6,1030.7z" class="st9"/><path d="M976.6,1034.6c1.2,0.6,2.4,0.2,3.7,0.3c1,0.1,1.9,0.1,2.9,0.1c0.4,0,0.8-0.2,1.2-0.3c0,1.1,0,2.3,0,3.4 c-0.4,0.1-0.7,0.4-1.1,0.4c-1.6,0.1-3.2,0.1-4.8,0c-0.6,0-1.2-0.3-1.8-0.4C976.6,1037,976.6,1035.8,976.6,1034.6z" class="st22"/><path d="M976.6,1020.9c0.3,0.1,0.5,0.3,0.8,0.4c0.3,0.1,0.5,0.2,0.8,0.2c1.3,0,2.6-0.1,3.9-0.1c0.7,0,1.5-0.1,2.2-0.2 c0,1.2,0,2.4,0,3.6c-1.6,0.1-3.3,0.1-4.9,0.2c-1,0-2,0.1-2.8-0.5C976.6,1023.3,976.6,1022.1,976.6,1020.9z" class="st17"/><path d="M895.6,1005.1c-1.3,0-2.7,0.1-4,0c-1.1-0.1-2.2-0.3-3.3-0.5c0.2-1.2,0.4-2.4,0.6-3.6c1.1,0.1,2.1,0.3,3.2,0.3 c1.4,0.1,2.8,0,4.2,0C896,1002.6,895.8,1003.8,895.6,1005.1z" class="st19"/><path d="M961.9,1020.6c1.1,0.1,2.1,0.2,3.2,0.1c1.4,0,2.8-0.2,4.2-0.3c0,1.3,0,2.5,0,3.8c-0.4,0.1-0.8,0.1-1.1,0.2 c-2.1,0-4.1,0-6.2,0C961.9,1023.1,961.9,1021.8,961.9,1020.6z" class="st17"/><path d="M908.8,1036.2c-2.5,0-5,0-7.5,0c0-1.2,0-2.4,0-3.6c1.1,0,2.3,0,3.4,0c1.4,0,2.8,0,4.1,0 C908.8,1033.8,908.8,1035,908.8,1036.2z" class="st25"/><path d="M993.9,1043.8c1.8-0.1,3.7-0.1,5.5-0.2c0.7,0,1.4-0.2,2-0.3c-0.1,1.3-0.2,2.6-0.3,3.9c-2-0.1-4.1-0.1-6.1-0.2 c-0.2,0-0.3,0-0.5,0c-1.1,0.1-1.1,0.1-1.3-0.9C993.5,1045.4,993.7,1044.6,993.9,1043.8z" class="st26"/><path d="M917.6,1021.3c2.5,0.6,5,0.2,7.6,0.3c0,1.1,0,2.3,0,3.4c-1.2,0-2.4,0-3.6,0c-0.3,0-0.6,0.1-0.9,0.1 c-0.7,0-1.5-0.1-2.2-0.2c-0.2,0-0.5,0-0.8,0C917.6,1023.8,917.6,1022.6,917.6,1021.3z" class="st17"/><path d="M893.7,1016.6c-0.2,1.2-0.4,2.5-0.6,3.7c-2.3,0-4.7,0-7,0c0.2-1.1,0.3-2.1,0.5-3.2c0-0.2,0.1-0.4,0.2-0.6 C889,1016.6,891.4,1016.6,893.7,1016.6z" class="st14"/><path d="M841.7,1043.5c2.5,0,5,0,7.5,0c0,1.2,0,2.4,0,3.6c-2.5,0-5,0-7.5,0C841.7,1045.9,841.7,1044.7,841.7,1043.5z" class="st26"/><path d="M908.9,1013.7c-2.5-0.1-5.1-0.1-7.6-0.2c0-1.2,0-2.4,0-3.6c0.7,0.1,1.4,0.1,2.2,0.2c1.8,0.1,3.6,0.1,5.4,0.2 C908.9,1011.4,908.9,1012.5,908.9,1013.7z" class="st11"/><path d="M961.9,1043.7c0-1.2,0-2.4,0-3.6c2.4-0.1,4.9,0.2,7.3-0.2c0,1.1,0,2.3,0,3.4c-0.8,0.6-1.8,0.3-2.7,0.3 C965,1043.7,963.5,1043.7,961.9,1043.7z" class="st16"/><path d="M865,1023.2c-2.3,0-4.6,0-6.9,0c-0.2,0-0.5,0-0.7,0c0-1.1,0-2.3,0.1-3.4c0.8,0,1.7,0,2.5,0c0.5,0,1,0,1.5,0 c1.2,0,2.4,0,3.5,0C865,1020.9,865,1022.1,865,1023.2z" class="st17"/><path d="M1032.3,1019.3c-1.7,0-3.3,0-5,0c-0.9,0-1.8,0.1-2.6,0.1c0-1.1,0-2.3,0.1-3.4c2.1-0.2,4.2-0.5,6.3-0.2 c0.4,0.1,0.9,0,1.3,0C1032.3,1017,1032.3,1018.2,1032.3,1019.3z" class="st14"/><path d="M901.3,1021.5c2.5,0,5.1,0,7.6,0c0,0.8,0,1.5,0,2.3c0,0.1,0,0.1,0,0.2c0,0.2,0,0.5,0,0.7 c0,0.1-0.1,0.2-0.1,0.3c-2.1,0-4.2,0-6.3,0c-0.4,0-0.8-0.1-1.1-0.1C901.3,1023.8,901.3,1022.6,901.3,1021.5z" class="st17"/><path d="M954.7,1036.3c0,1.2,0,2.4,0,3.6c-0.8,0-1.6,0.1-2.4,0.1c-0.6,0-1.2-0.1-1.9-0.1c-1.1,0-2.2,0-3.2,0 c0-1.2,0-2.4,0-3.6c0.2,0.1,0.4,0.1,0.6,0.1C950.1,1036.4,952.4,1036.4,954.7,1036.3z" class="st20"/><path d="M993.8,1005.7c2.5-0.1,5.1-0.1,7.6-0.2c0.1,1.1,0.1,2.2,0.2,3.3c-1.6,0.1-3.1,0.2-4.7,0.3 c-1,0.1-2,0.1-2.9,0.2C993.9,1008.1,993.9,1006.9,993.8,1005.7z" class="st23"/><path d="M969.2,1009.8c0,1.1,0,2.3,0,3.4c-0.9,0.1-1.7,0.3-2.6,0.3c-0.7,0-1.5-0.1-2.2-0.1c-0.8,0.1-1.6,0.2-2.4-0.2 c0-1.2,0-2.4,0-3.6c0.7,0.1,1.4,0.3,2,0.3c0.8,0,1.7-0.1,2.5-0.1C967.4,1009.8,968.3,1009.8,969.2,1009.8z" class="st11"/><path d="M893.7,1016.6c-2.3,0-4.7,0-7,0c0.2-1.3,0.3-2.6,0.5-3.9c1.5,0.1,3.1,0.1,4.6,0.1c0.9,0,1.7-0.1,2.6-0.1 C894.1,1014,893.9,1015.3,893.7,1016.6z" class="st13"/><path d="M857.4,1000.1c2.5,0.1,5,0.1,7.5,0.2c0,1.1,0,2.3,0,3.4c-2.5-0.1-5-0.1-7.6-0.2 C857.4,1002.4,857.4,1001.2,857.4,1000.1z" class="st10"/><path d="M925.2,1012.7c-1-0.1-2-0.1-2.9-0.1c-1,0-2.1,0.1-3.1,0.1c-0.5,0-1-0.2-1.5-0.3c0-1.1,0-2.3,0-3.4 c2.5,0.1,5,0.2,7.5,0.3C925.2,1010.5,925.2,1011.6,925.2,1012.7z" class="st11"/><path d="M826.7,1043.7c0.8-0.1,1.5-0.2,2.3-0.1c1.3,0,2.6,0.1,3.9,0.1c0.4,0,0.9-0.1,1.3-0.1c0,1.1,0,2.3,0,3.4 c-0.8,0.3-1.6,0.1-2.4,0.1c-1.7,0-3.4,0.2-5.1,0.3C826.7,1046.1,826.7,1044.9,826.7,1043.7z" class="st26"/><path d="M878.2,1004.3c0.2,0.9,0.3,1.9,0.5,2.8c0,0.3,0.1,0.5,0.1,0.8c-0.7,0.1-1.3,0.3-2,0.3 c-1.7,0.1-3.5,0.2-5.2,0.3c-0.2-1.3-0.4-2.5-0.6-3.8c1.8,0,3.6,0,5.4,0C877,1004.7,877.6,1004.5,878.2,1004.3z" class="st12"/><path d="M969.2,1039.9c-2.4,0.4-4.9,0-7.3,0.2c0-1.1,0-2.3,0-3.4c0.4,0,0.8-0.1,1.1-0.1c2.1,0,4.2,0.4,6.2-0.2 C969.2,1037.5,969.2,1038.7,969.2,1039.9z" class="st20"/><path d="M1024.7,999.9c2.5,0,5.1,0,7.6,0c0,1.2,0,2.4,0,3.6c-0.5-0.1-1.1-0.3-1.6-0.3c-2.1,0-4.1,0-6.2,0 C1024.6,1002.1,1024.7,1001,1024.7,999.9z" class="st10"/><path d="M901.3,1004c1.8,0,3.5,0,5.3,0c0.9,0,1.8,0.1,2.7,0.2c-0.5,1-0.4,2.2-0.4,3.3c-2.5-0.1-5.1-0.1-7.6-0.2 C901.3,1006.2,901.3,1005.1,901.3,1004z" class="st27"/><path d="M891.4,1031.2c-2.3,0-4.5,0-6.8,0c0.2-1.3,0.4-2.6,0.6-3.9c1,0.1,2.1,0.3,3.1,0.3c1.2,0,2.5-0.1,3.7-0.1 C891.8,1028.7,891.6,1029.9,891.4,1031.2z" class="st9"/><path d="M834.2,1031.3c-2.5-0.3-5,0.3-7.5-0.3c0-1.1,0-2.2,0-3.3c2.5,0.1,5,0.1,7.5,0.2 C834.2,1029,834.2,1030.2,834.2,1031.3z" class="st9"/><path d="M1016.4,1020.7c0,1.1,0,2.2,0,3.3c-0.7,0.4-1.5,0.5-2.4,0.5c-1.7,0-3.4,0-5.2,0c0-1.1,0-2.3,0-3.4 c1.5,0,3.1-0.1,4.6,0C1014.5,1021.1,1015.5,1021.3,1016.4,1020.7z" class="st17"/><path d="M984.3,1030.9c-1.3,0.6-2.6,0.3-3.9,0.3c-1.3,0-2.6-0.2-3.8-0.3c0-1.1,0-2.2,0-3.3c2.6,0.6,5.1,0.3,7.7,0.2 C984.3,1028.8,984.3,1029.8,984.3,1030.9z" class="st9"/><path d="M886.1,1020.4c2.3,0,4.7,0,7,0c-0.2,1.2-0.4,2.4-0.6,3.6c-1.1,0-2.2-0.1-3.2,0c-1.2,0.1-2.5,0.3-3.6-0.3 C885.8,1022.6,885.9,1021.5,886.1,1020.4z" class="st17"/><path d="M871.7,1008.5c1.7-0.1,3.5-0.2,5.2-0.3c0.7,0,1.3-0.2,2-0.3c0.2,1.3,0.3,2.6,0.5,3.9c-2.4,0-4.8,0-7.2,0 C872,1010.7,871.8,1009.6,871.7,1008.5z" class="st11"/><path d="M954.6,1046.6c-1.7,0-3.5,0-5.2,0c-0.6,0-1.1,0-1.7,0c-0.3,0-0.5-0.4-0.7-0.6c0.1-0.9,0.2-1.9,0.2-2.8 c0.5,0.1,1,0.2,1.5,0.2c1.2,0,2.4-0.2,3.6-0.1c0.8,0.1,1.6,0.2,2.4-0.2C954.7,1044.2,954.6,1045.4,954.6,1046.6z" class="st15"/><path d="M994,1009.3c1-0.1,2-0.1,2.9-0.2c1.6-0.1,3.1-0.2,4.7-0.3c0,1.1,0,2.2,0,3.3c-1.3,0.1-2.5,0.2-3.8,0.3 c-0.6,0-1.2,0.2-1.8,0.1c-0.7,0-1.4-0.2-2.1-0.3C994,1011.3,994,1010.3,994,1009.3z" class="st11"/><path d="M961.9,1043.7c1.6,0,3.1,0,4.7,0c0.9,0,1.8,0.3,2.7-0.3c0,1.1,0,2.3,0,3.4c-1,0.6-2,0.2-3,0.2 c-1.4,0-2.9,0.1-4.4,0.1C961.9,1046,961.9,1044.8,961.9,1043.7z" class="st26"/><path d="M878.2,1004.3c-0.6,0.2-1.2,0.4-1.8,0.5c-1.8,0.1-3.6,0-5.4,0c-0.2-0.8-0.3-1.7-0.5-2.5 c-0.1-0.3-0.1-0.6-0.1-1c2.5,0,5,0,7.5,0C878,1002.3,878.1,1003.3,878.2,1004.3z" class="st19"/><path d="M865,1019.8c-1.2,0-2.4,0-3.5,0c-0.5,0-1,0-1.5,0c-0.8,0-1.7,0-2.5,0c0-1.2,0-2.4,0-3.6 c0.8,0.1,1.7,0.2,2.5,0.3c0.4,0.1,0.9,0.1,1.3,0.1c1.2,0,2.5,0,3.7,0C865,1017.7,865,1018.7,865,1019.8z" class="st14"/><path d="M834.1,1002.4c0,1.1,0,2.2,0,3.3c-2.5-0.1-5-0.1-7.5-0.2c0-1.1,0-2.2,0-3.3c2.1,0,4.1,0,6.2,0 C833.3,1002.3,833.7,1002.4,834.1,1002.4z" class="st19"/><path d="M826.7,998.8c0-0.9,0-1.7,0-2.6c0-0.5,0.2-0.6,0.6-0.6c0.9,0,1.8,0,2.7,0c1.4,0,2.8,0,4.2,0c0,1.2,0,2.3,0,3.4 c-1.8,0-3.5,0-5.3,0C828.1,999.1,827.4,998.9,826.7,998.8z" class="st7"/><path d="M1032.3,1015.9c-0.4,0-0.9,0.1-1.3,0c-2.1-0.4-4.2,0-6.3,0.2c0-1.1,0-2.2,0-3.3c1.4-0.1,2.8-0.3,4.2-0.3 c1.1,0,2.3,0.1,3.4,0.1C1032.3,1013.7,1032.3,1014.8,1032.3,1015.9z" class="st13"/><path d="M834.2,1027.9c-2.5-0.1-5-0.1-7.5-0.2c0-1.1,0-2.2,0-3.3c2.5,0.1,5,0.1,7.5,0.2 C834.1,1025.7,834.2,1026.8,834.2,1027.9z" class="st8"/><path d="M849.2,1031c-2.5,0-5,0-7.5,0c0-1,0-2.1,0-3.1c0.5-0.1,0.9-0.2,1.4-0.2c2.1,0,4.1,0.1,6.1,0.1 C849.2,1028.9,849.2,1030,849.2,1031z" class="st9"/><path d="M962,1013.2c0.8,0.4,1.6,0.3,2.4,0.2c0.7-0.1,1.5,0.1,2.2,0.1c0.9,0,1.7-0.2,2.6-0.3c0,1.1,0,2.3,0,3.4 c-2.4,0.1-4.8,0.1-7.3,0.2C962,1015.6,962,1014.4,962,1013.2z" class="st13"/><path d="M1032.3,1012.6c-1.1-0.1-2.3-0.2-3.4-0.1c-1.4,0-2.8,0.2-4.2,0.3c0-1.1,0-2.2,0-3.3c2.5,0,5,0,7.5,0 C1032.3,1010.5,1032.3,1011.5,1032.3,1012.6z" class="st11"/><path d="M954.8,1043.1c-0.8,0.4-1.6,0.3-2.4,0.2c-1.2-0.1-2.4,0.1-3.6,0.1c-0.5,0-1-0.1-1.5-0.2c0-1.1,0-2.2,0-3.3 c1.1,0,2.2,0,3.2,0c0.6,0,1.2,0.1,1.9,0.1c0.8,0,1.6-0.1,2.4-0.1C954.7,1041,954.8,1042,954.8,1043.1z" class="st16"/><path d="M976.6,1038.2c0.6,0.2,1.2,0.4,1.8,0.4c1.6,0,3.2,0,4.8,0c0.4,0,0.7-0.3,1.1-0.4c0,1.1,0,2.2,0,3.3 c-0.6,0.1-1.2,0.3-1.8,0.3c-0.7,0-1.5,0-2.2-0.1c-1.2-0.2-2.5,0.3-3.7-0.3C976.6,1040.3,976.6,1039.3,976.6,1038.2z" class="st16"/><path d="M1016.4,1030.1c-2,1.1-4.3,0.5-6.4,0.6c-0.4,0-0.8,0-1.2,0c0-1,0-2.1,0-3.1c1.3-0.1,2.7-0.1,4-0.2 c0.8,0,1.6,0,2.4,0c0.4,0,0.8-0.2,1.2-0.3C1016.4,1028.1,1016.4,1029.1,1016.4,1030.1z" class="st9"/><path d="M834.1,1012.1c-2.5,0-5,0-7.5,0c0-1,0-2.1,0-3.1c0.4-0.1,0.8-0.2,1.2-0.1c2.1,0,4.2,0.1,6.3,0.1 C834.1,1010,834.1,1011.1,834.1,1012.1z" class="st11"/><path d="M834.1,1009c-2.1-0.1-4.2-0.1-6.3-0.1c-0.4,0-0.8,0.1-1.2,0.1c0-1.1,0-2.3,0-3.4c2.5,0.1,5,0.1,7.5,0.2 C834.1,1006.8,834.1,1007.9,834.1,1009z" class="st23"/><path d="M976.6,1041.3c1.2,0.6,2.5,0.1,3.7,0.3c0.7,0.1,1.5,0.2,2.2,0.1c0.6,0,1.2-0.2,1.8-0.3c0,1,0,2.1,0,3.1 c-0.4,0.1-0.8,0.2-1.1,0.1c-2.2-0.2-4.4,0.4-6.6-0.1C976.6,1043.5,976.6,1042.4,976.6,1041.3z" class="st24"/><path d="M856.3,1038.4c2.4,0,4.8,0,7.2,0c0.5,0,0.9-0.1,1.4-0.1c0,1,0,2,0,3c-0.6,0.1-1.3,0.1-1.9,0.1 c-2,0.1-3.9,0.1-5.9,0.2C856.8,1040.4,856.6,1039.4,856.3,1038.4z" class="st16"/><path d="M1024.6,1003.2c2.1,0,4.1,0,6.2,0c0.5,0,1.1,0.2,1.6,0.3c0,1,0,2.1,0,3.1c-0.7-0.1-1.5-0.3-2.2-0.3 c-1.8,0-3.6,0.1-5.4,0.1c0-0.8-0.1-1.5-0.1-2.3C1024.7,1003.9,1024.6,1003.5,1024.6,1003.2z" class="st27"/><path d="M857.1,1041.5c2-0.1,3.9-0.1,5.9-0.2c0.6,0,1.3-0.1,1.9-0.1c0,1.1,0,2.2,0,3.3c-2.5,0-5,0-7.5-0.3 C857.3,1043.3,857.2,1042.4,857.1,1041.5z" class="st24"/><path d="M961.9,1024.3c2.1,0,4.1,0,6.2,0c0.4,0,0.8-0.1,1.1-0.2c0,1.1,0,2.2,0,3.3c-1,0-2,0-3,0c-1.4,0-2.9,0-4.3,0 C961.9,1026.4,961.9,1025.3,961.9,1024.3z" class="st8"/><path d="M826.7,998.8c0.7,0.1,1.5,0.3,2.2,0.3c1.8,0,3.5,0,5.3,0c0,1.1,0,2.2,0,3.3c-0.4-0.1-0.9-0.1-1.3-0.1 c-2.1,0-4.1,0-6.2,0C826.7,1001.1,826.7,1000,826.7,998.8z" class="st5"/><path d="M885.6,1023.7c1.2,0.6,2.4,0.5,3.6,0.3c1.1-0.1,2.2,0,3.2,0c-0.2,1.1-0.3,2.3-0.5,3.4 c-1.2,0.1-2.5,0.2-3.7,0.1c-1,0-2.1-0.2-3.1-0.3c0.1-0.9,0.2-1.8,0.3-2.8C885.5,1024.2,885.6,1024,885.6,1023.7z" class="st8"/><path d="M864.9,1016.7c-1.2,0-2.5,0-3.7,0c-0.4,0-0.9-0.1-1.3-0.1c-0.8-0.1-1.7-0.2-2.5-0.3c0-1,0-2,0-3 c1.9,0.1,3.8,0.2,5.7,0.3c0.6,0,1.2,0,1.8,0C864.9,1014.6,864.9,1015.6,864.9,1016.7z" class="st13"/><path d="M954.7,1036.3c-2.3,0.1-4.6,0.1-6.9,0.1c-0.2,0-0.4-0.1-0.6-0.1c0-1,0-2.1-0.1-3.1c0-0.1-0.1-0.1-0.1-0.2 c0,0,0-0.1,0-0.1c0.8,0.6,1.8,0.5,2.7,0.5c1,0,2.1,0,3.1,0c0.6,0,1.2-0.2,1.8-0.3C954.8,1034.1,954.8,1035.2,954.7,1036.3z" class="st25"/><path d="M1001.6,1027.3c-2.6,0.1-5.2,0.1-7.7,0.2c0-1,0-2,0-3c1.5,0,3,0.1,4.4,0c1.1-0.1,2.2-0.3,3.3-0.4 C1001.6,1025.1,1001.6,1026.2,1001.6,1027.3z" class="st8"/><path d="M857.4,1003.5c2.5,0.1,5,0.1,7.6,0.2c0,1,0,2.1,0,3.1c-1.2,0-2.4,0-3.6,0c-1.3-0.1-2.6-0.2-3.9-0.3 C857.4,1005.5,857.4,1004.5,857.4,1003.5z" class="st27"/><path d="M944.6,1002.1c0.1-0.6,0.5-0.6,1-0.6c2.5,0,5.1,0,7.6,0c0.3,0,0.5-0.1,0.8-0.2c0.2,1,0.4,2,0.6,3 c-2.5,0-5.1,0-7.6,0C946.8,1002.9,945.9,1002.3,944.6,1002.1z" class="st19"/><path d="M984.3,1027.7c-2.6,0.2-5.2,0.4-7.7-0.2c0-1,0-2.1,0-3.1c0.9,0.6,1.9,0.5,2.8,0.5c1.6,0,3.3-0.1,4.9-0.2 C984.3,1025.8,984.3,1026.8,984.3,1027.7z" class="st8"/><path d="M1016.4,1027.1c-0.4,0.1-0.8,0.3-1.2,0.3c-0.8,0-1.6,0-2.4,0c-1.3,0-2.7,0.1-4,0.2c0-1,0-2.1,0-3.1 c1.7,0,3.4,0,5.2,0c0.8,0,1.6-0.1,2.4-0.5C1016.4,1025,1016.4,1026.1,1016.4,1027.1z" class="st8"/><path d="M969.3,1003.7c0,1,0,2,0,3c-2.1,0.1-4.2,0.1-6.3,0.2c-0.4,0-0.8-0.1-1.1-0.1c0-1,0.1-2,0.1-3 C964.4,1003.7,966.8,1003.7,969.3,1003.7z" class="st27"/><path d="M969.3,1036.3c-2.1,0.6-4.2,0.3-6.2,0.2c-0.4,0-0.8,0.1-1.1,0.1c0-1,0-2.1,0-3.1c0.6,0,1.2,0,1.8,0 c1.9-0.1,3.8,0.3,5.6-0.1C969.3,1034.4,969.3,1035.3,969.3,1036.3z" class="st25"/><path d="M857.4,1006.5c1.3,0.1,2.6,0.2,3.9,0.3c1.2,0.1,2.4,0,3.6,0c0,1,0,2,0,3c-1.8,0-3.6,0-5.3,0 c-0.7,0-1.5-0.2-2.2-0.3C857.4,1008.5,857.4,1007.5,857.4,1006.5z" class="st23"/><path d="M961.9,1027.4c1.4,0,2.9,0,4.3,0c1,0,2,0,3,0c0,1,0,2,0,3c-0.5,0.1-0.9,0.1-1.4,0.2c-2,0-4,0-6,0 C961.9,1029.5,961.9,1028.5,961.9,1027.4z" class="st9"/><path d="M1024.8,1006.5c1.8-0.1,3.6-0.1,5.4-0.1c0.7,0,1.5,0.2,2.2,0.3c0,0.9,0,1.9,0,2.8c-2.5,0-5,0-7.5,0 C1024.8,1008.5,1024.8,1007.5,1024.8,1006.5z" class="st23"/><path d="M849.2,1027.9c-2-0.1-4.1-0.1-6.1-0.1c-0.5,0-0.9,0.1-1.4,0.2c0-1,0-2,0-3c1.9,0,3.8,0,5.8,0 c0.6,0,1.2-0.1,1.8-0.1C849.2,1025.8,849.2,1026.9,849.2,1027.9z" class="st8"/><path d="M954.8,1033.1c-0.6,0.1-1.2,0.3-1.8,0.3c-1,0-2.1,0-3.1,0c-0.9,0-1.9,0.1-2.7-0.5c-0.1-0.6-0.2-1.3-0.3-1.9 c0.3-0.5,0.7-0.6,1.2-0.6c1.5,0,3,0,4.5,0c0.7,0,1.5-0.1,2.2-0.1C954.7,1031.2,954.7,1032.1,954.8,1033.1z" class="st6"/><path d="M874.3,1025.4c0.6-0.1,1.2-0.1,1.8-0.2c1.7-0.1,3.4-0.1,5.1-0.2c0.2,1.1,0.3,2.3,0.5,3.4c-2.3,0-4.6,0-6.8,0 C874.7,1027.5,874.5,1026.4,874.3,1025.4z" class="st8"/><path d="M961.8,1006.7c0.4,0.1,0.8,0.2,1.1,0.1c2.1,0,4.2-0.1,6.3-0.2c0,1,0,2.1,0,3.1c-0.9,0-1.8,0-2.8,0 c-0.8,0-1.7,0.1-2.5,0.1c-0.7,0-1.4-0.2-2-0.3C961.9,1008.6,961.9,1007.6,961.8,1006.7z" class="st23"/><path d="M961.9,1030.6c2,0,4,0,6,0c0.5,0,0.9-0.1,1.4-0.2c0,1,0,2,0,3c-1.9,0.4-3.7,0-5.6,0.1c-0.6,0-1.2,0-1.8,0 C961.9,1032.5,961.9,1031.5,961.9,1030.6z" class="st18"/><path d="M874.8,1028.5c2.3,0,4.6,0,6.8,0c0.1,0.9,0.2,1.8,0.3,2.6c-0.3,0.5-0.7,0.6-1.2,0.6c-1.8,0-3.7,0.1-5.5,0.1 c-0.1-0.9-0.3-1.8-0.4-2.8C874.8,1029,874.8,1028.7,874.8,1028.5z" class="st6"/><path d="M875.3,1032c1.8-0.1,3.7-0.1,5.5-0.1c0.6,0,1-0.2,1.2-0.6c0.2,0.9,0.3,1.9,0.5,2.8c0.1,0.3,0.1,0.6,0.1,1 c-2.2,0.1-4.5,0.1-6.7,0.2c-0.2-0.8-0.3-1.7-0.5-2.5C875.4,1032.3,875.3,1032.2,875.3,1032z" class="st18"/><path d="M857.4,1044.1c2.5,0.3,5,0.3,7.5,0.3c0,1,0,2,0,3c-1.1-0.1-2.1-0.2-3.2-0.3c-0.6,0-1.2,0-1.9,0.1 c-0.9,0.1-1.7,0.2-2.5-0.1C857.4,1046.1,857.4,1045.1,857.4,1044.1z" class="st26"/><path d="M925.2,1009.3c-2.5-0.1-5-0.2-7.5-0.3c0-0.9,0-1.9,0-2.8c0.3,0.1,0.7,0.1,1,0.1c2.2,0,4.4,0,6.6,0 C925.2,1007.3,925.2,1008.3,925.2,1009.3z" class="st23"/><path d="M917.6,1044.5c2.5,0.3,5,0.2,7.5,0.2c0,1,0,2,0,3c-1.2-0.1-2.3-0.1-3.5-0.1c-0.7,0-1.3,0.1-2,0.1 c-0.7,0-1.3-0.1-2-0.1C917.6,1046.4,917.6,1045.4,917.6,1044.5z" class="st26"/><path d="M976.6,1044.6c2.2,0.6,4.4,0,6.6,0.1c0.4,0,0.8-0.1,1.1-0.1c0,0.8,0.4,1.4,1,2c-0.1,0.6-0.5,0.9-1.2,0.8 c-1.4,0-2.7,0-4.1,0c-1,0-2,0.1-3,0.1C976.9,1046.6,976.7,1045.6,976.6,1044.6z" class="st26"/><path d="M969.3,1003.7c-2.4,0-4.9,0-7.3,0c0-0.9,0-1.9,0-2.8c2.4-0.1,4.9-0.1,7.3-0.2 C969.2,1001.7,969.3,1002.7,969.3,1003.7z" class="st10"/><path d="M901.3,1044.6c1.6,0,3.2,0,4.8,0c0.9,0,1.8,0,2.8,0c0,1,0,2,0,3c-2.5-0.1-5-0.1-7.5-0.2 C901.3,1046.5,901.3,1045.6,901.3,1044.6z" class="st26"/><path d="M946.9,1004.3c2.5,0,5.1,0,7.6,0c0,0.9,0,1.9,0,2.8c-2.5,0-5,0-7.5,0C947,1006.2,947,1005.2,946.9,1004.3z" class="st27"/><path d="M889.2,998.5c0.1-0.8,0.1-1.5,0.3-2.3c0-0.2,0.4-0.5,0.6-0.5c2.3,0,4.5,0,7,0c-0.1,0.9-0.2,1.8-0.4,2.6 c-0.7,0.1-1.4,0.1-2.1,0.1C892.8,998.5,891,998.5,889.2,998.5z" class="st7"/><path d="M877.9,1001.3c-2.5,0-5,0-7.5,0c-0.1-0.9-0.2-1.8-0.3-2.7c1.2-0.1,2.4-0.1,3.6-0.2c1.2-0.1,2.5-0.1,3.7-0.2 c0.1,0.6,0.2,1.2,0.3,1.8C877.8,1000.6,877.8,1001,877.9,1001.3z" class="st5"/><path d="M877.4,998.4c-1.2,0.1-2.5,0.1-3.7,0.2c-1.2,0.1-2.4,0.1-3.6,0.2c-0.2-0.9-0.3-1.7-0.5-2.6 c0-0.1,0.3-0.3,0.5-0.3c2.2,0,4.3,0,6.5,0c0.7,0,0.6,0.5,0.6,0.9C877.4,997.1,877.4,997.8,877.4,998.4z" class="st7"/><path d="M961.8,998.5c0-0.8,0-1.5,0-2.3c0-0.2,0.3-0.5,0.5-0.5c2.1,0,4.3,0,6.4,0c0.2,0,0.5,0.3,0.5,0.5 c0,0.7,0,1.4-0.1,2.1C966.8,998.4,964.3,998.5,961.8,998.5z" class="st7"/><path d="M889.2,998.5c1.8,0,3.6,0,5.4,0c0.7,0,1.4-0.1,2.1-0.1c-0.2,1-0.3,2-0.5,3c-1.4,0-2.8,0-4.2,0 c-1.1,0-2.1-0.2-3.2-0.3C889,1000.2,889.1,999.4,889.2,998.5z" class="st5"/><path d="M901.3,1007.3c2.5,0.1,5.1,0.1,7.6,0.2c0,0.9,0,1.9,0,2.8c-1.8-0.1-3.6-0.1-5.4-0.2c-0.7,0-1.4-0.1-2.2-0.2 C901.3,1009,901.3,1008.2,901.3,1007.3z" class="st23"/><path d="M925.2,1006.3c-2.2,0-4.4,0-6.6,0c-0.3,0-0.7-0.1-1-0.1c-0.2-0.7-0.3-1.5-0.5-2.2c2.4-0.6,4.8-0.2,7.2-0.3 c0.3,0,0.5,0.1,0.8,0.1C925.1,1004.7,925.1,1005.5,925.2,1006.3z" class="st27"/><path d="M1017.7,1019.6c1.9-0.1,3.8-0.1,5.6-0.2c0.2,0.7,0.4,1.4,0.6,2c0.1,0.4,0.3,0.8,0.4,1.3 c-1.8,0.6-3.7,0.2-5.6,0.3C1018.4,1021.9,1018,1020.8,1017.7,1019.6z" class="st17"/><path d="M1016.4,1020.7c-0.9,0.6-1.9,0.4-2.9,0.3c-1.5-0.1-3.1,0-4.6,0c0-0.9,0-1.8,0-2.7c2,0.1,4,0.1,6,0.1 c0.5,0,1-0.4,1.5-0.6C1016.4,1018.8,1016.4,1019.8,1016.4,1020.7z" class="st21"/><path d="M947.1,1007.1c2.5,0,5,0,7.5,0c0,0.9,0,1.8,0,2.7c-1.8-0.1-3.5-0.1-5.3-0.1c-0.7,0-1.5,0.1-2.2,0.1 C947.1,1008.9,947.1,1008,947.1,1007.1z" class="st23"/><path d="M849.7,1017c1.9,0,3.7,0,5.6,0c0.3,1,0.6,2.1,0.9,3.1c-1.9,0.1-3.7,0.1-5.6,0.2 C850.3,1019.1,850,1018.1,849.7,1017z" class="st14"/><path d="M850.7,1020.2c1.9-0.1,3.7-0.1,5.6-0.2c0.2,0.8,0.4,1.6,0.7,2.3c-0.1,0.2-0.2,0.5-0.4,0.7 c-0.2,0.2-0.5,0.4-0.8,0.4c-1.1,0-2.3,0-3.4,0c-0.2,0-0.4,0.2-0.5,0.2C851.4,1022.6,851,1021.4,850.7,1020.2z" class="st17"/><path d="M961.8,998.5c2.5-0.1,4.9-0.1,7.4-0.2c0,0.8,0,1.6,0,2.3c-2.4,0.1-4.9,0.1-7.3,0.2 C961.9,1000.1,961.9,999.3,961.8,998.5z" class="st5"/><path d="M875.9,1035.1c2.2-0.1,4.5-0.1,6.7-0.2c0.1,0.8,0.2,1.6,0.3,2.3c-2.1,0-4.2-0.1-6.2-0.1 c-0.2,0-0.3,0.1-0.5,0.1c-0.1-0.6-0.2-1.1-0.3-1.7c0,0,0,0,0,0c0,0,0-0.1,0-0.1C875.9,1035.3,875.9,1035.2,875.9,1035.1z" class="st22"/><path d="M1011.3,965.1c-0.4,0.4,0.6,1.1-0.4,1.2c-0.5,0.1-0.7-0.1-0.7-0.6C1010.1,965,1010.6,965.1,1011.3,965.1z" class="st5"/><path d="M906.3,983.5c0-0.1,0-0.2,0-0.3c0.1,0.1,0.2,0.2,0.3,0.3C906.5,983.5,906.4,983.5,906.3,983.5z" class="st28"/><path d="M939.4,1039.3c0-0.2,0-0.3,0-0.5C939.4,1039,939.4,1039.2,939.4,1039.3z" class="st29"/><path d="M1024.7,1020.9c0,0.1,0,0.2,0,0.3C1024.7,1021.1,1024.7,1021,1024.7,1020.9z" class="st29"/><path d="M826.7,1036.3c0,0.1,0,0.2,0,0.3C826.7,1036.5,826.7,1036.4,826.7,1036.3z" class="st18"/><path d="M826.7,1035.7c0,0.1,0,0.2,0,0.3C826.7,1035.9,826.7,1035.8,826.7,1035.7z" class="st18"/><path d="M826.7,1035.1c0,0.1,0,0.2,0,0.3C826.7,1035.3,826.7,1035.2,826.7,1035.1z" class="st18"/><path d="M883.1,983.6c0.1,0,0.1,0,0.2,0C883.2,983.6,883.1,983.6,883.1,983.6z" class="st28"/><path d="M939.5,1044.8c0-0.1,0-0.1,0-0.2C939.4,1044.7,939.5,1044.7,939.5,1044.8z" class="st29"/><path d="M883.6,971.7c0-0.1,0-0.1,0-0.2C883.6,971.5,883.6,971.6,883.6,971.7z" class="st28"/><path d="M1001.1,1047.6c0,0,0-0.1,0-0.1c0,0,0,0,0.1,0C1001.1,1047.5,1001.1,1047.5,1001.1,1047.6z" class="st26"/><path d="M873.4,979.4c-0.1,0-0.1-0.1-0.2-0.1C873.2,979.4,873.3,979.4,873.4,979.4z" class="st30"/><path d="M947.1,1033c0,0.1,0.1,0.1,0.1,0.2C947.1,1033.2,947.1,1033.1,947.1,1033z" class="st30"/><path d="M988.5,967.9L988.5,967.9c-0.1,0-0.1,0-0.1,0C988.4,967.9,988.4,967.9,988.5,967.9z" class="st30"/><path d="M988,967.9c0,0-0.1,0-0.1,0C987.9,967.9,987.9,967.9,988,967.9z" class="st30"/><path d="M875.9,1035.4c0,0,0,0.1,0,0.1c0,0,0,0,0,0C875.9,1035.5,875.9,1035.4,875.9,1035.4z" class="st18"/><path d="M877.2,1043.1c0,0,0,0.1,0.1,0.1c0,0,0,0,0,0C877.1,1043.2,877.1,1043.1,877.2,1043.1z" class="st16"/><path d="M954.3,1013.6c0.1,0,0.1,0,0.2-0.1C954.4,1013.6,954.3,1013.6,954.3,1013.6z" class="st14"/><path d="M954.5,1013.6c0-0.1,0.1-0.1,0.1-0.2C954.5,1013.4,954.5,1013.5,954.5,1013.6z" class="st14"/><path d="M969.3,1048.5c0,0,0-0.1,0-0.1c0,0,0,0,0,0C969.3,1048.4,969.3,1048.5,969.3,1048.5z" class="st24"/><path d="M855.4,1035.2c0,0.1,0.1,0.2,0.1,0.2C855.4,1035.4,855.4,1035.3,855.4,1035.2z" class="st18"/><path d="M1016.4,1017.4c0-0.1,0-0.2,0-0.3C1016.4,1017.2,1016.4,1017.3,1016.4,1017.4z" class="st30"/><path d="M908.9,1032.6c0.2,0,0.3-0.1,0.5-0.1C909.3,1032.5,909.1,1032.5,908.9,1032.6z" class="st29"/><path d="M917.3,1032.4c0.1,0,0.1,0.1,0.2,0.1C917.4,1032.5,917.3,1032.5,917.3,1032.4z" class="st29"/><path d="M1028.5,969.7c0.4,2.4-0.1,4.3-2,5.9c-1.6,1.3-3,2.8-4.5,4.2c-0.1,0.1-0.2,0.2-0.3,0.4c0.4,0,0.6,0,0.9,0 c1.9,0,3.7,0,5.6,0c0.8,0,1,0.2,0.8,1c-0.4,1.7-0.9,2.1-2.7,2.2c-2.7,0-5.5,0-8.2,0.1c-0.3,0-0.5,0-0.7-0.1 c-0.4-1.9,0.1-3.5,1.6-4.8c2.8-2.6,5.5-5.3,8.3-8C1027.6,970.3,1028,970,1028.5,969.7z" class="st31"/><path d="M1020.8,968c0.7,0,1.4,0,2.2,0c0.1,0,0.2,0,0.4,0c1.2,0.1,2.3,0.1,3.5,0.2c0.6,0.1,0.8,0.4,0.3,0.9 c-0.7,0.7-1.3,1.4-2.1,2c-0.3,0.3-0.9,0.4-1.3,0.4c-0.8,0.1-1.6,0-2.4,0c-0.1,0.6-0.2,1.1-0.3,1.7c-0.9,0-1.8,0-2.6,0 c-0.2,0-0.6-0.2-0.6-0.4c-0.5-1.4,0.7-3.9,2.1-4.5c0.3-0.1,0.6-0.2,0.9-0.2C1020.7,968,1020.7,968,1020.8,968z" class="st31"/><path d="M1023.3,968c-0.1,0-0.2,0-0.4,0C1023.1,968,1023.2,968,1023.3,968z" class="st29"/><path d="M1020.8,968c-0.1,0-0.1,0-0.2,0C1020.7,968,1020.7,968,1020.8,968z" class="st29"/><path d="M986.2,1047.1C986.2,1047.1,986.3,1047.1,986.2,1047.1c0,0.1-0.1,0.2-0.1,0.3c0,0-0.1-0.1-0.1-0.1 C986.1,1047.2,986.2,1047.1,986.2,1047.1z" class="st26"/><path d="M987.2,1047.2c0.1,0,0.1,0,0.2,0C987.3,1047.2,987.3,1047.2,987.2,1047.2z" class="st15"/><path d="M908.9,1024.8c0,0.2,0.1,0.4,0.1,0.6c-0.1-0.1-0.1-0.2-0.2-0.3C908.8,1025,908.9,1024.9,908.9,1024.8z" class="st29"/><path d="M908.9,1023.8c0,0.1,0,0.1,0,0.2C908.9,1023.9,908.9,1023.9,908.9,1023.8z" class="st29"/></g><g><path d="M41.9,1011.3l-4.5-3.2l3.7-3.6l-5.1-0.7l1.7-5.2l4.6,2.4l-0.9-5.1h5.5L46,1001l4.6-2.4l1.7,5.2l-5.1,0.7 l3.7,3.6l-4.5,3.2l-2.3-4.6L41.9,1011.3z" class="st32"/><path d="M56.2,1027.3v-30.1h6.3v30.1H56.2z" class="st32"/><path d="M69.6,1027.3v-30.1h5.6l13.6,19.6v-19.6h6v30.1h-5.6l-13.6-19.6v19.6H69.6z" class="st32"/><path d="M114.3,1027.9c-4.5,0-7.9-1.3-10.2-3.9c-2.3-2.6-3.5-6.2-3.5-10.9v-1.7c0-3,0.5-5.7,1.6-7.9 c1.1-2.2,2.6-3.9,4.6-5.1c2-1.2,4.5-1.8,7.4-1.8h0.3c3.1,0,5.6,0.7,7.6,2c2,1.3,3.5,3.3,4.3,5.7l-5.8,2.1c-0.4-1.5-1.1-2.6-2.2-3.3 c-1.1-0.7-2.4-1-3.9-1h-0.3c-2.3,0-4.2,0.8-5.5,2.3c-1.3,1.5-2,3.8-2,6.9v1.9c0,3.2,0.6,5.5,1.9,7c1.3,1.5,3.1,2.2,5.6,2.2h0.3 c1.5,0,2.9-0.3,4-1s1.9-1.8,2.4-3.2l5.7,2.2c-0.9,2.4-2.3,4.2-4.4,5.5c-2.1,1.3-4.6,2-7.7,2H114.3z" class="st32"/><path d="M131.5,1027.3v-30.1h6.3v24.7h13.1v5.4H131.5z" class="st32"/><path d="M179.7,997.2v18.3c0,3.9-1.1,7-3.2,9.1c-2.1,2.2-5.1,3.3-9.1,3.3h-0.4c-3.9,0-6.9-1.1-9-3.3 c-2.1-2.2-3.2-5.2-3.2-9.1v-18.3h6.3v18.4c0,2.4,0.5,4.1,1.6,5.2c1.1,1.1,2.5,1.6,4.4,1.6h0.3c1.9,0,3.4-0.5,4.4-1.6 c1.1-1.1,1.6-2.8,1.6-5.2v-18.4H179.7z" class="st32"/><path d="M193.2,1027.3v-11.8l-10.3-18.3h7.1l6.4,12.3l6.4-12.3h6.9l-10.3,18.3v11.8H193.2z" class="st32"/><path d="M213.7,1027.3v-30.1h20v5.3H220v6.9h11.1l-0.7,5.3H220v7.2h14v5.3H213.7z" class="st32"/><path d="M250.4,1027.3v-30.1h12.2c3.3,0,5.9,0.8,7.8,2.3c1.9,1.5,2.9,3.5,2.9,6.1v0.7c0,1.1-0.3,2.2-0.9,3.1 c-0.6,0.9-1.4,1.7-2.5,2.3c1.5,0.6,2.6,1.4,3.4,2.5c0.8,1.1,1.2,2.4,1.2,3.9v0.7c0,2.7-0.9,4.7-2.8,6.2c-1.9,1.5-4.5,2.3-7.8,2.3 H250.4z M256.6,1009.4h5.8c3,0,4.6-1,4.6-3.1v-0.7c0-1-0.4-1.7-1.2-2.3c-0.8-0.5-1.9-0.8-3.4-0.8h-5.8V1009.4z M256.6,1021.9h7.1 c3,0,4.6-1.1,4.6-3.2v-0.8c0-1-0.4-1.8-1.2-2.4c-0.8-0.6-1.9-0.9-3.4-0.9h-7.1V1021.9z" class="st32"/><path d="M279.5,1027.3v-30.1h20v5.3h-13.7v6.9h11.1l-0.7,5.3h-10.4v7.2h14v5.3H279.5z" class="st32"/><path d="M305.4,1027.3v-30.1h5.6l13.6,19.6v-19.6h6v30.1H325l-13.6-19.6v19.6H305.4z" class="st32"/><path d="M337.7,1027.3v-30.1h20v5.3H344v6.9h11.1l-0.7,5.3H344v7.2h14v5.3H337.7z" class="st32"/><path d="M363.6,1027.3v-30.1h20v5.3h-13.7v7.7h11l-0.7,5.3h-10.3v11.7H363.6z" class="st32"/><path d="M388.9,1027.3v-30.1h6.3v30.1H388.9z" class="st32"/><path d="M414.7,1027.9c-4.5,0-7.9-1.3-10.2-3.9c-2.3-2.6-3.5-6.2-3.5-10.9v-1.7c0-3,0.5-5.7,1.6-7.9 c1.1-2.2,2.6-3.9,4.6-5.1c2-1.2,4.5-1.8,7.4-1.8h0.3c3.1,0,5.6,0.7,7.6,2c2,1.3,3.5,3.3,4.3,5.7l-5.8,2.1c-0.4-1.5-1.1-2.6-2.2-3.3 c-1.1-0.7-2.4-1-3.9-1h-0.3c-2.3,0-4.2,0.8-5.5,2.3c-1.3,1.5-2,3.8-2,6.9v1.9c0,3.2,0.6,5.5,1.9,7c1.3,1.5,3.1,2.2,5.6,2.2h0.3 c1.5,0,2.9-0.3,4-1s1.9-1.8,2.4-3.2l5.7,2.2c-0.9,2.4-2.3,4.2-4.4,5.5c-2.1,1.3-4.6,2-7.7,2H414.7z" class="st32"/><path d="M431.9,1027.3v-30.1h6.3v30.1H431.9z" class="st32"/><path d="M457.9,1027.9c-2.9,0-5.4-0.6-7.5-1.8c-2.1-1.2-3.7-2.9-4.8-5.1c-1.1-2.2-1.7-4.8-1.7-7.9v-1.7 c0-3,0.6-5.7,1.7-7.9c1.1-2.2,2.7-3.9,4.8-5.1c2.1-1.2,4.6-1.8,7.5-1.8h0.4c2.9,0,5.4,0.6,7.5,1.8c2.1,1.2,3.7,2.9,4.8,5.1 c1.1,2.2,1.7,4.8,1.7,7.9v1.7c0,3-0.6,5.7-1.7,7.9c-1.1,2.2-2.7,3.9-4.8,5.1c-2.1,1.2-4.6,1.8-7.5,1.8H457.9z M457.9,1022.4h0.3 c2.3,0,4.2-0.8,5.6-2.3c1.4-1.5,2.1-3.8,2.1-6.9v-2c0-3.1-0.7-5.4-2.1-6.9c-1.4-1.5-3.3-2.3-5.6-2.3h-0.3c-2.3,0-4.2,0.8-5.6,2.3 c-1.4,1.5-2.1,3.8-2.1,6.9v2c0,3.1,0.7,5.4,2.1,6.9C453.7,1021.6,455.6,1022.4,457.9,1022.4z" class="st32"/><path d="M487.7,1027.9c-6.3,0-10.3-2.2-12-6.7l5.3-2.7c1,2.7,3.2,4,6.7,4h0.6c3.6,0,5.5-1.2,5.5-3.5v-0.4 c0-0.9-0.3-1.7-0.9-2.4c-0.6-0.7-1.5-1.1-2.7-1.2l-4.7-0.6c-2.9-0.3-5-1.2-6.5-2.7c-1.5-1.4-2.2-3.4-2.2-5.9v-0.5 c0-1.8,0.5-3.3,1.4-4.6c0.9-1.3,2.2-2.3,3.9-3s3.6-1.1,5.9-1.1h0.6c2.7,0,5.1,0.6,7,1.7c1.9,1.1,3.2,2.7,4.1,4.8l-5.5,2.3 c-0.8-2.3-2.6-3.4-5.6-3.4h-0.6c-1.5,0-2.8,0.3-3.6,0.9c-0.9,0.6-1.3,1.4-1.3,2.4v0.4c0,1.7,1.2,2.8,3.6,3.1l4.7,0.6 c2.9,0.3,5.1,1.3,6.6,2.9c1.5,1.6,2.2,3.6,2.2,6.1v0.5c0,2.9-1,5.1-3,6.6c-2,1.6-4.9,2.3-8.6,2.3H487.7z" class="st32"/><path d="M515.5,1027.3v-30.1h20v5.3h-13.7v6.9h11.1l-0.7,5.3h-10.4v7.2h14v5.3H515.5z" class="st32"/><path d="M559.3,1027.3l-6.8-10.4l-6.8,10.4h-7.3l10.4-15.2l-10-14.8h7.4l6.5,9.9l6.5-9.9h7.3l-10,14.8l10.3,15.2 H559.3z" class="st32"/><path d="M582.6,1027.9c-4.5,0-7.9-1.3-10.2-3.9s-3.5-6.2-3.5-10.9v-1.7c0-3,0.5-5.7,1.6-7.9c1.1-2.2,2.6-3.9,4.6-5.1 c2-1.2,4.5-1.8,7.4-1.8h0.3c3.1,0,5.6,0.7,7.6,2c2,1.3,3.5,3.3,4.3,5.7l-5.8,2.1c-0.4-1.5-1.1-2.6-2.2-3.3c-1.1-0.7-2.4-1-3.9-1 h-0.3c-2.3,0-4.2,0.8-5.5,2.3c-1.3,1.5-2,3.8-2,6.9v1.9c0,3.2,0.6,5.5,1.9,7c1.3,1.5,3.1,2.2,5.6,2.2h0.3c1.5,0,2.9-0.3,4-1 c1.1-0.7,1.9-1.8,2.4-3.2l5.7,2.2c-0.9,2.4-2.3,4.2-4.4,5.5s-4.6,2-7.7,2H582.6z" class="st32"/><path d="M599.9,1027.3v-30.1h6.3v24.7h13.1v5.4H599.9z" class="st32"/><path d="M648.1,997.2v18.3c0,3.9-1.1,7-3.2,9.1c-2.1,2.2-5.1,3.3-9.1,3.3h-0.4c-3.9,0-6.9-1.1-9-3.3 c-2.1-2.2-3.2-5.2-3.2-9.1v-18.3h6.3v18.4c0,2.4,0.5,4.1,1.6,5.2c1.1,1.1,2.5,1.6,4.4,1.6h0.3c1.9,0,3.4-0.5,4.4-1.6 c1.1-1.1,1.6-2.8,1.6-5.2v-18.4H648.1z" class="st32"/><path d="M664.1,1027.9c-6.3,0-10.3-2.2-12-6.7l5.3-2.7c1,2.7,3.2,4,6.7,4h0.6c3.6,0,5.5-1.2,5.5-3.5v-0.4 c0-0.9-0.3-1.7-0.9-2.4c-0.6-0.7-1.5-1.1-2.7-1.2l-4.7-0.6c-2.9-0.3-5-1.2-6.5-2.7c-1.5-1.4-2.2-3.4-2.2-5.9v-0.5 c0-1.8,0.5-3.3,1.4-4.6s2.2-2.3,3.9-3c1.7-0.7,3.6-1.1,5.9-1.1h0.6c2.7,0,5.1,0.6,7,1.7s3.2,2.7,4.1,4.8l-5.5,2.3 c-0.8-2.3-2.6-3.4-5.6-3.4h-0.6c-1.5,0-2.8,0.3-3.6,0.9c-0.9,0.6-1.3,1.4-1.3,2.4v0.4c0,1.7,1.2,2.8,3.6,3.1l4.7,0.6 c2.9,0.3,5.1,1.3,6.6,2.9c1.5,1.6,2.2,3.6,2.2,6.1v0.5c0,2.9-1,5.1-3,6.6s-4.9,2.3-8.6,2.3H664.1z" class="st32"/><path d="M681.2,1027.3v-30.1h6.3v30.1H681.2z" class="st32"/><path d="M702.7,1027.3l-11.2-30.1h6.8l7.4,22.2l7.4-22.2h6.4l-11.2,30.1H702.7z" class="st32"/><path d="M734.9,1027.9c-2.9,0-5.4-0.6-7.5-1.8c-2.1-1.2-3.7-2.9-4.8-5.1c-1.1-2.2-1.7-4.8-1.7-7.9v-1.7 c0-3,0.6-5.7,1.7-7.9c1.1-2.2,2.7-3.9,4.8-5.1c2.1-1.2,4.6-1.8,7.5-1.8h0.4c2.9,0,5.4,0.6,7.5,1.8c2.1,1.2,3.7,2.9,4.8,5.1 c1.1,2.2,1.7,4.8,1.7,7.9v1.7c0,3-0.6,5.7-1.7,7.9c-1.1,2.2-2.7,3.9-4.8,5.1c-2.1,1.2-4.6,1.8-7.5,1.8H734.9z M734.9,1022.4h0.3 c2.3,0,4.2-0.8,5.6-2.3c1.4-1.5,2.1-3.8,2.1-6.9v-2c0-3.1-0.7-5.4-2.1-6.9c-1.4-1.5-3.3-2.3-5.6-2.3h-0.3c-2.3,0-4.2,0.8-5.6,2.3 s-2.1,3.8-2.1,6.9v2c0,3.1,0.7,5.4,2.1,6.9C730.7,1021.6,732.6,1022.4,734.9,1022.4z" class="st32"/><path d="M764.6,1027.9c-6.3,0-10.3-2.2-12-6.7l5.3-2.7c1,2.7,3.2,4,6.7,4h0.6c3.6,0,5.5-1.2,5.5-3.5v-0.4 c0-0.9-0.3-1.7-0.9-2.4c-0.6-0.7-1.5-1.1-2.7-1.2l-4.7-0.6c-2.9-0.3-5-1.2-6.5-2.7c-1.5-1.4-2.2-3.4-2.2-5.9v-0.5 c0-1.8,0.5-3.3,1.4-4.6s2.2-2.3,3.9-3c1.7-0.7,3.6-1.1,5.9-1.1h0.6c2.7,0,5.1,0.6,7,1.7s3.2,2.7,4.1,4.8l-5.5,2.3 c-0.8-2.3-2.6-3.4-5.6-3.4h-0.6c-1.5,0-2.8,0.3-3.6,0.9c-0.9,0.6-1.3,1.4-1.3,2.4v0.4c0,1.7,1.2,2.8,3.6,3.1l4.7,0.6 c2.9,0.3,5.1,1.3,6.6,2.9c1.5,1.6,2.2,3.6,2.2,6.1v0.5c0,2.9-1,5.1-3,6.6s-4.9,2.3-8.6,2.3H764.6z" class="st32"/><path d="M781.4,1018.4l-0.9-22.5h7.3l-0.9,22.5H781.4z M781,1027.3v-6.5h6.3v6.5H781z" class="st32"/></g><rect width="1080" height="1080" class="st0"/></svg>