<?xml version="1.0" encoding="UTF-8"?>
<svg xmlns="http://www.w3.org/2000/svg" xmlns:xlink="http://www.w3.org/1999/xlink" viewBox="0 0 1080 1080">
  <defs>
    <style>
      .cls-1 {
        fill: #ff5574;
      }

      .cls-2 {
        fill: #ccc;
        mix-blend-mode: multiply;
      }

      .cls-3 {
        fill: #fff475;
      }

      .cls-4 {
        fill: #ffa231;
      }

      .cls-5 {
        fill: #fff;
      }

      .cls-6 {
        fill: #8bb0cc;
      }

      .cls-7 {
        fill: #ffca48;
      }

      .cls-8 {
        fill: none;
      }

      .cls-9 {
        fill: #ff95a2;
      }

      .cls-10 {
        fill: #f13617;
      }

      .cls-11 {
        isolation: isolate;
      }

      .cls-12 {
        fill: #1a1a1a;
      }

      .cls-13 {
        fill: #af0035;
      }

      .cls-14 {
        fill: #b9dae9;
      }

      .cls-15 {
        fill: #ff5a20;
      }

      .cls-16 {
        fill: url(#Degradado_sin_nombre_2);
        filter: url(#drop-shadow-1);
      }

      .cls-17 {
        clip-path: url(#clippath);
      }
    </style>
    <clipPath id="clippath">
      <rect class="cls-8" width="1080" height="1080"/>
    </clipPath>
    <linearGradient id="Degradado_sin_nombre_2" data-name="Degradado sin nombre 2" x1="-90.8" y1="547.78" x2="1080" y2="547.78" gradientUnits="userSpaceOnUse">
      <stop offset="0" stop-color="#008e00"/>
      <stop offset="1" stop-color="#00ce00"/>
    </linearGradient>
    <filter id="drop-shadow-1" x="-110.71" y="-12" width="1208" height="1132" filterUnits="userSpaceOnUse">
      <feOffset dx="-1" dy="6"/>
      <feGaussianBlur result="blur" stdDeviation="6"/>
      <feFlood flood-color="#24211d" flood-opacity=".81"/>
      <feComposite in2="blur" operator="in"/>
      <feComposite in="SourceGraphic"/>
    </filter>
  </defs>
  <g class="cls-11">
    <g id="Capa_1" data-name="Capa 1">
      <g class="cls-17">
        <path class="cls-16" d="M1080,0H0v882.8h-9.5c-14.73,0-27.82,9.63-32.54,23.95l-46.92,142.29c-7.53,22.84,9.03,46.52,32.54,46.52h657.23c11.62,0,22.2-6.01,28.48-15.57h450.71V0ZM1035.77,1035.77h-390.59l35.1-106.44c7.53-22.84-9.03-46.52-32.54-46.52H44.23V44.23h991.54v991.54Z"/>
      </g>
      <g>
        <g>
          <path class="cls-5" d="M84.81,1018.8c-2.92,0-5.61-.73-8.08-2.19-2.47-1.46-4.43-3.42-5.89-5.89-1.46-2.47-2.19-5.16-2.19-8.08v-48.47c0-2.92.73-5.61,2.19-8.08s3.42-4.43,5.89-5.89c2.47-1.46,5.16-2.19,8.08-2.19h48.47c2.92,0,5.59.73,8.02,2.19,2.43,1.46,4.39,3.42,5.89,5.89,1.5,2.47,2.24,5.16,2.24,8.08v48.47c0,2.92-.75,5.61-2.24,8.08-1.5,2.47-3.46,4.43-5.89,5.89-2.43,1.46-5.11,2.19-8.02,2.19h-48.47ZM85.48,1002.53h46.9c.15,0,.3-.07.45-.22.15-.15.22-.3.22-.45v-46.9c0-.15-.08-.3-.22-.45-.15-.15-.3-.22-.45-.22h-46.9c-.15,0-.3.08-.45.22s-.22.3-.22.45v46.9c0,.15.07.3.22.45.15.15.3.22.45.22Z"/>
          <path class="cls-5" d="M164.81,1018.8v-80.78h74.5v16.27h-58.12v15.93h46.79v16.38h-46.79v32.2h-16.38Z"/>
          <path class="cls-5" d="M248.73,1018.8v-80.78h74.5v16.27h-58.12v15.93h46.79v16.38h-46.79v15.93h58.12v16.27h-74.5Z"/>
          <path class="cls-5" d="M337.25,1018.8v-80.67h64.51c2.92,0,5.61.73,8.08,2.19s4.45,3.42,5.95,5.89c1.5,2.47,2.24,5.16,2.24,8.08v21.32c0,2.92-.75,5.59-2.24,8.02-1.5,2.43-3.48,4.38-5.95,5.83s-5.16,2.19-8.08,2.19l-48.36.11v27.04h-16.16ZM354.08,975.37h46.9c.15,0,.3-.06.45-.17.15-.11.22-.24.22-.39v-19.86c0-.15-.08-.3-.22-.45-.15-.15-.3-.22-.45-.22h-46.9c-.15,0-.3.08-.45.22-.15.15-.22.3-.22.45v19.86c0,.15.07.28.22.39.15.11.3.17.45.17ZM400.76,1018.8l-23.9-28.5h21.21l19.75,23.45v5.05h-17.05Z"/>
          <path class="cls-5" d="M460.9,1018.8v-64.51h-32.31v-16.27h80.78v16.27h-32.2v64.51h-16.27Z"/>
          <path class="cls-5" d="M520.81,954.17c0-2.92.73-5.61,2.19-8.08,1.46-2.47,3.42-4.43,5.89-5.89,2.47-1.46,5.16-2.19,8.08-2.19h48.36c2.92,0,5.61.73,8.08,2.19,2.47,1.46,4.45,3.42,5.95,5.89,1.5,2.47,2.24,5.16,2.24,8.08v64.63h-16.38v-26.59h-48.25v26.59h-16.16v-64.63ZM585.21,976.05v-21.09c0-.15-.08-.3-.22-.45-.15-.15-.3-.22-.45-.22h-46.9c-.15,0-.3.08-.45.22-.15.15-.22.3-.22.45v21.09h48.25Z"/>
        </g>
        <g>
          <path class="cls-5" d="M934.51,913.02c-.05,0-.11,0-.16,0-.02,0-.03,0-.05,0-.05,0-.11.01-.16.02-.05,0-.1.01-.16.02-.05,0-.11.02-.16.03-.05,0-.09.02-.14.03h-.02s-.03.01-.05.02c-.07.02-.14.04-.21.07-.05.02-.1.04-.15.06-.05.02-.1.04-.15.07-.05.02-.09.05-.14.07-.05.03-.09.05-.14.08-.04.03-.09.06-.13.09-.04.03-.09.06-.13.09-.04.03-.08.07-.12.1-.04.03-.08.07-.12.11-.04.04-.08.07-.11.11-.04.04-.07.08-.11.12-.03.04-.07.08-.1.12-.03.04-.07.08-.1.13-.03.04-.06.09-.09.13-.03.04-.06.09-.08.14-.03.05-.05.09-.07.14-.02.05-.05.09-.07.14-.02.05-.04.1-.06.15-.02.05-.04.1-.05.15-.02.05-.03.1-.05.15-.01.05-.03.1-.04.15-.01.05-.02.1-.03.16,0,.05-.02.1-.02.16,0,.05-.02.11-.02.16,0,.05,0,.1,0,.16v.06c0,.05,0,.1,0,.16,0,.02,0,.03,0,.05,0,.05.01.11.02.16,0,.05.01.11.02.16,0,.05.02.11.03.16,0,.05.02.1.03.14v.02s.01.03.02.05c.02.07.04.14.07.21.02.05.04.1.06.15.02.05.04.1.06.14.02.05.05.09.07.14.03.05.05.09.08.14.03.05.06.09.09.13.03.04.06.09.09.13.03.04.07.08.1.12.03.04.07.08.11.12.04.04.07.08.11.11.04.04.08.07.12.11.04.04.08.07.12.1.04.03.08.07.13.1.04.03.09.06.13.09.04.03.09.06.13.08.05.03.09.05.14.07.05.02.1.05.14.07.05.02.1.04.15.06.05.02.1.04.15.06.05.02.1.03.15.04.05.01.1.03.15.04.05.01.1.02.15.03.05,0,.1.02.16.02.05,0,.1.02.16.02.05,0,.11,0,.16,0,.02,0,.04,0,.06,0,.05,0,.11,0,.16,0,.02,0,.03,0,.05,0,.05,0,.11-.01.16-.02.05,0,.1-.01.16-.02.05,0,.1-.02.15-.03.05,0,.1-.02.14-.03h.02s.03-.01.05-.02c.07-.02.14-.04.21-.07.05-.02.1-.04.15-.06.05-.02.1-.04.15-.07.05-.02.09-.05.14-.07.05-.03.09-.05.14-.08.05-.03.09-.06.13-.09.04-.03.09-.06.13-.09.04-.03.08-.07.12-.1.04-.03.08-.07.12-.1.04-.04.08-.07.11-.11.04-.04.07-.08.11-.12.04-.04.07-.08.1-.12.03-.04.07-.08.1-.13.03-.04.06-.09.09-.13.03-.04.06-.09.08-.14.03-.05.05-.09.07-.14.02-.05.05-.09.07-.14.02-.05.04-.1.06-.15.02-.05.04-.1.06-.15.02-.05.03-.1.04-.15.01-.05.03-.1.04-.15.01-.05.02-.1.03-.16,0-.05.02-.1.02-.16,0-.05.02-.11.02-.16,0-.05,0-.1,0-.16v-.06c0-.05,0-.11,0-.16,0-.02,0-.03,0-.05,0-.05-.01-.11-.02-.16,0-.05-.01-.11-.02-.16,0-.05-.02-.11-.03-.16,0-.05-.02-.1-.03-.14v-.02s-.01-.03-.02-.05c-.02-.07-.04-.14-.07-.21-.02-.05-.04-.1-.06-.15-.02-.05-.04-.1-.06-.14-.02-.05-.05-.09-.07-.14-.03-.05-.05-.09-.08-.14-.03-.04-.06-.09-.09-.13-.03-.04-.06-.09-.09-.13-.03-.04-.07-.08-.1-.12-.03-.04-.07-.08-.11-.12-.04-.04-.07-.08-.11-.11-.04-.04-.08-.07-.12-.11-.04-.03-.08-.07-.12-.1-.04-.03-.08-.07-.13-.1-.04-.03-.09-.06-.13-.09-.04-.03-.09-.06-.14-.08-.05-.03-.09-.05-.14-.07-.05-.02-.1-.05-.14-.07-.05-.02-.1-.04-.15-.06-.05-.02-.1-.04-.15-.06-.05-.02-.1-.03-.15-.04-.05-.01-.1-.03-.15-.04-.05-.01-.1-.02-.15-.03-.05,0-.11-.02-.16-.02-.05,0-.11-.02-.16-.02-.05,0-.11,0-.16,0-.02,0-.04,0-.06,0h0ZM934.51,913.02"/>
          <path class="cls-5" d="M934.51,913.02c-.05,0-.11,0-.16,0-.02,0-.03,0-.05,0-.05,0-.11.01-.16.02-.05,0-.1.01-.16.02-.05,0-.11.02-.16.03-.05,0-.09.02-.14.03h-.02s-.03.01-.05.02c-.07.02-.14.04-.21.07-.05.02-.1.04-.15.06-.05.02-.1.04-.15.07-.05.02-.09.05-.14.07-.05.03-.09.05-.14.08-.04.03-.09.06-.13.09-.04.03-.09.06-.13.09-.04.03-.08.07-.12.1-.04.03-.08.07-.12.11-.04.04-.08.07-.11.11-.04.04-.07.08-.11.12-.03.04-.07.08-.1.12-.03.04-.07.08-.1.13-.03.04-.06.09-.09.13-.03.04-.06.09-.08.14-.03.05-.05.09-.07.14-.02.05-.05.09-.07.14-.02.05-.04.1-.06.15-.02.05-.04.1-.05.15-.02.05-.03.1-.05.15-.01.05-.03.1-.04.15-.01.05-.02.1-.03.16,0,.05-.02.1-.02.16,0,.05-.02.11-.02.16,0,.05,0,.1,0,.16v.06c0,.05,0,.1,0,.16,0,.02,0,.03,0,.05,0,.05.01.11.02.16,0,.05.01.11.02.16,0,.05.02.11.03.16,0,.05.02.09.03.14v.02s.01.03.02.05c.02.07.04.14.07.21.02.05.04.1.06.15.02.05.04.1.06.14.02.05.05.09.07.14.03.05.05.09.08.14.03.05.06.09.09.13.03.04.06.09.09.13.03.04.07.08.1.12.03.04.07.08.11.12.04.04.07.08.11.11.04.04.08.07.12.11.04.04.08.07.12.1.04.03.08.07.13.1.04.03.09.06.13.09.04.03.09.06.13.08.05.03.09.05.14.07.05.02.1.05.14.07.05.02.1.04.15.06.05.02.1.04.15.06.05.02.1.03.15.04.05.01.1.03.15.04.05.01.1.02.15.03.05,0,.1.02.16.02.05,0,.1.02.16.02.05,0,.11,0,.16,0h.06c.05,0,.11,0,.16,0,.02,0,.03,0,.05,0,.05,0,.11-.01.16-.02.05,0,.1-.01.16-.02.05,0,.1-.02.15-.03.05,0,.1-.02.14-.03h.02s.03-.01.05-.02c.07-.02.14-.04.21-.07.05-.02.1-.04.15-.06.05-.02.1-.04.15-.07.05-.02.09-.05.14-.07.05-.02.09-.05.14-.08.05-.03.09-.06.13-.09.04-.03.09-.06.13-.09.04-.03.08-.07.12-.1.04-.03.08-.07.12-.1.04-.04.08-.07.11-.11.04-.04.07-.08.11-.11.04-.04.07-.08.1-.12.03-.04.07-.08.1-.13.03-.04.06-.09.09-.13.03-.05.06-.09.08-.14.03-.05.05-.09.07-.14.02-.05.05-.09.07-.14.02-.05.04-.1.06-.15.02-.05.04-.1.06-.15.02-.05.03-.1.04-.15.01-.05.03-.1.04-.15.01-.05.02-.11.03-.16,0-.05.02-.1.02-.16,0-.05.02-.11.02-.16,0-.05,0-.11,0-.16v-.06c0-.05,0-.11,0-.16,0-.02,0-.03,0-.05,0-.05-.01-.11-.02-.16,0-.05-.01-.11-.02-.16,0-.05-.02-.11-.03-.16,0-.05-.02-.09-.03-.14v-.02s-.01-.03-.02-.05c-.02-.07-.04-.14-.07-.21-.02-.05-.04-.1-.06-.15-.02-.05-.04-.1-.06-.14-.02-.05-.05-.09-.07-.14-.03-.05-.05-.09-.08-.14-.03-.04-.06-.09-.09-.13-.03-.04-.06-.09-.09-.13-.03-.04-.07-.08-.1-.12-.03-.04-.07-.08-.11-.12-.04-.04-.07-.08-.11-.11-.04-.04-.08-.07-.12-.11-.04-.04-.08-.07-.12-.1-.04-.03-.08-.07-.13-.1-.04-.03-.09-.06-.13-.09-.04-.03-.09-.06-.14-.08-.05-.03-.09-.05-.14-.07-.05-.02-.1-.05-.14-.07-.05-.02-.1-.04-.15-.06-.05-.02-.1-.04-.15-.06-.05-.02-.1-.03-.15-.04-.05-.01-.1-.03-.15-.04-.05-.01-.1-.02-.15-.03-.05,0-.11-.02-.16-.02-.05,0-.11-.02-.16-.02-.05,0-.11,0-.16,0h-.06ZM934.51,913.02"/>
          <path class="cls-5" d="M934.51,913.02c-.05,0-.11,0-.16,0-.02,0-.03,0-.05,0-.05,0-.11.01-.16.02-.05,0-.1.01-.16.02-.05,0-.11.02-.16.03-.05,0-.09.02-.14.03h-.02s-.03.01-.05.02c-.07.02-.14.04-.21.07-.05.02-.1.04-.15.06-.05.02-.1.04-.15.07-.05.02-.09.05-.14.07-.05.03-.09.05-.14.08-.04.03-.09.06-.13.09-.04.03-.09.06-.13.09-.04.03-.08.07-.12.1-.04.03-.08.07-.12.11-.04.04-.08.07-.11.11-.04.04-.07.08-.11.12-.03.04-.07.08-.1.12-.03.04-.07.08-.1.13-.03.04-.06.09-.09.13-.03.04-.06.09-.08.14-.03.05-.05.09-.07.14-.02.05-.05.09-.07.14-.02.05-.04.1-.06.15-.02.05-.04.1-.05.15-.02.05-.03.1-.05.15-.01.05-.03.1-.04.15-.01.05-.02.1-.03.16,0,.05-.02.1-.02.16,0,.05-.02.11-.02.16,0,.05,0,.1,0,.16v.06c0,.05,0,.1,0,.16,0,.02,0,.03,0,.05,0,.05.01.11.02.16,0,.05.01.11.02.16,0,.05.02.11.03.16,0,.05.02.09.03.14v.02s.01.03.02.05c.02.07.04.14.07.21.02.05.04.1.06.15.02.05.04.1.06.14.02.05.05.09.07.14.03.05.05.09.08.14.03.05.06.09.09.13.03.04.06.09.09.13.03.04.07.08.1.12.03.04.07.08.11.12.04.04.07.08.11.11.04.04.08.07.12.11.04.04.08.07.12.1.04.03.08.07.13.1.04.03.09.06.13.09.04.03.09.06.13.08.05.03.09.05.14.07.05.02.1.05.14.07.05.02.1.04.15.06.05.02.1.04.15.06.05.02.1.03.15.04.05.01.1.03.15.04.05.01.1.02.15.03.05,0,.1.02.16.02.05,0,.1.02.16.02.05,0,.11,0,.16,0h.06c.05,0,.11,0,.16,0,.02,0,.03,0,.05,0,.05,0,.11-.01.16-.02.05,0,.1-.01.16-.02.05,0,.1-.02.15-.03.05,0,.1-.02.14-.03h.02s.03-.01.05-.02c.07-.02.14-.04.21-.07.05-.02.1-.04.15-.06.05-.02.1-.04.15-.07.05-.02.09-.05.14-.07.05-.02.09-.05.14-.08.05-.03.09-.06.13-.09.04-.03.09-.06.13-.09.04-.03.08-.07.12-.1.04-.03.08-.07.12-.1.04-.04.08-.07.11-.11.04-.04.07-.08.11-.11.04-.04.07-.08.1-.12.03-.04.07-.08.1-.13.03-.04.06-.09.09-.13.03-.05.06-.09.08-.14.03-.05.05-.09.07-.14.02-.05.05-.09.07-.14.02-.05.04-.1.06-.15.02-.05.04-.1.06-.15.02-.05.03-.1.04-.15.01-.05.03-.1.04-.15.01-.05.02-.11.03-.16,0-.05.02-.1.02-.16,0-.05.02-.11.02-.16,0-.05,0-.11,0-.16v-.06c0-.05,0-.11,0-.16,0-.02,0-.03,0-.05,0-.05-.01-.11-.02-.16,0-.05-.01-.11-.02-.16,0-.05-.02-.11-.03-.16,0-.05-.02-.09-.03-.14v-.02s-.01-.03-.02-.05c-.02-.07-.04-.14-.07-.21-.02-.05-.04-.1-.06-.15-.02-.05-.04-.1-.06-.14-.02-.05-.05-.09-.07-.14-.03-.05-.05-.09-.08-.14-.03-.04-.06-.09-.09-.13-.03-.04-.06-.09-.09-.13-.03-.04-.07-.08-.1-.12-.03-.04-.07-.08-.11-.12-.04-.04-.07-.08-.11-.11-.04-.04-.08-.07-.12-.11-.04-.04-.08-.07-.12-.1-.04-.03-.08-.07-.13-.1-.04-.03-.09-.06-.13-.09-.04-.03-.09-.06-.14-.08-.05-.03-.09-.05-.14-.07-.05-.02-.1-.05-.14-.07-.05-.02-.1-.04-.15-.06-.05-.02-.1-.04-.15-.06-.05-.02-.1-.03-.15-.04-.05-.01-.1-.03-.15-.04-.05-.01-.1-.02-.15-.03-.05,0-.11-.02-.16-.02-.05,0-.11-.02-.16-.02-.05,0-.11,0-.16,0h-.06ZM934.51,913.02"/>
          <path class="cls-5" d="M934.51,913.02c-.05,0-.11,0-.16,0-.02,0-.03,0-.05,0-.05,0-.11.01-.16.02-.05,0-.1.01-.16.02-.05,0-.11.02-.16.03-.05,0-.09.02-.14.03h-.02s-.03.01-.05.02c-.07.02-.14.04-.21.07-.05.02-.1.04-.15.06-.05.02-.1.04-.15.07-.05.02-.09.05-.14.07-.05.03-.09.05-.14.08-.04.03-.09.06-.13.09-.04.03-.09.06-.13.09-.04.03-.08.07-.12.1-.04.03-.08.07-.12.11-.04.04-.08.07-.11.11-.04.04-.07.08-.11.12-.03.04-.07.08-.1.12-.03.04-.07.08-.1.13-.03.04-.06.09-.09.13-.03.04-.06.09-.08.14-.03.05-.05.09-.07.14-.02.05-.05.09-.07.14-.02.05-.04.1-.06.15-.02.05-.04.1-.05.15-.02.05-.03.1-.05.15-.01.05-.03.1-.04.15-.01.05-.02.1-.03.16,0,.05-.02.1-.02.16,0,.05-.02.11-.02.16,0,.05,0,.1,0,.16v.06c0,.05,0,.1,0,.16,0,.02,0,.03,0,.05,0,.05.01.11.02.16,0,.05.01.11.02.16,0,.05.02.11.03.16,0,.05.02.09.03.14v.02s.01.03.02.05c.02.07.04.14.07.21.02.05.04.1.06.15.02.05.04.1.06.14.02.05.05.09.07.14.03.05.05.09.08.14.03.05.06.09.09.13.03.04.06.09.09.13.03.04.07.08.1.12.03.04.07.08.11.12.04.04.07.08.11.11.04.04.08.07.12.11.04.04.08.07.12.1.04.03.08.07.13.1.04.03.09.06.13.09.04.03.09.06.13.08.05.03.09.05.14.07.05.02.1.05.14.07.05.02.1.04.15.06.05.02.1.04.15.06.05.02.1.03.15.04.05.01.1.03.15.04.05.01.1.02.15.03.05,0,.1.02.16.02.05,0,.1.02.16.02.05,0,.11,0,.16,0h.06c.05,0,.11,0,.16,0,.02,0,.03,0,.05,0,.05,0,.11-.01.16-.02.05,0,.1-.01.16-.02.05,0,.1-.02.15-.03.05,0,.1-.02.14-.03h.02s.03-.01.05-.02c.07-.02.14-.04.21-.07.05-.02.1-.04.15-.06.05-.02.1-.04.15-.07.05-.02.09-.05.14-.07.05-.02.09-.05.14-.08.05-.03.09-.06.13-.09.04-.03.09-.06.13-.09.04-.03.08-.07.12-.1.04-.03.08-.07.12-.1.04-.04.08-.07.11-.11.04-.04.07-.08.11-.11.04-.04.07-.08.1-.12.03-.04.07-.08.1-.13.03-.04.06-.09.09-.13.03-.05.06-.09.08-.14.03-.05.05-.09.07-.14.02-.05.05-.09.07-.14.02-.05.04-.1.06-.15.02-.05.04-.1.06-.15.02-.05.03-.1.04-.15.01-.05.03-.1.04-.15.01-.05.02-.11.03-.16,0-.05.02-.1.02-.16,0-.05.02-.11.02-.16,0-.05,0-.11,0-.16v-.06c0-.05,0-.11,0-.16,0-.02,0-.03,0-.05,0-.05-.01-.11-.02-.16,0-.05-.01-.11-.02-.16,0-.05-.02-.11-.03-.16,0-.05-.02-.09-.03-.14v-.02s-.01-.03-.02-.05c-.02-.07-.04-.14-.07-.21-.02-.05-.04-.1-.06-.15-.02-.05-.04-.1-.06-.14-.02-.05-.05-.09-.07-.14-.03-.05-.05-.09-.08-.14-.03-.04-.06-.09-.09-.13-.03-.04-.06-.09-.09-.13-.03-.04-.07-.08-.1-.12-.03-.04-.07-.08-.11-.12-.04-.04-.07-.08-.11-.11-.04-.04-.08-.07-.12-.11-.04-.04-.08-.07-.12-.1-.04-.03-.08-.07-.13-.1-.04-.03-.09-.06-.13-.09-.04-.03-.09-.06-.14-.08-.05-.03-.09-.05-.14-.07-.05-.02-.1-.05-.14-.07-.05-.02-.1-.04-.15-.06-.05-.02-.1-.04-.15-.06-.05-.02-.1-.03-.15-.04-.05-.01-.1-.03-.15-.04-.05-.01-.1-.02-.15-.03-.05,0-.11-.02-.16-.02-.05,0-.11-.02-.16-.02-.05,0-.11,0-.16,0h-.06ZM934.51,913.02"/>
          <path class="cls-5" d="M934.51,913.02c-.05,0-.11,0-.16,0-.02,0-.03,0-.05,0-.05,0-.11.01-.16.02-.05,0-.1.01-.16.02-.05,0-.11.02-.16.03-.05,0-.09.02-.14.03h-.02s-.03.01-.05.02c-.07.02-.14.04-.21.07-.05.02-.1.04-.15.06-.05.02-.1.04-.15.07-.05.02-.09.05-.14.07-.05.03-.09.05-.14.08-.04.03-.09.06-.13.09-.04.03-.09.06-.13.09-.04.03-.08.07-.12.1-.04.03-.08.07-.12.11-.04.04-.08.07-.11.11-.04.04-.07.08-.11.12-.03.04-.07.08-.1.12-.03.04-.07.08-.1.13-.03.04-.06.09-.09.13-.03.04-.06.09-.08.14-.03.05-.05.09-.07.14-.02.05-.05.09-.07.14-.02.05-.04.1-.06.15-.02.05-.04.1-.05.15-.02.05-.03.1-.05.15-.01.05-.03.1-.04.15-.01.05-.02.1-.03.16,0,.05-.02.1-.02.16,0,.05-.02.11-.02.16,0,.05,0,.1,0,.16v.06c0,.05,0,.1,0,.16,0,.02,0,.03,0,.05,0,.05.01.11.02.16,0,.05.01.11.02.16,0,.05.02.11.03.16,0,.05.02.09.03.14v.02s.01.03.02.05c.02.07.04.14.07.21.02.05.04.1.06.15.02.05.04.1.06.14.02.05.05.09.07.14.03.05.05.09.08.14.03.05.06.09.09.13.03.04.06.09.09.13.03.04.07.08.1.12.03.04.07.08.11.12.04.04.07.08.11.11.04.04.08.07.12.11.04.04.08.07.12.1.04.03.08.07.13.1.04.03.09.06.13.09.04.03.09.06.13.08.05.03.09.05.14.07.05.02.1.05.14.07.05.02.1.04.15.06.05.02.1.04.15.06.05.02.1.03.15.04.05.01.1.03.15.04.05.01.1.02.15.03.05,0,.1.02.16.02.05,0,.1.02.16.02.05,0,.11,0,.16,0h.06c.05,0,.11,0,.16,0,.02,0,.03,0,.05,0,.05,0,.11-.01.16-.02.05,0,.1-.01.16-.02.05,0,.1-.02.15-.03.05,0,.1-.02.14-.03h.02s.03-.01.05-.02c.07-.02.14-.04.21-.07.05-.02.1-.04.15-.06.05-.02.1-.04.15-.07.05-.02.09-.05.14-.07.05-.02.09-.05.14-.08.05-.03.09-.06.13-.09.04-.03.09-.06.13-.09.04-.03.08-.07.12-.1.04-.03.08-.07.12-.1.04-.04.08-.07.11-.11.04-.04.07-.08.11-.11.04-.04.07-.08.1-.12.03-.04.07-.08.1-.13.03-.04.06-.09.09-.13.03-.05.06-.09.08-.14.03-.05.05-.09.07-.14.02-.05.05-.09.07-.14.02-.05.04-.1.06-.15.02-.05.04-.1.06-.15.02-.05.03-.1.04-.15.01-.05.03-.1.04-.15.01-.05.02-.11.03-.16,0-.05.02-.1.02-.16,0-.05.02-.11.02-.16,0-.05,0-.11,0-.16v-.06c0-.05,0-.11,0-.16,0-.02,0-.03,0-.05,0-.05-.01-.11-.02-.16,0-.05-.01-.11-.02-.16,0-.05-.02-.11-.03-.16,0-.05-.02-.09-.03-.14v-.02s-.01-.03-.02-.05c-.02-.07-.04-.14-.07-.21-.02-.05-.04-.1-.06-.15-.02-.05-.04-.1-.06-.14-.02-.05-.05-.09-.07-.14-.03-.05-.05-.09-.08-.14-.03-.04-.06-.09-.09-.13-.03-.04-.06-.09-.09-.13-.03-.04-.07-.08-.1-.12-.03-.04-.07-.08-.11-.12-.04-.04-.07-.08-.11-.11-.04-.04-.08-.07-.12-.11-.04-.04-.08-.07-.12-.1-.04-.03-.08-.07-.13-.1-.04-.03-.09-.06-.13-.09-.04-.03-.09-.06-.14-.08-.05-.03-.09-.05-.14-.07-.05-.02-.1-.05-.14-.07-.05-.02-.1-.04-.15-.06-.05-.02-.1-.04-.15-.06-.05-.02-.1-.03-.15-.04-.05-.01-.1-.03-.15-.04-.05-.01-.1-.02-.15-.03-.05,0-.11-.02-.16-.02-.05,0-.11-.02-.16-.02-.05,0-.11,0-.16,0h-.06ZM934.51,913.02"/>
          <path class="cls-5" d="M934.51,913.02c-.05,0-.11,0-.16,0-.02,0-.03,0-.05,0-.05,0-.11.01-.16.02-.05,0-.1.01-.16.02-.05,0-.11.02-.16.03-.05,0-.09.02-.14.03h-.02s-.03.01-.05.02c-.07.02-.14.04-.21.07-.05.02-.1.04-.15.06-.05.02-.1.04-.15.07-.05.02-.09.05-.14.07-.05.03-.09.05-.14.08-.04.03-.09.06-.13.09-.04.03-.09.06-.13.09-.04.03-.08.07-.12.1-.04.03-.08.07-.12.11-.04.04-.08.07-.11.11-.04.04-.07.08-.11.12-.03.04-.07.08-.1.12-.03.04-.07.08-.1.13-.03.04-.06.09-.09.13-.03.04-.06.09-.08.14-.03.05-.05.09-.07.14-.02.05-.05.09-.07.14-.02.05-.04.1-.06.15-.02.05-.04.1-.05.15-.02.05-.03.1-.05.15-.01.05-.03.1-.04.15-.01.05-.02.1-.03.16,0,.05-.02.1-.02.16,0,.05-.02.11-.02.16,0,.05,0,.1,0,.16v.06c0,.05,0,.1,0,.16,0,.02,0,.03,0,.05,0,.05.01.11.02.16,0,.05.01.11.02.16,0,.05.02.11.03.16,0,.05.02.09.03.14v.02s.01.03.02.05c.02.07.04.14.07.21.02.05.04.1.06.15.02.05.04.1.06.14.02.05.05.09.07.14.03.05.05.09.08.14.03.05.06.09.09.13.03.04.06.09.09.13.03.04.07.08.1.12.03.04.07.08.11.12.04.04.07.08.11.11.04.04.08.07.12.11.04.04.08.07.12.1.04.03.08.07.13.1.04.03.09.06.13.09.04.03.09.06.13.08.05.03.09.05.14.07.05.02.1.05.14.07.05.02.1.04.15.06.05.02.1.04.15.06.05.02.1.03.15.04.05.01.1.03.15.04.05.01.1.02.15.03.05,0,.1.02.16.02.05,0,.1.02.16.02.05,0,.11,0,.16,0h.06c.05,0,.11,0,.16,0,.02,0,.03,0,.05,0,.05,0,.11-.01.16-.02.05,0,.1-.01.16-.02.05,0,.1-.02.15-.03.05,0,.1-.02.14-.03h.02s.03-.01.05-.02c.07-.02.14-.04.21-.07.05-.02.1-.04.15-.06.05-.02.1-.04.15-.07.05-.02.09-.05.14-.07.05-.02.09-.05.14-.08.05-.03.09-.06.13-.09.04-.03.09-.06.13-.09.04-.03.08-.07.12-.1.04-.03.08-.07.12-.1.04-.04.08-.07.11-.11.04-.04.07-.08.11-.11.04-.04.07-.08.1-.12.03-.04.07-.08.1-.13.03-.04.06-.09.09-.13.03-.05.06-.09.08-.14.03-.05.05-.09.07-.14.02-.05.05-.09.07-.14.02-.05.04-.1.06-.15.02-.05.04-.1.06-.15.02-.05.03-.1.04-.15.01-.05.03-.1.04-.15.01-.05.02-.11.03-.16,0-.05.02-.1.02-.16,0-.05.02-.11.02-.16,0-.05,0-.11,0-.16v-.06c0-.05,0-.11,0-.16,0-.02,0-.03,0-.05,0-.05-.01-.11-.02-.16,0-.05-.01-.11-.02-.16,0-.05-.02-.11-.03-.16,0-.05-.02-.09-.03-.14v-.02s-.01-.03-.02-.05c-.02-.07-.04-.14-.07-.21-.02-.05-.04-.1-.06-.15-.02-.05-.04-.1-.06-.14-.02-.05-.05-.09-.07-.14-.03-.05-.05-.09-.08-.14-.03-.04-.06-.09-.09-.13-.03-.04-.06-.09-.09-.13-.03-.04-.07-.08-.1-.12-.03-.04-.07-.08-.11-.12-.04-.04-.07-.08-.11-.11-.04-.04-.08-.07-.12-.11-.04-.04-.08-.07-.12-.1-.04-.03-.08-.07-.13-.1-.04-.03-.09-.06-.13-.09-.04-.03-.09-.06-.14-.08-.05-.03-.09-.05-.14-.07-.05-.02-.1-.05-.14-.07-.05-.02-.1-.04-.15-.06-.05-.02-.1-.04-.15-.06-.05-.02-.1-.03-.15-.04-.05-.01-.1-.03-.15-.04-.05-.01-.1-.02-.15-.03-.05,0-.11-.02-.16-.02-.05,0-.11-.02-.16-.02-.05,0-.11,0-.16,0h-.06ZM934.51,913.02"/>
          <path class="cls-5" d="M934.51,913.02c-.05,0-.11,0-.16,0-.02,0-.03,0-.05,0-.05,0-.11.01-.16.02-.05,0-.1.01-.16.02-.05,0-.11.02-.16.03-.05,0-.09.02-.14.03h-.02s-.03.01-.05.02c-.07.02-.14.04-.21.07-.05.02-.1.04-.15.06-.05.02-.1.04-.15.07-.05.02-.09.05-.14.07-.05.03-.09.05-.14.08-.04.03-.09.06-.13.09-.04.03-.09.06-.13.09-.04.03-.08.07-.12.1-.04.03-.08.07-.12.11-.04.04-.08.07-.11.11-.04.04-.07.08-.11.12-.03.04-.07.08-.1.12-.03.04-.07.08-.1.13-.03.04-.06.09-.09.13-.03.04-.06.09-.08.14-.03.05-.05.09-.07.14-.02.05-.05.09-.07.14-.02.05-.04.1-.06.15-.02.05-.04.1-.05.15-.02.05-.03.1-.05.15-.01.05-.03.1-.04.15-.01.05-.02.1-.03.16,0,.05-.02.1-.02.16,0,.05-.02.11-.02.16,0,.05,0,.1,0,.16v.06c0,.05,0,.1,0,.16,0,.02,0,.03,0,.05,0,.05.01.11.02.16,0,.05.01.11.02.16,0,.05.02.11.03.16,0,.05.02.09.03.14v.02s.01.03.02.05c.02.07.04.14.07.21.02.05.04.1.06.15.02.05.04.1.06.14.02.05.05.09.07.14.03.05.05.09.08.14.03.05.06.09.09.13.03.04.06.09.09.13.03.04.07.08.1.12.03.04.07.08.11.12.04.04.07.08.11.11.04.04.08.07.12.11.04.04.08.07.12.1.04.03.08.07.13.1.04.03.09.06.13.09.04.03.09.06.13.08.05.03.09.05.14.07.05.02.1.05.14.07.05.02.1.04.15.06.05.02.1.04.15.06.05.02.1.03.15.04.05.01.1.03.15.04.05.01.1.02.15.03.05,0,.1.02.16.02.05,0,.1.02.16.02.05,0,.11,0,.16,0h.06c.05,0,.11,0,.16,0,.02,0,.03,0,.05,0,.05,0,.11-.01.16-.02.05,0,.1-.01.16-.02.05,0,.1-.02.15-.03.05,0,.1-.02.14-.03h.02s.03-.01.05-.02c.07-.02.14-.04.21-.07.05-.02.1-.04.15-.06.05-.02.1-.04.15-.07.05-.02.09-.05.14-.07.05-.02.09-.05.14-.08.05-.03.09-.06.13-.09.04-.03.09-.06.13-.09.04-.03.08-.07.12-.1.04-.03.08-.07.12-.1.04-.04.08-.07.11-.11.04-.04.07-.08.11-.11.04-.04.07-.08.1-.12.03-.04.07-.08.1-.13.03-.04.06-.09.09-.13.03-.05.06-.09.08-.14.03-.05.05-.09.07-.14.02-.05.05-.09.07-.14.02-.05.04-.1.06-.15.02-.05.04-.1.06-.15.02-.05.03-.1.04-.15.01-.05.03-.1.04-.15.01-.05.02-.11.03-.16,0-.05.02-.1.02-.16,0-.05.02-.11.02-.16,0-.05,0-.11,0-.16v-.06c0-.05,0-.11,0-.16,0-.02,0-.03,0-.05,0-.05-.01-.11-.02-.16,0-.05-.01-.11-.02-.16,0-.05-.02-.11-.03-.16,0-.05-.02-.09-.03-.14v-.02s-.01-.03-.02-.05c-.02-.07-.04-.14-.07-.21-.02-.05-.04-.1-.06-.15-.02-.05-.04-.1-.06-.14-.02-.05-.05-.09-.07-.14-.03-.05-.05-.09-.08-.14-.03-.04-.06-.09-.09-.13-.03-.04-.06-.09-.09-.13-.03-.04-.07-.08-.1-.12-.03-.04-.07-.08-.11-.12-.04-.04-.07-.08-.11-.11-.04-.04-.08-.07-.12-.11-.04-.04-.08-.07-.12-.1-.04-.03-.08-.07-.13-.1-.04-.03-.09-.06-.13-.09-.04-.03-.09-.06-.14-.08-.05-.03-.09-.05-.14-.07-.05-.02-.1-.05-.14-.07-.05-.02-.1-.04-.15-.06-.05-.02-.1-.04-.15-.06-.05-.02-.1-.03-.15-.04-.05-.01-.1-.03-.15-.04-.05-.01-.1-.02-.15-.03-.05,0-.11-.02-.16-.02-.05,0-.11-.02-.16-.02-.05,0-.11,0-.16,0h-.06ZM934.51,913.02"/>
          <path class="cls-5" d="M934.51,913.02c-.05,0-.11,0-.16,0-.02,0-.03,0-.05,0-.05,0-.11.01-.16.02-.05,0-.1.01-.16.02-.05,0-.11.02-.16.03-.05,0-.09.02-.14.03h-.02s-.03.01-.05.02c-.07.02-.14.04-.21.07-.05.02-.1.04-.15.06-.05.02-.1.04-.15.07-.05.02-.09.05-.14.07-.05.03-.09.05-.14.08-.04.03-.09.06-.13.09-.04.03-.09.06-.13.09-.04.03-.08.07-.12.1-.04.03-.08.07-.12.11-.04.04-.08.07-.11.11-.04.04-.07.08-.11.12-.03.04-.07.08-.1.12-.03.04-.07.08-.1.13-.03.04-.06.09-.09.13-.03.04-.06.09-.08.14-.03.05-.05.09-.07.14-.02.05-.05.09-.07.14-.02.05-.04.1-.06.15-.02.05-.04.1-.05.15-.02.05-.03.1-.05.15-.01.05-.03.1-.04.15-.01.05-.02.1-.03.16,0,.05-.02.1-.02.16,0,.05-.02.11-.02.16,0,.05,0,.1,0,.16v.06c0,.05,0,.1,0,.16,0,.02,0,.03,0,.05,0,.05.01.11.02.16,0,.05.01.11.02.16,0,.05.02.11.03.16,0,.05.02.09.03.14v.02s.01.03.02.05c.02.07.04.14.07.21.02.05.04.1.06.15.02.05.04.1.06.14.02.05.05.09.07.14.03.05.05.09.08.14.03.05.06.09.09.13.03.04.06.09.09.13.03.04.07.08.1.12.03.04.07.08.11.12.04.04.07.08.11.11.04.04.08.07.12.11.04.04.08.07.12.1.04.03.08.07.13.1.04.03.09.06.13.09.04.03.09.06.13.08.05.03.09.05.14.07.05.02.1.05.14.07.05.02.1.04.15.06.05.02.1.04.15.06.05.02.1.03.15.04.05.01.1.03.15.04.05.01.1.02.15.03.05,0,.1.02.16.02.05,0,.1.02.16.02.05,0,.11,0,.16,0h.06c.05,0,.11,0,.16,0,.02,0,.03,0,.05,0,.05,0,.11-.01.16-.02.05,0,.1-.01.16-.02.05,0,.1-.02.15-.03.05,0,.1-.02.14-.03h.02s.03-.01.05-.02c.07-.02.14-.04.21-.07.05-.02.1-.04.15-.06.05-.02.1-.04.15-.07.05-.02.09-.05.14-.07.05-.02.09-.05.14-.08.05-.03.09-.06.13-.09.04-.03.09-.06.13-.09.04-.03.08-.07.12-.1.04-.03.08-.07.12-.1.04-.04.08-.07.11-.11.04-.04.07-.08.11-.11.04-.04.07-.08.1-.12.03-.04.07-.08.1-.13.03-.04.06-.09.09-.13.03-.05.06-.09.08-.14.03-.05.05-.09.07-.14.02-.05.05-.09.07-.14.02-.05.04-.1.06-.15.02-.05.04-.1.06-.15.02-.05.03-.1.04-.15.01-.05.03-.1.04-.15.01-.05.02-.11.03-.16,0-.05.02-.1.02-.16,0-.05.02-.11.02-.16,0-.05,0-.11,0-.16v-.06c0-.05,0-.11,0-.16,0-.02,0-.03,0-.05,0-.05-.01-.11-.02-.16,0-.05-.01-.11-.02-.16,0-.05-.02-.11-.03-.16,0-.05-.02-.09-.03-.14v-.02s-.01-.03-.02-.05c-.02-.07-.04-.14-.07-.21-.02-.05-.04-.1-.06-.15-.02-.05-.04-.1-.06-.14-.02-.05-.05-.09-.07-.14-.03-.05-.05-.09-.08-.14-.03-.04-.06-.09-.09-.13-.03-.04-.06-.09-.09-.13-.03-.04-.07-.08-.1-.12-.03-.04-.07-.08-.11-.12-.04-.04-.07-.08-.11-.11-.04-.04-.08-.07-.12-.11-.04-.04-.08-.07-.12-.1-.04-.03-.08-.07-.13-.1-.04-.03-.09-.06-.13-.09-.04-.03-.09-.06-.14-.08-.05-.03-.09-.05-.14-.07-.05-.02-.1-.05-.14-.07-.05-.02-.1-.04-.15-.06-.05-.02-.1-.04-.15-.06-.05-.02-.1-.03-.15-.04-.05-.01-.1-.03-.15-.04-.05-.01-.1-.02-.15-.03-.05,0-.11-.02-.16-.02-.05,0-.11-.02-.16-.02-.05,0-.11,0-.16,0h-.06ZM934.51,913.02"/>
          <path class="cls-5" d="M934.51,913.02c-.05,0-.11,0-.16,0-.02,0-.03,0-.05,0-.05,0-.11.01-.16.02-.05,0-.1.01-.16.02-.05,0-.11.02-.16.03-.05,0-.09.02-.14.03h-.02s-.03.01-.05.02c-.07.02-.14.04-.21.07-.05.02-.1.04-.15.06-.05.02-.1.04-.15.07-.05.02-.09.05-.14.07-.05.03-.09.05-.14.08-.04.03-.09.06-.13.09-.04.03-.09.06-.13.09-.04.03-.08.07-.12.1-.04.03-.08.07-.12.11-.04.04-.08.07-.11.11-.04.04-.07.08-.11.12-.03.04-.07.08-.1.12-.03.04-.07.08-.1.13-.03.04-.06.09-.09.13-.03.04-.06.09-.08.14-.03.05-.05.09-.07.14-.02.05-.05.09-.07.14-.02.05-.04.1-.06.15-.02.05-.04.1-.05.15-.02.05-.03.1-.05.15-.01.05-.03.1-.04.15-.01.05-.02.1-.03.16,0,.05-.02.1-.02.16,0,.05-.02.11-.02.16,0,.05,0,.1,0,.16v.06c0,.05,0,.1,0,.16,0,.02,0,.03,0,.05,0,.05.01.11.02.16,0,.05.01.11.02.16,0,.05.02.11.03.16,0,.05.02.09.03.14v.02s.01.03.02.05c.02.07.04.14.07.21.02.05.04.1.06.15.02.05.04.1.06.14.02.05.05.09.07.14.03.05.05.09.08.14.03.05.06.09.09.13.03.04.06.09.09.13.03.04.07.08.1.12.03.04.07.08.11.12.04.04.07.08.11.11.04.04.08.07.12.11.04.04.08.07.12.1.04.03.08.07.13.1.04.03.09.06.13.09.04.03.09.06.13.08.05.03.09.05.14.07.05.02.1.05.14.07.05.02.1.04.15.06.05.02.1.04.15.06.05.02.1.03.15.04.05.01.1.03.15.04.05.01.1.02.15.03.05,0,.1.02.16.02.05,0,.1.02.16.02.05,0,.11,0,.16,0h.06c.05,0,.11,0,.16,0,.02,0,.03,0,.05,0,.05,0,.11-.01.16-.02.05,0,.1-.01.16-.02.05,0,.1-.02.15-.03.05,0,.1-.02.14-.03h.02s.03-.01.05-.02c.07-.02.14-.04.21-.07.05-.02.1-.04.15-.06.05-.02.1-.04.15-.07.05-.02.09-.05.14-.07.05-.02.09-.05.14-.08.05-.03.09-.06.13-.09.04-.03.09-.06.13-.09.04-.03.08-.07.12-.1.04-.03.08-.07.12-.1.04-.04.08-.07.11-.11.04-.04.07-.08.11-.11.04-.04.07-.08.1-.12.03-.04.07-.08.1-.13.03-.04.06-.09.09-.13.03-.05.06-.09.08-.14.03-.05.05-.09.07-.14.02-.05.05-.09.07-.14.02-.05.04-.1.06-.15.02-.05.04-.1.06-.15.02-.05.03-.1.04-.15.01-.05.03-.1.04-.15.01-.05.02-.11.03-.16,0-.05.02-.1.02-.16,0-.05.02-.11.02-.16,0-.05,0-.11,0-.16v-.06c0-.05,0-.11,0-.16,0-.02,0-.03,0-.05,0-.05-.01-.11-.02-.16,0-.05-.01-.11-.02-.16,0-.05-.02-.11-.03-.16,0-.05-.02-.09-.03-.14v-.02s-.01-.03-.02-.05c-.02-.07-.04-.14-.07-.21-.02-.05-.04-.1-.06-.15-.02-.05-.04-.1-.06-.14-.02-.05-.05-.09-.07-.14-.03-.05-.05-.09-.08-.14-.03-.04-.06-.09-.09-.13-.03-.04-.06-.09-.09-.13-.03-.04-.07-.08-.1-.12-.03-.04-.07-.08-.11-.12-.04-.04-.07-.08-.11-.11-.04-.04-.08-.07-.12-.11-.04-.04-.08-.07-.12-.1-.04-.03-.08-.07-.13-.1-.04-.03-.09-.06-.13-.09-.04-.03-.09-.06-.14-.08-.05-.03-.09-.05-.14-.07-.05-.02-.1-.05-.14-.07-.05-.02-.1-.04-.15-.06-.05-.02-.1-.04-.15-.06-.05-.02-.1-.03-.15-.04-.05-.01-.1-.03-.15-.04-.05-.01-.1-.02-.15-.03-.05,0-.11-.02-.16-.02-.05,0-.11-.02-.16-.02-.05,0-.11,0-.16,0h-.06ZM934.51,913.02"/>
          <path class="cls-5" d="M934.51,913.02c-.05,0-.11,0-.16,0-.02,0-.03,0-.05,0-.05,0-.11.01-.16.02-.05,0-.1.01-.16.02-.05,0-.11.02-.16.03-.05,0-.09.02-.14.03h-.02s-.03.01-.05.02c-.07.02-.14.04-.21.07-.05.02-.1.04-.15.06-.05.02-.1.04-.15.07-.05.02-.09.05-.14.07-.05.03-.09.05-.14.08-.04.03-.09.06-.13.09-.04.03-.09.06-.13.09-.04.03-.08.07-.12.1-.04.03-.08.07-.12.11-.04.04-.08.07-.11.11-.04.04-.07.08-.11.12-.03.04-.07.08-.1.12-.03.04-.07.08-.1.13-.03.04-.06.09-.09.13-.03.04-.06.09-.08.14-.03.05-.05.09-.07.14-.02.05-.05.09-.07.14-.02.05-.04.1-.06.15-.02.05-.04.1-.05.15-.02.05-.03.1-.05.15-.01.05-.03.1-.04.15-.01.05-.02.1-.03.16,0,.05-.02.1-.02.16,0,.05-.02.11-.02.16,0,.05,0,.1,0,.16v.06c0,.05,0,.1,0,.16,0,.02,0,.03,0,.05,0,.05.01.11.02.16,0,.05.01.11.02.16,0,.05.02.11.03.16,0,.05.02.09.03.14v.02s.01.03.02.05c.02.07.04.14.07.21.02.05.04.1.06.15.02.05.04.1.06.14.02.05.05.09.07.14.03.05.05.09.08.14.03.05.06.09.09.13.03.04.06.09.09.13.03.04.07.08.1.12.03.04.07.08.11.12.04.04.07.08.11.11.04.04.08.07.12.11.04.04.08.07.12.1.04.03.08.07.13.1.04.03.09.06.13.09.04.03.09.06.13.08.05.03.09.05.14.07.05.02.1.05.14.07.05.02.1.04.15.06.05.02.1.04.15.06.05.02.1.03.15.04.05.01.1.03.15.04.05.01.1.02.15.03.05,0,.1.02.16.02.05,0,.1.02.16.02.05,0,.11,0,.16,0h.06c.05,0,.11,0,.16,0,.02,0,.03,0,.05,0,.05,0,.11-.01.16-.02.05,0,.1-.01.16-.02.05,0,.1-.02.15-.03.05,0,.1-.02.14-.03h.02s.03-.01.05-.02c.07-.02.14-.04.21-.07.05-.02.1-.04.15-.06.05-.02.1-.04.15-.07.05-.02.09-.05.14-.07.05-.02.09-.05.14-.08.05-.03.09-.06.13-.09.04-.03.09-.06.13-.09.04-.03.08-.07.12-.1.04-.03.08-.07.12-.1.04-.04.08-.07.11-.11.04-.04.07-.08.11-.11.04-.04.07-.08.1-.12.03-.04.07-.08.1-.13.03-.04.06-.09.09-.13.03-.05.06-.09.08-.14.03-.05.05-.09.07-.14.02-.05.05-.09.07-.14.02-.05.04-.1.06-.15.02-.05.04-.1.06-.15.02-.05.03-.1.04-.15.01-.05.03-.1.04-.15.01-.05.02-.11.03-.16,0-.05.02-.1.02-.16,0-.05.02-.11.02-.16,0-.05,0-.11,0-.16v-.06c0-.05,0-.11,0-.16,0-.02,0-.03,0-.05,0-.05-.01-.11-.02-.16,0-.05-.01-.11-.02-.16,0-.05-.02-.11-.03-.16,0-.05-.02-.09-.03-.14v-.02s-.01-.03-.02-.05c-.02-.07-.04-.14-.07-.21-.02-.05-.04-.1-.06-.15-.02-.05-.04-.1-.06-.14-.02-.05-.05-.09-.07-.14-.03-.05-.05-.09-.08-.14-.03-.04-.06-.09-.09-.13-.03-.04-.06-.09-.09-.13-.03-.04-.07-.08-.1-.12-.03-.04-.07-.08-.11-.12-.04-.04-.07-.08-.11-.11-.04-.04-.08-.07-.12-.11-.04-.04-.08-.07-.12-.1-.04-.03-.08-.07-.13-.1-.04-.03-.09-.06-.13-.09-.04-.03-.09-.06-.14-.08-.05-.03-.09-.05-.14-.07-.05-.02-.1-.05-.14-.07-.05-.02-.1-.04-.15-.06-.05-.02-.1-.04-.15-.06-.05-.02-.1-.03-.15-.04-.05-.01-.1-.03-.15-.04-.05-.01-.1-.02-.15-.03-.05,0-.11-.02-.16-.02-.05,0-.11-.02-.16-.02-.05,0-.11,0-.16,0h-.06ZM934.51,913.02"/>
          <path class="cls-2" d="M1016.73,1058.23c0,4.9-7.78,9.6-21.64,13.06-13.85,3.46-32.65,5.41-52.24,5.41s-38.39-1.95-52.24-5.41c-13.85-3.46-21.64-8.16-21.64-13.06,0-10.2,33.08-18.47,73.88-18.47s73.88,8.27,73.88,18.47h0ZM1016.73,1058.23"/>
          <path class="cls-15" d="M911.4,1006.39c4.9,18.29,5.77,45.94-1.76,47.95-7.53,2.02-20.6-22.36-25.5-40.65-4.9-18.29,2.17-24.11,7.75-25.6,5.57-1.49,14.61,0,19.51,18.3h0ZM911.4,1006.39"/>
          <path class="cls-12" d="M890.87,984.29c-3.62.97-7.95,3.56-10.34,8.62-2.39,5.06-2.79,12.09-.19,21.8,2.56,9.57,7.14,20.43,12.18,28.93,2.52,4.25,5.13,7.91,7.91,10.6,2.78,2.69,6.16,4.99,10.23,3.9,4.07-1.09,5.85-4.77,6.91-8.49,1.06-3.72,1.49-8.19,1.55-13.13.12-9.89-1.35-21.58-3.92-31.15-2.6-9.71-6.46-15.59-11.06-18.79-4.6-3.19-9.65-3.27-13.27-2.3h0ZM892.91,991.89c1.96-.52,4.21-.6,6.74,1.16,2.53,1.76,5.64,5.76,7.94,14.35,2.34,8.72,3.75,20,3.65,29.02-.05,4.51-.51,8.47-1.25,11.07-.56,1.95-1.22,2.74-1.39,2.97-.26-.12-1.23-.47-2.69-1.88-1.94-1.88-4.32-5.09-6.62-8.96-4.6-7.75-9.01-18.23-11.35-26.95-2.3-8.59-1.61-13.61-.3-16.4,1.32-2.79,3.3-3.85,5.26-4.38h0ZM892.91,991.89"/>
          <path class="cls-15" d="M980.3,1003.4c9.47,16.4,17.46,42.88,10.71,46.77-6.75,3.9-25.68-16.26-35.15-32.66-9.47-16.4-4.14-23.85.86-26.73,5-2.88,14.11-3.78,23.58,12.63h0ZM980.3,1003.4"/>
          <path class="cls-12" d="M954.75,987.37c-3.24,1.87-6.76,5.5-7.76,11.01-1,5.51.44,12.4,5.46,21.11,4.95,8.58,12.18,17.88,19.25,24.79,3.54,3.45,7,6.31,10.38,8.19,3.38,1.88,7.24,3.23,10.89,1.12,3.65-2.11,4.41-6.12,4.47-9.99.06-3.87-.68-8.3-1.9-13.09-2.45-9.58-6.89-20.49-11.84-29.07-5.02-8.7-10.28-13.39-15.55-15.28-5.27-1.89-10.17-.66-13.41,1.22h0ZM958.69,994.19c1.75-1.01,3.91-1.67,6.81-.62,2.9,1.04,6.94,4.11,11.39,11.81,4.52,7.82,8.8,18.35,11.03,27.08,1.11,4.37,1.7,8.31,1.66,11.02-.03,2.03-.47,2.96-.57,3.23-.29-.05-1.31-.13-3.08-1.12-2.36-1.32-5.49-3.79-8.71-6.94-6.45-6.3-13.42-15.27-17.94-23.1-4.45-7.7-5.08-12.73-4.53-15.77.55-3.03,2.19-4.58,3.95-5.59h0ZM958.69,994.19"/>
          <path class="cls-15" d="M834.53,930.29c-18.94,0-45.86-6.32-45.86-14.11s26.92-14.11,45.86-14.11,22.72,8.34,22.72,14.11-3.78,14.11-22.72,14.11h0ZM834.53,930.29"/>
          <path class="cls-12" d="M861.19,916.18c0-3.74-1.38-8.6-5.65-12.22-4.27-3.62-10.96-5.82-21.01-5.82s-21.58,1.61-31.1,4.28c-4.76,1.34-8.97,2.91-12.28,4.9-3.32,1.99-6.42,4.65-6.42,8.87s3.1,6.88,6.42,8.87c3.32,1.99,7.52,3.56,12.29,4.9,9.52,2.67,21.19,4.28,31.1,4.28s16.74-2.21,21.01-5.82c4.27-3.62,5.65-8.48,5.65-12.22h0ZM853.32,916.18c0,2.02-.51,4.22-2.87,6.21-2.35,1.99-7.03,3.96-15.92,3.96s-20.29-1.55-28.97-3.99c-4.34-1.22-8.05-2.68-10.37-4.07-1.74-1.04-2.33-1.89-2.51-2.11.18-.22.77-1.07,2.51-2.11,2.32-1.39,6.03-2.85,10.37-4.07,8.68-2.44,19.94-3.99,28.97-3.99s13.57,1.96,15.92,3.96c2.35,1.99,2.87,4.19,2.87,6.21h0ZM853.32,916.18"/>
          <path class="cls-15" d="M1047.34,904.26c11.53,15.03,22.91,40.23,16.73,44.97-6.18,4.74-27.58-12.77-39.11-27.8-11.53-15.03-7.22-23.1-2.64-26.62,4.58-3.51,13.5-5.59,25.03,9.44h0ZM1047.34,904.26"/>
          <path class="cls-12" d="M1019.92,891.7c-2.97,2.28-5.99,6.33-6.26,11.92-.27,5.59,2.05,12.24,8.17,20.21,6.03,7.86,14.41,16.14,22.33,22.07,3.96,2.96,7.77,5.34,11.36,6.77,3.6,1.42,7.6,2.26,10.94-.31,3.34-2.57,3.57-6.65,3.13-10.49-.44-3.84-1.76-8.14-3.59-12.73-3.68-9.18-9.51-19.42-15.54-27.28-6.12-7.97-11.94-11.94-17.41-13.12-5.47-1.19-10.17.68-13.14,2.96h0ZM1024.71,897.95c1.61-1.23,3.66-2.16,6.67-1.51,3.01.65,7.42,3.17,12.83,10.22,5.5,7.17,11.12,17.05,14.47,25.41,1.67,4.18,2.77,8.02,3.08,10.7.23,2.01-.08,2.99-.15,3.28-.29-.02-1.32.04-3.21-.71-2.52-1-5.94-3.05-9.54-5.75-7.21-5.4-15.3-13.39-20.8-20.56-5.41-7.05-6.7-11.96-6.55-15.04.15-3.08,1.58-4.82,3.18-6.06h0ZM1024.71,897.95"/>
          <path class="cls-12" d="M908.57,748.36s12.35,14.64,17.36,21.58c5.95,8.25,8.23,14.85,8.51,19.45.4,6.62-2.37,9.72-6.33,11.56-3.96,1.84-9.2,1.47-12.46-.87-3.26-2.34-5.72-6.35-3.66-15.58l2.56-11.43-10.95,4.16s-11.93,4.38-21.47,14.01c-4.77,4.81-9.1,11.16-10.59,19.1-1.49,7.94.11,17.17,5.88,26.75,3.27,5.43,3.19,9.04,2.3,11.58-.9,2.54-2.98,4.43-5.22,5.14-12.1,3.86-9.21-25.45-9.21-25.45-6.58,7.34-11.24,13.19-15.7,19.78-9.55,14.1-25.55,42.7-25.55,75.61,0,60.94,50.09,102.93,110.49,102.93s110.49-41.98,110.49-102.93c0-32.3-14.07-57.34-39.77-90.83l-7.93-9.93s-1.32,18.71-8.46,24.18c-2.25,1.73-4.81,2.01-6.89,1.41-2.07-.6-3.59-1.88-4.29-4.41-.7-2.53-.49-6.9,3.26-13.3,12.68-21.63,7.54-43.82-5.83-58.97-9.58-10.86-23.06-18.59-37.4-22.32-13.49-3.5-29.12-1.24-29.12-1.24h0ZM935.99,762.36c11.44,3.21,22.32,9.58,29.66,17.9,10.66,12.09,14.59,26.88,4.41,44.26-4.94,8.43-6.37,16.37-4.54,23.02,1.83,6.65,7.01,11.44,12.92,13.15,5.9,1.72,12.61.61,17.99-3.44,2.37-1.78,4.36-4.2,6.01-7.02,20.25,27.64,29.98,47.74,29.98,73.53,0,54.13-43.2,90.33-97.89,90.33s-97.88-36.19-97.88-90.33c0-26.66,12.45-51,21.18-64.87.9,1.49,2,2.81,3.28,3.92,5.03,4.36,11.86,4.87,17.53,2.91,5.66-1.97,10.71-6.44,12.97-12.85,2.26-6.41,1.37-14.4-3.38-22.28-4.52-7.5-5.18-13.15-4.29-17.92.89-4.77,3.6-8.97,7.16-12.56,2.54-2.56,5.34-4.55,8.01-6.25.95,7.15,4.31,12.94,9.2,16.46,7.43,5.34,17.11,5.78,25.12,2.06,8.01-3.72,14.28-12.55,13.6-23.75-.47-7.83-3.95-16.55-11.03-26.27h0ZM935.99,762.36"/>
          <path class="cls-15" d="M920.37,753.73c56.91,58.12-24.35,73.22-14.53,29.38,0,0-43.6,16.57-23.02,50.72,16.05,26.63-25.57,39.52-21.48,9.01,0,0-31,37.03-31,80.92,0,57.54,46.65,96.63,104.19,96.63s104.19-39.09,104.19-96.63c0-30.51-13.01-53.81-38.47-86.99-3.06,30.1-42.14,20.59-24.75-9.07,22.87-39-18.14-73.97-55.12-73.97h0ZM920.37,753.73"/>
          <path class="cls-10" d="M843.84,870.77c-7.03,14.31-13.51,32.93-13.51,52.99,0,57.54,46.65,96.63,104.19,96.63s104.18-39.09,104.18-96.63c0-16.82-3.96-31.46-11.78-46.77,4.26,11.47,6.42,22.95,6.42,35.69,0,57.54-44.24,96.63-98.82,96.63s-98.82-39.09-98.82-96.63c0-15.21,3.53-29.6,8.15-41.91h0ZM843.84,870.77"/>
          <path class="cls-7" d="M943.34,829.16s-41.78-2.95-36.34,42.68c3.15,26.43-28.7,21.43-18.27-.19-61.25,58.42-12.03,120.89,45.79,120.89s98.19-62.54,56.53-107.94c12.09,35.01-35.34,35.04-30.96,4.46,3.67-25.62-4.62-33.13-14.81-38.73,4.51,17.58-17.64,18.79-16.45,3.53,1.15-14.6,14.51-24.69,14.51-24.69h0ZM943.34,829.16"/>
          <path class="cls-4" d="M1006.63,912.9c-2.35,33.14-33.2,62.56-72.12,62.56-36.85,0-70.14-26.36-72.47-60.86-9.77,42.47,28.9,77.94,72.47,77.94,46.4,0,81.56-40.27,72.11-79.64h0ZM1006.63,912.9"/>
          <path class="cls-12" d="M916.62,752.15l2.62,2.68c14.07,14.37,19.41,25.94,19.91,34.27.5,8.33-3.57,13.58-9.06,16.13-5.48,2.55-12.38,2.15-17.21-1.32-4.83-3.47-7.87-9.93-5.51-20.45l.64-2.86-2.74,1.04s-11.16,4.2-19.79,12.92c-4.31,4.36-8.04,9.9-9.31,16.65-1.27,6.75-.02,14.64,5.28,23.44,3.83,6.35,4.11,11.6,2.7,15.6-1.41,3.99-4.61,6.82-8.13,8.04-3.51,1.22-7.2.82-9.79-1.42-2.59-2.24-4.34-6.52-3.36-13.81l.72-5.39-3.49,4.17s-31.37,37.3-31.37,81.93c0,58.39,47.51,98.2,105.76,98.2,58.25,0,105.76-39.81,105.76-98.2,0-30.96-13.27-54.69-38.79-87.95l-2.41-3.15-.4,3.95c-.73,7.18-3.55,11.77-6.98,14.35-3.43,2.58-7.54,3.19-11.05,2.17-3.51-1.02-6.4-3.61-7.53-7.69-1.12-4.08-.46-9.79,3.74-16.95,11.75-20.03,7.06-39.45-5.29-53.45-12.35-14-32.2-22.89-51.19-22.89h-3.75ZM924.18,755.52c16.84,1.1,34.15,9.3,45.01,21.61,11.68,13.23,16.06,30.8,4.94,49.77-4.5,7.67-5.47,14.27-4.06,19.38,1.41,5.11,5.21,8.58,9.68,9.88,4.47,1.3,9.62.49,13.83-2.68,3.51-2.64,6.23-7,7.54-12.9,23.91,31.54,36.01,54.02,36.01,83.19,0,56.69-45.78,95.05-102.61,95.05s-102.61-38.36-102.61-95.05c0-36.35,20.76-66.73,27.62-75.86.21,5.18,1.95,8.99,4.67,11.34,3.57,3.09,8.51,3.53,12.89,2.01,4.37-1.52,8.31-5,10.06-9.96,1.75-4.96,1.22-11.31-2.98-18.27-4.99-8.28-6.01-15.27-4.89-21.23,1.12-5.96,4.43-10.96,8.45-15.02,5.66-5.72,12.47-9.33,16.08-11.02-1.36,9.81,1.91,16.88,7.24,20.71,5.87,4.21,13.88,4.63,20.37,1.61,6.49-3.02,11.45-9.7,10.87-19.17-.53-8.84-5.76-20.01-18.11-33.38h0ZM924.18,755.52"/>
          <path class="cls-3" d="M906.92,935.51c0,15.24,12.35,24.93,27.59,24.93s27.59-9.69,27.59-24.93c0-19.19-25.25-23.88-19.68-44.64,0,0-35.5,19.69-35.5,44.64h0ZM906.92,935.51"/>
          <path class="cls-12" d="M871.66,869.98c-2.2,2.77-3.52,6.27-3.52,10.1v8.13c0,8.99,7.24,16.23,16.23,16.23s16.23-7.24,16.23-16.23v-6.24l-28.94-11.99ZM871.66,869.98"/>
          <path class="cls-5" d="M893.81,884.56c0,1.39-.55,2.72-1.53,3.7-.98.98-2.31,1.53-3.7,1.53s-2.72-.55-3.7-1.53c-.98-.98-1.53-2.31-1.53-3.7s.55-2.72,1.53-3.7c.98-.98,2.31-1.53,3.7-1.53s2.72.55,3.7,1.53c.98.98,1.53,2.31,1.53,3.7h0ZM893.81,884.56"/>
          <path class="cls-12" d="M964.04,869.98l-28.94,11.99v6.24c0,8.99,7.24,16.23,16.23,16.23s16.23-7.24,16.23-16.23v-8.13c0-3.83-1.32-7.33-3.52-10.1h0ZM964.04,869.98"/>
          <path class="cls-5" d="M960.77,884.56c0,1.39-.55,2.72-1.53,3.7-.98.98-2.31,1.53-3.7,1.53s-2.72-.55-3.7-1.53c-.98-.98-1.53-2.31-1.53-3.7s.55-2.72,1.53-3.7c.98-.98,2.32-1.53,3.7-1.53s2.72.55,3.7,1.53c.98.98,1.53,2.31,1.53,3.7h0ZM960.77,884.56"/>
          <path class="cls-13" d="M881.38,917.27c-4.21,0-7.6,3.39-7.6,7.6v8.58c0,24.34,19.73,44.07,44.07,44.07s44.07-19.73,44.07-44.07v-8.58c0-4.21-3.39-7.6-7.6-7.6h-72.93ZM881.38,917.27"/>
          <path class="cls-1" d="M917.85,947.33c-13.25,0-25.12,5.85-33.2,15.1,8.08,9.25,19.96,15.09,33.2,15.09s25.12-5.84,33.2-15.09c-8.08-9.25-19.96-15.1-33.2-15.1h0ZM917.85,947.33"/>
          <path class="cls-5" d="M881.38,917.27c-4.21,0-7.6,3.39-7.6,7.6v7.66c13.76,6.59,28.81,10.04,44.07,10.08,15.25-.03,30.31-3.47,44.07-10.05v-7.69c0-4.21-3.39-7.6-7.6-7.6h-72.93ZM881.38,917.27"/>
          <path class="cls-14" d="M881.38,917.27c-4.21,0-7.6,3.39-7.6,7.6v7.66c4.97,2.34,10.12,4.27,15.4,5.78-3-2.03-3.58-4.84-3.58-9.25v-11.8h-4.21ZM881.38,917.27"/>
          <path class="cls-14" d="M938.28,917.27v11.79c0,5.95-1.52,11.1-6.64,12.47,10.49-1.41,20.7-4.44,30.27-8.97v-7.69c0-4.21-3.39-7.6-7.6-7.6h-16.03ZM938.28,917.27"/>
          <path class="cls-6" d="M954.31,917.27c4.21,0,7.6,3.39,7.6,7.6v7.66c-4.97,2.34-10.12,4.27-15.4,5.78,3-2.03,3.58-4.84,3.58-9.25v-11.8h4.21ZM954.31,917.27"/>
          <path class="cls-12" d="M881.38,915.69c-5.06,0-9.18,4.12-9.18,9.18v8.58c0,25.19,20.45,45.64,45.64,45.64s45.64-20.45,45.64-45.64v-8.58c0-5.06-4.12-9.18-9.18-9.18h-72.93ZM881.38,918.84h72.93c3.37,0,6.03,2.66,6.03,6.03v8.58c0,23.49-19.01,42.49-42.49,42.49s-42.49-19.01-42.49-42.49v-8.58c0-3.37,2.66-6.03,6.03-6.03h0ZM881.38,918.84"/>
          <path class="cls-12" d="M873.19,931.51l-.69,1.42c28.62,13.96,62.08,13.96,90.7,0l-.69-1.42c-28.19,13.75-61.13,13.75-89.32,0h0ZM873.19,931.51"/>
          <path class="cls-9" d="M912.97,959.21c0,1.37-.77,2.68-2.15,3.65-1.37.97-3.24,1.51-5.18,1.51s-3.81-.54-5.18-1.51c-1.37-.97-2.15-2.28-2.15-3.65s.77-2.68,2.15-3.65c1.37-.97,3.24-1.51,5.18-1.51s3.81.54,5.18,1.51c1.37.97,2.15,2.28,2.15,3.65h0ZM912.97,959.21"/>
        </g>
      </g>
    </g>
  </g>
</svg>