<svg xmlns="http://www.w3.org/2000/svg" id="Capa_1_copia" data-name="Capa 1 copia" viewBox="0 0 209.8 205.6"><defs><style>.cls-1{fill:#c40000}</style></defs><path d="M.4 0h209v8.8H.4z" class="cls-1"/><path d="M200.9 0h8.9v205.6h-8.9zM0 0h8.9v205.6H0z" class="cls-1"/><path d="M.8 196.8h209v8.8H.8z" class="cls-1"/><path fill="#0f0" d="m31.7 173.2-1.7 3.5a4 4 0 0 1-1.6 1.8 5.3 5.3 0 0 1-2.6.6H22c-1.1 0-1.8-.2-2.1-.6s-.3-1 .1-1.8l1.7-3.5a3.9 3.9 0 0 1 1.5-1.8 5.2 5.2 0 0 1 2.7-.6h3.8c1.1 0 1.8.2 2.1.6s.3 1-.1 1.8Zm-4-.5h-1.6a3.3 3.3 0 0 0-.9.1 1.7 1.7 0 0 0-.5.2 2 2 0 0 0-.4.4 4.1 4.1 0 0 0-.3.6l-1 2a2.6 2.6 0 0 0-.2.6.6.6 0 0 0 0 .4.6.6 0 0 0 .3.2 3 3 0 0 0 .8 0h1.7a3.7 3.7 0 0 0 .8 0 1.6 1.6 0 0 0 1-.6 3.7 3.7 0 0 0 .3-.6l1-2a3 3 0 0 0 .1-.6.5.5 0 0 0 0-.4.6.6 0 0 0-.3-.2 2.4 2.4 0 0 0-.8 0Zm5.2 6.4h-2.6l2.7-5.9a4 4 0 0 1 1.6-1.8 5.3 5.3 0 0 1 2.6-.6h7l-1 2h-5.8a3.2 3.2 0 0 0-.8 0 1.7 1.7 0 0 0-.6.2 1.6 1.6 0 0 0-.4.4 2.7 2.7 0 0 0-.3.6h7.4l-1 1.9h-7.3Zm18.7 0h-6.9c-1 0-1.8-.2-2-.6s-.4-1 0-1.8l1.7-3.5a3.9 3.9 0 0 1 1.6-1.8 5.2 5.2 0 0 1 2.6-.6h7l-1 2h-5.8a3.3 3.3 0 0 0-.8 0 1.7 1.7 0 0 0-.6.2 1.7 1.7 0 0 0-.4.4 4.1 4.1 0 0 0-.3.6H54l-.9 1.9h-7.3a2.6 2.6 0 0 0-.2.6.6.6 0 0 0 0 .4.6.6 0 0 0 .3.2 2.9 2.9 0 0 0 .8.1h5.8Zm10-2.8 1.5 2.8h-3l-1.6-2.8H57l-1.4 2.8H53l3.9-8.3h7c1 0 1.7.2 2 .6s.3 1-.1 1.8l-.3.7a4 4 0 0 1-1.5 1.7 4.7 4.7 0 0 1-2.4.7Zm.4-3.6h-3.4l-.7 1.7h3.3a3 3 0 0 0 1.2-.2 1.3 1.3 0 0 0 .6-.7 1.7 1.7 0 0 0 .1-.4.2.2 0 0 0 0-.2.7.7 0 0 0-.4-.2 6 6 0 0 0-.7 0Zm11.6 0-3 6.4H68l3-6.4h-3.7l1-1.9h10l-1 2Zm8.8 6.4.5-2.7h-4.2l-2 2.7H74l4.4-5.9a7.3 7.3 0 0 1 .6-.7 7.4 7.4 0 0 1 1-.8 6 6 0 0 1 1-.6 2.1 2.1 0 0 1 .8-.3h3.4a1.1 1.1 0 0 1 .6.3 1.4 1.4 0 0 1 .4.5 2.3 2.3 0 0 1 .2.8 3.7 3.7 0 0 1 0 .8l-1.1 6Zm.8-4.6a3.4 3.4 0 0 0 .1-1.4.5.5 0 0 0-.6-.4h-.4a1.4 1.4 0 0 0-.5.1 1.7 1.7 0 0 0-.4.3 5.7 5.7 0 0 0-.6.6l-.7.8Zm14 3.1a4.2 4.2 0 0 1-1.3 1.1 3.1 3.1 0 0 1-1.6.4h-8l1-1.9h6.3a.4.4 0 0 0 .3-.1v-.2l-4.3-2.5a1.1 1.1 0 0 1-.4-.8 1.8 1.8 0 0 1 .2-1l.1-.2a4.3 4.3 0 0 1 1.3-1.1 3.1 3.1 0 0 1 1.6-.4h8l-1 1.9h-6.3a.7.7 0 0 0-.2 0 .3.3 0 0 0-.2.2.3.3 0 0 0 .1.2l4.3 2.4a.8.8 0 0 1 .1.2 1.2 1.2 0 0 1 .2.4 1.6 1.6 0 0 1 0 .5 1.8 1.8 0 0 1-.1.7.8.8 0 0 1-.1.2Z"/><path fill="red" d="m20.8 185-3.2 7H14l3.7-8a5.3 5.3 0 0 1 2.1-2.3 7 7 0 0 1 3.5-.8h5.1c1.5 0 2.4.2 2.8.8s.4 1.3-.1 2.4l-3.7 7.8h-3.5l3.2-6.8a4 4 0 0 0 .2-.7.7.7 0 0 0 0-.6.7.7 0 0 0-.4-.3 3.7 3.7 0 0 0-1-.1h-2.3a4.8 4.8 0 0 0-1 .1 2.3 2.3 0 0 0-.8.3 2 2 0 0 0-.6.5 4 4 0 0 0-.4.8Zm19.4 7 .7-3.7h-5.6l-2.7 3.6H29l5.8-7.9a10.6 10.6 0 0 1 .9-1 10.8 10.8 0 0 1 1.2-1 9.7 9.7 0 0 1 1.3-.8 2.7 2.7 0 0 1 1.2-.3h4.4a1.4 1.4 0 0 1 1 .2 1.8 1.8 0 0 1 .5.8 3.2 3.2 0 0 1 .2 1 5 5 0 0 1 0 1l-1.6 8Zm1.2-6.2a4.9 4.9 0 0 0 0-1.9.7.7 0 0 0-.7-.5h-.5a1.9 1.9 0 0 0-.7.1 2.2 2.2 0 0 0-.6.4 8.4 8.4 0 0 0-.8.8l-.9 1.1Zm10-1.3a20.1 20.1 0 0 0-.4 3.3 4.8 4.8 0 0 0 .2 1.1c0 .3.1.5.3.5h.2a1.3 1.3 0 0 0 .7-.3 9 9 0 0 0 1.3-1.3l2-2.6 3.4-4.3h3.6l-5.9 7.9a8.3 8.3 0 0 1-.9 1 15.8 15.8 0 0 1-1.2 1 9.5 9.5 0 0 1-1.4.8 3 3 0 0 1-1.2.3h-3.3a1.4 1.4 0 0 1-1-.3 2 2 0 0 1-.5-.7 3 3 0 0 1-.3-1 4.4 4.4 0 0 1 0-1.1l1.5-8H52Zm11.3 7.5H59l5.2-11.1h3.6Zm18.8-8-2.2 4.8a5.3 5.3 0 0 1-2.1 2.3 7 7 0 0 1-3.6.8h-9.2l5.2-11h9.2c1.5 0 2.4.2 2.8.8s.4 1.3-.1 2.4Zm-5.3-.6H72l-2.8 6h4.2a4.8 4.8 0 0 0 1.1-.1 2.3 2.3 0 0 0 .8-.3 2.5 2.5 0 0 0 .5-.6 5.1 5.1 0 0 0 .4-.7l1.3-2.6a4 4 0 0 0 .3-.8.8.8 0 0 0 0-.5.7.7 0 0 0-.5-.3 3.6 3.6 0 0 0-1-.1ZM93 192h-9.3c-1.4 0-2.4-.3-2.8-.8s-.3-1.4.2-2.4l2.2-4.7a5.3 5.3 0 0 1 2-2.4 7 7 0 0 1 3.6-.8h9.2l-1.1 2.5h-7.8a4.9 4.9 0 0 0-1 .1 2.3 2.3 0 0 0-.8.3 2 2 0 0 0-.6.5 4 4 0 0 0-.4.8h9.8l-1.2 2.5h-9.8l-.1.1a3.6 3.6 0 0 0-.3.8.7.7 0 0 0 0 .5.7.7 0 0 0 .5.3 3.5 3.5 0 0 0 1 .1H94Zm8.5-7-3.2 7h-3.6l3.7-8a5.3 5.3 0 0 1 2.1-2.3 7 7 0 0 1 3.6-.8h5c1.5 0 2.4.2 2.8.8s.4 1.3-.1 2.4l-3.7 7.8h-3.5l3.2-6.8a3.4 3.4 0 0 0 .2-.7.7.7 0 0 0 0-.6.7.7 0 0 0-.4-.3 3.7 3.7 0 0 0-1-.1h-2.3a4.8 4.8 0 0 0-1 .1 2.3 2.3 0 0 0-.8.3 2 2 0 0 0-.6.5 4 4 0 0 0-.4.8Zm7.9-4.8H107l-.6-1.3-1.7 1.3h-2.6l3.6-2.6h2.3l.6 1.3 1.7-1.3h2.6ZM121 192l.6-3.7H116l-2.7 3.6h-3.6l5.8-7.9a10.6 10.6 0 0 1 .9-1 10.8 10.8 0 0 1 1.1-1 9.7 9.7 0 0 1 1.3-.8 2.7 2.7 0 0 1 1.2-.3h4.5a1.4 1.4 0 0 1 .9.3 1.8 1.8 0 0 1 .5.7 3.2 3.2 0 0 1 .2 1 5 5 0 0 1 0 1.1l-1.5 8Zm1-6.2a4.9 4.9 0 0 0 .2-1.9.7.7 0 0 0-.8-.5h-.6a1.9 1.9 0 0 0-.6.1 2.2 2.2 0 0 0-.6.4 8.4 8.4 0 0 0-.8.8l-1 1.1Zm18.7 4.1a5.8 5.8 0 0 1-1.7 1.5 4.2 4.2 0 0 1-2.2.5h-10.7l1.2-2.5h8.5a.5.5 0 0 0 .5-.2v-.2l-.1-.1-5.7-3.3a1.6 1.6 0 0 1-.5-1 2.4 2.4 0 0 1 .3-1.4 1.4 1.4 0 0 1 .1-.3 5.8 5.8 0 0 1 1.7-1.4 4.2 4.2 0 0 1 2.1-.6H145l-1.2 2.5h-8.5a.7.7 0 0 0-.3 0 .4.4 0 0 0-.2.3.2.2 0 0 0 0 .1.5.5 0 0 0 .2.1l5.6 3.3a.9.9 0 0 1 .2.2 2 2 0 0 1 .3.5 2.4 2.4 0 0 1 0 .8 2.4 2.4 0 0 1-.2.9 1 1 0 0 1-.2.3Z"/><path d="M209.8 161.3v44.3h-53.5c-8-30 25.3-57.2 53.5-44.3Z" class="cls-1"/><path fill="#00f502" d="M193.4 177.5c-.1 0-.8 2.7-.2-1 0-4-5.9-4.8-9-4.4-2.3.3-6.1 1.4-5.8 4.4.7 3.7 0 1-.2 1s-1.1 11.2-.8 12.2c.2 1 5 4.1 6.5 5.1l.8 2.3-.3-2a102.8 102.8 0 0 1-.6-10.5c-.4-.3-4.5-3.2-4.4-4.2 5.6 3.2 5.2 1.2 5.6 7.8 0 .3.8.9.8.9s.7-.6.8-.9c.4-6.6 0-4.6 5.6-7.8.1 1-4 3.9-4.3 4.2a79.2 79.2 0 0 1-1 12.6l.8-2.3c1.4-1 6.3-4.2 6.6-5.1.3-1.1-.9-12.3-.9-12.3Zm-8.7-4.8c-2.6.8-5 2.8-4.3 5.7-4.4-3.6 4-6 4.7-6Z"/></svg>