<svg id="Capa_1" data-name="Capa 1" xmlns="http://www.w3.org/2000/svg" viewBox="0 0 2167.9 2167.9"><defs><style>.cls-5{fill:#fff}</style></defs><path d="M285.6 1611a273.7 273.7 0 1 0 0 547.4 273.7 273.7 0 0 0 0-547.4Zm0 455.8a182 182 0 1 1 0-364.2 182 182 0 0 1 0 364.1Z" style="fill:#88f239"/><path d="M285.6 2167.3a282.7 282.7 0 1 1 199.9-82.8 280.8 280.8 0 0 1-199.9 82.8Zm0-547.3c-146 0-264.7 118.7-264.7 264.7s118.8 264.6 264.7 264.6 264.7-118.7 264.7-264.7S431.5 1620 285.6 1620Zm0 455.7c-105.4 0-191-85.7-191-191s85.6-191.1 191-191.1 191 85.7 191 191-85.6 191.1-191 191.1Zm0-364.1c-95.4 0-173 77.6-173 173s77.6 173.1 173 173.1 173-77.6 173-173-77.6-173.1-173-173.1Z" style="fill:#00d80f"/><rect x="103.5" y="1702.6" width="1073.6" height="364.2" rx="182.1" style="fill:#4700e2"/><path d="M995 2073.2H285.6c-104 0-188.6-84.6-188.6-188.5S181.6 1696 285.6 1696H995c104 0 188.6 84.6 188.6 188.6S1099 2073.2 995 2073.2Zm-709.4-364.1c-96.8 0-175.6 78.7-175.6 175.6s78.8 175.5 175.6 175.5H995c96.8 0 175.6-78.7 175.6-175.5S1091.8 1709 995 1709Z" style="fill:#00e010"/><path class="cls-5" d="m343.5 1770 19.9 48.4L416 1770h31.2l-33.4 96.8h-32.7l15.4-44.8-46.2 41.2h-5.9l-17.7-41.2-15.3 44.7h-32.6l33.4-96.7ZM538.6 1866.7H463q-18.7 0-24.5-7t-.9-21.7l13.6-39.3q5-14.6 15.8-21.7t29.4-7H572l-8.7 25.2H499q-8.2 0-11.8 2.5a17 17 0 0 0-5.7 7.6h78.2l-8.8 25.4h-78.2c-1.2 3.7-1.2 6.4 0 8.2s4.8 2.6 10.3 2.6h64.3ZM663.6 1866.7H588q-18.7 0-24.5-7t-.9-21.7l13.5-39.3q5-14.6 16-21.7t29.3-7H697l-8.7 25.2H624a31.6 31.6 0 0 0-7.5.7 14.9 14.9 0 0 0-5.1 2.3 11 11 0 0 0-3.3 3.8 33.6 33.6 0 0 0-2.3 5.3l-7.7 22a30.9 30.9 0 0 0-1.3 5.4 5.4 5.4 0 0 0 .7 3.8 6.2 6.2 0 0 0 3.5 2.3 25.5 25.5 0 0 0 7 .7h31.8l10.5-30.4h32.4ZM788.6 1866.7h-32.4l12.5-36.2h-45.9l-12.5 36.2h-32.5l23.3-68q5-14.6 15.9-21.7t29.3-7H787q18.5 0 24.3 7t.7 21.7Zm-39.6-71.6q-8.2 0-11.8 2.6a17.1 17.1 0 0 0-5.7 7.6h45.7c.9-3.4.7-6-.5-7.6s-4.5-2.6-9.8-2.6ZM360 1967.8q-5.3 15.5-16.6 23t-31.1 7.6H269q-20 0-26.1-7.5t-1-23l14.5-42q5.3-15.5 16.8-23t31.3-7.6h43.2q19.7 0 25.9 7.6t.8 23Zm-52.5-45.6a33.7 33.7 0 0 0-8 .8 15.4 15.4 0 0 0-5.5 2.4 11.8 11.8 0 0 0-3.5 4 36.3 36.3 0 0 0-2.4 5.7l-8.2 23.5a32.5 32.5 0 0 0-1.4 5.7 5.7 5.7 0 0 0 .7 4 6.5 6.5 0 0 0 3.7 2.5 26.9 26.9 0 0 0 7.5.8h19a33.2 33.2 0 0 0 8-.8 14.6 14.6 0 0 0 5.3-2.4 13 13 0 0 0 3.6-4.1 31.5 31.5 0 0 0 2.5-5.7l8.1-23.5a27 27 0 0 0 1.4-5.6 6.4 6.4 0 0 0-.7-4.1 6 6 0 0 0-3.6-2.4 27.3 27.3 0 0 0-7.5-.8ZM412.5 1960l-13.2 38.4h-34.6l24.9-72.5q5.3-15.5 16.8-23t31.3-7.6h80.5l-9.2 26.9h-68.4q-8.7 0-12.6 2.7a18.1 18.1 0 0 0-6 8.1h83.3l-9.5 27ZM615.8 1998.4h-80.5q-20 0-26.1-7.5t-1-23l14.5-42q5.3-15.4 16.9-23t31.2-7.5h80.5l-9.2 26.8h-68.4q-8.7 0-12.6 2.7a18 18 0 0 0-6.1 8.1h83.3l-9.4 27h-83.3q-2 5.9 0 8.7t11 2.8H625ZM757.6 1955.2q-9 7.5-24.7 9l21 34.3h-40.5l-21.2-33.8h-14.8l-11.5 33.8h-34.8l35.5-103.1h80.5q20 0 26 7.5t.8 23.2l-2.7 7.7q-4.5 13.8-13.6 21.4Zm-65.6-32.5-5 14.4h35.7c4.9 0 8.3-.5 10.4-1.5a9.2 9.2 0 0 0 4.5-5.6 17.2 17.2 0 0 0 .8-3.8 2.3 2.3 0 0 0-1-2.2 8 8 0 0 0-3.3-1 58.3 58.3 0 0 0-6.4-.3ZM866 1922.2l-26.3 76.2H805l26.3-76.2H790l9.3-26.8h117.3l-9.3 26.8ZM1013.9 1998.4h-34.5l13.3-38.6h-48.9l-13.3 38.6H896l24.8-72.5q5.4-15.4 17-23t31.2-7.5h43.2q19.7 0 25.8 7.5t.8 23Zm-42.2-76.2q-8.7 0-12.5 2.7a18.1 18.1 0 0 0-6.1 8.1h48.7c1-3.6.7-6.4-.6-8.1s-4.8-2.7-10.4-2.7Z"/></svg>