<svg xmlns="http://www.w3.org/2000/svg" id="Capa_1_copia" data-name="Capa 1 copia" viewBox="0 0 209.8 205.6"><defs><style>.cls-4{fill:#00d300}</style></defs><path fill="#0f0" d="m22 181.3-1.6 3.5a4 4 0 0 1-1.6 1.8 5.3 5.3 0 0 1-2.7.6h-3.8c-1.1 0-1.8-.2-2.1-.6s-.3-1 .1-1.8l1.7-3.6a4 4 0 0 1 1.6-1.7 5.2 5.2 0 0 1 2.6-.6H20c1.1 0 1.8.2 2.1.5s.3 1-.1 1.8Zm-4-.6h-1.6a3.7 3.7 0 0 0-.9.1 1.6 1.6 0 0 0-.5.3 1.5 1.5 0 0 0-.4.4 3.3 3.3 0 0 0-.4.5l-.9 2a2.2 2.2 0 0 0-.2.6.7.7 0 0 0 0 .4.6.6 0 0 0 .4.2 2.7 2.7 0 0 0 .7.1h1.7a3.7 3.7 0 0 0 .8 0 1.7 1.7 0 0 0 .6-.3 1.7 1.7 0 0 0 .4-.4 3.6 3.6 0 0 0 .3-.6l1-2a2.4 2.4 0 0 0 .1-.6.5.5 0 0 0 0-.4.5.5 0 0 0-.3-.2 2.7 2.7 0 0 0-.8 0Zm5.2 6.5h-2.7l2.8-6a4 4 0 0 1 1.6-1.7 5.3 5.3 0 0 1 2.7-.6h6.9l-1 1.8h-5.8a3.7 3.7 0 0 0-.8.1 1.5 1.5 0 0 0-.6.3 1.6 1.6 0 0 0-.4.4 3.3 3.3 0 0 0-.3.5H33l-.9 2h-7.4Zm18.8 0h-7c-1 0-1.8-.2-2.1-.6s-.3-1 .1-1.8l1.7-3.6a4 4 0 0 1 1.5-1.8 5.2 5.2 0 0 1 2.7-.5h7l-1 1.8h-5.8a3.7 3.7 0 0 0-.8.1 1.6 1.6 0 0 0-.6.3 1.7 1.7 0 0 0-.4.4 4.1 4.1 0 0 0-.3.5h7.4l-1 1.9h-7.3a2.6 2.6 0 0 0-.2.6.7.7 0 0 0 0 .4.6.6 0 0 0 .3.3 2.7 2.7 0 0 0 .8 0h5.8Zm10-2.9 1.4 2.9h-3l-1.6-2.9h-1.6l-1.3 2.9h-2.6l3.9-8.3H54c1 0 1.8.2 2 .5s.3 1 0 1.9l-.3.6a4 4 0 0 1-1.5 1.7 4.7 4.7 0 0 1-2.4.7Zm.3-3.6H49l-.7 1.7h3.3a2.9 2.9 0 0 0 1.2-.2 1.2 1.2 0 0 0 .5-.6 1.8 1.8 0 0 0 .2-.4.2.2 0 0 0 0-.3.7.7 0 0 0-.4-.1 6 6 0 0 0-.7 0Zm11.7.1-3 6.4h-2.8l3-6.4h-3.6l.9-2h10l-.9 2Zm8.7 6.4.5-2.8H69l-2 2.8h-2.8l4.4-6a8.5 8.5 0 0 1 .7-.7 7.4 7.4 0 0 1 .9-.8 6 6 0 0 1 1-.6 2 2 0 0 1 .9-.2h3.3a1 1 0 0 1 .7.2 1.3 1.3 0 0 1 .4.6 2.3 2.3 0 0 1 .1.7 3.7 3.7 0 0 1 0 .8l-1.1 6Zm.8-4.6a3.6 3.6 0 0 0 .1-1.4.5.5 0 0 0-.6-.4h-.4a1.2 1.2 0 0 0-.5 0 1.6 1.6 0 0 0-.4.3 4.7 4.7 0 0 0-.6.6l-.7.9Zm14 3a4.3 4.3 0 0 1-1.3 1.1 3.2 3.2 0 0 1-1.6.5h-8l1-2h6.3a.4.4 0 0 0 .3-.1v-.2l-4.3-2.5a1.2 1.2 0 0 1-.4-.7 2 2 0 0 1 .3-1.3 4.3 4.3 0 0 1 1.3-1.1 3.1 3.1 0 0 1 1.6-.4h8l-1 1.8h-6.3a.5.5 0 0 0-.2.1.4.4 0 0 0-.2.1.2.2 0 0 0 0 .2h.1l4.3 2.5a.6.6 0 0 1 .1.2 1.4 1.4 0 0 1 .2.3 2 2 0 0 1 0 .6 1.9 1.9 0 0 1-.1.7 1 1 0 0 1-.1.2Z"/><path fill="red" d="M11 193.1 8 200H4.3l3.7-7.9a5.3 5.3 0 0 1 2.1-2.4 7 7 0 0 1 3.5-.8h5.1c1.5 0 2.4.3 2.8.8s.4 1.3-.1 2.4l-3.7 7.9h-3.5l3.2-6.8a2.9 2.9 0 0 0 .2-.8.6.6 0 0 0-.5-.8 3.6 3.6 0 0 0-1-.1H14a4.8 4.8 0 0 0-1 0 2.3 2.3 0 0 0-.8.4 2 2 0 0 0-.6.5 4.5 4.5 0 0 0-.4.7Zm19.5 6.9.7-3.6h-5.6L23 200h-3.6l5.8-7.9a9.4 9.4 0 0 1 .9-1 9.9 9.9 0 0 1 1.2-1 8 8 0 0 1 1.3-.8 2.7 2.7 0 0 1 1.2-.3H34a1.4 1.4 0 0 1 1 .3 2 2 0 0 1 .5.7 3 3 0 0 1 .2 1 5 5 0 0 1-.1 1.1l-1.5 7.9Zm1.2-6.1a4.7 4.7 0 0 0 0-1.9.7.7 0 0 0-.7-.5h-.6a1.9 1.9 0 0 0-.6 0 2.6 2.6 0 0 0-.7.5 7.2 7.2 0 0 0-.7.7l-1 1.2Zm10-1.3a20.8 20.8 0 0 0-.4 3.2 5.3 5.3 0 0 0 .1 1.2c.1.3.2.4.4.4h.2a1.4 1.4 0 0 0 .7-.3A9.7 9.7 0 0 0 44 196a70 70 0 0 0 5.4-7H53l-5.9 7.9a8.3 8.3 0 0 1-.9 1 12.3 12.3 0 0 1-1.2 1 8.7 8.7 0 0 1-1.4.8 3 3 0 0 1-1.2.4H39a1.4 1.4 0 0 1-1-.3 2 2 0 0 1-.5-.8 2.9 2.9 0 0 1-.3-1 4.5 4.5 0 0 1 0-1l1.4-8h3.7ZM53 200h-3.6l5.2-11h3.6Zm18.8-7.9-2.2 4.7a5.3 5.3 0 0 1-2.1 2.4 7 7 0 0 1-3.6.8h-9.2l5.2-11h9.2c1.5 0 2.4.2 2.8.7s.4 1.3-.1 2.4Zm-5.3-.7h-4.2l-2.8 6h4.2a4.8 4.8 0 0 0 1 0 2 2 0 0 0 .9-.4 2 2 0 0 0 .5-.5 4.1 4.1 0 0 0 .4-.8l1.3-2.6a3.8 3.8 0 0 0 .2-.7.8.8 0 0 0 0-.6.7.7 0 0 0-.4-.3 3.6 3.6 0 0 0-1 0Zm16.7 8.6H74c-1.5 0-2.4-.3-2.8-.8s-.4-1.3.1-2.4l2.3-4.7a5.3 5.3 0 0 1 2-2.4 7 7 0 0 1 3.6-.7h9.2l-1.2 2.5h-7.8a4.8 4.8 0 0 0-1 0 2.3 2.3 0 0 0-.8.4 2.5 2.5 0 0 0-.6.5 4.5 4.5 0 0 0-.4.8h9.8l-1.1 2.5h-9.9a4.8 4.8 0 0 0-.2.8.7.7 0 0 0 0 .5.7.7 0 0 0 .4.4 3.5 3.5 0 0 0 1 0h7.8Zm8.6-6.9-3.2 6.9H85l3.7-7.9a5.3 5.3 0 0 1 2.1-2.4 7 7 0 0 1 3.5-.7h5.1c1.5 0 2.4.2 2.8.7s.4 1.4-.1 2.4l-3.7 7.9h-3.6l3.3-6.8a3.2 3.2 0 0 0 .2-.8.6.6 0 0 0-.5-.8 3.6 3.6 0 0 0-1-.1h-2.2a4.8 4.8 0 0 0-1.1 0 2.3 2.3 0 0 0-.8.4 2 2 0 0 0-.5.5 4.5 4.5 0 0 0-.4.7Zm7.9-5h-2.3l-.6-1.1-1.8 1.2h-2.5l3.6-2.5h2.3l.6 1.2 1.7-1.2h2.6Zm11.5 11.9.7-3.6h-5.6l-2.7 3.6H100l5.8-7.9a9.4 9.4 0 0 1 .9-1 9.9 9.9 0 0 1 1.2-1 8 8 0 0 1 1.3-.8 2.7 2.7 0 0 1 1.2-.3h4.4a1.4 1.4 0 0 1 1 .3 2 2 0 0 1 .5.7 3 3 0 0 1 .2 1 5 5 0 0 1 0 1.1l-1.6 7.9Zm1.1-6.1a4.7 4.7 0 0 0 .2-1.9.7.7 0 0 0-.8-.5h-.6a1.9 1.9 0 0 0-.6 0 2.6 2.6 0 0 0-.7.5 7.2 7.2 0 0 0-.7.7l-1 1.2ZM131 198a5.6 5.6 0 0 1-1.8 1.4 4.1 4.1 0 0 1-2 .6h-10.8l1.2-2.5h8.5a.5.5 0 0 0 .5-.3v-.2l-.1-.1-5.7-3.2a1.6 1.6 0 0 1-.5-1 2.5 2.5 0 0 1 .3-1.4 2.2 2.2 0 0 1 .1-.3 5.8 5.8 0 0 1 1.7-1.5 4.1 4.1 0 0 1 2.1-.6h10.7l-1.2 2.5h-8.5a.8.8 0 0 0-.3.1.4.4 0 0 0-.2.2.2.2 0 0 0 0 .2.4.4 0 0 0 .1 0l5.7 3.3a1.2 1.2 0 0 1 .2.2 1.7 1.7 0 0 1 .2.6 2.5 2.5 0 0 1 .1.7 2.3 2.3 0 0 1-.2.9 1.7 1.7 0 0 1-.2.3Z"/><path fill="#c40000" d="M0 0h209.8v12.5H0z"/><path d="M20.5 6.3 16 12.5h-3.6l4.5-6.2.9-1.2 2.5 1.2h.2z" class="cls-4"/><path d="m20.5 6.2-.2.1-2.5 1.2-.9-1.2L12.4 0H16l4.5 6.2zm9.8.1-4.5 6.2h-3.6l4.6-6.2.8-1.2 2.6 1.2h.1z" class="cls-4"/><path d="m30.3 6.2-.1.1-2.6 1.2-.8-1.2L22.2 0h3.6l4.5 6.2zm9.8.1-4.4 6.2H32l4.6-6.2.8-1.2L40 6.3h.1z" class="cls-4"/><path d="m40.1 6.2-.1.1-2.6 1.2-.8-1.2L32 0h3.7l4.4 6.2zm10.2.1-4.4 6.2h-3.6l4.5-6.2.8-1.2 2.6 1.2h.1z" class="cls-4"/><path d="m50.3 6.2-.1.1-2.6 1.2-.8-1.2L42.3 0h3.6l4.4 6.2zm10 .1-4.4 6.2h-3.6l4.5-6.2.8-1.2 2.6 1.2h.1z" class="cls-4"/><path d="m60.3 6.2-.1.1-2.6 1.2-.8-1.2L52.3 0h3.6l4.4 6.2zm9.5.1-4.5 6.2h-3.6l4.5-6.2.9-1.2 2.5 1.2h.2z" class="cls-4"/><path d="m69.8 6.2-.2.1-2.5 1.2-.9-1.2L61.7 0h3.6l4.5 6.2z" class="cls-4"/><path fill="#fff" d="M90.4 9.3h-4.3c-.7 0-1.1-.1-1.3-.4s-.2-.6 0-1.2l1-2.3a2.5 2.5 0 0 1 1-1.2 3.1 3.1 0 0 1 1.7-.3h4.3L92.3 5h-3.7a1.9 1.9 0 0 0-.5 0 1 1 0 0 0-.3.2 1 1 0 0 0-.3.3 1.9 1.9 0 0 0-.2.3H92l-.5 1.3h-4.6a1.5 1.5 0 0 0-.2.4.4.4 0 0 0 0 .3.3.3 0 0 0 .3.1 1.4 1.4 0 0 0 .4 0H91Zm9.6-5.4-2.5 5.4H96l-1.7-3.1-1.4 3.1h-1.7l2.5-5.5H95L97 7l1.4-3.1Zm4.1 1.1-1.8 4.3h-1.7l1.9-4.2h-2.3l.6-1.3h6.2l-.6 1.3Zm6.6 2.4 1 2h-1.9l-1-2h-1l-.8 2h-1.6l2.4-5.5h4.3c.7 0 1.1 0 1.3.3s.2.7 0 1.2l-.3.4a2.7 2.7 0 0 1-.9 1.2 2.9 2.9 0 0 1-1.5.4Zm.3-2.3h-2.1l-.5 1h2.1a1.7 1.7 0 0 0 .7 0 .9.9 0 0 0 .4-.5 2 2 0 0 0 0-.2.2.2 0 0 0 0-.2.4.4 0 0 0-.2 0Zm7.7 4.2h-4.4c-.6 0-1-.1-1.3-.4s-.1-.6.1-1.2l1-2.3a2.5 2.5 0 0 1 1-1.2 3.1 3.1 0 0 1 1.7-.3h4.3l-.6 1.2H117a1.9 1.9 0 0 0-.5 0 .9.9 0 0 0-.4.2 1 1 0 0 0-.2.3 1.9 1.9 0 0 0-.2.3h4.5l-.5 1.3H115a1.5 1.5 0 0 0-.1.4.4.4 0 0 0 0 .3.3.3 0 0 0 .2.1 1.4 1.4 0 0 0 .5 0h3.6Zm7 0h-4.3c-.7 0-1-.1-1.3-.4s-.1-.6.1-1.2l1-2.3a2.5 2.5 0 0 1 1-1.2 3.1 3.1 0 0 1 1.6-.3h4.4l-.6 1.2H124a1.9 1.9 0 0 0-.5 0 .9.9 0 0 0-.4.2 1.3 1.3 0 0 0-.2.3 2.6 2.6 0 0 0-.2.3l-.6 1.3a1.5 1.5 0 0 0-.1.4.4.4 0 0 0 0 .3.3.3 0 0 0 .2.1 1.4 1.4 0 0 0 .4 0h2l.8-1.7h1.7Zm8.9-3.9-1.8 4h-1.6l1-2.2h-3l-1 2.1h-1.6l1.7-3.9a2.6 2.6 0 0 1 1-1.2 3.1 3.1 0 0 1 1.6-.3h2.4c.7 0 1.1 0 1.3.3s.2.7 0 1.2Zm-4.9.5h3a1.8 1.8 0 0 0 0-.3.4.4 0 0 0 0-.3.3.3 0 0 0-.1-.1 1.4 1.4 0 0 0-.5-.1H131a1.8 1.8 0 0 0-.5 0 .9.9 0 0 0-.3.2 1.3 1.3 0 0 0-.3.3 2.6 2.6 0 0 0-.2.3Zm9.3 3.4h-1.7l2.5-5.5h1.6Zm9.5-5.4-2.4 5.4h-1.5L143 6.2l-1.4 3.1h-1.7l2.5-5.5h1.4l1.8 3.2 1.4-3.1Zm2.5 0 .9 2.9 3.4-3h1.7l-2.4 5.5h-1.7l1.3-2.9-3.3 2.7h-.2l-.8-2.7-1.3 3h-1.7l2.4-5.6Zm10.6 5.4h-4.3c-.7 0-1.1-.1-1.3-.4s-.2-.6 0-1.2l1-2.3a2.6 2.6 0 0 1 1-1.2 3.1 3.1 0 0 1 1.7-.3h4.3l-.6 1.2h-3.6a1.9 1.9 0 0 0-.5 0 1 1 0 0 0-.4.2 1.2 1.2 0 0 0-.2.3 2.6 2.6 0 0 0-.2.3h4.6l-.6 1.3H158a2 2 0 0 0-.1.4.4.4 0 0 0 0 .3.3.3 0 0 0 .1.1 1.3 1.3 0 0 0 .5 0h3.6Zm8.8-3.9-1 2.3a2.6 2.6 0 0 1-1 1.2 3.1 3.1 0 0 1-1.6.4h-4.4l2.5-5.5h4.3c.7 0 1 .2 1.3.4s.1.7-.1 1.2Zm-2.4-.3h-2l-1.3 3h2a1.8 1.8 0 0 0 .5 0 1 1 0 0 0 .3-.2 1 1 0 0 0 .3-.3 2.1 2.1 0 0 0 .2-.4l.6-1.3a2.8 2.8 0 0 0 .1-.3.4.4 0 0 0 0-.3.3.3 0 0 0-.2-.1 1.4 1.4 0 0 0-.5-.1Zm3.2 4.2h-1.7l2.4-5.5h1.7Zm8.8-3.9-1.7 4h-1.7l1-2.2h-3l-1 2.1H172l1.7-3.9a2.6 2.6 0 0 1 1-1.2 3.1 3.1 0 0 1 1.7-.3h2.3c.7 0 1.2 0 1.4.3s.1.7-.1 1.2Zm-4.8.5h3a2.8 2.8 0 0 0 0-.3.4.4 0 0 0 0-.3.3.3 0 0 0-.2-.1 1.4 1.4 0 0 0-.4-.1h-1a1.9 1.9 0 0 0-.6 0 1 1 0 0 0-.3.2 1.2 1.2 0 0 0-.3.3 2.6 2.6 0 0 0-.2.3Zm9.7-.9L183 9.4h-1.7l2-4.2H181l.6-1.2h6.2l-.6 1.2Zm9.1.4-1.6 4h-1.7l1-2.2h-3l-.9 2.1h-1.6l1.7-3.9a2.6 2.6 0 0 1 1-1.2 3.1 3.1 0 0 1 1.6-.3h2.4c.7 0 1.1 0 1.3.3s.1.7-.1 1.2Zm-4.7.5h2.9a2.8 2.8 0 0 0 .1-.3.4.4 0 0 0 0-.3.3.3 0 0 0-.2-.1 1.4 1.4 0 0 0-.4-.1h-1a1.9 1.9 0 0 0-.6 0 1 1 0 0 0-.3.2 1.2 1.2 0 0 0-.3.3 2.6 2.6 0 0 0-.2.3Z"/></svg>