<?xml version="1.0" encoding="utf-8"?>
<!-- Generator: Adobe Illustrator 27.5.0, SVG Export Plug-In . SVG Version: 6.00 Build 0)  -->
<svg version="1.1" id="Capa_1" xmlns="http://www.w3.org/2000/svg" xmlns:xlink="http://www.w3.org/1999/xlink" x="0px" y="0px"
	 viewBox="0 0 1080 1080" style="enable-background:new 0 0 1080 1080;" xml:space="preserve">
<style type="text/css">
	.st0{fill:none;}
	.st1{fill:url(#SVGID_1_);stroke:#FFFFFF;stroke-width:7;stroke-miterlimit:10;}
	.st2{fill:#FFFFFF;}
</style>
<rect class="st0" width="1080" height="1080"/>
<linearGradient id="SVGID_1_" gradientUnits="userSpaceOnUse" x1="164.7926" y1="985.6241" x2="915.2074" y2="985.6241">
	<stop  offset="0" style="stop-color:#D45E00"/>
	<stop  offset="0.1902" style="stop-color:#E3710B"/>
	<stop  offset="0.4491" style="stop-color:#F38415"/>
	<stop  offset="0.7158" style="stop-color:#FC8F1C"/>
	<stop  offset="1" style="stop-color:#FF931E"/>
</linearGradient>
<path class="st1" d="M915.21,985.62L915.21,985.62c0,35.48-28.76,64.24-64.24,64.24H229.04c-35.48,0-64.24-28.76-64.24-64.24v0
	c0-35.48,28.76-64.24,64.24-64.24h621.93C886.44,921.38,915.21,950.14,915.21,985.62z"/>
<g>
	<path class="st2" d="M237.08,1001.21h-7.79c-0.52,0-0.95-0.43-0.95-0.95v-33.44c0-0.52,0.43-0.9,0.95-0.9h7.79
		c0.52,0,0.95,0.38,0.95,0.9v33.44C238.03,1000.78,237.6,1001.21,237.08,1001.21z"/>
	<path class="st2" d="M271.71,1001.21h-6.37c-0.85,0-1.47-0.38-1.99-1.28l-9.36-15.91c-0.19-0.33-0.33-0.38-0.48-0.38
		c-0.14,0-0.24,0.09-0.24,0.43v16.2c0,0.52-0.43,0.95-0.95,0.95h-7.12c-0.52,0-1-0.43-1-0.95v-32.58c0-0.95,0.81-1.76,1.76-1.76
		h6.27c0.9,0,1.42,0.52,1.9,1.38l9.64,16.39c0.19,0.33,0.29,0.43,0.43,0.43s0.24-0.05,0.24-0.43v-16.82c0-0.52,0.43-0.95,0.95-0.95
		h7.12c0.52,0,0.95,0.43,0.95,0.95v32.58C273.47,1000.4,272.66,1001.21,271.71,1001.21z"/>
	<path class="st2" d="M300.07,1000.78c-1.23,0.43-3.66,0.86-6.65,0.86c-8.74,0-14.63-4.75-14.63-15.63v-4.89
		c0-10.88,5.89-15.63,14.63-15.63c2.99,0,5.42,0.43,6.65,0.86c0.76,0.24,1.04,0.38,1.04,1.04v6.08c0,0.67-0.19,1-1,0.9
		c-1.95-0.19-3.94-0.43-6.65-0.43c-2.56,0-4.89,1.14-4.89,7.17V986c0,5.99,2.28,7.17,4.89,7.17c2.71,0,4.56-0.19,6.65-0.43
		c0.85-0.09,1,0.33,1,0.9v6.08C301.11,1000.35,300.83,1000.54,300.07,1000.78z"/>
	<path class="st2" d="M325.67,1001.06c-1.71,0.33-4.94,0.57-7.46,0.57c-6.08,0-12.21-1.42-12.21-10.64v-24.13
		c0-0.52,0.48-0.95,1-0.95h7.74c0.52,0,0.95,0.43,0.95,0.95v24.13c0,1.85,0.57,2.38,2.28,2.38h7.7c0.52,0,0.95,0.43,0.95,0.95v5.79
		C326.62,1000.68,326.29,1000.97,325.67,1001.06z"/>
	<path class="st2" d="M343.53,1001.63c-7.46,0-14.35-2.33-14.35-13.82v-20.95c0-0.52,0.48-0.95,1-0.95h7.69
		c0.52,0,0.95,0.43,0.95,0.95v20.95c0,4.32,1.33,5.7,4.7,5.7s4.75-1.38,4.75-5.7v-20.95c0-0.52,0.43-0.95,0.95-0.95h7.7
		c0.52,0,1,0.43,1,0.95v20.95C357.92,999.3,350.99,1001.63,343.53,1001.63z"/>
	<path class="st2" d="M392.27,966.91l-6.98,16.39c-1,2.33-2.09,3.56-3.37,4.09v12.87c0,0.52-0.43,0.95-0.95,0.95h-7.74
		c-0.52,0-0.9-0.43-0.9-0.95v-12.87c-1.28-0.52-2.38-1.76-3.37-4.09l-6.98-16.39c-0.05-0.14-0.09-0.24-0.09-0.38
		c0-0.33,0.24-0.62,0.67-0.62h8.27c0.95,0,1.09,0.43,1.28,0.9l4.56,12.59c0.14,0.38,0.33,0.47,0.48,0.47s0.33-0.09,0.48-0.47
		l4.56-12.59c0.19-0.47,0.28-0.9,1.28-0.9h8.27c0.43,0,0.67,0.29,0.67,0.62C392.36,966.67,392.31,966.77,392.27,966.91z"/>
	<path class="st2" d="M415.59,1001.06c-1.81,0.24-4.75,0.57-9.36,0.57c-6.08,0-12.16-1.42-12.16-10.64v-14.92
		c0-9.17,6.08-10.64,12.16-10.64c4.61,0,7.55,0.33,9.36,0.57c0.62,0.1,0.95,0.38,0.95,0.95v5.79c0,0.52-0.43,0.95-0.95,0.95H406
		c-1.71,0-2.28,0.52-2.28,2.38v3.47h11.69c0.52,0,0.95,0.43,0.95,0.95v5.6c0,0.52-0.43,0.95-0.95,0.95h-11.69v3.94
		c0,1.85,0.57,2.38,2.28,2.38h9.6c0.52,0,0.95,0.43,0.95,0.95v5.79C416.54,1000.68,416.21,1000.97,415.59,1001.06z"/>
	<path class="st2" d="M435.4,1010.33c-1.33,0-2.8-0.09-4.32-0.33c-0.76-0.1-0.95-0.43-0.95-0.95v-5.18c0-0.52,0.43-0.95,0.95-0.95
		h1.76c1.04,0,1.28-0.62,1.28-1.8v-34.25c0-0.52,0.48-0.95,1-0.95h7.74c0.52,0,0.95,0.43,0.95,0.95v34.25
		C443.81,1008.42,440.39,1010.33,435.4,1010.33z"/>
	<path class="st2" d="M464.23,1001.63c-7.46,0-14.35-2.33-14.35-13.82v-20.95c0-0.52,0.48-0.95,1-0.95h7.69
		c0.52,0,0.95,0.43,0.95,0.95v20.95c0,4.32,1.33,5.7,4.7,5.7s4.75-1.38,4.75-5.7v-20.95c0-0.52,0.43-0.95,0.95-0.95h7.7
		c0.52,0,1,0.43,1,0.95v20.95C478.63,999.3,471.69,1001.63,464.23,1001.63z"/>
	<path class="st2" d="M505.94,1001.06c-1.81,0.24-4.75,0.57-9.36,0.57c-6.08,0-12.16-1.42-12.16-10.64v-14.92
		c0-9.17,6.08-10.64,12.16-10.64c4.61,0,7.55,0.33,9.36,0.57c0.62,0.1,0.95,0.38,0.95,0.95v5.79c0,0.52-0.43,0.95-0.95,0.95h-9.6
		c-1.71,0-2.28,0.52-2.28,2.38v3.47h11.69c0.52,0,0.95,0.43,0.95,0.95v5.6c0,0.52-0.43,0.95-0.95,0.95h-11.69v3.94
		c0,1.85,0.57,2.38,2.28,2.38h9.6c0.52,0,0.95,0.43,0.95,0.95v5.79C506.89,1000.68,506.56,1000.97,505.94,1001.06z"/>
	<path class="st2" d="M536.86,1000.49c-2.71,0.57-6.37,1.14-10.97,1.14c-5.7,0-14.35-2.71-14.35-15.58v-4.99
		c0-13.01,8.41-15.63,15.01-15.63c4.94,0,8.46,0.76,10.4,1.28c0.67,0.19,0.9,0.29,0.9,0.9v5.99c0,0.67-0.24,0.81-0.81,0.76
		c-1.81-0.14-5.65-0.43-9.17-0.43c-4.51,0-6.55,1.38-6.55,7.12v5.04c0,6.37,2.71,7.27,4.56,7.27c0.9,0,1.8-0.05,2.61-0.14v-9.74
		c0-0.52,0.38-0.95,0.9-0.95h7.51c0.52,0,0.95,0.43,0.95,0.95v15.91C537.86,1000.11,537.62,1000.35,536.86,1000.49z"/>
	<path class="st2" d="M557.43,1001.63c-7.88,0-14.58-4.04-14.58-15.63v-4.89c0-11.59,6.7-15.67,14.58-15.67
		c7.89,0,14.58,4.08,14.58,15.67V986C572.01,997.59,565.32,1001.63,557.43,1001.63z M562.23,981.11c0-5.08-1.47-7.17-4.8-7.17
		s-4.8,2.09-4.8,7.17V986c0,5.08,1.47,7.12,4.8,7.12s4.8-2.04,4.8-7.12V981.11z"/>
	<path class="st2" d="M601.7,1001.63c-4.51,0-8.41-0.38-10.88-0.81c-1.04-0.19-1.52-0.57-1.52-1.85V968.1
		c0-1.28,0.47-1.66,1.52-1.85c2.47-0.43,6.32-0.81,10.88-0.81c9.41,0,15.44,4.8,15.44,15.48v5.23
		C617.14,996.83,611.16,1001.63,601.7,1001.63z M607.4,980.92c0-5.7-1.9-7.22-5.7-7.22c-0.57,0-1.33,0-2.71,0.05v19.62
		c0.33,0.05,2.09,0.05,2.71,0.05c3.8,0,5.7-1.52,5.7-7.27V980.92z"/>
	<path class="st2" d="M643.6,1001.06c-1.8,0.24-4.75,0.57-9.36,0.57c-6.08,0-12.16-1.42-12.16-10.64v-14.92
		c0-9.17,6.08-10.64,12.16-10.64c4.61,0,7.55,0.33,9.36,0.57c0.62,0.1,0.95,0.38,0.95,0.95v5.79c0,0.52-0.43,0.95-0.95,0.95h-9.59
		c-1.71,0-2.28,0.52-2.28,2.38v3.47h11.68c0.52,0,0.95,0.43,0.95,0.95v5.6c0,0.52-0.43,0.95-0.95,0.95h-11.68v3.94
		c0,1.85,0.57,2.38,2.28,2.38h9.59c0.52,0,0.95,0.43,0.95,0.95v5.79C644.55,1000.68,644.22,1000.97,643.6,1001.06z"/>
	<path class="st2" d="M690.2,1001.21h-8.74c-0.52,0-0.71-0.47-0.95-0.95l-6.03-11.59c-0.71,0-1.23,0-2.71-0.05v11.64
		c0,0.52-0.43,0.95-0.95,0.95h-7.7c-0.52,0-1-0.43-1-0.95v-31.07c0-2.28,0.76-2.8,2.75-3.13c1.9-0.29,6.65-0.62,10.02-0.62
		c8.83,0,14.87,2.8,14.87,11.5v0.76c0,5.08-2.8,8.08-5.79,9.36l6.89,12.92c0.1,0.19,0.14,0.38,0.14,0.52
		C691.01,1000.92,690.68,1001.21,690.2,1001.21z M680.18,976.93c0-2.23-1.57-3.37-4.75-3.37c-0.33,0-2.28,0-3.66,0.09v7.55
		c0.24,0.05,3.18,0.05,3.47,0.05c3.66,0,4.94-1.28,4.94-3.51V976.93z"/>
	<path class="st2" d="M716.14,1001.06c-1.8,0.24-4.75,0.57-9.36,0.57c-6.08,0-12.16-1.42-12.16-10.64v-14.92
		c0-9.17,6.08-10.64,12.16-10.64c4.61,0,7.55,0.33,9.36,0.57c0.62,0.1,0.95,0.38,0.95,0.95v5.79c0,0.52-0.43,0.95-0.95,0.95h-9.59
		c-1.71,0-2.28,0.52-2.28,2.38v3.47h11.68c0.52,0,0.95,0.43,0.95,0.95v5.6c0,0.52-0.43,0.95-0.95,0.95h-11.68v3.94
		c0,1.85,0.57,2.38,2.28,2.38h9.59c0.52,0,0.95,0.43,0.95,0.95v5.79C717.09,1000.68,716.75,1000.97,716.14,1001.06z"/>
	<path class="st2" d="M747.06,1000.49c-2.71,0.57-6.37,1.14-10.97,1.14c-5.7,0-14.34-2.71-14.34-15.58v-4.99
		c0-13.01,8.41-15.63,15.01-15.63c4.94,0,8.46,0.76,10.4,1.28c0.67,0.19,0.9,0.29,0.9,0.9v5.99c0,0.67-0.24,0.81-0.81,0.76
		c-1.81-0.14-5.65-0.43-9.17-0.43c-4.51,0-6.55,1.38-6.55,7.12v5.04c0,6.37,2.71,7.27,4.56,7.27c0.9,0,1.81-0.05,2.61-0.14v-9.74
		c0-0.52,0.38-0.95,0.9-0.95h7.5c0.52,0,0.95,0.43,0.95,0.95v15.91C748.06,1000.11,747.82,1000.35,747.06,1000.49z"/>
	<path class="st2" d="M772.81,1000.3l-1.33-6.6h-8.46l-1.33,6.6c-0.1,0.47-0.29,0.9-0.95,0.9h-8.22c-0.71,0-0.85-0.47-0.76-1
		l6.37-29.07c1.04-4.7,4.61-5.65,9.12-5.65s8.08,0.95,9.12,5.65l6.36,29.07c0.14,0.57,0,1-0.71,1h-8.27
		C773.09,1001.21,772.9,1000.78,772.81,1000.3z M767.77,974.04c-0.1-0.43-0.1-0.67-0.52-0.67c-0.43,0-0.43,0.24-0.52,0.67
		l-2.33,12.06h5.7L767.77,974.04z"/>
	<path class="st2" d="M806.44,1001.06c-1.71,0.33-4.94,0.57-7.46,0.57c-6.08,0-12.21-1.42-12.21-10.64v-24.13
		c0-0.52,0.47-0.95,1-0.95h7.74c0.52,0,0.95,0.43,0.95,0.95v24.13c0,1.85,0.57,2.38,2.28,2.38h7.7c0.52,0,0.95,0.43,0.95,0.95v5.79
		C807.39,1000.68,807.06,1000.97,806.44,1001.06z"/>
	<path class="st2" d="M824.11,1001.63c-7.89,0-14.58-4.04-14.58-15.63v-4.89c0-11.59,6.7-15.67,14.58-15.67
		c7.88,0,14.58,4.08,14.58,15.67V986C838.69,997.59,831.99,1001.63,824.11,1001.63z M828.91,981.11c0-5.08-1.47-7.17-4.8-7.17
		s-4.8,2.09-4.8,7.17V986c0,5.08,1.47,7.12,4.8,7.12s4.8-2.04,4.8-7.12V981.11z"/>
	<path class="st2" d="M852.56,965.44l-1.19,23.32c-0.05,0.52-0.43,1-0.95,1h-5.04c-0.52,0-1-0.48-1.04-1l-1.19-23.32v-0.05
		c0-0.52,0.52-0.9,1.04-0.9h7.41c0.52,0,0.95,0.38,0.95,0.9V965.44z M851.33,1001.21h-6.93c-0.52,0-0.95-0.43-0.95-0.95v-6.6
		c0-0.52,0.43-0.95,0.95-0.95h6.93c0.52,0,0.95,0.43,0.95,0.95v6.6C852.28,1000.78,851.85,1001.21,851.33,1001.21z"/>
</g>
</svg>
