<?xml version="1.0" encoding="utf-8"?>
<!-- Generator: Adobe Illustrator 27.7.0, SVG Export Plug-In . SVG Version: 6.00 Build 0)  -->
<svg version="1.1" id="Capa_1" xmlns="http://www.w3.org/2000/svg" xmlns:xlink="http://www.w3.org/1999/xlink" x="0px" y="0px"
	 viewBox="0 0 1080 1080" style="enable-background:new 0 0 1080 1080;" xml:space="preserve">
<style type="text/css">
	.st0{fill:none;}
	.st1{fill:#77B900;}
	.st2{fill:#FE6401;}
	.st3{fill:#2A3C47;}
	.st4{fill:#FE6002;}
	.st5{fill:#3F3F42;}
	.st6{fill:#BC531F;}
	.st7{fill:#343D45;}
	.st8{fill:#A85026;}
	.st9{fill:#B55222;}
	.st10{fill:#474040;}
	.st11{fill:#704636;}
	.st12{fill:#5B423B;}
	.st13{fill:#7D4832;}
	.st14{fill:#8A4B2F;}
	.st15{fill:#EF5C0B;}
	.st16{fill:#E25A11;}
	.st17{fill:#9B4E2A;}
	.st18{fill:#C3541D;}
	.st19{fill:#4C413F;}
	.st20{fill:#D75816;}
	.st21{fill:#8F4C2D;}
	.st22{fill:#D15718;}
	.st23{fill:#5F433A;}
	.st24{fill:#E85B0E;}
	.st25{fill:#CA551B;}
	.st26{fill:#F25D09;}
	.st27{fill:#54423D;}
	.st28{fill:#989FA3;}
	.st29{fill:#DDA086;}
	.st30{fill:#FEE8D5;}
	.st31{fill:#FEFEFE;}
	.st32{fill:#FFFFFF;stroke:#FFFFFF;stroke-miterlimit:10;}
</style>
<rect class="st0" width="1080" height="1080"/>
<rect y="945.4" class="st1" width="1080.5" height="135"/>
<g>
	<path class="st2" d="M1032.4,978.7c0,2.8,0,5.7,0,8.5c0,1.7-0.9,2.7-2.6,2.7c-4.5,0-9,0-13.5,0c-1.2,0-2.2-1-2.2-2.2
		c0-1.1-0.1-2.2-0.1-3.3c0-4.7,0.1-9.5,0-14.2c0-1.9,1.2-2.6,2.7-2.6c4.2,0,8.3,0,12.5,0c1,0,2.3-0.1,2.8,1.1
		c0.2,0.4,0.3,0.9,0.3,1.4C1032.4,973,1032.4,975.8,1032.4,978.7z M1023.3,970.9c-0.1,0-0.2,0-0.4,0c-0.7,0-1.4,0-2.2,0
		c-0.1,0-0.1,0-0.2,0c-0.3,0.1-0.6,0.1-0.9,0.2c-1.4,0.6-2.5,3.1-2.1,4.5c0.1,0.2,0.4,0.4,0.6,0.4c0.9,0.1,1.7,0,2.6,0
		c0.1-0.6,0.2-1.1,0.3-1.7c0.8,0,1.6,0,2.4,0c0.5,0,1-0.1,1.3-0.4c0.8-0.6,1.4-1.3,2.1-2c0.5-0.5,0.4-0.8-0.3-0.9
		C1025.6,971,1024.5,971,1023.3,970.9z M1028.5,972.6c-0.5,0.4-0.9,0.6-1.2,0.9c-2.8,2.7-5.5,5.4-8.3,8c-1.4,1.3-2,2.8-1.6,4.8
		c0.2,0,0.5,0.1,0.7,0.1c2.7,0,5.5,0,8.2-0.1c1.7,0,2.3-0.5,2.7-2.2c0.2-0.8,0-1-0.8-1c-1.9,0-3.7,0-5.6,0c-0.3,0-0.5,0-0.9,0
		c0.2-0.2,0.2-0.4,0.3-0.4c1.5-1.4,2.9-2.9,4.5-4.2C1028.4,976.9,1028.9,975,1028.5,972.6z"/>
	<path class="st3" d="M919.9,978.7c-0.3,0.4-0.4,0.7-0.5,0.9c-1,2-2.1,4-3.1,6.1c-0.3,0.5-0.5,0.8-1.2,0.8c-0.8-0.1-1.7,0.2-2.3-0.1
		s-0.7-1.3-1.1-2c-2.2-4.3-4.3-8.5-6.5-12.8c-0.3-0.6-0.2-0.8,0.5-0.8c1.4,0,2.8,0.1,4.2,0c0.8,0,1.2,0.3,1.5,0.9
		c0.9,2,1.9,4,2.9,6.1c0.3-0.5,0.6-0.8,0.8-1.2c0.9-1.7,1.7-3.4,2.5-5.2c0.3-0.6,0.6-0.8,1.2-0.7c0.8,0,1.6,0.1,2.3,0
		c0.8-0.1,1.1,0.3,1.3,0.9c0.9,1.9,1.8,3.8,2.7,5.7c0.1,0.1,0.1,0.2,0.3,0.4c0.2-0.3,0.3-0.4,0.4-0.6c0.9-1.9,1.9-3.9,2.8-5.8
		c0.2-0.4,0.4-0.6,0.9-0.6c1.7,0,3.4,0,5.1,0c0.1,0.1,0.1,0.2,0.2,0.3c-0.5,1-1,2-1.5,2.9c-1.7,3.4-3.5,6.8-5.2,10.2
		c-0.2,0.4-0.4,0.8-0.6,1.3c-0.3,0.9-1,1.1-1.8,1.1c-0.3,0-0.6,0-0.9,0c-0.7,0.1-1.1-0.2-1.4-0.9c-1-2.1-2.1-4.1-3.1-6.2
		C920.3,979.3,920.1,979.1,919.9,978.7z"/>
	<path class="st3" d="M906.3,986.4c-1,0-2.1,0-3.1,0c-0.8,0-1.5,0-2.3,0.1c-1,0.2-1.6-0.4-2.2-1c-1.7-1.6-3.4-3.3-5.1-4.9
		c-0.2-0.2-0.4-0.5-0.4-0.8c0-1,0-2,0-3.1c1.6,0,3.1,0,4.7,0c1,0,1.1-0.1,1.1-1.1c0-0.7-0.6-0.7-0.9-0.7c-2.2,0-4.4,0-6.6,0
		c-0.2,0-0.5,0.4-0.5,0.6c0,3,0,6,0.1,9c0,2,0.1,2-1.9,2c-1,0-1.9,0-2.9,0c-0.4,0-0.7-0.1-0.7-0.6c0-5,0-10,0-15.1
		c0.3,0,0.5,0,0.8,0c4.5,0,9,0,13.6,0c1.4,0,2.8,0.3,3.7,1.5c0.4,0.5,0.7,1.2,0.8,1.8c0.1,1.2,0,2.4-0.1,3.5
		c-0.2,1.3-1.6,2.5-2.9,2.6c-0.3,0-0.7,0.1-1.1,0.2c2.1,2,4.1,3.9,6.1,5.7C906.3,986.2,906.3,986.3,906.3,986.4z"/>
	<path class="st3" d="M829.1,986c1-0.8,2-1.5,2.9-2.4c1.1-1.1,2.4-1.3,3.9-1.2c1.4,0.1,2.8,0,4.2,0c0.7,0,1-0.2,1-0.9
		c0-2.1,0-4.1,0-6.3c-0.5-0.1-0.9-0.2-1.3-0.2c-2.2,0-4.4,0-6.7,0c-1,0-1.2,0.2-1.2,1.3c0,1.4,0,2.8,0,4.2c0,0.3-0.2,0.6-0.4,0.8
		c-1.3,1-2.6,2.1-3.9,3.1c-0.5,0.4-0.9,0.2-0.9-0.4c-0.1-1.8-0.1-3.6-0.2-5.4c0-1.2,0-2.4,0-3.6c-0.1-2.4,1.7-4,3.9-4
		c3.7,0,7.3-0.1,11-0.1c0.3,0,0.5,0,0.8,0c1,0,1.7,0.2,2,1.3c0.2,0.8,0.6,1.6,1.1,2.4c0.9,1.3,0.9,2.9,1,4.4c0.1,1.3,0,2.5,0,3.8
		c0,2.3-1.5,3.6-3.5,3.7c-2.2,0.2-4.4,0.1-6.6,0.1c-1.8,0-3.6,0.1-5.5,0.1c-0.6,0-1.1-0.2-1.7-0.3
		C829.1,986.2,829.1,986.1,829.1,986z"/>
	<path class="st3" d="M980.5,980.3c1.6,0,3.2,0,4.7,0c0.2,0,0.5,0.4,0.5,0.5c0,1,0,2.1-0.2,3.1c-0.3,1.3-1.4,2-2.6,2.2
		c-1.2,0.2-2.5,0.2-3.8,0.3c-2,0-4.1,0-6.1,0c-1.5,0-2.9,0-4.4-0.2c-1.2-0.2-2.7-1.5-2.7-3.2c0.1-2.1,0-4.3,0-6.4
		c0-0.4,0.1-0.8,0.3-1.1c0.6-1.3,1.2-2.7,1.9-4c0.1-0.3,0.6-0.6,0.9-0.6c2.4-0.1,4.8-0.1,7.2-0.2c1.7,0,3.3-0.1,5,0
		c0.9,0,1.8,0.3,2.6,0.6c1.1,0.4,1.7,1.4,1.8,2.5c0.1,0.9,0.1,1.8,0,2.6c0,0.2-0.4,0.4-0.6,0.4c-1.4,0-2.7,0-4.1,0
		c-1,0-0.7-0.8-0.8-1.2c0-0.8-0.4-0.8-1-0.8c-2.3,0-4.6,0-6.9,0c-1,0-1.3,0.3-1.3,1.3c0,1.5,0,3,0,4.4c0,1.3,0.3,1.6,1.6,1.6
		c1.9,0,3.8,0,5.6,0C980.3,982.4,980.4,982.5,980.5,980.3z"/>
	<path class="st3" d="M988,970.8c0.1,0,0.2,0,0.3,0h0.1h0.1c1.5,0,3.1,0,4.8,0c0,0.6,0,1.2,0,1.7c0,1.3,0,2.5,0,3.8
		c0,0.2,0.3,0.6,0.5,0.6c2.9,0,5.8,0,8.8,0c0-1.7,0-3.4,0-5c0-1,0-1,1.1-1s2.3,0,3.4,0c0.4,0,0.7,0.1,0.7,0.6
		c0,4.7,0.1,9.5,0.1,14.2c0,0.7-0.2,1.1-1,1c-1.2-0.1-2.4,0-3.6,0c-0.5,0-0.7-0.2-0.7-0.7s0-0.9,0-1.4c0-1.3,0-2.7,0-4.1
		c-3.2,0-6.2,0-9.2,0c0,1.3,0,2.5,0,3.7c0,0.5,0,1.1,0,1.6c0,0.6-0.2,0.8-0.8,0.8c-1.5,0-3,0-4.6,0C988,981.3,988,976.1,988,970.8
		C987.9,970.8,987.9,970.8,988,970.8z"/>
	<path class="st3" d="M883.1,986.5c-4.8,0-9.7,0-14.5,0.1c-0.6,0-0.8-0.2-0.8-0.8c0-3.1,0-6.2,0-9.4c0-0.5,0.2-1.1,0.4-1.6
		c0.5-1.2,1.1-2.3,1.7-3.4c0.1-0.3,0.5-0.6,0.8-0.6c4.2,0,8.4,0,12.5,0c0.1,0,0.2,0,0.4,0.1c0,1.2,0,2.3,0,3.5c0,0.1,0,0.1,0,0.2
		c-0.3,0.1-0.6,0.4-0.8,0.4c-2.9,0-5.8,0-8.8,0c-0.3,0-0.6,0-0.9,0c0,0.6,0,1.2,0,1.8c2.9,0,5.8,0,8.7,0c0,1.1,0,2.1,0,3.1
		c0,0.2-0.5,0.4-0.8,0.4c-2.2,0-4.4,0-6.7,0c-0.4,0-0.8,0-1.3,0c0.1,0.7,0.1,1.2,0.2,1.8c0.1,0,0.1,0.1,0.2,0.1c2.5,0,5,0,7.5,0
		c0.7,0,1.3,0,2,0c0.5,0,0.8,0.2,0.8,0.8c0,0.9,0,1.8,0,2.7c0,0.2-0.2,0.4-0.3,0.6C883.2,986.5,883.1,986.5,883.1,986.5z"/>
	<path class="st3" d="M846.1,970.8c1.9,0,3.7,0,5.4,0c0.6,0,0.8,0.5,1,1c1.4,2.9,2.8,5.8,4.3,9c0.5-1,0.9-1.7,1.3-2.5
		c1.1-2.3,2.2-4.6,3.3-6.8c0.2-0.4,0.5-0.6,1-0.6c1.7,0,3.4,0,5.3,0c-0.4,1-0.8,1.8-1.1,2.5c-1.8,3.5-3.6,7.1-5.5,10.6
		c-0.3,0.7-0.6,1.4-1,2c-0.2,0.3-0.7,0.6-1,0.6c-1.5,0.1-2.9,0-4.4,0c-0.7,0-1-0.5-1.2-1c-2.2-4.3-4.3-8.7-6.5-13
		C846.7,972,846.4,971.5,846.1,970.8z"/>
	<path class="st3" d="M940.2,976.8c-1.1,2.2-2.2,4.2-3.2,6.2c-0.5,1-0.9,2-1.5,3c-0.2,0.3-0.6,0.6-0.9,0.6c-1.6,0.1-3.3,0-5.2,0
		c0.4-0.8,0.7-1.5,1-2.2c2-4,4.1-8,6-12.1c0.6-1.2,1.2-1.6,2.4-1.5s2.5,0.1,3.8,0c0.5,0,0.7,0.2,0.9,0.6c2.3,4.7,4.7,9.5,7,14.2
		c0.1,0.2,0.2,0.5,0.3,0.9c-1.9,0-3.6,0-5.4,0c-0.2,0-0.5-0.4-0.7-0.6c-1.4-2.8-2.8-5.6-4.3-8.5C940.5,977.2,940.4,977,940.2,976.8z
		"/>
	<path class="st3" d="M966.2,970.9c-0.4,1-0.9,1.8-1.2,2.6c-0.4,1.3-1.2,1.7-2.5,1.5c-1.3-0.1-2.5,0-3.9,0c0,1.2,0,2.3,0,3.4
		c0,2.4,0,4.9,0,7.3c0,0.5-0.1,0.8-0.7,0.8c-1.5,0-3,0-4.6,0c0-3.9,0-7.7,0-11.6c-1.7,0-3.3,0-5,0c-0.5,0-0.8-0.1-1-0.6
		c-0.4-1-1-2-1.4-3c-0.1-0.2-0.1-0.3-0.2-0.5C952.6,970.9,959.3,970.9,966.2,970.9z"/>
	<path class="st4" d="M994.7,1056.3c-3.8,0-7.5,0-11.3,0c-2.6-0.3-4.4-1.7-5.6-4c-0.3-0.6-0.5-1.2-0.7-1.9c1,0,2-0.1,3-0.1
		c1.4,0,2.7-0.1,4.1,0c0.7,0,1-0.2,1.2-0.8c0.3,0.2,0.6,0.3,0.9,0.5c-0.1,0.1-0.2,0.1-0.2,0.2l0.1,0.1c0-0.1,0.1-0.2,0.1-0.3
		c0.3,0,0.6,0,0.9,0.1c0.1,0,0.1,0,0.2,0c1.3,0,2.6,0,3.9,0c0.8,0,1.5-0.3,2.1-0.9c0.1,1,0.1,1,1.3,0.9c0.2,0,0.3,0,0.5,0
		c2,0.1,4.1,0.1,6.1,0.2c0,0.1,0,0.1,0,0.2h-0.1v0.1c-0.7,3.1-2.7,4.9-5.7,5.7C995.2,1056.2,995,1056.2,994.7,1056.3z"/>
	<path class="st4" d="M948,1056.3c-3.1,0-6.3,0-9.4,0c-2.1-0.1-3.7-1.2-4.8-2.9c-0.7-1.1-1.1-2.5-1.6-3.7c0.6,0,1.1,0,1.7,0
		c1.6-0.1,3.2-0.1,4.9-0.2c0.2,0,0.3-0.2,0.5-0.3c0.2-0.1,0.3-0.2,0.5-0.3c0.6,1,1.6,1.2,2.7,1.2c0.9,0,1.8-0.1,2.8-0.1
		c0.8,0,1.4-0.4,1.9-1.1c0.2,0.2,0.4,0.5,0.7,0.6c0.5,0.1,1.1,0,1.7,0c1.7,0,3.5,0,5.2,0c-0.1,1.6-0.6,3-1.6,4.1
		C951.7,1055.2,950,1056.1,948,1056.3z"/>
	<path class="st4" d="M887.5,1056.3c-2.8,0-5.5,0-8.3,0c-0.2-0.4-0.5-0.7-0.6-1.1c-0.3-1.9-0.6-3.9-0.9-5.8c1.2,0,2.5,0,3.7,0
		c2.1,0,4.3,0,6.4,0c0.4,0,0.9-0.1,1.3-0.1c-0.3,1.8-0.6,3.5-0.9,5.3c0,0.3,0,0.6-0.1,0.9C888,1055.7,887.7,1056,887.5,1056.3z"/>
	<path class="st5" d="M977,1004.6c0.4-1.3,0.9-2.6,2-3.6c0.2,0.3,0.4,0.6,0.7,0.7c0.5,0.2,1.1,0.2,1.6,0.2c5.2,0,10.5,0,15.7,0
		c0.8,0,1.7-0.2,2.5-0.3c0.9,1,1.3,2.2,1.5,3.4c-0.4-0.1-0.8-0.1-1.1-0.1c-2,0-3.9,0-5.9,0c-0.6,0-1.1,0.1-1.4,0.6
		c-1.1-0.2-2.3-0.4-3.4-0.4c-1.1-0.1-2.1,0.1-3.2,0.1c-0.2-0.1-0.5-0.4-0.7-0.4C982.6,1004.6,979.8,1004.6,977,1004.6z"/>
	<path class="st6" d="M917.3,1035.3c-2.6,0-5.2,0-7.8,0c-0.2,0-0.3,0.1-0.5,0.1h-0.1c-1.4,0-2.8,0-4.1,0c-1.1,0-2.3,0-3.4,0
		c0-0.9,0-1.8,0-2.7c0.6-0.1,1.3-0.2,1.9-0.1c2.3,0,4.6,0.1,6.9,0.1c2.3,0,4.6-0.1,6.9-0.1c2,0,4.1,0,6.1,0c0.7,0,1.3,0,2,0
		c0,1,0,2,0,3c-0.5,0.1-1,0.2-1.5,0.2c-2-0.1-4.1,0.2-6.1-0.3h-0.1C917.4,1035.4,917.3,1035.4,917.3,1035.3z"/>
	<path class="st7" d="M999.6,1001.6c-0.8,0.1-1.7,0.3-2.5,0.3c-5.2,0-10.5,0-15.7,0c-0.5,0-1.1,0-1.6-0.2c-0.3-0.1-0.5-0.5-0.7-0.7
		c1.2-1.5,2.9-2.1,4.7-2.2c2.7-0.1,5.5-0.2,8.2-0.1c1.3,0,2.5,0.3,3.8,0.4C997.5,999.3,998.6,1000.4,999.6,1001.6z"/>
	<path class="st8" d="M901.3,1030.5c0-0.9,0-1.8,0-2.7c0.4,0.1,0.8,0.1,1.1,0.1c2.1,0,4.2,0,6.3,0c0.1,0.1,0.1,0.2,0.2,0.3
		c2.7,0,5.4,0,8.1,0c0.2,0,0.4-0.2,0.6-0.3c0.3,0,0.5,0,0.8,0c0.7,0,1.5,0.1,2.2,0.2c0.3,0,0.6-0.1,0.9-0.1c1.2,0,2.4,0,3.6,0
		c0,0.8,0,1.7,0,2.5C917.2,1030.5,909.2,1030.5,901.3,1030.5z"/>
	<path class="st7" d="M903.1,1001.6c0.9-1.5,2.3-2.2,4-2.6c1.2-0.3,2.5-0.4,3.8-0.3c2.8,0,5.6,0.1,8.4,0.3c1.6,0.2,3,1.1,4,2.5
		c-0.4,0.2-0.8,0.5-1.2,0.5c-3.3,0-6.6,0-10,0c-2.3,0-4.6,0-7,0C904.4,1001.9,903.8,1001.7,903.1,1001.6z"/>
	<path class="st9" d="M901.3,1030.5c8,0,15.9,0,23.9,0c0,0.7,0,1.5,0,2.2c-0.7,0-1.3,0-2,0c-2,0-4.1,0-6.1,0c-2.3,0-4.6,0.1-6.9,0.1
		c-2.3,0-4.6-0.1-6.9-0.1c-0.6,0-1.3,0.1-1.9,0.1C901.3,1032,901.3,1031.3,901.3,1030.5z"/>
	<path class="st10" d="M924.7,1004.1c0.1,0.9,0.3,1.8,0.4,2.7c-0.3-0.1-0.5-0.2-0.8-0.1c-2.4,0.1-4.8-0.3-7.2,0.3
		c-0.5-0.5-1-1.1-1.8-1.1c-1.3,0-2.5-0.2-3.8-0.1c-0.9,0-1.7,0.5-2.2,1.4c-0.9-0.1-1.8-0.1-2.7-0.2c-1.7,0-3.5,0-5.3,0
		c0.2-1,0.4-2,0.6-3c0.4,0.1,0.9,0.3,1.3,0.3c4,0,8,0,12,0c2.7,0,5.4,0,8.1,0C923.8,1004.2,924.2,1004.1,924.7,1004.1z"/>
	<path class="st5" d="M952.6,1001.6c0.9,0.7,1.1,1.7,1.4,2.7c-0.3,0.1-0.5,0.2-0.8,0.2c-2.5,0-5.1,0-7.6,0c-0.5,0-0.9,0-1,0.6
		c-1,0.1-2,0.1-3,0.2c0-0.7-0.6-0.6-1-0.6c-1.2,0-2.4,0-3.6,0c-1.4,0-2.9,0-4.3,0c0.5-1,0.9-2,1.4-3c0.5,0.2,1.1,0.4,1.6,0.5
		c5,0,10,0,14.9,0C951.3,1002,951.9,1001.7,952.6,1001.6z"/>
	<path class="st7" d="M952.6,1001.6c-0.6,0.2-1.3,0.5-1.9,0.5c-5,0-10,0-14.9,0c-0.5,0-1.1-0.3-1.6-0.5c1.4-1.8,3.3-2.8,5.6-2.8
		c1.9,0,3.7-0.2,5.6-0.1c1.3,0,2.7,0.2,4,0.5C950.6,999.5,951.8,1000.2,952.6,1001.6z"/>
	<path class="st5" d="M924.7,1004.1c-0.4,0.1-0.9,0.2-1.3,0.2c-2.7,0-5.4,0-8.1,0c-4,0-8,0-12,0c-0.4,0-0.9-0.2-1.3-0.3
		c0.4-0.8,0.8-1.6,1.2-2.3c0.7,0.1,1.3,0.3,2,0.3c2.3,0,4.6,0,7,0c3.3,0,6.6,0,10,0c0.4,0,0.8-0.3,1.2-0.5
		C923.7,1002.3,924.2,1003.2,924.7,1004.1z"/>
	<path class="st8" d="M1020,1030c-0.4-1.4-0.8-2.7-1.3-4.1c1.9-0.1,3.8,0.3,5.6-0.3c0.1,0,0.2,0.1,0.3,0.1c0.3,0.1,0.5,0.2,0.8,0.2
		c2.3,0,4.6,0,6.9,0c0,1.4,0,2.7,0,4.1c-1.2-0.1-2.4-0.2-3.7-0.1c-2.2,0-4.5,0.1-6.7,0.1C1021.3,1030,1020.7,1030,1020,1030z"/>
	<path class="st4" d="M1032.4,1056.2c-2.5,0-5,0-7.5,0c-0.1-0.1-0.1-0.2-0.2-0.3c0-0.1,0-0.1,0-0.2c0-2,0-4,0.1-6.1
		c0.5-0.1,1.1-0.1,1.6-0.1c1.5,0,3.1,0,4.6,0c0.5,0,1,0.1,1.5,0.1C1032.4,1051.9,1032.4,1054.1,1032.4,1056.2z"/>
	<path class="st11" d="M841.7,1016.1c0-1.5,0-2.9,0-4.4c0.5,0.1,1.1,0.2,1.6,0.1c3.2,0,6.4-0.1,9.6-0.1c0.4,1.5,0.8,2.9,1.2,4.4
		c-0.4,0.1-0.7,0.1-1.1,0.1c-1,0-2-0.1-3-0.1C847.3,1016.1,844.5,1016.1,841.7,1016.1z"/>
	<path class="st12" d="M853,1011.7c-3.2,0.1-6.4,0.1-9.6,0.1c-0.5,0-1.1-0.1-1.6-0.1c0-1.6,0-3.1,0-4.7c0.5,0,0.9,0,1.4,0
		c2.8,0,5.7,0,8.5,0C852,1008.6,852.5,1010.2,853,1011.7z"/>
	<path class="st13" d="M841.7,1016.1c2.8,0,5.6,0,8.5,0c1,0,2,0.1,3,0.1c0.4,0,0.7-0.1,1.1-0.1c0.4,1.2,0.7,2.5,1.1,3.7
		c-1.9,0-3.7,0-5.6,0c-0.1-0.2-0.2-0.5-0.4-0.9c0,0.6,0,0.9-0.1,1.2c-2.5-0.1-5-0.1-7.5-0.2C841.7,1018.7,841.7,1017.4,841.7,1016.1
		z"/>
	<path class="st4" d="M1016.2,1056.3c-2.4,0-4.7,0-7.1,0c-0.1-0.2-0.3-0.4-0.3-0.6c0-1.8,0-3.7,0-5.5c1.6-0.1,3.2-0.3,4.7-0.3
		c1,0,2,0.3,2.9-0.5c0,1.9,0,3.8,0,5.8l0,0v0.1c0,0.1,0,0.3,0,0.4s0,0.2,0,0.3l0,0C1016.3,1056.2,1016.3,1056.2,1016.2,1056.3
		L1016.2,1056.3z"/>
	<path class="st9" d="M854.1,1034.2c-0.4-1.3-0.8-2.6-1.3-3.9c0.3-0.1,0.5-0.3,0.8-0.3c1.9-0.1,3.9-0.2,5.8-0.2
		c1.8,0,3.7,0.1,5.5,0.1c0,1.4,0,2.7,0,4.1c-2.5,0.1-5,0.1-7.5,0.2C856.3,1034.3,855.2,1034.2,854.1,1034.2z"/>
	<path class="st8" d="M864.9,1030c-1.8-0.1-3.7-0.1-5.5-0.1c-1.9,0-3.9,0.1-5.8,0.2c-0.3,0-0.5,0.2-0.8,0.3c-0.3-1.2-0.7-2.4-1-3.6
		c0.2-0.1,0.4-0.2,0.5-0.2c1.1,0,2.3,0,3.4,0c0.3,0,0.6-0.2,0.8-0.4c0.2-0.2,0.2-0.4,0.4-0.7c0.1,0.3,0.3,0.5,0.4,0.8
		c0.2,0,0.5,0,0.7,0c2.3,0,4.6,0,6.9,0C865,1027.4,864.9,1028.7,864.9,1030z"/>
	<path class="st4" d="M849.1,1056.3c-2.5,0-4.9,0-7.4,0c0-2.1,0-4.2,0-6.2c2.5,0,5,0,7.5,0c0,2,0,3.9,0,5.9
		C849.2,1056,849.1,1056.2,849.1,1056.3z"/>
	<path class="st4" d="M834.1,1056.2c-2.5,0-4.9,0-7.4,0c-0.1-0.1-0.1-0.3-0.1-0.4c0-1.9,0-3.8,0-5.7c1.7-0.1,3.4-0.3,5.1-0.3
		c0.8,0,1.6,0.2,2.4-0.1C834.1,1052,834.1,1054.1,834.1,1056.2z"/>
	<path class="st4" d="M969,1056.3c-2.3,0-4.6,0-6.9,0l0,0c-0.1-0.3-0.2-0.5-0.3-0.8c0-1.8,0-3.6,0.1-5.5c1.5-0.1,2.9-0.2,4.4-0.1
		c1,0,2,0.4,3-0.2c0,0.5,0,1,0,1.6l0,0v0.1c0,0.2,0,0.3,0,0.5c0,0.7,0,1.4,0,2.2c0,0.1,0,0.2,0,0.3c0,0.3,0,0.6,0,0.9
		c0,0.2,0,0.3,0,0.5l-0.1,0.1C969.1,1056.1,969.1,1056.2,969,1056.3z"/>
	<path class="st9" d="M1020,1030c0.7,0,1.3,0,2,0c2.2,0,4.5-0.1,6.7-0.1c1.2,0,2.4,0.1,3.7,0.1c0,1.3,0,2.6,0,3.9
		c-3.7,0-7.4,0-11.1,0C1020.9,1032.6,1020.4,1031.3,1020,1030z"/>
	<path class="st4" d="M864.9,1056.2c-2.4,0-4.7,0-7.1,0.1c-0.1,0-0.2,0-0.3,0c0,0-0.1,0-0.1-0.1c0-2.1,0-4.1,0-6.2
		c0.8,0.4,1.7,0.3,2.5,0.1c0.6-0.1,1.2-0.1,1.9-0.1c1.1,0.1,2.1,0.2,3.2,0.3C864.9,1052.3,864.9,1054.3,864.9,1056.2z"/>
	<path class="st14" d="M1016.4,1019.4c0,0.2,0,0.4,0,0.6c0,0.1,0,0.2,0,0.3c0,0.2,0,0.3-0.1,0.5c-0.5,0.2-1,0.6-1.5,0.6
		c-2,0-4-0.1-6-0.1c0-0.9,0-1.9,0-2.8c0.5,0,1,0.1,1.5,0.1c1-0.1,1.9-0.3,2.9-0.2c1.1,0,2.2,0.4,3.2,0.4c1.7,0,3.4-0.3,5.1-0.4
		c0.2,0,0.3-0.1,0.4-0.2c0.4,1.4,0.8,2.8,1.3,4.2c-1.9,0.1-3.8,0.1-5.6,0.2c-0.3-1-0.7-2.1-1-3.1c0-0.1,0-0.2-0.1-0.4h-0.1
		C1016.5,1019.2,1016.5,1019.3,1016.4,1019.4z"/>
	<path class="st15" d="M889,1049.2c-0.4,0.1-0.9,0.1-1.3,0.1c-2.1,0-4.3,0-6.4,0c-1.2,0-2.5,0-3.7,0c-0.1-0.9-0.3-1.7-0.4-2.6
		c0-0.2,0-0.4,0-0.7l0,0c0,0,0-0.1-0.1-0.1c0-0.1,0-0.1,0-0.2c2.4-0.1,4.8-0.3,7.2-0.3c1.7,0,3.4,0.1,5,0.2c0.1,0,0.1,0.1,0.2,0.1
		C889.4,1046.9,889.2,1048.1,889,1049.2z"/>
	<path class="st4" d="M925.1,1056.2c-2.4,0-4.7,0-7.1,0.1c-0.1,0-0.2,0-0.3,0c0,0-0.1,0-0.1-0.1c0-2,0-3.9,0-5.9
		c0.7,0,1.3,0.1,2,0.1s1.3-0.1,2-0.1c1.2,0,2.3,0.1,3.5,0.1C925.1,1052.4,925.1,1054.3,925.1,1056.2z"/>
	<path class="st16" d="M889.5,1045.8c-0.1,0-0.1-0.1-0.2-0.1c-1.7-0.1-3.4-0.2-5-0.2c-2.4,0-4.8,0.2-7.2,0.3
		c-0.2-0.8-0.3-1.6-0.5-2.5c-0.1-0.3-0.1-0.7-0.1-1c1.2-0.1,2.3-0.1,3.5-0.2c0.6,0,1.3,0,1.9,0c0.5,0,1,0.2,1.5,0.2
		c0.6,0,1.2-0.2,1.8-0.2c1.2,0,2.4,0.1,3.6,0.1c0.4,0,0.9,0,1.3,0c-0.1,1-0.3,2-0.4,3.1C889.6,1045.5,889.6,1045.7,889.5,1045.8z"/>
	<path class="st13" d="M1022,1018.1c-0.1,0.1-0.3,0.1-0.4,0.2c-1.7,0.2-3.4,0.4-5.1,0.4c-1.1,0-2.1-0.4-3.2-0.4
		c-0.9,0-1.9,0.2-2.9,0.2c-0.5,0-1-0.1-1.5-0.1c0-1.2,0-2.4,0-3.6c0.9,0.1,1.8,0.1,2.7,0.1c2.8,0,5.6,0,8.4,0c0.3,0,0.7-0.1,1-0.2
		C1021.4,1016,1021.7,1017,1022,1018.1z"/>
	<path class="st4" d="M908.8,1056.2c-2.4,0-4.7,0-7.1,0.1c-0.1,0-0.2,0-0.3,0c0,0-0.1,0-0.1-0.1c0-2,0-3.9,0-5.9
		c2.5,0.1,5,0.1,7.5,0.2C908.8,1052.4,908.8,1054.3,908.8,1056.2z"/>
	<path class="st17" d="M943.7,1023.6c1.7,1,3.4,2.1,5.1,3.1c-0.4,0.6-1,0.8-1.7,0.8c-2.7,0-5.5,0-8.2,0c-0.4,0-0.7,0.2-1.1,0.3
		c-1.6-0.9-3.2-1.8-4.3-3.3c0.8-0.2,1.7-0.4,2.5-0.4c2-0.1,4,0,5.9,0C942.6,1024.1,943.2,1024.1,943.7,1023.6z"/>
	<path class="st11" d="M1021.1,1014.9c-0.3,0.1-0.7,0.2-1,0.2c-2.8,0-5.6,0-8.4,0c-0.9,0-1.8-0.1-2.7-0.1c0-1.1,0-2.3,0-3.4
		c0.9,0.1,1.8,0.2,2.7,0.1c2.2,0,4.3-0.1,6.5-0.2c0.6,0,1.3-0.2,1.9-0.3C1020.4,1012.4,1020.7,1013.6,1021.1,1014.9z"/>
	<path class="st12" d="M1020,1011.1c-0.6,0.1-1.3,0.3-1.9,0.3c-2.2,0.1-4.3,0.1-6.5,0.2c-0.9,0-1.8-0.1-2.7-0.1c0-1.3,0-2.5-0.1-3.8
		c3.4,0,6.8,0,10.1,0C1019.4,1008.8,1019.7,1010,1020,1011.1z"/>
	<path class="st7" d="M1008.9,1003.6c0-1.5-0.1-3,0-4.4c0-0.2,0.3-0.5,0.5-0.5c2.2,0,4.4,0,6.6,0c0.6,0,0.6,0.5,0.7,0.8
		c0.4,1.4,0.8,2.8,1.1,4.2C1014.8,1003.6,1011.9,1003.6,1008.9,1003.6z"/>
	<path class="st18" d="M854.1,1034.2c1.1,0,2.2,0,3.3,0c2.5,0,5-0.1,7.5-0.2c0,1.2,0,2.5,0,3.8c-0.5,0.1-0.9,0.2-1.4,0.2
		c-2.7,0-5.5,0-8.2,0C854.9,1036.7,854.5,1035.5,854.1,1034.2z"/>
	<path class="st18" d="M1021.3,1033.9c3.7,0,7.4,0,11.1,0c0,1.2,0,2.5,0,3.7c-1.7,0-3.5,0-5.2,0c-1.5,0-3.1,0.1-4.6,0.1
		C1022.1,1036.5,1021.7,1035.2,1021.3,1033.9z"/>
	<path class="st19" d="M1008.9,1003.6c3,0,5.9,0,8.9,0c0.4,1.2,0.7,2.4,1.1,3.6c0,0.1,0.1,0.3,0.1,0.4c-3.4,0-6.8,0-10.1,0
		C1008.9,1006.3,1008.9,1005,1008.9,1003.6z"/>
	<path class="st10" d="M851.6,1007.1c-2.8,0-5.7,0-8.5,0c-0.5,0-0.9,0-1.4,0c0-1.4,0-2.8,0-4.2c1.4,0,2.9-0.1,4.3-0.1
		c1.4,0,2.9,0.1,4.3,0.1C850.7,1004.2,851.2,1005.6,851.6,1007.1z"/>
	<path class="st20" d="M890.1,1042.4c-0.4,0-0.9,0-1.3,0c-1.2,0-2.4-0.1-3.6-0.1c-0.6,0-1.2,0.2-1.8,0.2c-0.5,0-1-0.2-1.5-0.2
		c-0.6,0-1.3,0-1.9,0c-1.2,0-2.3,0.1-3.5,0.2c-0.1-0.7-0.2-1.5-0.3-2.2c0.2,0,0.3-0.1,0.5-0.1c2.1,0,4.2,0.1,6.2,0.1
		c0.1,0.6,0.3,1.1,0.4,1.7h0.1c0.2-1.1,0.4-2.3,0.5-3.4c2,0,4.1,0,6.1,0c0.2,0,0.3,0.2,0.5,0.2
		C890.5,1039.9,890.3,1041.1,890.1,1042.4z"/>
	<path class="st8" d="M937.8,1027.8c0.4-0.1,0.7-0.3,1.1-0.3c2.7,0,5.5,0,8.2,0c0.7,0,1.3-0.2,1.7-0.8c1.6,1,3.1,2.1,4.7,3.1
		c-0.9,0.5-1.8,0.5-2.8,0.5c-2.3,0-4.5,0-6.8,0c-0.7,0-1.3,0.1-2,0.2C940.6,1029.6,939.2,1028.7,937.8,1027.8z"/>
	<path class="st21" d="M925.2,1020c0,1.5,0,3,0,4.5c-2.5-0.1-5.1,0.3-7.6-0.3c0-1.5,0-3,0-4.5C920.1,1019.8,922.6,1019.9,925.2,1020
		z"/>
	<path class="st22" d="M1022.5,1037.8c1.5-0.1,3.1-0.1,4.6-0.1c1.7,0,3.5,0,5.2,0c0,1.2,0,2.5,0,3.8c-2.9,0-5.8,0-8.7,0
		C1023.3,1040.2,1022.9,1039,1022.5,1037.8z"/>
	<path class="st22" d="M1016.5,1036.9c0,1.5,0,3,0,4.5c-0.8,0.4-1.5,0.8-2.4,0.6c-0.7-0.1-1.4-0.1-2.2-0.1c-0.5,0-1,0.1-1.5,0.1
		s-1,0-1.5,0c0-1.5,0-3,0-4.5c0.3,0,0.6-0.1,0.9-0.1C1012,1037.4,1014.3,1038,1016.5,1036.9z"/>
	<path class="st7" d="M850.3,1002.8c-1.4,0-2.9-0.1-4.3-0.1c-1.4,0-2.9,0.1-4.3,0.1c-0.1-1.2-0.1-2.3-0.2-3.5c0-0.5,0.1-0.7,0.7-0.7
		c2.1,0,4.3,0,6.4,0c0.5,0,0.7,0.1,0.8,0.6C849.6,1000.4,850,1001.6,850.3,1002.8z"/>
	<path class="st14" d="M879.8,1018.6c0.2,1,0.3,2,0.5,3c0.1,0.6,0.1,1.1,0.1,1.7c-0.3,0.1-0.6,0.3-0.8,0.3c-2,0.1-4,0.1-6,0.2
		c-0.2-1.6-0.5-3.1-0.7-4.7c2.2-0.1,4.4-0.2,6.6-0.3C879.6,1018.8,879.7,1018.7,879.8,1018.6z"/>
	<path class="st18" d="M1001.6,1033.6c0,1.5,0,3,0,4.5c-0.4,0-0.8,0.1-1.2,0.1c-1.4,0.1-2.9,0.1-4.3,0.2c-0.7,0-1.5,0-2.2,0
		c0-1.5,0-2.9,0-4.4c0.3-0.1,0.7-0.1,1-0.2C997.1,1033.8,999.4,1034.2,1001.6,1033.6z"/>
	<path class="st14" d="M1001.6,1018.9c0,1.5,0,2.9,0,4.4c-0.2,0-0.4,0.1-0.6,0.1c-1.1,0.1-2.2,0.3-3.3,0.4c-1.3,0-2.5-0.1-3.8-0.1
		c0-1.5,0-2.9,0-4.4c0.5,0,1.1,0.2,1.6,0.1C997.6,1019.2,999.6,1019.1,1001.6,1018.9z"/>
	<path class="st7" d="M857.4,1003c0-1.4,0-2.8,0-4.3c2.5,0,5,0,7.5,0c0,1.5,0,3,0,4.5C862.4,1003.1,859.9,1003,857.4,1003z"/>
	<path class="st20" d="M908.8,1039.1c0,1.5,0,3,0,4.5c-2.5,0-5,0-7.5,0c0-1.5,0-3,0-4.5C903.8,1039.1,906.3,1039.1,908.8,1039.1z"/>
	<path class="st14" d="M834.1,1018.9c0,1.5,0,3,0,4.5c-2.5-0.4-5,0.1-7.5-0.3c0-1.5,0-3,0-4.5C829.1,1019,831.7,1018.6,834.1,1018.9
		z"/>
	<path class="st13" d="M925.2,1020c-2.5-0.1-5-0.2-7.6-0.3c0-1.5,0-2.9,0-4.4c0.5,0.1,1,0.3,1.5,0.3c1,0,2.1-0.1,3.1-0.1
		s2,0.1,2.9,0.1C925.2,1017.1,925.2,1018.6,925.2,1020z"/>
	<path class="st20" d="M993.9,1038.5c0.7,0,1.5,0,2.2,0c1.4-0.1,2.9-0.1,4.3-0.2c0.4,0,0.8-0.1,1.2-0.1c0,1.4,0,2.8,0,4.2
		c-0.5,0.1-0.9,0.1-1.4,0.1c-2.1,0.1-4.2,0.1-6.3,0.2C993.9,1041.3,993.9,1039.9,993.9,1038.5z"/>
	<path class="st23" d="M932.2,1012.4c0-1.4,0-2.7,0-4.1c1.9,0.1,3.7,0.1,5.6,0.1c0.7,0,1.4-0.2,2.1-0.3c0,1.4,0,2.8,0,4.2
		c-0.4,0.2-0.9,0.4-1.3,0.4c-0.7,0.1-1.5,0-2.2,0C934.9,1012.8,933.5,1013,932.2,1012.4z"/>
	<path class="st22" d="M849.2,1038c0,1.5,0,2.9,0,4.4c-2.5,0-5,0-7.5,0c0-1.5,0-2.9,0-4.4c1.4,0,2.9,0,4.3,0
		C847,1038,848.1,1038,849.2,1038z"/>
	<path class="st11" d="M976.6,1016c0-1.4,0-2.7,0-4.1c0.4,0.1,0.8,0.3,1.2,0.3c2.2,0,4.4-0.1,6.5-0.1c0,1.4,0,2.7,0,4.1
		c-0.4,0.1-0.8,0.3-1.1,0.3C981,1016.3,978.7,1016.9,976.6,1016z"/>
	<path class="st16" d="M1008.9,1042c0.5,0,1,0,1.5,0s1-0.1,1.5-0.1c0.7,0,1.5,0,2.2,0.1c0.9,0.1,1.6-0.3,2.4-0.6c0,1.4,0,2.8,0,4.2
		c-0.1,0-0.3,0-0.4,0.1c-0.3,0.6-0.9,0.5-1.4,0.5c-1,0-1.9,0-2.9,0c-1,0.1-2,0.2-2.9,0.3C1008.9,1045.1,1008.9,1043.6,1008.9,1042z"
		/>
	<path class="st16" d="M1023.6,1041.4c2.9,0,5.8,0,8.7,0c0,1.4,0,2.7,0,4.1c-2.6-0.1-5.2-0.1-7.7-0.2
		C1024.3,1044,1024,1042.7,1023.6,1041.4z"/>
	<path class="st11" d="M932.2,1012.4c1.3,0.6,2.7,0.5,4.1,0.5c0.7,0,1.5,0.1,2.2,0c0.5,0,0.9-0.3,1.3-0.4c0,1.5,0,2.9,0,4.4
		c-0.4,0.1-0.8,0.4-1.1,0.4c-1.4,0-2.8-0.2-4.3-0.2c-0.8,0-1.6,0.1-2.3-0.3C932.2,1015.2,932.2,1013.8,932.2,1012.4z"/>
	<path class="st22" d="M826.7,1039.2c0-0.1,0-0.2,0-0.3c0-0.1,0-0.2,0-0.3c0-0.1,0-0.2,0-0.3c0-0.1,0-0.2,0-0.3c0-0.1,0-0.2,0-0.3
		c0.9,0.1,1.8,0.3,2.7,0.3c1.6,0,3.2,0,4.8,0c0,1.4,0,2.8,0,4.2c-0.4,0.1-0.8,0.1-1.2,0.1c-1.6,0-3.2,0-4.8,0
		c-0.2,0-0.4-0.1-0.5-0.1c-0.3,0-0.6,0-0.9-0.1c0-0.9,0-1.8,0-2.7C826.7,1039.4,826.7,1039.3,826.7,1039.2z"/>
	<path class="st15" d="M1024.6,1045.3c2.6,0.1,5.2,0.1,7.7,0.2c0,1.4,0,2.8,0,4.2c-0.5-0.1-1-0.1-1.5-0.1c-1.5,0-3.1,0-4.6,0
		c-0.5,0-1.1,0.1-1.6,0.1C1024.7,1048.2,1024.6,1046.8,1024.6,1045.3z"/>
	<path class="st7" d="M1024.7,1002.8c0-1.2-0.1-2.4-0.1-3.7c0-0.2,0.3-0.5,0.5-0.5c2.2,0,4.3,0,6.5,0c0.5,0,0.8,0.2,0.7,0.8
		c-0.1,1.1,0,2.3,0,3.4C1029.8,1002.8,1027.3,1002.8,1024.7,1002.8z"/>
	<path class="st9" d="M942,1030.5c0.7-0.1,1.3-0.2,2-0.2c2.3,0,4.5,0,6.8,0c1,0,1.9,0,2.8-0.5c1,0.9,1.2,2.1,1.2,3.3
		c-0.7,0.1-1.5,0.1-2.2,0.1c-1.5,0-3,0-4.5,0c-0.6,0-1,0.1-1.2,0.6c-1.4-1-2.8-2-4.3-3C942.3,1030.8,942.2,1030.6,942,1030.5z"/>
	<path class="st16" d="M931.9,1046c-0.1-1.2-0.1-2.4-0.2-3.6c0-0.6,0.2-0.9,0.9-0.9c2.1,0,4.1,0,6.2,0c0.2,0,0.5,0.2,0.7,0.3
		c0,0.2,0,0.3,0,0.5c0,1,0,2.1,0,3.1c-0.4,0.1-0.9,0.1-1.3,0.2C936,1045.6,933.9,1045.8,931.9,1046z"/>
	<path class="st16" d="M993.9,1042.7c2.1-0.1,4.2-0.1,6.3-0.2c0.5,0,0.9-0.1,1.4-0.1c0,1.3-0.1,2.6-0.1,3.9c-0.7,0.1-1.4,0.3-2,0.3
		c-1.8,0.1-3.7,0.1-5.5,0.2C993.9,1045.4,993.9,1044,993.9,1042.7z"/>
	<path class="st16" d="M826.7,1042.2c0.3,0,0.6,0,0.9,0.1c0.2,0,0.4,0.1,0.5,0.1c1.6,0,3.2,0,4.8,0c0.4,0,0.8-0.1,1.2-0.1
		c0,1.4,0,2.8,0,4.2c-0.4,0.1-0.9,0.2-1.3,0.1c-1.3,0-2.6-0.1-3.9-0.1c-0.8,0-1.5,0.1-2.3,0.1
		C826.7,1045.1,826.7,1043.7,826.7,1042.2z"/>
	<path class="st21" d="M943.7,1023.6c-0.5,0.5-1.1,0.5-1.8,0.5c-2,0-4-0.1-5.9,0c-0.8,0-1.7,0.3-2.5,0.4c-0.9-1.1-1.4-2.3-1.3-3.7
		c1.9,0,3.8,0,5.7,0c0.7,0,1.3-0.2,2-0.3C940.6,1022.2,942.3,1022.6,943.7,1023.6z"/>
	<path class="st18" d="M849.2,1038c-1.1,0-2.2,0-3.2,0c-1.4,0-2.9,0-4.3,0c0-1.4,0-2.7,0-4.1c2.5,0,5,0,7.5,0
		C849.2,1035.3,849.2,1036.6,849.2,1038z"/>
	<path class="st17" d="M873.5,1023.8c2-0.1,4-0.1,6-0.2c0.3,0,0.6-0.2,0.8-0.3c0.2,0.8,0.3,1.7,0.5,2.5c0.1,0.7,0.2,1.5,0.3,2.2
		c-1.7,0.1-3.4,0.1-5.1,0.2c-0.6,0-1.2,0.1-1.8,0.2c-0.2-1.2-0.4-2.4-0.6-3.6C873.6,1024.4,873.6,1024.1,873.5,1023.8z"/>
	<path class="st16" d="M841.7,1042.4c2.5,0,5,0,7.5,0c0,1.4,0,2.7,0,4.1c-2.5,0-5,0-7.5,0C841.7,1045.1,841.7,1043.7,841.7,1042.4z"
		/>
	<path class="st21" d="M901.3,1024.4c0-1.4,0-2.7,0-4.1c2.5,0.1,5.1,0.1,7.6,0.2c0,1.3,0,2.6,0,3.9
		C906.3,1024.4,903.8,1024.4,901.3,1024.4z"/>
	<path class="st21" d="M976.6,1023.8c0-1.3,0-2.6,0-3.9c1.2,0.8,2.5,0.5,3.7,0.4c1.3,0,2.7-0.2,4-0.3c0,1.4,0,2.7,0,4.1
		c-0.7,0.1-1.5,0.1-2.2,0.2c-1.3,0.1-2.6,0.1-3.9,0.1c-0.3,0-0.5-0.1-0.8-0.2C977.1,1024,976.8,1023.9,976.6,1023.8z"/>
	<path class="st13" d="M984.3,1020c-1.3,0.1-2.7,0.3-4,0.3s-2.6,0.4-3.7-0.4c0-1.3,0-2.6,0-3.9c2.2,0.9,4.4,0.3,6.6,0.4
		c0.4,0,0.7-0.2,1.1-0.3C984.3,1017.4,984.3,1018.7,984.3,1020z"/>
	<path class="st17" d="M826.7,1023.1c2.5,0.4,5-0.1,7.5,0.3c0,1.4,0,2.7,0,4.1c-2.5-0.1-5-0.1-7.5-0.2
		C826.7,1026,826.7,1024.5,826.7,1023.1z"/>
	<path class="st11" d="M954.6,1012.7c0,1.2,0,2.4,0,3.6c0,0.1-0.1,0.1-0.1,0.2c-0.1,0-0.1,0-0.2,0.1c-2.3,0-4.5,0-6.8,0
		c-0.4,0-0.6-0.1-0.6-0.6c0.1-1.1,0.1-2.2,0.2-3.3c0.7-0.1,1.5-0.2,2.2-0.1C951.1,1012.6,952.8,1012.6,954.6,1012.7z"/>
	<path class="st23" d="M984.3,1012.1c-2.2,0-4.4,0.1-6.5,0.1c-0.4,0-0.8-0.2-1.2-0.3c0-1.3,0-2.6,0-3.9c1.1,0.1,2.2,0.3,3.3,0.3
		c1.5,0.1,3,0,4.4,0C984.3,1009.6,984.3,1010.8,984.3,1012.1z"/>
	<path class="st19" d="M939.8,1008.1c-0.7,0.1-1.4,0.3-2.1,0.3c-1.9,0-3.7-0.1-5.6-0.1c-0.1-1.3,0-2.5,0.5-3.7c1.4,0,2.9,0,4.3,0
		c1.2,0,2.4,0,3.6,0c0.4,0,0.9-0.1,1,0.6C940.2,1005.6,939.9,1006.2,939.8,1008.1z"/>
	<path class="st20" d="M917.6,1043.5c0-1.4,0-2.7,0-4.1c0.4,0.1,0.9,0.3,1.3,0.3c2.1,0,4.1-0.1,6.2-0.1c0,1.3,0,2.7,0,4
		c-0.5,0.1-0.9,0.2-1.4,0.2c-1.1,0-2.3-0.2-3.4-0.1C919.4,1043.7,918.5,1043.7,917.6,1043.5z"/>
	<path class="st13" d="M908.9,1020.5c-2.5-0.1-5.1-0.1-7.6-0.2c0-1.3,0-2.6,0-3.9c2.5,0.1,5.1,0.1,7.6,0.2
		C908.9,1017.9,908.9,1019.2,908.9,1020.5z"/>
	<path class="st22" d="M855.3,1038c2.7,0,5.5,0,8.2,0c0.5,0,0.9-0.1,1.4-0.2c0,1.1,0,2.2,0,3.3c-0.5,0.1-0.9,0.1-1.4,0.1
		c-2.4,0-4.8,0-7.2,0c-0.3-1-0.6-1.9-0.8-2.9c0-0.1-0.1-0.2-0.1-0.2C855.3,1038.1,855.3,1038,855.3,1038z"/>
	<path class="st24" d="M901.3,1043.6c2.5,0,5,0,7.5,0c0,1.3,0,2.6,0,3.9c-0.9,0-1.8,0-2.8,0c-1.6,0-3.2,0-4.8,0
		C901.3,1046.2,901.3,1044.9,901.3,1043.6z"/>
	<path class="st18" d="M1016.5,1036.9c-2.2,1.1-4.4,0.5-6.7,0.5c-0.3,0-0.6,0.1-0.9,0.1c0-1.3,0-2.6,0-3.9c0.4,0,0.8,0,1.2,0
		c2.1-0.2,4.3,0.4,6.4-0.6C1016.4,1034.3,1016.5,1035.6,1016.5,1036.9z"/>
	<path class="st25" d="M925.1,1039.6c-2.1,0.1-4.1,0.1-6.2,0.1c-0.4,0-0.9-0.2-1.3-0.3c0-1.3,0-2.6,0-3.9c2,0.5,4.1,0.2,6.1,0.3
		c0.5,0,1-0.1,1.5-0.2C925.1,1036.9,925.1,1038.2,925.1,1039.6z"/>
	<path class="st15" d="M931.9,1046c2.1-0.2,4.1-0.3,6.2-0.5c0.4,0,0.9-0.1,1.3-0.2c0,0.7,0,1.4,0.1,2.2c0,0.1,0,0.1,0,0.2
		c0.1,0.4,0.1,0.8,0.2,1.2c-0.2,0.1-0.3,0.2-0.5,0.3c-0.2,0.1-0.3,0.3-0.5,0.3c-1.6,0.1-3.2,0.1-4.9,0.2c-0.6,0-1.1,0-1.7,0
		C932.1,1048.5,932,1047.2,931.9,1046z"/>
	<path class="st18" d="M890.7,1038.7c-0.2-0.1-0.3-0.2-0.5-0.2c-2,0-4.1,0-6.1,0c0.2-1.5,0.4-2.9,0.6-4.4c2.3,0,4.5,0,6.8,0
		C891.1,1035.6,890.9,1037.2,890.7,1038.7z"/>
	<path class="st18" d="M976.6,1037.5c0-1.2,0-2.5,0-3.7c1.3,0.1,2.6,0.3,3.8,0.3c1.3,0,2.6,0.3,3.9-0.3c0,1.3,0,2.6,0,3.9
		c-0.4,0.1-0.8,0.3-1.2,0.3c-1,0-1.9-0.1-2.9-0.1C979,1037.8,977.8,1038.1,976.6,1037.5z"/>
	<path class="st13" d="M1001.6,1018.9c-2,0.2-4,0.3-6,0.4c-0.5,0-1.1-0.1-1.6-0.1c0-1.4,0-2.7,0-4.1c0.7,0.1,1.4,0.3,2.1,0.3
		c0.6,0,1.2-0.1,1.8-0.1c1.3-0.1,2.5-0.2,3.8-0.3C1001.6,1016.3,1001.6,1017.6,1001.6,1018.9z"/>
	<path class="st24" d="M917.6,1043.5c0.9,0.3,1.8,0.3,2.7,0.2c1.1-0.1,2.3,0.1,3.4,0.1c0.5,0,0.9-0.1,1.4-0.2c0,1.3,0,2.6,0,3.9
		c-2.5,0-5,0.1-7.5-0.2C917.6,1046.1,917.6,1044.8,917.6,1043.5z"/>
	<path class="st13" d="M939.8,1020.5c-0.7,0.1-1.3,0.3-2,0.3c-1.9,0-3.8,0-5.7,0c0-1.4,0-2.8,0-4.2c0.7,0.4,1.5,0.4,2.3,0.3
		c1.4,0,2.8,0.1,4.3,0.2c0.4,0,0.8-0.2,1.1-0.4C939.8,1018,939.8,1019.2,939.8,1020.5z"/>
	<path class="st19" d="M984.3,1008.3c-1.5,0-3,0-4.4,0c-1.1,0-2.2-0.2-3.3-0.3c0.2-1.1,0.3-2.3,0.5-3.4c2.8,0.1,5.6,0.1,8.4,0.2
		c0.2,0,0.5,0.3,0.7,0.4c-0.8,0.4-1.4,0.8-1.6,1.7C984.4,1007.3,984.4,1007.8,984.3,1008.3z"/>
	<path class="st13" d="M879.8,1018.6c-0.1,0.1-0.2,0.1-0.3,0.2c-2.2,0.1-4.4,0.2-6.6,0.3c-0.2-1.5-0.5-2.9-0.7-4.4
		c2.4,0,4.8,0,7.2,0C879.5,1016,879.6,1017.3,879.8,1018.6z"/>
	<path class="st21" d="M841.7,1020c2.5,0.1,5,0.1,7.5,0.2c0,1.2,0,2.5,0,3.7c-2.5,0-5,0-7.5,0C841.7,1022.6,841.7,1021.3,841.7,1020
		z"/>
	<path class="st19" d="M992.7,1005.5c0.3-0.5,0.8-0.6,1.4-0.6c2,0,3.9,0,5.9,0c0.4,0,0.8,0.1,1.1,0.1c0.1,1.1,0.2,2.3,0.3,3.4
		c-2.5,0.1-5.1,0.1-7.6,0.2C993.8,1007.4,993.7,1006.3,992.7,1005.5z"/>
	<path class="st17" d="M993.9,1023.6c1.3,0.1,2.5,0.2,3.8,0.1c1.1,0,2.2-0.2,3.3-0.4c0.2,0,0.4-0.1,0.6-0.1c0,1.2,0,2.4,0,3.6
		c-1.1,0.2-2.2,0.4-3.3,0.4c-1.5,0.1-3,0-4.4,0C993.9,1026.1,993.9,1024.9,993.9,1023.6z"/>
	<path class="st11" d="M864.9,1012.7c0,1.2,0,2.5,0,3.7c-0.6,0-1.2,0-1.8,0c-1.9-0.1-3.8-0.2-5.7-0.3c0-1.2,0-2.5,0-3.7
		c0.7,0.1,1.5,0.3,2.2,0.3C861.4,1012.7,863.2,1012.7,864.9,1012.7z"/>
	<path class="st17" d="M841.7,1023.9c2.5,0,5,0,7.5,0c0,1.2,0,2.5,0,3.7c-0.6,0-1.2,0.1-1.8,0.1c-1.9,0-3.8,0-5.8,0
		C841.7,1026.5,841.7,1025.2,841.7,1023.9z"/>
	<path class="st12" d="M895.6,1008c-0.2,1.3-0.4,2.6-0.6,3.9c-1.1,0-2.2,0-3.4,0c-1.3-0.1-2.5-0.2-3.8-0.3c0.1-1,0.2-2.1,0.3-3.1
		c0-0.3,0.1-0.6,0.1-1c1.1,0.2,2.2,0.4,3.3,0.5C892.9,1008,894.3,1008,895.6,1008z"/>
	<path class="st18" d="M834.1,1038c-1.6,0-3.2,0-4.8,0c-0.9,0-1.8-0.2-2.7-0.3c0-1.2,0-2.5,0-3.7c2.5,0.7,5,0,7.5,0.3
		C834.2,1035.5,834.1,1036.7,834.1,1038z"/>
	<path class="st13" d="M834.1,1018.9c-2.5-0.4-5,0.1-7.5-0.3c0-1.2,0-2.4,0-3.6c2.5,0,5,0,7.5,0
		C834.1,1016.3,834.1,1017.6,834.1,1018.9z"/>
	<path class="st17" d="M1032.3,1026c-2.3,0-4.6,0-6.9,0c-0.3,0-0.5-0.1-0.8-0.2c0-0.3,0-0.6,0.1-0.9c0-0.2,0-0.3,0-0.5
		c0-0.1,0-0.2,0-0.3l0,0c0-0.1,0-0.2,0-0.3c0-0.5,0-0.9,0-1.4c0.9-0.1,1.8-0.1,2.6-0.1c1.7,0,3.3,0,5,0
		C1032.3,1023.5,1032.3,1024.7,1032.3,1026z"/>
	<path class="st14" d="M961.9,1023.5c0-1.2,0-2.5,0-3.7c2.4-0.1,4.8-0.1,7.3-0.2c0,1.2,0,2.5,0,3.7c-1.4,0.1-2.8,0.3-4.2,0.3
		C964,1023.6,963,1023.5,961.9,1023.5z"/>
	<path class="st11" d="M887.8,1011.6c1.3,0.1,2.5,0.2,3.8,0.3c1.1,0.1,2.2,0,3.4,0c-0.2,1.2-0.4,2.5-0.6,3.7
		c-0.9,0.1-1.7,0.2-2.6,0.1c-1.5,0-3.1-0.1-4.6-0.1C887.4,1014.3,887.6,1012.9,887.8,1011.6z"/>
	<path class="st26" d="M1008.9,1046.6c1-0.1,2-0.2,2.9-0.3c1-0.1,1.9,0,2.9,0c0.5,0,1.1,0.1,1.4-0.5c0-0.1,0.2-0.1,0.4-0.1
		c0,1.3,0,2.5,0,3.8c-0.8,0.8-1.8,0.5-2.9,0.5c-1.6,0-3.1,0.2-4.7,0.3C1008.9,1049,1008.9,1047.8,1008.9,1046.6z"/>
	<path class="st9" d="M1001.6,1033.6c-2.2,0.6-4.5,0.2-6.7,0.3c-0.3,0-0.7,0.1-1,0.2c0-1.2,0-2.5,0-3.7c2.6-0.1,5.2-0.1,7.7-0.2
		C1001.6,1031.3,1001.6,1032.5,1001.6,1033.6z"/>
	<path class="st22" d="M976.6,1037.5c1.2,0.6,2.4,0.2,3.7,0.3c1,0.1,1.9,0.1,2.9,0.1c0.4,0,0.8-0.2,1.2-0.3c0,1.1,0,2.3,0,3.4
		c-0.4,0.1-0.7,0.4-1.1,0.4c-1.6,0.1-3.2,0.1-4.8,0c-0.6,0-1.2-0.3-1.8-0.4C976.6,1039.9,976.6,1038.7,976.6,1037.5z"/>
	<path class="st17" d="M976.6,1023.8c0.3,0.1,0.5,0.3,0.8,0.4s0.5,0.2,0.8,0.2c1.3,0,2.6-0.1,3.9-0.1c0.7,0,1.5-0.1,2.2-0.2
		c0,1.2,0,2.4,0,3.6c-1.6,0.1-3.3,0.1-4.9,0.2c-1,0-2,0.1-2.8-0.5C976.6,1026.2,976.6,1025,976.6,1023.8z"/>
	<path class="st19" d="M895.6,1008c-1.3,0-2.7,0.1-4,0c-1.1-0.1-2.2-0.3-3.3-0.5c0.2-1.2,0.4-2.4,0.6-3.6c1.1,0.1,2.1,0.3,3.2,0.3
		c1.4,0.1,2.8,0,4.2,0C896,1005.5,895.8,1006.7,895.6,1008z"/>
	<path class="st17" d="M961.9,1023.5c1.1,0.1,2.1,0.2,3.2,0.1c1.4,0,2.8-0.2,4.2-0.3c0,1.3,0,2.5,0,3.8c-0.4,0.1-0.8,0.1-1.1,0.2
		c-2.1,0-4.1,0-6.2,0C961.9,1026,961.9,1024.7,961.9,1023.5z"/>
	<path class="st25" d="M908.8,1039.1c-2.5,0-5,0-7.5,0c0-1.2,0-2.4,0-3.6c1.1,0,2.3,0,3.4,0c1.4,0,2.8,0,4.1,0
		C908.8,1036.7,908.8,1037.9,908.8,1039.1z"/>
	<path class="st26" d="M993.9,1046.7c1.8-0.1,3.7-0.1,5.5-0.2c0.7,0,1.4-0.2,2-0.3c-0.1,1.3-0.2,2.6-0.3,3.9c-2-0.1-4.1-0.1-6.1-0.2
		c-0.2,0-0.3,0-0.5,0c-1.1,0.1-1.1,0.1-1.3-0.9C993.5,1048.3,993.7,1047.5,993.9,1046.7z"/>
	<path class="st17" d="M917.6,1024.2c2.5,0.6,5,0.2,7.6,0.3c0,1.1,0,2.3,0,3.4c-1.2,0-2.4,0-3.6,0c-0.3,0-0.6,0.1-0.9,0.1
		c-0.7,0-1.5-0.1-2.2-0.2c-0.2,0-0.5,0-0.8,0C917.6,1026.7,917.6,1025.5,917.6,1024.2z"/>
	<path class="st14" d="M893.7,1019.5c-0.2,1.2-0.4,2.5-0.6,3.7c-2.3,0-4.7,0-7,0c0.2-1.1,0.3-2.1,0.5-3.2c0-0.2,0.1-0.4,0.2-0.6
		C889,1019.5,891.4,1019.5,893.7,1019.5z"/>
	<path class="st26" d="M841.7,1046.4c2.5,0,5,0,7.5,0c0,1.2,0,2.4,0,3.6c-2.5,0-5,0-7.5,0C841.7,1048.8,841.7,1047.6,841.7,1046.4z"
		/>
	<path class="st11" d="M908.9,1016.6c-2.5-0.1-5.1-0.1-7.6-0.2c0-1.2,0-2.4,0-3.6c0.7,0.1,1.4,0.1,2.2,0.2c1.8,0.1,3.6,0.1,5.4,0.2
		C908.9,1014.3,908.9,1015.4,908.9,1016.6z"/>
	<path class="st16" d="M961.9,1046.6c0-1.2,0-2.4,0-3.6c2.4-0.1,4.9,0.2,7.3-0.2c0,1.1,0,2.3,0,3.4c-0.8,0.6-1.8,0.3-2.7,0.3
		C965,1046.6,963.5,1046.6,961.9,1046.6z"/>
	<path class="st17" d="M865,1026.1c-2.3,0-4.6,0-6.9,0c-0.2,0-0.5,0-0.7,0c0-1.1,0-2.3,0.1-3.4c0.8,0,1.7,0,2.5,0c0.5,0,1,0,1.5,0
		c1.2,0,2.4,0,3.5,0C865,1023.8,865,1025,865,1026.1z"/>
	<path class="st14" d="M1032.3,1022.2c-1.7,0-3.3,0-5,0c-0.9,0-1.8,0.1-2.6,0.1c0-1.1,0-2.3,0.1-3.4c2.1-0.2,4.2-0.5,6.3-0.2
		c0.4,0.1,0.9,0,1.3,0C1032.3,1019.9,1032.3,1021.1,1032.3,1022.2z"/>
	<path class="st17" d="M901.3,1024.4c2.5,0,5.1,0,7.6,0c0,0.8,0,1.5,0,2.3c0,0.1,0,0.1,0,0.2c0,0.2,0,0.5,0,0.7
		c0,0.1-0.1,0.2-0.1,0.3c-2.1,0-4.2,0-6.3,0c-0.4,0-0.8-0.1-1.1-0.1C901.3,1026.7,901.3,1025.5,901.3,1024.4z"/>
	<path class="st20" d="M954.7,1039.2c0,1.2,0,2.4,0,3.6c-0.8,0-1.6,0.1-2.4,0.1c-0.6,0-1.2-0.1-1.9-0.1c-1.1,0-2.2,0-3.2,0
		c0-1.2,0-2.4,0-3.6c0.2,0.1,0.4,0.1,0.6,0.1C950.1,1039.3,952.4,1039.3,954.7,1039.2z"/>
	<path class="st23" d="M993.8,1008.6c2.5-0.1,5.1-0.1,7.6-0.2c0.1,1.1,0.1,2.2,0.2,3.3c-1.6,0.1-3.1,0.2-4.7,0.3
		c-1,0.1-2,0.1-2.9,0.2C993.9,1011,993.9,1009.8,993.8,1008.6z"/>
	<path class="st11" d="M969.2,1012.7c0,1.1,0,2.3,0,3.4c-0.9,0.1-1.7,0.3-2.6,0.3c-0.7,0-1.5-0.1-2.2-0.1c-0.8,0.1-1.6,0.2-2.4-0.2
		c0-1.2,0-2.4,0-3.6c0.7,0.1,1.4,0.3,2,0.3c0.8,0,1.7-0.1,2.5-0.1C967.4,1012.7,968.3,1012.7,969.2,1012.7z"/>
	<path class="st13" d="M893.7,1019.5c-2.3,0-4.7,0-7,0c0.2-1.3,0.3-2.6,0.5-3.9c1.5,0.1,3.1,0.1,4.6,0.1c0.9,0,1.7-0.1,2.6-0.1
		C894.1,1016.9,893.9,1018.2,893.7,1019.5z"/>
	<path class="st10" d="M857.4,1003c2.5,0.1,5,0.1,7.5,0.2c0,1.1,0,2.3,0,3.4c-2.5-0.1-5-0.1-7.6-0.2
		C857.4,1005.3,857.4,1004.1,857.4,1003z"/>
	<path class="st11" d="M925.2,1015.6c-1-0.1-2-0.1-2.9-0.1c-1,0-2.1,0.1-3.1,0.1c-0.5,0-1-0.2-1.5-0.3c0-1.1,0-2.3,0-3.4
		c2.5,0.1,5,0.2,7.5,0.3C925.2,1013.4,925.2,1014.5,925.2,1015.6z"/>
	<path class="st26" d="M826.7,1046.6c0.8-0.1,1.5-0.2,2.3-0.1c1.3,0,2.6,0.1,3.9,0.1c0.4,0,0.9-0.1,1.3-0.1c0,1.1,0,2.3,0,3.4
		c-0.8,0.3-1.6,0.1-2.4,0.1c-1.7,0-3.4,0.2-5.1,0.3C826.7,1049,826.7,1047.8,826.7,1046.6z"/>
	<path class="st12" d="M878.2,1007.2c0.2,0.9,0.3,1.9,0.5,2.8c0,0.3,0.1,0.5,0.1,0.8c-0.7,0.1-1.3,0.3-2,0.3
		c-1.7,0.1-3.5,0.2-5.2,0.3c-0.2-1.3-0.4-2.5-0.6-3.8c1.8,0,3.6,0,5.4,0C877,1007.6,877.6,1007.4,878.2,1007.2z"/>
	<path class="st20" d="M969.2,1042.8c-2.4,0.4-4.9,0-7.3,0.2c0-1.1,0-2.3,0-3.4c0.4,0,0.8-0.1,1.1-0.1c2.1,0,4.2,0.4,6.2-0.2
		C969.2,1040.4,969.2,1041.6,969.2,1042.8z"/>
	<path class="st10" d="M1024.7,1002.8c2.5,0,5.1,0,7.6,0c0,1.2,0,2.4,0,3.6c-0.5-0.1-1.1-0.3-1.6-0.3c-2.1,0-4.1,0-6.2,0
		C1024.6,1005,1024.7,1003.9,1024.7,1002.8z"/>
	<path class="st27" d="M901.3,1006.9c1.8,0,3.5,0,5.3,0c0.9,0,1.8,0.1,2.7,0.2c-0.5,1-0.4,2.2-0.4,3.3c-2.5-0.1-5.1-0.1-7.6-0.2
		C901.3,1009.1,901.3,1008,901.3,1006.9z"/>
	<path class="st9" d="M891.4,1034.1c-2.3,0-4.5,0-6.8,0c0.2-1.3,0.4-2.6,0.6-3.9c1,0.1,2.1,0.3,3.1,0.3c1.2,0,2.5-0.1,3.7-0.1
		C891.8,1031.6,891.6,1032.8,891.4,1034.1z"/>
	<path class="st9" d="M834.2,1034.2c-2.5-0.3-5,0.3-7.5-0.3c0-1.1,0-2.2,0-3.3c2.5,0.1,5,0.1,7.5,0.2
		C834.2,1031.9,834.2,1033.1,834.2,1034.2z"/>
	<path class="st17" d="M1016.4,1023.6c0,1.1,0,2.2,0,3.3c-0.7,0.4-1.5,0.5-2.4,0.5c-1.7,0-3.4,0-5.2,0c0-1.1,0-2.3,0-3.4
		c1.5,0,3.1-0.1,4.6,0C1014.5,1024,1015.5,1024.2,1016.4,1023.6z"/>
	<path class="st9" d="M984.3,1033.8c-1.3,0.6-2.6,0.3-3.9,0.3c-1.3,0-2.6-0.2-3.8-0.3c0-1.1,0-2.2,0-3.3c2.6,0.6,5.1,0.3,7.7,0.2
		C984.3,1031.7,984.3,1032.7,984.3,1033.8z"/>
	<path class="st17" d="M886.1,1023.3c2.3,0,4.7,0,7,0c-0.2,1.2-0.4,2.4-0.6,3.6c-1.1,0-2.2-0.1-3.2,0c-1.2,0.1-2.5,0.3-3.6-0.3
		C885.8,1025.5,885.9,1024.4,886.1,1023.3z"/>
	<path class="st11" d="M871.7,1011.4c1.7-0.1,3.5-0.2,5.2-0.3c0.7,0,1.3-0.2,2-0.3c0.2,1.3,0.3,2.6,0.5,3.9c-2.4,0-4.8,0-7.2,0
		C872,1013.6,871.8,1012.5,871.7,1011.4z"/>
	<path class="st15" d="M954.6,1049.5c-1.7,0-3.5,0-5.2,0c-0.6,0-1.1,0-1.7,0c-0.3,0-0.5-0.4-0.7-0.6c0.1-0.9,0.2-1.9,0.2-2.8
		c0.5,0.1,1,0.2,1.5,0.2c1.2,0,2.4-0.2,3.6-0.1c0.8,0.1,1.6,0.2,2.4-0.2C954.7,1047.1,954.6,1048.3,954.6,1049.5z"/>
	<path class="st11" d="M994,1012.2c1-0.1,2-0.1,2.9-0.2c1.6-0.1,3.1-0.2,4.7-0.3c0,1.1,0,2.2,0,3.3c-1.3,0.1-2.5,0.2-3.8,0.3
		c-0.6,0-1.2,0.2-1.8,0.1c-0.7,0-1.4-0.2-2.1-0.3C994,1014.2,994,1013.2,994,1012.2z"/>
	<path class="st26" d="M961.9,1046.6c1.6,0,3.1,0,4.7,0c0.9,0,1.8,0.3,2.7-0.3c0,1.1,0,2.3,0,3.4c-1,0.6-2,0.2-3,0.2
		c-1.4,0-2.9,0.1-4.4,0.1C961.9,1048.9,961.9,1047.7,961.9,1046.6z"/>
	<path class="st19" d="M878.2,1007.2c-0.6,0.2-1.2,0.4-1.8,0.5c-1.8,0.1-3.6,0-5.4,0c-0.2-0.8-0.3-1.7-0.5-2.5
		c-0.1-0.3-0.1-0.6-0.1-1c2.5,0,5,0,7.5,0C878,1005.2,878.1,1006.2,878.2,1007.2z"/>
	<path class="st14" d="M865,1022.7c-1.2,0-2.4,0-3.5,0c-0.5,0-1,0-1.5,0c-0.8,0-1.7,0-2.5,0c0-1.2,0-2.4,0-3.6
		c0.8,0.1,1.7,0.2,2.5,0.3c0.4,0.1,0.9,0.1,1.3,0.1c1.2,0,2.5,0,3.7,0C865,1020.6,865,1021.6,865,1022.7z"/>
	<path class="st19" d="M834.1,1005.3c0,1.1,0,2.2,0,3.3c-2.5-0.1-5-0.1-7.5-0.2c0-1.1,0-2.2,0-3.3c2.1,0,4.1,0,6.2,0
		C833.3,1005.2,833.7,1005.3,834.1,1005.3z"/>
	<path class="st7" d="M826.7,1001.7c0-0.9,0-1.7,0-2.6c0-0.5,0.2-0.6,0.6-0.6c0.9,0,1.8,0,2.7,0c1.4,0,2.8,0,4.2,0
		c0,1.2,0,2.3,0,3.4c-1.8,0-3.5,0-5.3,0C828.1,1002,827.4,1001.8,826.7,1001.7z"/>
	<path class="st13" d="M1032.3,1018.8c-0.4,0-0.9,0.1-1.3,0c-2.1-0.4-4.2,0-6.3,0.2c0-1.1,0-2.2,0-3.3c1.4-0.1,2.8-0.3,4.2-0.3
		c1.1,0,2.3,0.1,3.4,0.1C1032.3,1016.6,1032.3,1017.7,1032.3,1018.8z"/>
	<path class="st8" d="M834.2,1030.8c-2.5-0.1-5-0.1-7.5-0.2c0-1.1,0-2.2,0-3.3c2.5,0.1,5,0.1,7.5,0.2
		C834.1,1028.6,834.2,1029.7,834.2,1030.8z"/>
	<path class="st9" d="M849.2,1033.9c-2.5,0-5,0-7.5,0c0-1,0-2.1,0-3.1c0.5-0.1,0.9-0.2,1.4-0.2c2.1,0,4.1,0.1,6.1,0.1
		C849.2,1031.8,849.2,1032.9,849.2,1033.9z"/>
	<path class="st13" d="M962,1016.1c0.8,0.4,1.6,0.3,2.4,0.2c0.7-0.1,1.5,0.1,2.2,0.1c0.9,0,1.7-0.2,2.6-0.3c0,1.1,0,2.3,0,3.4
		c-2.4,0.1-4.8,0.1-7.3,0.2C962,1018.5,962,1017.3,962,1016.1z"/>
	<path class="st11" d="M1032.3,1015.5c-1.1-0.1-2.3-0.2-3.4-0.1c-1.4,0-2.8,0.2-4.2,0.3c0-1.1,0-2.2,0-3.3c2.5,0,5,0,7.5,0
		C1032.3,1013.4,1032.3,1014.4,1032.3,1015.5z"/>
	<path class="st16" d="M954.8,1046c-0.8,0.4-1.6,0.3-2.4,0.2c-1.2-0.1-2.4,0.1-3.6,0.1c-0.5,0-1-0.1-1.5-0.2c0-1.1,0-2.2,0-3.3
		c1.1,0,2.2,0,3.2,0c0.6,0,1.2,0.1,1.9,0.1c0.8,0,1.6-0.1,2.4-0.1C954.7,1043.9,954.8,1044.9,954.8,1046z"/>
	<path class="st16" d="M976.6,1041.1c0.6,0.2,1.2,0.4,1.8,0.4c1.6,0,3.2,0,4.8,0c0.4,0,0.7-0.3,1.1-0.4c0,1.1,0,2.2,0,3.3
		c-0.6,0.1-1.2,0.3-1.8,0.3c-0.7,0-1.5,0-2.2-0.1c-1.2-0.2-2.5,0.3-3.7-0.3C976.6,1043.2,976.6,1042.2,976.6,1041.1z"/>
	<path class="st9" d="M1016.4,1033c-2,1.1-4.3,0.5-6.4,0.6c-0.4,0-0.8,0-1.2,0c0-1,0-2.1,0-3.1c1.3-0.1,2.7-0.1,4-0.2
		c0.8,0,1.6,0,2.4,0c0.4,0,0.8-0.2,1.2-0.3C1016.4,1031,1016.4,1032,1016.4,1033z"/>
	<path class="st11" d="M834.1,1015c-2.5,0-5,0-7.5,0c0-1,0-2.1,0-3.1c0.4-0.1,0.8-0.2,1.2-0.1c2.1,0,4.2,0.1,6.3,0.1
		C834.1,1012.9,834.1,1014,834.1,1015z"/>
	<path class="st23" d="M834.1,1011.9c-2.1-0.1-4.2-0.1-6.3-0.1c-0.4,0-0.8,0.1-1.2,0.1c0-1.1,0-2.3,0-3.4c2.5,0.1,5,0.1,7.5,0.2
		C834.1,1009.7,834.1,1010.8,834.1,1011.9z"/>
	<path class="st24" d="M976.6,1044.2c1.2,0.6,2.5,0.1,3.7,0.3c0.7,0.1,1.5,0.2,2.2,0.1c0.6,0,1.2-0.2,1.8-0.3c0,1,0,2.1,0,3.1
		c-0.4,0.1-0.8,0.2-1.1,0.1c-2.2-0.2-4.4,0.4-6.6-0.1C976.6,1046.4,976.6,1045.3,976.6,1044.2z"/>
	<path class="st16" d="M856.3,1041.3c2.4,0,4.8,0,7.2,0c0.5,0,0.9-0.1,1.4-0.1c0,1,0,2,0,3c-0.6,0.1-1.3,0.1-1.9,0.1
		c-2,0.1-3.9,0.1-5.9,0.2C856.8,1043.3,856.6,1042.3,856.3,1041.3z"/>
	<path class="st27" d="M1024.6,1006.1c2.1,0,4.1,0,6.2,0c0.5,0,1.1,0.2,1.6,0.3c0,1,0,2.1,0,3.1c-0.7-0.1-1.5-0.3-2.2-0.3
		c-1.8,0-3.6,0.1-5.4,0.1c0-0.8-0.1-1.5-0.1-2.3C1024.7,1006.8,1024.6,1006.4,1024.6,1006.1z"/>
	<path class="st24" d="M857.1,1044.4c2-0.1,3.9-0.1,5.9-0.2c0.6,0,1.3-0.1,1.9-0.1c0,1.1,0,2.2,0,3.3c-2.5,0-5,0-7.5-0.3
		C857.3,1046.2,857.2,1045.3,857.1,1044.4z"/>
	<path class="st8" d="M961.9,1027.2c2.1,0,4.1,0,6.2,0c0.4,0,0.8-0.1,1.1-0.2c0,1.1,0,2.2,0,3.3c-1,0-2,0-3,0c-1.4,0-2.9,0-4.3,0
		C961.9,1029.3,961.9,1028.2,961.9,1027.2z"/>
	<path class="st5" d="M826.7,1001.7c0.7,0.1,1.5,0.3,2.2,0.3c1.8,0,3.5,0,5.3,0c0,1.1,0,2.2,0,3.3c-0.4-0.1-0.9-0.1-1.3-0.1
		c-2.1,0-4.1,0-6.2,0C826.7,1004,826.7,1002.9,826.7,1001.7z"/>
	<path class="st8" d="M885.6,1026.6c1.2,0.6,2.4,0.5,3.6,0.3c1.1-0.1,2.2,0,3.2,0c-0.2,1.1-0.3,2.3-0.5,3.4
		c-1.2,0.1-2.5,0.2-3.7,0.1c-1,0-2.1-0.2-3.1-0.3c0.1-0.9,0.2-1.8,0.3-2.8C885.5,1027.1,885.6,1026.9,885.6,1026.6z"/>
	<path class="st13" d="M864.9,1019.6c-1.2,0-2.5,0-3.7,0c-0.4,0-0.9-0.1-1.3-0.1c-0.8-0.1-1.7-0.2-2.5-0.3c0-1,0-2,0-3
		c1.9,0.1,3.8,0.2,5.7,0.3c0.6,0,1.2,0,1.8,0C864.9,1017.5,864.9,1018.5,864.9,1019.6z"/>
	<path class="st25" d="M954.7,1039.2c-2.3,0.1-4.6,0.1-6.9,0.1c-0.2,0-0.4-0.1-0.6-0.1c0-1,0-2.1-0.1-3.1c0-0.1-0.1-0.1-0.1-0.2
		v-0.1c0.8,0.6,1.8,0.5,2.7,0.5c1,0,2.1,0,3.1,0c0.6,0,1.2-0.2,1.8-0.3C954.8,1037,954.8,1038.1,954.7,1039.2z"/>
	<path class="st8" d="M1001.6,1030.2c-2.6,0.1-5.2,0.1-7.7,0.2c0-1,0-2,0-3c1.5,0,3,0.1,4.4,0c1.1-0.1,2.2-0.3,3.3-0.4
		C1001.6,1028,1001.6,1029.1,1001.6,1030.2z"/>
	<path class="st27" d="M857.4,1006.4c2.5,0.1,5,0.1,7.6,0.2c0,1,0,2.1,0,3.1c-1.2,0-2.4,0-3.6,0c-1.3-0.1-2.6-0.2-3.9-0.3
		C857.4,1008.4,857.4,1007.4,857.4,1006.4z"/>
	<path class="st19" d="M944.6,1005c0.1-0.6,0.5-0.6,1-0.6c2.5,0,5.1,0,7.6,0c0.3,0,0.5-0.1,0.8-0.2c0.2,1,0.4,2,0.6,3
		c-2.5,0-5.1,0-7.6,0C946.8,1005.8,945.9,1005.2,944.6,1005z"/>
	<path class="st8" d="M984.3,1030.6c-2.6,0.2-5.2,0.4-7.7-0.2c0-1,0-2.1,0-3.1c0.9,0.6,1.9,0.5,2.8,0.5c1.6,0,3.3-0.1,4.9-0.2
		C984.3,1028.7,984.3,1029.7,984.3,1030.6z"/>
	<path class="st8" d="M1016.4,1030c-0.4,0.1-0.8,0.3-1.2,0.3c-0.8,0-1.6,0-2.4,0c-1.3,0-2.7,0.1-4,0.2c0-1,0-2.1,0-3.1
		c1.7,0,3.4,0,5.2,0c0.8,0,1.6-0.1,2.4-0.5C1016.4,1027.9,1016.4,1029,1016.4,1030z"/>
	<path class="st27" d="M969.3,1006.6c0,1,0,2,0,3c-2.1,0.1-4.2,0.1-6.3,0.2c-0.4,0-0.8-0.1-1.1-0.1c0-1,0.1-2,0.1-3
		C964.4,1006.6,966.8,1006.6,969.3,1006.6z"/>
	<path class="st25" d="M969.3,1039.2c-2.1,0.6-4.2,0.3-6.2,0.2c-0.4,0-0.8,0.1-1.1,0.1c0-1,0-2.1,0-3.1c0.6,0,1.2,0,1.8,0
		c1.9-0.1,3.8,0.3,5.6-0.1C969.3,1037.3,969.3,1038.2,969.3,1039.2z"/>
	<path class="st23" d="M857.4,1009.4c1.3,0.1,2.6,0.2,3.9,0.3c1.2,0.1,2.4,0,3.6,0c0,1,0,2,0,3c-1.8,0-3.6,0-5.3,0
		c-0.7,0-1.5-0.2-2.2-0.3C857.4,1011.4,857.4,1010.4,857.4,1009.4z"/>
	<path class="st9" d="M961.9,1030.3c1.4,0,2.9,0,4.3,0c1,0,2,0,3,0c0,1,0,2,0,3c-0.5,0.1-0.9,0.1-1.4,0.2c-2,0-4,0-6,0
		C961.9,1032.4,961.9,1031.4,961.9,1030.3z"/>
	<path class="st23" d="M1024.8,1009.4c1.8-0.1,3.6-0.1,5.4-0.1c0.7,0,1.5,0.2,2.2,0.3c0,0.9,0,1.9,0,2.8c-2.5,0-5,0-7.5,0
		C1024.8,1011.4,1024.8,1010.4,1024.8,1009.4z"/>
	<path class="st8" d="M849.2,1030.8c-2-0.1-4.1-0.1-6.1-0.1c-0.5,0-0.9,0.1-1.4,0.2c0-1,0-2,0-3c1.9,0,3.8,0,5.8,0
		c0.6,0,1.2-0.1,1.8-0.1C849.2,1028.7,849.2,1029.8,849.2,1030.8z"/>
	<path class="st6" d="M954.8,1036c-0.6,0.1-1.2,0.3-1.8,0.3c-1,0-2.1,0-3.1,0c-0.9,0-1.9,0.1-2.7-0.5c-0.1-0.6-0.2-1.3-0.3-1.9
		c0.3-0.5,0.7-0.6,1.2-0.6c1.5,0,3,0,4.5,0c0.7,0,1.5-0.1,2.2-0.1C954.7,1034.1,954.7,1035,954.8,1036z"/>
	<path class="st8" d="M874.3,1028.3c0.6-0.1,1.2-0.1,1.8-0.2c1.7-0.1,3.4-0.1,5.1-0.2c0.2,1.1,0.3,2.3,0.5,3.4c-2.3,0-4.6,0-6.8,0
		C874.7,1030.4,874.5,1029.3,874.3,1028.3z"/>
	<path class="st23" d="M961.8,1009.6c0.4,0.1,0.8,0.2,1.1,0.1c2.1,0,4.2-0.1,6.3-0.2c0,1,0,2.1,0,3.1c-0.9,0-1.8,0-2.8,0
		c-0.8,0-1.7,0.1-2.5,0.1c-0.7,0-1.4-0.2-2-0.3C961.9,1011.5,961.9,1010.5,961.8,1009.6z"/>
	<path class="st18" d="M961.9,1033.5c2,0,4,0,6,0c0.5,0,0.9-0.1,1.4-0.2c0,1,0,2,0,3c-1.9,0.4-3.7,0-5.6,0.1c-0.6,0-1.2,0-1.8,0
		C961.9,1035.4,961.9,1034.4,961.9,1033.5z"/>
	<path class="st6" d="M874.8,1031.4c2.3,0,4.6,0,6.8,0c0.1,0.9,0.2,1.8,0.3,2.6c-0.3,0.5-0.7,0.6-1.2,0.6c-1.8,0-3.7,0.1-5.5,0.1
		c-0.1-0.9-0.3-1.8-0.4-2.8C874.8,1031.9,874.8,1031.6,874.8,1031.4z"/>
	<path class="st18" d="M875.3,1034.9c1.8-0.1,3.7-0.1,5.5-0.1c0.6,0,1-0.2,1.2-0.6c0.2,0.9,0.3,1.9,0.5,2.8c0.1,0.3,0.1,0.6,0.1,1
		c-2.2,0.1-4.5,0.1-6.7,0.2c-0.2-0.8-0.3-1.7-0.5-2.5C875.4,1035.2,875.3,1035.1,875.3,1034.9z"/>
	<path class="st26" d="M857.4,1047c2.5,0.3,5,0.3,7.5,0.3c0,1,0,2,0,3c-1.1-0.1-2.1-0.2-3.2-0.3c-0.6,0-1.2,0-1.9,0.1
		c-0.9,0.1-1.7,0.2-2.5-0.1C857.4,1049,857.4,1048,857.4,1047z"/>
	<path class="st23" d="M925.2,1012.2c-2.5-0.1-5-0.2-7.5-0.3c0-0.9,0-1.9,0-2.8c0.3,0.1,0.7,0.1,1,0.1c2.2,0,4.4,0,6.6,0
		C925.2,1010.2,925.2,1011.2,925.2,1012.2z"/>
	<path class="st26" d="M917.6,1047.4c2.5,0.3,5,0.2,7.5,0.2c0,1,0,2,0,3c-1.2-0.1-2.3-0.1-3.5-0.1c-0.7,0-1.3,0.1-2,0.1
		s-1.3-0.1-2-0.1C917.6,1049.3,917.6,1048.3,917.6,1047.4z"/>
	<path class="st26" d="M976.6,1047.5c2.2,0.6,4.4,0,6.6,0.1c0.4,0,0.8-0.1,1.1-0.1c0,0.8,0.4,1.4,1,2c-0.1,0.6-0.5,0.9-1.2,0.8
		c-1.4,0-2.7,0-4.1,0c-1,0-2,0.1-3,0.1C976.9,1049.5,976.7,1048.5,976.6,1047.5z"/>
	<path class="st10" d="M969.3,1006.6c-2.4,0-4.9,0-7.3,0c0-0.9,0-1.9,0-2.8c2.4-0.1,4.9-0.1,7.3-0.2
		C969.2,1004.6,969.3,1005.6,969.3,1006.6z"/>
	<path class="st26" d="M901.3,1047.5c1.6,0,3.2,0,4.8,0c0.9,0,1.8,0,2.8,0c0,1,0,2,0,3c-2.5-0.1-5-0.1-7.5-0.2
		C901.3,1049.4,901.3,1048.5,901.3,1047.5z"/>
	<path class="st27" d="M946.9,1007.2c2.5,0,5.1,0,7.6,0c0,0.9,0,1.9,0,2.8c-2.5,0-5,0-7.5,0C947,1009.1,947,1008.1,946.9,1007.2z"/>
	<path class="st7" d="M889.2,1001.4c0.1-0.8,0.1-1.5,0.3-2.3c0-0.2,0.4-0.5,0.6-0.5c2.3,0,4.5,0,7,0c-0.1,0.9-0.2,1.8-0.4,2.6
		c-0.7,0.1-1.4,0.1-2.1,0.1C892.8,1001.4,891,1001.4,889.2,1001.4z"/>
	<path class="st5" d="M877.9,1004.2c-2.5,0-5,0-7.5,0c-0.1-0.9-0.2-1.8-0.3-2.7c1.2-0.1,2.4-0.1,3.6-0.2c1.2-0.1,2.5-0.1,3.7-0.2
		c0.1,0.6,0.2,1.2,0.3,1.8C877.8,1003.5,877.8,1003.9,877.9,1004.2z"/>
	<path class="st7" d="M877.4,1001.3c-1.2,0.1-2.5,0.1-3.7,0.2c-1.2,0.1-2.4,0.1-3.6,0.2c-0.2-0.9-0.3-1.7-0.5-2.6
		c0-0.1,0.3-0.3,0.5-0.3c2.2,0,4.3,0,6.5,0c0.7,0,0.6,0.5,0.6,0.9C877.4,1000,877.4,1000.7,877.4,1001.3z"/>
	<path class="st7" d="M961.8,1001.4c0-0.8,0-1.5,0-2.3c0-0.2,0.3-0.5,0.5-0.5c2.1,0,4.3,0,6.4,0c0.2,0,0.5,0.3,0.5,0.5
		c0,0.7,0,1.4-0.1,2.1C966.8,1001.3,964.3,1001.4,961.8,1001.4z"/>
	<path class="st5" d="M889.2,1001.4c1.8,0,3.6,0,5.4,0c0.7,0,1.4-0.1,2.1-0.1c-0.2,1-0.3,2-0.5,3c-1.4,0-2.8,0-4.2,0
		c-1.1,0-2.1-0.2-3.2-0.3C889,1003.1,889.1,1002.3,889.2,1001.4z"/>
	<path class="st23" d="M901.3,1010.2c2.5,0.1,5.1,0.1,7.6,0.2c0,0.9,0,1.9,0,2.8c-1.8-0.1-3.6-0.1-5.4-0.2c-0.7,0-1.4-0.1-2.2-0.2
		C901.3,1011.9,901.3,1011.1,901.3,1010.2z"/>
	<path class="st27" d="M925.2,1009.2c-2.2,0-4.4,0-6.6,0c-0.3,0-0.7-0.1-1-0.1c-0.2-0.7-0.3-1.5-0.5-2.2c2.4-0.6,4.8-0.2,7.2-0.3
		c0.3,0,0.5,0.1,0.8,0.1C925.1,1007.6,925.1,1008.4,925.2,1009.2z"/>
	<path class="st17" d="M1017.7,1022.5c1.9-0.1,3.8-0.1,5.6-0.2c0.2,0.7,0.4,1.4,0.6,2c0.1,0.4,0.3,0.8,0.4,1.3
		c-1.8,0.6-3.7,0.2-5.6,0.3C1018.4,1024.8,1018,1023.7,1017.7,1022.5z"/>
	<path class="st21" d="M1016.4,1023.6c-0.9,0.6-1.9,0.4-2.9,0.3c-1.5-0.1-3.1,0-4.6,0c0-0.9,0-1.8,0-2.7c2,0.1,4,0.1,6,0.1
		c0.5,0,1-0.4,1.5-0.6C1016.4,1021.7,1016.4,1022.7,1016.4,1023.6z"/>
	<path class="st23" d="M947.1,1010c2.5,0,5,0,7.5,0c0,0.9,0,1.8,0,2.7c-1.8-0.1-3.5-0.1-5.3-0.1c-0.7,0-1.5,0.1-2.2,0.1
		C947.1,1011.8,947.1,1010.9,947.1,1010z"/>
	<path class="st14" d="M849.7,1019.9c1.9,0,3.7,0,5.6,0c0.3,1,0.6,2.1,0.9,3.1c-1.9,0.1-3.7,0.1-5.6,0.2
		C850.3,1022,850,1021,849.7,1019.9z"/>
	<path class="st17" d="M850.7,1023.1c1.9-0.1,3.7-0.1,5.6-0.2c0.2,0.8,0.4,1.6,0.7,2.3c-0.1,0.2-0.2,0.5-0.4,0.7
		c-0.2,0.2-0.5,0.4-0.8,0.4c-1.1,0-2.3,0-3.4,0c-0.2,0-0.4,0.2-0.5,0.2C851.4,1025.5,851,1024.3,850.7,1023.1z"/>
	<path class="st5" d="M961.8,1001.4c2.5-0.1,4.9-0.1,7.4-0.2c0,0.8,0,1.6,0,2.3c-2.4,0.1-4.9,0.1-7.3,0.2
		C961.9,1003,961.9,1002.2,961.8,1001.4z"/>
	<path class="st22" d="M875.9,1038c2.2-0.1,4.5-0.1,6.7-0.2c0.1,0.8,0.2,1.6,0.3,2.3c-2.1,0-4.2-0.1-6.2-0.1c-0.2,0-0.3,0.1-0.5,0.1
		c-0.1-0.6-0.2-1.1-0.3-1.7l0,0v-0.1C875.9,1038.2,875.9,1038.1,875.9,1038z"/>
	<path class="st5" d="M1011.3,968c-0.4,0.4,0.6,1.1-0.4,1.2c-0.5,0.1-0.7-0.1-0.7-0.6C1010.1,967.9,1010.6,968,1011.3,968z"/>
	<path class="st28" d="M906.3,986.4c0-0.1,0-0.2,0-0.3c0.1,0.1,0.2,0.2,0.3,0.3C906.5,986.4,906.4,986.4,906.3,986.4z"/>
	<path class="st29" d="M939.4,1042.2c0-0.2,0-0.3,0-0.5C939.4,1041.9,939.4,1042.1,939.4,1042.2z"/>
	<path class="st29" d="M1024.7,1023.8c0,0.1,0,0.2,0,0.3C1024.7,1024,1024.7,1023.9,1024.7,1023.8z"/>
	<path class="st18" d="M826.7,1039.2c0,0.1,0,0.2,0,0.3C826.7,1039.4,826.7,1039.3,826.7,1039.2z"/>
	<path class="st18" d="M826.7,1038.6c0,0.1,0,0.2,0,0.3C826.7,1038.8,826.7,1038.7,826.7,1038.6z"/>
	<path class="st18" d="M826.7,1038c0,0.1,0,0.2,0,0.3C826.7,1038.2,826.7,1038.1,826.7,1038z"/>
	<path class="st28" d="M883.1,986.5c0.1,0,0.1,0,0.2,0C883.2,986.5,883.1,986.5,883.1,986.5z"/>
	<path class="st29" d="M939.5,1047.7c0-0.1,0-0.1,0-0.2C939.4,1047.6,939.5,1047.6,939.5,1047.7z"/>
	<path class="st28" d="M883.6,974.6c0-0.1,0-0.1,0-0.2C883.6,974.4,883.6,974.5,883.6,974.6z"/>
	<path class="st26" d="M1001.1,1050.5L1001.1,1050.5C1001.1,1050.4,1001.1,1050.4,1001.1,1050.5
		C1001.1,1050.4,1001.1,1050.4,1001.1,1050.5z"/>
	<path class="st30" d="M873.4,982.3c-0.1,0-0.1-0.1-0.2-0.1C873.2,982.3,873.3,982.3,873.4,982.3z"/>
	<path class="st30" d="M947.1,1035.9c0,0.1,0.1,0.1,0.1,0.2C947.1,1036.1,947.1,1036,947.1,1035.9z"/>
	<path class="st30" d="M988.5,970.8L988.5,970.8C988.4,970.8,988.4,970.8,988.5,970.8C988.4,970.8,988.4,970.8,988.5,970.8z"/>
	<path class="st30" d="M988,970.8L988,970.8C987.9,970.8,987.9,970.8,988,970.8z"/>
	<path class="st18" d="M875.9,1038.3L875.9,1038.3L875.9,1038.3L875.9,1038.3z"/>
	<path class="st16" d="M877.2,1046C877.2,1046,877.2,1046.1,877.2,1046L877.2,1046C877.1,1046.1,877.1,1046,877.2,1046z"/>
	<path class="st14" d="M954.3,1016.5c0.1,0,0.1,0,0.2-0.1C954.4,1016.5,954.3,1016.5,954.3,1016.5z"/>
	<path class="st14" d="M954.5,1016.5c0-0.1,0.1-0.1,0.1-0.2C954.5,1016.3,954.5,1016.4,954.5,1016.5z"/>
	<path class="st24" d="M969.3,1051.4L969.3,1051.4L969.3,1051.4L969.3,1051.4z"/>
	<path class="st18" d="M855.4,1038.1c0,0.1,0.1,0.2,0.1,0.2C855.4,1038.3,855.4,1038.2,855.4,1038.1z"/>
	<path class="st30" d="M1016.4,1020.3c0-0.1,0-0.2,0-0.3C1016.4,1020.1,1016.4,1020.2,1016.4,1020.3z"/>
	<path class="st29" d="M908.9,1035.5c0.2,0,0.3-0.1,0.5-0.1C909.3,1035.4,909.1,1035.4,908.9,1035.5z"/>
	<path class="st29" d="M917.3,1035.3c0.1,0,0.1,0.1,0.2,0.1C917.4,1035.4,917.3,1035.4,917.3,1035.3z"/>
	<path class="st31" d="M1028.5,972.6c0.4,2.4-0.1,4.3-2,5.9c-1.6,1.3-3,2.8-4.5,4.2c-0.1,0.1-0.2,0.2-0.3,0.4c0.4,0,0.6,0,0.9,0
		c1.9,0,3.7,0,5.6,0c0.8,0,1,0.2,0.8,1c-0.4,1.7-0.9,2.1-2.7,2.2c-2.7,0-5.5,0-8.2,0.1c-0.3,0-0.5,0-0.7-0.1
		c-0.4-1.9,0.1-3.5,1.6-4.8c2.8-2.6,5.5-5.3,8.3-8C1027.6,973.2,1028,972.9,1028.5,972.6z"/>
	<path class="st31" d="M1020.8,970.9c0.7,0,1.4,0,2.2,0c0.1,0,0.2,0,0.4,0c1.2,0.1,2.3,0.1,3.5,0.2c0.6,0.1,0.8,0.4,0.3,0.9
		c-0.7,0.7-1.3,1.4-2.1,2c-0.3,0.3-0.9,0.4-1.3,0.4c-0.8,0.1-1.6,0-2.4,0c-0.1,0.6-0.2,1.1-0.3,1.7c-0.9,0-1.8,0-2.6,0
		c-0.2,0-0.6-0.2-0.6-0.4c-0.5-1.4,0.7-3.9,2.1-4.5c0.3-0.1,0.6-0.2,0.9-0.2C1020.7,970.9,1020.7,970.9,1020.8,970.9z"/>
	<path class="st29" d="M1023.3,970.9c-0.1,0-0.2,0-0.4,0C1023.1,970.9,1023.2,970.9,1023.3,970.9z"/>
	<path class="st29" d="M1020.8,970.9c-0.1,0-0.1,0-0.2,0C1020.7,970.9,1020.7,970.9,1020.8,970.9z"/>
	<path class="st26" d="M986.2,1050C986.2,1050,986.3,1050,986.2,1050c0,0.1-0.1,0.2-0.1,0.3l-0.1-0.1
		C986.1,1050.1,986.2,1050,986.2,1050z"/>
	<path class="st15" d="M987.2,1050.1c0.1,0,0.1,0,0.2,0C987.3,1050.1,987.3,1050.1,987.2,1050.1z"/>
	<path class="st29" d="M908.9,1027.7c0,0.2,0.1,0.4,0.1,0.6c-0.1-0.1-0.1-0.2-0.2-0.3C908.8,1027.9,908.9,1027.8,908.9,1027.7z"/>
	<path class="st29" d="M908.9,1026.7c0,0.1,0,0.1,0,0.2C908.9,1026.8,908.9,1026.8,908.9,1026.7z"/>
</g>
<rect class="st0" width="1080" height="1080"/>
<g>
	<path class="st32" d="M56.6,1006.3l-7.5-5.4l6.2-6l-8.6-1.2l2.9-8.8l7.6,4l-1.5-8.5H65l-1.5,8.5l7.7-4l2.8,8.8l-8.6,1.2l6.3,6
		l-7.5,5.4l-3.8-7.6L56.6,1006.3z"/>
	<path class="st32" d="M80.7,1033.1v-50.5h10.5v50.5H80.7z"/>
	<path class="st32" d="M103.2,1033.1v-50.5h9.4l22.9,33v-33h10v50.5h-9.4l-22.9-33v33H103.2z"/>
	<path class="st32" d="M178.2,1034.1c-7.5,0-13.2-2.2-17.1-6.6c-3.9-4.4-5.8-10.5-5.8-18.3v-2.8c0-5.1,0.9-9.5,2.7-13.2
		c1.8-3.7,4.4-6.6,7.8-8.6c3.4-2,7.6-3,12.5-3h0.6c5.1,0,9.4,1.1,12.8,3.4c3.4,2.3,5.8,5.5,7.2,9.6L189,998
		c-0.7-2.5-1.9-4.3-3.7-5.5c-1.8-1.2-4-1.7-6.5-1.7h-0.4c-3.9,0-7,1.3-9.2,3.8c-2.2,2.5-3.3,6.4-3.3,11.5v3.2
		c0,5.3,1.1,9.2,3.2,11.7c2.1,2.5,5.3,3.7,9.3,3.7h0.4c2.6,0,4.8-0.6,6.7-1.7c1.9-1.1,3.2-2.9,4-5.4l9.6,3.8c-1.4,4-3.9,7.1-7.4,9.3
		c-3.5,2.2-7.8,3.3-12.9,3.3H178.2z"/>
	<path class="st32" d="M207.2,1033.1v-50.5h10.5v41.4h22v9.1H207.2z"/>
	<path class="st32" d="M288.1,982.6v30.7c0,6.6-1.8,11.7-5.3,15.4c-3.6,3.7-8.6,5.5-15.2,5.5h-0.7c-6.5,0-11.6-1.8-15.2-5.5
		c-3.6-3.7-5.4-8.8-5.4-15.4v-30.7h10.5v30.9c0,4,0.9,6.9,2.7,8.7c1.8,1.8,4.3,2.7,7.4,2.7h0.6c3.2,0,5.7-0.9,7.4-2.7
		c1.8-1.8,2.7-4.7,2.7-8.7v-30.9H288.1z"/>
	<path class="st32" d="M310.7,1033.1v-19.8l-17.2-30.7h12l10.7,20.7l10.8-20.7h11.5l-17.3,30.7v19.8H310.7z"/>
	<path class="st32" d="M345.2,1033.1v-50.5h33.5v8.9h-23v11.6h18.7l-1.2,8.9h-17.5v12h23.4v8.9H345.2z"/>
	<path class="st32" d="M406.8,1033.1v-50.5h19.1c5.9,0,10.5,1.4,14,4.1c3.4,2.7,5.2,6.5,5.2,11.4v1.4c0,3.4-0.8,6.3-2.5,8.7
		c-1.7,2.4-4,4.1-7,5.3l11,19.6h-11.5l-10-18h-7.9v18H406.8z M417.3,1005.9h8.3c2.5,0,4.7-0.5,6.3-1.4c1.7-1,2.5-2.6,2.5-4.8v-1.8
		c0-2.2-0.8-3.7-2.5-4.7c-1.7-1-3.8-1.5-6.3-1.5h-8.3V1005.9z"/>
	<path class="st32" d="M454.6,1033.1v-50.5h33.5v8.9h-23v11.6h18.7l-1.2,8.9h-17.5v12h23.4v8.9H454.6z"/>
	<path class="st32" d="M518.9,1034.1c-16,0-24-8.2-24-24.7v-2.8c0-5.2,0.9-9.7,2.8-13.5c1.9-3.7,4.5-6.6,8-8.6c3.5-2,7.6-3,12.5-3
		h0.6c4.9,0,9,1,12.3,3.1c3.3,2.1,5.8,5.1,7.3,9l-9.7,3.4c-1.3-4.2-4.7-6.3-10-6.3h-0.5c-4.1,0-7.3,1.3-9.5,4
		c-2.2,2.7-3.3,6.6-3.3,11.7v3.2c0,5.2,1.1,9,3.2,11.5c2.2,2.5,5.6,3.7,10.2,3.7h0.4c1.9,0,3.7-0.1,5.3-0.4c1.7-0.3,3.1-0.7,4.4-1.3
		v-9.3h-10.8l1.2-8.8h19.7v23.2c-2.5,1.9-5.4,3.4-8.7,4.4c-3.4,1-7,1.5-10.9,1.5H518.9z"/>
	<path class="st32" d="M544.2,1033.1l19.5-50.5h9.5l19.6,50.5h-11.4l-3.6-10.2h-19.1l-3.6,10.2H544.2z M561.7,1014.2h12.9l-6.4-18.1
		L561.7,1014.2z"/>
	<path class="st32" d="M599.6,1033.1v-50.5h10.5v41.4h22v9.1H599.6z"/>
	<path class="st32" d="M661.8,1034.1c-4.9,0-9.1-1-12.6-3c-3.5-2-6.2-4.9-8-8.6c-1.9-3.7-2.8-8.1-2.8-13.2v-2.9
		c0-5.1,0.9-9.5,2.8-13.2c1.9-3.7,4.5-6.6,8-8.6c3.5-2,7.7-3,12.6-3h0.7c4.9,0,9.1,1,12.6,3c3.5,2,6.2,4.9,8,8.6
		c1.9,3.7,2.8,8.1,2.8,13.2v2.9c0,5.1-0.9,9.5-2.8,13.2c-1.9,3.7-4.5,6.6-8,8.6c-3.5,2-7.7,3-12.6,3H661.8z M661.9,1024.8h0.6
		c3.9,0,7.1-1.3,9.4-3.8c2.3-2.5,3.5-6.4,3.5-11.5v-3.3c0-5.1-1.2-9-3.5-11.5c-2.3-2.5-5.5-3.8-9.4-3.8h-0.6c-3.9,0-7.1,1.3-9.4,3.8
		c-2.3,2.5-3.5,6.4-3.5,11.5v3.3c0,5.1,1.2,9,3.5,11.5C654.8,1023.6,657.9,1024.8,661.9,1024.8z"/>
	<path class="st32" d="M695.1,1018.1l-1.4-37.7H706l-1.4,37.7H695.1z M694.5,1033.1v-11h10.6v11H694.5z"/>
</g>
</svg>
