<svg xmlns="http://www.w3.org/2000/svg" id="Capa_1" data-name="Capa 1" viewBox="0 0 1080 1080.3"><defs><style>.cls-1{fill:#139f2c;stroke:#139f2c;stroke-miterlimit:10}</style></defs><path d="m724.9,522.37c14.2,13.29,26.39,24.76,38.66,36.15,12.07,11.2,12.89,22.51.74,34.25-10.05,9.7-16.33,20.74-4.44,32.67,11.87,11.9,22.99,5.77,32.69-4.31,11.72-12.18,22.61-11.12,34.26.59,71.21,71.65,143.74,142.02,213.61,214.95,54.55,56.94,51.02,146.84-4.41,201.25-55.76,54.73-144.53,56.46-201.31,1.39-71.5-69.34-141.11-140.64-211.76-210.86-12.05-11.98-14.89-23.23-1.71-35.94,10.17-9.81,15.77-21.14,3.86-32.72-10.83-10.54-21.98-6.09-31.29,3.58-13.33,13.85-25.45,11.6-37.58-1.7-10.35-11.35-21.15-22.29-33.08-34.81-31.3,31.08-61.38,60.19-90.22,90.47-4.03,4.23-3.35,14.39-2.58,21.56,12.64,117.92-65.57,218.84-185.01,238.27-108.21,17.6-217.45-59.8-240.23-170.21-29.64-143.67,87.85-271.44,237.04-257.1,12.48,1.2,20.62-1.34,29.41-10.17,122.72-123.32,245.94-246.14,368.42-369.69,6.03-6.08,10.05-18.26,8.9-26.77C629.25,98.54,765.25-26.77,907.53,5.66c23.73,5.41,28.3,19.63,11.07,37.24-31.4,32.09-63.06,63.93-95.34,95.13-8.85,8.55-10.21,15.8-6.4,27.36,24.27,73.65,24.11,73.37,98.08,97.52,12.05,3.93,19.09,1.83,27.45-6.77,30.81-31.67,61.98-63.02,93.86-93.62,5.78-5.55,16.64-10.98,23.09-9.15,6.22,1.76,12.4,12.4,14.09,20.12,30.17,137.62-79.54,265.89-221.1,257.07-24.21-1.51-40.4,4.04-56.28,21.71-21.44,23.85-45.63,45.22-71.15,70.09ZM872.7,38.56c-9.41-.71-12.84-1.28-16.25-1.18-108.77,3.13-188.58,101.46-169.27,210.4,3.17,17.91-1.4,28.62-13.38,40.54-126.77,126.16-253.37,252.5-379.26,379.54-16.3,16.45-31.12,22.58-55.1,18.76-125.56-19.97-231.43,99.3-199.13,222.53,25.13,95.89,118.45,152.94,215.33,131.64,94.29-20.73,154.53-113.07,136.62-210.12-2.64-14.3-.19-24.93,10.68-35.74,130.76-130.1,261.17-260.57,391.27-391.33,10.61-10.67,20.99-12.92,35.55-11.69,23.48,1.98,47.84,3.85,70.8-.15,84.13-14.67,149.95-100.21,140.47-182.24-5.97,5.4-11.1,9.67-15.82,14.36-23.37,23.24-47.11,46.15-69.74,70.11-10.68,11.3-21.35,13.68-35.68,8.6-29.02-10.3-58.9-18.36-87.33-30.02-10.08-4.13-20.41-14.59-24.64-24.67-11.34-27.05-18.65-55.77-29.13-83.22-6.63-17.35-4.28-29.87,9.72-42.85,27.62-25.6,53.71-52.84,84.31-83.26Zm140.57,824.58c-68.31-68.03-136.74-136.18-205.99-205.15-24.4,13.43-50.63,16.17-73.32-6.62-22.65-22.74-20.09-48.92-4.61-76.14-9.1-9.1-17.9-17.9-25.83-25.82-51.84,52.03-102.58,102.96-153.6,154.17,7.55,7.9,16.18,16.93,25.21,26.37,26.15-16.46,51.49-18.61,74.31,2.45,25.16,23.22,22.41,50.51,10.18,71.98,70.77,70.8,139.33,139.39,206.25,206.34,47.54-47.6,97.46-97.58,147.39-147.58Zm-111.13,173.56c36.74,16.34,85.5-1.13,108.24-24.96,30.46-31.92,40.43-75.14,25.84-109.13-44.15,44.15-88.99,89-134.09,134.09Z" class="cls-1"/><path d="m479.92,383.39c-8.9,7.81-17.09,15.01-28.67,25.18-11.58-12.78-23.73-27.26-37-40.64-54.86-55.28-109.39-110.93-165.47-164.95-21.53-20.74-38.25-42.68-40.95-72.89-1.9-21.24-13.54-32.92-31.99-42.18-27.49-13.79-53.66-30.24-79.22-44.89-17.79,18.2-34.77,35.57-53.12,54.34,17.21,30.22,35.36,63.33,55.03,95.5,3.65,5.97,13.12,10.75,20.46,11.69,39.01,5.01,67.16,25.98,93.84,53.85,63.51,66.32,129.45,130.31,195.49,196.33-9.04,7.95-17.24,15.16-25.44,22.37-1.56,2.43-3.12,4.85-4.68,7.28-3.89-6.79-6.53-14.81-11.85-20.18-61.21-61.83-123.59-122.53-183.91-185.21-19.95-20.73-41.37-34.85-69.66-38.16-24.28-2.84-39.87-14.97-50.99-37.49-16.41-33.25-35.97-64.99-54.95-96.92-7.8-13.12-6.26-23.16,4.47-33.56,21.16-20.5,41.96-41.4,62.51-62.52C83.78.12,93.6-.6,105.74,6.51c37.5,21.95,75.77,42.63,112.7,65.48,8.28,5.13,16.3,16.55,17.64,26.03,5.8,41.2,27.89,70.89,57.34,98.85,58.5,55.53,114.54,113.66,171.56,170.75,4.86,4.87,9.48,9.98,14.94,15.76Z" class="cls-1"/><path d="m215.43,968.62c-49.6,17.06-74.36-9.69-95.94-50.67-35.85-68.09-38.62-42.37,1.15-108.68,39.75-66.26,17.68-53.68,95.49-53.65,79.27.03,56.12-12.88,96.92,54.83,39.01,64.74,35.71,39.29,1.03,106.92-21.99,42.88-48.47,66.85-98.66,51.25Zm-.55-35c35.94,12.15,52.52-8.1,69.77-36.66,15.06-24.95,14.18-41.54.27-66.92-16.91-30.84-36.8-39.64-70.65-39.44-31.08.18-47.72,9.33-64.17,35.99-17.19,27.87-16.47,47.13.52,74.23,16.2,25.85,31.3,43.68,64.25,32.79Z" class="cls-1"/><path d="m352.19,745.5c-4.96-5.56-11.87-13.29-17.29-19.36,130.21-130.17,261.33-261.27,393.55-393.46,5.36,5.61,12.54,13.12,17.84,18.66-131.6,131.61-262.69,262.73-394.1,394.15Z" class="cls-1"/><path d="m730.13,746.75c5.2-5.01,12.69-12.21,19.22-18.5,59,59.19,118.09,118.47,178.37,178.94-6.67,5.39-14.8,11.96-20.84,16.84-57.78-57.95-116.78-117.12-176.76-177.28Z" class="cls-1"/></svg>