<svg xmlns="http://www.w3.org/2000/svg" id="Capa_1" data-name="Capa 1" viewBox="0 0 1079 1083.37"><defs><style>.cls-1{fill:#139f2c;stroke-width:0}</style></defs><path d="m865.51,612.75c20.97,20.41,41.86,41.33,63.61,61.31,3.44,3.16,11.41,4.04,16.26,2.57,31.84-9.63,58.1-1.23,80.52,22.42,10.66,11.24,22.22,21.65,32.72,33.04,26.38,28.6,27.78,69.7.51,97.43-76.57,77.86-153.81,155.09-231.84,231.49-27.73,27.15-68.82,25.26-97.41-1.41-13.39-12.49-26.35-25.48-38.85-38.86-18.75-20.08-25.77-43.79-16.43-70.12,4-11.29,1.69-18.19-6.85-25.28-7.02-5.83-13.09-12.8-19.57-19.27-60.75-60.69-60.77-61.13-146.43-56.54-10.77.58-23.12,6.36-31.3,13.61-21.58,19.13-40.86,40.82-61.9,60.59-8.55,8.04-11.28,15.18-5.14,25.55,2.07,3.5,2.55,8.02,3.44,12.15,8.94,41.66-26.71,77.12-74.47,111.24-28.3,20.21-60.97,10.67-90.85-19.03-12.49-12.42-24.91-24.91-37.28-37.44-9.87-10-11.99-21.36-1.74-31.65,10.3-10.34,21.77-8.02,31.72,1.69,13.61,13.29,26.78,27.03,40.47,40.23,18.08,17.44,30.73,17.41,49.08-.09,10.71-10.21,21.26-20.61,31.32-31.45,13.02-14.02,14.11-28.13-.3-42.55-73.18-73.26-145.94-146.94-219.39-219.92-21.55-21.41-33.12-20.31-55.18,1.45-9.53,9.4-19.34,18.57-28.27,28.51-12.2,13.58-12.37,28.1.21,41.49,13.49,14.37,27.72,28.06,41.72,41.96,10.16,10.09,15.23,21.52,4.1,33.25-12.05,12.72-23.88,7.56-34.62-3.38-13.82-14.08-28.22-27.6-41.77-41.92-28.98-30.64-28.74-71.34.45-102.21,10.65-11.26,22.08-21.76,32.82-32.94,20.41-21.23,44.88-27.14,73.41-21.88,6.13,1.13,15.09-1.04,19.6-5.15,20.8-18.94,40.49-39.11,61.45-59.7-17.4-20.86-28.66-42.8-23.44-69.84,5.22-27.04,22-44.89,47.1-57.36-11.1-22.6-15.49-45.54-5.69-69.14,9.54-22.99,27.27-37.09,51.42-44.57-6.09-45.5,11.1-77.15,55.68-93.33-.41-7.97-1.67-16.22-1.1-24.35,2.91-42.14,37.8-71.24,80.52-69.13,10.36.51,20.88-4.12,31.45-5.42,15.13-1.87,30.81-5.83,45.49-3.69,57.02,8.3,113.76,18.55,170.57,28.29,35.92,6.16,61.05,36.21,61.14,72.81.02,6.27-.58,12.54-.94,19.77,42.78,15.82,62.64,45.83,55.13,92.62,42.67,15.74,62.93,45.47,56.33,91.18,57.86,24.73,76.56,78.27,32.54,132.94Zm-157.95,288.39c63.61-63.91,128-128.61,190.65-191.56-20.78-20.94-42.87-43.19-65.44-65.92-1.04.87-3.35,2.42-5.19,4.4-10.49,11.3-22.77,19.58-36.24,6.78-14.96-14.21-4.73-26.38,6.62-37.52,14.07-13.81,28.51-27.35,41.41-42.2,11.78-13.56,11.34-28.98-1.5-41.77-12.78-12.73-27.65-12.86-41.85-1.64-6.04,4.77-11.25,10.63-16.71,16.11-10.2,10.23-21.63,14.7-33.21,3.38-11.53-11.27-7.72-22.8,2.64-33.14,10.96-10.95,22.31-21.56,32.68-33.05,13.62-15.09,13.42-32.9.46-45.26-12.39-11.82-29.29-11.65-43.72.85-5.84,5.06-11.11,10.79-16.55,16.3-10.67,10.81-22.8,16.05-34.75,3.48-10.94-11.51-6.22-23.12,4.03-33.29,12.5-12.4,25.55-24.36,36.91-37.74,11.58-13.64,11.15-29.2-1.46-41.9-12.65-12.74-27.72-12.97-41.79-1.44-7.6,6.22-14.13,13.73-21.32,20.48-10.11,9.49-21.38,11.88-31.73,1.44-10.38-10.47-7.88-21.75,1.79-31.69,11.3-11.61,23.04-22.78,34.24-34.48,14.91-15.58,16.27-33.94,3.9-46.86-13.41-14-31.33-13.04-48.27,3.25-15.23,14.64-29.62,30.16-45.04,44.59-8.12,7.6-9.42,13.97-6.54,25.52,3.75,15.01,4.95,32.48,1.01,47.23-9,33.71-35.43,48.78-69.18,52.87-4.85,39.95-25.43,65.02-65.3,73.03-4.02.81-9.34,6.17-10.15,10.21-8.06,39.88-33.27,60.3-72.08,64.96-14.81,62.82-44.55,80.95-107.32,66.68-4.06-.92-10.32-.12-13.08,2.49-21.26,20.14-41.91,40.92-60.68,59.47,66.34,66.66,130.7,131.31,196.44,197.37,12.19-12.63,27.03-25.06,38.26-40.17,36.29-48.84,84.13-64.14,142.82-55.06,32.69,5.05,63.05-.5,85.24-29.35,8.3-10.79,20.57-13.67,31.36-3.51,11.38,10.72,8.88,22.53-1.39,33.29-9.05,9.48-17.96,19.1-25.51,27.14,22.3,22.52,44.4,44.85,65.55,66.21Zm71.57,138.23c7.96-4.36,16.49-6.88,22.06-12.4,75.07-74.35,149.83-149.01,224.38-223.88,13.5-13.56,13.86-28.92.66-43.16-11.47-12.39-23.38-24.47-35.91-35.78-13.59-12.27-28.43-12.18-41.46.78-75.43,74.99-150.68,150.15-225.74,225.51-13.84,13.9-12.84,28.97.56,42.92,11.22,11.68,22.49,23.37,34.57,34.13,5.46,4.86,12.92,7.47,20.88,11.88ZM498.72,384.97c19.47-1.47,30.29-8.96,34.38-24.48,4.18-15.9-3.72-23.65-17.97-30.22-39.6-18.28-69.43-47.37-86.63-87.83-5.01-11.79-12.7-18.33-23.76-14.57-9.61,3.27-22.59,10.27-24.81,18.22-2.84,10.12-.11,26.29,6.79,33.86,29.77,32.66,61.73,63.36,93.45,94.19,5.66,5.5,13.99,8.25,18.56,10.84Zm-35.93,46.45c-4.7-10.46-6.2-18.8-11.09-23.87-26.31-27.28-52.82-54.44-80.59-80.2-12.9-11.97-28.87-10.86-41.62,1.91-12.02,12.04-13.89,27.41-2.26,39.8,26.88,28.63,54.54,56.68,83.77,82.85,6.39,5.72,22.05,6.16,30.9,2.64,8.64-3.44,14.03-15.05,20.9-23.13Zm-170.08-22.53c-8.78,7.5-21.22,13.04-23.62,21.45-2.95,10.32-1.37,26.17,5.06,34.11,17.14,21.14,37.51,39.77,57.41,58.53,14.29,13.46,33.15,12.92,45.13.37,12.26-12.86,11.8-30.26-2.4-45.09-17.95-18.75-36.21-37.25-55.23-54.89-6.22-5.77-15.23-8.53-26.35-14.48Zm-12.62,198.61c22.9-.11,39.44-25.89,26.77-44.9-9.07-13.61-21.79-26.15-35.59-34.9-18.5-11.72-42.97,4.17-43.87,26.18-.79,19.25,33.08,53.71,52.7,53.61Zm187.56-393.33c2.92,29.11,27.96,58.4,59.25,74.02,18.22-17.31,35.86-34.07,55.78-53-39.24-7.17-76.65-14.01-115.04-21.02Z" class="cls-1"/><path d="m270.38,128.16c-7.81-5.26-14.79-8.62-20.06-13.73-23.14-22.45-45.72-45.49-68.66-68.15-10.81-10.68-16.1-22.46-3.66-34.52,11.43-11.08,22.92-6.55,33.08,3.66,23.73,23.86,48.24,46.99,70.88,71.84,5.36,5.88,7.11,17.79,5.71,26.12-.91,5.4-10.52,9.35-17.28,14.78Z" class="cls-1"/><path d="m906.45,25.59c-5.23,8.11-8.33,15.19-13.37,20.38-22.46,23.12-45.56,45.62-68.26,68.52-10.59,10.68-22.31,16.57-34.46,4.01-12.02-12.42-6.02-24.06,4.67-34.59,23.46-23.13,46.06-47.17,70.42-69.29,5.9-5.35,17.65-7.12,26.01-5.87,5.34.8,9.4,10.16,15,16.85Z" class="cls-1"/><path d="m558.96,67.37c0,14.71.23,29.43-.07,44.14-.29,14.37-6.14,25.21-22.09,24.89-14.74-.3-20.45-10.52-20.52-24.15-.15-29.43-.2-58.86.03-88.29.11-13.58,6.07-23.73,20.74-23.96,14.62-.23,21.13,9.72,21.68,23.23.6,14.69.14,29.42.14,44.14.03,0,.06,0,.09,0Z" class="cls-1"/><path d="m170.39,935.51c-8.34,5.18-16.98,14.77-24.94,14.23-7.19-.49-19.89-13.18-18.94-18.47,1.49-8.31,11.73-19.77,19.54-20.87,7.29-1.03,16.23,9.71,24.45,15.26-.04,3.28-.07,6.56-.11,9.84Z" class="cls-1"/><path d="m746.16,728.97c-8.39,4.93-17.29,14.36-25.04,13.5-7.31-.81-19.72-13.76-18.62-19.02,1.73-8.29,12.26-19.27,20.25-20.36,7.09-.97,15.8,9.99,23.8,15.68-.13,3.4-.26,6.8-.39,10.2Z" class="cls-1"/></svg>