<svg xmlns="http://www.w3.org/2000/svg" id="Capa_1" data-name="Capa 1" viewBox="0 0 1081 1080"><defs><style>.cls-1,.cls-2{fill:#139f2c;stroke-width:0}.cls-2{fill:#fff}</style></defs><rect width="1080" height="1080" x="1" class="cls-2"/><g><path d="m314.45,767.14c-45.21,0-91.43.08-137.64-.03-26.97-.06-30.31-3.47-30.38-30.65-.1-34.33-.02-68.66-.02-105.38-39.47,0-76.72,0-113.98,0-6.61,0-14.13,1.94-19.62-.55-1.77-.8-3.45-1.79-5.08-2.9-9.45-6.43-10.44-20.22-1.88-27.79,2.13-1.88,4.27-3.13,6.43-3.17,72.71-1.34,145.46-1.36,218.18-.08,1.76.03,3.5.76,5.24,1.93,10.96,7.38,9.88,24.1-1.83,30.23-1.39.73-2.83,1.27-4.3,1.55-14.17,2.66-29.21.75-45.84.75v99.44h132.34c13.23-44.56,41.56-73.39,89.68-77.48,43.32-3.68,80.25,21.93,97.87,64.21,2.46,5.91,9.85,13.86,15.03,13.92,80.73.88,161.48.62,244.27.62v-459.85H183.41v53.81c30.95,0,61.58.08,92.21-.04,13.07-.05,27.13-.08,26.61,17.77-.51,17.12-14.32,17.67-27.47,17.66-64.65-.07-129.3-.03-193.96-.04-13.03,0-26.93-.42-27.08-17.92-.16-18.09,14.14-17.44,26.97-17.43,21.12.02,42.24,0,65.71,0,0-13.87,0-25.4,0-36.94.01-47.47,6.7-54.03,55.13-54.03,55.84,0,111.68,0,167.52,0,127.84,0,255.68-.03,383.53.02,38.99.01,47.71,8.82,47.79,48.01.06,27.91,1.48,55.93-.46,83.71-1.49,21.35,6.78,25.96,26.21,25.13,33-1.41,66.12.06,99.17-.52,22.28-.39,37.3,9.03,47.95,28.48,29.61,54.06,61.21,107.07,89.32,161.89,9.67,18.85,13.82,41.55,16.01,62.95,2.68,26.17.8,52.83.62,79.27-.23,34.28-9.05,43.11-42.88,43.46-5.82.06-11.65,0-18.67,0-11.02,38.14-33.1,65.47-72.38,75.6-47.85,12.33-96.12-12.13-113.74-59.36-4.74-12.71-10.27-16.51-23.28-16.44-94.78.49-189.56,0-284.33.69-6.67.05-16.81,5.48-19.36,11.11-20.36,44.98-53.53,69.03-95.98,67.44-42.58-1.59-73.79-27.1-90.76-74.11-.45-1.26-1.53-2.3-3.36-4.94Zm510.89-36.29c14.58-47.35,44.85-77.74,96.36-77.69,51.4.04,81.44,30.66,95.94,77.27h24.97c0-34.94.61-68.58-.41-102.17-.27-9.05-4.21-18.66-8.66-26.82-29.49-54-59.39-107.77-89.76-161.28-3.17-5.59-10.18-12.61-15.56-12.75-41.57-1.06-83.17-.58-125.95-.58v304.02h23.07Zm-352.48,18.39c-.06-34.17-27.58-61.54-61.54-61.2-33.07.33-60.02,27.24-60.41,60.3-.4,34.17,26.68,62.07,60.66,62.49,33.54.41,61.36-27.54,61.29-61.59Zm387.92-.28c-.1,34.29,27.04,61.83,60.96,61.87,33.5.04,61.43-28.47,60.95-62.23-.47-33.25-27.11-60.05-60.21-60.57-34-.53-61.6,26.72-61.7,60.92Z" class="cls-1"/><path d="m146.41,515.94c0-32.41.2-62.3-.09-92.2-.13-12.8,1.73-25.31,17.01-25.65,16.82-.38,18.63,12.87,18.52,26.43-.24,29.3-.07,58.6-.07,91.41,8.45,0,16.13,0,23.81,0,65.25,0,130.51.04,195.76-.03,12.94-.01,27-.34,27.37,17.22.36,17.46-13.29,18.21-26.5,18.2-97.51-.06-195.03-.1-292.54.04-13.41.02-26.96-1.09-26.77-18.07.19-17.1,14.07-17.74,27.28-17.41,10.95.27,21.91.05,36.24.05Z" class="cls-1"/><path d="m102.51,458.33c-19.03.02-38.26,1.61-56.98-.78-7.31-.94-17.27-9.75-19.34-16.9-3.73-12.88,6.47-17.58,18.42-17.58,38.05.01,76.14-.88,114.13.77,7.27.31,14.1,10.59,21.14,16.26-6.76,6.07-12.95,16.38-20.4,17.38-18.69,2.52-37.94.83-56.97.85Z" class="cls-1"/></g></svg>