<svg xmlns="http://www.w3.org/2000/svg" id="Capa_1" data-name="Capa 1" viewBox="0 0 1079 585.28"><defs><style>.cls-1{fill:#139f2c;stroke-width:0}</style></defs><path d="m346.31,509.55c-43.27,0-87.5.07-131.73-.03-25.81-.06-29-3.32-29.08-29.33-.09-32.86-.02-65.71-.02-100.86-37.77,0-73.43,0-109.08,0-6.33,0-13.52,1.86-18.78-.53-7.25-3.3-13.05-9.82-19.46-14.95,6.32-6.08,12.54-17.33,18.96-17.45,69.59-1.29,139.22-1.3,208.81-.07,6.73.12,13.27,10.9,19.89,16.74-6.87,5.41-13.13,14.09-20.75,15.52-13.57,2.55-27.96.72-43.87.72v95.17h126.66c12.66-42.64,39.77-70.24,85.83-74.15,41.46-3.52,76.8,20.99,93.67,61.45,2.36,5.65,9.43,13.27,14.39,13.32,77.27.84,154.55.59,233.78.59V35.58H220.9v51.5c29.62,0,58.94.08,88.25-.04,12.51-.05,25.97-.08,25.47,17.01-.48,16.39-13.71,16.91-26.29,16.9-61.88-.07-123.75-.03-185.63-.04-12.47,0-25.77-.4-25.92-17.15-.16-17.32,13.54-16.7,25.81-16.69,20.21.02,40.42,0,62.89,0,0-13.27,0-24.31,0-35.35C185.49,6.29,191.9.01,238.24,0c53.44,0,106.88,0,160.33,0,122.35,0,244.71-.02,367.06.02,37.32.01,45.66,8.45,45.74,45.95.06,26.72,1.41,53.53-.44,80.12-1.42,20.43,6.49,24.85,25.09,24.05,31.59-1.35,63.28.05,94.91-.5,21.33-.37,35.7,8.64,45.89,27.26,28.34,51.74,58.58,102.48,85.49,154.94,9.25,18.04,13.22,39.77,15.32,60.25,2.56,25.05.76,50.56.6,75.87-.22,32.81-8.66,41.26-41.04,41.59-5.57.06-11.15,0-17.87,0-10.55,36.5-31.68,62.66-69.27,72.35-45.79,11.8-91.99-11.61-108.86-56.81-4.54-12.16-9.83-15.8-22.28-15.73-90.71.47-181.42,0-272.13.66-6.38.05-16.09,5.25-18.53,10.64-19.48,43.05-51.23,66.07-91.86,64.55-40.76-1.53-70.62-25.94-86.87-70.93-.44-1.21-1.47-2.2-3.21-4.73Zm488.96-34.73c13.95-45.32,42.92-74.4,92.22-74.36,49.19.04,77.94,29.34,91.82,73.95h23.9c0-33.44.59-65.64-.39-97.78-.26-8.67-4.03-17.86-8.29-25.67-28.22-51.68-56.84-103.14-85.9-154.35-3.03-5.35-9.74-12.07-14.89-12.2-39.78-1.01-79.6-.56-120.54-.56v290.97h22.08Zm-337.35,17.6c-.06-32.71-26.4-58.9-58.9-58.57-31.65.32-57.44,26.07-57.82,57.71-.39,32.7,25.53,59.41,58.05,59.81,32.1.4,58.72-26.35,58.66-58.95Zm371.26-.27c-.09,32.82,25.88,59.18,58.34,59.22,32.06.04,58.79-27.25,58.33-59.56-.45-31.82-25.95-57.47-57.62-57.97-32.54-.51-58.96,25.58-59.05,58.31Z" class="cls-1"/><path d="m185.49,269.13c0-31.01.19-59.63-.09-88.24-.12-12.25,1.65-24.22,16.28-24.55,16.1-.36,17.83,12.32,17.72,25.3-.23,28.04-.07,56.08-.07,87.49,8.08,0,15.43,0,22.78,0,62.45,0,124.9.04,187.36-.03,12.39-.01,25.84-.32,26.19,16.48.35,16.71-12.72,17.43-25.36,17.42-93.33-.06-186.65-.09-279.98.04-12.83.02-25.81-1.05-25.62-17.29.19-16.36,13.46-16.97,26.11-16.67,10.48.26,20.97.05,34.69.05Z" class="cls-1"/><path d="m73.79,213.99c-18.21.02-36.62,1.54-54.53-.75-7-.9-16.53-9.33-18.51-16.18-3.57-12.33,6.19-16.83,17.63-16.82,36.42.01,72.88-.84,109.23.74,6.96.3,13.5,10.13,20.23,15.56-6.47,5.81-12.4,15.68-19.52,16.64-17.88,2.41-36.31.8-54.52.81Z" class="cls-1"/></svg>