<svg xmlns="http://www.w3.org/2000/svg" id="Capa_1" data-name="Capa 1" viewBox="0 0 1083 1082"><defs><style>.cls-1,.cls-2{fill:#139f2c;stroke-width:0}.cls-2{fill:none}</style></defs><rect width="1080" height="1082" x="1.5" class="cls-2"/><g><path d="m1013.65,899.95c14.12,0,29.41-.21,44.69.06,14.06.24,25.11,7.83,22.31,21.48-1.65,8.03-13.35,14.86-21.79,20.24-4.02,2.56-10.99.51-16.62.51-334.39,0-668.77.02-1003.16-.04-16.63,0-38.08,3.52-38.06-21.18.02-24.74,21.51-21.03,38.11-21.09,38.38-.14,76.77-.04,116.52-.04-7.74-15.23-15.5-27.71-20.55-41.21-4.87-13.03-6.95-27.1-10.86-43.25-17.79,0-37.35.22-56.91-.05C26.24,814.82.2,788.97.15,747.66c-.2-180.26-.2-360.52,0-540.77.04-41.34,26.04-67.71,67.09-67.75,199.22-.22,398.45-.23,597.67.02,39.83.05,65.86,26.5,66.23,66.5.43,47.14.1,94.28.1,144.72,7.49,0,14.17,0,20.84,0,49.28,0,98.56.53,147.83-.19,31.61-.46,53.68,12.58,67.7,40.85,35,70.54,70.78,140.7,105.27,211.5,5.6,11.5,8.33,25.37,8.73,38.25,1.14,36.58,2.77,73.44-.67,109.73-1.63,17.26-10.74,37.2-23.05,49.09-11.89,11.48-17.53,21.55-20.92,37.29-4.48,20.81-14.63,40.4-23.31,63.05ZM42.4,604.02c21.76,0,40.06.09,58.35-.03,17.32-.12,26.15,8.21,26.15,25.66,0,24.65-.22,49.3.08,73.94.24,19.83-9.72,27.88-28.83,27.4-18.12-.46-36.26-.1-54.12-.1-3.66,36.51,1.33,42.14,35.22,42.19,12.67.02,25.42-.85,38,.25,12.39,1.08,18.04-3.97,23.57-14.88,24.17-47.66,73.36-75.06,124.93-69.25,52.24,5.88,87.35,35.56,107.58,82.34h314.5c.46-3.58.96-5.64.96-7.7.06-184.51.14-369.01.03-553.52-.01-23.34-6.77-28.9-33.39-28.91-192.91-.04-385.83-.04-578.74,0-29.14,0-34.26,5.15-34.27,34.4-.04,122.54-.02,245.07-.02,367.61v20.61Zm994.27,42.34c-77.12,0-153.82.05-230.52-.03-26.78-.03-32.64-5.69-32.71-31.68-.12-49.28-.12-98.56,0-147.84.06-26.15,5.86-31.8,32.52-31.86,44.12-.1,88.25-.03,132.37-.03,1.57-2.01,3.14-4.01,4.7-6.02-11.12-11.97-21.65-33.56-33.45-34.27-58.67-3.56-117.68-1.63-176.98-1.63v379.39h60.15c22.65-51.01,60.41-81.62,116.8-83.44,56.88-1.83,95.73,28.81,122.45,78.09,1.55-.86,3.11-1.71,4.66-2.57v-118.12Zm-225.44,252.75c-10.23-27.82-20.17-54.87-30.21-82.2h-395.15c-11.03,29.26-20.99,55.66-31,82.2h456.36Zm214.56-296.11c-16.03-32.27-32.95-61.53-45.26-92.61-10.67-26.94-26.46-36-55.09-33.77-36.04,2.8-72.47.68-108.63.68v125.71h208.98Zm-771.87,127.95c-46.36-.15-84.53,37.77-84.69,84.15-.16,46.38,37.78,84.59,84.13,84.72,46.39.13,84.52-37.77,84.69-84.15.16-46.38-37.75-84.56-84.12-84.72Zm743.37,83.79c-.3-46.32-38.65-84.1-85.06-83.79-46.32.31-84.06,38.64-83.76,85.07.3,46.33,38.66,84.13,85.04,83.8,46.34-.33,84.08-38.66,83.78-85.08ZM43.29,687.48h40.03v-39.67h-40.03v39.67Z" class="cls-1"/><path d="m448.95,308.2c-41.43,0-82.87-.18-124.3.09-15.05.1-27.84-3.79-28.12-20.89-.28-17.06,12.12-21.65,27.36-21.62,84.27.15,168.55.14,252.82,0,15.34-.03,27.56,4.92,27.08,21.9-.49,17.06-13.43,20.71-28.42,20.61-42.13-.29-84.27-.1-126.41-.1Z" class="cls-1"/><path d="m490.24,392.73c-27.36,0-54.72-.16-82.08.06-15.29.13-27.41-4.79-27.13-21.81.25-15.67,11.71-20.68,26.2-20.65,56.83.14,113.65.14,170.48,0,14.53-.03,25.93,5.12,26.09,20.76.18,17-12,21.83-27.27,21.7-28.76-.24-57.53-.07-86.29-.07Z" class="cls-1"/><path d="m254.03,773.18c22.68.2,41.45,18.85,41.82,41.53.38,23.49-19.1,43.1-42.59,42.88-23.47-.22-42.62-20.22-41.81-43.66.78-22.68,19.88-40.96,42.58-40.76Z" class="cls-1"/><path d="m955.09,816.32c-.54,23.42-20.85,42.39-44.2,41.27-22.59-1.08-40.69-20.52-40.19-43.15.52-23.48,20.75-42.37,44.18-41.25,22.6,1.08,40.74,20.53,40.22,43.13Z" class="cls-1"/><circle cx="234" cy="286.5" r="19" class="cls-1"/></g></svg>