<svg xmlns="http://www.w3.org/2000/svg" id="Capa_1" data-name="Capa 1" viewBox="0 0 1081.47 586.61"><defs><style>.cls-1{fill:#139f2c;stroke-width:0}</style></defs><path d="m347.11,510.72c-43.37,0-87.7.07-132.03-.03-25.87-.06-29.07-3.33-29.14-29.4-.09-32.93-.02-65.86-.02-101.09-37.86,0-73.6,0-109.33,0-6.34,0-13.55,1.87-18.82-.53-7.27-3.31-13.08-9.84-19.51-14.99,6.33-6.09,12.56-17.37,19-17.49,69.75-1.29,139.54-1.3,209.29-.07,6.74.12,13.3,10.93,19.94,16.77-6.89,5.43-13.16,14.12-20.8,15.56-13.6,2.56-28.02.72-43.97.72v95.39h126.95c12.69-42.74,39.86-70.4,86.02-74.32,41.55-3.53,76.98,21.04,93.88,61.59,2.36,5.67,9.45,13.3,14.42,13.35,77.44.85,154.9.59,234.32.59V35.66H221.41v51.61c29.69,0,59.07.08,88.46-.04,12.54-.05,26.03-.08,25.52,17.05-.48,16.43-13.74,16.95-26.35,16.94-62.02-.07-124.04-.03-186.06-.04-12.5,0-25.83-.4-25.98-17.19-.16-17.35,13.57-16.73,25.87-16.72,20.26.02,40.52,0,63.04,0,0-13.3,0-24.37,0-35.43C185.92,6.31,192.34.01,238.79,0c53.56,0,107.13,0,160.69,0,122.63,0,245.27-.02,367.9.02,37.4.01,45.77,8.47,45.85,46.05.06,26.78,1.42,53.65-.44,80.3-1.43,20.48,6.5,24.91,25.14,24.11,31.66-1.35,63.42.05,95.13-.5,21.38-.37,35.78,8.66,46,27.32,28.4,51.86,58.72,102.71,85.68,155.29,9.27,18.08,13.25,39.86,15.36,60.38,2.57,25.11.77,50.67.6,76.04-.22,32.88-8.68,41.35-41.14,41.69-5.59.06-11.18,0-17.91,0-10.57,36.59-31.75,62.81-69.43,72.52-45.9,11.83-92.2-11.63-109.11-56.94-4.55-12.19-9.85-15.84-22.33-15.77-90.92.47-181.84,0-272.75.66-6.39.05-16.13,5.26-18.57,10.66-19.53,43.15-51.35,66.22-92.07,64.69-40.85-1.53-70.79-26-87.07-71.09-.44-1.21-1.47-2.2-3.22-4.74Zm490.08-34.81c13.98-45.43,43.02-74.57,92.43-74.53,49.3.04,78.12,29.41,92.03,74.12h23.95c0-33.52.59-65.79-.39-98.01-.26-8.69-4.03-17.9-8.31-25.73-28.29-51.8-56.97-103.38-86.1-154.71-3.04-5.36-9.76-12.1-14.93-12.23-39.87-1.02-79.79-.56-120.82-.56v291.63h22.13Zm-338.13,17.64c-.06-32.78-26.46-59.03-59.04-58.71-31.72.32-57.57,26.13-57.95,57.85-.39,32.78,25.59,59.54,58.19,59.94,32.18.4,58.86-26.42,58.8-59.08Zm372.11-.27c-.09,32.89,25.94,59.31,58.48,59.35,32.14.04,58.92-27.31,58.46-59.69-.45-31.9-26.01-57.61-57.75-58.1-32.62-.51-59.09,25.63-59.19,58.44Z" class="cls-1"/><path d="m185.91,269.75c0-31.09.19-59.76-.09-88.44-.12-12.28,1.66-24.27,16.31-24.61,16.14-.36,17.87,12.35,17.76,25.36-.23,28.1-.07,56.21-.07,87.69,8.1,0,15.47,0,22.84,0,62.59,0,125.19.04,187.78-.03,12.42-.01,25.9-.32,26.25,16.51.35,16.75-12.75,17.47-25.42,17.46-93.54-.06-187.08-.09-280.62.04-12.86.02-25.87-1.05-25.68-17.33.19-16.4,13.49-17.01,26.17-16.7,10.5.26,21.02.05,34.77.05Z" class="cls-1"/><path d="m73.96,214.48c-18.25.02-36.7,1.55-54.66-.75-7.02-.9-16.56-9.35-18.55-16.21-3.58-12.36,6.21-16.87,17.67-16.86,36.5.01,73.04-.84,109.48.74,6.97.3,13.53,10.15,20.28,15.6-6.49,5.82-12.42,15.71-19.57,16.67-17.93,2.42-36.39.8-54.65.81Z" class="cls-1"/></svg>