<?xml version="1.0" encoding="UTF-8"?>
<svg id="Capa_1" data-name="Capa 1" xmlns="http://www.w3.org/2000/svg" viewBox="0 0 1080 1082">
  <defs>
    <style>
      .cls-1 {
        fill: #139f2c;
      }

      .cls-1, .cls-2 {
        stroke-width: 0px;
      }

      .cls-2 {
        fill: none;
      }
    </style>
  </defs>
  <g>
    <path class="cls-1" d="m482.8,815.19c-22.57,62.16-64.91,97.73-130.45,100.6-58.76,2.57-100.74-29.57-135.31-100.6-26.02,0-52.68.25-79.34-.07-26.18-.31-41.36-13.53-41.02-34.96.33-20.87,14.48-32.79,40.23-33.09,26.65-.31,53.31-.07,80.13-.07,2.72-7.03,4.87-12.93,7.27-18.74,20.94-50.78,70.75-84.64,125.11-85.11,55.03-.48,106.28,33.22,126.56,85.48,5.49,14.15,11.98,18.98,27.04,18.72,54.1-.94,108.23-.66,162.35-.15,11.96.11,18.22-2.76,23-15.11,21.19-54.73,70.45-88.62,126.4-88.95,55.85-.33,106.05,33.49,127.1,87.75,5.05,13.02,11.37,17.29,24.49,16.32,13.9-1.02,27.94-.23,44.36-.23.41-7.97,1.04-14.65,1.06-21.34.09-41.51-.99-83.06.48-124.52.75-21.03-6.87-36.44-17.89-53.77-20.24-31.84-44.86-43.11-83.01-41.07-67.98,3.63-136.3,1.12-204.47.97-31.38-.07-43.65-12.02-43.77-43.3-.26-68.24-.08-136.49-.09-204.74,0-7.51,0-15.02,0-24.84-10.87,0-19.14,0-27.4,0-161.65,0-323.31,0-484.96-.02-7.73,0-15.52.29-23.17-.55-18.68-2.05-29.48-12.9-30.57-31.58-1.11-18.94,9.44-30.47,27.17-34.82,7.35-1.81,15.36-1.25,23.06-1.26,176.41-.06,352.83-.05,529.24-.04,46.51,0,53.57,6.85,55.12,53.06.14,4.11.85,8.21,1.59,15.07,38.93,0,77.5,2.13,115.71-.62,36.21-2.6,57.72,10.38,71.32,44.25,13.05,32.48,31.8,62.61,46.46,94.51,25.98,56.52,58.27,108.7,97.89,156.78,8.92,10.83,14.28,27.74,14.6,42,1.5,66.8.76,133.66.62,200.5-.06,31.28-12.06,43.13-43.43,43.52-9.14.12-18.38.94-27.39-.14-37.18-4.44-63.79,1.01-83.88,41.69-22.28,45.13-69.41,62.64-120.06,58.45-53.19-4.4-92.56-32.18-113.65-81.7-6.51-15.29-14.24-18.86-29.53-18.64-59.66.87-119.35.36-178.96.36Zm250.32-512.12v134.83h190.23c-22.02-44-42.78-85.85-64.12-127.41-1.8-3.51-7.52-7.05-11.47-7.11-37.7-.53-75.41-.32-114.64-.32Zm-315.23,476.94c.18-37.95-30.62-68.82-68.18-68.34-36.73.47-66.91,30.85-67.11,67.54-.2,37.58,31.02,68.73,68.42,68.29,37.05-.44,66.7-30.37,66.87-67.49Zm465.04-.1c.15-37.92-30.77-68.82-68.28-68.24-36.49.56-67.14,31.35-67.34,67.65-.21,37.05,31.72,68.7,68.85,68.22,36.94-.47,66.63-30.53,66.78-67.63Z"/>
    <path class="cls-1" d="m176.94,507.98c-44.9,0-89.81.13-134.71-.04C15.23,507.84.28,495.83,0,474.65c-.28-21.02,15.43-34.59,41.28-34.64,91.91-.17,183.82-.17,275.73,0,25.76.05,41.56,13.76,41.2,34.74-.35,20.54-15.08,33.03-40.25,33.16-47.01.25-94.02.07-141.02.07Z"/>
    <path class="cls-1" d="m233.93,374.14c-46.99.02-93.99.64-140.96-.21-29.84-.54-47.64-27.36-32.4-49.54,6.16-8.96,20.14-17.53,30.69-17.68,95.36-1.36,190.75-1.14,286.12-.58,22.88.14,36.77,15.21,36.1,35.3-.63,19.17-14.14,32.21-36.49,32.5-47.68.63-95.38.19-143.06.21Z"/>
    <path class="cls-1" d="m168.37,574.41c25.22.02,50.46-.42,75.67.15,21.8.49,35.26,13.7,35.4,33.28.14,19.6-13.26,34.02-34.66,34.3-51.14.66-102.3.61-153.45.03-21.04-.24-35.68-14.96-35.94-33.61-.27-19.61,14.57-33.62,37.29-34.05,25.22-.47,50.45-.11,75.67-.09Z"/>
  </g>
  <rect class="cls-2" width="1080" height="1082"/>
</svg>