<svg xmlns="http://www.w3.org/2000/svg" xmlns:xlink="http://www.w3.org/1999/xlink" id="Capa_1" data-name="Capa 1" viewBox="0 0 500.11 456.33"><defs><style>.cls-1{fill:#e183f7}.cls-1,.cls-10,.cls-11,.cls-12,.cls-2,.cls-3,.cls-4,.cls-5,.cls-6,.cls-7,.cls-8,.cls-9{stroke-width:0}.cls-2{fill:#fdc600}.cls-13{clip-path:url(#clippath-2)}.cls-14,.cls-15,.cls-16,.cls-17,.cls-18{stroke:#000}.cls-14,.cls-16{stroke-width:.25px}.cls-14,.cls-7{fill:#fff}.cls-14,.cls-17,.cls-19{stroke-miterlimit:10}.cls-4{fill:#ff8dfa}.cls-15,.cls-16,.cls-17,.cls-18,.cls-19,.cls-5{fill:none}.cls-6{fill:#ff3e9f}.cls-20{clip-path:url(#clippath-1)}.cls-21{clip-path:url(#clippath-4)}.cls-22{isolation:isolate;opacity:.68}.cls-15,.cls-16,.cls-18{stroke-linecap:round;stroke-linejoin:round}.cls-15,.cls-17{stroke-width:.81px}.cls-8{fill:#f8e1ff}.cls-18{stroke-width:.32px}.cls-19{stroke:#9b43ef;stroke-width:.5px}.cls-23{clip-path:url(#clippath)}.cls-9{fill:#fffffb}.cls-24{clip-path:url(#clippath-3)}.cls-10{fill:#ffd9ec}.cls-11{fill:#9b43ef}.cls-12{fill:#fffffe}</style><clipPath id="clippath"><rect width="500" height="264" x=".11" y="96.05" class="cls-5"/></clipPath><clipPath id="clippath-1"><rect width="45" height="395.7" x=".11" y="29.69" class="cls-5"/></clipPath><clipPath id="clippath-2"><rect width="86.42" height="162.31" x="383.7" y="145.9" class="cls-5"/></clipPath><clipPath id="clippath-3"><rect width="7.98" height="7.98" x="75.94" y="152.58" class="cls-5"/></clipPath><clipPath id="clippath-4"><rect width="7.71" height="7.46" x="76.1" y="152.84" class="cls-5"/></clipPath></defs><path d="m382.11,219.56c-10.98,10.86-11.08,10.86-22.07,0,10.86,10.98,10.86,11.08,0,22.07,10.98-10.86,11.08-10.86,22.07,0-10.86-10.98-10.86-11.08,0-22.07" class="cls-14"/><path d="m449.4,116.88c-7.61,7.53-7.68,7.53-15.3,0,7.53,7.61,7.53,7.68,0,15.3,7.61-7.53,7.68-7.53,15.3,0-7.53-7.61-7.53-7.68,0-15.3" class="cls-14"/><path d="m113.4,115.88c-7.61,7.53-7.68,7.53-15.3,0,7.53,7.61,7.53,7.68,0,15.3,7.61-7.53,7.68-7.53,15.3,0-7.53-7.61-7.53-7.68,0-15.3" class="cls-14"/><path d="m461.11,320.57c-5.32,5.26-5.37,5.26-10.69,0,5.26,5.32,5.26,5.37,0,10.69,5.32-5.26,5.37-5.26,10.69,0-5.26-5.32-5.26-5.37,0-10.69" class="cls-14"/><g class="cls-23"><g class="cls-20"><line x1="45" x2=".16" y1=".19" y2="37.24" class="cls-19"/><line x1="45" x2=".16" y1="7.95" y2="44.99" class="cls-19"/><line x1="45" x2=".16" y1="15.71" y2="52.75" class="cls-19"/><line x1="45" x2=".16" y1="23.46" y2="60.51" class="cls-19"/><line x1="45" x2=".16" y1="31.22" y2="68.27" class="cls-19"/><line x1="45" x2=".16" y1="38.98" y2="76.02" class="cls-19"/><line x1="45" x2=".16" y1="46.74" y2="83.78" class="cls-19"/><line x1="45" x2=".16" y1="54.49" y2="91.54" class="cls-19"/><line x1="45" x2=".16" y1="62.25" y2="99.29" class="cls-19"/><line x1="45" x2=".16" y1="70.01" y2="107.05" class="cls-19"/><line x1="45" x2=".16" y1="77.77" y2="114.81" class="cls-19"/><line x1="45" x2=".16" y1="85.52" y2="122.57" class="cls-19"/><line x1="45" x2=".16" y1="93.28" y2="130.32" class="cls-19"/><line x1="45" x2=".16" y1="101.04" y2="138.08" class="cls-19"/><line x1="45" x2=".16" y1="108.8" y2="145.84" class="cls-19"/><line x1="45" x2=".16" y1="116.55" y2="153.6" class="cls-19"/><line x1="45" x2=".16" y1="124.31" y2="161.35" class="cls-19"/><line x1="45" x2=".16" y1="132.07" y2="169.11" class="cls-19"/><line x1="45" x2=".16" y1="139.83" y2="176.87" class="cls-19"/><line x1="45" x2=".16" y1="147.58" y2="184.63" class="cls-19"/><line x1="45" x2=".16" y1="155.34" y2="192.38" class="cls-19"/><line x1="45" x2=".16" y1="163.1" y2="200.14" class="cls-19"/><line x1="45" x2=".16" y1="170.86" y2="207.9" class="cls-19"/><line x1="45" x2=".16" y1="178.61" y2="215.66" class="cls-19"/><line x1="45" x2=".16" y1="186.37" y2="223.41" class="cls-19"/><line x1="45" x2=".16" y1="194.13" y2="231.17" class="cls-19"/><line x1="45" x2=".16" y1="201.89" y2="238.93" class="cls-19"/><line x1="45" x2=".16" y1="209.64" y2="246.69" class="cls-19"/><line x1="45" x2=".16" y1="217.4" y2="254.44" class="cls-19"/><line x1="45" x2=".16" y1="225.16" y2="262.2" class="cls-19"/><line x1="45" x2=".16" y1="232.91" y2="269.96" class="cls-19"/><line x1="45" x2=".16" y1="240.67" y2="277.71" class="cls-19"/><line x1="45" x2=".16" y1="248.43" y2="285.47" class="cls-19"/><line x1="45" x2=".16" y1="256.19" y2="293.23" class="cls-19"/><line x1="45" x2=".16" y1="263.94" y2="300.99" class="cls-19"/><line x1="45" x2=".16" y1="271.7" y2="308.74" class="cls-19"/><line x1="45" x2=".16" y1="279.46" y2="316.5" class="cls-19"/><line x1="45" x2=".16" y1="287.22" y2="324.26" class="cls-19"/><line x1="45" x2=".16" y1="294.97" y2="332.02" class="cls-19"/><line x1="45" x2=".16" y1="302.73" y2="339.77" class="cls-19"/><line x1="45" x2=".16" y1="310.49" y2="347.53" class="cls-19"/><line x1="45" x2=".16" y1="318.25" y2="355.29" class="cls-19"/><line x1="45" x2=".16" y1="326" y2="363.05" class="cls-19"/><line x1="45" x2=".16" y1="333.76" y2="370.8" class="cls-19"/><line x1="45" x2=".16" y1="341.52" y2="378.56" class="cls-19"/><line x1="45" x2=".16" y1="349.28" y2="386.32" class="cls-19"/><line x1="45" x2=".16" y1="357.03" y2="394.08" class="cls-19"/><line x1="45" x2=".16" y1="364.79" y2="401.83" class="cls-19"/><line x1="45" x2=".16" y1="372.55" y2="409.59" class="cls-19"/><line x1="45" x2=".16" y1="380.31" y2="417.35" class="cls-19"/><line x1="45" x2=".16" y1="388.06" y2="425.11" class="cls-19"/><line x1="45" x2=".16" y1="395.82" y2="432.86" class="cls-19"/><line x1="45" x2=".16" y1="403.58" y2="440.62" class="cls-19"/><line x1="45" x2=".16" y1="411.33" y2="448.38" class="cls-19"/><line x1="45" x2=".16" y1="419.09" y2="456.13" class="cls-19"/></g><g class="cls-13"><path d="m439.92,214.26s6.97-3.21,8.63-12.73c1.66-9.52-1.55-15.27,8.3-17.15,4.92-.94,8.22,2.77,10.28,6.71,2.84,5.43,3.44,11.78,1.76,17.68-1.62,5.71-5.37,13.12-13.92,19.77l-2.99,2.99-13.5-15.6,1.44-1.66Z" class="cls-10"/><path d="m439.92,214.26s6.97-3.21,8.63-12.73c1.66-9.52-1.55-15.27,8.3-17.15,4.92-.94,8.22,2.77,10.28,6.71,2.84,5.43,3.44,11.78,1.76,17.68-1.62,5.71-5.37,13.12-13.92,19.77l-2.99,2.99-13.5-15.6,1.44-1.66Z" class="cls-15"/><path d="m447.4,205.75c-.83,2.47-.24,5.14.82,7.52,1.05,2.38,2.7,4.44,4.43,6.39,1,1.13,2.05,2.25,3.34,3.03,1.29.78,2.86,1.21,4.33.85-2.47,1.59-4.26,4.12-6.82,5.58-4.92-3.75-9.4-8.08-13.31-12.87-.22-.27-.45-.57-.41-.91.04-.36.35-.62.64-.84,1.55-1.18,3.12-2.34,4.45-3.76,1.33-1.42,2.16-3.08,2.54-4.98" class="cls-3"/><path d="m447.07,205.65c-1.33,4.27.91,8.74,3.5,12.06,2.33,2.99,5.56,7.06,9.85,6.16-.09-.21-.18-.43-.27-.64-1.26.83-2.35,1.86-3.45,2.89-.57.54-1.15,1.07-1.76,1.57-.32.26-.73.64-1.11.81-.51.22-.64-.08-1.09-.42-2.68-2.11-5.22-4.4-7.61-6.84-1.19-1.22-2.35-2.48-3.46-3.77-.68-.79-2.04-1.93-.82-2.87.62-.48,1.25-.95,1.87-1.44,2.44-1.97,4.35-4.18,5.02-7.31.09-.44-.58-.63-.68-.19-.62,2.9-2.34,4.95-4.59,6.8-.65.53-1.31,1.03-1.98,1.54-.36.27-.81.55-.98.99-.39.99.8,1.96,1.35,2.61,3.72,4.38,7.91,8.32,12.46,11.81.1.07.26.06.35,0,2.56-1.5,4.35-3.95,6.82-5.58.33-.22.12-.72-.27-.64-4.04.84-7.25-3.44-9.38-6.25-2.33-3.08-4.33-7.2-3.11-11.11.13-.43-.54-.62-.68-.19" class="cls-3"/><path d="m393.3,167.58s-6.89,7.61-6.75,13.06c.14,5.45,1.29,7.46,4.31,10.62,3.01,3.16,6.03,7.61,6.03,7.61,0,0,6.42,9.8,7.28,21.61.87,11.81,3.12,71.82,3.12,71.82,0,0-12.32-1.32-10.76-16.6,0,0,.45-9.54,9.42-15.29l-1-22.25s-20.06,17.39-20.06,34.76,10.77,25.7,10.77,25.7c0,0,12.33,11.11,38.9,9.03,26.57-2.08,28.65-31.78,28.65-31.78,0,0,4.32-16.13-4.88-39.22-1.97-4.94-4.9-9.43-8.56-13.29-3.57-3.76-8.7-8.57-14.87-12.62-12.16-7.99-6.77-38.38-6.77-38.38l-34.84-4.79Z" class="cls-10"/><path d="m393.3,167.58s-6.89,7.61-6.75,13.06c.14,5.45,1.29,7.46,4.31,10.62,3.01,3.16,6.03,7.61,6.03,7.61,0,0,6.42,9.8,7.28,21.61.87,11.81,3.12,71.82,3.12,71.82,0,0-12.32-1.32-10.76-16.6,0,0,.45-9.54,9.42-15.29l-1-22.25s-20.06,17.39-20.06,34.76,10.77,25.7,10.77,25.7c0,0,12.33,11.11,38.9,9.03,26.57-2.08,28.65-31.78,28.65-31.78,0,0,4.32-16.13-4.88-39.22-1.97-4.94-4.9-9.43-8.56-13.29-3.57-3.76-8.7-8.57-14.87-12.62-12.16-7.99-6.77-38.38-6.77-38.38l-34.84-4.79Z" class="cls-15"/><path d="m407.28,292.3s9.02,1.3,13.33-3.08" class="cls-17"/><path d="m420.55,289.4c-.57-.13-.97-.64-1.24-1.16-.71-1.37-.81-2.96-.9-4.49-.15-2.6-.3-5.19-.45-7.79-.07-1.24-.16-2.54-.8-3.6-.04-.07-.1-.15-.19-.15-.06,0-.11.05-.15.09-.29.32-.42.76-.51,1.18-.76,3.29-.14,6.72-.18,10.09-.01,1.04-.09,2.09-.14,3.13-.07,1.6-.07,3.2,0,4.8,1.55-.43,3-1.21,4.22-2.26" class="cls-3"/><path d="m420.65,289.06c-1.7-.56-1.77-3.57-1.86-5-.11-1.75-.2-3.51-.3-5.27-.04-.68-.11-7.67-1.76-6.83-.97.49-.99,2.61-1.07,3.52-.15,1.74-.04,3.49.05,5.23.18,3.61-.21,7.2-.06,10.81,0,.22.22.4.44.34,1.62-.48,3.08-1.27,4.37-2.36.35-.29-.15-.78-.5-.5-1.2,1.01-2.56,1.73-4.06,2.17.15.11.3.23.44.34-.14-3.33.23-6.64.1-9.97-.06-1.58-.19-3.15-.15-4.73.02-.86.08-1.72.23-2.57.07-.39.13-.8.27-1.16.26-.69.29-.18.45.28.5,1.47.42,3.19.51,4.73.1,1.65.19,3.31.29,4.96.12,2.03.01,5.89,2.43,6.69.43.14.61-.53.19-.68" class="cls-3"/><path d="m396.95,246.93c.92-.22,1.94.1,2.57.81.51.57.75,1.34.93,2.09,1.01,4.15.76,8.61,2.43,12.54.86-.57,1.73-1.15,2.59-1.72.07-.04.14-.09.17-.17.03-.07.03-.14.03-.22-.23-5.79-.97-11.57-.65-17.35.04-.64.09-1.29.06-1.93-.03-.72-.14-1.43-.26-2.13-2.18,1.86-4.18,3.92-5.97,6.15-.51.64-1.02,1.31-1.71,1.76" class="cls-3"/><path d="m397.05,247.27c3.44-.62,3.54,4.94,3.81,7.15.33,2.73.64,5.48,1.69,8.04.08.19.31.35.51.21.85-.57,1.91-1.08,2.66-1.77.56-.52.26-1.54.23-2.23-.12-2.3-.31-4.6-.45-6.91-.14-2.24-.23-4.48-.2-6.73.03-2.13.21-4.16-.13-6.28-.05-.28-.41-.31-.59-.16-1.38,1.18-2.69,2.44-3.92,3.78-1.21,1.31-2.23,3.04-3.68,4.09-.36.26-.01.87.35.61,1.44-1.03,2.42-2.65,3.6-3.95,1.29-1.43,2.68-2.76,4.14-4.02-.2-.05-.39-.1-.59-.16.32,2,.15,3.91.11,5.92-.04,2.07.04,4.13.16,6.2.11,2.01.27,4.01.39,6.02.03.53.06,1.06.09,1.59.02.38.24,1.28.08,1.59-.17.34-.86.64-1.18.84-.48.32-.96.64-1.44.95.17.07.34.14.51.21-1.34-3.24-1.45-6.76-1.98-10.18-.38-2.48-1.04-6.11-4.38-5.5-.44.08-.26.76.19.68" class="cls-3"/><path d="m392.18,192.49c3.75,4.33,9.4,6.94,15.12,7.01.83.01,1.66-.03,2.5-.08,1.53-.09,3.05-.22,4.57-.38-3.89,1.56-7.92,3.08-12.12,3.1-1.3,0-2.73-.2-3.59-1.17-.29-.33-.49-.72-.71-1.1-1.1-1.98-2.45-3.82-4.02-5.46" class="cls-3"/><path d="m391.99,192.67c2.53,2.87,5.82,5,9.47,6.15,4.22,1.32,8.57.93,12.9.47-.02-.17-.05-.34-.07-.52-3.9,1.56-8.03,3.18-12.31,3.08-.89-.02-1.85-.14-2.62-.64-.84-.55-1.23-1.61-1.74-2.43-1-1.65-2.19-3.17-3.52-4.57-.23-.25-.6.13-.37.37,1.55,1.64,2.87,3.44,3.98,5.4.86,1.53,1.97,2.23,3.74,2.37,4.45.36,8.93-1.46,12.97-3.08.25-.1.25-.55-.07-.52-4.18.44-8.4.85-12.49-.37-3.68-1.1-6.98-3.22-9.51-6.1-.22-.25-.59.12-.37.37" class="cls-3"/><path d="m403.41,152.38s4.34-7.22,12.19-6.07c2.09.31,3.97,1.39,5.31,3.02.9,1.09,2,2.65,3.11,4.78" class="cls-12"/><path d="m403.41,152.38s4.34-7.22,12.19-6.07c2.09.31,3.97,1.39,5.31,3.02.9,1.09,2,2.65,3.11,4.78" class="cls-15"/><path d="m412.19,154.22s4.73-10.17,11.33.95" class="cls-12"/><path d="m412.19,154.22s4.73-10.17,11.33.95" class="cls-15"/><path d="m411.57,152.95s5.35-10.87,11.95.25" class="cls-15"/><path d="m414.29,151.36s.66.16,1.79,2.07" class="cls-12"/><path d="m414.29,151.36s.66.16,1.79,2.07" class="cls-15"/><path d="m429.99,167.69s3.69,6.96,3.19,12.75c-.5,5.79-6.04,6.46-6.04,6.46l-.5-2.18s4.03-1.34,3.69-4.19c-.34-2.85-3.77-7.8-3.77-7.8l3.44-5.03Z" class="cls-12"/><path d="m429.99,167.69s3.69,6.96,3.19,12.75c-.5,5.79-6.04,6.46-6.04,6.46l-.5-2.18s4.03-1.34,3.69-4.19c-.34-2.85-3.77-7.8-3.77-7.8l3.44-5.03Z" class="cls-15"/><path d="m391.66,167.28c-.55.6-.78,1.45-.56,2.23.28,1.02,1.11,2.15,3.4,2.01,4.07-.24,4.79-2.88,8.55-1.92,3.76.96,5.75,5.35,13.18,7.19,7.43,1.84,11.83,2,13.1-.32,1.28-2.32-1.37-7.6-1.37-7.6l-36.03-1.91-.28.31Z" class="cls-3"/><path d="m391.66,167.28c-.55.6-.78,1.45-.56,2.23.28,1.02,1.11,2.15,3.4,2.01,4.07-.24,4.79-2.88,8.55-1.92,3.76.96,5.75,5.35,13.18,7.19,7.43,1.84,11.83,2,13.1-.32,1.28-2.32-1.37-7.6-1.37-7.6l-36.03-1.91-.28.31Z" class="cls-18"/><path d="m388.11,161.22l3.6,6.78c.67,1.27,2.14,1.89,3.53,1.5,1.73-.48,3.38-1.7,6.29-1.96,3.67-.33,7.3,2.29,10.15,4.28,2.87,2.01,6.24,3.29,9.73,3.59,3,.27,6.99.21,7.64-3.49l1.9-10.87-42.51-.16" class="cls-12"/><path d="m388.11,161.22l3.6,6.78c.67,1.27,2.14,1.89,3.53,1.5,1.73-.48,3.38-1.7,6.29-1.96,3.67-.33,7.3,2.29,10.15,4.28,2.87,2.01,6.24,3.29,9.73,3.59,3,.27,6.99.21,7.64-3.49l1.9-10.87-42.51-.16" class="cls-15"/><path d="m389.59,156.01c1.73-2.48,4.49-4.45,7.58-4.18l27.87,2.45c4.13.36,6.82,4.51,5.46,8.43l-.15.42c-.93,2.68-3.57,4.38-6.39,4.12l-30.58-2.86c-1.66-.02-3.4-.49-4.48-1.83-1.24-1.53-.88-3.81,0-5.44.2-.38.43-.75.68-1.11" class="cls-12"/><path d="m389.59,156.01c1.73-2.48,4.49-4.45,7.58-4.18l27.87,2.45c4.13.36,6.82,4.51,5.46,8.43l-.15.42c-.93,2.68-3.57,4.38-6.39,4.12l-30.58-2.86c-1.66-.02-3.4-.49-4.48-1.83-1.24-1.53-.88-3.81,0-5.44.2-.38.43-.75.68-1.11Z" class="cls-15"/><path d="m394.9,154.79c0,.2-.16.36-.36.36s-.36-.16-.36-.36.16-.36.36-.36.36.16.36.36Z" class="cls-18"/><path d="m426.94,156.75c0,.2-.16.36-.36.36s-.36-.16-.36-.36.16-.36.36-.36.36.16.36.36Z" class="cls-18"/><path d="m409.28,164.02c0,.2-.16.36-.36.36s-.36-.16-.36-.36.16-.36.36-.36.36.16.36.36Z" class="cls-18"/><path d="m396.1,175.06c.45,1.29,1.92,1.52,3.06,1.03,1.26-.54,2.45-1.63,2.96-2.91-.23-.06-.45-.12-.68-.19-.37,1.25.13,2.61,1.12,3.44,1.12.93,2.65,1.08,4.04.81.44-.09.25-.76-.19-.68-1.13.23-2.4.12-3.34-.61-.83-.65-1.27-1.75-.96-2.77.13-.44-.51-.6-.68-.19-.38.96-1.24,1.7-2.11,2.22-.76.45-2.16.76-2.55-.35-.15-.42-.82-.24-.68.19" class="cls-3"/><path d="m398.51,176.18c.09.53.23,1.06.56,1.49.31.4.77.67,1.29.65.56-.01,1.08-.31,1.54-.6.46-.29.89-.64,1.28-1.03.32-.32-.17-.81-.5-.5-.32.31-.65.59-1.02.84-.35.24-.76.5-1.19.57-.9.14-1.17-.95-1.29-1.61-.03-.19-.26-.29-.43-.25-.2.05-.28.24-.24.43" class="cls-3"/><path d="m403.62,213.03c2.2.7,3.12,3.97,2.07,7.31-1.06,3.34-3.7,5.49-5.9,4.79l-2.53-.99,4.62-11.76,1.73.65Z" class="cls-2"/><path d="m403.62,213.03c2.2.7,3.12,3.97,2.07,7.31-1.06,3.34-3.7,5.49-5.9,4.79l-2.53-.99,4.62-11.76,1.73.65Z" class="cls-15"/><path d="m403.74,219.54c-1.06,3.34-3.7,5.49-5.9,4.79-2.2-.69-3.12-3.97-2.07-7.31,1.06-3.34,3.7-5.49,5.89-4.79,2.2.7,3.12,3.97,2.07,7.31" class="cls-2"/><path d="m403.74,219.54c-1.06,3.34-3.7,5.49-5.9,4.79-2.2-.69-3.12-3.97-2.07-7.31,1.06-3.34,3.7-5.49,5.89-4.79,2.2.7,3.12,3.97,2.07,7.31Z" class="cls-15"/><path d="m397.14,199.77s15.1,4.91,30.45-8.11l-.37-2.21,1.63.73c1.21.54,2.06,1.65,2.28,2.95l1.13,6.68c.23,1.38-.28,2.79-1.36,3.69-4.38,3.64-16.57,12.23-30.15,8.42-1.19-.33-2.13-1.26-2.53-2.43l-2-5.72c-.49-1.4-.13-2.96.92-4.01" class="cls-11"/><path d="m397.14,199.77s15.1,4.91,30.45-8.11l-.37-2.21,1.63.73c1.21.54,2.06,1.65,2.28,2.95l1.13,6.68c.23,1.38-.28,2.79-1.36,3.69-4.38,3.64-16.57,12.23-30.15,8.42-1.19-.33-2.13-1.26-2.53-2.43l-2-5.72c-.49-1.4-.13-2.96.92-4.01Z" class="cls-15"/><path d="m403.21,207.23c0,.88-.72,1.6-1.6,1.6s-1.6-.72-1.6-1.6.71-1.6,1.6-1.6,1.6.72,1.6,1.6" class="cls-12"/><path d="m403.21,207.23c0,.88-.72,1.6-1.6,1.6s-1.6-.72-1.6-1.6.71-1.6,1.6-1.6,1.6.72,1.6,1.6Z" class="cls-15"/><path d="m412.79,206.07c0,.88-.72,1.6-1.6,1.6s-1.6-.72-1.6-1.6.71-1.6,1.6-1.6,1.6.72,1.6,1.6" class="cls-12"/><path d="m412.79,206.07c0,.88-.72,1.6-1.6,1.6s-1.6-.72-1.6-1.6.71-1.6,1.6-1.6,1.6.72,1.6,1.6Z" class="cls-15"/><path d="m423.31,202.38c0,.88-.72,1.6-1.6,1.6s-1.6-.72-1.6-1.6.71-1.6,1.6-1.6,1.6.72,1.6,1.6" class="cls-12"/><path d="m423.31,202.38c0,.88-.72,1.6-1.6,1.6s-1.6-.72-1.6-1.6.71-1.6,1.6-1.6,1.6.72,1.6,1.6Z" class="cls-15"/><path d="m432.02,197.39c0,.88-.72,1.6-1.6,1.6s-1.6-.72-1.6-1.6.71-1.6,1.6-1.6,1.6.72,1.6,1.6" class="cls-12"/><path d="m432.02,197.39c0,.88-.72,1.6-1.6,1.6s-1.6-.72-1.6-1.6.71-1.6,1.6-1.6,1.6.72,1.6,1.6Z" class="cls-15"/><path d="m405.86,219.59c.35-1.05.7-2.09,1.08-3.13.26-.71.53-1.44,1.02-2.02.73-.86,1.83-1.28,2.88-1.67-2.15.35-4.37.7-6.5.23.86.27,1.56.94,1.94,1.75.38.81.46,1.75.28,2.63-.04-.7-.08-1.4-.27-2.08-.19-.68-.53-1.33-1.08-1.76.07.39.19.85.55,1.02.09.04.18.06.26.12.25.17.23.54.18.84-.13-.27-.17-.57-.13-.86" class="cls-3"/><path d="m406.11,219.66c.25-.75.5-1.51.77-2.26.24-.7.47-1.42.81-2.08.67-1.29,1.93-1.82,3.22-2.3.32-.12.19-.56-.14-.51-2.1.34-4.25.68-6.36.23-.33-.07-.46.4-.14.51,1.69.57,2.34,2.43,2.04,4.07.17.02.34.05.52.07-.08-1.44-.23-3.04-1.43-4.02-.21-.17-.49-.01-.44.26.07.34.16.71.4.97.12.13.26.19.42.26.24.12.2.37.17.6.16-.02.32-.04.48-.06-.1-.24-.12-.48-.09-.73.04-.34-.49-.33-.53,0-.04.35.02.67.17,1,.09.2.45.15.48-.06.06-.38.09-.83-.25-1.1-.18-.14-.4-.16-.54-.37-.12-.19-.16-.43-.2-.65-.15.09-.29.17-.44.26,1.09.89,1.2,2.34,1.27,3.65.02.28.46.38.52.07.36-1.93-.43-4.05-2.41-4.71-.05.17-.09.34-.14.51,2.2.48,4.45.13,6.64-.23-.05-.17-.09-.34-.14-.51-1.34.49-2.68,1.06-3.43,2.35-.38.65-.61,1.38-.86,2.09-.3.85-.59,1.71-.88,2.57-.11.32.4.46.51.14" class="cls-3"/><path d="m415.09,152.27c2.14,1.55,4.83,1.71,7.38,1.83v-.53c-1.07.08-2.12-.09-3.17-.25-.48-.07-.96-.15-1.44-.19-.52-.05-1.08,0-1.57-.2l-.07.52c.2,0,.37.03.55.1.24.1.45-.28.26-.44-.27-.22-.56-.38-.9-.48-.28-.08-.48.35-.2.48.1.05.19.09.29.14.31.15.53-.25.27-.45-.56-.43-1.13-.87-1.53-1.46-.14.11-.28.21-.41.32.97,1,2.16,1.74,3.49,2.16.32.1.46-.41.14-.51-1.24-.39-2.35-1.08-3.26-2.02-.2-.21-.58.07-.41.32.46.67,1.08,1.16,1.72,1.65.09-.15.18-.3.27-.45-.1-.05-.19-.09-.29-.14-.07.16-.13.32-.2.48.25.07.47.18.67.34.09-.15.17-.29.26-.44-.23-.09-.45-.13-.69-.12-.31,0-.33.41-.07.52.45.19.94.16,1.42.2.58.04,1.16.13,1.73.22,1.05.16,2.1.32,3.17.24.34-.02.34-.51,0-.53-2.46-.12-5.05-.27-7.11-1.76-.27-.2-.54.26-.27.45" class="cls-3"/><path d="m430.62,168.67c-.2-.09-.4-.08-.59.02-.14.07-.24.19-.34.3-.21.25-.42.51-.53.83-.05.13.05.29.18.32.15.03.27-.05.32-.18.13-.3.25-.6.36-.91.12-.31.28-.64.21-.98-.03-.14-.19-.22-.32-.18-.14.04-.21.18-.18.32.01.05,0,.08-.01.14-.02.06-.04.12-.06.19-.05.14-.11.29-.16.43-.11.28-.22.56-.34.84.17.05.34.09.51.14.03-.07.09-.19.15-.27.07-.1.11-.16.19-.25.07-.09.14-.18.23-.25-.03.03.04-.02.04-.02,0,0,.02,0,.02-.01-.02,0-.02,0,0,0,.01,0,.03,0,.04-.01t0,0s.05.01.02,0c.13.06.28.04.36-.09.06-.11.04-.3-.09-.36" class="cls-3"/><path d="m458.37,267.65c-.61,8.02-3.13,15.88-7.28,22.76-1.04,1.72-2.19,3.39-3.65,4.77-1.73,1.64-3.85,2.8-5.93,3.95-1.59.88-3.25,1.77-5.06,1.93.13-1.82.34-3.67,1.02-5.37.68-1.7,1.88-3.25,3.55-4.01,2.02-.92,4.65-.69,6.11-2.35,1.22-1.39,1.1-3.57,2.27-5,.5-.61,1.21-1.03,1.79-1.58.69-.65,1.19-1.46,1.69-2.26,2.37-3.85,4.79-7.8,5.75-12.23" class="cls-7"/><path d="m458.02,267.65c-.43,5.35-1.67,10.62-3.71,15.59-2.05,4.99-4.76,10.38-9.36,13.46-1.21.81-2.49,1.51-3.76,2.21-1.5.82-3.03,1.61-4.75,1.8l.35.35c.22-2.9.69-6.12,3-8.16,1.97-1.74,4.77-1.26,6.86-2.69,2.11-1.46,1.63-4.38,3.4-6.06.47-.45,1.02-.8,1.49-1.26.51-.5.91-1.09,1.3-1.69.78-1.22,1.53-2.47,2.26-3.73,1.66-2.87,3.12-5.86,3.85-9.11.1-.44-.58-.63-.68-.19-.68,3.03-2,5.84-3.54,8.52-.75,1.31-1.54,2.6-2.34,3.88-.43.69-.87,1.37-1.47,1.92-.5.48-1.11.85-1.59,1.35-1.81,1.9-1.18,5.11-3.94,6.22-1.13.45-2.35.57-3.51.91-1.1.33-2.08.88-2.89,1.69-2.2,2.2-2.68,5.4-2.9,8.37-.01.17.17.37.35.35,2.73-.3,5.23-1.9,7.55-3.28,2.38-1.42,4.4-3.15,6.02-5.41,3.31-4.64,5.64-10.12,7.1-15.61.83-3.1,1.36-6.27,1.61-9.46.04-.45-.67-.45-.7,0" class="cls-7"/><path d="m460.48,188.17c1.73.99,3.06,2.57,4.02,4.32.95,1.75,1.55,3.67,2.03,5.6.32,1.26.59,2.54.67,3.84.06.9,0,1.86-.51,2.59-.26-1.49-.96-2.91-1.99-4.01-.53-.56-1.19-1.17-1.12-1.94.08-.85,1.06-1.5.89-2.33-.1-.45-.52-.77-.68-1.21-.25-.67.19-1.38.32-2.08.18-.96-.23-1.96-.86-2.71-.63-.75-1.46-1.29-2.29-1.83" class="cls-7"/><path d="m460.3,188.47c2.59,1.54,4.14,4.19,5.1,6.98.48,1.41.87,2.87,1.16,4.34.28,1.43.65,3.24-.18,4.55l.64.08c-.31-1.61-1.05-3.05-2.16-4.25-.73-.79-1.18-1.39-.56-2.42.3-.5.63-1.01.5-1.62-.06-.3-.25-.54-.42-.79-.39-.56-.31-1.03-.12-1.66.22-.73.32-1.41.1-2.15-.47-1.6-1.89-2.58-3.22-3.44-.38-.25-.73.36-.35.61,1.49.97,3.44,2.34,2.92,4.41-.17.66-.49,1.32-.26,2.01.1.3.31.51.47.78.29.5.19.85-.09,1.32-.65,1.08-.79,1.9.06,2.93.54.64,1.12,1.2,1.54,1.94.46.79.75,1.64.92,2.54.06.31.49.32.64.08.77-1.21.62-2.7.42-4.06-.26-1.82-.74-3.64-1.33-5.37-1.01-2.96-2.67-5.76-5.42-7.4-.39-.23-.74.37-.35.61" class="cls-7"/><path d="m389.54,176.99c-1.39,3.27-.65,7.34,1.8,9.91-.99-1.49-1.21-3.46-.57-5.13.08-.21.17-.43.13-.65-.03-.16-.14-.3-.24-.44-.75-1.01-1.15-2.26-1.15-3.52" class="cls-7"/><path d="m389.2,176.9c-1.42,3.43-.64,7.55,1.89,10.25.27.29.77-.09.55-.42-.95-1.48-1.11-3.22-.54-4.86.13-.37.22-.7.04-1.07-.17-.34-.44-.63-.62-.97-.44-.82-.65-1.73-.66-2.65,0-.45-.71-.45-.7,0,0,.87.18,1.72.53,2.52.17.39.38.76.62,1.11.19.26.27.49.16.8-.08.23-.16.45-.22.68-.41,1.63-.11,3.39.8,4.8.18-.14.37-.28.55-.42-2.38-2.53-3.04-6.37-1.71-9.57.17-.42-.5-.6-.68-.19" class="cls-7"/><path d="m407.29,189.44c1.03,1.26,1.99,2.58,2.87,3.95.24.38.85.03.61-.35-.92-1.42-1.91-2.78-2.98-4.09-.12-.15-.37-.12-.5,0-.14.14-.12.35,0,.5" class="cls-3"/><path d="m410.68,186.79c1.8.78,3.44,1.89,4.82,3.28.32.32.81-.17.5-.5-1.42-1.43-3.11-2.59-4.96-3.39-.18-.08-.37-.05-.48.13-.09.15-.05.4.13.48" class="cls-3"/><path d="m413.42,184.19c1.91.16,3.79.58,5.6,1.23.42.15.61-.52.19-.68-1.86-.67-3.81-1.09-5.78-1.26-.45-.04-.45.66,0,.7" class="cls-3"/><path d="m388.33,174.25c-.44-.12-.87-.25-1.3-.38-.21-.07-.41-.14-.62-.21-.11-.04-.22-.08-.33-.12-.05-.02-.09-.03-.14-.05-.03-.01-.06-.02-.09-.04-.07-.03-.06-.02.02.03.03.05.06.1.09.16,0,0,0-.01,0-.02-.01.09-.02.18-.04.27,0,0,0,0,0-.01-.1.06-.2.12-.3.17,0,0,.01,0,.02,0-.06-.02-.12-.03-.18-.05h.01c-.05-.13-.11-.26-.16-.39,0,0,0,0,0,.01-.03.19.05.38.24.43.17.05.4-.06.43-.24,0,0,0,0,0-.01.02-.15-.01-.32-.16-.4-.19-.09-.4-.05-.52.13-.12.19,0,.43.17.53.14.08.31.12.46.18.15.05.3.11.45.16.58.2,1.16.38,1.76.54.44.12.62-.56.19-.68" class="cls-3"/><path d="m386.51,178.95c-.82.1-1.64.2-2.47.31-.19.02-.35.14-.35.35,0,.17.16.37.35.35.82-.1,1.64-.2,2.47-.31.19-.02.35-.14.35-.35,0-.17-.16-.37-.35-.35" class="cls-3"/><path d="m386.48,182.86c-.57.33-1.15.65-1.72.98-.16.09-.23.32-.13.48.1.16.31.22.48.13.57-.33,1.15-.65,1.72-.98.16-.09.23-.32.13-.48-.1-.16-.31-.22-.48-.13" class="cls-3"/></g><polygon points="63.89 251.92 63.67 258.98 60.93 261.39 102.59 271.09 99.5 249.55 63.89 251.92" class="cls-8"/><polygon points="63.89 251.92 63.67 258.98 60.93 261.39 102.59 271.09 99.5 249.55 63.89 251.92" class="cls-16"/><path d="m130.38,269.19c.49,1.52.87,2.42,1.12,2.47,1.79.32,3.36-1.63,3.36-1.63.93.63,1.88-.3,1.88-.3.31-.31.46-1.24.47-2.59-2.03,1.09-4.42,1.49-6.83,2.05" class="cls-3"/><path d="m130.38,269.19c.49,1.52.87,2.42,1.12,2.47,1.79.32,3.36-1.63,3.36-1.63.93.63,1.88-.3,1.88-.3.31-.31.46-1.24.47-2.59-2.03,1.09-4.42,1.49-6.83,2.05Z" class="cls-16"/><path d="m121.54,227.09c-.26-.77-.89-1.36-1.68-1.58l-10.76-2.95s-7.18-1.72-10.62,5.93c-3.44,7.65-1.17,18.11-1.17,18.11,0,0,2.65,15.69,13.74,25.37,0,0,2.65,2.79,10.24,2.46,1.02-.04,2.04-.21,3.02-.49l7.51-2.13s1.8-1.33,1.25-3.51c-.55-2.19-6.01-26.94-6.01-26.94l-2.58-3.12s-1.33-2.03-1.87-6.25c-.3-2.29-.73-3.91-1.07-4.92" class="cls-7"/><path d="m121.54,227.09c-.26-.77-.89-1.36-1.68-1.58l-10.76-2.95s-7.18-1.72-10.62,5.93c-3.44,7.65-1.17,18.11-1.17,18.11,0,0,2.65,15.69,13.74,25.37,0,0,2.65,2.79,10.24,2.46,1.02-.04,2.04-.21,3.02-.49l7.51-2.13s1.8-1.33,1.25-3.51c-.55-2.19-6.01-26.94-6.01-26.94l-2.58-3.12s-1.33-2.03-1.87-6.25c-.3-2.29-.73-3.91-1.07-4.92Z" class="cls-16"/><polygon points="38.2 314.92 38 322.39 42.12 333.78 42.49 336.55 44.99 337.17 43.85 316.7 38.2 314.92" class="cls-8"/><polygon points="38.2 314.92 38 322.39 42.12 333.78 42.49 336.55 44.99 337.17 43.85 316.7 38.2 314.92" class="cls-16"/><line x1="42.8" x2="44.52" y1="324.69" y2="329.23" class="cls-16"/><path d="m42.23,333.46s1.41.37,1.62,3.34" class="cls-16"/><path d="m38.35,316.84c1.88,1.05,4,1.66,6.15,1.77.09,0,.19,0,.25-.05.06-.05.08-.15.09-.23.06-.46.11-.92.13-1.38,0-.15.01-.3-.05-.44-.1-.23-.36-.34-.6-.42-.88-.29-1.79-.45-2.71-.6-1.19-.2-2.2-.42-3.39-.62,0,.49.03,1,.09,1.49.03.25.01.56.25.49" class="cls-3"/><path d="m38.23,317.05c.96.53,1.98.96,3.03,1.26.56.16,1.12.29,1.69.38.52.08,1.07.18,1.59.17.5-.01.53-.43.58-.84.06-.47.22-1.15.02-1.6-.19-.43-.71-.55-1.12-.67-.57-.16-1.14-.28-1.72-.38-1.34-.24-2.67-.5-4.01-.73-.15-.03-.31.06-.31.23,0,.56.05,1.11.11,1.66.04.34.15.61.54.55.31-.04.18-.51-.13-.47.09.04.12,0,.07-.09,0-.06-.01-.11-.02-.17-.02-.16-.04-.33-.05-.49-.03-.33-.04-.66-.04-1-.1.08-.2.16-.3.23,1.26.21,2.51.47,3.76.68.62.11,1.24.22,1.85.39.26.07.62.13.82.31.24.21.12.68.1.96-.01.17-.03.33-.05.5,0,.08,0,.33-.05.4-.06.07-.37,0-.46,0-.16-.01-.32-.03-.48-.05-.61-.07-1.22-.18-1.82-.33-1.18-.3-2.31-.75-3.38-1.33-.27-.15-.52.27-.24.42" class="cls-3"/><path d="m36.12,308.29l.09,4.96c.01.66.31,1.29.83,1.69,1.12.87,3.4,2.14,6.81,1.76l-.26-5.48-7.47-2.92Z" class="cls-4"/><path d="m36.12,308.29l.09,4.96c.01.66.31,1.29.83,1.69,1.12.87,3.4,2.14,6.81,1.76l-.26-5.48-7.47-2.92Z" class="cls-16"/><path d="m63.52,255.08c5.47,1.36,11.09,2.21,16.73,2.18,5.64-.03,11.3-.95,16.54-3.03.38-.15.83-.56.56-.87-.16-.19-.45-.14-.69-.08-.91.21-1.85.28-2.78.35-6.97.51-13.99,1.03-20.94.28-2.82-.3-5.62-.82-8.4-1.4-.22-.05-.45-.09-.67-.04-.41.09-.68.51-.74.93-.06.42.05.84.16,1.24" class="cls-3"/><path d="m63.45,255.31c9.68,2.38,19.96,3.2,29.65.42,1.18-.34,2.35-.73,3.5-1.18.45-.18,1.26-.57,1.03-1.19-.29-.77-1.71-.19-2.23-.13-1.25.15-2.51.21-3.76.3-5.25.38-10.52.68-15.78.36-2.97-.18-5.91-.59-8.83-1.15-.72-.14-1.44-.28-2.16-.43-.42-.09-.89-.22-1.29-.02-.9.45-.73,1.6-.52,2.39.08.3.54.17.47-.13-.16-.61-.44-1.79.57-1.89.52-.05,1.22.23,1.73.33,1.17.23,2.34.45,3.51.64,2.16.35,4.34.6,6.52.73,4.61.28,9.23.08,13.83-.22,2.09-.14,4.22-.19,6.28-.51.18-.03.58-.18.75-.14.86.19-.03.5-.25.59-.49.2-.99.37-1.49.55-1.08.37-2.18.7-3.29.98-4.27,1.08-8.69,1.5-13.09,1.39-5.08-.12-10.11-.94-15.03-2.15-.3-.07-.43.39-.13.47" class="cls-3"/><path d="m129.69,268.96c-1.77.64-3.7.69-5.59.72-.89.02-1.79.03-2.68.05-1.76.03-3.53.06-5.25-.32-.86-.2-1.71-.5-2.6-.55-.82-.05-1.64.13-2.4.42-.27.1-.56.24-.7.5-.12.23-.1.5-.05.76.1.54.4,1.15,1.03,1.73-1.21-1-1.32-1.21-1.89-1.75-.8-.75-1.03-1.03-1.52-1.66.67-.33.59-.72,1.11-1.25,1.45-1.45,3.65-1.83,5.7-1.88.5-.01,1.01-.01,1.51.06.58.09,1.15.27,1.71.46,2.95,1.01,5.88,2.2,8.97,2.58.84.1,1.69.14,2.54.12" class="cls-3"/><path d="m129.63,268.73c-2.12.74-4.38.69-6.6.73-2.21.04-4.49.21-6.66-.26-1.88-.4-3.63-.97-5.48-.07-1.46.71-.44,2.5.39,3.3.11-.11.23-.23.34-.34-1.22-1.03-2.44-2.15-3.42-3.42-.02.13-.03.25-.05.38.67-.38.9-1.1,1.48-1.58.69-.58,1.54-.94,2.41-1.17,1.91-.5,3.96-.51,5.83.12,3.84,1.29,7.58,2.82,11.7,2.75.31,0,.31-.49,0-.48-2.18.04-4.3-.35-6.38-.97-2.07-.62-4.07-1.53-6.16-2.06-1.65-.41-3.6-.24-5.22.2-.79.21-1.55.54-2.21,1.02-.29.21-.57.45-.8.73-.3.38-.45.76-.89,1.02-.15.08-.14.26-.05.38.98,1.26,2.19,2.39,3.42,3.42.23.2.57-.12.34-.34-.59-.57-1.58-1.9-.52-2.52.76-.45,1.89-.54,2.74-.45.95.1,1.85.45,2.79.62.84.15,1.7.21,2.55.24,1.81.05,3.63-.03,5.44-.07,1.74-.04,3.48-.15,5.14-.72.29-.1.17-.57-.13-.47" class="cls-3"/><path d="m113.8,267.24s9.58,6.11,25.41-1.11c15.83-7.22,9.86-29.02,9.86-29.02,0,0-3.75-12.36-17.08-24.44l-4.72-4.72s.14-1.53-4.86-2.78c0,0,.69-1.11-2.36-1.81l-8.19-6.94s-3.33-3.38-14.03-3.33c-8.38.04-8.61-.42-8.61-.42l-1.31-1.55c-.67-.79-1.62-1.29-2.65-1.4l-2.42-.25-10.84,2.16s-2.38.44-4.29,1.33c-1.12.52-1.95,1.52-2.31,2.71l-.87,2.93-7.22,5.84-3.6,3.12c-1.55,1.34-2.78,3.01-3.6,4.88-.9,2.05-2.03,4.79-2.65,6.85-1.13,3.75-2.5,8.13-2.5,8.13l-.76.77c-.71.73-1.08,1.73-1.02,2.75l.11,1.65-4.51,13.6s-4.68,9.78-6.43,20.41c-1.75,10.63-.35,16.99-.35,16.99v12.24s-.14,8.67,4.89,12.93c5.03,4.26,8.46,3.36,8.46,3.36l15.25-54.88,3.47-3.19s14.72,4.03,31.8-.83l2.22-.77,10.22,15.16,1.56,1.08,1.32-.73,2.59-.71Z" class="cls-4"/><path d="m113.8,267.24s9.58,6.11,25.41-1.11c15.83-7.22,9.86-29.02,9.86-29.02,0,0-3.75-12.36-17.08-24.44l-4.72-4.72s.14-1.53-4.86-2.78c0,0,.69-1.11-2.36-1.81l-8.19-6.94s-3.33-3.38-14.03-3.33c-8.38.04-8.61-.42-8.61-.42l-1.31-1.55c-.67-.79-1.62-1.29-2.65-1.4l-2.42-.25-10.84,2.16s-2.38.44-4.29,1.33c-1.12.52-1.95,1.52-2.31,2.71l-.87,2.93-7.22,5.84-3.6,3.12c-1.55,1.34-2.78,3.01-3.6,4.88-.9,2.05-2.03,4.79-2.65,6.85-1.13,3.75-2.5,8.13-2.5,8.13l-.76.77c-.71.73-1.08,1.73-1.02,2.75l.11,1.65-4.51,13.6s-4.68,9.78-6.43,20.41c-1.75,10.63-.35,16.99-.35,16.99v12.24s-.14,8.67,4.89,12.93c5.03,4.26,8.46,3.36,8.46,3.36l15.25-54.88,3.47-3.19s14.72,4.03,31.8-.83l2.22-.77,10.22,15.16,1.56,1.08,1.32-.73,2.59-.71Z" class="cls-16"/><path d="m60.52,260.72s31.79,2.63,42.93,7.26c0,0,1.88,3.13,3,14.77l5.76,13.39s5.63,12.01,6.13,17.65c.5,5.63,5.38,17.52,5.38,17.52l15.02,39.92s1.75,5.13,4.38,8.13c2.63,3,5.76,7.88,5.88,14.02l.63,4.38s2.38,2.88,4.38,7.01c2,4.13,6.38,11.26,6.38,11.26,0,0,4,9.01,1.75,14.64-2.25,5.63-5.01,10.39-5.01,10.39,0,0-3.88,5.38-8.51,5.88,0,0-12.52,5.38-21.15-1.75,0,0-4.26-1-2.88-11.26l.75-6.38-4.51-11.01s-3.5-6.38-6.01-15.77c-2.5-9.39-5.88-21.28-5.88-21.28l-3.88-10.01s-3.25-2.75-7.38-13.14c-4.13-10.39-8.51-20.52-8.51-20.52l-9.51-20.65-5.76-13.14,3.63,43.55,1.13,14.14s3.13,14.27,2.38,20.27c-.75,6.01-.88,17.52-.88,17.52,0,0,9.64,26.41,6.76,34.67-2.88,8.26-8.76,13.77-8.76,13.77,0,0-13.77,9.76-23.65,3.13,0,0-6.01-5.51-3.75-17.9l.5-4s-3.75-5.13-2.75-12.89c1-7.76-1.63-20.27-1.63-20.27,0,0-4.13-9.39-1.5-12.89,2.63-3.5,3.75-13.02,3.75-13.02l-3.38-22.4s-2.88-29.91-2-45.93c.88-16.02,3.38-21.02,3.38-21.02,0,0,6.63-13.14,13.02-16.52l.38-1.5Z" class="cls-6"/><path d="m60.52,260.72s31.79,2.63,42.93,7.26c0,0,1.88,3.13,3,14.77l5.76,13.39s5.63,12.01,6.13,17.65c.5,5.63,5.38,17.52,5.38,17.52l15.02,39.92s1.75,5.13,4.38,8.13c2.63,3,5.76,7.88,5.88,14.02l.63,4.38s2.38,2.88,4.38,7.01c2,4.13,6.38,11.26,6.38,11.26,0,0,4,9.01,1.75,14.64-2.25,5.63-5.01,10.39-5.01,10.39,0,0-3.88,5.38-8.51,5.88,0,0-12.51,5.38-21.15-1.75,0,0-4.26-1-2.88-11.26l.75-6.38-4.51-11.01s-3.5-6.38-6.01-15.77c-2.5-9.39-5.88-21.28-5.88-21.28l-3.88-10.01s-3.25-2.75-7.38-13.14c-4.13-10.39-8.51-20.52-8.51-20.52l-9.51-20.65-5.76-13.14,3.63,43.55,1.13,14.14s3.13,14.27,2.38,20.27c-.75,6.01-.88,17.52-.88,17.52,0,0,9.64,26.41,6.76,34.67-2.88,8.26-8.76,13.77-8.76,13.77,0,0-13.77,9.76-23.65,3.13,0,0-6.01-5.51-3.75-17.9l.5-4s-3.75-5.13-2.75-12.89c1-7.76-1.63-20.27-1.63-20.27,0,0-4.13-9.39-1.5-12.89,2.63-3.5,3.75-13.02,3.75-13.02l-3.38-22.4s-2.88-29.91-2-45.93c.88-16.02,3.38-21.02,3.38-21.02,0,0,6.63-13.14,13.02-16.52l.38-1.5Z" class="cls-16"/><line x1="80.6" x2="82.11" y1="259.39" y2="260.93" class="cls-16"/><line x1="81.74" x2="80.79" y1="259.34" y2="260.93" class="cls-16"/><path d="m58.53,285.42c1.22,1.73,2.8,3.17,4.37,4.59l3.37,3.05c.65.59,1.31,1.19,2.03,1.7.75.54,1.56,1,2.41,1.35-.52-1.08-1.34-1.98-2.14-2.86-1.86-2.04-3.74-4.07-5.61-6.1.7.87,1.29,1.83,1.75,2.85.09.19.15.45-.01.57-.14.11-.34.03-.5-.05-.54-.29-1.06-.62-1.54-1.01" class="cls-3"/><path d="m58.32,285.54c1.6,2.23,3.72,4.01,5.74,5.84,2.03,1.84,3.97,3.84,6.53,4.94.22.09.45-.1.33-.33-.85-1.68-2.28-3.02-3.54-4.39-1.41-1.54-2.83-3.08-4.25-4.62-.22-.23-.53.1-.34.34.55.7,1.03,1.45,1.44,2.24.07.13.34.55.31.66-.08.24-.48-.05-.57-.1-.4-.23-.77-.49-1.13-.77-.24-.19-.59.15-.34.34.4.31,2.28,1.91,2.53.77.12-.53-.44-1.27-.68-1.7-.36-.63-.77-1.21-1.22-1.78l-.34.34c1.37,1.48,2.73,2.96,4.09,4.44,1.28,1.4,2.76,2.76,3.62,4.47l.33-.33c-2.52-1.08-4.43-3.05-6.43-4.86-1.99-1.8-4.09-3.55-5.66-5.74-.18-.25-.6,0-.42.24" class="cls-3"/><path d="m77.82,310.83c-.48-1.64-.96-3.31-.96-5.03,0-1.71.55-3.5,1.83-4.63.81-.71,1.83-1.11,2.83-1.5,2.41-.93,4.81-1.86,7.22-2.79-2.73.88-5.49,1.76-8.35,2-.42.03-1.01-.12-.95-.53.02-.16.15-.28.27-.39,3.94-3.47,9.03-5.29,13.47-8.1-5.32,2.75-10.6,5.59-15.83,8.53.28.12.56.24.84.36-.6.71-1.35,1.34-2.26,1.56-.9.23-1.96-.02-2.52-.76-.21-.28-.34-.6-.56-.87-.42-.51-1.08-.73-1.69-.98-1.82-.73-3.44-1.87-5.05-3-2.83-1.99-5.66-3.98-8.5-5.97,3.04,2.96,6.08,5.93,9.11,8.89,2.27,2.21,4.68,4.7,4.98,7.86.15,1.6-.26,3.24.1,4.81.28,1.22,1.01,2.29,1.33,3.49.33,1.22.23,2.51.26,3.78.07,2.94.89,5.85,2.36,8.39l-1.86-23.93,3.91,8.81Z" class="cls-3"/><path d="m78.05,310.77c-.88-3.03-1.94-7.22.96-9.55,1.31-1.05,3.09-1.51,4.63-2.11,1.72-.66,3.44-1.33,5.16-1.99.28-.11.17-.56-.13-.47-2.13.68-4.27,1.37-6.48,1.75-.59.1-1.2.23-1.8.23-.2,0-.75.03-.62-.4.03-.11.41-.36.49-.43.81-.68,1.68-1.3,2.58-1.88,3.37-2.17,7.08-3.73,10.47-5.87.26-.17.03-.56-.24-.42-5.32,2.75-10.6,5.6-15.83,8.53-.14.08-.17.34,0,.42.28.12.56.24.84.36-.02-.13-.03-.25-.05-.38-.62.71-1.38,1.39-2.35,1.54-.52.09-1.09,0-1.55-.26-.46-.27-.65-.71-.94-1.13-.42-.62-1.08-.9-1.75-1.17-1-.41-1.95-.9-2.86-1.47-1.83-1.14-3.56-2.44-5.32-3.68-1.84-1.29-3.67-2.58-5.51-3.87-.23-.16-.49.19-.29.38,2.23,2.17,4.46,4.35,6.68,6.52,1.98,1.93,4.17,3.79,5.75,6.08.72,1.05,1.3,2.22,1.52,3.48.26,1.5-.09,3.01.04,4.51.12,1.33.76,2.42,1.23,3.64.55,1.44.45,2.92.48,4.42.08,2.99.92,5.91,2.4,8.51.11.2.47.12.45-.12-.54-6.98-1.08-13.96-1.63-20.93l-.23-3c-.15.04-.3.08-.45.12l3.91,8.81c.13.28.54.04.42-.24-1.3-2.94-2.61-5.87-3.91-8.81-.1-.22-.47-.11-.45.12.54,6.98,1.08,13.96,1.63,20.93l.23,3c.15-.04.3-.08.45-.12-1.46-2.56-2.28-5.44-2.33-8.4-.03-1.32.07-2.67-.33-3.95-.45-1.45-1.3-2.69-1.39-4.25-.08-1.39.2-2.77,0-4.15-.17-1.16-.63-2.26-1.24-3.25-1.35-2.21-3.34-3.97-5.18-5.76-2.57-2.5-5.13-5-7.7-7.51-.1.13-.19.25-.29.38,2.07,1.45,4.13,2.9,6.2,4.36,1.87,1.32,3.72,2.74,5.73,3.84.9.49,1.97.76,2.82,1.32.77.51.93,1.48,1.81,1.91,1.61.78,3.26-.24,4.31-1.45.09-.1.1-.31-.05-.38-.28-.12-.56-.24-.84-.36v.42c5.23-2.93,10.51-5.77,15.83-8.53-.08-.14-.16-.28-.24-.42-4.04,2.55-8.57,4.28-12.37,7.2-.44.34-1.66.99-1.48,1.71.2.79,1.45.55,1.98.48,2.61-.32,5.12-1.12,7.61-1.92-.04-.16-.09-.31-.13-.47-1.98.76-3.95,1.53-5.93,2.29-1.53.59-3.28,1.08-4.46,2.28-2.57,2.61-1.6,6.58-.7,9.67.09.3.55.17.47-.13" class="cls-3"/><path d="m106.45,282.75l.02,13.98s.27-9.52,2.26-8.53l-2.28-5.45Z" class="cls-3"/><path d="m106.45,282.75l.02,13.98s.27-9.52,2.26-8.53l-2.28-5.45Z" class="cls-16"/><path d="m32.02,283.6l6.51,21.07-4.25-9.09s-1.14-2.27-2.08-2.07l-.18-9.91Z" class="cls-3"/><path d="m32.02,283.6l6.51,21.07-4.25-9.09s-1.14-2.27-2.08-2.07l-.18-9.91Z" class="cls-16"/><path d="m94.64,215.54c-3.68,2.98-8.24,4.73-12.9,5.57-4.66.83-9.44.79-14.16.48,4.11,1.4,8.58,1.39,12.89.85,2.67-.34,5.33-.88,7.81-1.93,2.48-1.05,4.77-2.63,6.38-4.78" class="cls-3"/><path d="m94.47,215.37c-7.55,6.05-17.64,6.57-26.9,5.97-.28-.02-.31.39-.06.47,4.88,1.63,10.2,1.41,15.21.51,4.62-.83,9.22-2.67,12.15-6.5.19-.25-.23-.49-.42-.24-2.91,3.8-7.55,5.53-12.12,6.32-4.85.83-9.98,1.01-14.69-.56-.02.16-.04.32-.06.47,9.4.61,19.58.03,27.24-6.12.24-.19-.1-.53-.34-.34" class="cls-3"/><path d="m92.44,211.7c-3.45.08-6.73,1.62-9.5,3.68-2.3,1.72-4.33,3.82-5.85,6.26-1.51,2.44-2.5,5.22-2.73,8.09-.54-1.11-.26-2.44.11-3.62.93-2.94,2.34-5.72,4.17-8.2.94-1.28,2.01-2.49,3.32-3.39.88-.61,1.86-1.06,2.84-1.48,2.48-1.08,5.23-2.04,7.85-1.37" class="cls-3"/><path d="m92.44,211.46c-4.67.15-8.95,2.73-12.22,5.92-3.37,3.3-5.69,7.61-6.1,12.34.15-.04.3-.08.45-.12-.52-1.2-.17-2.49.21-3.68.35-1.09.78-2.15,1.26-3.19.99-2.1,2.22-4.12,3.73-5.88,1.55-1.8,3.43-2.9,5.6-3.81,2.28-.96,4.75-1.74,7.22-1.16.3.07.43-.4.13-.47-2.58-.6-5.13.18-7.51,1.17-2.32.98-4.3,2.15-5.93,4.1-1.62,1.94-2.95,4.16-3.96,6.48-.86,1.96-2.1,4.55-1.17,6.67.11.24.43.09.45-.12.4-4.6,2.69-8.8,5.96-12,3.17-3.1,7.34-5.64,11.88-5.78.31,0,.31-.49,0-.48" class="cls-3"/><path d="m64.62,218.35c2.08.21,3.98,1.45,5.21,3.14,1.23,1.69,1.82,3.79,1.91,5.88.52-1.43.67-3.02.28-4.5-.39-1.48-1.33-2.82-2.65-3.59-1.37-.79-3.01-.93-4.58-1.04" class="cls-3"/><path d="m64.62,218.59c1.93.22,3.67,1.31,4.85,2.82,1.32,1.69,1.93,3.83,2.03,5.95.01.28.38.32.47.06.81-2.3.68-4.94-.85-6.91-1.55-2.01-3.97-2.35-6.34-2.52-.31-.02-.31.46,0,.48,2.24.16,4.56.47,6.01,2.39,1.4,1.86,1.47,4.3.72,6.43.16.02.32.04.47.06-.11-2.26-.76-4.53-2.19-6.32-1.28-1.6-3.13-2.71-5.17-2.93-.31-.03-.31.45,0,.48" class="cls-3"/><path d="m72.79,212.5c-.37,2.72.14,5.56,1.44,7.98.76,1.41,1.77,2.68,2.87,3.84,1.78,1.86,3.95,3.54,6.51,3.86-4.26-2.22-7.28-6.29-9.43-10.59-.84-1.67-1.58-3.49-1.34-5.34" class="cls-3"/><path d="m72.54,212.5c-.46,3.69.61,7.31,2.88,10.24,2.01,2.6,4.74,5.19,8.12,5.67.25.03.45-.3.19-.44-2.83-1.5-5.12-3.79-6.93-6.4-.86-1.24-1.63-2.55-2.31-3.9-.86-1.69-1.62-3.48-1.4-5.42.03-.31-.45-.31-.48,0-.2,1.81.42,3.52,1.2,5.12.75,1.54,1.61,3.04,2.58,4.44,1.86,2.68,4.2,5.04,7.11,6.58.06-.15.12-.29.19-.44-3.28-.46-5.92-2.98-7.87-5.5-2.2-2.86-3.22-6.36-2.77-9.95.04-.31-.44-.3-.48,0" class="cls-3"/><path d="m95.28,210.62c-.86.51-1.51,1.32-2.08,2.14-.67.96-1.3,1.98-1.65,3.1-.36,1.12-.43,2.36-.01,3.46.41,1.1,1.36,2.03,2.52,2.24-.81-.58-1.28-1.54-1.44-2.52-.16-.98-.05-1.98.11-2.96.33-2.02.94-4.15,2.55-5.41" class="cls-3"/><path d="m95.16,210.42c-1.01.63-1.73,1.57-2.39,2.55-.74,1.09-1.4,2.29-1.65,3.59-.41,2.17.49,4.73,2.86,5.24.28.06.4-.28.19-.44-1.8-1.36-1.48-3.93-1.1-5.87.34-1.74.95-3.49,2.37-4.65.24-.2-.1-.54-.34-.34-1.61,1.31-2.25,3.37-2.59,5.35-.35,2.08-.45,4.51,1.41,5.92.06-.15.12-.29.19-.44-2.36-.51-2.97-3.17-2.39-5.22.3-1.05.85-2.01,1.46-2.91.61-.9,1.28-1.79,2.22-2.38.26-.16.02-.58-.24-.42" class="cls-3"/><path d="m85.51,227.45c1.81-2.49,2.63-5.6,2.68-8.67.05-3.07-.63-6.12-1.61-9.03,1.51,5.91,1.02,12.31-1.37,17.92" class="cls-3"/><path d="m85.72,227.58c3.76-5.28,3.04-12.07,1.09-17.89-.1-.29-.54-.18-.47.13,1.48,5.91.99,12.18-1.37,17.79-.12.29.35.41.47.13,2.4-5.69,2.87-12.06,1.37-18.04-.16.04-.31.09-.47.13,1.91,5.71,2.64,12.34-1.05,17.52-.18.25.24.49.42.24" class="cls-3"/><path d="m69.26,215.52c1.16-.32,2.37-.37,3.58-.37,3.75.03,7.51.65,10.97,2.09,3.46,1.44,6.6,3.72,8.83,6.73-6.6-5.26-14.93-8.3-23.37-8.53" class="cls-3"/><path d="m69.32,215.75c2.13-.55,4.47-.41,6.64-.19,2.27.23,4.53.71,6.68,1.49,3.83,1.39,7.32,3.77,9.78,7.05.13-.1.25-.19.38-.29-6.69-5.3-15-8.34-23.54-8.6-.31,0-.31.47,0,.48,8.4.25,16.61,3.24,23.2,8.46.19.15.56-.05.38-.29-2.49-3.31-5.96-5.73-9.82-7.18-2.18-.82-4.47-1.32-6.79-1.57-2.3-.25-4.77-.41-7.03.18-.3.08-.17.54.13.47" class="cls-3"/><path d="m83.98,224.16c-.22-2.52.26-5.14,1.62-7.27,1.36-2.13,3.64-3.72,6.16-3.97-4.16,2.34-7.16,6.63-7.93,11.34" class="cls-3"/><path d="m84.22,224.16c-.2-2.53.26-5.15,1.68-7.29,1.32-1.99,3.47-3.44,5.85-3.7l-.12-.45c-4.22,2.4-7.23,6.69-8.04,11.48-.05.3.41.43.47.13.79-4.68,3.7-8.85,7.82-11.2.2-.11.12-.48-.12-.45-2.46.27-4.64,1.67-6.07,3.66-1.62,2.24-2.16,5.1-1.94,7.82.02.31.51.31.48,0" class="cls-3"/><path d="m70.05,217.5c.59-.33,1.29-.39,1.96-.4,3.95-.01,7.84,2.17,9.9,5.55.5.83.91,1.75.96,2.72-1.26-1.87-2.8-3.54-4.56-4.94-.99-.79-2.06-1.5-3.25-1.96-.7-.27-1.43-.45-2.16-.59-.94-.18-1.9-.31-2.86-.39" class="cls-3"/><path d="m70.17,217.71c1.2-.6,2.82-.4,4.09-.13,1.25.26,2.45.73,3.54,1.38,2.21,1.31,4.61,3.72,4.83,6.41.15-.04.3-.08.45-.12-1.48-2.17-3.31-4.11-5.45-5.64-2.26-1.61-4.86-2.15-7.58-2.36-.31-.03-.31.46,0,.48,2.64.21,5.15.74,7.34,2.3,2.07,1.47,3.85,3.37,5.28,5.47.12.18.47.14.45-.12-.23-2.88-2.69-5.42-5.07-6.83-1.24-.74-2.62-1.26-4.04-1.51-1.32-.23-2.85-.37-4.08.25-.28.14-.03.56.24.42" class="cls-3"/><path d="m57.55,224.19s-.64,9.64.43,12.83c1.06,3.19,6.16,8.93,6.16,8.93" class="cls-16"/><polyline points="58.69 238.57 61.95 247.22 60.88 252.32 64.09 254.05" class="cls-16"/><path d="m99.98,226.33c-3.76,5.21-5.59,11.81-4.78,18.18.08.64.18,1.31-.03,1.92-.11.32-.31.61-.48.91-.51.91-.75,1.97-.7,3.01.05.93.33,1.86.2,2.79-.01.09-.03.19.03.26.04.05.1.07.15.1,1.54.59,3.24.75,4.86.46.12-.02.24-.05.33-.13.09-.08.13-.2.16-.32.18-.61.36-1.22.54-1.83-2.47-3.73-3.86-8.17-3.96-12.64-.09-4.47,1.56-8.73,3.88-12.56" class="cls-3"/><path d="m99.78,226.2c-2.42,3.38-4.06,7.3-4.7,11.42-.31,2-.39,4.03-.21,6.05.05.52.14,1.04.17,1.57.05.79-.19,1.3-.55,1.98-.44.82-.7,1.72-.74,2.65-.01.44.03.87.09,1.31.09.68.1,1.29.11,1.96.02.74,1,.83,1.6.96,1.04.23,2.11.29,3.17.17.31-.04.74-.04.99-.25.29-.25.34-.75.44-1.1.1-.34.41-.92.35-1.27-.06-.39-.54-.9-.75-1.25-.57-.98-1.08-2.01-1.5-3.07-.84-2.09-1.39-4.31-1.6-6.55-.49-5.09,1.15-9.85,3.75-14.17.16-.27-.26-.51-.42-.24-2.01,3.34-3.56,7.03-3.86,10.95-.3,3.9.59,7.93,2.24,11.46.39.83.82,1.63,1.3,2.4.36.58.26.85.07,1.49-.06.21-.11.6-.23.78-.28.41-.85.36-1.29.39-1.05.06-2.29,0-3.27-.41l-.25-.08c-.24-.09-.31-.24-.22-.46-.04-.23,0-.52-.02-.76-.04-.51-.15-1.01-.19-1.52-.09-1.1.12-2.17.65-3.14.21-.39.46-.75.57-1.2.12-.5.06-1.01,0-1.51-.22-1.92-.29-3.83-.09-5.76.46-4.52,2.18-8.86,4.81-12.55.18-.25-.24-.49-.42-.24" class="cls-3"/><path d="m104.66,252.58s-2.03-1.61-4.07-1.55l-2.21-1.02-2.33-1.91-1.26,1.02,1.37,2.99,1.79,1.26-5.74,5.62,1.02,3.23,1.26.06-1.67,3.35,2.75,1.38,1.2-.24,2.15.84-.18.42,1.38,1.32,6.34.36,3.71-2.21s.6-11.06-5.5-14.89" class="cls-8"/><path d="m104.66,252.58s-2.03-1.61-4.07-1.55l-2.21-1.02-2.33-1.91-1.26,1.02,1.37,2.99,1.79,1.26-5.74,5.62,1.02,3.23,1.26.06-1.67,3.35,2.75,1.38,1.2-.24,2.15.84-.18.42,1.38,1.32,6.34.36,3.71-2.21s.6-11.06-5.5-14.89Z" class="cls-16"/><line x1="97.96" x2="99.64" y1="253.35" y2="254.01" class="cls-16"/><path d="m99.28,255.68l-.72-2.03s-.42,2.33-1.79,2.93c0,0,1.79-.96,2.51-.9" class="cls-3"/><path d="m99.28,255.68l-.72-2.03s-.42,2.33-1.79,2.93c0,0,1.79-.96,2.51-.9Z" class="cls-16"/><path d="m98.74,260.59s-1.14,1.43-4.25,1.67" class="cls-16"/><polyline points="96.29 261.96 94.67 263.88 95.09 262.26" class="cls-3"/><polyline points="96.29 261.96 94.67 263.88 95.09 262.26" class="cls-16"/><line x1="96.77" x2="99.22" y1="266.75" y2="265.55" class="cls-16"/><line x1="98.92" x2="101.25" y1="267.58" y2="267.76" class="cls-16"/><path d="m103.4,251.56l1.85-.12.6.42,1.61-.18s1.73-6.7,5.68-7.53c3.95-.84,5.56.24,9.98-1.26l2.74-1.75c.9-.58,1.96-.86,3.03-.8l2,.1,10.52-3.77" class="cls-16"/><path d="m48.78,275.65c-.07-1.57.42-3.1,1-4.56,1.1-2.79,2.49-5.47,4.15-7.97.95-1.43,2.02-2.89,2.23-4.59.11-.89-.03-1.79.04-2.68.08-1.07.45-2.11.98-3.04.29-.51.62-1.01.78-1.58.18-.63.12-1.31.07-1.96-.33-3.77-.66-7.58-1.66-11.23-.28-1.02-.62-2.04-1.19-2.93-.58-.92-1.38-1.67-2.21-2.37-1.37-1.16-2.82-2.22-4.35-3.15,0,0,6.16,4.04,7.1,3.09s-3.76-7.16-3.76-7.16c0,0,3.33,4.49,4.2,3.11.87-1.37,1.45-6.66,1.45-6.66,0,0-.77,10.93.38,15.05,1.16,4.12,3.97,10.2,3.97,10.2l-1.06,5.1,2.86,1.62-.08,5.04-14.88,16.67Z" class="cls-3"/><path d="m49.03,275.65c-.05-1.83.59-3.55,1.28-5.21.68-1.64,1.47-3.24,2.35-4.79.84-1.47,1.85-2.83,2.71-4.29.8-1.38,1.11-2.71,1.08-4.3-.02-.89.02-1.74.28-2.6.28-.91.81-1.67,1.22-2.53.69-1.44.29-3.17.15-4.69-.32-3.49-.68-7.12-1.85-10.44-1.2-3.4-4.56-5.62-7.5-7.43-.27-.16-.5.25-.24.42.82.53,1.66,1.04,2.51,1.52,1.19.67,2.52,1.49,3.89,1.71,2.76.46-.3-4.1-.76-4.82-.62-.96-1.28-1.9-1.96-2.81-.18-.24-.6,0-.42.24.59.8,1.24,1.57,1.95,2.26.51.5,1.68,1.69,2.47,1.06.39-.31.55-.99.68-1.44.22-.75.37-1.51.51-2.28.19-1.08.35-2.18.48-3.27h-.48c-.29,4.05-.44,8.2-.07,12.25.24,2.66,1.13,5.12,2.11,7.6.51,1.31,1.06,2.6,1.62,3.89.17.39.34.77.51,1.16.05.11.09.26.16.36.11.15,0,.14.03-.04-.37,1.69-.71,3.39-1.06,5.08-.02.1.01.22.11.27.41.24.83.47,1.25.71.3.17.59.34.89.5.13.07.5.37.64.36.1,0,.03-.24-.04-.04-.06.17,0,.48-.01.67l-.03,2.01c0,.62-.02,1.24-.03,1.87,0,.12,0,.24,0,.36,0-.05.13-.21.03-.11-.37.35-.7.78-1.04,1.17-3.52,3.95-7.04,7.89-10.57,11.84-1.08,1.21-2.15,2.41-3.23,3.62-.21.23.13.57.34.34,2.37-2.65,4.74-5.31,7.11-7.96l5.04-5.65c.6-.67,1.2-1.34,1.79-2.01.28-.32.65-.64.89-1,.31-.48.13-1.43.14-1.98.02-1.09.03-2.18.05-3.28,0-.08-.05-.17-.12-.21-.95-.54-1.91-1.08-2.86-1.62.04.09.07.18.11.27.34-1.62.69-3.25,1.02-4.87.08-.39-.07-.61-.23-.97-.5-1.12-.99-2.24-1.45-3.37-1.06-2.58-2.23-5.26-2.59-8.05-.34-2.64-.31-5.34-.25-8,.04-1.72.11-3.44.23-5.15.02-.31-.45-.3-.48,0-.1.89-.23,1.78-.38,2.67-.2,1.18-.34,2.65-.95,3.71-.7,1.21-3.4-2.32-3.87-2.95-.14.08-.28.16-.42.24,1.26,1.66,2.51,3.42,3.41,5.3.17.35.51.95.44,1.36-.06.38-.45.29-.76.22-1.27-.27-2.47-1-3.59-1.63-.85-.48-1.69-.98-2.51-1.52-.08.14-.16.28-.24.42,1.47.91,2.88,1.91,4.21,3.03,1.37,1.16,2.47,2.4,3.08,4.11,1.14,3.24,1.51,6.77,1.83,10.17.08.84.16,1.69.22,2.53.07,1.05-.14,1.82-.66,2.72-.78,1.35-1.23,2.73-1.22,4.3,0,.84.07,1.67-.15,2.5-.21.81-.6,1.56-1.04,2.27-.82,1.34-1.74,2.62-2.52,3.99-.9,1.58-1.7,3.22-2.4,4.9-.71,1.71-1.35,3.47-1.3,5.34,0,.31.49.31.48,0" class="cls-3"/><line x1="66.87" x2="76.71" y1="234.14" y2="231.04" class="cls-16"/><line x1="78.68" x2="97.29" y1="237.02" y2="225.67" class="cls-16"/><path d="m37.26,309.28c-.03.96-.05,1.93-.08,2.89-.03.95-.04,1.91.08,2.86.04.3.52.31.48,0-.12-.95-.11-1.9-.08-2.86.03-.96.05-1.93.08-2.89,0-.31-.47-.31-.48,0" class="cls-3"/><path d="m39.07,310.54c0,1.88.02,3.76.03,5.64,0,.31.48.31.48,0,0-1.88-.02-3.76-.03-5.64,0-.31-.48-.31-.48,0" class="cls-3"/><path d="m41.56,311.84c-.12,1.06-.02,2.12.02,3.18,0,.26.01.52.01.78,0,.25-.04.51-.04.76,0,.16.1.34.28.34.16,0,.29-.14.28-.3,0-.1-.07-.21-.18-.23,0,0-.01,0-.02,0-.3-.06-.43.41-.13.47,0,0,.01,0,.02,0-.06-.08-.12-.16-.18-.23,0-.02.01-.04.02-.07.05-.04.1-.07.14-.11,0,0-.02,0-.03,0,.08.02.16.04.23.06.03.07.04.06.04-.05,0-.05,0-.09.01-.14,0-.11.01-.21.01-.32,0-.18,0-.37,0-.55,0-.4-.03-.8-.05-1.2-.04-.8-.07-1.6.02-2.39.03-.31-.45-.31-.48,0" class="cls-3"/><path d="m107.47,251.68s4.23.29,5.76,3.14c1.54,2.85,3.39,7.84.57,12.42" class="cls-16"/><path d="m105.45,253.27c.94-.01,1.9.02,2.84-.06.46-.04.91-.14,1.38-.17.48-.03.95-.02,1.43-.02.31,0,.31-.48,0-.48-.46,0-.92-.01-1.38.01-.48.03-.95.13-1.43.17-.94.08-1.9.05-2.84.06-.31,0-.31.49,0,.48" class="cls-3"/><path d="m107.36,255.04c.96.16,1.92.07,2.88-.06.48-.06.96-.13,1.44-.17.23-.02.46-.03.7-.03.21,0,.4.04.56-.11.08-.07.09-.2.04-.29-.06-.1-.14-.14-.25-.14-.1,0-.21.08-.23.18,0,0,0,.01,0,.02-.06.3.4.43.47.13,0,0,0-.01,0-.02-.08.06-.16.12-.23.18h.03c-.07-.04-.14-.08-.21-.12v.02c.03-.1.04-.19.05-.29-.01.01-.02.02-.04.03.06-.02.11-.05.17-.07-.41.05-.84.02-1.25.06-.45.04-.89.11-1.34.17-.88.11-1.77.21-2.65.06-.3-.05-.43.41-.13.47" class="cls-3"/><path d="m108.86,257.66c1.72-.25,3.46-.45,5.19-.6.31-.03.31-.51,0-.48-1.78.16-3.55.36-5.32.62-.31.04-.18.51.13.47" class="cls-3"/><path d="m109.61,260.31c.87.07,1.73.01,2.6-.06.87-.08,1.74-.16,2.61-.24.31-.03.31-.51,0-.48-.87.08-1.74.16-2.61.24-.86.08-1.73.14-2.6.06-.31-.03-.31.46,0,.48" class="cls-3"/><path d="m110.21,263.34c1.64.09,3.27-.01,4.89-.28.31-.05.18-.52-.13-.47-1.57.26-3.17.34-4.76.26-.31-.02-.31.47,0,.48" class="cls-3"/><path d="m110.38,266.35c1.3,0,2.6-.07,3.89-.19.31-.03.31-.51,0-.48-1.29.12-2.59.19-3.89.19-.31,0-.31.48,0,.48" class="cls-3"/><path d="m114.53,256.67c1.55-1.58,2.82-3.41,3.75-5.42.13-.28-.29-.52-.42-.24-.91,1.97-2.15,3.77-3.67,5.32-.22.22.12.56.34.34" class="cls-3"/><path d="m115.25,263.39c1.68-.14,3.37-.16,5.05-.18,1.08,0,2.25,0,3.13.64.23.17.45.42.44.71-.57.35-1.25.5-1.91.44.31-.06.4-.5.23-.77-.17-.27-.48-.4-.78-.51-.46-.17-.91-.35-1.37-.52" class="cls-3"/><path d="m115.25,263.63c1.54-.13,3.09-.16,4.63-.17.66,0,1.34-.03,2,.07.54.08,1.71.35,1.75,1.04.04-.07.08-.14.12-.21-.56.32-1.15.45-1.79.41.02.16.04.32.06.47.53-.18.63-.83.29-1.24-.2-.24-.49-.37-.78-.48-.47-.19-.95-.36-1.42-.54-.29-.11-.42.36-.13.47.43.16.86.33,1.29.49.18.07.37.13.53.25.14.1.42.48.1.59-.26.09-.21.46.06.47.72.05,1.41-.11,2.03-.48.07-.04.12-.13.12-.21-.04-.65-.62-1.02-1.17-1.25-.68-.28-1.43-.33-2.16-.34-1.84-.02-3.7.02-5.53.18-.31.03-.31.51,0,.48" class="cls-3"/><path d="m127.32,240.5c-.69.1-1.32.81-1.46,1.49-.02.1-.03.2.01.29.05.1.15.16.25.21.39.17.84.17,1.27.17,1.52.01,3.04.15,4.53.42.02.17-.11.33-.26.41-.15.08-.33.09-.51.1-1.74.12-3.49.25-5.23.37-.48.03-.97.07-1.45.08-.4,0-.8,0-1.2-.01-1.69-.04-3.4-.16-5.09-.28,2.75.2,5.59-.63,7.71-2.4" class="cls-3"/><path d="m127.26,240.27c-.78.18-2.47,1.78-1.26,2.43.69.37,1.71.2,2.46.24,1.14.05,2.27.19,3.4.38-.06-.1-.11-.2-.17-.3-.08.5-1.47.41-1.85.43-.52.04-1.05.07-1.57.11-1.11.08-2.21.18-3.32.23-2.25.1-4.53-.11-6.77-.27v.48c2.85.17,5.66-.66,7.88-2.47.24-.2-.1-.54-.34-.34-2.12,1.72-4.83,2.49-7.54,2.33-.31-.02-.31.46,0,.48,2.62.19,5.24.39,7.87.2,1.31-.09,2.62-.19,3.93-.28.66-.05,2.03.14,2.18-.78.02-.12-.03-.27-.17-.3-1.21-.21-2.43-.35-3.66-.41-.5-.02-1.38.13-1.84-.09-.96-.48.36-1.5.9-1.62.3-.07.17-.53-.13-.47" class="cls-3"/><path d="m130.23,240.36c-3.51-4.51-4.57-11.47-4.57-11.47,0,0-.86-3.75-2.19-4.29-1.33-.55-2.03.78-2.03.78l-1.25.16s1.62,7.79,3.65,16.97c1.83-1.46,4.09-2.27,6.39-2.14" class="cls-3"/><path d="m130.23,240.36c-3.51-4.51-4.57-11.47-4.57-11.47,0,0-.86-3.75-2.19-4.29-1.33-.55-2.03.78-2.03.78l-1.25.16s1.62,7.79,3.65,16.97c1.83-1.46,4.09-2.27,6.39-2.14Z" class="cls-16"/><path d="m134.58,236.87c.59.12,1.22.24,1.77,0,.26-.11.48-.3.69-.49.88-.76,1.76-1.52,2.64-2.28-.48.53-.89,1.13-1.22,1.77-.09.17-.17.39-.05.54.07.1.2.13.32.15.67.14,2.05.18,2.71.11-1.55.31-3.78,1.06-5.25,1.63-.11.04-.23.09-.35.08-.09,0-.17-.05-.25-.1-.5-.29-.91-.75-1.13-1.28" class="cls-3"/><path d="m134.51,237.11c.47.1.96.2,1.44.13.48-.07.84-.32,1.2-.63.9-.77,1.79-1.55,2.68-2.32-.11-.11-.23-.23-.34-.34-.43.48-.8.99-1.12,1.55-.22.4-.51,1,.07,1.24.42.18.98.17,1.42.19.52.03,1.04.03,1.55-.01-.02-.16-.04-.32-.06-.47-1.22.24-2.41.62-3.58,1.02-.55.19-1.09.39-1.63.6-.21.08-.36.09-.55-.04-.14-.09-.26-.19-.38-.3-.25-.24-.43-.53-.58-.84-.13-.28-.54-.04-.42.24.26.58.73,1.16,1.33,1.43.31.14.56.04.86-.08.32-.12.65-.24.97-.36,1.34-.48,2.71-.92,4.11-1.21.26-.05.21-.5-.06-.47-.75.07-1.53.05-2.27-.04-.17-.02-.42-.01-.5-.17-.1-.19.17-.52.27-.69.27-.44.58-.86.92-1.25.21-.23-.11-.54-.34-.34-.76.65-1.51,1.31-2.27,1.96-.36.31-.71.69-1.18.82-.46.13-.96.01-1.42-.08-.3-.06-.43.4-.13.47" class="cls-3"/><path d="m122.89,233.39s7.77-5.06,13.31,5.17l-3.44,1.25s-.15-2.1-4.64-1.89c-.18,0-.36.03-.54.07l-2.79.59s-1.27-1.16-1.9-5.19" class="cls-7"/><path d="m122.89,233.39s7.77-5.06,13.31,5.17l-3.44,1.25s-.15-2.1-4.64-1.89c-.18,0-.36.03-.54.07l-2.79.59s-1.27-1.16-1.9-5.19Z" class="cls-16"/><path d="m124.35,237.82s6.71-2.48,9.24,1.47" class="cls-16"/><path d="m49.13,368.1l10.91,35.45-6.63-17.45s-2.77-8.18-6.36-7.64l1.22-4.8.85-5.56Z" class="cls-3"/><path d="m49.13,368.1l10.91,35.45-6.63-17.45s-2.77-8.18-6.36-7.64l1.22-4.8.85-5.56Z" class="cls-16"/><path d="m114.15,328.41c2.26,7.8,4.24,15.74,4.78,23.84.16,2.45.19,4.91.52,7.35.73,5.39,2.92,10.51,3.59,15.91.38,3.01.32,6.24,1.9,8.83-.4-4.49-.55-9-.44-13.5.06-2.4.18-4.85-.52-7.14-.8-2.6-2.62-4.79-3.47-7.38-.91-2.79-.65-5.93-2.03-8.51" class="cls-3"/><path d="m113.92,328.47c2.17,7.51,4.1,15.14,4.71,22.96.29,3.72.3,7.42,1.1,11.08.78,3.6,1.99,7.11,2.7,10.73.73,3.7.33,7.87,2.3,11.22.11.19.47.13.45-.12-.24-2.71-.39-5.43-.45-8.15-.05-2.63.06-5.26.06-7.89,0-2.41-.39-4.65-1.47-6.82-1.05-2.1-2.36-4.05-2.89-6.37-.56-2.49-.56-5.11-1.75-7.43-.14-.28-.56-.03-.42.24,1.06,2.05,1.14,4.38,1.56,6.61.41,2.2,1.4,4.07,2.46,6.01.57,1.03,1.11,2.09,1.46,3.22.39,1.25.52,2.56.55,3.87.07,2.57-.1,5.14-.06,7.71.04,3,.2,6,.47,9l.45-.12c-1.78-3.03-1.51-6.72-2.07-10.07-.61-3.64-1.8-7.15-2.66-10.73-.45-1.88-.78-3.78-.94-5.71-.16-1.9-.2-3.82-.34-5.72-.26-3.75-.83-7.47-1.59-11.15-.87-4.21-1.98-8.35-3.18-12.48-.09-.3-.55-.17-.47.13" class="cls-3"/><path d="m58.49,159.52l-1.93,6.39s.5,6.51,6.66,7.4c0,0-1.35-1.7-1.43-4.16-.08-2.46.77-5.59.77-5.59,0,0-.23,5.28,4.74,5.82,0,0-1.54-2.12-1.04-4.12,0,0,.58,3.62,6.12,3.2l3.58-.27s-.19-5.05.81-6.12c0,0,.62,3.58,1.39,5.12,0,0,1.54,1.19,3.54,1.43,2,.23,3.54.19,4.97-.39,0,0,1.35,3.24.46,6.09-.89,2.85-2.5,4.47-2.5,4.47,0,0,2.31-1.16,3.81-3.66,0,0-.31,3.66-1.31,5.51-1,1.85-2.39,3.53-2.39,3.53,0,0,4.94-2.68,6.05-7.92,1.12-5.24-1.23-12.33-1.23-12.33" class="cls-11"/><path d="m58.49,159.52l-1.93,6.39s.5,6.51,6.66,7.4c0,0-1.35-1.7-1.43-4.16-.08-2.46.77-5.59.77-5.59,0,0-.23,5.28,4.74,5.82,0,0-1.54-2.12-1.04-4.12,0,0,.58,3.62,6.12,3.2l3.58-.27s-.19-5.05.81-6.12c0,0,.62,3.58,1.39,5.12,0,0,1.54,1.19,3.54,1.43,2,.23,3.54.19,4.97-.39,0,0,1.35,3.24.46,6.09-.89,2.85-2.5,4.47-2.5,4.47,0,0,2.31-1.16,3.81-3.66,0,0-.31,3.66-1.31,5.51-1,1.85-2.39,3.53-2.39,3.53,0,0,4.94-2.68,6.05-7.92,1.12-5.24-1.23-12.33-1.23-12.33" class="cls-16"/><path d="m70.37,188.07l.3,4.98s3.43.64,7.17-.11c3.73-.75,5.58-2.19,5.58-2.19l-.34-5.32-12.71,2.64Z" class="cls-8"/><path d="m70.37,188.07l.3,4.98s3.43.64,7.17-.11c3.73-.75,5.58-2.19,5.58-2.19l-.34-5.32-12.71,2.64Z" class="cls-16"/><path d="m70.58,189.88s2.79,2.57,10.79-1.7l-7.28.16-3.62.19.11,1.36Z" class="cls-3"/><path d="m70.58,189.88s2.79,2.57,10.79-1.7l-7.28.16-3.62.19.11,1.36Z" class="cls-16"/><path d="m55.1,166.76s-2.94-6.97,3.3-10.93c6.24-3.96,7.27-5.5,7.27-5.5,0,0,5.21-6.9,15.12-3.08,0,0,2.94-2.05,4.4-1.1.83.54,1.28,1.27,1.52,1.8.23.5.55.95.97,1.31,1.64,1.4,5.53,4.89,6.17,7.02.57,1.93,1.04,5.49,1.26,7.39.09.82.51,1.57,1.16,2.08l3.02,2.42s3.45,2.79,1.98,6.46l-.95,1.69-.22-1.32-1.1,2.2s-2.72,8.15-9.03,6.9l1.47-3.3s-3.23,3.74-6.68,3.38l-17.39,1.69s-3.3,0-5.36-3.01c0,0-.44,1.03.88,2.94h-2.13s-3.38-.22-4.99-2.64c0,0-.73-1.61-.81-3.52,0,0-.51,1.69.15,3.52,0,0-1.72-.26-1.8-3.35-.08-3.09.46-3.58.46-3.58,0,0-1.52,1.01-1.18,4.17,0,0-2.04-.95-1.09-4.92,0,0,.82-2.29,2.55-3.28,0,0-1.56.23-2.31,1.3,0,0-.36-1.52,2.15-3.74l1.68-1.79s.8-.99.99-1.81c0,0-.17-4.67.23-5.33,0,0-1.81,2.7-1.69,5.96" class="cls-11"/><path d="m55.1,166.76s-2.94-6.97,3.3-10.93c6.24-3.96,7.27-5.5,7.27-5.5,0,0,5.21-6.9,15.12-3.08,0,0,2.94-2.05,4.4-1.1.83.54,1.28,1.27,1.52,1.8.23.5.55.95.97,1.31,1.64,1.4,5.54,4.89,6.17,7.02.57,1.93,1.04,5.49,1.26,7.39.09.82.51,1.57,1.16,2.08l3.02,2.42s3.45,2.79,1.98,6.46l-.95,1.69-.22-1.32-1.1,2.2s-2.72,8.15-9.03,6.9l1.47-3.3s-3.23,3.74-6.68,3.38l-17.39,1.69s-3.3,0-5.36-3.01c0,0-.44,1.03.88,2.94h-2.13s-3.38-.22-4.99-2.64c0,0-.73-1.61-.81-3.52,0,0-.51,1.69.15,3.52,0,0-1.72-.26-1.8-3.35-.08-3.09.46-3.58.46-3.58,0,0-1.52,1.01-1.18,4.17,0,0-2.04-.95-1.09-4.92,0,0,.82-2.29,2.55-3.28,0,0-1.56.23-2.31,1.3,0,0-.36-1.52,2.15-3.74l1.68-1.79s.8-.99.99-1.81c0,0-.17-4.67.23-5.33,0,0-1.81,2.7-1.69,5.96Z" class="cls-16"/><path d="m54.39,169.26c.82-.16,1.64.4,2.09,1.1.45.71.62,1.55.85,2.35,1.03,3.54,3.51,6.63,6.74,8.41-2.79-2.16-4.05-5.75-4.69-9.22-.13-.67-.24-1.36-.55-1.97-.32-.64-.84-1.16-1.26-1.74s-.73-1.31-.56-2.01c-.73,1-1.46,2.01-2.19,3.01" class="cls-3"/><path d="m54.39,169.5c1.85-.23,2.31,1.94,2.7,3.28.35,1.2.86,2.35,1.51,3.42,1.31,2.14,3.15,3.91,5.34,5.14.23.13.51-.2.29-.38-2.13-1.69-3.35-4.15-4.08-6.73-.36-1.27-.47-2.64-.9-3.89-.49-1.4-2.29-2.49-2.01-4.1.05-.27-.28-.41-.44-.19-.73,1-1.46,2.01-2.19,3.01-.18.25.24.49.42.24.73-1,1.46-2.01,2.19-3.01-.15-.06-.29-.12-.44-.19-.27,1.54.92,2.45,1.66,3.63.46.74.58,1.6.74,2.44.14.73.31,1.45.51,2.17.75,2.65,2.01,5.2,4.21,6.94.1-.13.19-.25.29-.38-2.5-1.4-4.53-3.53-5.79-6.1-.62-1.27-.84-2.65-1.39-3.94-.45-1.06-1.38-2.01-2.62-1.86-.3.04-.31.52,0,.48" class="cls-3"/><path d="m60.36,172.27c.54,1.78,1.46,2.99.11,3.41-1.35.42-2.89-.69-3.44-2.47-.54-1.78.11-3.55,1.46-3.97s1.32,1.25,1.87,3.03" class="cls-8"/><path d="m60.36,172.27c.54,1.78,1.46,2.99.11,3.41-1.35.42-2.89-.69-3.44-2.47-.54-1.78.11-3.55,1.46-3.97,1.35-.41,1.32,1.25,1.87,3.03Z" class="cls-16"/><path d="m63.11,179.24l.62,1.58s5.43,6.93,6.7,7.7c0,0,1.35,1,5.85.65,4.51-.35,5.05-1,5.05-1,0,0,2.73-2.89,3.77-4.35,1.04-1.46,2.35-3.7,2.35-3.7l2.35-7.24-2.7-7.47s-9.35-2.13-9.55-2.71c-.19-.58-17.69.63-17.69.63,0,0,.77,10.4.69,10.55-.08.15,2.54,5.35,2.54,5.35" class="cls-8"/><path d="m63.11,179.24l.62,1.58s5.43,6.93,6.7,7.7c0,0,1.35,1,5.85.65,4.51-.35,5.05-1,5.05-1,0,0,2.73-2.89,3.77-4.35,1.04-1.46,2.35-3.7,2.35-3.7l2.35-7.24-2.7-7.47s-9.35-2.13-9.55-2.71c-.19-.58-17.69.63-17.69.63,0,0,.77,10.4.69,10.55-.08.15,2.54,5.35,2.54,5.35Z" class="cls-16"/><path d="m64.81,170.86c2.37-.24,5.06-.26,6.88,1.52.22.22.56-.12.34-.34-1.92-1.87-4.72-1.92-7.22-1.66-.31.03-.31.51,0,.48" class="cls-3"/><path d="m80.34,173.11c2.25-.63,4.62-.71,6.91-.23.3.06.43-.4.13-.47-2.37-.5-4.83-.42-7.17.23-.3.08-.17.55.13.47" class="cls-3"/><path d="m82.5,172.46c.17-.34.35-.67.52-1.01.06-.11.03-.27-.09-.33-.11-.06-.27-.03-.33.09-.17.34-.35.67-.52,1.01-.06.11-.03.27.09.33.11.06.27.03.33-.09" class="cls-3"/><path d="m84.81,172.32c.12-.27.24-.54.36-.81.03-.06.04-.12.02-.19-.02-.06-.06-.12-.11-.14-.06-.03-.12-.04-.19-.02-.06.02-.12.05-.14.11-.12.27-.24.54-.36.81-.03.06-.04.12-.02.19.02.06.06.12.11.14.06.03.12.04.19.02.06-.02.12-.05.14-.11" class="cls-3"/><path d="m86.33,172.37s.03-.08.05-.12c0,.02-.02.04-.02.06.09-.22.2-.43.32-.63.06-.11.03-.27-.09-.33-.12-.06-.26-.03-.33.09-.16.26-.28.53-.39.81-.02.05,0,.14.02.19.03.05.09.1.14.11.06.01.13.01.19-.02.06-.04.09-.08.11-.14" class="cls-3"/><path d="m82.89,175.71l-.06.5c0,.06.03.13.07.17.04.04.11.07.17.07.06,0,.13-.02.17-.07.01-.02.03-.03.04-.05.02-.04.03-.08.03-.12.02-.17.04-.33.06-.5,0-.06-.03-.13-.07-.17-.04-.04-.11-.07-.17-.07-.06,0-.13.02-.17.07-.01.02-.03.03-.04.05-.02.04-.03.08-.03.12" class="cls-3"/><path d="m83.97,175.6c0,.16.01.33.06.48.02.06.06.11.11.14.05.03.13.04.19.02.06-.02.11-.05.14-.11.03-.06.04-.12.02-.19-.02-.06-.03-.13-.04-.19,0,.02,0,.04,0,.06-.01-.08-.01-.15-.01-.23,0-.06-.03-.13-.07-.17-.04-.04-.11-.07-.17-.07-.06,0-.13.02-.17.07-.04.05-.07.1-.07.17" class="cls-3"/><path d="m84.96,175.33c.05.16.1.32.14.47.02.06.06.11.11.14.05.03.13.04.19.02.06-.02.11-.05.14-.11.03-.06.04-.12.02-.19-.05-.16-.1-.32-.14-.47-.02-.06-.06-.11-.11-.14-.05-.03-.13-.04-.19-.02-.06.02-.12.06-.14.11-.03.06-.04.12-.02.19" class="cls-3"/><path d="m82.3,174.41c.92.2,1.87.07,2.7-.38.19-.1.13-.38-.06-.44-.22-.08-.46-.02-.68,0-.24.02-.48.04-.72.06-.38.02-.85.06-1.17-.18.03.03.06.06.09.09,0-.01-.01-.02-.02-.03l.02.19s-.02.01.02,0c.03-.01.05-.02.07-.03.06-.02.13-.02.19-.02.19,0,.39,0,.58,0,.42,0,.83-.03,1.25-.07-.02-.16-.04-.32-.06-.47-.37.06-.74.07-1.11.05-.19-.01-.37-.03-.56-.06-.08-.01-.15-.03-.23-.04,0,0-.07-.02-.06-.02,0,0,.03.13,0,.11,0,0,.21-.04.22-.04.09,0,.19-.02.28-.02.19,0,.38,0,.57,0,.4.02.79.06,1.18.1v-.48c-.35.02-.7.05-1.06.05-.17,0-.34,0-.51,0-.09,0-.17-.01-.26-.02-.04,0-.09,0-.13-.01-.01,0-.03,0-.04,0-.05-.01-.04,0,.03.04.01.04.02.08.03.12,0,0,0-.02,0-.03-.01.04-.02.08-.03.12-.02.04-.08.02.02,0,.04,0,.08-.02.12-.03.09-.02.17-.04.26-.06.16-.03.33-.05.49-.05.35-.01.69.03,1.03.11v-.47c-.26.04-.51.07-.77.11-.12.02-.24.03-.36.05-.07,0-.14.02-.2.03-.03,0-.07,0-.1.01-.04,0-.03.01.04.03.02.04.04.07.06.11-.07.08-.09.12-.04.11.02,0,.04,0,.06-.01.07-.01.13-.02.2-.02.12-.01.24-.02.35-.03.25-.02.51-.02.76-.02.31,0,.31-.48,0-.48-.36,0-.71.01-1.06.05-.29.03-.78.04-.76.45.02.44.58.28.84.24.37-.05.73-.1,1.1-.15.24-.03.22-.41,0-.47-.43-.11-.88-.15-1.33-.12-.22.02-.43.05-.64.1-.19.04-.43.09-.51.29-.19.52.72.48,1,.48.46.01.93-.02,1.39-.05.31-.02.31-.45,0-.48-.5-.05-.99-.11-1.49-.11-.26,0-.52,0-.78.05-.23.04-.44.19-.45.44,0,.22.17.36.36.42.23.07.48.09.72.11.49.05.98.02,1.46-.05.27-.04.21-.5-.06-.47-.54.06-1.07.08-1.61.07-.2,0-.41-.02-.6.05-.21.08-.46.29-.34.53.1.19.4.28.59.32.22.05.46.06.69.05.25,0,.5-.03.75-.05.14-.01.27-.03.41-.04.12-.01.23-.04.35,0l-.06-.44c-.71.38-1.54.5-2.33.33-.3-.07-.43.4-.13.47" class="cls-3"/><path d="m64.91,169.78c.16.28.36.55.59.78.09.09.25.1.34,0,.09-.1.09-.24,0-.34-.1-.1-.19-.21-.28-.32.01.02.03.03.04.05-.1-.13-.19-.27-.27-.41-.06-.11-.22-.16-.33-.09-.11.07-.15.21-.09.33" class="cls-3"/><path d="m67.76,169.75c.1.3.23.59.4.86.07.11.22.16.33.09.11-.07.16-.22.09-.33-.1-.16-.19-.33-.26-.51l.02.06c-.04-.1-.08-.2-.11-.3-.04-.12-.17-.21-.3-.17-.12.04-.21.17-.17.3" class="cls-3"/><path d="m70.18,170.45c.06.19.12.38.18.57.01.05.03.09.05.14.02.07.05.15.1.2.11.12.32.09.4-.05.03-.06.05-.13.03-.2-.02-.07-.06-.11-.12-.15-.07-.05-.17-.04-.24,0,0,0,0,0,0,0-.11.06-.15.22-.09.33.07.11.21.15.33.09,0,0,0,0,0,0h-.24,0s-.06-.06-.09-.08c0,0,0,0,0,0-.01-.04-.02-.08-.03-.12,0,0,0,0,0,0,0-.02,0-.04,0-.06h0s.07-.09.11-.14c0,0,0,0,0,0,.06,0,.12-.02.19-.02,0,0,0,0,0,0,.04.02.07.04.11.06,0,.01.02.02.03.03l.02.06c-.05-.13-.09-.26-.13-.39-.04-.13-.08-.27-.12-.4-.04-.12-.17-.21-.3-.17-.12.04-.21.17-.17.3" class="cls-3"/><path d="m67.46,173.25c.75.08,1.5.12,2.26.1.26,0,.34-.42.06-.47-.37-.07-.74-.16-1.11-.26-.18-.05-.36-.1-.53-.16-.08-.03-.17-.05-.25-.08-.05-.02-.1-.04-.15-.05-.07-.01-.02-.05,0,.02-.08.1-.16.2-.23.3.75.06,1.5.11,2.26.17.27.02.33-.44.06-.47-.39-.05-.78-.12-1.17-.2-.19-.04-.39-.09-.58-.13-.09-.02-.18-.04-.26-.07-.04-.01-.11-.04-.16-.04-.09,0,.01-.1,0,.06-.01.04-.02.08-.03.12-.05.03-.06.04-.02.03.02,0,.05-.01.07-.02.05,0,.09-.02.13-.02.08,0,.17-.01.25-.01.2,0,.4.02.59.04.39.05.78.14,1.15.25.02-.16.04-.32.06-.47-.4-.04-.8-.09-1.2-.16-.2-.04-.39-.07-.58-.12-.03,0-.24-.05-.24-.09-.01.04-.02.08-.03.12-.09.04-.1.05-.04.05.02,0,.04,0,.05,0,.05,0,.11,0,.16,0,.11,0,.21.01.32.02.21.02.41.05.62.08.42.07.83.18,1.23.31.02-.16.04-.32.06-.47-.42,0-.83-.1-1.24-.18-.21-.04-.42-.08-.63-.12-.11-.02-.21-.04-.32-.06-.09-.02-.2-.06-.29-.06h-.03c-.05-.02-.04.03.03.12,0,0,.05,0,.07,0,.09,0,.18,0,.27,0,.19,0,.38,0,.57.03.38.04.77.13,1.12.3l.19-.44c-.66-.19-1.34-.34-2.02-.44.05.12.1.24.14.35-.02.03-.02.01,0,.01.02,0,.05,0,.07,0,.09,0,.19.01.28.02.18.02.35.05.53.08.36.07.7.19,1.04.33.12.05.27-.05.3-.17.04-.14-.05-.25-.17-.3-.42-.17-.85-.3-1.29-.37-.22-.04-.45-.07-.68-.08-.2,0-.39.05-.49.22-.07.12-.01.33.14.35.68.1,1.36.25,2.02.44.26.07.44-.32.19-.44-.48-.23-.99-.34-1.51-.38-.36-.03-1.25-.14-1.23.44,0,.28.26.36.49.41.27.06.53.11.8.16.55.11,1.11.27,1.67.26.28,0,.32-.39.06-.47-.48-.16-.98-.28-1.49-.35-.27-.04-.53-.07-.8-.08-.22-.01-.51-.04-.6.21-.08.21.08.43.26.53.19.11.42.14.64.18.53.11,1.06.18,1.59.23.28.03.31-.4.06-.47-.48-.15-.97-.25-1.46-.29-.24-.02-.47-.03-.71,0-.2.02-.49.05-.57.27-.08.23.1.41.3.48.23.08.48.13.71.18.49.11.99.2,1.49.27.02-.16.04-.32.06-.47-.75-.06-1.5-.11-2.26-.17-.16-.01-.27.16-.23.31.05.21.25.29.43.35.21.07.42.14.63.2.43.13.87.23,1.31.32.02-.16.04-.32.06-.47-.75.02-1.51-.02-2.26-.1-.13-.01-.24.12-.24.24,0,.14.11.23.24.24" class="cls-3"/><path d="m65.69,173.69c-.12.26-.24.51-.37.76-.06.11-.03.27.09.33.11.06.27.03.33-.09.13-.25.26-.5.37-.76.03-.06.04-.12.02-.19-.02-.06-.06-.12-.11-.14-.11-.06-.27-.04-.33.09" class="cls-3"/><path d="m66.62,174.5l-.11.59c-.01.06,0,.13.02.19.03.05.09.1.14.11.06.01.13.01.19-.02.05-.03.1-.08.11-.14l.11-.59c.01-.06,0-.13-.02-.19-.03-.05-.09-.1-.14-.11-.06-.01-.13-.01-.19.02-.05.03-.1.08-.11.14" class="cls-3"/><path d="m67.73,174.82c-.01.18-.02.35-.03.53,0,.06.03.13.07.17.04.04.11.07.17.07.06,0,.13-.02.17-.07.05-.05.07-.1.07-.17.01-.18.02-.35.03-.53,0-.06-.03-.13-.07-.17-.04-.04-.11-.07-.17-.07-.06,0-.13.02-.17.07-.05.05-.07.1-.07.17" class="cls-3"/><path d="m74.56,176.34s-.05,0-.07,0c-.02,0-.04.02-.06.02,0,0,0,0,0,0h0s-.03.03-.05.04c-.05.05-.07.11-.07.17,0,.02,0,.05.01.07.02.06.03.07.07.11.03.03.08.06.12.07.04.01.09.01.13,0,.02,0,.04-.01.06-.03.02-.01.03-.02.05-.04,0,0,0,0,0,0,0,0,.04-.05.04-.05.01-.02.02-.04.03-.06.01-.03.01-.06,0-.1,0-.03-.01-.06-.03-.09-.01-.03-.04-.05-.06-.07-.02-.02-.05-.04-.08-.04-.02,0-.04,0-.06,0-.04,0-.08.01-.12.03-.02.01-.03.03-.05.04-.03.03-.05.07-.06.11,0,0,0,0,0,0l.02-.06s0,0,0,0c.01-.02.03-.03.04-.05,0,0,0,0,0,0,.02-.01.03-.03.05-.04,0,0,0,0,0,0,.02,0,.04-.02.06-.02,0,0,0,0,0,0,.02,0,.04,0,.06,0,0,0,0,0,0,0,.02,0,.04,0,.06,0,0,0,0,0,0,0l.06.02s0,0,0,0c.02.01.03.03.05.04,0,0,0,0,0,0,.01.02.03.03.04.05,0,0,0,0,0,0l.02.06s0,0,0,0c0,.02,0,.04,0,.06h0s0,.04,0,.06c0,0,0,0,0,0l-.02.06s0,0,0,0l-.04.05s0,0,0,0c-.02.01-.03.03-.05.04,0,0,0,0,0,0-.02,0-.04.02-.06.02,0,0,0,0,0,0-.02,0-.04,0-.06,0,0,0,0,0,0,0,.03,0,.06,0,.09-.02.03,0,.06-.03.08-.05.02-.02.04-.05.05-.08.01-.03.02-.06.02-.09,0-.02,0-.04,0-.06-.01-.04-.03-.08-.06-.11-.02-.01-.03-.03-.05-.04-.04-.02-.08-.03-.12-.03" class="cls-3"/><path d="m76.35,176.86s0,0,0,0c.02,0,.04-.02.06-.03,0,0,0,0,.01,0,0,0,0,0,0,0,.02-.01.03-.03.05-.04,0,0,0,0,0,0,0,0,0,0,0,0,0,0,0,0,0,0,.01-.02.03-.03.04-.05,0,0,0-.01.01-.02,0,0,0,0,0,0,0,0,.02-.05.03-.06,0-.01,0-.02,0-.03,0-.02,0-.04,0-.06-.01-.09,0-.02,0-.03,0,0-.02-.06-.02-.06,0,0,0,0,0,0,0,0-.04-.05-.04-.05,0,0,0,0,0,0-.01-.02-.03-.03-.05-.04h0s-.02,0-.03-.01c.03.01-.02,0-.03-.01,0,0,0,0,0,0,0,0-.06,0-.06,0h0s-.04,0-.04,0c-.01,0-.02,0-.03,0,0,0-.06.02-.06.02,0,0,0,0,0,0,0,0,0,0,0,0,0,0,0,0,0,0-.02.01-.03.03-.05.04-.03.03-.04.05-.05.08-.02.04-.01.02-.02.06,0,.01,0,.02,0,.04,0,0,0,.06,0,.06,0,0,0,0,0,0,0,0,.02.06.02.06,0,0,0,0,0,0,0,0,.04.05.02.03,0,0,.01.02.02.03,0,0,0,0,0,0,.02.01.03.03.05.04,0,0,0,0,0,0,0,0,0,0,0,0,0,0,0,0,0,0l.06.02s.02,0,.04,0c0,0,.02,0,.03,0h0s.04,0,.06,0h0s.02,0,.03-.01c.01,0,.02,0,.03-.01.03-.02.05-.04.07-.06.02-.02.04-.05.04-.08,0-.03.01-.06,0-.1,0-.03-.01-.06-.03-.09-.01-.02-.03-.03-.04-.05-.03-.03-.07-.05-.11-.06-.02,0-.04,0-.06,0-.04,0-.08.01-.12.03h0s.04-.02.06-.02c0,0,0,0,0,0,.02,0,.04,0,.06,0h0s.04,0,.06,0c0,0,0,0,0,0,.02,0,.04.02.06.02,0,0,0,0,0,0,.02.01.03.03.05.04,0,0,0,0,0,0,.01.02.03.03.04.05,0,0,0,0,0,0,0,.02.02.04.02.06,0,0,0,0,0,0,0,.02,0,.04,0,.06,0,0,0,0,0,0,0,.02,0,.04,0,.06,0,0,0,0,0,0l-.02.06s0,0,0,0c-.01.02-.03.03-.04.05,0,0,0,0,0,0-.02.01-.03.03-.05.04,0,0,0,0,0,0-.02,0-.04.02-.06.02,0,0,0,0,0,0-.02,0-.04,0-.06,0h0s-.04,0-.06,0c0,0,0,0,0,0-.02,0-.04-.02-.06-.02,0,0,0,0,0,0-.02-.01-.03-.03-.05-.04,0,0,0,0,0,0-.01-.02-.03-.03-.04-.05,0,0,0,0,0,0,0-.02-.02-.04-.02-.06t0,0c0-.06.02-.12.02-.19,0,0,0,.02-.01.02.01-.02.03-.03.04-.05,0,0-.01.01-.02.02.02-.01.03-.03.05-.04,0,0-.02.01-.02.01l.06-.02s0,0,0,0c-.03,0-.06.02-.08.04-.03.02-.05.04-.06.07-.02.03-.03.06-.03.09,0,.03,0,.06,0,.1l.02.06s.05.06.09.09c.02,0,.04.02.06.02.04.01.09.01.13,0" class="cls-3"/><path d="m74.92,186.02c.75-.02,1.51-.04,2.26-.07.31-.01.31-.5,0-.48-.75.03-1.51.06-2.26.07-.31,0-.31.49,0,.48" class="cls-3"/><path d="m74.86,178.85c.58-.04,1.17-.04,1.76-.02.13,0,.24-.12.24-.24,0-.14-.11-.24-.24-.24-.59-.03-1.17-.02-1.76.02-.13,0-.24.1-.24.24,0,.12.11.25.24.24" class="cls-3"/><path d="m71.23,179.53s6.03.36,9.71.06c0,0-.45,1.84-2.71,4.24,0,0-2.37.53-4.38-.03,0,0-2.07-1.98-2.62-4.27" class="cls-3"/><path d="m71.23,179.53s6.03.36,9.71.06c0,0-.45,1.84-2.71,4.24,0,0-2.37.53-4.38-.03,0,0-2.07-1.98-2.62-4.27Z" class="cls-16"/><path d="m71.4,179.87s.06,1.48,4.35,1.59c4.3.11,5.11-1.7,5.11-1.7l-7.59-.11-2.04-.11.17.33Z" class="cls-9"/><path d="m71.4,179.87s.06,1.48,4.35,1.59c4.3.11,5.11-1.7,5.11-1.7l-7.59-.11-2.04-.11.17.33Z" class="cls-16"/><path d="m73.24,183.02s.25-1.34,2.99-1.4c2.74-.06,2.79,1.14,2.79,1.14l-.78,1.06c-1.39.33-2.83.34-4.22.01l-.16-.04-.61-.78Z" class="cls-1"/><path d="m73.24,183.02s.25-1.34,2.99-1.4c2.74-.06,2.79,1.14,2.79,1.14l-.78,1.06c-1.39.33-2.83.34-4.22.01l-.16-.04-.61-.78Z" class="cls-16"/><path d="m58.72,167.99s-.31,4.82.69,7.16c1,2.35,4.31,5.66,4.31,5.66l-2.58-10.13-2.43-2.7Z" class="cls-11"/><path d="m58.72,167.99s-.31,4.82.69,7.16c1,2.35,4.31,5.66,4.31,5.66l-2.58-10.13-2.43-2.7Z" class="cls-16"/><path d="m89.39,164.14c.34,1.06.69,2.12,1.12,3.15.34.81.73,1.82,1.5,2.32.24.16.47-.18.29-.38-.51-.55-1.01-1.16-1.25-1.89-.1-.29-.55-.17-.47.13.11.37.21.74.32,1.11.07.25.5.22.47-.06-.05-.46-.21-.79-.41-1.2,0,.06.02.12.02.19,0-.02,0-.03,0-.05-.06.06-.11.11-.17.17,0,0,.02,0,.03,0-.08-.02-.16-.04-.23-.06,0,0,.02.01.02.02-.01-.1-.03-.19-.04-.29,0,0,0,.01-.01.02-.15.27.27.52.42.24,0,0,0-.01.01-.02.05-.09.04-.22-.04-.29-.09-.08-.17-.1-.29-.08-.07.01-.16.09-.17.17-.03.21.07.31.16.49.11.22.18.46.2.71.16-.02.32-.04.47-.06-.11-.37-.21-.74-.32-1.11l-.47.13c.27.8.81,1.48,1.37,2.1.1-.13.19-.25.29-.38-.37-.24-.58-.63-.79-1.01-.22-.4-.41-.83-.58-1.25-.39-.96-.71-1.94-1.02-2.92-.09-.3-.56-.17-.47.13" class="cls-3"/><path d="m91.77,175.54c-.89,1.76-1.84,3.58-3.29,4.96.13.1.25.19.38.29,1.19-1.68,2.26-3.45,2.96-5.39-.16-.04-.31-.09-.47-.13-.22.79-.52,1.55-.91,2.27.14.08.28.16.42.24.49-.92.98-1.83,1.47-2.75-.15-.06-.29-.12-.44-.19-.2.51-.4,1.02-.61,1.53-.1.26.3.41.44.19.25-.41.43-.85.55-1.31.08-.3-.39-.43-.47-.13-.11.43-.28.82-.5,1.2.15.06.29.12.44.19.2-.51.41-1.02.61-1.53.1-.26-.31-.42-.44-.19-.49.92-.98,1.83-1.47,2.75-.15.27.27.52.42.24.41-.76.73-1.56.96-2.39.08-.3-.36-.42-.47-.13-.69,1.9-1.75,3.63-2.91,5.27-.16.23.19.47.38.29,1.48-1.4,2.46-3.26,3.37-5.05.14-.28-.28-.52-.42-.24" class="cls-3"/><path d="m93.11,172.5c0,2.13-1.05,3.86-2.35,3.86s-2.35-1.73-2.35-3.86,1.05-3.86,2.35-3.86,2.35,1.73,2.35,3.86" class="cls-8"/><ellipse cx="90.76" cy="172.5" class="cls-16" rx="2.35" ry="3.86"/><path d="m58.49,159.52l-1.68,6.25s.25,6.66,6.42,7.54c0,0-1.35-1.7-1.43-4.16-.08-2.46.77-5.59.77-5.59,0,0-.23,5.28,4.74,5.82,0,0-1.54-2.12-1.04-4.12,0,0,.58,3.62,6.12,3.2l3.58-.27s-.19-5.05.81-6.12c0,0,.62,3.58,1.39,5.12,0,0,1.54,1.19,3.54,1.43,2,.23,3.54.19,4.97-.39,0,0,1.35,3.24.46,6.09-.89,2.85-2.5,4.47-2.5,4.47,0,0,2.31-1.16,3.81-3.66,0,0-.31,3.66-1.31,5.51-1,1.85-2.39,3.53-2.39,3.53,0,0,4.94-2.68,6.05-7.92,1.12-5.24-1.23-12.33-1.23-12.33" class="cls-11"/><path d="m56.56,165.91s.5,6.51,6.66,7.4c0,0-1.35-1.69-1.43-4.16-.08-2.46.77-5.59.77-5.59,0,0-.23,5.28,4.74,5.82,0,0-1.54-2.12-1.04-4.12,0,0,.58,3.62,6.12,3.2l3.58-.27s-.19-5.05.81-6.12c0,0,.62,3.58,1.39,5.12,0,0,1.54,1.19,3.54,1.43,2,.23,3.54.19,4.97-.39,0,0,1.35,3.24.46,6.09-.89,2.85-2.5,4.47-2.5,4.47,0,0,2.31-1.16,3.81-3.66,0,0-.31,3.66-1.31,5.51-1,1.85-2.39,3.53-2.39,3.53,0,0,4.94-2.68,6.05-7.92,1.12-5.24-1.23-12.33-1.23-12.33" class="cls-16"/><g class="cls-22"><g class="cls-24"><g class="cls-21"><path d="m76.34,157.03c.35-1.32.71-2.63,1.08-3.94.75.3,1.48.67,2.16,1.1.29.18.57.37.89.5.91.35,1.93.09,2.83-.29.09,1.69.18,3.38.28,5.07-.48-.23-1.04-.21-1.55-.06-.51.15-.97.41-1.43.67-.19-.76-.67-1.45-1.33-1.89-.65-.43-1.43-.6-2.19-.77-.22-.05-.44-.1-.66-.14" class="cls-9"/><path d="m76.57,157.09c.35-1.32.71-2.63,1.08-3.94-.1.06-.2.11-.3.17.56.23,1.11.49,1.64.79.45.26.87.58,1.35.77.99.4,2.07.12,3.01-.27-.1-.08-.2-.16-.31-.23.09,1.69.18,3.38.28,5.07.12-.07.24-.14.36-.21-1.14-.49-2.23.04-3.22.61l.35.14c-.22-.85-.75-1.59-1.49-2.06-.85-.54-1.9-.69-2.86-.9-.3-.07-.43.4-.13.47.85.18,1.76.31,2.54.73.75.4,1.26,1.08,1.48,1.9.04.15.22.22.35.14.81-.46,1.79-1.01,2.74-.61.15.07.37,0,.36-.21-.09-1.69-.18-3.38-.28-5.07,0-.14-.15-.3-.3-.23-.98.41-2.06.67-3.04.12-.9-.51-1.75-1.03-2.71-1.42-.12-.05-.26.05-.3.17-.37,1.31-.73,2.63-1.08,3.94-.08.3.39.43.47.13" class="cls-9"/></g></g></g><path d="m58.6,182.33c.39,1.2.95,2.34,1.67,3.37.18.25.6.01.42-.24-.7-1-1.25-2.1-1.62-3.26-.09-.29-.56-.17-.47.13" class="cls-3"/><path d="m57.87,184.1c.14.45.33.88.58,1.27.07.11.22.16.33.09.11-.07.16-.22.09-.33-.12-.19-.22-.38-.31-.58-.01-.03-.02-.05-.04-.08,0,0-.03-.07-.01-.02-.02-.05-.04-.11-.06-.16-.04-.1-.07-.21-.11-.31-.04-.12-.17-.21-.3-.17-.12.04-.21.17-.17.3" class="cls-3"/><path d="m71.2,164.17c.14,1.49.32,3.06,1.3,4.27.19.24.53-.1.34-.34-.88-1.09-1.03-2.58-1.15-3.93-.03-.31-.51-.31-.48,0" class="cls-3"/><path d="m73.05,167.21c.11.4.28.77.51,1.11.07.1.22.16.33.09.1-.07.16-.22.09-.33-.11-.16-.2-.32-.29-.5,0-.02-.02-.04-.03-.06,0-.01,0-.02-.01-.03.01.03.01.03,0,0-.02-.04-.03-.09-.05-.13-.03-.09-.06-.18-.09-.28-.03-.12-.17-.21-.3-.17-.12.04-.2.17-.17.3" class="cls-3"/><path d="m78.59,164.17c.16,1.22.31,2.43.47,3.65.02.13.1.24.24.24.12,0,.26-.11.24-.24-.16-1.22-.31-2.43-.47-3.65-.02-.13-.1-.24-.24-.24-.12,0-.26.11-.24.24" class="cls-3"/><path d="m85.64,164.62c.32,1.22.36,2.5.11,3.74-.06.3.4.43.47.13.27-1.32.24-2.69-.11-3.99-.08-.3-.54-.17-.47.13" class="cls-3"/><path d="m92.77,184.15c.7-.8,1.21-1.74,1.5-2.75.08-.3-.38-.43-.47-.13-.26.94-.73,1.81-1.37,2.54-.2.23.14.57.34.34" class="cls-3"/><path d="m98.1,171.39c.87,1.84.81,3.95.5,5.91-.05.3.42.43.47.13.33-2.11.38-4.31-.54-6.29-.13-.28-.55-.04-.42.24" class="cls-3"/><path d="m99.92,173.44c.04.63-.01,1.25-.17,1.86-.08.3.39.43.47.13.16-.65.23-1.32.18-1.99,0-.13-.1-.24-.24-.24-.12,0-.25.11-.24.24" class="cls-3"/><path d="m65.01,182.87c.39.63.81,1.24,1.21,1.87.32.5.63,1.17,1.3,1.21.23.02.29-.26.17-.41-.03-.04-.06-.08-.1-.12-.2-.24-.54.1-.34.34.03.04.07.08.1.12.06-.14.11-.27.17-.41-.22-.01-.39-.21-.51-.38-.18-.25-.33-.52-.5-.78-.36-.56-.74-1.11-1.09-1.67-.16-.26-.58-.02-.42.24" class="cls-3"/><path d="m61.91,168.35s.38-2.85.88-2.82c0,0-.21-.97-.23-1.02-.02-.05-.27.36-.27.36l-.31,2.02-.07,1.46Z" class="cls-3"/><path d="m61.91,168.35s.38-2.85.88-2.82c0,0-.21-.97-.23-1.02-.02-.05-.27.36-.27.36l-.31,2.02-.07,1.46Z" class="cls-16"/><path d="m76.09,166.68s.04-2.8.63-2.57c.59.23.82,1.66.82,1.66l-.78-3.56-.35.8-.22,1.98-.1,1.68Z" class="cls-3"/><path d="m76.09,166.68s.04-2.8.63-2.57c.59.23.82,1.66.82,1.66l-.78-3.56-.35.8-.22,1.98-.1,1.68Z" class="cls-16"/><path d="m84.36,168.84s2.53-.04,2.88,1.43l-.56-2.05-1.81.44-.51.18Z" class="cls-3"/><path d="m84.36,168.84s2.53-.04,2.88,1.43l-.56-2.05-1.81.44-.51.18Z" class="cls-16"/><path d="m94.28,158.18s-.03,2.71-.22,4.35c-.2,1.65-.08,3.32,1.81,4.13s3.32,1.37,3.32,1.37l-3.35-2.65-.7-1.48-.17-1.73-.7-3.99Z" class="cls-3"/><path d="m94.28,158.18s-.03,2.71-.22,4.35c-.2,1.65-.08,3.32,1.81,4.13,1.9.81,3.32,1.37,3.32,1.37l-3.35-2.65-.7-1.48-.17-1.73-.7-3.99Z" class="cls-16"/><path d="m111.34,223.28c-1.52-4.38-3.23-8.69-5.13-12.91.77,1.58,1.67,3.11,2.66,4.56.19.27.52.57.8.39.12-.08.17-.22.21-.35.29-.96.46-1.95.48-2.96,0,1.67.02,3.37.44,4.99.09.33.25.7.58.76.24.04.46-.1.65-.24.84-.66,1.41-1.61,1.96-2.53,1.01-1.7,2-3.4,3-5.11.95-1.63,1.9-3.25,2.85-4.88-2.21,3.67-4.44,7.36-5.93,11.38-.33.89-.63,1.81-.71,2.75-.09.95.05,1.94.54,2.75.56.93,1.5,1.55,2.44,2.08,1.38.79,2.83,1.46,4.32,2.02-3.31-.16-6.44-1.44-9.5-2.71" class="cls-3"/><path d="m111.57,223.21c-1.53-4.4-3.25-8.72-5.15-12.97-.14.08-.28.16-.42.24.47.95.97,1.88,1.52,2.78.27.45.56.9.85,1.34.19.28.38.64.66.83,1.44.95,1.54-2.72,1.56-3.44h-.48c0,1.06,0,2.12.12,3.17.08.73.14,1.61.47,2.27.77,1.53,2.33-.54,2.82-1.26,1.16-1.7,2.13-3.56,3.17-5.33,1.12-1.91,2.23-3.82,3.34-5.73.16-.27-.26-.51-.42-.24-1.27,2.1-2.53,4.2-3.67,6.37-1.07,2.04-2.13,4.19-2.74,6.42-.53,1.95-.38,4.04,1.23,5.43,1.67,1.44,3.93,2.35,5.97,3.13.02-.16.04-.32.06-.47-3.31-.19-6.4-1.45-9.44-2.7-.29-.12-.41.35-.13.47,3.08,1.27,6.2,2.53,9.56,2.72.29.02.3-.38.06-.47-1.95-.74-4.16-1.62-5.76-3-1.9-1.65-1.48-4.08-.7-6.19,1.48-4.05,3.73-7.76,5.95-11.44-.14-.08-.28-.16-.42-.24-1.76,3.01-3.5,6.02-5.27,9.02-.39.65-.76,1.32-1.18,1.95-.22.33-.46.66-.73.95-.13.14-.26.28-.41.4-.11.08-.22.16-.33.25-.21-.12-.42-.23-.63-.35-.19-.26-.22-.89-.27-1.2-.08-.46-.12-.92-.15-1.38-.06-.84-.06-1.68-.06-2.52,0-.31-.47-.31-.48,0-.03.8-.13,1.59-.32,2.37-.05.18-.09.35-.15.53-.36.15-.59.04-.71-.31-.18-.25-.34-.51-.51-.77-.74-1.15-1.4-2.35-2.01-3.57-.14-.28-.54-.04-.42.24,1.89,4.21,3.59,8.5,5.11,12.86.1.29.57.17.47-.13" class="cls-3"/><path d="m98.17,249.72s-6.35-20.54,5.71-26.71c0,0,2.67-1.38,6.77-.1,3.04.95,7.29,2.16,9.3,2.73.74.21,1.33.77,1.58,1.5.4,1.18.96,3.17,1.22,5.62.43,4.02,2.41,6.38,2.41,6.38l1.5,1.72-4.55,2.62-4.3.08c.81.48-4.97-.46-7.45,2.29-2.47,2.74-3.04,5.63-3.04,5.63l-1.39.23-1.26-.28-1.53-.02-2.57-.56-2.42-1.15Z" class="cls-7"/><path d="m104.66,252.58s-2.03-1.61-4.07-1.55l-2.21-1.02-2.33-1.91-1.26,1.02,1.37,2.99,1.79,1.26-5.74,5.62,1.02,3.23,1.26.06-1.67,3.35,2.75,1.38,1.2-.24,2.15.84-.18.42,1.38,1.32,6.34.36,3.71-2.21s.6-11.06-5.5-14.89Z" class="cls-16"/><path d="m98.09,249.77s-6.27-20.59,5.79-26.75c0,0,2.67-1.38,6.77-.1,3.04.95,7.29,2.16,9.3,2.73.74.21,1.33.77,1.58,1.5.4,1.18.96,3.17,1.22,5.62.43,4.02,2.41,6.38,2.41,6.38l1.5,1.72" class="cls-16"/><path d="m103.4,251.56l1.85-.12.6.42,1.61-.18s1.73-6.7,5.68-7.53c3.95-.84,5.56.24,9.98-1.26l2.74-1.75c.9-.58,1.96-.86,3.03-.8l2,.1,10.52-3.77" class="cls-16"/><path d="m108.32,222.48s2.65.47,4.53,6.09c1.7,5.11,2.25,8.42,6.38,15.26" class="cls-16"/><path d="m122.76,274.3s2.54-.62,3.2-4.58" class="cls-7"/><path d="m122.76,274.3s2.54-.62,3.2-4.58" class="cls-16"/><path d="m116.78,214.7c2.03-2.02,4.31-3.76,6.78-5.19.27-.16.03-.57-.24-.42-2.51,1.45-4.82,3.22-6.88,5.26-.22.22.12.56.34.34" class="cls-3"/><path d="m102,251.21l1.19.5,2.42-.38.34.4,1.39-.23s1.07-3.31,2.76-5.31c0,0-4.3,5.22-8.1,5.03" class="cls-3"/><path d="m102,251.21l1.19.5,2.42-.38.34.4,1.39-.23s1.07-3.31,2.76-5.31c0,0-4.3,5.22-8.1,5.03Z" class="cls-16"/><path d="m43.38,233.01c.65,1.12,1.01,2.34,1.38,3.57.38,1.27.76,2.54,1.14,3.8.76,2.54,1.53,5.07,2.29,7.61.09.3.55.17.47-.13l-.61-2.05c-.09-.3-.55-.17-.47.13l.61,2.05c.16-.04.31-.09.47-.13-.79-2.63-1.58-5.25-2.37-7.88-.72-2.39-1.23-5.04-2.49-7.22-.16-.27-.57-.03-.42.24" class="cls-3"/><path d="m47.89,245.33c-.76-2.19-1.58-4.35-2.47-6.49-.38-.91-.71-1.9-1.21-2.74-.35-.6-.84-1.09-1.57-1.07.07.12.14.24.21.36.3-.7.55-1.42.76-2.15.08-.3-.38-.43-.47-.13-.16.55-.22,1.09-.17,1.66.03.31.47.31.48,0,0-.22.02-.45.03-.67-.16.02-.32.04-.47.06.11.38.22.77.33,1.15.06.22.41.24.47,0,.09-.41.07-.75-.08-1.14-.11-.28-.55-.18-.47.13.11.39.22.77.34,1.16.09.3.53.17.47-.13-.09-.39-.18-.79-.27-1.18-.15.06-.29.12-.44.19.23.53.47,1.05.7,1.58.14-.08.28-.16.42-.24-.32-.64-.55-1.3-.69-2-.16.04-.31.09-.47.13.48,1.53.97,3.05,1.59,4.52.11.26.51.07.44-.19-.48-1.81-1.15-3.56-2.02-5.22-.14.08-.28.16-.42.24.25.42.5.84.75,1.26.14.23.51.08.44-.19-.15-.56-.3-1.11-.45-1.67-.08-.3-.55-.17-.47.13.15.56.3,1.11.45,1.67.15-.06.29-.12.44-.19-.25-.42-.5-.84-.75-1.26-.16-.27-.56-.03-.42.24.85,1.63,1.51,3.33,1.97,5.11.15-.06.29-.12.44-.19-.61-1.44-1.08-2.92-1.54-4.41-.09-.3-.53-.18-.47.13.15.74.4,1.44.74,2.12.14.28.54.03.42-.24-.23-.53-.47-1.05-.7-1.58-.11-.26-.5-.07-.44.19.09.39.18.79.27,1.18.16-.04.31-.09.47-.13-.11-.39-.22-.77-.34-1.16-.16.04-.31.09-.47.13.12.3.15.56.08.89h.47c-.11-.38-.22-.77-.33-1.15-.08-.27-.46-.21-.47.06,0,.23-.02.45-.03.67h.48c-.05-.53,0-1.02.15-1.54-.16-.04-.31-.09-.47-.13-.19.69-.43,1.37-.71,2.04-.07.16,0,.37.21.36.93-.01,1.32,1.13,1.63,1.84.39.91.78,1.83,1.15,2.76.71,1.77,1.38,3.56,2.01,5.37.1.29.57.17.47-.13" class="cls-3"/><path d="m40.5,249.76c1.53,7.91-.77,16.02.98,23.9.07.3.53.18.47-.13-1.75-7.88.55-16-.98-23.9-.06-.3-.52-.18-.47.13" class="cls-3"/></g><path d="m147.11,306.04c-21.6,21.35-21.79,21.35-43.39,0,21.35,21.6,21.35,21.79,0,43.39,21.6-21.35,21.79-21.35,43.39,0-21.35-21.6-21.35-21.79,0-43.39" class="cls-14"/></svg>