<?xml version="1.0" encoding="UTF-8"?>
<svg id="Capa_1" data-name="Capa 1" xmlns="http://www.w3.org/2000/svg" viewBox="0 0 1080 1080.27">
  <defs>
    <style>
      .cls-1 {
        fill: #139f2c;
        stroke: #139f2c;
        stroke-miterlimit: 10;
      }
    </style>
  </defs>
  <path class="cls-1" d="m238.19,627.89c-23.15-12.37-43.78-22.93-63.96-34.28-36.28-20.4-47.63-55.58-30.23-93.51,8.49-18.51,17.21-36.95,26.82-54.89,8.03-14.97,8.37-28.89.34-44-9.88-18.59-18.98-37.63-27.63-56.84-16.63-36.96-5.19-71.74,30.17-91.82,18.32-10.4,38.49-18.08,55.29-30.44,10.75-7.91,20.15-21.04,24.31-33.74,6.7-20.51,8.01-42.72,12.63-63.98,8.23-37.9,38.54-59.61,77.43-55.48,21.65,2.3,43.15,7.94,64.75,8.11,12.67.1,27.38-4.89,37.65-12.4,16.88-12.35,30.65-28.87,46.16-43.17,30.44-28.06,67.66-27.91,98.3.26,12.42,11.42,25.54,22.38,36.32,35.23,16.41,19.58,35.94,24.98,60.21,19.72,15.76-3.42,31.89-5.27,47.91-7.41,41.92-5.59,72.97,16.17,81.74,57.63,4.21,19.92,8.34,39.94,10.86,60.11,2.25,18.03,11.57,29.23,27.27,37.02,18.24,9.05,36.28,18.57,53.95,28.68,35.11,20.07,46.36,55.02,29.65,92.04-8.66,19.2-20.37,37.29-26.74,57.15-4.08,12.71-4.28,28.79-.26,41.47,6.31,19.87,18.07,37.95,26.79,57.12,17.22,37.85,5.7,72.89-30.73,93.4-20.17,11.36-40.8,21.91-63.48,34.03,6.07,6.43,11.03,11.95,16.27,17.2,68.61,68.65,137.42,137.11,205.63,206.14,6.78,6.86,15.99,20.05,13.5,25.27-3.77,7.91-16.2,13.75-26.03,16.33-38.02,9.98-76.37,18.83-114.84,26.95-11.48,2.42-16.15,7.28-18.59,18.67-8.51,39.82-17.79,79.49-28.03,118.9-2.19,8.44-8.17,19.16-15.18,22.02-5.23,2.13-16.53-5.12-22.4-10.93-78.95-78.2-157.45-156.85-235.91-235.54-5.43-5.44-9.62-12.11-10.67-13.46-25.27,9.79-45.48,23.63-65.78,23.78-20.29.15-40.67-13.41-61.02-20.96.27-1.97.54-3.94.81-5.91-5.52,5.2-11.18,10.25-16.54,15.61-78.11,78.04-156.04,156.28-234.53,233.94-6.8,6.73-18.62,14.85-25.66,13.01-6.81-1.78-12.7-15.03-15.11-24.26-9.07-34.62-18.21-69.39-24.04-104.65-3.61-21.86-13.94-29.99-34.66-33.75-36.58-6.64-72.67-16.06-108.87-24.71-24.76-5.92-28.21-18.12-10.01-36.4,69.48-69.77,139.2-139.3,208.8-208.95,5.38-5.38,10.49-11.04,17.38-18.32ZM334.4,102.07c-18.21.72-31.24,9.51-35.17,28.83-4.34,21.32-8.06,42.78-11.59,64.26-4.16,25.26-16.64,44.27-39.71,56.15-18.73,9.65-37.4,19.43-55.8,29.69-21.97,12.25-27.52,28.63-17.18,51.18,8.49,18.51,17.51,36.78,26.89,54.85,12.67,24.4,12.41,48.26-.38,72.55-9.48,18.01-18.44,36.34-26.87,54.86-9.82,21.58-4.42,37.92,16.45,49.75,18.94,10.73,38.31,20.71,57.59,30.83,22.22,11.67,34.38,30.42,38.74,54.62,3.61,20.04,6.4,40.24,10.44,60.2,5.35,26.45,20.18,36.49,47.08,32.83,20.89-2.84,41.75-5.85,62.62-8.83,22.35-3.2,41.77,3.14,58.15,18.41,13.88,12.95,27.38,26.31,41.02,39.52,27.08,26.21,41.17,26.37,67.74.67,12.64-12.22,25.37-24.35,37.86-36.72,18.22-18.05,39.6-25.7,65.26-21.52,20.8,3.39,41.69,6.34,62.62,8.78,23.53,2.75,37.88-7.1,42.91-30.29,4.61-21.26,7.63-42.85,11.48-64.28,4.23-23.51,16.14-41.61,37.63-52.93,19.26-10.15,38.64-20.1,57.61-30.76,22.04-12.39,27.31-28.52,17.03-51.25-6.36-14.07-12.34-28.51-20.45-41.56-20.8-33.46-19.97-65.91.46-99.12,7.69-12.5,13.47-26.23,19.62-39.62,10.94-23.84,5.72-39.78-17.52-52.74-18.4-10.26-37.06-20.06-55.78-29.72-22.37-11.54-34.54-30.13-38.73-54.47-3.45-20.07-6.38-40.25-10.4-60.21-5.33-26.5-20.12-36.57-46.99-32.93-20.19,2.74-40.4,5.42-60.52,8.58-24.85,3.9-45.7-3.58-63.45-20.93-11.06-10.81-22.23-21.52-33.32-32.31-33.33-32.4-44.14-32.51-76.83-.77-11.1,10.78-22.34,21.41-33.32,32.31-18.21,18.07-39.61,25.62-65.27,21.59-22.9-3.59-45.93-6.29-69.91-9.52Zm529.76,925.86c7.79-33.41,17.54-65.03,22-97.39,3.96-28.76,18.11-40.1,45.48-44.37,32.08-5.01,63.5-14.31,94.12-21.5-66.65-66.68-132.44-132.48-199.13-199.2-3.12,16.49-6.17,34.2-9.86,51.76-9.19,43.68-40.55,65.43-84.5,58.98-17.36-2.55-34.92-4.08-52.05-7.7-23.83-5.03-40.97,3.41-53.19,21.85,78.53,78.67,156.76,157.05,237.14,237.57ZM255.93,669.56c-65.26,65.37-131.22,131.44-195.86,196.18,28,6.48,59.78,16.03,92.26,20.69,27.77,3.99,39.11,17.31,43.24,44.19,5.01,32.56,14.52,64.44,22.14,96.85,80.18-80.21,158.48-158.54,237.08-237.18-12.27-18.33-29.42-26.9-53.23-21.77-14.36,3.09-29.22,3.81-43.77,6.09-56.85,8.9-86.1-12.49-95.35-69.75-2.19-13.53-4.96-26.97-6.51-35.31Z"/>
  <path class="cls-1" d="m287.6,422.31c.32-191.08,205.6-313.21,373.7-222.32,5.56,3.01,10.9,6.42,16.31,9.69,10.44,6.3,16.77,16.24,7.92,25.67-4.51,4.8-17.72,5.14-25.39,2.62-29.12-9.56-56.74-25.5-86.43-31.14-113.66-21.57-229.22,61.7-248.17,176.04-20.25,122.19,59.34,236.82,177.29,255.32,92.3,14.48,178.83-24.77,225.75-102.41,47.37-78.38,41.34-173.48-15.47-249.2-4.46-5.94-9.16-13.09-9.75-20.02-.38-4.4,6.62-13.33,10.34-13.35,7.23-.03,16.89,2.72,21.35,7.92,34.96,40.7,54.1,88.57,58.43,141.83,11.52,141.5-99.3,267.28-239.75,272.89-146.21,5.85-266.38-108.64-266.13-253.55Z"/>
  <path class="cls-1" d="m506.92,482.04c39.79-41.87,77.9-81.98,116.03-122.08,4.35-4.58,7.99-11.1,13.33-13.16,7.88-3.04,19.51-6.81,25.07-3.26,11.3,7.2,6.73,17.97-1.62,26.64-10.22,10.61-20.19,21.48-30.33,32.17-34.79,36.66-69.48,73.4-104.46,109.88-15.99,16.68-21.82,16.5-37.42-.94-21.98-24.59-44.37-48.9-64.77-74.76-4.92-6.23-7.03-21.5-2.94-26.61,8.99-11.23,19.76-4.37,28.02,5.09,18.91,21.65,38,43.14,59.08,67.04Z"/>
</svg>