<?xml version="1.0" encoding="UTF-8"?>
<svg id="Capa_1" data-name="Capa 1" xmlns="http://www.w3.org/2000/svg" xmlns:xlink="http://www.w3.org/1999/xlink" viewBox="0 0 380 239">
  <defs>
    <style>
      .cls-1 {
        letter-spacing: 0em;
      }

      .cls-2, .cls-3, .cls-4, .cls-5, .cls-6, .cls-7, .cls-8, .cls-9, .cls-10 {
        font-family: Coda-ExtraBold, Coda;
        font-weight: 700;
      }

      .cls-2, .cls-4, .cls-10 {
        font-size: 9.43px;
      }

      .cls-2, .cls-11, .cls-5, .cls-9 {
        fill: none;
      }

      .cls-2, .cls-5, .cls-9 {
        stroke: #000;
      }

      .cls-12 {
        letter-spacing: 0em;
      }

      .cls-13 {
        fill: #28304d;
      }

      .cls-13, .cls-11, .cls-14, .cls-15, .cls-16, .cls-17, .cls-18, .cls-19 {
        stroke-width: 0px;
      }

      .cls-3, .cls-15, .cls-7, .cls-20, .cls-10 {
        fill: #fff;
      }

      .cls-3, .cls-8, .cls-9 {
        font-size: 20.93px;
      }

      .cls-21 {
        clip-path: url(#clippath-2);
      }

      .cls-5, .cls-6, .cls-7 {
        font-size: 11.09px;
      }

      .cls-22 {
        letter-spacing: -.03em;
      }

      .cls-23 {
        clip-path: url(#clippath-1);
      }

      .cls-14 {
        fill: #00a6ad;
      }

      .cls-14, .cls-16, .cls-18 {
        fill-rule: evenodd;
      }

      .cls-16 {
        fill: #0080c4;
      }

      .cls-17 {
        fill: #ff5400;
      }

      .cls-24 {
        clip-path: url(#clippath);
      }

      .cls-25 {
        letter-spacing: -.01em;
      }

      .cls-18 {
        fill: #0096c3;
      }

      .cls-19 {
        opacity: .15;
      }

      .cls-20 {
        font-family: UsuziItalic, 'Usuzi Italic';
        font-size: 7.52px;
      }

      .cls-26 {
        letter-spacing: 0em;
      }

      .cls-9 {
        stroke-width: 2px;
      }

      .cls-27 {
        letter-spacing: -.04em;
      }
    </style>
    <clipPath id="clippath">
      <rect class="cls-11" x="-3.04" y="-2.48" width="385.04" height="243.92"/>
    </clipPath>
    <clipPath id="clippath-1">
      <rect class="cls-11" x="-547.24" y="-774.95" width="1528.48" height="626.95"/>
    </clipPath>
    <clipPath id="clippath-2">
      <rect class="cls-11" x="-536.04" y="-2.48" width="506.04" height="269.48"/>
    </clipPath>
    <image id="image" width="1920" height="1080" xlink:href="Vorterix/16x9 a.png"/>
  </defs>
  <g class="cls-24">
    <use transform="translate(-10 -32) scale(.28)" xlink:href="#image"/>
  </g>
  <g>
    <g>
      <path class="cls-17" d="m361.61,11.37l-21.62,6.55s-.1.03-.1.03c-.68.21-1.6.51-2.36,1.64l-5.29,7.87c-.24.36-.31.81-.19,1.23l1.83,6.26c.12.42.43.77.84.94l8.65,3.65c1.33.56,2.36.22,2.99.02-.01,0,9.77-2.95,16.35-4.95l4.31-8.55-3.97-13.91c-.17-.61-.82-.96-1.42-.78Zm-23.68,19.82c-.26.49-.88.67-1.37.41-.49-.27-.67-.88-.41-1.37.27-.49.88-.67,1.37-.41.49.27.67.88.41,1.37Z"/>
      <path class="cls-15" d="m358.85,18.6c0,.53-.43.95-.98.94-.54,0-.97-.43-.96-.96,0-.53.44-.94.99-.94.53,0,.96.42.95.95Zm-1.7-.02c0,.42.31.76.73.76.41,0,.72-.33.73-.74,0-.42-.3-.76-.72-.77-.41,0-.73.33-.73.75Zm.58.49h-.22s0-.95,0-.95c.09-.01.21-.03.36-.03.18,0,.26.03.32.08.06.04.1.11.1.2,0,.12-.09.19-.2.22h0c.09.04.14.12.17.24.03.14.05.2.07.23h-.23s-.04-.12-.07-.23c-.02-.1-.07-.14-.19-.15h-.1s0,.37,0,.37Zm.01-.53h.1c.12,0,.22-.04.22-.14,0-.09-.06-.14-.2-.15-.06,0-.1,0-.12,0v.27Z"/>
      <g>
        <g>
          <path class="cls-15" d="m346.97,22.38v3.62h-1.84v-3.11c0-.67-.38-1.09-1.01-1.09-.72,0-1.17.57-1.17,1.36v2.83h-1.84v-7.32l1.84-.54v3.07c.4-.68,1.07-1.02,1.93-1.03,1.27,0,2.1.86,2.1,2.2Z"/>
          <path class="cls-15" d="m353.23,23.13c0,1.77-1.26,2.94-3.13,2.94s-3.14-1.17-3.14-2.94,1.26-2.93,3.14-2.93,3.13,1.16,3.13,2.93Zm-4.42.02c0,.89.52,1.49,1.29,1.49s1.28-.6,1.28-1.49-.52-1.49-1.28-1.49-1.29.61-1.29,1.49Z"/>
          <path class="cls-15" d="m357.1,25.69c-.42.24-.98.39-1.53.39-1.11,0-1.9-.63-1.9-1.82v-2.53h-.8v-1.2h.8v-1.6h1.83v1.59h1.5v1.21h-1.5v2.25c0,.45.19.64.53.63.19,0,.44-.07.71-.19l.36,1.28Z"/>
          <path class="cls-15" d="m345.47,27.91l-.63,1.19c-.69-.37-1.33-.57-1.81-.57-.33,0-.56.13-.56.39,0,.79,3.02.4,3.01,2.4,0,1.18-1.03,1.83-2.42,1.83-.96,0-1.88-.28-2.58-.81l.59-1.17c.65.46,1.39.71,2.03.71.36,0,.63-.13.63-.39,0-.84-2.97-.4-2.96-2.42,0-1.18,1-1.82,2.33-1.82.83,0,1.66.23,2.36.65Z"/>
          <path class="cls-15" d="m350.85,29.34v3.75h-1.8v-.66c-.37.49-.98.74-1.76.74-1.22,0-1.97-.74-1.97-1.8s.78-1.72,2.2-1.73h1.51v-.09c0-.56-.37-.9-1.12-.9-.48,0-1.11.17-1.71.48l-.52-1.21c.89-.42,1.7-.65,2.66-.65,1.57,0,2.49.78,2.5,2.08Zm-1.81,1.8v-.51h-1.16c-.55,0-.83.19-.83.62s.3.68.81.68c.57,0,1.06-.32,1.18-.79Z"/>
          <path class="cls-15" d="m359.49,30.71h-4.03c.18.68.67,1.06,1.35,1.06.5,0,.99-.2,1.37-.59l.97.95c-.59.64-1.45,1.01-2.5,1.01-1.87,0-3.04-1.17-3.04-2.92s1.21-2.95,2.99-2.95c2.02,0,3.02,1.33,2.89,3.43Zm-1.77-.99c0-.7-.45-1.16-1.11-1.16s-1.07.47-1.19,1.16h2.3Z"/>
          <path class="cls-15" d="m351.46,33.08v-6.49c.73-.23,1.34-.63,1.84-1.3v7.79h-1.84Z"/>
        </g>
        <g>
          <path class="cls-15" d="m340.68,35.88c0,.16-.11.28-.27.28s-.27-.12-.27-.28.11-.27.27-.27.27.11.27.27Z"/>
          <path class="cls-15" d="m342.45,34.64l-.36.26c-.1-.12-.24-.2-.43-.2-.26,0-.44.2-.44.5s.18.51.44.51c.19,0,.34-.07.43-.22l.37.25c-.16.26-.45.41-.83.41-.57,0-.95-.38-.95-.95s.39-.96.96-.96c.36,0,.64.14.81.39Z"/>
          <path class="cls-15" d="m344.33,35.2c0,.57-.4.95-1,.95s-1-.39-1-.95.4-.95,1-.95,1,.38,1,.95Zm-1.47,0c0,.31.19.51.47.51s.47-.21.47-.51-.19-.51-.47-.51-.47.21-.47.51Z"/>
          <path class="cls-15" d="m347.59,34.96v1.17h-.53v-1.02c0-.24-.14-.38-.36-.38-.26,0-.41.2-.41.48v.92h-.53v-1.02c0-.24-.14-.38-.36-.38-.26,0-.42.2-.42.48v.92h-.53v-1.87h.53v.32c.13-.23.35-.34.63-.34.32,0,.54.16.63.43.12-.29.36-.43.67-.43.41,0,.67.28.67.72Z"/>
          <path class="cls-15" d="m348.23,35.88c0,.16-.11.28-.27.28s-.27-.12-.27-.28.11-.27.27-.27.27.11.27.27Z"/>
          <path class="cls-15" d="m349.47,35.91c-.12.16-.33.24-.59.24-.4,0-.64-.24-.64-.58s.25-.56.71-.56h.51v-.03c0-.2-.13-.31-.39-.31-.17,0-.36.06-.56.16l-.17-.37c.28-.14.52-.22.84-.22.5,0,.79.25.79.67v1.22s-.52,0-.52,0v-.22Zm0-.42v-.17h-.42c-.2,0-.31.06-.31.21s.11.24.29.24c.23,0,.4-.12.43-.28Z"/>
          <path class="cls-15" d="m350.74,34.6c.13-.23.34-.35.62-.36v.5c-.38-.03-.62.17-.62.49v.9h-.53v-1.87h.53v.34Z"/>
        </g>
      </g>
      <path class="cls-19" d="m360.31,29.27c.24-.38,1.16-1.36,1.16-1.36l1.22,6.7-2.3-3.92c-.38-.59-.24-1.16-.08-1.42Z"/>
      <path class="cls-13" d="m367,26.05c-.41.12-3,.9-4.93,1.48-.72.22-1.13.97-.93,1.69l1.54,5.38,4.31-8.55Z"/>
    </g>
    <g>
      <g>
        <path class="cls-16" d="m360.4,45c.63,0,1.14-.51,1.14-1.14s-.51-1.14-1.14-1.14-1.14.51-1.14,1.14.51,1.14,1.14,1.14m0,.6c.44,0,.84-.16,1.14-.43v.43h.6v-1.69s0-.03,0-.05c0-.96-.78-1.74-1.74-1.74s-1.74.78-1.74,1.74.78,1.74,1.74,1.74Z"/>
        <path class="cls-16" d="m357.66,45.6c.41,0,.78-.14,1.08-.38-.13-.15-.24-.32-.32-.51-.2.18-.47.29-.76.29-.63,0-1.14-.51-1.14-1.14s.51-1.14,1.14-1.14c.29,0,.56.11.76.29.08-.19.19-.36.32-.51-.3-.24-.67-.38-1.08-.38-.96,0-1.74.78-1.74,1.74s.78,1.74,1.74,1.74"/>
        <path class="cls-14" d="m368.07,43.55h-2.2c.13-.48.58-.84,1.1-.84s.97.36,1.1.84m-1.1,2.04c.51,0,.98-.22,1.3-.58l-.39-.46h0c-.21.27-.53.44-.9.44-.53,0-.97-.36-1.1-.84h2.82c.02-.09.03-.2.03-.3,0-.96-.78-1.74-1.74-1.74s-1.74.78-1.74,1.74.78,1.74,1.74,1.74Z"/>
        <path class="cls-18" d="m364.24,45.6c.41,0,.78-.14,1.08-.38-.13-.15-.24-.32-.32-.51-.2.18-.47.29-.76.29-.63,0-1.14-.51-1.14-1.14s.51-1.14,1.14-1.14c.29,0,.56.11.76.29.08-.19.19-.36.32-.51-.3-.24-.67-.38-1.08-.38-.96,0-1.74.78-1.74,1.74s.78,1.74,1.74,1.74"/>
      </g>
      <g>
        <path class="cls-15" d="m331.84,45.1c-.15.14-.37.21-.65.21s-.51-.07-.67-.2c-.16-.14-.24-.35-.24-.65v-1.43h.3v1.43c0,.2.05.35.16.46.11.1.26.15.46.15.19,0,.33-.05.43-.15.1-.1.15-.26.15-.46v-1.43h.3v1.43c0,.29-.08.5-.23.64Z"/>
        <path class="cls-15" d="m332.79,43.64v.26h0c.11-.2.29-.29.53-.29.11,0,.2.01.27.04.07.03.13.07.17.12.04.05.07.11.09.19.02.07.03.15.03.24v1.06h-.27v-1.1c0-.1-.03-.18-.09-.24-.06-.06-.14-.09-.24-.09-.08,0-.15.01-.21.04-.06.03-.11.06-.15.11-.04.05-.07.1-.09.16-.02.06-.03.13-.03.2v.91h-.27v-1.62h.25Z"/>
        <path class="cls-15" d="m335.74,45.26s-.11.04-.19.04c-.07,0-.12-.02-.16-.06-.04-.04-.06-.1-.06-.19-.07.09-.16.15-.26.19-.1.04-.2.06-.31.06-.07,0-.14,0-.21-.02-.07-.02-.12-.04-.17-.08-.05-.04-.09-.08-.11-.14-.03-.06-.04-.13-.04-.21,0-.09.02-.17.05-.23.03-.06.07-.11.12-.14.05-.04.11-.06.18-.08.07-.02.13-.03.2-.05.07-.01.14-.03.21-.03.07,0,.12-.02.17-.03.05-.01.09-.03.12-.06.03-.03.04-.06.04-.11,0-.06-.01-.11-.03-.14-.02-.04-.05-.06-.08-.08-.03-.02-.07-.03-.12-.04-.04,0-.09,0-.13,0-.11,0-.21.02-.28.06-.08.04-.12.12-.12.24h-.27c0-.1.03-.18.06-.25.04-.07.09-.12.15-.17.06-.04.13-.07.21-.09.08-.02.17-.03.26-.03.07,0,.15,0,.22.02s.14.03.2.06c.06.03.11.08.14.14.04.06.05.13.05.23v.83c0,.06,0,.11.01.14,0,.03.03.04.07.04.02,0,.05,0,.08-.01v.21Zm-.43-.83s-.08.04-.13.05c-.05.01-.11.02-.17.03-.06,0-.12.02-.18.02-.06,0-.11.02-.16.05-.05.02-.09.05-.12.09-.03.04-.05.09-.05.16,0,.04,0,.08.03.11.02.03.04.05.07.07.03.02.06.03.1.04.04,0,.08.01.12.01.09,0,.16-.01.23-.04.06-.02.11-.05.15-.09.04-.04.07-.08.09-.12.02-.04.03-.08.03-.12v-.27Z"/>
      </g>
      <g>
        <path class="cls-15" d="m337.3,43.35v-.33h.27v.33h-.27Zm.27.29v1.62h-.27v-1.62h.27Z"/>
        <path class="cls-15" d="m338.26,43.64v.26h0c.11-.2.29-.29.53-.29.11,0,.2.01.27.04.07.03.13.07.17.12.04.05.07.11.09.19.02.07.03.15.03.24v1.06h-.27v-1.1c0-.1-.03-.18-.09-.24-.06-.06-.14-.09-.24-.09-.08,0-.15.01-.21.04-.06.03-.11.06-.15.11-.04.05-.07.1-.09.16-.02.06-.03.13-.03.2v.91h-.27v-1.62h.25Z"/>
        <path class="cls-15" d="m339.79,43.35v-.33h.27v.33h-.27Zm.27.29v1.62h-.27v-1.62h.27Z"/>
        <path class="cls-15" d="m341.47,43.93c-.07-.06-.16-.08-.27-.08-.1,0-.18.02-.24.05-.06.04-.12.08-.15.14-.04.06-.07.13-.08.2s-.03.15-.03.24c0,.08,0,.15.03.22.02.07.05.13.08.19.04.06.09.1.15.13s.13.05.22.05c.13,0,.23-.03.31-.1.07-.07.12-.17.14-.29h.27c-.03.2-.1.35-.22.46-.12.11-.28.16-.49.16-.12,0-.23-.02-.33-.06-.09-.04-.17-.1-.24-.17-.06-.07-.11-.16-.14-.26-.03-.1-.05-.21-.05-.33s.02-.23.05-.34c.03-.11.08-.2.14-.28.06-.08.14-.14.24-.18.1-.04.21-.07.33-.07.09,0,.18.01.26.03.08.02.15.06.21.1.06.05.11.1.15.17.04.07.06.15.08.25h-.28c-.02-.1-.06-.18-.13-.24Z"/>
        <path class="cls-15" d="m342.23,43.35v-.33h.27v.33h-.27Zm.27.29v1.62h-.27v-1.62h.27Z"/>
        <path class="cls-15" d="m344.38,45.26s-.11.04-.19.04c-.07,0-.12-.02-.16-.06-.04-.04-.06-.1-.06-.19-.07.09-.16.15-.26.19-.1.04-.2.06-.31.06-.07,0-.14,0-.21-.02-.07-.02-.12-.04-.17-.08s-.09-.08-.11-.14c-.03-.06-.04-.13-.04-.21,0-.09.02-.17.05-.23.03-.06.07-.11.12-.14.05-.04.11-.06.18-.08.07-.02.13-.03.2-.05.07-.01.14-.03.21-.03.07,0,.12-.02.17-.03.05-.01.09-.03.12-.06.03-.03.04-.06.04-.11,0-.06-.01-.11-.03-.14-.02-.04-.05-.06-.08-.08-.03-.02-.07-.03-.12-.04-.04,0-.09,0-.13,0-.11,0-.21.02-.28.06-.08.04-.12.12-.12.24h-.27c0-.1.03-.18.06-.25.04-.07.09-.12.15-.17.06-.04.13-.07.21-.09.08-.02.17-.03.26-.03.07,0,.15,0,.22.02.07.01.14.03.2.06.06.03.11.08.14.14.04.06.05.13.05.23v.83c0,.06,0,.11.01.14,0,.03.03.04.07.04.02,0,.05,0,.08-.01v.21Zm-.43-.83s-.08.04-.13.05c-.05.01-.11.02-.17.03-.06,0-.12.02-.18.02-.06,0-.11.02-.16.05-.05.02-.09.05-.12.09-.03.04-.05.09-.05.16,0,.04,0,.08.03.11.02.03.04.05.07.07.03.02.06.03.1.04.04,0,.08.01.12.01.09,0,.16-.01.23-.04.06-.02.11-.05.15-.09.04-.04.07-.08.09-.12.02-.04.03-.08.03-.12v-.27Z"/>
        <path class="cls-15" d="m345.35,43.64v.23h-.32v1s0,.06,0,.08c0,.02.02.03.03.04.01.01.03.02.06.02.03,0,.06,0,.1,0h.12v.23h-.2c-.07,0-.13,0-.18-.01-.05,0-.09-.03-.12-.05-.03-.03-.05-.06-.07-.11-.01-.05-.02-.11-.02-.18v-1.03h-.28v-.23h.28v-.48h.27v.48h.32Z"/>
        <path class="cls-15" d="m345.69,43.35v-.33h.27v.33h-.27Zm.27.29v1.62h-.27v-1.62h.27Z"/>
        <path class="cls-15" d="m346.84,45.26l-.6-1.62h.3l.45,1.35h0l.44-1.35h.28l-.59,1.62h-.28Z"/>
        <path class="cls-15" d="m349.43,45.26s-.11.04-.19.04c-.07,0-.12-.02-.16-.06-.04-.04-.06-.1-.06-.19-.07.09-.16.15-.26.19-.1.04-.2.06-.31.06-.07,0-.14,0-.21-.02-.07-.02-.12-.04-.17-.08-.05-.04-.09-.08-.11-.14-.03-.06-.04-.13-.04-.21,0-.09.02-.17.05-.23.03-.06.07-.11.12-.14.05-.04.11-.06.18-.08.07-.02.13-.03.2-.05.07-.01.14-.03.21-.03.07,0,.12-.02.17-.03.05-.01.09-.03.12-.06.03-.03.04-.06.04-.11,0-.06-.01-.11-.03-.14-.02-.04-.05-.06-.08-.08-.03-.02-.07-.03-.12-.04-.04,0-.09,0-.13,0-.11,0-.21.02-.28.06-.08.04-.12.12-.12.24h-.27c0-.1.03-.18.06-.25.04-.07.09-.12.15-.17.06-.04.13-.07.21-.09.08-.02.17-.03.26-.03.07,0,.15,0,.22.02s.14.03.2.06c.06.03.11.08.14.14.04.06.05.13.05.23v.83c0,.06,0,.11.01.14,0,.03.03.04.07.04.02,0,.05,0,.08-.01v.21Zm-.43-.83s-.08.04-.13.05c-.05.01-.11.02-.17.03s-.12.02-.18.02c-.06,0-.11.02-.16.05-.05.02-.09.05-.12.09-.03.04-.05.09-.05.16,0,.04,0,.08.03.11.02.03.04.05.07.07.03.02.06.03.1.04.04,0,.08.01.12.01.09,0,.16-.01.23-.04.06-.02.11-.05.15-.09.04-.04.07-.08.09-.12.02-.04.03-.08.03-.12v-.27Z"/>
      </g>
      <g>
        <path class="cls-15" d="m352.25,45.26v-.22h0c-.04.09-.11.15-.21.19-.09.04-.2.06-.31.06-.13,0-.23-.02-.33-.07-.09-.05-.17-.11-.23-.18-.06-.08-.11-.17-.14-.27s-.05-.21-.05-.33.02-.22.05-.33c.03-.1.08-.19.14-.27.06-.08.14-.14.23-.18.09-.04.2-.07.32-.07.04,0,.09,0,.13.01.05,0,.1.02.14.04.05.02.09.05.14.08.04.03.08.07.11.12h0v-.83h.27v2.23h-.27Zm-.96-.57c.02.07.05.14.09.19.04.06.09.1.16.13s.14.05.22.05c.09,0,.17-.02.23-.05.06-.04.11-.08.15-.14.04-.06.07-.12.09-.2.02-.07.03-.15.03-.22,0-.08,0-.16-.03-.23-.02-.07-.05-.14-.09-.2-.04-.06-.09-.1-.16-.14-.06-.03-.14-.05-.23-.05s-.17.02-.23.05c-.06.04-.11.08-.15.14-.04.06-.06.13-.08.2-.02.08-.02.15-.02.23,0,.08,0,.15.03.22Z"/>
        <path class="cls-15" d="m354.1,45.16c-.12.09-.27.14-.46.14-.13,0-.24-.02-.34-.06-.09-.04-.17-.1-.24-.18-.06-.08-.11-.16-.15-.27-.03-.1-.05-.22-.05-.34,0-.12.02-.24.06-.34.04-.1.09-.19.16-.27.07-.08.15-.13.24-.18s.19-.06.31-.06c.14,0,.26.03.36.09.09.06.17.14.23.23.06.09.1.19.12.3.02.11.03.21.03.31h-1.21c0,.07,0,.14.03.2.02.06.05.12.09.17s.09.09.16.12c.06.03.14.04.23.04.11,0,.2-.03.28-.08.07-.05.12-.13.14-.24h.26c-.04.18-.11.32-.23.41Zm-.06-1.04c-.02-.06-.06-.1-.1-.15-.04-.04-.09-.07-.14-.1-.06-.02-.12-.04-.18-.04s-.13.01-.19.04c-.06.02-.1.06-.14.1-.04.04-.07.09-.09.15-.02.06-.04.11-.04.18h.93c0-.06-.02-.12-.04-.18Z"/>
      </g>
    </g>
  </g>
  <g class="cls-23">
    <use transform="translate(-802.76 -1272) scale(1.32)" xlink:href="#image"/>
  </g>
  <g class="cls-21">
    <use transform="translate(-540 -59.91) scale(.38)" xlink:href="#image"/>
  </g>
  <g>
    <text class="cls-8" transform="translate(62.53 125.08) scale(1.04 1)"><tspan x="0" y="0">¡</tspan><tspan class="cls-27" x="7.35" y="0">Y</tspan><tspan x="21.66" y="0">A LLEGA EL HOT SALE!</tspan></text>
    <text class="cls-9" transform="translate(62.53 125.08) scale(1.04 1)"><tspan x="0" y="0">¡</tspan><tspan class="cls-27" x="7.35" y="0">Y</tspan><tspan x="21.66" y="0">A LLEGA EL HOT SALE!</tspan></text>
  </g>
  <text class="cls-3" transform="translate(62.53 125.08) scale(1.04 1)"><tspan x="0" y="0">¡</tspan><tspan class="cls-27" x="7.35" y="0">Y</tspan><tspan x="21.66" y="0">A LLEGA EL HOT SALE!</tspan></text>
  <g>
    <text class="cls-6" transform="translate(134.14 140.33) scale(1.04 1)"><tspan x="0" y="0">cuen</tspan><tspan class="cls-12" x="31.83" y="0">t</tspan><tspan x="36.93" y="0">a </tspan><tspan class="cls-25" x="46.84" y="0">r</tspan><tspan x="52.02" y="0">eg</tspan><tspan class="cls-25" x="67.8" y="0">r</tspan><tspan x="72.98" y="0">esi</tspan><tspan class="cls-1" x="92.56" y="0">v</tspan><tspan class="cls-26" x="99.72" y="0">a</tspan></text>
    <text class="cls-5" transform="translate(134.14 140.33) scale(1.04 1)"><tspan x="0" y="0">cuen</tspan><tspan class="cls-12" x="31.83" y="0">t</tspan><tspan x="36.93" y="0">a </tspan><tspan class="cls-25" x="46.84" y="0">r</tspan><tspan x="52.02" y="0">eg</tspan><tspan class="cls-25" x="67.8" y="0">r</tspan><tspan x="72.98" y="0">esi</tspan><tspan class="cls-1" x="92.56" y="0">v</tspan><tspan class="cls-26" x="99.72" y="0">a</tspan></text>
  </g>
  <text class="cls-7" transform="translate(134.14 140.33) scale(1.04 1)"><tspan x="0" y="0">cuen</tspan><tspan class="cls-12" x="31.83" y="0">t</tspan><tspan x="36.93" y="0">a </tspan><tspan class="cls-25" x="46.84" y="0">r</tspan><tspan x="52.02" y="0">eg</tspan><tspan class="cls-25" x="67.8" y="0">r</tspan><tspan x="72.98" y="0">esi</tspan><tspan class="cls-1" x="92.56" y="0">v</tspan><tspan class="cls-26" x="99.72" y="0">a</tspan></text>
  <g>
    <g>
      <text class="cls-4" transform="translate(123.05 200.78) scale(1.04 1)"><tspan x="0" y="0">días</tspan></text>
      <text class="cls-2" transform="translate(123.05 200.78) scale(1.04 1)"><tspan x="0" y="0">días</tspan></text>
    </g>
    <g>
      <text class="cls-4" transform="translate(229.49 200.78) scale(1.04 1)"><tspan x="0" y="0">segs</tspan></text>
      <text class="cls-2" transform="translate(229.49 200.78) scale(1.04 1)"><tspan x="0" y="0">segs</tspan></text>
    </g>
    <g>
      <text class="cls-4" transform="translate(163.39 200.78) scale(1.04 1)"><tspan x="0" y="0">hs</tspan></text>
      <text class="cls-2" transform="translate(163.39 200.78) scale(1.04 1)"><tspan x="0" y="0">hs</tspan></text>
    </g>
    <g>
      <text class="cls-4" transform="translate(195.75 200.78) scale(1.04 1)"><tspan x="0" y="0">min</tspan></text>
      <text class="cls-2" transform="translate(195.75 200.78) scale(1.04 1)"><tspan x="0" y="0">min</tspan></text>
    </g>
    <text class="cls-10" transform="translate(123.05 200.78) scale(1.04 1)"><tspan x="0" y="0">días</tspan></text>
    <text class="cls-10" transform="translate(229.49 200.78) scale(1.04 1)"><tspan x="0" y="0">segs</tspan></text>
    <text class="cls-10" transform="translate(163.39 200.78) scale(1.04 1)"><tspan x="0" y="0">hs</tspan></text>
    <text class="cls-10" transform="translate(195.75 200.78) scale(1.04 1)"><tspan x="0" y="0">min</tspan></text>
  </g>
  <g>
    <text class="cls-20" transform="translate(36.68 34.63)"><tspan x="0" y="0">GAMING HAR</tspan><tspan class="cls-22" x="51.3" y="0">DW</tspan><tspan x="64.43" y="0">ARE </tspan></text>
    <g>
      <path class="cls-15" d="m52.15,19.33l-5.16,4.74-1.94-4.74h-3.06l-.63,1.83-2.64,7.65h3.19l1.23-3.58.27-.8,1.73,4.04h.57l4.53-4.04-1.5,4.38h3.2l3.27-9.48h-3.06Z"/>
      <path class="cls-15" d="m66.36,20.02c-.38-.46-1.17-.69-2.38-.69h-3.97c-1.21,0-2.17.23-2.88.69-.71.46-1.23,1.17-1.55,2.12l-2.29,6.67h3.19l1.23-3.54h4.49l-1.03,2.98h0l-.19.56h3.17l.58-1.7h0l1.7-4.96c.33-.95.3-1.65-.07-2.12Zm-7.8,2.77c.14-.34.33-.59.56-.75.23-.16.62-.25,1.15-.25h1.75c.52,0,.84.08.96.25.12.16.14.41.05.75h-4.48Z"/>
      <path class="cls-15" d="m76.08,19.33l-2.86,2.48-1.13-2.48h-3.66l2.17,4.75-1.53,1.33-3.91,3.4h3.68l2.81-2.43,1.15,2.43h3.66l-2.19-4.72,4.41-3.84h0s1.05-.91,1.05-.91h-3.64Z"/>
      <path class="cls-15" d="m80.67,19.33l-3.27,9.48h3.15l3.27-9.48h-3.15Z"/>
      <path class="cls-15" d="m95.34,19.33l-5.16,4.74-1.94-4.74h-3.05l-3.27,9.48h3.19l1.5-4.38,1.73,4.04h.57l4.53-4.04-1.5,4.38h3.2l3.27-9.48h-3.05Z"/>
      <path class="cls-15" d="m107.43,19.33l-2.01,5.82c-.06.2-.14.37-.23.52-.09.15-.2.28-.33.38-.13.1-.29.17-.49.22-.2.05-.44.07-.73.07h-1.75c-.29,0-.52-.02-.69-.07-.16-.05-.28-.12-.34-.22-.06-.1-.09-.22-.06-.38.02-.15.06-.33.13-.52l2.01-5.82h-3.19l-2.3,6.67c-.33.96-.3,1.67.08,2.12.38.46,1.18.69,2.4.69h3.97c1.21,0,2.16-.23,2.86-.7.7-.46,1.21-1.17,1.54-2.12l2.3-6.67h-3.17Z"/>
      <path class="cls-15" d="m123,19.33h-8.53c-.64,0-1.22.16-1.73.48-.51.32-.94.74-1.29,1.27-.04.04-.08.1-.1.15-.02.06-.05.14-.08.24-.15.45-.18.87-.09,1.26.09.39.27.7.53.91l4.23,2.38.42.24s.01.03.03.03h-6.8l-.87,2.52h8.55c.64,0,1.21-.16,1.72-.47.5-.32.93-.73,1.27-1.26.08-.06.15-.2.21-.41,0,0,0,0,0,0,.1-.29.14-.56.12-.81-.02-.25-.06-.47-.14-.66-.08-.19-.16-.35-.25-.47-.09-.12-.16-.19-.2-.21l-4.66-2.65s-.02,0-.02-.02h6.8l.87-2.52Z"/>
    </g>
    <path class="cls-15" d="m24.45,16.53c-5.77,0-10.45,4.68-10.45,10.45,0,2.56.92,4.9,2.45,6.72,1.92,2.28,4.79,3.73,8,3.73,4.18,0,7.79-2.46,9.46-6.01.63-1.35.99-2.85.99-4.44,0-5.77-4.68-10.45-10.45-10.45Zm0,18.92c-2.22,0-4.25-.86-5.76-2.26-1.67-1.55-2.72-3.76-2.72-6.22,0-4.68,3.79-8.48,8.47-8.48s8.48,3.8,8.48,8.48c0,1.67-.48,3.23-1.32,4.55-1.5,2.36-4.14,3.93-7.15,3.93Z"/>
    <path class="cls-15" d="m28.52,23.18c-.07.05-.45,1.47-.1-.54.1-.58-.21-1.03-.63-1.38-1.1-.91-2.8-1.18-4.18-.97-.94.14-2.12.46-2.78,1.21-.27.31-.41.73-.34,1.14.35,2.02-.03.6-.1.54,0,0-.62,6.01-.45,6.59.13.46,2.4,1.99,3.34,2.61.06.04.11.07.16.1l.4,1.25-.14-1.09s0,0,0,0c0,0-.01-.12-.03-.33-.09-.88-.33-3.35-.3-5.33,0,0-2.08-1.68-2.2-1.86-.11-.18,0-.22-.11-.38.08.04,2.77,1.43,2.77,1.53s.18,2.54.21,2.66c.04.12.42.45.42.45,0,0,.39-.33.42-.45.04-.12.21-2.56.21-2.66s2.68-1.49,2.77-1.53c-.11.16,0,.2-.11.38-.11.18-2.2,1.86-2.2,1.86.02,1.42-.1,3.41-.2,4.43l-.09.68-.21,1.63.39-1.23c.18-.12.45-.3.77-.51,1.08-.73,2.65-1.84,2.76-2.22.17-.58-.45-6.59-.45-6.59Zm-4.67-2.59c-.55.23-1.13.47-1.59.86-.29.25-.51.56-.63.92-.09.26-.12.53-.12.81,0,.14.08.37.04.5-.02.07-.1.09-.15.02-1.81-2.42,2.21-3.05,2.66-3.2-.07.03-.14.06-.22.09Z"/>
  </g>
</svg>