<svg xmlns="http://www.w3.org/2000/svg" xmlns:xlink="http://www.w3.org/1999/xlink" id="Capa_1" x="0" y="0" version="1.1" viewBox="0 0 380 239" style="enable-background:new 0 0 380 239" xml:space="preserve"><style type="text/css">.st0{fill:#ff5400}.st1{fill:#fff}.st2{opacity:.15}.st3{fill:#28304d}.st4{fill:#0080c4}.st4,.st5,.st6{fill-rule:evenodd;clip-rule:evenodd}.st5{fill:#00a6ad}.st6{fill:#0096c3}.st7{stroke-width:2}.st7,.st8{fill:none;stroke:#000}</style><g><defs><rect id="SVGID_1_" width="380" height="239" x="-.1" y=".5"/></defs><clipPath id="SVGID_00000055694751483089762800000000259234960338524335_"><use xlink:href="#SVGID_1_" style="overflow:visible"/></clipPath><g style="clip-path:url(#SVGID_00000055694751483089762800000000259234960338524335_)"><image style="overflow:visible" width="1920" height="1080" transform="matrix(0.2773 0 0 0.2773 -9.4783 -31.9796)" xlink:href="Vorterix/16x9 a.png"/></g></g><g><g><g><g><g><path d="M362.1,11.4l-21.6,6.5c0,0-0.1,0-0.1,0c-0.7,0.2-1.6,0.5-2.4,1.6l-5.3,7.9c-0.2,0.4-0.3,0.8-0.2,1.2 l1.8,6.3c0.1,0.4,0.4,0.8,0.8,0.9l8.6,3.6c1.3,0.6,2.4,0.2,3,0c0,0,9.8-3,16.3-5l4.3-8.6l-4-13.9 C363.4,11.6,362.7,11.2,362.1,11.4z M338.5,31.2c-0.3,0.5-0.9,0.7-1.4,0.4c-0.5-0.3-0.7-0.9-0.4-1.4c0.3-0.5,0.9-0.7,1.4-0.4 C338.5,30.1,338.7,30.7,338.5,31.2z" class="st0"/></g></g><path d="M359.4,18.6c0,0.5-0.4,0.9-1,0.9c-0.5,0-1-0.4-1-1c0-0.5,0.4-0.9,1-0.9C359,17.7,359.4,18.1,359.4,18.6z M357.7,18.6c0,0.4,0.3,0.8,0.7,0.8c0.4,0,0.7-0.3,0.7-0.7c0-0.4-0.3-0.8-0.7-0.8C358,17.9,357.7,18.2,357.7,18.6z M358.3,19.1 l-0.2,0l0-0.9c0.1,0,0.2,0,0.4,0c0.2,0,0.3,0,0.3,0.1c0.1,0,0.1,0.1,0.1,0.2c0,0.1-0.1,0.2-0.2,0.2l0,0c0.1,0,0.1,0.1,0.2,0.2 c0,0.1,0,0.2,0.1,0.2l-0.2,0c0,0,0-0.1-0.1-0.2c0-0.1-0.1-0.1-0.2-0.1l-0.1,0L358.3,19.1z M358.3,18.6l0.1,0c0.1,0,0.2,0,0.2-0.1 c0-0.1-0.1-0.1-0.2-0.1c-0.1,0-0.1,0-0.1,0L358.3,18.6z" class="st1"/><g><g><path d="M347.5,22.4V26h-1.8v-3.1c0-0.7-0.4-1.1-1-1.1c-0.7,0-1.2,0.6-1.2,1.4V26h-1.8v-7.3l1.8-0.5v3.1 c0.4-0.7,1.1-1,1.9-1C346.7,20.2,347.5,21.1,347.5,22.4z" class="st1"/><path d="M353.8,23.1c0,1.8-1.3,2.9-3.1,2.9c-1.9,0-3.1-1.2-3.1-2.9c0-1.8,1.3-2.9,3.1-2.9 C352.5,20.2,353.8,21.4,353.8,23.1z M349.3,23.2c0,0.9,0.5,1.5,1.3,1.5c0.8,0,1.3-0.6,1.3-1.5c0-0.9-0.5-1.5-1.3-1.5 C349.9,21.7,349.3,22.3,349.3,23.2z" class="st1"/><path d="M357.6,25.7c-0.4,0.2-1,0.4-1.5,0.4c-1.1,0-1.9-0.6-1.9-1.8v-2.5h-0.8v-1.2h0.8V19h1.8v1.6h1.5v1.2H356V24 c0,0.4,0.2,0.6,0.5,0.6c0.2,0,0.4-0.1,0.7-0.2L357.6,25.7z" class="st1"/><path d="M346,27.9l-0.6,1.2c-0.7-0.4-1.3-0.6-1.8-0.6c-0.3,0-0.6,0.1-0.6,0.4c0,0.8,3,0.4,3,2.4 c0,1.2-1,1.8-2.4,1.8c-1,0-1.9-0.3-2.6-0.8l0.6-1.2c0.6,0.5,1.4,0.7,2,0.7c0.4,0,0.6-0.1,0.6-0.4c0-0.8-3-0.4-3-2.4 c0-1.2,1-1.8,2.3-1.8C344.5,27.3,345.3,27.5,346,27.9z" class="st1"/><path d="M351.4,29.4v3.7h-1.8v-0.7c-0.4,0.5-1,0.7-1.8,0.7c-1.2,0-2-0.7-2-1.8c0-1.1,0.8-1.7,2.2-1.7h1.5v-0.1 c0-0.6-0.4-0.9-1.1-0.9c-0.5,0-1.1,0.2-1.7,0.5l-0.5-1.2c0.9-0.4,1.7-0.6,2.7-0.6C350.4,27.3,351.4,28.1,351.4,29.4z M349.6,31.2v-0.5h-1.2c-0.6,0-0.8,0.2-0.8,0.6c0,0.4,0.3,0.7,0.8,0.7C349,31.9,349.4,31.6,349.6,31.2z" class="st1"/><path d="M360,30.7h-4c0.2,0.7,0.7,1.1,1.4,1.1c0.5,0,1-0.2,1.4-0.6l1,0.9c-0.6,0.6-1.4,1-2.5,1c-1.9,0-3-1.2-3-2.9 c0-1.8,1.2-2.9,3-2.9C359.1,27.3,360.1,28.6,360,30.7z M358.2,29.7c0-0.7-0.4-1.2-1.1-1.2c-0.6,0-1.1,0.5-1.2,1.2H358.2z" class="st1"/><path d="M352,33.1v-6.5c0.7-0.2,1.3-0.6,1.8-1.3v7.8H352z" class="st1"/></g><g><path d="M341.2,35.9c0,0.2-0.1,0.3-0.3,0.3c-0.2,0-0.3-0.1-0.3-0.3c0-0.2,0.1-0.3,0.3-0.3 C341.1,35.6,341.2,35.7,341.2,35.9z" class="st1"/><path d="M343,34.7l-0.4,0.3c-0.1-0.1-0.2-0.2-0.4-0.2c-0.3,0-0.4,0.2-0.4,0.5c0,0.3,0.2,0.5,0.4,0.5 c0.2,0,0.3-0.1,0.4-0.2l0.4,0.3c-0.2,0.3-0.4,0.4-0.8,0.4c-0.6,0-1-0.4-1-0.9c0-0.6,0.4-1,1-1C342.5,34.3,342.8,34.4,343,34.7z" class="st1"/><path d="M344.9,35.2c0,0.6-0.4,1-1,1c-0.6,0-1-0.4-1-1c0-0.6,0.4-1,1-1C344.5,34.3,344.9,34.6,344.9,35.2z M343.4,35.2c0,0.3,0.2,0.5,0.5,0.5c0.3,0,0.5-0.2,0.5-0.5s-0.2-0.5-0.5-0.5C343.6,34.7,343.4,34.9,343.4,35.2z" class="st1"/><path d="M348.1,35v1.2h-0.5v-1c0-0.2-0.1-0.4-0.4-0.4c-0.3,0-0.4,0.2-0.4,0.5v0.9h-0.5v-1c0-0.2-0.1-0.4-0.4-0.4 c-0.3,0-0.4,0.2-0.4,0.5v0.9H345v-1.9h0.5v0.3c0.1-0.2,0.4-0.3,0.6-0.3c0.3,0,0.5,0.2,0.6,0.4c0.1-0.3,0.4-0.4,0.7-0.4 C347.9,34.3,348.1,34.5,348.1,35z" class="st1"/><path d="M348.7,35.9c0,0.2-0.1,0.3-0.3,0.3c-0.2,0-0.3-0.1-0.3-0.3c0-0.2,0.1-0.3,0.3-0.3 C348.6,35.6,348.7,35.7,348.7,35.9z" class="st1"/><path d="M350,35.9c-0.1,0.2-0.3,0.2-0.6,0.2c-0.4,0-0.6-0.2-0.6-0.6c0-0.4,0.3-0.6,0.7-0.6h0.5v0 c0-0.2-0.1-0.3-0.4-0.3c-0.2,0-0.4,0.1-0.6,0.2l-0.2-0.4c0.3-0.1,0.5-0.2,0.8-0.2c0.5,0,0.8,0.3,0.8,0.7l0,1.2H350V35.9z M350,35.5v-0.2h-0.4c-0.2,0-0.3,0.1-0.3,0.2c0,0.1,0.1,0.2,0.3,0.2C349.8,35.8,350,35.7,350,35.5z" class="st1"/><path d="M351.3,34.6c0.1-0.2,0.3-0.4,0.6-0.4v0.5c-0.4,0-0.6,0.2-0.6,0.5v0.9h-0.5v-1.9h0.5V34.6z" class="st1"/></g></g><path d="M360.8,29.3c0.2-0.4,1.2-1.4,1.2-1.4l1.2,6.7l-2.3-3.9C360.5,30.1,360.7,29.5,360.8,29.3z" class="st2"/><path d="M367.5,26.1c-0.4,0.1-3,0.9-4.9,1.5c-0.7,0.2-1.1,1-0.9,1.7l1.5,5.4L367.5,26.1z" class="st3"/></g></g><g><g><path d="M360.9,45c0.6,0,1.1-0.5,1.1-1.1s-0.5-1.1-1.1-1.1c-0.6,0-1.1,0.5-1.1,1.1S360.3,45,360.9,45 M360.9,45.6 c0.4,0,0.8-0.2,1.1-0.4v0.4h0.6v-1.7c0,0,0,0,0,0c0-1-0.8-1.7-1.7-1.7c-1,0-1.7,0.8-1.7,1.7C359.2,44.8,360,45.6,360.9,45.6z" class="st4"/><path d="M358.2,45.6c0.4,0,0.8-0.1,1.1-0.4c-0.1-0.2-0.2-0.3-0.3-0.5c-0.2,0.2-0.5,0.3-0.8,0.3 c-0.6,0-1.1-0.5-1.1-1.1s0.5-1.1,1.1-1.1c0.3,0,0.6,0.1,0.8,0.3c0.1-0.2,0.2-0.4,0.3-0.5c-0.3-0.2-0.7-0.4-1.1-0.4 c-1,0-1.7,0.8-1.7,1.7C356.4,44.8,357.2,45.6,358.2,45.6" class="st4"/><path d="M368.6,43.6h-2.2c0.1-0.5,0.6-0.8,1.1-0.8C368,42.7,368.5,43.1,368.6,43.6 M367.5,45.6c0.5,0,1-0.2,1.3-0.6 l-0.4-0.5h0c-0.2,0.3-0.5,0.4-0.9,0.4c-0.5,0-1-0.4-1.1-0.8l2.8,0c0-0.1,0-0.2,0-0.3c0-1-0.8-1.7-1.7-1.7c-1,0-1.7,0.8-1.7,1.7 C365.7,44.8,366.5,45.6,367.5,45.6z" class="st5"/><path d="M364.8,45.6c0.4,0,0.8-0.1,1.1-0.4c-0.1-0.2-0.2-0.3-0.3-0.5c-0.2,0.2-0.5,0.3-0.8,0.3 c-0.6,0-1.1-0.5-1.1-1.1s0.5-1.1,1.1-1.1c0.3,0,0.6,0.1,0.8,0.3c0.1-0.2,0.2-0.4,0.3-0.5c-0.3-0.2-0.7-0.4-1.1-0.4 c-1,0-1.7,0.8-1.7,1.7C363,44.8,363.8,45.6,364.8,45.6" class="st6"/></g><g><path d="M332.4,45.1c-0.2,0.1-0.4,0.2-0.7,0.2c-0.3,0-0.5-0.1-0.7-0.2c-0.2-0.1-0.2-0.4-0.2-0.7V43h0.3v1.4 c0,0.2,0.1,0.4,0.2,0.5c0.1,0.1,0.3,0.2,0.5,0.2c0.2,0,0.3-0.1,0.4-0.2c0.1-0.1,0.1-0.3,0.1-0.5V43h0.3v1.4 C332.6,44.8,332.5,45,332.4,45.1z" class="st1"/><path d="M333.3,43.7v0.3h0c0.1-0.2,0.3-0.3,0.5-0.3c0.1,0,0.2,0,0.3,0c0.1,0,0.1,0.1,0.2,0.1c0,0.1,0.1,0.1,0.1,0.2 c0,0.1,0,0.2,0,0.2v1.1h-0.3v-1.1c0-0.1,0-0.2-0.1-0.2c-0.1-0.1-0.1-0.1-0.2-0.1c-0.1,0-0.2,0-0.2,0c-0.1,0-0.1,0.1-0.1,0.1 c0,0-0.1,0.1-0.1,0.2c0,0.1,0,0.1,0,0.2v0.9h-0.3v-1.6H333.3z" class="st1"/><path d="M336.3,45.3c0,0-0.1,0-0.2,0c-0.1,0-0.1,0-0.2-0.1c0,0-0.1-0.1-0.1-0.2c-0.1,0.1-0.2,0.2-0.3,0.2 c-0.1,0-0.2,0.1-0.3,0.1c-0.1,0-0.1,0-0.2,0c-0.1,0-0.1,0-0.2-0.1c0,0-0.1-0.1-0.1-0.1c0-0.1,0-0.1,0-0.2c0-0.1,0-0.2,0-0.2 c0-0.1,0.1-0.1,0.1-0.1c0.1,0,0.1-0.1,0.2-0.1c0.1,0,0.1,0,0.2,0c0.1,0,0.1,0,0.2,0c0.1,0,0.1,0,0.2,0c0.1,0,0.1,0,0.1-0.1 c0,0,0-0.1,0-0.1c0-0.1,0-0.1,0-0.1c0,0-0.1-0.1-0.1-0.1c0,0-0.1,0-0.1,0c0,0-0.1,0-0.1,0c-0.1,0-0.2,0-0.3,0.1 c-0.1,0-0.1,0.1-0.1,0.2h-0.3c0-0.1,0-0.2,0.1-0.3c0-0.1,0.1-0.1,0.2-0.2c0.1,0,0.1-0.1,0.2-0.1c0.1,0,0.2,0,0.3,0 c0.1,0,0.1,0,0.2,0c0.1,0,0.1,0,0.2,0.1c0.1,0,0.1,0.1,0.1,0.1c0,0.1,0.1,0.1,0.1,0.2v0.8c0,0.1,0,0.1,0,0.1c0,0,0,0,0.1,0 c0,0,0.1,0,0.1,0V45.3z M335.8,44.4c0,0-0.1,0-0.1,0.1c-0.1,0-0.1,0-0.2,0c-0.1,0-0.1,0-0.2,0c-0.1,0-0.1,0-0.2,0 c0,0-0.1,0.1-0.1,0.1c0,0,0,0.1,0,0.2c0,0,0,0.1,0,0.1c0,0,0,0.1,0.1,0.1c0,0,0.1,0,0.1,0c0,0,0.1,0,0.1,0c0.1,0,0.2,0,0.2,0 c0.1,0,0.1-0.1,0.2-0.1c0,0,0.1-0.1,0.1-0.1c0,0,0-0.1,0-0.1V44.4z" class="st1"/></g><g><path d="M337.8,43.4V43h0.3v0.3H337.8z M338.1,43.7v1.6h-0.3v-1.6H338.1z" class="st1"/><path d="M338.8,43.7v0.3h0c0.1-0.2,0.3-0.3,0.5-0.3c0.1,0,0.2,0,0.3,0c0.1,0,0.1,0.1,0.2,0.1c0,0.1,0.1,0.1,0.1,0.2 c0,0.1,0,0.2,0,0.2v1.1h-0.3v-1.1c0-0.1,0-0.2-0.1-0.2c-0.1-0.1-0.1-0.1-0.2-0.1c-0.1,0-0.2,0-0.2,0c-0.1,0-0.1,0.1-0.1,0.1 c0,0-0.1,0.1-0.1,0.2c0,0.1,0,0.1,0,0.2v0.9h-0.3v-1.6H338.8z" class="st1"/><path d="M340.3,43.4V43h0.3v0.3H340.3z M340.6,43.7v1.6h-0.3v-1.6H340.6z" class="st1"/><path d="M342,43.9c-0.1-0.1-0.2-0.1-0.3-0.1c-0.1,0-0.2,0-0.2,0.1c-0.1,0-0.1,0.1-0.2,0.1c0,0.1-0.1,0.1-0.1,0.2 c0,0.1,0,0.2,0,0.2c0,0.1,0,0.1,0,0.2c0,0.1,0,0.1,0.1,0.2c0,0.1,0.1,0.1,0.1,0.1c0.1,0,0.1,0.1,0.2,0.1c0.1,0,0.2,0,0.3-0.1 c0.1-0.1,0.1-0.2,0.1-0.3h0.3c0,0.2-0.1,0.4-0.2,0.5c-0.1,0.1-0.3,0.2-0.5,0.2c-0.1,0-0.2,0-0.3-0.1c-0.1,0-0.2-0.1-0.2-0.2 c-0.1-0.1-0.1-0.2-0.1-0.3c0-0.1,0-0.2,0-0.3s0-0.2,0-0.3c0-0.1,0.1-0.2,0.1-0.3c0.1-0.1,0.1-0.1,0.2-0.2c0.1,0,0.2-0.1,0.3-0.1 c0.1,0,0.2,0,0.3,0c0.1,0,0.2,0.1,0.2,0.1c0.1,0,0.1,0.1,0.2,0.2c0,0.1,0.1,0.2,0.1,0.2h-0.3C342.1,44.1,342.1,44,342,43.9z" class="st1"/><path d="M342.8,43.4V43h0.3v0.3H342.8z M343,43.7v1.6h-0.3v-1.6H343z" class="st1"/><path d="M344.9,45.3c0,0-0.1,0-0.2,0c-0.1,0-0.1,0-0.2-0.1c0,0-0.1-0.1-0.1-0.2c-0.1,0.1-0.2,0.2-0.3,0.2 c-0.1,0-0.2,0.1-0.3,0.1c-0.1,0-0.1,0-0.2,0c-0.1,0-0.1,0-0.2-0.1c0,0-0.1-0.1-0.1-0.1c0-0.1,0-0.1,0-0.2c0-0.1,0-0.2,0-0.2 c0-0.1,0.1-0.1,0.1-0.1c0.1,0,0.1-0.1,0.2-0.1c0.1,0,0.1,0,0.2,0c0.1,0,0.1,0,0.2,0c0.1,0,0.1,0,0.2,0c0.1,0,0.1,0,0.1-0.1 c0,0,0-0.1,0-0.1c0-0.1,0-0.1,0-0.1c0,0-0.1-0.1-0.1-0.1c0,0-0.1,0-0.1,0c0,0-0.1,0-0.1,0c-0.1,0-0.2,0-0.3,0.1 c-0.1,0-0.1,0.1-0.1,0.2h-0.3c0-0.1,0-0.2,0.1-0.3c0-0.1,0.1-0.1,0.2-0.2c0.1,0,0.1-0.1,0.2-0.1c0.1,0,0.2,0,0.3,0 c0.1,0,0.1,0,0.2,0c0.1,0,0.1,0,0.2,0.1c0.1,0,0.1,0.1,0.1,0.1c0,0.1,0.1,0.1,0.1,0.2v0.8c0,0.1,0,0.1,0,0.1c0,0,0,0,0.1,0 c0,0,0.1,0,0.1,0V45.3z M344.5,44.4c0,0-0.1,0-0.1,0.1c-0.1,0-0.1,0-0.2,0c-0.1,0-0.1,0-0.2,0c-0.1,0-0.1,0-0.2,0 c0,0-0.1,0.1-0.1,0.1c0,0,0,0.1,0,0.2c0,0,0,0.1,0,0.1c0,0,0,0.1,0.1,0.1c0,0,0.1,0,0.1,0c0,0,0.1,0,0.1,0c0.1,0,0.2,0,0.2,0 c0.1,0,0.1-0.1,0.2-0.1c0,0,0.1-0.1,0.1-0.1c0,0,0-0.1,0-0.1V44.4z" class="st1"/><path d="M345.9,43.7v0.2h-0.3v1c0,0,0,0.1,0,0.1c0,0,0,0,0,0c0,0,0,0,0.1,0c0,0,0.1,0,0.1,0h0.1v0.2h-0.2 c-0.1,0-0.1,0-0.2,0c0,0-0.1,0-0.1-0.1c0,0-0.1-0.1-0.1-0.1c0,0,0-0.1,0-0.2v-1H345v-0.2h0.3v-0.5h0.3v0.5H345.9z" class="st1"/><path d="M346.2,43.4V43h0.3v0.3H346.2z M346.5,43.7v1.6h-0.3v-1.6H346.5z" class="st1"/><path d="M347.4,45.3l-0.6-1.6h0.3l0.5,1.3h0l0.4-1.3h0.3l-0.6,1.6H347.4z" class="st1"/><path d="M349.9,45.3c0,0-0.1,0-0.2,0c-0.1,0-0.1,0-0.2-0.1c0,0-0.1-0.1-0.1-0.2c-0.1,0.1-0.2,0.2-0.3,0.2 c-0.1,0-0.2,0.1-0.3,0.1c-0.1,0-0.1,0-0.2,0c-0.1,0-0.1,0-0.2-0.1c0,0-0.1-0.1-0.1-0.1c0-0.1,0-0.1,0-0.2c0-0.1,0-0.2,0-0.2 c0-0.1,0.1-0.1,0.1-0.1c0.1,0,0.1-0.1,0.2-0.1c0.1,0,0.1,0,0.2,0c0.1,0,0.1,0,0.2,0c0.1,0,0.1,0,0.2,0c0.1,0,0.1,0,0.1-0.1 c0,0,0-0.1,0-0.1c0-0.1,0-0.1,0-0.1c0,0-0.1-0.1-0.1-0.1c0,0-0.1,0-0.1,0c0,0-0.1,0-0.1,0c-0.1,0-0.2,0-0.3,0.1 c-0.1,0-0.1,0.1-0.1,0.2h-0.3c0-0.1,0-0.2,0.1-0.3c0-0.1,0.1-0.1,0.2-0.2c0.1,0,0.1-0.1,0.2-0.1c0.1,0,0.2,0,0.3,0 c0.1,0,0.1,0,0.2,0c0.1,0,0.1,0,0.2,0.1c0.1,0,0.1,0.1,0.1,0.1c0,0.1,0.1,0.1,0.1,0.2v0.8c0,0.1,0,0.1,0,0.1c0,0,0,0,0.1,0 c0,0,0.1,0,0.1,0V45.3z M349.5,44.4c0,0-0.1,0-0.1,0.1c-0.1,0-0.1,0-0.2,0c-0.1,0-0.1,0-0.2,0c-0.1,0-0.1,0-0.2,0 c0,0-0.1,0.1-0.1,0.1c0,0,0,0.1,0,0.2c0,0,0,0.1,0,0.1c0,0,0,0.1,0.1,0.1c0,0,0.1,0,0.1,0c0,0,0.1,0,0.1,0c0.1,0,0.2,0,0.2,0 c0.1,0,0.1-0.1,0.2-0.1c0,0,0.1-0.1,0.1-0.1c0,0,0-0.1,0-0.1V44.4z" class="st1"/></g><g><path d="M352.8,45.3v-0.2h0c0,0.1-0.1,0.2-0.2,0.2c-0.1,0-0.2,0.1-0.3,0.1c-0.1,0-0.2,0-0.3-0.1 c-0.1,0-0.2-0.1-0.2-0.2c-0.1-0.1-0.1-0.2-0.1-0.3c0-0.1,0-0.2,0-0.3c0-0.1,0-0.2,0-0.3c0-0.1,0.1-0.2,0.1-0.3 c0.1-0.1,0.1-0.1,0.2-0.2c0.1,0,0.2-0.1,0.3-0.1c0,0,0.1,0,0.1,0c0,0,0.1,0,0.1,0c0,0,0.1,0,0.1,0.1c0,0,0.1,0.1,0.1,0.1h0V43 h0.3v2.2H352.8z M351.8,44.7c0,0.1,0.1,0.1,0.1,0.2c0,0.1,0.1,0.1,0.2,0.1c0.1,0,0.1,0.1,0.2,0.1c0.1,0,0.2,0,0.2-0.1 c0.1,0,0.1-0.1,0.2-0.1c0-0.1,0.1-0.1,0.1-0.2c0-0.1,0-0.1,0-0.2c0-0.1,0-0.2,0-0.2c0-0.1,0-0.1-0.1-0.2c0-0.1-0.1-0.1-0.2-0.1 c-0.1,0-0.1-0.1-0.2-0.1c-0.1,0-0.2,0-0.2,0.1c-0.1,0-0.1,0.1-0.2,0.1c0,0.1-0.1,0.1-0.1,0.2c0,0.1,0,0.2,0,0.2 C351.8,44.6,351.8,44.6,351.8,44.7z" class="st1"/><path d="M354.6,45.2c-0.1,0.1-0.3,0.1-0.5,0.1c-0.1,0-0.2,0-0.3-0.1c-0.1,0-0.2-0.1-0.2-0.2 c-0.1-0.1-0.1-0.2-0.1-0.3c0-0.1-0.1-0.2-0.1-0.3c0-0.1,0-0.2,0.1-0.3c0-0.1,0.1-0.2,0.2-0.3c0.1-0.1,0.1-0.1,0.2-0.2 c0.1,0,0.2-0.1,0.3-0.1c0.1,0,0.3,0,0.4,0.1c0.1,0.1,0.2,0.1,0.2,0.2c0.1,0.1,0.1,0.2,0.1,0.3c0,0.1,0,0.2,0,0.3h-1.2 c0,0.1,0,0.1,0,0.2c0,0.1,0,0.1,0.1,0.2c0,0,0.1,0.1,0.2,0.1c0.1,0,0.1,0,0.2,0c0.1,0,0.2,0,0.3-0.1c0.1-0.1,0.1-0.1,0.1-0.2h0.3 C354.8,45,354.7,45.1,354.6,45.2z M354.6,44.1c0-0.1-0.1-0.1-0.1-0.1c0,0-0.1-0.1-0.1-0.1c-0.1,0-0.1,0-0.2,0c-0.1,0-0.1,0-0.2,0 c-0.1,0-0.1,0.1-0.1,0.1c0,0-0.1,0.1-0.1,0.1c0,0.1,0,0.1,0,0.2h0.9C354.6,44.3,354.6,44.2,354.6,44.1z" class="st1"/></g></g></g><g><g><path d="M66.3,115L66.3,115c0-0.2,0.1-0.4,0.2-0.5s0.2-0.2,0.4-0.2s0.3,0.1,0.4,0.2s0.2,0.3,0.2,0.5c0.2,0.6,0.4,1.6,0.8,2.8 c0.4,1.3,0.7,2.4,0.9,3.3c0.2,0.9,0.4,1.6,0.4,2.1c0,0.7-0.3,1.3-0.8,1.7c-0.5,0.4-1.2,0.6-1.9,0.6c-0.7,0-1.4-0.2-1.9-0.6 c-0.5-0.4-0.8-0.9-0.8-1.6c0-0.5,0.1-1.2,0.4-2.1s0.5-2,0.9-3.3C65.9,116.6,66.2,115.7,66.3,115z M64.7,110.9L64.7,110.9 c0-0.8,0.2-1.4,0.6-1.8s0.9-0.6,1.5-0.6c0.6,0,1.1,0.2,1.5,0.6c0.4,0.4,0.7,1,0.7,1.7c0,0.7-0.2,1.2-0.6,1.6s-0.9,0.6-1.5,0.6 c-0.6,0-1.1-0.2-1.5-0.6C64.9,112,64.7,111.5,64.7,110.9z"/><path d="M78.5,115.3L78.5,115.3l2.1-6.5h5.9l-4.7,10.9v5.4h-6.4v-5.5l-4.7-10.8h5.9L78.5,115.3z"/><path d="M92.6,121.4l-0.6,3.7h-6.2l3.1-16.3h9.6l3.2,16.3h-6.2l-0.6-3.7H92.6z M93.8,112h-0.2l-0.8,7.2h1.9L93.8,112z"/><path d="M107,125.1v-16.3h6.4v13.8h3.6v2.5H107z"/><path d="M118.4,125.1v-16.3h6.4v13.8h3.6v2.5H118.4z"/><path d="M139.8,108.8v2.5h-3.6v3.9h3.4v2.6h-3.4v4.7h3.6v2.6h-10v-16.3H139.8z"/><path d="M150,123.8c-0.7,1.1-1.9,1.7-3.7,1.7c-0.7,0-1.3-0.1-1.9-0.2c-0.6-0.2-1.1-0.4-1.6-0.7s-0.8-0.7-1.1-1.3s-0.4-1.1-0.4-1.8 v-8.9c0-0.5,0.1-1,0.2-1.4c0.2-0.4,0.4-0.8,0.6-1.1c0.3-0.3,0.6-0.5,1-0.7s0.8-0.4,1.2-0.5c0.4-0.1,0.9-0.2,1.4-0.3 c0.5-0.1,1-0.1,1.4-0.1c0.4,0,0.9,0,1.4,0c0.5,0,0.9,0,1.3,0c0.4,0,0.9,0.1,1.4,0.1c0.5,0.1,1,0.2,1.4,0.3s0.8,0.3,1.3,0.5 c0.4,0.2,0.8,0.5,1.1,0.7c0.3,0.3,0.5,0.6,0.7,1.1c0.2,0.4,0.3,0.9,0.3,1.4v2.5h-6.4v-3.9h-1.8v11.5h1.8v-3.1h-0.9v-2.4h7.3v7.9 h-5.2L150,123.8z"/><path d="M163.8,121.4l-0.6,3.7H157l3.1-16.3h9.6l3.2,16.3h-6.2l-0.6-3.7H163.8z M165,112h-0.2l-0.8,7.2h1.9L165,112z"/><path d="M188.2,108.8v2.5h-3.6v3.9h3.4v2.6h-3.4v4.7h3.6v2.6h-10v-16.3H188.2z"/><path d="M189.8,125.1v-16.3h6.4v13.8h3.6v2.5H189.8z"/><path d="M220.1,108.8v16.3h-6.4v-7h-2v7h-6.4v-16.3h6.4v7h2v-7H220.1z"/><path d="M229.2,125.5c-0.6,0-1.1,0-1.5,0c-0.4,0-0.9-0.1-1.4-0.1c-0.5-0.1-1-0.2-1.4-0.3c-0.4-0.1-0.8-0.3-1.2-0.5 c-0.4-0.2-0.7-0.5-1-0.7s-0.5-0.6-0.6-1.1c-0.2-0.4-0.2-0.9-0.2-1.5v-8.7c0-0.5,0.1-1,0.2-1.4c0.2-0.4,0.4-0.8,0.6-1.1 s0.6-0.5,1-0.7c0.4-0.2,0.8-0.4,1.2-0.5c0.4-0.1,0.9-0.2,1.4-0.3c0.5-0.1,1-0.1,1.4-0.1c0.4,0,0.9,0,1.4,0c0.5,0,0.9,0,1.3,0 c0.4,0,0.9,0.1,1.4,0.1c0.5,0.1,1,0.2,1.4,0.3c0.4,0.1,0.8,0.3,1.2,0.5s0.8,0.5,1.1,0.7s0.5,0.6,0.7,1.1c0.2,0.4,0.3,0.9,0.3,1.4 v8.7c0,0.5-0.1,1-0.2,1.5c-0.2,0.4-0.4,0.8-0.6,1.1s-0.6,0.5-1,0.7c-0.4,0.2-0.8,0.4-1.2,0.5c-0.4,0.1-0.9,0.2-1.4,0.3 s-1,0.1-1.4,0.1C230.3,125.5,229.8,125.5,229.2,125.5z M228.4,122.7h1.8v-11.5h-1.8V122.7z"/><path d="M251.4,108.8v2.7h-3.8v13.5h-6.4v-13.5h-3.7v-2.7H251.4z"/><path d="M262.2,113.6L262.2,113.6c0,0.1,0,0.1,0.1,0.1s0,0.1,0.1,0.1s0.1,0.1,0.1,0.1c0,0,0.1,0,0.2,0.1c0.1,0,0.1,0,0.2,0.1 c0,0,0.1,0,0.2,0c0.1,0,0.1,0,0.2,0c0,0,0.1,0,0.2,0s0.1,0,0.2,0c1.6,0.3,2.7,0.5,3.4,0.8c1.6,0.5,2.6,1.3,3.1,2.5 c0.3,0.6,0.4,1.3,0.4,2.1c0,1.2-0.1,2.1-0.4,2.9c-0.3,0.8-0.7,1.4-1.3,1.8c-0.6,0.5-1.3,0.8-2.2,0.9c-0.9,0.2-2,0.3-3.3,0.3 c-0.5,0-0.9,0-1.3,0c-0.4,0-0.8-0.1-1.3-0.1c-0.5-0.1-0.9-0.1-1.3-0.3s-0.8-0.3-1.2-0.5c-0.4-0.2-0.7-0.4-1-0.7 c-0.3-0.3-0.5-0.6-0.7-1c-0.2-0.4-0.3-0.9-0.4-1.4c0-0.5-0.1-1-0.1-1.5h6.1v2.6h1.8v-2.6c0-0.1,0-0.2-0.1-0.3 c-0.1-0.1-0.2-0.2-0.3-0.3c-0.2-0.1-0.3-0.1-0.4-0.2s-0.2-0.1-0.4-0.1c-0.2-0.1-0.5-0.2-0.9-0.3s-0.7-0.2-0.9-0.3 c-0.3-0.1-0.6-0.2-0.9-0.3c-0.3-0.1-0.6-0.2-0.9-0.3c-0.2-0.1-0.5-0.2-0.8-0.4c-0.3-0.2-0.5-0.3-0.7-0.5s-0.4-0.4-0.6-0.6 c-0.2-0.2-0.4-0.5-0.5-0.8c-0.1-0.3-0.2-0.6-0.3-0.9c-0.1-0.3-0.1-0.7-0.1-1.1c0-0.6,0.1-1.2,0.2-1.7s0.3-1,0.5-1.3s0.5-0.7,0.8-1 c0.3-0.3,0.7-0.5,1.1-0.7c0.4-0.2,0.8-0.3,1.3-0.4c0.5-0.1,1-0.2,1.5-0.2c0.5,0,1-0.1,1.6-0.1c0.6,0,1.2,0,1.7,0 c0.5,0,1,0.1,1.5,0.2c0.5,0.1,0.9,0.2,1.3,0.3c0.4,0.1,0.7,0.3,1,0.6s0.6,0.5,0.8,0.8c0.2,0.3,0.3,0.7,0.5,1.2s0.2,1,0.2,1.5H264 v-1.8h-1.8V113.6z"/><path d="M278,121.4l-0.6,3.7h-6.2l3.1-16.3h9.6l3.2,16.3h-6.2l-0.6-3.7H278z M279.2,112H279l-0.8,7.2h1.9L279.2,112z"/><path d="M288.3,125.1v-16.3h6.4v13.8h3.6v2.5H288.3z"/><path d="M309.7,108.8v2.5h-3.6v3.9h3.4v2.6h-3.4v4.7h3.6v2.6h-10v-16.3H309.7z"/><path d="M313.7,118.9c-0.2-0.6-0.4-1.6-0.8-2.9s-0.7-2.4-0.9-3.3c-0.2-0.9-0.3-1.6-0.3-2.1c0-0.7,0.3-1.3,0.8-1.6 c0.5-0.4,1.1-0.6,1.9-0.6c0.7,0,1.4,0.2,1.9,0.6c0.5,0.4,0.8,0.9,0.8,1.7c0,0.5-0.1,1.2-0.4,2.1c-0.2,0.9-0.6,2-0.9,3.3 s-0.7,2.2-0.8,2.8c-0.1,0.2-0.1,0.4-0.3,0.5c-0.1,0.1-0.2,0.2-0.4,0.2c-0.1,0-0.3-0.1-0.4-0.2 C313.8,119.3,313.7,119.1,313.7,118.9z M312.8,124.9c-0.4-0.4-0.6-0.9-0.6-1.6c0-0.7,0.2-1.2,0.6-1.6c0.4-0.4,0.9-0.6,1.5-0.6 s1.1,0.2,1.5,0.6c0.4,0.4,0.6,0.9,0.6,1.6c0,0.7-0.2,1.2-0.6,1.6c-0.4,0.4-0.9,0.6-1.5,0.6S313.2,125.3,312.8,124.9z"/></g><g><path d="M66.3,115L66.3,115c0-0.2,0.1-0.4,0.2-0.5s0.2-0.2,0.4-0.2s0.3,0.1,0.4,0.2s0.2,0.3,0.2,0.5 c0.2,0.6,0.4,1.6,0.8,2.8c0.4,1.3,0.7,2.4,0.9,3.3c0.2,0.9,0.4,1.6,0.4,2.1c0,0.7-0.3,1.3-0.8,1.7c-0.5,0.4-1.2,0.6-1.9,0.6 c-0.7,0-1.4-0.2-1.9-0.6c-0.5-0.4-0.8-0.9-0.8-1.6c0-0.5,0.1-1.2,0.4-2.1s0.5-2,0.9-3.3C65.9,116.6,66.2,115.7,66.3,115z M64.7,110.9L64.7,110.9c0-0.8,0.2-1.4,0.6-1.8s0.9-0.6,1.5-0.6c0.6,0,1.1,0.2,1.5,0.6c0.4,0.4,0.7,1,0.7,1.7 c0,0.7-0.2,1.2-0.6,1.6s-0.9,0.6-1.5,0.6c-0.6,0-1.1-0.2-1.5-0.6C64.9,112,64.7,111.5,64.7,110.9z" class="st7"/><path d="M78.5,115.3L78.5,115.3l2.1-6.5h5.9l-4.7,10.9v5.4h-6.4v-5.5l-4.7-10.8h5.9L78.5,115.3z" class="st7"/><path d="M92.6,121.4l-0.6,3.7h-6.2l3.1-16.3h9.6l3.2,16.3h-6.2l-0.6-3.7H92.6z M93.8,112h-0.2l-0.8,7.2h1.9L93.8,112z" class="st7"/><path d="M107,125.1v-16.3h6.4v13.8h3.6v2.5H107z" class="st7"/><path d="M118.4,125.1v-16.3h6.4v13.8h3.6v2.5H118.4z" class="st7"/><path d="M139.8,108.8v2.5h-3.6v3.9h3.4v2.6h-3.4v4.7h3.6v2.6h-10v-16.3H139.8z" class="st7"/><path d="M150,123.8c-0.7,1.1-1.9,1.7-3.7,1.7c-0.7,0-1.3-0.1-1.9-0.2c-0.6-0.2-1.1-0.4-1.6-0.7s-0.8-0.7-1.1-1.3 s-0.4-1.1-0.4-1.8v-8.9c0-0.5,0.1-1,0.2-1.4c0.2-0.4,0.4-0.8,0.6-1.1c0.3-0.3,0.6-0.5,1-0.7s0.8-0.4,1.2-0.5 c0.4-0.1,0.9-0.2,1.4-0.3c0.5-0.1,1-0.1,1.4-0.1c0.4,0,0.9,0,1.4,0c0.5,0,0.9,0,1.3,0c0.4,0,0.9,0.1,1.4,0.1 c0.5,0.1,1,0.2,1.4,0.3s0.8,0.3,1.3,0.5c0.4,0.2,0.8,0.5,1.1,0.7c0.3,0.3,0.5,0.6,0.7,1.1c0.2,0.4,0.3,0.9,0.3,1.4v2.5h-6.4v-3.9 h-1.8v11.5h1.8v-3.1h-0.9v-2.4h7.3v7.9h-5.2L150,123.8z" class="st7"/><path d="M163.8,121.4l-0.6,3.7H157l3.1-16.3h9.6l3.2,16.3h-6.2l-0.6-3.7H163.8z M165,112h-0.2l-0.8,7.2h1.9L165,112z" class="st7"/><path d="M188.2,108.8v2.5h-3.6v3.9h3.4v2.6h-3.4v4.7h3.6v2.6h-10v-16.3H188.2z" class="st7"/><path d="M189.8,125.1v-16.3h6.4v13.8h3.6v2.5H189.8z" class="st7"/><path d="M220.1,108.8v16.3h-6.4v-7h-2v7h-6.4v-16.3h6.4v7h2v-7H220.1z" class="st7"/><path d="M229.2,125.5c-0.6,0-1.1,0-1.5,0c-0.4,0-0.9-0.1-1.4-0.1c-0.5-0.1-1-0.2-1.4-0.3c-0.4-0.1-0.8-0.3-1.2-0.5 c-0.4-0.2-0.7-0.5-1-0.7s-0.5-0.6-0.6-1.1c-0.2-0.4-0.2-0.9-0.2-1.5v-8.7c0-0.5,0.1-1,0.2-1.4c0.2-0.4,0.4-0.8,0.6-1.1 s0.6-0.5,1-0.7c0.4-0.2,0.8-0.4,1.2-0.5c0.4-0.1,0.9-0.2,1.4-0.3c0.5-0.1,1-0.1,1.4-0.1c0.4,0,0.9,0,1.4,0c0.5,0,0.9,0,1.3,0 c0.4,0,0.9,0.1,1.4,0.1c0.5,0.1,1,0.2,1.4,0.3c0.4,0.1,0.8,0.3,1.2,0.5s0.8,0.5,1.1,0.7s0.5,0.6,0.7,1.1c0.2,0.4,0.3,0.9,0.3,1.4 v8.7c0,0.5-0.1,1-0.2,1.5c-0.2,0.4-0.4,0.8-0.6,1.1s-0.6,0.5-1,0.7c-0.4,0.2-0.8,0.4-1.2,0.5c-0.4,0.1-0.9,0.2-1.4,0.3 s-1,0.1-1.4,0.1C230.3,125.5,229.8,125.5,229.2,125.5z M228.4,122.7h1.8v-11.5h-1.8V122.7z" class="st7"/><path d="M251.4,108.8v2.7h-3.8v13.5h-6.4v-13.5h-3.7v-2.7H251.4z" class="st7"/><path d="M262.2,113.6L262.2,113.6c0,0.1,0,0.1,0.1,0.1s0,0.1,0.1,0.1s0.1,0.1,0.1,0.1c0,0,0.1,0,0.2,0.1 c0.1,0,0.1,0,0.2,0.1c0,0,0.1,0,0.2,0c0.1,0,0.1,0,0.2,0c0,0,0.1,0,0.2,0s0.1,0,0.2,0c1.6,0.3,2.7,0.5,3.4,0.8 c1.6,0.5,2.6,1.3,3.1,2.5c0.3,0.6,0.4,1.3,0.4,2.1c0,1.2-0.1,2.1-0.4,2.9c-0.3,0.8-0.7,1.4-1.3,1.8c-0.6,0.5-1.3,0.8-2.2,0.9 c-0.9,0.2-2,0.3-3.3,0.3c-0.5,0-0.9,0-1.3,0c-0.4,0-0.8-0.1-1.3-0.1c-0.5-0.1-0.9-0.1-1.3-0.3s-0.8-0.3-1.2-0.5 c-0.4-0.2-0.7-0.4-1-0.7c-0.3-0.3-0.5-0.6-0.7-1c-0.2-0.4-0.3-0.9-0.4-1.4c0-0.5-0.1-1-0.1-1.5h6.1v2.6h1.8v-2.6 c0-0.1,0-0.2-0.1-0.3c-0.1-0.1-0.2-0.2-0.3-0.3c-0.2-0.1-0.3-0.1-0.4-0.2s-0.2-0.1-0.4-0.1c-0.2-0.1-0.5-0.2-0.9-0.3 s-0.7-0.2-0.9-0.3c-0.3-0.1-0.6-0.2-0.9-0.3c-0.3-0.1-0.6-0.2-0.9-0.3c-0.2-0.1-0.5-0.2-0.8-0.4c-0.3-0.2-0.5-0.3-0.7-0.5 s-0.4-0.4-0.6-0.6c-0.2-0.2-0.4-0.5-0.5-0.8c-0.1-0.3-0.2-0.6-0.3-0.9c-0.1-0.3-0.1-0.7-0.1-1.1c0-0.6,0.1-1.2,0.2-1.7 s0.3-1,0.5-1.3s0.5-0.7,0.8-1c0.3-0.3,0.7-0.5,1.1-0.7c0.4-0.2,0.8-0.3,1.3-0.4c0.5-0.1,1-0.2,1.5-0.2c0.5,0,1-0.1,1.6-0.1 c0.6,0,1.2,0,1.7,0c0.5,0,1,0.1,1.5,0.2c0.5,0.1,0.9,0.2,1.3,0.3c0.4,0.1,0.7,0.3,1,0.6s0.6,0.5,0.8,0.8c0.2,0.3,0.3,0.7,0.5,1.2 s0.2,1,0.2,1.5H264v-1.8h-1.8V113.6z" class="st7"/><path d="M278,121.4l-0.6,3.7h-6.2l3.1-16.3h9.6l3.2,16.3h-6.2l-0.6-3.7H278z M279.2,112H279l-0.8,7.2h1.9L279.2,112z" class="st7"/><path d="M288.3,125.1v-16.3h6.4v13.8h3.6v2.5H288.3z" class="st7"/><path d="M309.7,108.8v2.5h-3.6v3.9h3.4v2.6h-3.4v4.7h3.6v2.6h-10v-16.3H309.7z" class="st7"/><path d="M313.7,118.9c-0.2-0.6-0.4-1.6-0.8-2.9s-0.7-2.4-0.9-3.3c-0.2-0.9-0.3-1.6-0.3-2.1c0-0.7,0.3-1.3,0.8-1.6 c0.5-0.4,1.1-0.6,1.9-0.6c0.7,0,1.4,0.2,1.9,0.6c0.5,0.4,0.8,0.9,0.8,1.7c0,0.5-0.1,1.2-0.4,2.1c-0.2,0.9-0.6,2-0.9,3.3 s-0.7,2.2-0.8,2.8c-0.1,0.2-0.1,0.4-0.3,0.5c-0.1,0.1-0.2,0.2-0.4,0.2c-0.1,0-0.3-0.1-0.4-0.2 C313.8,119.3,313.7,119.1,313.7,118.9z M312.8,124.9c-0.4-0.4-0.6-0.9-0.6-1.6c0-0.7,0.2-1.2,0.6-1.6c0.4-0.4,0.9-0.6,1.5-0.6 s1.1,0.2,1.5,0.6c0.4,0.4,0.6,0.9,0.6,1.6c0,0.7-0.2,1.2-0.6,1.6c-0.4,0.4-0.9,0.6-1.5,0.6S313.2,125.3,312.8,124.9z" class="st7"/></g></g><g><g><path d="M66.3,115L66.3,115c0-0.2,0.1-0.4,0.2-0.5s0.2-0.2,0.4-0.2s0.3,0.1,0.4,0.2s0.2,0.3,0.2,0.5 c0.2,0.6,0.4,1.6,0.8,2.8c0.4,1.3,0.7,2.4,0.9,3.3c0.2,0.9,0.4,1.6,0.4,2.1c0,0.7-0.3,1.3-0.8,1.7c-0.5,0.4-1.2,0.6-1.9,0.6 c-0.7,0-1.4-0.2-1.9-0.6c-0.5-0.4-0.8-0.9-0.8-1.6c0-0.5,0.1-1.2,0.4-2.1s0.5-2,0.9-3.3C65.9,116.6,66.2,115.7,66.3,115z M64.7,110.9L64.7,110.9c0-0.8,0.2-1.4,0.6-1.8s0.9-0.6,1.5-0.6c0.6,0,1.1,0.2,1.5,0.6c0.4,0.4,0.7,1,0.7,1.7 c0,0.7-0.2,1.2-0.6,1.6s-0.9,0.6-1.5,0.6c-0.6,0-1.1-0.2-1.5-0.6C64.9,112,64.7,111.5,64.7,110.9z" class="st1"/><path d="M78.5,115.3L78.5,115.3l2.1-6.5h5.9l-4.7,10.9v5.4h-6.4v-5.5l-4.7-10.8h5.9L78.5,115.3z" class="st1"/><path d="M92.6,121.4l-0.6,3.7h-6.2l3.1-16.3h9.6l3.2,16.3h-6.2l-0.6-3.7H92.6z M93.8,112h-0.2l-0.8,7.2h1.9L93.8,112z" class="st1"/><path d="M107,125.1v-16.3h6.4v13.8h3.6v2.5H107z" class="st1"/><path d="M118.4,125.1v-16.3h6.4v13.8h3.6v2.5H118.4z" class="st1"/><path d="M139.8,108.8v2.5h-3.6v3.9h3.4v2.6h-3.4v4.7h3.6v2.6h-10v-16.3H139.8z" class="st1"/><path d="M150,123.8c-0.7,1.1-1.9,1.7-3.7,1.7c-0.7,0-1.3-0.1-1.9-0.2c-0.6-0.2-1.1-0.4-1.6-0.7s-0.8-0.7-1.1-1.3 s-0.4-1.1-0.4-1.8v-8.9c0-0.5,0.1-1,0.2-1.4c0.2-0.4,0.4-0.8,0.6-1.1c0.3-0.3,0.6-0.5,1-0.7s0.8-0.4,1.2-0.5 c0.4-0.1,0.9-0.2,1.4-0.3c0.5-0.1,1-0.1,1.4-0.1c0.4,0,0.9,0,1.4,0c0.5,0,0.9,0,1.3,0c0.4,0,0.9,0.1,1.4,0.1 c0.5,0.1,1,0.2,1.4,0.3s0.8,0.3,1.3,0.5c0.4,0.2,0.8,0.5,1.1,0.7c0.3,0.3,0.5,0.6,0.7,1.1c0.2,0.4,0.3,0.9,0.3,1.4v2.5h-6.4v-3.9 h-1.8v11.5h1.8v-3.1h-0.9v-2.4h7.3v7.9h-5.2L150,123.8z" class="st1"/><path d="M163.8,121.4l-0.6,3.7H157l3.1-16.3h9.6l3.2,16.3h-6.2l-0.6-3.7H163.8z M165,112h-0.2l-0.8,7.2h1.9L165,112z" class="st1"/><path d="M188.2,108.8v2.5h-3.6v3.9h3.4v2.6h-3.4v4.7h3.6v2.6h-10v-16.3H188.2z" class="st1"/><path d="M189.8,125.1v-16.3h6.4v13.8h3.6v2.5H189.8z" class="st1"/><path d="M220.1,108.8v16.3h-6.4v-7h-2v7h-6.4v-16.3h6.4v7h2v-7H220.1z" class="st1"/><path d="M229.2,125.5c-0.6,0-1.1,0-1.5,0c-0.4,0-0.9-0.1-1.4-0.1c-0.5-0.1-1-0.2-1.4-0.3c-0.4-0.1-0.8-0.3-1.2-0.5 c-0.4-0.2-0.7-0.5-1-0.7s-0.5-0.6-0.6-1.1c-0.2-0.4-0.2-0.9-0.2-1.5v-8.7c0-0.5,0.1-1,0.2-1.4c0.2-0.4,0.4-0.8,0.6-1.1 s0.6-0.5,1-0.7c0.4-0.2,0.8-0.4,1.2-0.5c0.4-0.1,0.9-0.2,1.4-0.3c0.5-0.1,1-0.1,1.4-0.1c0.4,0,0.9,0,1.4,0c0.5,0,0.9,0,1.3,0 c0.4,0,0.9,0.1,1.4,0.1c0.5,0.1,1,0.2,1.4,0.3c0.4,0.1,0.8,0.3,1.2,0.5s0.8,0.5,1.1,0.7s0.5,0.6,0.7,1.1c0.2,0.4,0.3,0.9,0.3,1.4 v8.7c0,0.5-0.1,1-0.2,1.5c-0.2,0.4-0.4,0.8-0.6,1.1s-0.6,0.5-1,0.7c-0.4,0.2-0.8,0.4-1.2,0.5c-0.4,0.1-0.9,0.2-1.4,0.3 s-1,0.1-1.4,0.1C230.3,125.5,229.8,125.5,229.2,125.5z M228.4,122.7h1.8v-11.5h-1.8V122.7z" class="st1"/><path d="M251.4,108.8v2.7h-3.8v13.5h-6.4v-13.5h-3.7v-2.7H251.4z" class="st1"/><path d="M262.2,113.6L262.2,113.6c0,0.1,0,0.1,0.1,0.1s0,0.1,0.1,0.1s0.1,0.1,0.1,0.1c0,0,0.1,0,0.2,0.1 c0.1,0,0.1,0,0.2,0.1c0,0,0.1,0,0.2,0c0.1,0,0.1,0,0.2,0c0,0,0.1,0,0.2,0s0.1,0,0.2,0c1.6,0.3,2.7,0.5,3.4,0.8 c1.6,0.5,2.6,1.3,3.1,2.5c0.3,0.6,0.4,1.3,0.4,2.1c0,1.2-0.1,2.1-0.4,2.9c-0.3,0.8-0.7,1.4-1.3,1.8c-0.6,0.5-1.3,0.8-2.2,0.9 c-0.9,0.2-2,0.3-3.3,0.3c-0.5,0-0.9,0-1.3,0c-0.4,0-0.8-0.1-1.3-0.1c-0.5-0.1-0.9-0.1-1.3-0.3s-0.8-0.3-1.2-0.5 c-0.4-0.2-0.7-0.4-1-0.7c-0.3-0.3-0.5-0.6-0.7-1c-0.2-0.4-0.3-0.9-0.4-1.4c0-0.5-0.1-1-0.1-1.5h6.1v2.6h1.8v-2.6 c0-0.1,0-0.2-0.1-0.3c-0.1-0.1-0.2-0.2-0.3-0.3c-0.2-0.1-0.3-0.1-0.4-0.2s-0.2-0.1-0.4-0.1c-0.2-0.1-0.5-0.2-0.9-0.3 s-0.7-0.2-0.9-0.3c-0.3-0.1-0.6-0.2-0.9-0.3c-0.3-0.1-0.6-0.2-0.9-0.3c-0.2-0.1-0.5-0.2-0.8-0.4c-0.3-0.2-0.5-0.3-0.7-0.5 s-0.4-0.4-0.6-0.6c-0.2-0.2-0.4-0.5-0.5-0.8c-0.1-0.3-0.2-0.6-0.3-0.9c-0.1-0.3-0.1-0.7-0.1-1.1c0-0.6,0.1-1.2,0.2-1.7 s0.3-1,0.5-1.3s0.5-0.7,0.8-1c0.3-0.3,0.7-0.5,1.1-0.7c0.4-0.2,0.8-0.3,1.3-0.4c0.5-0.1,1-0.2,1.5-0.2c0.5,0,1-0.1,1.6-0.1 c0.6,0,1.2,0,1.7,0c0.5,0,1,0.1,1.5,0.2c0.5,0.1,0.9,0.2,1.3,0.3c0.4,0.1,0.7,0.3,1,0.6s0.6,0.5,0.8,0.8c0.2,0.3,0.3,0.7,0.5,1.2 s0.2,1,0.2,1.5H264v-1.8h-1.8V113.6z" class="st1"/><path d="M278,121.4l-0.6,3.7h-6.2l3.1-16.3h9.6l3.2,16.3h-6.2l-0.6-3.7H278z M279.2,112H279l-0.8,7.2h1.9L279.2,112z" class="st1"/><path d="M288.3,125.1v-16.3h6.4v13.8h3.6v2.5H288.3z" class="st1"/><path d="M309.7,108.8v2.5h-3.6v3.9h3.4v2.6h-3.4v4.7h3.6v2.6h-10v-16.3H309.7z" class="st1"/><path d="M313.7,118.9c-0.2-0.6-0.4-1.6-0.8-2.9s-0.7-2.4-0.9-3.3c-0.2-0.9-0.3-1.6-0.3-2.1c0-0.7,0.3-1.3,0.8-1.6 c0.5-0.4,1.1-0.6,1.9-0.6c0.7,0,1.4,0.2,1.9,0.6c0.5,0.4,0.8,0.9,0.8,1.7c0,0.5-0.1,1.2-0.4,2.1c-0.2,0.9-0.6,2-0.9,3.3 s-0.7,2.2-0.8,2.8c-0.1,0.2-0.1,0.4-0.3,0.5c-0.1,0.1-0.2,0.2-0.4,0.2c-0.1,0-0.3-0.1-0.4-0.2 C313.8,119.3,313.7,119.1,313.7,118.9z M312.8,124.9c-0.4-0.4-0.6-0.9-0.6-1.6c0-0.7,0.2-1.2,0.6-1.6c0.4-0.4,0.9-0.6,1.5-0.6 s1.1,0.2,1.5,0.6c0.4,0.4,0.6,0.9,0.6,1.6c0,0.7-0.2,1.2-0.6,1.6c-0.4,0.4-0.9,0.6-1.5,0.6S313.2,125.3,312.8,124.9z" class="st1"/></g></g><g><g><path d="M142.4,137.4l0,1c0,0.2,0,0.4-0.1,0.6s-0.1,0.3-0.2,0.5c-0.1,0.1-0.2,0.2-0.3,0.4s-0.3,0.2-0.4,0.3 c-0.1,0.1-0.3,0.1-0.5,0.2c-0.2,0-0.4,0.1-0.5,0.1s-0.3,0-0.6,0.1c-0.2,0-0.4,0-0.6,0c-0.2,0-0.4,0-0.6,0c-0.3,0-0.5,0-0.8,0 c-0.2,0-0.5,0-0.7-0.1c-0.3,0-0.5-0.1-0.7-0.1c-0.2-0.1-0.4-0.1-0.6-0.2c-0.2-0.1-0.4-0.2-0.5-0.4s-0.2-0.3-0.3-0.5 c-0.1-0.2-0.1-0.5-0.1-0.7v-3.2c0-0.2,0-0.4,0.1-0.6s0.1-0.3,0.2-0.5s0.2-0.2,0.3-0.3c0.1-0.1,0.3-0.2,0.4-0.3 c0.1-0.1,0.3-0.1,0.5-0.2c0.2,0,0.4-0.1,0.5-0.1c0.2,0,0.4,0,0.6-0.1c0.2,0,0.4,0,0.6,0s0.4,0,0.6,0c0.3,0,0.5,0,0.7,0 s0.4,0,0.7,0s0.5,0.1,0.7,0.1c0.2,0,0.4,0.1,0.6,0.2c0.2,0.1,0.4,0.2,0.5,0.3s0.2,0.3,0.3,0.5c0.1,0.2,0.1,0.4,0.1,0.7v1h-3.2 v-1.7h-0.9v4.9h0.9v-1.8H142.4z"/><path d="M145.7,140.5c-0.8,0-1.4-0.2-1.8-0.5c-0.4-0.4-0.6-0.9-0.6-1.6v-5.1h3.2v5.8h0.9v-5.8h3.2v7h-2.9l-0.2-0.6 c-0.1,0.2-0.4,0.4-0.7,0.6S146.1,140.5,145.7,140.5z"/><path d="M159,137.7c0,0.2,0,0.4,0,0.6c0,0.8-0.3,1.4-0.9,1.7c-0.6,0.3-1.5,0.5-2.8,0.5c-0.2,0-0.4,0-0.6,0c-0.2,0-0.4,0-0.6,0 c-0.2,0-0.4,0-0.6-0.1c-0.2,0-0.3-0.1-0.5-0.1c-0.2-0.1-0.3-0.1-0.5-0.2c-0.1-0.1-0.3-0.2-0.4-0.3s-0.2-0.2-0.3-0.4 c-0.1-0.1-0.1-0.3-0.2-0.5s-0.1-0.4-0.1-0.6v-3.2c0-0.3,0-0.5,0.1-0.7c0.1-0.2,0.2-0.4,0.3-0.5c0.1-0.1,0.3-0.3,0.5-0.4 c0.2-0.1,0.4-0.2,0.6-0.2c0.2-0.1,0.4-0.1,0.7-0.1c0.3,0,0.5,0,0.7-0.1c0.2,0,0.4,0,0.7,0c0.2,0,0.4,0,0.6,0s0.3,0,0.6,0 s0.4,0,0.6,0.1c0.2,0,0.3,0.1,0.5,0.1s0.3,0.1,0.5,0.2c0.1,0.1,0.3,0.2,0.4,0.3c0.1,0.1,0.2,0.2,0.3,0.3c0.1,0.1,0.1,0.3,0.2,0.5 c0.1,0.2,0.1,0.4,0.1,0.6v1.9h-4.2v2.2h0.9v-1.5H159z M154.8,136.1h0.9v-1.8h-0.9V136.1z"/><path d="M164.9,133.2c0.8,0,1.4,0.2,1.8,0.5c0.4,0.4,0.6,0.9,0.6,1.5v5.1H164v-6h-0.9v6h-3.2v-7h2.9l0.2,0.6 c0.2-0.2,0.4-0.4,0.8-0.5C164.1,133.2,164.5,133.2,164.9,133.2z"/><path d="M172.8,140.4L172.8,140.4c-0.1,0-0.1,0-0.1,0c0,0-0.1,0-0.1,0c-0.1,0-0.1,0-0.2,0c-0.1,0-0.1,0-0.2,0c-0.1,0-0.2,0-0.2,0 c-0.1,0-0.2,0-0.3,0c-0.4,0-0.8,0-1,0c-0.3,0-0.6-0.1-0.8-0.1s-0.5-0.1-0.6-0.2c-0.2-0.1-0.3-0.2-0.4-0.4s-0.2-0.3-0.2-0.6 c0-0.2-0.1-0.5-0.1-0.8v-4h-0.8v-1.1h0.8v-1.6h3.2v1.6h0.9v1.1h-0.9v4.2c0,0.1,0,0.2,0.1,0.3c0.1,0.1,0.1,0.1,0.3,0.2 c0.1,0,0.2,0.1,0.4,0.1c0.1,0,0.3,0,0.4,0V140.4z"/><path d="M180.7,139c0,0.5,0.1,0.9,0.2,1.4h-2.9l-0.3-0.7c-0.2,0.3-0.4,0.5-0.8,0.7c-0.3,0.2-0.7,0.2-1.2,0.2 c-0.8,0-1.4-0.2-1.8-0.6c-0.4-0.4-0.6-0.9-0.6-1.7c0-0.8,0.2-1.4,0.7-1.8s1.1-0.6,2-0.6c0.5,0,1,0.1,1.5,0.2v-1.8h-0.8v1l-3,0.1 c0-0.2-0.1-0.4-0.1-0.6c0-0.2,0-0.4,0.1-0.6s0.2-0.3,0.3-0.4s0.3-0.2,0.5-0.3c0.2-0.1,0.4-0.2,0.6-0.2s0.4-0.1,0.6-0.1 c0.2,0,0.5,0,0.6-0.1c0.2,0,0.4,0,0.6,0c0.2,0,0.4,0,0.6,0c0.2,0,0.4,0,0.6,0c0.2,0,0.4,0,0.6,0.1s0.3,0.1,0.5,0.1 c0.2,0.1,0.3,0.1,0.5,0.2s0.3,0.2,0.4,0.3c0.1,0.1,0.2,0.2,0.3,0.3c0.1,0.1,0.1,0.3,0.2,0.5c0,0.2,0.1,0.4,0.1,0.6V139z M176.6,136.8v2.5h0.9v-2.5H176.6z"/><path d="M183.9,140.4l0-7h2.7l0.2,0.8c0.1-0.3,0.4-0.5,0.7-0.7c0.3-0.2,0.7-0.3,1.2-0.3v2l-1.6,0.3v4.8H183.9z"/><path d="M196.5,137.7c0,0.2,0,0.4,0,0.6c0,0.8-0.3,1.4-0.9,1.7c-0.6,0.3-1.5,0.5-2.8,0.5c-0.2,0-0.4,0-0.6,0c-0.2,0-0.4,0-0.6,0 c-0.2,0-0.4,0-0.6-0.1c-0.2,0-0.3-0.1-0.5-0.1c-0.2-0.1-0.3-0.1-0.5-0.2c-0.1-0.1-0.3-0.2-0.4-0.3s-0.2-0.2-0.3-0.4 c-0.1-0.1-0.1-0.3-0.2-0.5s-0.1-0.4-0.1-0.6v-3.2c0-0.3,0-0.5,0.1-0.7c0.1-0.2,0.2-0.4,0.3-0.5c0.1-0.1,0.3-0.3,0.5-0.4 c0.2-0.1,0.4-0.2,0.6-0.2c0.2-0.1,0.4-0.1,0.7-0.1c0.3,0,0.5,0,0.7-0.1c0.2,0,0.4,0,0.7,0c0.2,0,0.4,0,0.6,0s0.3,0,0.6,0 s0.4,0,0.6,0.1c0.2,0,0.3,0.1,0.5,0.1s0.3,0.1,0.5,0.2c0.1,0.1,0.3,0.2,0.4,0.3c0.1,0.1,0.2,0.2,0.3,0.3c0.1,0.1,0.1,0.3,0.2,0.5 c0.1,0.2,0.1,0.4,0.1,0.6v1.9h-4.2v2.2h0.9v-1.5H196.5z M192.3,136.1h0.9v-1.8h-0.9V136.1z"/><path d="M199.6,133.2c0.9,0,1.5,0.3,1.9,0.8l0.2-0.6h2.9v5.8c0,1.1-0.3,2-1,2.5c-0.7,0.5-1.7,0.8-3.1,0.8c-1,0-1.9-0.1-2.7-0.3 l0.3-1.6c0.5,0.1,1.2,0.2,1.9,0.2c0.6,0,1.1-0.1,1.3-0.2v-1.2c-0.2,0.2-0.4,0.4-0.7,0.5c-0.3,0.1-0.7,0.2-1.1,0.2 c-1.6,0-2.4-0.7-2.4-2.1v-2.4C197.3,133.9,198.1,133.2,199.6,133.2z M201.4,134.4h-0.9v4.3h0.9V134.4z"/><path d="M205.6,140.4l0-7h2.7l0.2,0.8c0.1-0.3,0.4-0.5,0.7-0.7c0.3-0.2,0.7-0.3,1.2-0.3v2l-1.6,0.3v4.8H205.6z"/><path d="M218.2,137.7c0,0.2,0,0.4,0,0.6c0,0.8-0.3,1.4-0.9,1.7c-0.6,0.3-1.5,0.5-2.8,0.5c-0.2,0-0.4,0-0.6,0c-0.2,0-0.4,0-0.6,0 c-0.2,0-0.4,0-0.6-0.1c-0.2,0-0.3-0.1-0.5-0.1c-0.2-0.1-0.3-0.1-0.5-0.2c-0.1-0.1-0.3-0.2-0.4-0.3s-0.2-0.2-0.3-0.4 c-0.1-0.1-0.1-0.3-0.2-0.5s-0.1-0.4-0.1-0.6v-3.2c0-0.3,0-0.5,0.1-0.7c0.1-0.2,0.2-0.4,0.3-0.5c0.1-0.1,0.3-0.3,0.5-0.4 c0.2-0.1,0.4-0.2,0.6-0.2c0.2-0.1,0.4-0.1,0.7-0.1c0.3,0,0.5,0,0.7-0.1c0.2,0,0.4,0,0.7,0c0.2,0,0.4,0,0.6,0s0.3,0,0.6,0 s0.4,0,0.6,0.1c0.2,0,0.3,0.1,0.5,0.1s0.3,0.1,0.5,0.2c0.1,0.1,0.3,0.2,0.4,0.3c0.1,0.1,0.2,0.2,0.3,0.3c0.1,0.1,0.1,0.3,0.2,0.5 c0.1,0.2,0.1,0.4,0.1,0.6v1.9h-4.2v2.2h0.9v-1.5H218.2z M214.1,136.1h0.9v-1.8h-0.9V136.1z"/><path d="M223.1,137.9L223.1,137.9c0,0-0.1-0.1-0.2-0.1c-0.1,0-0.2,0-0.4,0c-0.2,0-0.3,0-0.4-0.1c-0.1,0-0.2,0-0.4-0.1 s-0.3,0-0.4-0.1s-0.2-0.1-0.4-0.1c-0.3-0.1-0.5-0.2-0.8-0.3c-0.2-0.1-0.4-0.3-0.6-0.4s-0.3-0.4-0.4-0.6c-0.1-0.2-0.2-0.5-0.2-0.8 c0-0.3,0-0.5,0.1-0.8s0.2-0.4,0.3-0.6s0.3-0.3,0.4-0.4c0.2-0.1,0.4-0.2,0.6-0.3c0.2-0.1,0.4-0.1,0.7-0.2c0.3,0,0.5-0.1,0.8-0.1 c0.3,0,0.5,0,0.9,0c0.3,0,0.5,0,0.7,0c0.2,0,0.4,0,0.7,0.1s0.5,0.1,0.7,0.1c0.2,0.1,0.4,0.1,0.6,0.2c0.2,0.1,0.3,0.2,0.5,0.4 c0.1,0.1,0.2,0.3,0.3,0.5c0.1,0.2,0.1,0.4,0.1,0.7c0,0.2,0,0.4,0,0.5l-3-0.2v-0.9h-0.9v1.1c0,0,0.1,0.1,0.3,0.1 c0.1,0,0.3,0,0.6,0.1c0.3,0,0.5,0.1,0.8,0.1c0.2,0,0.4,0.1,0.6,0.1c0.3,0.1,0.5,0.2,0.7,0.3s0.4,0.2,0.6,0.4s0.3,0.3,0.4,0.6 c0.1,0.2,0.2,0.5,0.2,0.7c0,0.3,0,0.5-0.1,0.7c-0.1,0.2-0.1,0.4-0.2,0.6c-0.1,0.2-0.2,0.3-0.4,0.4c-0.1,0.1-0.3,0.2-0.5,0.3 c-0.2,0.1-0.4,0.1-0.6,0.2c-0.2,0.1-0.4,0.1-0.6,0.1c-0.2,0-0.5,0-0.7,0.1c-0.2,0-0.4,0-0.7,0c-0.3,0-0.6,0-0.8,0 c-0.2,0-0.5,0-0.7-0.1c-0.3,0-0.5-0.1-0.6-0.2s-0.3-0.2-0.5-0.3c-0.2-0.1-0.3-0.3-0.4-0.4c-0.1-0.2-0.2-0.4-0.2-0.6 s-0.1-0.5-0.1-0.8c0-0.1,0-0.1,0-0.2l3,0.2v0.9h0.9V137.9z"/><path d="M230.3,131.1v1.5h-3.2v-1.5H230.3z M230.3,140.4h-3.2v-7h3.2V140.4z"/><path d="M234.6,138.4L234.6,138.4l0.7-5.1h3.1l-1.6,7h-4.5l-1.6-7h3.1L234.6,138.4z"/><path d="M245.9,139c0,0.5,0.1,0.9,0.2,1.4h-2.9l-0.3-0.7c-0.2,0.3-0.4,0.5-0.8,0.7c-0.3,0.2-0.7,0.2-1.2,0.2 c-0.8,0-1.4-0.2-1.8-0.6c-0.4-0.4-0.6-0.9-0.6-1.7c0-0.8,0.2-1.4,0.7-1.8s1.1-0.6,2-0.6c0.5,0,1,0.1,1.5,0.2v-1.8h-0.8v1l-3,0.1 c0-0.2-0.1-0.4-0.1-0.6c0-0.2,0-0.4,0.1-0.6s0.2-0.3,0.3-0.4s0.3-0.2,0.5-0.3c0.2-0.1,0.4-0.2,0.6-0.2s0.4-0.1,0.6-0.1 c0.2,0,0.5,0,0.6-0.1c0.2,0,0.4,0,0.6,0c0.2,0,0.4,0,0.6,0c0.2,0,0.4,0,0.6,0c0.2,0,0.4,0,0.6,0.1s0.3,0.1,0.5,0.1 c0.2,0.1,0.3,0.1,0.5,0.2s0.3,0.2,0.4,0.3c0.1,0.1,0.2,0.2,0.3,0.3c0.1,0.1,0.1,0.3,0.2,0.5c0,0.2,0.1,0.4,0.1,0.6V139z M241.8,136.8v2.5h0.9v-2.5H241.8z"/></g><g><path d="M142.4,137.4l0,1c0,0.2,0,0.4-0.1,0.6s-0.1,0.3-0.2,0.5c-0.1,0.1-0.2,0.2-0.3,0.4s-0.3,0.2-0.4,0.3 c-0.1,0.1-0.3,0.1-0.5,0.2c-0.2,0-0.4,0.1-0.5,0.1s-0.3,0-0.6,0.1c-0.2,0-0.4,0-0.6,0c-0.2,0-0.4,0-0.6,0c-0.3,0-0.5,0-0.8,0 c-0.2,0-0.5,0-0.7-0.1c-0.3,0-0.5-0.1-0.7-0.1c-0.2-0.1-0.4-0.1-0.6-0.2c-0.2-0.1-0.4-0.2-0.5-0.4s-0.2-0.3-0.3-0.5 c-0.1-0.2-0.1-0.5-0.1-0.7v-3.2c0-0.2,0-0.4,0.1-0.6s0.1-0.3,0.2-0.5s0.2-0.2,0.3-0.3c0.1-0.1,0.3-0.2,0.4-0.3 c0.1-0.1,0.3-0.1,0.5-0.2c0.2,0,0.4-0.1,0.5-0.1c0.2,0,0.4,0,0.6-0.1c0.2,0,0.4,0,0.6,0s0.4,0,0.6,0c0.3,0,0.5,0,0.7,0 s0.4,0,0.7,0s0.5,0.1,0.7,0.1c0.2,0,0.4,0.1,0.6,0.2c0.2,0.1,0.4,0.2,0.5,0.3s0.2,0.3,0.3,0.5c0.1,0.2,0.1,0.4,0.1,0.7v1h-3.2 v-1.7h-0.9v4.9h0.9v-1.8H142.4z" class="st8"/><path d="M145.7,140.5c-0.8,0-1.4-0.2-1.8-0.5c-0.4-0.4-0.6-0.9-0.6-1.6v-5.1h3.2v5.8h0.9v-5.8h3.2v7h-2.9l-0.2-0.6 c-0.1,0.2-0.4,0.4-0.7,0.6S146.1,140.5,145.7,140.5z" class="st8"/><path d="M159,137.7c0,0.2,0,0.4,0,0.6c0,0.8-0.3,1.4-0.9,1.7c-0.6,0.3-1.5,0.5-2.8,0.5c-0.2,0-0.4,0-0.6,0 c-0.2,0-0.4,0-0.6,0c-0.2,0-0.4,0-0.6-0.1c-0.2,0-0.3-0.1-0.5-0.1c-0.2-0.1-0.3-0.1-0.5-0.2c-0.1-0.1-0.3-0.2-0.4-0.3 s-0.2-0.2-0.3-0.4c-0.1-0.1-0.1-0.3-0.2-0.5s-0.1-0.4-0.1-0.6v-3.2c0-0.3,0-0.5,0.1-0.7c0.1-0.2,0.2-0.4,0.3-0.5 c0.1-0.1,0.3-0.3,0.5-0.4c0.2-0.1,0.4-0.2,0.6-0.2c0.2-0.1,0.4-0.1,0.7-0.1c0.3,0,0.5,0,0.7-0.1c0.2,0,0.4,0,0.7,0 c0.2,0,0.4,0,0.6,0s0.3,0,0.6,0s0.4,0,0.6,0.1c0.2,0,0.3,0.1,0.5,0.1s0.3,0.1,0.5,0.2c0.1,0.1,0.3,0.2,0.4,0.3 c0.1,0.1,0.2,0.2,0.3,0.3c0.1,0.1,0.1,0.3,0.2,0.5c0.1,0.2,0.1,0.4,0.1,0.6v1.9h-4.2v2.2h0.9v-1.5H159z M154.8,136.1h0.9v-1.8 h-0.9V136.1z" class="st8"/><path d="M164.9,133.2c0.8,0,1.4,0.2,1.8,0.5c0.4,0.4,0.6,0.9,0.6,1.5v5.1H164v-6h-0.9v6h-3.2v-7h2.9l0.2,0.6 c0.2-0.2,0.4-0.4,0.8-0.5C164.1,133.2,164.5,133.2,164.9,133.2z" class="st8"/><path d="M172.8,140.4L172.8,140.4c-0.1,0-0.1,0-0.1,0c0,0-0.1,0-0.1,0c-0.1,0-0.1,0-0.2,0c-0.1,0-0.1,0-0.2,0 c-0.1,0-0.2,0-0.2,0c-0.1,0-0.2,0-0.3,0c-0.4,0-0.8,0-1,0c-0.3,0-0.6-0.1-0.8-0.1s-0.5-0.1-0.6-0.2c-0.2-0.1-0.3-0.2-0.4-0.4 s-0.2-0.3-0.2-0.6c0-0.2-0.1-0.5-0.1-0.8v-4h-0.8v-1.1h0.8v-1.6h3.2v1.6h0.9v1.1h-0.9v4.2c0,0.1,0,0.2,0.1,0.3 c0.1,0.1,0.1,0.1,0.3,0.2c0.1,0,0.2,0.1,0.4,0.1c0.1,0,0.3,0,0.4,0V140.4z" class="st8"/><path d="M180.7,139c0,0.5,0.1,0.9,0.2,1.4h-2.9l-0.3-0.7c-0.2,0.3-0.4,0.5-0.8,0.7c-0.3,0.2-0.7,0.2-1.2,0.2 c-0.8,0-1.4-0.2-1.8-0.6c-0.4-0.4-0.6-0.9-0.6-1.7c0-0.8,0.2-1.4,0.7-1.8s1.1-0.6,2-0.6c0.5,0,1,0.1,1.5,0.2v-1.8h-0.8v1l-3,0.1 c0-0.2-0.1-0.4-0.1-0.6c0-0.2,0-0.4,0.1-0.6s0.2-0.3,0.3-0.4s0.3-0.2,0.5-0.3c0.2-0.1,0.4-0.2,0.6-0.2s0.4-0.1,0.6-0.1 c0.2,0,0.5,0,0.6-0.1c0.2,0,0.4,0,0.6,0c0.2,0,0.4,0,0.6,0c0.2,0,0.4,0,0.6,0c0.2,0,0.4,0,0.6,0.1s0.3,0.1,0.5,0.1 c0.2,0.1,0.3,0.1,0.5,0.2s0.3,0.2,0.4,0.3c0.1,0.1,0.2,0.2,0.3,0.3c0.1,0.1,0.1,0.3,0.2,0.5c0,0.2,0.1,0.4,0.1,0.6V139z M176.6,136.8v2.5h0.9v-2.5H176.6z" class="st8"/><path d="M183.9,140.4l0-7h2.7l0.2,0.8c0.1-0.3,0.4-0.5,0.7-0.7c0.3-0.2,0.7-0.3,1.2-0.3v2l-1.6,0.3v4.8H183.9z" class="st8"/><path d="M196.5,137.7c0,0.2,0,0.4,0,0.6c0,0.8-0.3,1.4-0.9,1.7c-0.6,0.3-1.5,0.5-2.8,0.5c-0.2,0-0.4,0-0.6,0 c-0.2,0-0.4,0-0.6,0c-0.2,0-0.4,0-0.6-0.1c-0.2,0-0.3-0.1-0.5-0.1c-0.2-0.1-0.3-0.1-0.5-0.2c-0.1-0.1-0.3-0.2-0.4-0.3 s-0.2-0.2-0.3-0.4c-0.1-0.1-0.1-0.3-0.2-0.5s-0.1-0.4-0.1-0.6v-3.2c0-0.3,0-0.5,0.1-0.7c0.1-0.2,0.2-0.4,0.3-0.5 c0.1-0.1,0.3-0.3,0.5-0.4c0.2-0.1,0.4-0.2,0.6-0.2c0.2-0.1,0.4-0.1,0.7-0.1c0.3,0,0.5,0,0.7-0.1c0.2,0,0.4,0,0.7,0 c0.2,0,0.4,0,0.6,0s0.3,0,0.6,0s0.4,0,0.6,0.1c0.2,0,0.3,0.1,0.5,0.1s0.3,0.1,0.5,0.2c0.1,0.1,0.3,0.2,0.4,0.3 c0.1,0.1,0.2,0.2,0.3,0.3c0.1,0.1,0.1,0.3,0.2,0.5c0.1,0.2,0.1,0.4,0.1,0.6v1.9h-4.2v2.2h0.9v-1.5H196.5z M192.3,136.1h0.9v-1.8 h-0.9V136.1z" class="st8"/><path d="M199.6,133.2c0.9,0,1.5,0.3,1.9,0.8l0.2-0.6h2.9v5.8c0,1.1-0.3,2-1,2.5c-0.7,0.5-1.7,0.8-3.1,0.8 c-1,0-1.9-0.1-2.7-0.3l0.3-1.6c0.5,0.1,1.2,0.2,1.9,0.2c0.6,0,1.1-0.1,1.3-0.2v-1.2c-0.2,0.2-0.4,0.4-0.7,0.5 c-0.3,0.1-0.7,0.2-1.1,0.2c-1.6,0-2.4-0.7-2.4-2.1v-2.4C197.3,133.9,198.1,133.2,199.6,133.2z M201.4,134.4h-0.9v4.3h0.9V134.4z" class="st8"/><path d="M205.6,140.4l0-7h2.7l0.2,0.8c0.1-0.3,0.4-0.5,0.7-0.7c0.3-0.2,0.7-0.3,1.2-0.3v2l-1.6,0.3v4.8H205.6z" class="st8"/><path d="M218.2,137.7c0,0.2,0,0.4,0,0.6c0,0.8-0.3,1.4-0.9,1.7c-0.6,0.3-1.5,0.5-2.8,0.5c-0.2,0-0.4,0-0.6,0 c-0.2,0-0.4,0-0.6,0c-0.2,0-0.4,0-0.6-0.1c-0.2,0-0.3-0.1-0.5-0.1c-0.2-0.1-0.3-0.1-0.5-0.2c-0.1-0.1-0.3-0.2-0.4-0.3 s-0.2-0.2-0.3-0.4c-0.1-0.1-0.1-0.3-0.2-0.5s-0.1-0.4-0.1-0.6v-3.2c0-0.3,0-0.5,0.1-0.7c0.1-0.2,0.2-0.4,0.3-0.5 c0.1-0.1,0.3-0.3,0.5-0.4c0.2-0.1,0.4-0.2,0.6-0.2c0.2-0.1,0.4-0.1,0.7-0.1c0.3,0,0.5,0,0.7-0.1c0.2,0,0.4,0,0.7,0 c0.2,0,0.4,0,0.6,0s0.3,0,0.6,0s0.4,0,0.6,0.1c0.2,0,0.3,0.1,0.5,0.1s0.3,0.1,0.5,0.2c0.1,0.1,0.3,0.2,0.4,0.3 c0.1,0.1,0.2,0.2,0.3,0.3c0.1,0.1,0.1,0.3,0.2,0.5c0.1,0.2,0.1,0.4,0.1,0.6v1.9h-4.2v2.2h0.9v-1.5H218.2z M214.1,136.1h0.9v-1.8 h-0.9V136.1z" class="st8"/><path d="M223.1,137.9L223.1,137.9c0,0-0.1-0.1-0.2-0.1c-0.1,0-0.2,0-0.4,0c-0.2,0-0.3,0-0.4-0.1c-0.1,0-0.2,0-0.4-0.1 s-0.3,0-0.4-0.1s-0.2-0.1-0.4-0.1c-0.3-0.1-0.5-0.2-0.8-0.3c-0.2-0.1-0.4-0.3-0.6-0.4s-0.3-0.4-0.4-0.6c-0.1-0.2-0.2-0.5-0.2-0.8 c0-0.3,0-0.5,0.1-0.8s0.2-0.4,0.3-0.6s0.3-0.3,0.4-0.4c0.2-0.1,0.4-0.2,0.6-0.3c0.2-0.1,0.4-0.1,0.7-0.2c0.3,0,0.5-0.1,0.8-0.1 c0.3,0,0.5,0,0.9,0c0.3,0,0.5,0,0.7,0c0.2,0,0.4,0,0.7,0.1s0.5,0.1,0.7,0.1c0.2,0.1,0.4,0.1,0.6,0.2c0.2,0.1,0.3,0.2,0.5,0.4 c0.1,0.1,0.2,0.3,0.3,0.5c0.1,0.2,0.1,0.4,0.1,0.7c0,0.2,0,0.4,0,0.5l-3-0.2v-0.9h-0.9v1.1c0,0,0.1,0.1,0.3,0.1 c0.1,0,0.3,0,0.6,0.1c0.3,0,0.5,0.1,0.8,0.1c0.2,0,0.4,0.1,0.6,0.1c0.3,0.1,0.5,0.2,0.7,0.3s0.4,0.2,0.6,0.4s0.3,0.3,0.4,0.6 c0.1,0.2,0.2,0.5,0.2,0.7c0,0.3,0,0.5-0.1,0.7c-0.1,0.2-0.1,0.4-0.2,0.6c-0.1,0.2-0.2,0.3-0.4,0.4c-0.1,0.1-0.3,0.2-0.5,0.3 c-0.2,0.1-0.4,0.1-0.6,0.2c-0.2,0.1-0.4,0.1-0.6,0.1c-0.2,0-0.5,0-0.7,0.1c-0.2,0-0.4,0-0.7,0c-0.3,0-0.6,0-0.8,0 c-0.2,0-0.5,0-0.7-0.1c-0.3,0-0.5-0.1-0.6-0.2s-0.3-0.2-0.5-0.3c-0.2-0.1-0.3-0.3-0.4-0.4c-0.1-0.2-0.2-0.4-0.2-0.6 s-0.1-0.5-0.1-0.8c0-0.1,0-0.1,0-0.2l3,0.2v0.9h0.9V137.9z" class="st8"/><path d="M230.3,131.1v1.5h-3.2v-1.5H230.3z M230.3,140.4h-3.2v-7h3.2V140.4z" class="st8"/><path d="M234.6,138.4L234.6,138.4l0.7-5.1h3.1l-1.6,7h-4.5l-1.6-7h3.1L234.6,138.4z" class="st8"/><path d="M245.9,139c0,0.5,0.1,0.9,0.2,1.4h-2.9l-0.3-0.7c-0.2,0.3-0.4,0.5-0.8,0.7c-0.3,0.2-0.7,0.2-1.2,0.2 c-0.8,0-1.4-0.2-1.8-0.6c-0.4-0.4-0.6-0.9-0.6-1.7c0-0.8,0.2-1.4,0.7-1.8s1.1-0.6,2-0.6c0.5,0,1,0.1,1.5,0.2v-1.8h-0.8v1l-3,0.1 c0-0.2-0.1-0.4-0.1-0.6c0-0.2,0-0.4,0.1-0.6s0.2-0.3,0.3-0.4s0.3-0.2,0.5-0.3c0.2-0.1,0.4-0.2,0.6-0.2s0.4-0.1,0.6-0.1 c0.2,0,0.5,0,0.6-0.1c0.2,0,0.4,0,0.6,0c0.2,0,0.4,0,0.6,0c0.2,0,0.4,0,0.6,0c0.2,0,0.4,0,0.6,0.1s0.3,0.1,0.5,0.1 c0.2,0.1,0.3,0.1,0.5,0.2s0.3,0.2,0.4,0.3c0.1,0.1,0.2,0.2,0.3,0.3c0.1,0.1,0.1,0.3,0.2,0.5c0,0.2,0.1,0.4,0.1,0.6V139z M241.8,136.8v2.5h0.9v-2.5H241.8z" class="st8"/></g></g><g><g><path d="M142.4,137.4l0,1c0,0.2,0,0.4-0.1,0.6s-0.1,0.3-0.2,0.5c-0.1,0.1-0.2,0.2-0.3,0.4s-0.3,0.2-0.4,0.3 c-0.1,0.1-0.3,0.1-0.5,0.2c-0.2,0-0.4,0.1-0.5,0.1s-0.3,0-0.6,0.1c-0.2,0-0.4,0-0.6,0c-0.2,0-0.4,0-0.6,0c-0.3,0-0.5,0-0.8,0 c-0.2,0-0.5,0-0.7-0.1c-0.3,0-0.5-0.1-0.7-0.1c-0.2-0.1-0.4-0.1-0.6-0.2c-0.2-0.1-0.4-0.2-0.5-0.4s-0.2-0.3-0.3-0.5 c-0.1-0.2-0.1-0.5-0.1-0.7v-3.2c0-0.2,0-0.4,0.1-0.6s0.1-0.3,0.2-0.5s0.2-0.2,0.3-0.3c0.1-0.1,0.3-0.2,0.4-0.3 c0.1-0.1,0.3-0.1,0.5-0.2c0.2,0,0.4-0.1,0.5-0.1c0.2,0,0.4,0,0.6-0.1c0.2,0,0.4,0,0.6,0s0.4,0,0.6,0c0.3,0,0.5,0,0.7,0 s0.4,0,0.7,0s0.5,0.1,0.7,0.1c0.2,0,0.4,0.1,0.6,0.2c0.2,0.1,0.4,0.2,0.5,0.3s0.2,0.3,0.3,0.5c0.1,0.2,0.1,0.4,0.1,0.7v1h-3.2 v-1.7h-0.9v4.9h0.9v-1.8H142.4z" class="st1"/><path d="M145.7,140.5c-0.8,0-1.4-0.2-1.8-0.5c-0.4-0.4-0.6-0.9-0.6-1.6v-5.1h3.2v5.8h0.9v-5.8h3.2v7h-2.9l-0.2-0.6 c-0.1,0.2-0.4,0.4-0.7,0.6S146.1,140.5,145.7,140.5z" class="st1"/><path d="M159,137.7c0,0.2,0,0.4,0,0.6c0,0.8-0.3,1.4-0.9,1.7c-0.6,0.3-1.5,0.5-2.8,0.5c-0.2,0-0.4,0-0.6,0 c-0.2,0-0.4,0-0.6,0c-0.2,0-0.4,0-0.6-0.1c-0.2,0-0.3-0.1-0.5-0.1c-0.2-0.1-0.3-0.1-0.5-0.2c-0.1-0.1-0.3-0.2-0.4-0.3 s-0.2-0.2-0.3-0.4c-0.1-0.1-0.1-0.3-0.2-0.5s-0.1-0.4-0.1-0.6v-3.2c0-0.3,0-0.5,0.1-0.7c0.1-0.2,0.2-0.4,0.3-0.5 c0.1-0.1,0.3-0.3,0.5-0.4c0.2-0.1,0.4-0.2,0.6-0.2c0.2-0.1,0.4-0.1,0.7-0.1c0.3,0,0.5,0,0.7-0.1c0.2,0,0.4,0,0.7,0 c0.2,0,0.4,0,0.6,0s0.3,0,0.6,0s0.4,0,0.6,0.1c0.2,0,0.3,0.1,0.5,0.1s0.3,0.1,0.5,0.2c0.1,0.1,0.3,0.2,0.4,0.3 c0.1,0.1,0.2,0.2,0.3,0.3c0.1,0.1,0.1,0.3,0.2,0.5c0.1,0.2,0.1,0.4,0.1,0.6v1.9h-4.2v2.2h0.9v-1.5H159z M154.8,136.1h0.9v-1.8 h-0.9V136.1z" class="st1"/><path d="M164.9,133.2c0.8,0,1.4,0.2,1.8,0.5c0.4,0.4,0.6,0.9,0.6,1.5v5.1H164v-6h-0.9v6h-3.2v-7h2.9l0.2,0.6 c0.2-0.2,0.4-0.4,0.8-0.5C164.1,133.2,164.5,133.2,164.9,133.2z" class="st1"/><path d="M172.8,140.4L172.8,140.4c-0.1,0-0.1,0-0.1,0c0,0-0.1,0-0.1,0c-0.1,0-0.1,0-0.2,0c-0.1,0-0.1,0-0.2,0 c-0.1,0-0.2,0-0.2,0c-0.1,0-0.2,0-0.3,0c-0.4,0-0.8,0-1,0c-0.3,0-0.6-0.1-0.8-0.1s-0.5-0.1-0.6-0.2c-0.2-0.1-0.3-0.2-0.4-0.4 s-0.2-0.3-0.2-0.6c0-0.2-0.1-0.5-0.1-0.8v-4h-0.8v-1.1h0.8v-1.6h3.2v1.6h0.9v1.1h-0.9v4.2c0,0.1,0,0.2,0.1,0.3 c0.1,0.1,0.1,0.1,0.3,0.2c0.1,0,0.2,0.1,0.4,0.1c0.1,0,0.3,0,0.4,0V140.4z" class="st1"/><path d="M180.7,139c0,0.5,0.1,0.9,0.2,1.4h-2.9l-0.3-0.7c-0.2,0.3-0.4,0.5-0.8,0.7c-0.3,0.2-0.7,0.2-1.2,0.2 c-0.8,0-1.4-0.2-1.8-0.6c-0.4-0.4-0.6-0.9-0.6-1.7c0-0.8,0.2-1.4,0.7-1.8s1.1-0.6,2-0.6c0.5,0,1,0.1,1.5,0.2v-1.8h-0.8v1l-3,0.1 c0-0.2-0.1-0.4-0.1-0.6c0-0.2,0-0.4,0.1-0.6s0.2-0.3,0.3-0.4s0.3-0.2,0.5-0.3c0.2-0.1,0.4-0.2,0.6-0.2s0.4-0.1,0.6-0.1 c0.2,0,0.5,0,0.6-0.1c0.2,0,0.4,0,0.6,0c0.2,0,0.4,0,0.6,0c0.2,0,0.4,0,0.6,0c0.2,0,0.4,0,0.6,0.1s0.3,0.1,0.5,0.1 c0.2,0.1,0.3,0.1,0.5,0.2s0.3,0.2,0.4,0.3c0.1,0.1,0.2,0.2,0.3,0.3c0.1,0.1,0.1,0.3,0.2,0.5c0,0.2,0.1,0.4,0.1,0.6V139z M176.6,136.8v2.5h0.9v-2.5H176.6z" class="st1"/><path d="M183.9,140.4l0-7h2.7l0.2,0.8c0.1-0.3,0.4-0.5,0.7-0.7c0.3-0.2,0.7-0.3,1.2-0.3v2l-1.6,0.3v4.8H183.9z" class="st1"/><path d="M196.5,137.7c0,0.2,0,0.4,0,0.6c0,0.8-0.3,1.4-0.9,1.7c-0.6,0.3-1.5,0.5-2.8,0.5c-0.2,0-0.4,0-0.6,0 c-0.2,0-0.4,0-0.6,0c-0.2,0-0.4,0-0.6-0.1c-0.2,0-0.3-0.1-0.5-0.1c-0.2-0.1-0.3-0.1-0.5-0.2c-0.1-0.1-0.3-0.2-0.4-0.3 s-0.2-0.2-0.3-0.4c-0.1-0.1-0.1-0.3-0.2-0.5s-0.1-0.4-0.1-0.6v-3.2c0-0.3,0-0.5,0.1-0.7c0.1-0.2,0.2-0.4,0.3-0.5 c0.1-0.1,0.3-0.3,0.5-0.4c0.2-0.1,0.4-0.2,0.6-0.2c0.2-0.1,0.4-0.1,0.7-0.1c0.3,0,0.5,0,0.7-0.1c0.2,0,0.4,0,0.7,0 c0.2,0,0.4,0,0.6,0s0.3,0,0.6,0s0.4,0,0.6,0.1c0.2,0,0.3,0.1,0.5,0.1s0.3,0.1,0.5,0.2c0.1,0.1,0.3,0.2,0.4,0.3 c0.1,0.1,0.2,0.2,0.3,0.3c0.1,0.1,0.1,0.3,0.2,0.5c0.1,0.2,0.1,0.4,0.1,0.6v1.9h-4.2v2.2h0.9v-1.5H196.5z M192.3,136.1h0.9v-1.8 h-0.9V136.1z" class="st1"/><path d="M199.6,133.2c0.9,0,1.5,0.3,1.9,0.8l0.2-0.6h2.9v5.8c0,1.1-0.3,2-1,2.5c-0.7,0.5-1.7,0.8-3.1,0.8 c-1,0-1.9-0.1-2.7-0.3l0.3-1.6c0.5,0.1,1.2,0.2,1.9,0.2c0.6,0,1.1-0.1,1.3-0.2v-1.2c-0.2,0.2-0.4,0.4-0.7,0.5 c-0.3,0.1-0.7,0.2-1.1,0.2c-1.6,0-2.4-0.7-2.4-2.1v-2.4C197.3,133.9,198.1,133.2,199.6,133.2z M201.4,134.4h-0.9v4.3h0.9V134.4z" class="st1"/><path d="M205.6,140.4l0-7h2.7l0.2,0.8c0.1-0.3,0.4-0.5,0.7-0.7c0.3-0.2,0.7-0.3,1.2-0.3v2l-1.6,0.3v4.8H205.6z" class="st1"/><path d="M218.2,137.7c0,0.2,0,0.4,0,0.6c0,0.8-0.3,1.4-0.9,1.7c-0.6,0.3-1.5,0.5-2.8,0.5c-0.2,0-0.4,0-0.6,0 c-0.2,0-0.4,0-0.6,0c-0.2,0-0.4,0-0.6-0.1c-0.2,0-0.3-0.1-0.5-0.1c-0.2-0.1-0.3-0.1-0.5-0.2c-0.1-0.1-0.3-0.2-0.4-0.3 s-0.2-0.2-0.3-0.4c-0.1-0.1-0.1-0.3-0.2-0.5s-0.1-0.4-0.1-0.6v-3.2c0-0.3,0-0.5,0.1-0.7c0.1-0.2,0.2-0.4,0.3-0.5 c0.1-0.1,0.3-0.3,0.5-0.4c0.2-0.1,0.4-0.2,0.6-0.2c0.2-0.1,0.4-0.1,0.7-0.1c0.3,0,0.5,0,0.7-0.1c0.2,0,0.4,0,0.7,0 c0.2,0,0.4,0,0.6,0s0.3,0,0.6,0s0.4,0,0.6,0.1c0.2,0,0.3,0.1,0.5,0.1s0.3,0.1,0.5,0.2c0.1,0.1,0.3,0.2,0.4,0.3 c0.1,0.1,0.2,0.2,0.3,0.3c0.1,0.1,0.1,0.3,0.2,0.5c0.1,0.2,0.1,0.4,0.1,0.6v1.9h-4.2v2.2h0.9v-1.5H218.2z M214.1,136.1h0.9v-1.8 h-0.9V136.1z" class="st1"/><path d="M223.1,137.9L223.1,137.9c0,0-0.1-0.1-0.2-0.1c-0.1,0-0.2,0-0.4,0c-0.2,0-0.3,0-0.4-0.1c-0.1,0-0.2,0-0.4-0.1 s-0.3,0-0.4-0.1s-0.2-0.1-0.4-0.1c-0.3-0.1-0.5-0.2-0.8-0.3c-0.2-0.1-0.4-0.3-0.6-0.4s-0.3-0.4-0.4-0.6c-0.1-0.2-0.2-0.5-0.2-0.8 c0-0.3,0-0.5,0.1-0.8s0.2-0.4,0.3-0.6s0.3-0.3,0.4-0.4c0.2-0.1,0.4-0.2,0.6-0.3c0.2-0.1,0.4-0.1,0.7-0.2c0.3,0,0.5-0.1,0.8-0.1 c0.3,0,0.5,0,0.9,0c0.3,0,0.5,0,0.7,0c0.2,0,0.4,0,0.7,0.1s0.5,0.1,0.7,0.1c0.2,0.1,0.4,0.1,0.6,0.2c0.2,0.1,0.3,0.2,0.5,0.4 c0.1,0.1,0.2,0.3,0.3,0.5c0.1,0.2,0.1,0.4,0.1,0.7c0,0.2,0,0.4,0,0.5l-3-0.2v-0.9h-0.9v1.1c0,0,0.1,0.1,0.3,0.1 c0.1,0,0.3,0,0.6,0.1c0.3,0,0.5,0.1,0.8,0.1c0.2,0,0.4,0.1,0.6,0.1c0.3,0.1,0.5,0.2,0.7,0.3s0.4,0.2,0.6,0.4s0.3,0.3,0.4,0.6 c0.1,0.2,0.2,0.5,0.2,0.7c0,0.3,0,0.5-0.1,0.7c-0.1,0.2-0.1,0.4-0.2,0.6c-0.1,0.2-0.2,0.3-0.4,0.4c-0.1,0.1-0.3,0.2-0.5,0.3 c-0.2,0.1-0.4,0.1-0.6,0.2c-0.2,0.1-0.4,0.1-0.6,0.1c-0.2,0-0.5,0-0.7,0.1c-0.2,0-0.4,0-0.7,0c-0.3,0-0.6,0-0.8,0 c-0.2,0-0.5,0-0.7-0.1c-0.3,0-0.5-0.1-0.6-0.2s-0.3-0.2-0.5-0.3c-0.2-0.1-0.3-0.3-0.4-0.4c-0.1-0.2-0.2-0.4-0.2-0.6 s-0.1-0.5-0.1-0.8c0-0.1,0-0.1,0-0.2l3,0.2v0.9h0.9V137.9z" class="st1"/><path d="M230.3,131.1v1.5h-3.2v-1.5H230.3z M230.3,140.4h-3.2v-7h3.2V140.4z" class="st1"/><path d="M234.6,138.4L234.6,138.4l0.7-5.1h3.1l-1.6,7h-4.5l-1.6-7h3.1L234.6,138.4z" class="st1"/><path d="M245.9,139c0,0.5,0.1,0.9,0.2,1.4h-2.9l-0.3-0.7c-0.2,0.3-0.4,0.5-0.8,0.7c-0.3,0.2-0.7,0.2-1.2,0.2 c-0.8,0-1.4-0.2-1.8-0.6c-0.4-0.4-0.6-0.9-0.6-1.7c0-0.8,0.2-1.4,0.7-1.8s1.1-0.6,2-0.6c0.5,0,1,0.1,1.5,0.2v-1.8h-0.8v1l-3,0.1 c0-0.2-0.1-0.4-0.1-0.6c0-0.2,0-0.4,0.1-0.6s0.2-0.3,0.3-0.4s0.3-0.2,0.5-0.3c0.2-0.1,0.4-0.2,0.6-0.2s0.4-0.1,0.6-0.1 c0.2,0,0.5,0,0.6-0.1c0.2,0,0.4,0,0.6,0c0.2,0,0.4,0,0.6,0c0.2,0,0.4,0,0.6,0c0.2,0,0.4,0,0.6,0.1s0.3,0.1,0.5,0.1 c0.2,0.1,0.3,0.1,0.5,0.2s0.3,0.2,0.4,0.3c0.1,0.1,0.2,0.2,0.3,0.3c0.1,0.1,0.1,0.3,0.2,0.5c0,0.2,0.1,0.4,0.1,0.6V139z M241.8,136.8v2.5h0.9v-2.5H241.8z" class="st1"/></g></g><g><g><path d="M125.9,194.7c0.7,0,1.2,0.2,1.5,0.5v-2.3h2.7v7.9h-2.5l-0.2-0.5c-0.1,0.2-0.4,0.4-0.7,0.5c-0.3,0.1-0.6,0.2-0.9,0.2 c-1.3,0-2-0.6-2-1.9v-2.6C123.9,195.3,124.6,194.7,125.9,194.7z M127.5,195.7h-0.8v4.2h0.8V195.7z"/><path d="M133.8,200.8h-2.7v-6h2.7V200.8z M132.2,193.7c0.1-0.1,0.3-0.3,0.6-0.5c0.3-0.3,0.5-0.5,0.7-0.6c0.2-0.1,0.3-0.3,0.5-0.4 c0.2-0.2,0.4-0.3,0.5-0.3c0.2-0.1,0.4-0.2,0.6-0.2c0.2,0,0.4,0.1,0.6,0.2s0.2,0.4,0.2,0.6c0,0.2,0,0.3-0.1,0.5 c-0.1,0.1-0.2,0.3-0.4,0.4c-0.1,0.1-0.3,0.1-0.5,0.2s-0.5,0.2-0.7,0.2c-0.2,0.1-0.5,0.1-0.9,0.2c-0.4,0.1-0.6,0.2-0.8,0.2 c0,0-0.1,0-0.2,0c-0.1,0-0.2,0-0.2-0.1c-0.1,0-0.1-0.1-0.1-0.2C132.1,193.9,132.1,193.8,132.2,193.7z"/><path d="M140.7,199.6c0,0.4,0,0.8,0.1,1.2h-2.5l-0.3-0.6c-0.2,0.2-0.4,0.4-0.6,0.6c-0.3,0.1-0.6,0.2-1,0.2c-0.7,0-1.2-0.2-1.5-0.5 c-0.3-0.3-0.5-0.8-0.5-1.4c0-0.7,0.2-1.2,0.6-1.5c0.4-0.3,0.9-0.5,1.7-0.5c0.4,0,0.9,0.1,1.3,0.2v-1.5h-0.7v0.9l-2.5,0.1 c0-0.2-0.1-0.4-0.1-0.5c0-0.2,0-0.4,0.1-0.5c0.1-0.2,0.2-0.3,0.3-0.4c0.1-0.1,0.2-0.2,0.4-0.3c0.2-0.1,0.3-0.1,0.5-0.2 c0.2,0,0.3-0.1,0.6-0.1c0.2,0,0.4,0,0.5,0s0.3,0,0.5,0c0.2,0,0.3,0,0.5,0c0.1,0,0.3,0,0.5,0c0.2,0,0.3,0,0.5,0.1 c0.1,0,0.3,0.1,0.4,0.1s0.3,0.1,0.4,0.2c0.1,0.1,0.2,0.1,0.3,0.2c0.1,0.1,0.2,0.2,0.3,0.3s0.1,0.2,0.2,0.4c0,0.1,0.1,0.3,0.1,0.5 V199.6z M137.2,197.8v2.1h0.8v-2.1H137.2z"/><path d="M144.9,198.7L144.9,198.7c0,0-0.1,0-0.2-0.1c-0.1,0-0.2,0-0.3,0c-0.2,0-0.3,0-0.4,0s-0.2,0-0.3,0c-0.1,0-0.2,0-0.3-0.1 c-0.1,0-0.2,0-0.3-0.1c-0.2-0.1-0.5-0.1-0.6-0.2s-0.4-0.2-0.5-0.4c-0.2-0.1-0.3-0.3-0.4-0.5s-0.1-0.4-0.1-0.7c0-0.2,0-0.4,0.1-0.6 c0.1-0.2,0.1-0.4,0.2-0.5c0.1-0.1,0.2-0.3,0.4-0.4c0.2-0.1,0.3-0.2,0.5-0.2c0.2-0.1,0.4-0.1,0.6-0.1c0.2,0,0.4-0.1,0.7-0.1 c0.2,0,0.5,0,0.7,0c0.2,0,0.4,0,0.6,0s0.3,0,0.6,0c0.2,0,0.4,0.1,0.6,0.1c0.2,0,0.3,0.1,0.5,0.2s0.3,0.2,0.4,0.3 c0.1,0.1,0.2,0.3,0.2,0.4s0.1,0.4,0.1,0.6c0,0.2,0,0.3,0,0.4l-2.6-0.1v-0.7h-0.8v0.9c0,0,0.1,0.1,0.2,0.1c0.1,0,0.3,0,0.5,0.1 s0.5,0.1,0.6,0.1c0.2,0,0.3,0.1,0.5,0.1c0.2,0.1,0.4,0.1,0.6,0.2c0.2,0.1,0.4,0.2,0.5,0.3c0.2,0.1,0.3,0.3,0.4,0.5 c0.1,0.2,0.1,0.4,0.1,0.6c0,0.2,0,0.4-0.1,0.6s-0.1,0.4-0.2,0.5c-0.1,0.1-0.2,0.3-0.3,0.4s-0.3,0.2-0.4,0.3 c-0.2,0.1-0.3,0.1-0.5,0.2c-0.2,0-0.3,0.1-0.5,0.1s-0.4,0-0.6,0c-0.2,0-0.4,0-0.6,0c-0.3,0-0.5,0-0.7,0c-0.2,0-0.4,0-0.6-0.1 s-0.4-0.1-0.5-0.1c-0.1-0.1-0.3-0.1-0.4-0.2c-0.1-0.1-0.3-0.2-0.3-0.4s-0.2-0.3-0.2-0.5c-0.1-0.2-0.1-0.4-0.1-0.7 c0-0.1,0-0.1,0-0.2l2.6,0.1v0.8h0.8V198.7z"/></g><g><path d="M125.9,194.7c0.7,0,1.2,0.2,1.5,0.5v-2.3h2.7v7.9h-2.5l-0.2-0.5c-0.1,0.2-0.4,0.4-0.7,0.5 c-0.3,0.1-0.6,0.2-0.9,0.2c-1.3,0-2-0.6-2-1.9v-2.6C123.9,195.3,124.6,194.7,125.9,194.7z M127.5,195.7h-0.8v4.2h0.8V195.7z" class="st8"/><path d="M133.8,200.8h-2.7v-6h2.7V200.8z M132.2,193.7c0.1-0.1,0.3-0.3,0.6-0.5c0.3-0.3,0.5-0.5,0.7-0.6 c0.2-0.1,0.3-0.3,0.5-0.4c0.2-0.2,0.4-0.3,0.5-0.3c0.2-0.1,0.4-0.2,0.6-0.2c0.2,0,0.4,0.1,0.6,0.2s0.2,0.4,0.2,0.6 c0,0.2,0,0.3-0.1,0.5c-0.1,0.1-0.2,0.3-0.4,0.4c-0.1,0.1-0.3,0.1-0.5,0.2s-0.5,0.2-0.7,0.2c-0.2,0.1-0.5,0.1-0.9,0.2 c-0.4,0.1-0.6,0.2-0.8,0.2c0,0-0.1,0-0.2,0c-0.1,0-0.2,0-0.2-0.1c-0.1,0-0.1-0.1-0.1-0.2C132.1,193.9,132.1,193.8,132.2,193.7z" class="st8"/><path d="M140.7,199.6c0,0.4,0,0.8,0.1,1.2h-2.5l-0.3-0.6c-0.2,0.2-0.4,0.4-0.6,0.6c-0.3,0.1-0.6,0.2-1,0.2 c-0.7,0-1.2-0.2-1.5-0.5c-0.3-0.3-0.5-0.8-0.5-1.4c0-0.7,0.2-1.2,0.6-1.5c0.4-0.3,0.9-0.5,1.7-0.5c0.4,0,0.9,0.1,1.3,0.2v-1.5 h-0.7v0.9l-2.5,0.1c0-0.2-0.1-0.4-0.1-0.5c0-0.2,0-0.4,0.1-0.5c0.1-0.2,0.2-0.3,0.3-0.4c0.1-0.1,0.2-0.2,0.4-0.3 c0.2-0.1,0.3-0.1,0.5-0.2c0.2,0,0.3-0.1,0.6-0.1c0.2,0,0.4,0,0.5,0s0.3,0,0.5,0c0.2,0,0.3,0,0.5,0c0.1,0,0.3,0,0.5,0 c0.2,0,0.3,0,0.5,0.1c0.1,0,0.3,0.1,0.4,0.1s0.3,0.1,0.4,0.2c0.1,0.1,0.2,0.1,0.3,0.2c0.1,0.1,0.2,0.2,0.3,0.3s0.1,0.2,0.2,0.4 c0,0.1,0.1,0.3,0.1,0.5V199.6z M137.2,197.8v2.1h0.8v-2.1H137.2z" class="st8"/><path d="M144.9,198.7L144.9,198.7c0,0-0.1,0-0.2-0.1c-0.1,0-0.2,0-0.3,0c-0.2,0-0.3,0-0.4,0s-0.2,0-0.3,0 c-0.1,0-0.2,0-0.3-0.1c-0.1,0-0.2,0-0.3-0.1c-0.2-0.1-0.5-0.1-0.6-0.2s-0.4-0.2-0.5-0.4c-0.2-0.1-0.3-0.3-0.4-0.5 s-0.1-0.4-0.1-0.7c0-0.2,0-0.4,0.1-0.6c0.1-0.2,0.1-0.4,0.2-0.5c0.1-0.1,0.2-0.3,0.4-0.4c0.2-0.1,0.3-0.2,0.5-0.2 c0.2-0.1,0.4-0.1,0.6-0.1c0.2,0,0.4-0.1,0.7-0.1c0.2,0,0.5,0,0.7,0c0.2,0,0.4,0,0.6,0s0.3,0,0.6,0c0.2,0,0.4,0.1,0.6,0.1 c0.2,0,0.3,0.1,0.5,0.2s0.3,0.2,0.4,0.3c0.1,0.1,0.2,0.3,0.2,0.4s0.1,0.4,0.1,0.6c0,0.2,0,0.3,0,0.4l-2.6-0.1v-0.7h-0.8v0.9 c0,0,0.1,0.1,0.2,0.1c0.1,0,0.3,0,0.5,0.1s0.5,0.1,0.6,0.1c0.2,0,0.3,0.1,0.5,0.1c0.2,0.1,0.4,0.1,0.6,0.2 c0.2,0.1,0.4,0.2,0.5,0.3c0.2,0.1,0.3,0.3,0.4,0.5c0.1,0.2,0.1,0.4,0.1,0.6c0,0.2,0,0.4-0.1,0.6s-0.1,0.4-0.2,0.5 c-0.1,0.1-0.2,0.3-0.3,0.4s-0.3,0.2-0.4,0.3c-0.2,0.1-0.3,0.1-0.5,0.2c-0.2,0-0.3,0.1-0.5,0.1s-0.4,0-0.6,0c-0.2,0-0.4,0-0.6,0 c-0.3,0-0.5,0-0.7,0c-0.2,0-0.4,0-0.6-0.1s-0.4-0.1-0.5-0.1c-0.1-0.1-0.3-0.1-0.4-0.2c-0.1-0.1-0.3-0.2-0.3-0.4s-0.2-0.3-0.2-0.5 c-0.1-0.2-0.1-0.4-0.1-0.7c0-0.1,0-0.1,0-0.2l2.6,0.1v0.8h0.8V198.7z" class="st8"/></g></g><g><g><path d="M233.8,198.7L233.8,198.7c0,0-0.1,0-0.2-0.1c-0.1,0-0.2,0-0.3,0c-0.2,0-0.3,0-0.4,0s-0.2,0-0.3,0c-0.1,0-0.2,0-0.3-0.1 c-0.1,0-0.2,0-0.3-0.1c-0.2-0.1-0.5-0.1-0.6-0.2s-0.4-0.2-0.5-0.4c-0.2-0.1-0.3-0.3-0.4-0.5s-0.1-0.4-0.1-0.7c0-0.2,0-0.4,0.1-0.6 c0.1-0.2,0.1-0.4,0.2-0.5c0.1-0.1,0.2-0.3,0.4-0.4c0.2-0.1,0.3-0.2,0.5-0.2c0.2-0.1,0.4-0.1,0.6-0.1c0.2,0,0.4-0.1,0.7-0.1 c0.2,0,0.5,0,0.7,0c0.2,0,0.4,0,0.6,0s0.3,0,0.6,0c0.2,0,0.4,0.1,0.6,0.1c0.2,0,0.3,0.1,0.5,0.2s0.3,0.2,0.4,0.3 c0.1,0.1,0.2,0.3,0.2,0.4s0.1,0.4,0.1,0.6c0,0.2,0,0.3,0,0.4l-2.6-0.1v-0.7H233v0.9c0,0,0.1,0.1,0.2,0.1c0.1,0,0.3,0,0.5,0.1 s0.5,0.1,0.6,0.1c0.2,0,0.3,0.1,0.5,0.1c0.2,0.1,0.4,0.1,0.6,0.2c0.2,0.1,0.4,0.2,0.5,0.3c0.2,0.1,0.3,0.3,0.4,0.5 c0.1,0.2,0.1,0.4,0.1,0.6c0,0.2,0,0.4-0.1,0.6s-0.1,0.4-0.2,0.5c-0.1,0.1-0.2,0.3-0.3,0.4s-0.3,0.2-0.4,0.3 c-0.2,0.1-0.3,0.1-0.5,0.2c-0.2,0-0.3,0.1-0.5,0.1s-0.4,0-0.6,0c-0.2,0-0.4,0-0.6,0c-0.3,0-0.5,0-0.7,0c-0.2,0-0.4,0-0.6-0.1 s-0.4-0.1-0.5-0.1c-0.1-0.1-0.3-0.1-0.4-0.2c-0.1-0.1-0.3-0.2-0.3-0.4s-0.2-0.3-0.2-0.5c-0.1-0.2-0.1-0.4-0.1-0.7 c0-0.1,0-0.1,0-0.2l2.6,0.1v0.8h0.8V198.7z"/><path d="M243.4,198.6c0,0.2,0,0.3,0,0.5c0,0.7-0.3,1.2-0.8,1.5s-1.3,0.4-2.4,0.4c-0.2,0-0.4,0-0.5,0c-0.1,0-0.3,0-0.5,0 c-0.2,0-0.3,0-0.5-0.1c-0.1,0-0.3-0.1-0.4-0.1c-0.2,0-0.3-0.1-0.4-0.2s-0.2-0.1-0.3-0.2c-0.1-0.1-0.2-0.2-0.3-0.3 c-0.1-0.1-0.1-0.2-0.2-0.4c0-0.2-0.1-0.3-0.1-0.5v-2.8c0-0.2,0-0.4,0.1-0.6c0.1-0.2,0.2-0.3,0.3-0.4c0.1-0.1,0.3-0.2,0.4-0.3 s0.3-0.2,0.5-0.2c0.2,0,0.4-0.1,0.6-0.1c0.2,0,0.4,0,0.6,0s0.4,0,0.6,0c0.2,0,0.3,0,0.5,0c0.1,0,0.3,0,0.5,0c0.2,0,0.3,0,0.5,0.1 c0.1,0,0.3,0.1,0.4,0.1c0.2,0,0.3,0.1,0.4,0.1c0.1,0.1,0.2,0.1,0.3,0.2c0.1,0.1,0.2,0.2,0.3,0.3c0.1,0.1,0.1,0.2,0.2,0.4 c0,0.1,0.1,0.3,0.1,0.5v1.6h-3.5v1.9h0.8v-1.3H243.4z M239.9,197.2h0.8v-1.5h-0.8V197.2z"/><path d="M246.1,194.7c0.8,0,1.3,0.2,1.6,0.6l0.2-0.5h2.4v4.9c0,1-0.3,1.7-0.8,2.1s-1.4,0.7-2.6,0.7c-0.8,0-1.6-0.1-2.3-0.3 l0.3-1.3c0.4,0.1,1,0.2,1.7,0.2c0.6,0,0.9-0.1,1.1-0.2v-1c-0.1,0.2-0.4,0.3-0.6,0.4c-0.3,0.1-0.6,0.1-0.9,0.1c-1.3,0-2-0.6-2-1.8 v-2C244.1,195.3,244.7,194.7,246.1,194.7z M247.6,195.7h-0.8v3.6h0.8V195.7z"/><path d="M254.5,198.7L254.5,198.7c0,0-0.1,0-0.2-0.1c-0.1,0-0.2,0-0.3,0c-0.2,0-0.3,0-0.4,0c-0.1,0-0.2,0-0.3,0 c-0.1,0-0.2,0-0.3-0.1c-0.1,0-0.2,0-0.3-0.1c-0.2-0.1-0.5-0.1-0.6-0.2c-0.2-0.1-0.4-0.2-0.5-0.4c-0.2-0.1-0.3-0.3-0.4-0.5 c-0.1-0.2-0.1-0.4-0.1-0.7c0-0.2,0-0.4,0.1-0.6s0.1-0.4,0.2-0.5s0.2-0.3,0.4-0.4c0.2-0.1,0.3-0.2,0.5-0.2c0.2-0.1,0.4-0.1,0.6-0.1 c0.2,0,0.4-0.1,0.7-0.1s0.5,0,0.7,0c0.2,0,0.4,0,0.6,0s0.3,0,0.6,0c0.2,0,0.4,0.1,0.6,0.1c0.2,0,0.3,0.1,0.5,0.2 c0.2,0.1,0.3,0.2,0.4,0.3s0.2,0.3,0.2,0.4s0.1,0.4,0.1,0.6c0,0.2,0,0.3,0,0.4l-2.6-0.1v-0.7h-0.8v0.9c0,0,0.1,0.1,0.2,0.1 c0.1,0,0.3,0,0.5,0.1s0.5,0.1,0.6,0.1c0.2,0,0.3,0.1,0.5,0.1c0.2,0.1,0.4,0.1,0.6,0.2c0.2,0.1,0.4,0.2,0.5,0.3 c0.2,0.1,0.3,0.3,0.4,0.5c0.1,0.2,0.1,0.4,0.1,0.6c0,0.2,0,0.4-0.1,0.6c0,0.2-0.1,0.4-0.2,0.5c-0.1,0.1-0.2,0.3-0.3,0.4 s-0.3,0.2-0.4,0.3c-0.2,0.1-0.3,0.1-0.5,0.2c-0.2,0-0.3,0.1-0.5,0.1s-0.4,0-0.6,0c-0.2,0-0.4,0-0.6,0c-0.3,0-0.5,0-0.7,0 c-0.2,0-0.4,0-0.6-0.1s-0.4-0.1-0.5-0.1c-0.1-0.1-0.3-0.1-0.4-0.2c-0.1-0.1-0.3-0.2-0.3-0.4c-0.1-0.1-0.2-0.3-0.2-0.5 c-0.1-0.2-0.1-0.4-0.1-0.7c0-0.1,0-0.1,0-0.2l2.6,0.1v0.8h0.8V198.7z"/></g><g><path d="M233.8,198.7L233.8,198.7c0,0-0.1,0-0.2-0.1c-0.1,0-0.2,0-0.3,0c-0.2,0-0.3,0-0.4,0s-0.2,0-0.3,0 c-0.1,0-0.2,0-0.3-0.1c-0.1,0-0.2,0-0.3-0.1c-0.2-0.1-0.5-0.1-0.6-0.2s-0.4-0.2-0.5-0.4c-0.2-0.1-0.3-0.3-0.4-0.5 s-0.1-0.4-0.1-0.7c0-0.2,0-0.4,0.1-0.6c0.1-0.2,0.1-0.4,0.2-0.5c0.1-0.1,0.2-0.3,0.4-0.4c0.2-0.1,0.3-0.2,0.5-0.2 c0.2-0.1,0.4-0.1,0.6-0.1c0.2,0,0.4-0.1,0.7-0.1c0.2,0,0.5,0,0.7,0c0.2,0,0.4,0,0.6,0s0.3,0,0.6,0c0.2,0,0.4,0.1,0.6,0.1 c0.2,0,0.3,0.1,0.5,0.2s0.3,0.2,0.4,0.3c0.1,0.1,0.2,0.3,0.2,0.4s0.1,0.4,0.1,0.6c0,0.2,0,0.3,0,0.4l-2.6-0.1v-0.7H233v0.9 c0,0,0.1,0.1,0.2,0.1c0.1,0,0.3,0,0.5,0.1s0.5,0.1,0.6,0.1c0.2,0,0.3,0.1,0.5,0.1c0.2,0.1,0.4,0.1,0.6,0.2 c0.2,0.1,0.4,0.2,0.5,0.3c0.2,0.1,0.3,0.3,0.4,0.5c0.1,0.2,0.1,0.4,0.1,0.6c0,0.2,0,0.4-0.1,0.6s-0.1,0.4-0.2,0.5 c-0.1,0.1-0.2,0.3-0.3,0.4s-0.3,0.2-0.4,0.3c-0.2,0.1-0.3,0.1-0.5,0.2c-0.2,0-0.3,0.1-0.5,0.1s-0.4,0-0.6,0c-0.2,0-0.4,0-0.6,0 c-0.3,0-0.5,0-0.7,0c-0.2,0-0.4,0-0.6-0.1s-0.4-0.1-0.5-0.1c-0.1-0.1-0.3-0.1-0.4-0.2c-0.1-0.1-0.3-0.2-0.3-0.4s-0.2-0.3-0.2-0.5 c-0.1-0.2-0.1-0.4-0.1-0.7c0-0.1,0-0.1,0-0.2l2.6,0.1v0.8h0.8V198.7z" class="st8"/><path d="M243.4,198.6c0,0.2,0,0.3,0,0.5c0,0.7-0.3,1.2-0.8,1.5s-1.3,0.4-2.4,0.4c-0.2,0-0.4,0-0.5,0 c-0.1,0-0.3,0-0.5,0c-0.2,0-0.3,0-0.5-0.1c-0.1,0-0.3-0.1-0.4-0.1c-0.2,0-0.3-0.1-0.4-0.2s-0.2-0.1-0.3-0.2 c-0.1-0.1-0.2-0.2-0.3-0.3c-0.1-0.1-0.1-0.2-0.2-0.4c0-0.2-0.1-0.3-0.1-0.5v-2.8c0-0.2,0-0.4,0.1-0.6c0.1-0.2,0.2-0.3,0.3-0.4 c0.1-0.1,0.3-0.2,0.4-0.3s0.3-0.2,0.5-0.2c0.2,0,0.4-0.1,0.6-0.1c0.2,0,0.4,0,0.6,0s0.4,0,0.6,0c0.2,0,0.3,0,0.5,0 c0.1,0,0.3,0,0.5,0c0.2,0,0.3,0,0.5,0.1c0.1,0,0.3,0.1,0.4,0.1c0.2,0,0.3,0.1,0.4,0.1c0.1,0.1,0.2,0.1,0.3,0.2 c0.1,0.1,0.2,0.2,0.3,0.3c0.1,0.1,0.1,0.2,0.2,0.4c0,0.1,0.1,0.3,0.1,0.5v1.6h-3.5v1.9h0.8v-1.3H243.4z M239.9,197.2h0.8v-1.5 h-0.8V197.2z" class="st8"/><path d="M246.1,194.7c0.8,0,1.3,0.2,1.6,0.6l0.2-0.5h2.4v4.9c0,1-0.3,1.7-0.8,2.1s-1.4,0.7-2.6,0.7 c-0.8,0-1.6-0.1-2.3-0.3l0.3-1.3c0.4,0.1,1,0.2,1.7,0.2c0.6,0,0.9-0.1,1.1-0.2v-1c-0.1,0.2-0.4,0.3-0.6,0.4 c-0.3,0.1-0.6,0.1-0.9,0.1c-1.3,0-2-0.6-2-1.8v-2C244.1,195.3,244.7,194.7,246.1,194.7z M247.6,195.7h-0.8v3.6h0.8V195.7z" class="st8"/><path d="M254.5,198.7L254.5,198.7c0,0-0.1,0-0.2-0.1c-0.1,0-0.2,0-0.3,0c-0.2,0-0.3,0-0.4,0c-0.1,0-0.2,0-0.3,0 c-0.1,0-0.2,0-0.3-0.1c-0.1,0-0.2,0-0.3-0.1c-0.2-0.1-0.5-0.1-0.6-0.2c-0.2-0.1-0.4-0.2-0.5-0.4c-0.2-0.1-0.3-0.3-0.4-0.5 c-0.1-0.2-0.1-0.4-0.1-0.7c0-0.2,0-0.4,0.1-0.6s0.1-0.4,0.2-0.5s0.2-0.3,0.4-0.4c0.2-0.1,0.3-0.2,0.5-0.2c0.2-0.1,0.4-0.1,0.6-0.1 c0.2,0,0.4-0.1,0.7-0.1s0.5,0,0.7,0c0.2,0,0.4,0,0.6,0s0.3,0,0.6,0c0.2,0,0.4,0.1,0.6,0.1c0.2,0,0.3,0.1,0.5,0.2 c0.2,0.1,0.3,0.2,0.4,0.3s0.2,0.3,0.2,0.4s0.1,0.4,0.1,0.6c0,0.2,0,0.3,0,0.4l-2.6-0.1v-0.7h-0.8v0.9c0,0,0.1,0.1,0.2,0.1 c0.1,0,0.3,0,0.5,0.1s0.5,0.1,0.6,0.1c0.2,0,0.3,0.1,0.5,0.1c0.2,0.1,0.4,0.1,0.6,0.2c0.2,0.1,0.4,0.2,0.5,0.3 c0.2,0.1,0.3,0.3,0.4,0.5c0.1,0.2,0.1,0.4,0.1,0.6c0,0.2,0,0.4-0.1,0.6c0,0.2-0.1,0.4-0.2,0.5c-0.1,0.1-0.2,0.3-0.3,0.4 s-0.3,0.2-0.4,0.3c-0.2,0.1-0.3,0.1-0.5,0.2c-0.2,0-0.3,0.1-0.5,0.1s-0.4,0-0.6,0c-0.2,0-0.4,0-0.6,0c-0.3,0-0.5,0-0.7,0 c-0.2,0-0.4,0-0.6-0.1s-0.4-0.1-0.5-0.1c-0.1-0.1-0.3-0.1-0.4-0.2c-0.1-0.1-0.3-0.2-0.3-0.4c-0.1-0.1-0.2-0.3-0.2-0.5 c-0.1-0.2-0.1-0.4-0.1-0.7c0-0.1,0-0.1,0-0.2l2.6,0.1v0.8h0.8V198.7z" class="st8"/></g></g><g><g><path d="M168.7,194.7c1.3,0,2,0.6,2,1.8v4.4h-2.7v-5.1h-0.8v5.1h-2.7v-7.9h2.7v2.3c0.1-0.2,0.3-0.3,0.6-0.4 C168,194.7,168.3,194.7,168.7,194.7z"/><path d="M174.8,198.7L174.8,198.7c0,0-0.1,0-0.2-0.1c-0.1,0-0.2,0-0.3,0c-0.2,0-0.3,0-0.4,0s-0.2,0-0.3,0c-0.1,0-0.2,0-0.3-0.1 c-0.1,0-0.2,0-0.3-0.1c-0.2-0.1-0.5-0.1-0.6-0.2s-0.4-0.2-0.5-0.4c-0.2-0.1-0.3-0.3-0.4-0.5s-0.1-0.4-0.1-0.7c0-0.2,0-0.4,0.1-0.6 c0.1-0.2,0.1-0.4,0.2-0.5c0.1-0.1,0.2-0.3,0.4-0.4c0.2-0.1,0.3-0.2,0.5-0.2c0.2-0.1,0.4-0.1,0.6-0.1c0.2,0,0.4-0.1,0.7-0.1 c0.2,0,0.5,0,0.7,0c0.2,0,0.4,0,0.6,0s0.3,0,0.6,0c0.2,0,0.4,0.1,0.6,0.1c0.2,0,0.3,0.1,0.5,0.2s0.3,0.2,0.4,0.3 c0.1,0.1,0.2,0.3,0.2,0.4s0.1,0.4,0.1,0.6c0,0.2,0,0.3,0,0.4l-2.6-0.1v-0.7H174v0.9c0,0,0.1,0.1,0.2,0.1c0.1,0,0.3,0,0.5,0.1 s0.5,0.1,0.6,0.1c0.2,0,0.3,0.1,0.5,0.1c0.2,0.1,0.4,0.1,0.6,0.2c0.2,0.1,0.4,0.2,0.5,0.3c0.2,0.1,0.3,0.3,0.4,0.5 c0.1,0.2,0.1,0.4,0.1,0.6c0,0.2,0,0.4-0.1,0.6s-0.1,0.4-0.2,0.5c-0.1,0.1-0.2,0.3-0.3,0.4s-0.3,0.2-0.4,0.3 c-0.2,0.1-0.3,0.1-0.5,0.2c-0.2,0-0.3,0.1-0.5,0.1s-0.4,0-0.6,0c-0.2,0-0.4,0-0.6,0c-0.3,0-0.5,0-0.7,0c-0.2,0-0.4,0-0.6-0.1 s-0.4-0.1-0.5-0.1c-0.1-0.1-0.3-0.1-0.4-0.2c-0.1-0.1-0.3-0.2-0.3-0.4s-0.2-0.3-0.2-0.5c-0.1-0.2-0.1-0.4-0.1-0.7 c0-0.1,0-0.1,0-0.2l2.6,0.1v0.8h0.8V198.7z"/></g><g><path d="M168.7,194.7c1.3,0,2,0.6,2,1.8v4.4h-2.7v-5.1h-0.8v5.1h-2.7v-7.9h2.7v2.3c0.1-0.2,0.3-0.3,0.6-0.4 C168,194.7,168.3,194.7,168.7,194.7z" class="st8"/><path d="M174.8,198.7L174.8,198.7c0,0-0.1,0-0.2-0.1c-0.1,0-0.2,0-0.3,0c-0.2,0-0.3,0-0.4,0s-0.2,0-0.3,0 c-0.1,0-0.2,0-0.3-0.1c-0.1,0-0.2,0-0.3-0.1c-0.2-0.1-0.5-0.1-0.6-0.2s-0.4-0.2-0.5-0.4c-0.2-0.1-0.3-0.3-0.4-0.5 s-0.1-0.4-0.1-0.7c0-0.2,0-0.4,0.1-0.6c0.1-0.2,0.1-0.4,0.2-0.5c0.1-0.1,0.2-0.3,0.4-0.4c0.2-0.1,0.3-0.2,0.5-0.2 c0.2-0.1,0.4-0.1,0.6-0.1c0.2,0,0.4-0.1,0.7-0.1c0.2,0,0.5,0,0.7,0c0.2,0,0.4,0,0.6,0s0.3,0,0.6,0c0.2,0,0.4,0.1,0.6,0.1 c0.2,0,0.3,0.1,0.5,0.2s0.3,0.2,0.4,0.3c0.1,0.1,0.2,0.3,0.2,0.4s0.1,0.4,0.1,0.6c0,0.2,0,0.3,0,0.4l-2.6-0.1v-0.7H174v0.9 c0,0,0.1,0.1,0.2,0.1c0.1,0,0.3,0,0.5,0.1s0.5,0.1,0.6,0.1c0.2,0,0.3,0.1,0.5,0.1c0.2,0.1,0.4,0.1,0.6,0.2 c0.2,0.1,0.4,0.2,0.5,0.3c0.2,0.1,0.3,0.3,0.4,0.5c0.1,0.2,0.1,0.4,0.1,0.6c0,0.2,0,0.4-0.1,0.6s-0.1,0.4-0.2,0.5 c-0.1,0.1-0.2,0.3-0.3,0.4s-0.3,0.2-0.4,0.3c-0.2,0.1-0.3,0.1-0.5,0.2c-0.2,0-0.3,0.1-0.5,0.1s-0.4,0-0.6,0c-0.2,0-0.4,0-0.6,0 c-0.3,0-0.5,0-0.7,0c-0.2,0-0.4,0-0.6-0.1s-0.4-0.1-0.5-0.1c-0.1-0.1-0.3-0.1-0.4-0.2c-0.1-0.1-0.3-0.2-0.3-0.4s-0.2-0.3-0.2-0.5 c-0.1-0.2-0.1-0.4-0.1-0.7c0-0.1,0-0.1,0-0.2l2.6,0.1v0.8h0.8V198.7z" class="st8"/></g></g><g><g><path d="M204.3,194.7c0.7,0,1.1,0.1,1.5,0.4c0.3,0.3,0.5,0.7,0.5,1.3v4.3h-2.7v-5.1h-0.8c0,0.1,0,0.3,0,0.5v4.6h-2.7v-5.1h-0.8 v5.1h-2.7v-6h2.4l0.2,0.5c0.2-0.2,0.4-0.4,0.7-0.5s0.7-0.2,1-0.2c0.7,0,1.3,0.2,1.6,0.6c0.1-0.2,0.4-0.4,0.7-0.5 C203.6,194.7,204,194.7,204.3,194.7z"/><path d="M209.9,192.9v1.3h-2.7v-1.3H209.9z M209.9,200.8h-2.7v-6h2.7V200.8z"/><path d="M215.1,194.7c0.7,0,1.2,0.2,1.5,0.5s0.5,0.7,0.5,1.3v4.3h-2.7v-5.1h-0.8v5.1h-2.7v-6h2.4l0.2,0.5c0.1-0.2,0.4-0.3,0.7-0.5 C214.4,194.7,214.7,194.7,215.1,194.7z"/></g><g><path d="M204.3,194.7c0.7,0,1.1,0.1,1.5,0.4c0.3,0.3,0.5,0.7,0.5,1.3v4.3h-2.7v-5.1h-0.8c0,0.1,0,0.3,0,0.5v4.6h-2.7 v-5.1h-0.8v5.1h-2.7v-6h2.4l0.2,0.5c0.2-0.2,0.4-0.4,0.7-0.5s0.7-0.2,1-0.2c0.7,0,1.3,0.2,1.6,0.6c0.1-0.2,0.4-0.4,0.7-0.5 C203.6,194.7,204,194.7,204.3,194.7z" class="st8"/><path d="M209.9,192.9v1.3h-2.7v-1.3H209.9z M209.9,200.8h-2.7v-6h2.7V200.8z" class="st8"/><path d="M215.1,194.7c0.7,0,1.2,0.2,1.5,0.5s0.5,0.7,0.5,1.3v4.3h-2.7v-5.1h-0.8v5.1h-2.7v-6h2.4l0.2,0.5 c0.1-0.2,0.4-0.3,0.7-0.5C214.4,194.7,214.7,194.7,215.1,194.7z" class="st8"/></g></g><g><g><path d="M125.9,194.7c0.7,0,1.2,0.2,1.5,0.5v-2.3h2.7v7.9h-2.5l-0.2-0.5c-0.1,0.2-0.4,0.4-0.7,0.5 c-0.3,0.1-0.6,0.2-0.9,0.2c-1.3,0-2-0.6-2-1.9v-2.6C123.9,195.3,124.6,194.7,125.9,194.7z M127.5,195.7h-0.8v4.2h0.8V195.7z" class="st1"/><path d="M133.8,200.8h-2.7v-6h2.7V200.8z M132.2,193.7c0.1-0.1,0.3-0.3,0.6-0.5c0.3-0.3,0.5-0.5,0.7-0.6 c0.2-0.1,0.3-0.3,0.5-0.4c0.2-0.2,0.4-0.3,0.5-0.3c0.2-0.1,0.4-0.2,0.6-0.2c0.2,0,0.4,0.1,0.6,0.2s0.2,0.4,0.2,0.6 c0,0.2,0,0.3-0.1,0.5c-0.1,0.1-0.2,0.3-0.4,0.4c-0.1,0.1-0.3,0.1-0.5,0.2s-0.5,0.2-0.7,0.2c-0.2,0.1-0.5,0.1-0.9,0.2 c-0.4,0.1-0.6,0.2-0.8,0.2c0,0-0.1,0-0.2,0c-0.1,0-0.2,0-0.2-0.1c-0.1,0-0.1-0.1-0.1-0.2C132.1,193.9,132.1,193.8,132.2,193.7z" class="st1"/><path d="M140.7,199.6c0,0.4,0,0.8,0.1,1.2h-2.5l-0.3-0.6c-0.2,0.2-0.4,0.4-0.6,0.6c-0.3,0.1-0.6,0.2-1,0.2 c-0.7,0-1.2-0.2-1.5-0.5c-0.3-0.3-0.5-0.8-0.5-1.4c0-0.7,0.2-1.2,0.6-1.5c0.4-0.3,0.9-0.5,1.7-0.5c0.4,0,0.9,0.1,1.3,0.2v-1.5 h-0.7v0.9l-2.5,0.1c0-0.2-0.1-0.4-0.1-0.5c0-0.2,0-0.4,0.1-0.5c0.1-0.2,0.2-0.3,0.3-0.4c0.1-0.1,0.2-0.2,0.4-0.3 c0.2-0.1,0.3-0.1,0.5-0.2c0.2,0,0.3-0.1,0.6-0.1c0.2,0,0.4,0,0.5,0s0.3,0,0.5,0c0.2,0,0.3,0,0.5,0c0.1,0,0.3,0,0.5,0 c0.2,0,0.3,0,0.5,0.1c0.1,0,0.3,0.1,0.4,0.1s0.3,0.1,0.4,0.2c0.1,0.1,0.2,0.1,0.3,0.2c0.1,0.1,0.2,0.2,0.3,0.3s0.1,0.2,0.2,0.4 c0,0.1,0.1,0.3,0.1,0.5V199.6z M137.2,197.8v2.1h0.8v-2.1H137.2z" class="st1"/><path d="M144.9,198.7L144.9,198.7c0,0-0.1,0-0.2-0.1c-0.1,0-0.2,0-0.3,0c-0.2,0-0.3,0-0.4,0s-0.2,0-0.3,0 c-0.1,0-0.2,0-0.3-0.1c-0.1,0-0.2,0-0.3-0.1c-0.2-0.1-0.5-0.1-0.6-0.2s-0.4-0.2-0.5-0.4c-0.2-0.1-0.3-0.3-0.4-0.5 s-0.1-0.4-0.1-0.7c0-0.2,0-0.4,0.1-0.6c0.1-0.2,0.1-0.4,0.2-0.5c0.1-0.1,0.2-0.3,0.4-0.4c0.2-0.1,0.3-0.2,0.5-0.2 c0.2-0.1,0.4-0.1,0.6-0.1c0.2,0,0.4-0.1,0.7-0.1c0.2,0,0.5,0,0.7,0c0.2,0,0.4,0,0.6,0s0.3,0,0.6,0c0.2,0,0.4,0.1,0.6,0.1 c0.2,0,0.3,0.1,0.5,0.2s0.3,0.2,0.4,0.3c0.1,0.1,0.2,0.3,0.2,0.4s0.1,0.4,0.1,0.6c0,0.2,0,0.3,0,0.4l-2.6-0.1v-0.7h-0.8v0.9 c0,0,0.1,0.1,0.2,0.1c0.1,0,0.3,0,0.5,0.1s0.5,0.1,0.6,0.1c0.2,0,0.3,0.1,0.5,0.1c0.2,0.1,0.4,0.1,0.6,0.2 c0.2,0.1,0.4,0.2,0.5,0.3c0.2,0.1,0.3,0.3,0.4,0.5c0.1,0.2,0.1,0.4,0.1,0.6c0,0.2,0,0.4-0.1,0.6s-0.1,0.4-0.2,0.5 c-0.1,0.1-0.2,0.3-0.3,0.4s-0.3,0.2-0.4,0.3c-0.2,0.1-0.3,0.1-0.5,0.2c-0.2,0-0.3,0.1-0.5,0.1s-0.4,0-0.6,0c-0.2,0-0.4,0-0.6,0 c-0.3,0-0.5,0-0.7,0c-0.2,0-0.4,0-0.6-0.1s-0.4-0.1-0.5-0.1c-0.1-0.1-0.3-0.1-0.4-0.2c-0.1-0.1-0.3-0.2-0.3-0.4s-0.2-0.3-0.2-0.5 c-0.1-0.2-0.1-0.4-0.1-0.7c0-0.1,0-0.1,0-0.2l2.6,0.1v0.8h0.8V198.7z" class="st1"/></g></g><g><g><path d="M233.8,198.7L233.8,198.7c0,0-0.1,0-0.2-0.1c-0.1,0-0.2,0-0.3,0c-0.2,0-0.3,0-0.4,0s-0.2,0-0.3,0 c-0.1,0-0.2,0-0.3-0.1c-0.1,0-0.2,0-0.3-0.1c-0.2-0.1-0.5-0.1-0.6-0.2s-0.4-0.2-0.5-0.4c-0.2-0.1-0.3-0.3-0.4-0.5 s-0.1-0.4-0.1-0.7c0-0.2,0-0.4,0.1-0.6c0.1-0.2,0.1-0.4,0.2-0.5c0.1-0.1,0.2-0.3,0.4-0.4c0.2-0.1,0.3-0.2,0.5-0.2 c0.2-0.1,0.4-0.1,0.6-0.1c0.2,0,0.4-0.1,0.7-0.1c0.2,0,0.5,0,0.7,0c0.2,0,0.4,0,0.6,0s0.3,0,0.6,0c0.2,0,0.4,0.1,0.6,0.1 c0.2,0,0.3,0.1,0.5,0.2s0.3,0.2,0.4,0.3c0.1,0.1,0.2,0.3,0.2,0.4s0.1,0.4,0.1,0.6c0,0.2,0,0.3,0,0.4l-2.6-0.1v-0.7H233v0.9 c0,0,0.1,0.1,0.2,0.1c0.1,0,0.3,0,0.5,0.1s0.5,0.1,0.6,0.1c0.2,0,0.3,0.1,0.5,0.1c0.2,0.1,0.4,0.1,0.6,0.2 c0.2,0.1,0.4,0.2,0.5,0.3c0.2,0.1,0.3,0.3,0.4,0.5c0.1,0.2,0.1,0.4,0.1,0.6c0,0.2,0,0.4-0.1,0.6s-0.1,0.4-0.2,0.5 c-0.1,0.1-0.2,0.3-0.3,0.4s-0.3,0.2-0.4,0.3c-0.2,0.1-0.3,0.1-0.5,0.2c-0.2,0-0.3,0.1-0.5,0.1s-0.4,0-0.6,0c-0.2,0-0.4,0-0.6,0 c-0.3,0-0.5,0-0.7,0c-0.2,0-0.4,0-0.6-0.1s-0.4-0.1-0.5-0.1c-0.1-0.1-0.3-0.1-0.4-0.2c-0.1-0.1-0.3-0.2-0.3-0.4s-0.2-0.3-0.2-0.5 c-0.1-0.2-0.1-0.4-0.1-0.7c0-0.1,0-0.1,0-0.2l2.6,0.1v0.8h0.8V198.7z" class="st1"/><path d="M243.4,198.6c0,0.2,0,0.3,0,0.5c0,0.7-0.3,1.2-0.8,1.5s-1.3,0.4-2.4,0.4c-0.2,0-0.4,0-0.5,0 c-0.1,0-0.3,0-0.5,0c-0.2,0-0.3,0-0.5-0.1c-0.1,0-0.3-0.1-0.4-0.1c-0.2,0-0.3-0.1-0.4-0.2s-0.2-0.1-0.3-0.2 c-0.1-0.1-0.2-0.2-0.3-0.3c-0.1-0.1-0.1-0.2-0.2-0.4c0-0.2-0.1-0.3-0.1-0.5v-2.8c0-0.2,0-0.4,0.1-0.6c0.1-0.2,0.2-0.3,0.3-0.4 c0.1-0.1,0.3-0.2,0.4-0.3s0.3-0.2,0.5-0.2c0.2,0,0.4-0.1,0.6-0.1c0.2,0,0.4,0,0.6,0s0.4,0,0.6,0c0.2,0,0.3,0,0.5,0 c0.1,0,0.3,0,0.5,0c0.2,0,0.3,0,0.5,0.1c0.1,0,0.3,0.1,0.4,0.1c0.2,0,0.3,0.1,0.4,0.1c0.1,0.1,0.2,0.1,0.3,0.2 c0.1,0.1,0.2,0.2,0.3,0.3c0.1,0.1,0.1,0.2,0.2,0.4c0,0.1,0.1,0.3,0.1,0.5v1.6h-3.5v1.9h0.8v-1.3H243.4z M239.9,197.2h0.8v-1.5 h-0.8V197.2z" class="st1"/><path d="M246.1,194.7c0.8,0,1.3,0.2,1.6,0.6l0.2-0.5h2.4v4.9c0,1-0.3,1.7-0.8,2.1s-1.4,0.7-2.6,0.7 c-0.8,0-1.6-0.1-2.3-0.3l0.3-1.3c0.4,0.1,1,0.2,1.7,0.2c0.6,0,0.9-0.1,1.1-0.2v-1c-0.1,0.2-0.4,0.3-0.6,0.4 c-0.3,0.1-0.6,0.1-0.9,0.1c-1.3,0-2-0.6-2-1.8v-2C244.1,195.3,244.7,194.7,246.1,194.7z M247.6,195.7h-0.8v3.6h0.8V195.7z" class="st1"/><path d="M254.5,198.7L254.5,198.7c0,0-0.1,0-0.2-0.1c-0.1,0-0.2,0-0.3,0c-0.2,0-0.3,0-0.4,0c-0.1,0-0.2,0-0.3,0 c-0.1,0-0.2,0-0.3-0.1c-0.1,0-0.2,0-0.3-0.1c-0.2-0.1-0.5-0.1-0.6-0.2c-0.2-0.1-0.4-0.2-0.5-0.4c-0.2-0.1-0.3-0.3-0.4-0.5 c-0.1-0.2-0.1-0.4-0.1-0.7c0-0.2,0-0.4,0.1-0.6s0.1-0.4,0.2-0.5s0.2-0.3,0.4-0.4c0.2-0.1,0.3-0.2,0.5-0.2c0.2-0.1,0.4-0.1,0.6-0.1 c0.2,0,0.4-0.1,0.7-0.1s0.5,0,0.7,0c0.2,0,0.4,0,0.6,0s0.3,0,0.6,0c0.2,0,0.4,0.1,0.6,0.1c0.2,0,0.3,0.1,0.5,0.2 c0.2,0.1,0.3,0.2,0.4,0.3s0.2,0.3,0.2,0.4s0.1,0.4,0.1,0.6c0,0.2,0,0.3,0,0.4l-2.6-0.1v-0.7h-0.8v0.9c0,0,0.1,0.1,0.2,0.1 c0.1,0,0.3,0,0.5,0.1s0.5,0.1,0.6,0.1c0.2,0,0.3,0.1,0.5,0.1c0.2,0.1,0.4,0.1,0.6,0.2c0.2,0.1,0.4,0.2,0.5,0.3 c0.2,0.1,0.3,0.3,0.4,0.5c0.1,0.2,0.1,0.4,0.1,0.6c0,0.2,0,0.4-0.1,0.6c0,0.2-0.1,0.4-0.2,0.5c-0.1,0.1-0.2,0.3-0.3,0.4 s-0.3,0.2-0.4,0.3c-0.2,0.1-0.3,0.1-0.5,0.2c-0.2,0-0.3,0.1-0.5,0.1s-0.4,0-0.6,0c-0.2,0-0.4,0-0.6,0c-0.3,0-0.5,0-0.7,0 c-0.2,0-0.4,0-0.6-0.1s-0.4-0.1-0.5-0.1c-0.1-0.1-0.3-0.1-0.4-0.2c-0.1-0.1-0.3-0.2-0.3-0.4c-0.1-0.1-0.2-0.3-0.2-0.5 c-0.1-0.2-0.1-0.4-0.1-0.7c0-0.1,0-0.1,0-0.2l2.6,0.1v0.8h0.8V198.7z" class="st1"/></g></g><g><g><path d="M168.7,194.7c1.3,0,2,0.6,2,1.8v4.4h-2.7v-5.1h-0.8v5.1h-2.7v-7.9h2.7v2.3c0.1-0.2,0.3-0.3,0.6-0.4 C168,194.7,168.3,194.7,168.7,194.7z" class="st1"/><path d="M174.8,198.7L174.8,198.7c0,0-0.1,0-0.2-0.1c-0.1,0-0.2,0-0.3,0c-0.2,0-0.3,0-0.4,0s-0.2,0-0.3,0 c-0.1,0-0.2,0-0.3-0.1c-0.1,0-0.2,0-0.3-0.1c-0.2-0.1-0.5-0.1-0.6-0.2s-0.4-0.2-0.5-0.4c-0.2-0.1-0.3-0.3-0.4-0.5 s-0.1-0.4-0.1-0.7c0-0.2,0-0.4,0.1-0.6c0.1-0.2,0.1-0.4,0.2-0.5c0.1-0.1,0.2-0.3,0.4-0.4c0.2-0.1,0.3-0.2,0.5-0.2 c0.2-0.1,0.4-0.1,0.6-0.1c0.2,0,0.4-0.1,0.7-0.1c0.2,0,0.5,0,0.7,0c0.2,0,0.4,0,0.6,0s0.3,0,0.6,0c0.2,0,0.4,0.1,0.6,0.1 c0.2,0,0.3,0.1,0.5,0.2s0.3,0.2,0.4,0.3c0.1,0.1,0.2,0.3,0.2,0.4s0.1,0.4,0.1,0.6c0,0.2,0,0.3,0,0.4l-2.6-0.1v-0.7H174v0.9 c0,0,0.1,0.1,0.2,0.1c0.1,0,0.3,0,0.5,0.1s0.5,0.1,0.6,0.1c0.2,0,0.3,0.1,0.5,0.1c0.2,0.1,0.4,0.1,0.6,0.2 c0.2,0.1,0.4,0.2,0.5,0.3c0.2,0.1,0.3,0.3,0.4,0.5c0.1,0.2,0.1,0.4,0.1,0.6c0,0.2,0,0.4-0.1,0.6s-0.1,0.4-0.2,0.5 c-0.1,0.1-0.2,0.3-0.3,0.4s-0.3,0.2-0.4,0.3c-0.2,0.1-0.3,0.1-0.5,0.2c-0.2,0-0.3,0.1-0.5,0.1s-0.4,0-0.6,0c-0.2,0-0.4,0-0.6,0 c-0.3,0-0.5,0-0.7,0c-0.2,0-0.4,0-0.6-0.1s-0.4-0.1-0.5-0.1c-0.1-0.1-0.3-0.1-0.4-0.2c-0.1-0.1-0.3-0.2-0.3-0.4s-0.2-0.3-0.2-0.5 c-0.1-0.2-0.1-0.4-0.1-0.7c0-0.1,0-0.1,0-0.2l2.6,0.1v0.8h0.8V198.7z" class="st1"/></g></g><g><g><path d="M204.3,194.7c0.7,0,1.1,0.1,1.5,0.4c0.3,0.3,0.5,0.7,0.5,1.3v4.3h-2.7v-5.1h-0.8c0,0.1,0,0.3,0,0.5v4.6h-2.7 v-5.1h-0.8v5.1h-2.7v-6h2.4l0.2,0.5c0.2-0.2,0.4-0.4,0.7-0.5s0.7-0.2,1-0.2c0.7,0,1.3,0.2,1.6,0.6c0.1-0.2,0.4-0.4,0.7-0.5 C203.6,194.7,204,194.7,204.3,194.7z" class="st1"/><path d="M209.9,192.9v1.3h-2.7v-1.3H209.9z M209.9,200.8h-2.7v-6h2.7V200.8z" class="st1"/><path d="M215.1,194.7c0.7,0,1.2,0.2,1.5,0.5s0.5,0.7,0.5,1.3v4.3h-2.7v-5.1h-0.8v5.1h-2.7v-6h2.4l0.2,0.5 c0.1-0.2,0.4-0.3,0.7-0.5C214.4,194.7,214.7,194.7,215.1,194.7z" class="st1"/></g></g><g><g><path d="M42.5,34.6h-3.4c-0.5,0-0.9-0.1-1.1-0.3c-0.2-0.2-0.2-0.5,0-0.9l0.6-1.8c0.1-0.4,0.4-0.7,0.7-0.9 c0.3-0.2,0.7-0.3,1.3-0.3H44l-0.3,1h-2.9c-0.3,0-0.5,0.1-0.7,0.2c-0.1,0.1-0.2,0.3-0.3,0.5l-0.4,1c0,0.1-0.1,0.2-0.1,0.3 c0,0.1,0,0.2,0,0.2c0,0.1,0.1,0.1,0.2,0.1c0.1,0,0.2,0,0.4,0h1.6l0.5-1.4h1.3L42.5,34.6z" class="st1"/><path d="M49.3,31.5l-1.1,3.1h-1.3l0.6-1.7h-2.3l-0.6,1.7h-1.3l1.1-3.1c0.1-0.4,0.4-0.7,0.7-0.9 c0.3-0.2,0.7-0.3,1.3-0.3h1.9c0.5,0,0.9,0.1,1.1,0.3C49.4,30.8,49.4,31.1,49.3,31.5z M45.5,31.9h2.3c0-0.1,0.1-0.2,0.1-0.3 c0-0.1,0-0.2,0-0.2c0-0.1-0.1-0.1-0.2-0.1c-0.1,0-0.2,0-0.4,0h-0.8c-0.3,0-0.5,0.1-0.7,0.2C45.6,31.6,45.5,31.7,45.5,31.9z" class="st1"/><path d="M51.7,30.3l0.9,2.3l2.5-2.3h1.3l-1.5,4.4h-1.3l0.8-2.3L52,34.5h-0.2L51,32.4l-0.8,2.3h-1.3l1.5-4.4H51.7z" class="st1"/><path d="M56.9,34.6h-1.3l1.5-4.4h1.3L56.9,34.6z" class="st1"/><path d="M64.1,30.3l-1.5,4.4h-1.2l-1.6-2.5l-0.9,2.5h-1.3l1.5-4.4h1.2l1.6,2.5l0.9-2.5H64.1z" class="st1"/><path d="M68.2,34.6h-3.4c-0.5,0-0.9-0.1-1.1-0.3c-0.2-0.2-0.2-0.5,0-0.9l0.6-1.8c0.1-0.4,0.4-0.7,0.7-0.9 c0.3-0.2,0.7-0.3,1.3-0.3h3.4l-0.3,1h-2.9c-0.3,0-0.5,0.1-0.7,0.2c-0.1,0.1-0.2,0.3-0.3,0.5l-0.4,1c0,0.1-0.1,0.2-0.1,0.3 c0,0.1,0,0.2,0,0.2c0,0.1,0.1,0.1,0.2,0.1c0.1,0,0.2,0,0.4,0h1.6l0.5-1.4h1.3L68.2,34.6z" class="st1"/><path d="M74.1,32h2.3l0.6-1.7h1.3l-1.5,4.4h-1.3l0.6-1.7h-2.3l-0.6,1.7h-1.3l1.5-4.4h1.3L74.1,32z" class="st1"/><path d="M83.6,31.5l-1.1,3.1h-1.3l0.6-1.7h-2.3l-0.6,1.7h-1.3l1.1-3.1c0.1-0.4,0.4-0.7,0.7-0.9 c0.3-0.2,0.7-0.3,1.3-0.3h1.9c0.5,0,0.9,0.1,1.1,0.3C83.7,30.8,83.7,31.1,83.6,31.5z M79.8,31.9h2.3c0-0.1,0.1-0.2,0.1-0.3 c0-0.1,0-0.2,0-0.2c0-0.1-0.1-0.1-0.2-0.1c-0.1,0-0.2,0-0.4,0h-0.8c-0.3,0-0.5,0.1-0.7,0.2C80,31.6,79.9,31.7,79.8,31.9z" class="st1"/><path d="M87.3,33.1l0.9,1.5h-1.5l-0.9-1.5H85l-0.5,1.5h-1.3l1.5-4.4h3.4c0.5,0,0.9,0.1,1.1,0.3c0.2,0.2,0.2,0.5,0,0.9 l-0.1,0.3c-0.1,0.4-0.3,0.7-0.6,0.9C88.2,33,87.8,33.1,87.3,33.1z M87.4,31.3h-1.7l-0.3,0.9h1.7c0.1,0,0.2,0,0.3,0 c0.1,0,0.2,0,0.2-0.1s0.1-0.1,0.1-0.1c0-0.1,0.1-0.1,0.1-0.2c0-0.1,0.1-0.2,0.1-0.2s0-0.1,0-0.1s-0.1,0-0.2-0.1 C87.6,31.3,87.5,31.3,87.4,31.3z" class="st1"/><path d="M94.9,31.5l-0.6,1.8c-0.1,0.4-0.4,0.7-0.7,0.9c-0.3,0.2-0.7,0.3-1.3,0.3h-3.4l1.5-4.4h3.4 c0.5,0,0.9,0.1,1.1,0.3C95,30.8,95,31.1,94.9,31.5z M92.9,31.3h-1.6l-0.8,2.4h1.6c0.2,0,0.3,0,0.4,0c0.1,0,0.2-0.1,0.3-0.1 c0.1-0.1,0.1-0.1,0.2-0.2c0-0.1,0.1-0.2,0.1-0.3l0.4-1c0-0.1,0.1-0.2,0.1-0.3c0-0.1,0-0.2,0-0.2c0-0.1-0.1-0.1-0.2-0.1 C93.2,31.3,93.1,31.3,92.9,31.3z" class="st1"/><path d="M97.2,33.7h0.4l1.2-3.4h1.3l-1.2,3.4h0.4c0.1,0,0.1,0,0.2,0c0.1,0,0.1-0.1,0.2-0.1c0.1-0.1,0.2-0.2,0.3-0.3 c0.1-0.1,0.2-0.3,0.4-0.6c0.2-0.2,0.4-0.6,0.6-0.9c0.2-0.4,0.5-0.8,0.8-1.3h1.4l-1.9,3.1c-0.1,0.1-0.2,0.2-0.3,0.4 c-0.1,0.1-0.3,0.3-0.4,0.4c-0.2,0.1-0.3,0.2-0.5,0.3c-0.2,0.1-0.3,0.1-0.4,0.1h-3.3c-0.1,0-0.3,0-0.4-0.1s-0.2-0.2-0.2-0.3 c-0.1-0.1-0.1-0.3-0.1-0.4c0-0.1,0-0.3,0-0.4l0.2-3.1h1.4L97,31.7c0,0.2,0,0.4,0,0.7c0,0.2,0,0.4,0,0.6s0.1,0.3,0.1,0.5 C97.1,33.6,97.1,33.7,97.2,33.7z" class="st1"/><path d="M108,31.5l-1.1,3.1h-1.3l0.6-1.7h-2.3l-0.6,1.7H102l1.1-3.1c0.1-0.4,0.4-0.7,0.7-0.9c0.3-0.2,0.7-0.3,1.3-0.3 h1.9c0.5,0,0.9,0.1,1.1,0.3C108.2,30.8,108.2,31.1,108,31.5z M104.2,31.9h2.3c0-0.1,0.1-0.2,0.1-0.3c0-0.1,0-0.2,0-0.2 c0-0.1-0.1-0.1-0.2-0.1c-0.1,0-0.2,0-0.4,0h-0.8c-0.3,0-0.5,0.1-0.7,0.2C104.4,31.6,104.3,31.7,104.2,31.9z" class="st1"/><path d="M111.8,33.1l0.9,1.5h-1.5l-0.9-1.5h-0.8l-0.5,1.5h-1.3l1.5-4.4h3.4c0.5,0,0.9,0.1,1.1,0.3 c0.2,0.2,0.2,0.5,0,0.9l-0.1,0.3c-0.1,0.4-0.3,0.7-0.6,0.9C112.7,33,112.3,33.1,111.8,33.1z M111.8,31.3h-1.7l-0.3,0.9h1.7 c0.1,0,0.2,0,0.3,0c0.1,0,0.2,0,0.2-0.1s0.1-0.1,0.1-0.1c0-0.1,0.1-0.1,0.1-0.2c0-0.1,0.1-0.2,0.1-0.2s0-0.1,0-0.1s-0.1,0-0.2-0.1 C112,31.3,111.9,31.3,111.8,31.3z" class="st1"/><path d="M118.3,34.6h-3.4c-0.5,0-0.9-0.1-1.1-0.3c-0.2-0.2-0.2-0.5,0-0.9l0.6-1.8c0.1-0.4,0.4-0.7,0.7-0.9 c0.3-0.2,0.7-0.3,1.3-0.3h3.4l-0.3,1h-2.9c-0.3,0-0.5,0.1-0.7,0.2c-0.1,0.1-0.2,0.3-0.3,0.5l0,0h3.7l-0.3,1h-3.7l0,0 c0,0.1-0.1,0.2-0.1,0.3c0,0.1,0,0.2,0,0.2c0,0.1,0.1,0.1,0.2,0.1c0.1,0,0.2,0,0.4,0h2.9L118.3,34.6z" class="st1"/></g><g><path d="M52.7,19.4l-5.2,4.7l-1.9-4.7h-3.1l-0.6,1.8l-2.6,7.6h3.2l1.2-3.6l0.3-0.8l1.7,4h0.6l4.5-4l-1.5,4.4h3.2 l3.3-9.5H52.7z" class="st1"/><path d="M66.9,20c-0.4-0.5-1.2-0.7-2.4-0.7h-4c-1.2,0-2.2,0.2-2.9,0.7c-0.7,0.5-1.2,1.2-1.6,2.1l-2.3,6.7H57l1.2-3.5 h4.5l-1,3h0l-0.2,0.6h3.2l0.6-1.7h0l1.7-5C67.3,21.2,67.3,20.5,66.9,20z M59.1,22.8c0.1-0.3,0.3-0.6,0.6-0.8 c0.2-0.2,0.6-0.2,1.2-0.2h1.7c0.5,0,0.8,0.1,1,0.2c0.1,0.2,0.1,0.4,0,0.8H59.1z" class="st1"/><path d="M76.6,19.4l-2.9,2.5l-1.1-2.5H69l2.2,4.8l-1.5,1.3l-3.9,3.4h3.7l2.8-2.4l1.1,2.4H77l-2.2-4.7l4.4-3.8l0,0 l1-0.9H76.6z" class="st1"/><path d="M81.2,19.4l-3.3,9.5h3.2l3.3-9.5H81.2z" class="st1"/><path d="M95.9,19.4l-5.2,4.7l-1.9-4.7h-3.1l-3.3,9.5h3.2l1.5-4.4l1.7,4h0.6l4.5-4l-1.5,4.4h3.2l3.3-9.5H95.9z" class="st1"/><path d="M108,19.4l-2,5.8c-0.1,0.2-0.1,0.4-0.2,0.5c-0.1,0.2-0.2,0.3-0.3,0.4c-0.1,0.1-0.3,0.2-0.5,0.2 c-0.2,0-0.4,0.1-0.7,0.1h-1.7c-0.3,0-0.5,0-0.7-0.1c-0.2-0.1-0.3-0.1-0.3-0.2c-0.1-0.1-0.1-0.2-0.1-0.4c0-0.2,0.1-0.3,0.1-0.5 l2-5.8h-3.2L98,26c-0.3,1-0.3,1.7,0.1,2.1c0.4,0.5,1.2,0.7,2.4,0.7h4c1.2,0,2.2-0.2,2.9-0.7c0.7-0.5,1.2-1.2,1.5-2.1l2.3-6.7H108z" class="st1"/><path d="M123.5,19.4H115c-0.6,0-1.2,0.2-1.7,0.5c-0.5,0.3-0.9,0.7-1.3,1.3c0,0-0.1,0.1-0.1,0.2c0,0.1,0,0.1-0.1,0.2 c-0.2,0.4-0.2,0.9-0.1,1.3c0.1,0.4,0.3,0.7,0.5,0.9l4.2,2.4l0.4,0.2c0,0,0,0,0,0h-6.8l-0.9,2.5h8.5c0.6,0,1.2-0.2,1.7-0.5 c0.5-0.3,0.9-0.7,1.3-1.3c0.1-0.1,0.1-0.2,0.2-0.4c0,0,0,0,0,0c0.1-0.3,0.1-0.6,0.1-0.8c0-0.3-0.1-0.5-0.1-0.7 c-0.1-0.2-0.2-0.3-0.3-0.5c-0.1-0.1-0.2-0.2-0.2-0.2l-4.7-2.6c0,0,0,0,0,0h6.8L123.5,19.4z" class="st1"/></g><g><g><path d="M25,16.6c-5.8,0-10.4,4.7-10.4,10.4c0,2.6,0.9,4.9,2.4,6.7c1.9,2.3,4.8,3.7,8,3.7c4.2,0,7.8-2.5,9.5-6 c0.6-1.3,1-2.9,1-4.4C35.4,21.2,30.7,16.6,25,16.6z M25,35.5c-2.2,0-4.2-0.9-5.8-2.3c-1.7-1.5-2.7-3.8-2.7-6.2 c0-4.7,3.8-8.5,8.5-8.5c4.7,0,8.5,3.8,8.5,8.5c0,1.7-0.5,3.2-1.3,4.5C30.6,33.9,28,35.5,25,35.5z" class="st1"/></g></g><g><g><path d="M29,23.2c-0.1,0.1-0.5,1.5-0.1-0.5c0.1-0.6-0.2-1-0.6-1.4c-1.1-0.9-2.8-1.2-4.2-1c-0.9,0.1-2.1,0.5-2.8,1.2 c-0.3,0.3-0.4,0.7-0.3,1.1c0.3,2,0,0.6-0.1,0.5c0,0-0.6,6-0.4,6.6c0.1,0.5,2.4,2,3.3,2.6c0.1,0,0.1,0.1,0.2,0.1l0.4,1.3l-0.1-1.1 c0,0,0,0,0,0s0-0.1,0-0.3c-0.1-0.9-0.3-3.3-0.3-5.3c0,0-2.1-1.7-2.2-1.9c-0.1-0.2,0-0.2-0.1-0.4c0.1,0,2.8,1.4,2.8,1.5 s0.2,2.5,0.2,2.7c0,0.1,0.4,0.4,0.4,0.4s0.4-0.3,0.4-0.4c0-0.1,0.2-2.6,0.2-2.7s2.7-1.5,2.8-1.5c-0.1,0.2,0,0.2-0.1,0.4 c-0.1,0.2-2.2,1.9-2.2,1.9c0,1.4-0.1,3.4-0.2,4.4l-0.1,0.7l-0.2,1.6l0.4-1.2c0.2-0.1,0.5-0.3,0.8-0.5c1.1-0.7,2.7-1.8,2.8-2.2 C29.7,29.2,29,23.2,29,23.2z M24.4,20.6c-0.6,0.2-1.1,0.5-1.6,0.9c-0.3,0.2-0.5,0.6-0.6,0.9c-0.1,0.3-0.1,0.5-0.1,0.8 c0,0.1,0.1,0.4,0,0.5c0,0.1-0.1,0.1-0.1,0c-1.8-2.4,2.2-3,2.7-3.2C24.5,20.5,24.4,20.6,24.4,20.6z" class="st1"/></g></g></g></svg>