<?xml version="1.0" encoding="utf-8"?>
<!-- Generator: Adobe Illustrator 27.9.3, SVG Export Plug-In . SVG Version: 9.03 Build 53313)  -->
<svg version="1.1" id="Capa_1" xmlns="http://www.w3.org/2000/svg" xmlns:xlink="http://www.w3.org/1999/xlink" x="0px" y="0px"
	 viewBox="0 0 500 264" style="enable-background:new 0 0 500 264;" xml:space="preserve">
<style type="text/css">
	.st0{fill:none;stroke:#000000;}
	.st1{fill:#FFFFFF;}
	.st2{fill:none;stroke:#000000;stroke-width:2;}
	.st3{fill:#FF5400;}
	.st4{opacity:0.15;}
	.st5{fill:#28304D;}
	.st6{fill-rule:evenodd;clip-rule:evenodd;fill:#0080C4;}
	.st7{fill-rule:evenodd;clip-rule:evenodd;fill:#00A6AD;}
	.st8{fill-rule:evenodd;clip-rule:evenodd;fill:#0096C3;}
	.st9{fill:none;}
</style>
<g>
	<defs>
		<rect id="SVGID_1_" x="-0.1" y="0.5" width="501" height="264"/>
	</defs>
	<clipPath id="SVGID_00000079484940086489448140000016257405180850475666_">
		<use xlink:href="#SVGID_1_"  style="overflow:visible;"/>
	</clipPath>
	<g style="clip-path:url(#SVGID_00000079484940086489448140000016257405180850475666_);">
		
			<image style="overflow:visible;" width="1920" height="1080" xlink:href="Vorterix/16x9 a.png"  transform="matrix(0.3792 0 0 0.3792 -7 -59.9096)">
		</image>
	</g>
</g>
<g>
	<g>
		<path d="M175.8,222.4c0.8,0,1.4,0.2,1.8,0.6v-2.7h3.2v9.2h-2.9l-0.2-0.6c-0.2,0.2-0.4,0.4-0.8,0.6c-0.3,0.1-0.7,0.2-1.1,0.2
			c-1.6,0-2.3-0.7-2.3-2.2v-3C173.4,223.1,174.2,222.4,175.8,222.4z M177.6,223.6h-0.9v4.9h0.9V223.6z"/>
		<path d="M185,229.6h-3.2v-7h3.2V229.6z M183.1,221.3c0.1-0.1,0.4-0.3,0.7-0.6c0.3-0.3,0.6-0.5,0.8-0.7s0.4-0.3,0.6-0.5
			c0.2-0.2,0.4-0.3,0.5-0.4c0.2-0.1,0.5-0.2,0.7-0.2c0.3,0,0.5,0.1,0.7,0.3c0.2,0.2,0.3,0.4,0.3,0.7c0,0.2-0.1,0.4-0.2,0.5
			s-0.3,0.3-0.5,0.4c-0.1,0.1-0.3,0.2-0.6,0.3c-0.3,0.1-0.6,0.2-0.8,0.3c-0.3,0.1-0.6,0.2-1,0.3c-0.4,0.1-0.7,0.2-0.9,0.3
			c-0.1,0-0.1,0-0.2,0c-0.1,0-0.2,0-0.3-0.1c-0.1-0.1-0.1-0.1-0.1-0.2C182.9,221.5,183,221.4,183.1,221.3z"/>
		<path d="M193,228.2c0,0.5,0.1,0.9,0.2,1.4h-2.9l-0.3-0.7c-0.2,0.3-0.4,0.5-0.8,0.7c-0.3,0.2-0.7,0.2-1.1,0.2
			c-0.8,0-1.4-0.2-1.8-0.6c-0.4-0.4-0.6-0.9-0.6-1.7c0-0.8,0.2-1.4,0.7-1.8s1.1-0.6,2-0.6c0.5,0,1,0.1,1.5,0.2v-1.7H189v1l-2.9,0.1
			c0-0.2-0.1-0.4-0.1-0.6c0-0.2,0-0.4,0.1-0.6c0.1-0.2,0.2-0.3,0.3-0.4s0.3-0.2,0.5-0.3s0.4-0.2,0.6-0.2c0.2,0,0.4-0.1,0.6-0.1
			c0.2,0,0.5,0,0.6-0.1c0.2,0,0.4,0,0.6,0c0.2,0,0.4,0,0.6,0c0.2,0,0.4,0,0.6,0c0.2,0,0.4,0,0.6,0.1s0.3,0.1,0.5,0.1
			s0.3,0.1,0.5,0.2c0.1,0.1,0.3,0.2,0.4,0.3c0.1,0.1,0.2,0.2,0.3,0.3s0.1,0.3,0.2,0.5c0,0.2,0.1,0.4,0.1,0.6V228.2z M188.9,226.1
			v2.4h0.9v-2.4H188.9z"/>
		<path d="M197.9,227.2L197.9,227.2c0,0-0.1-0.1-0.2-0.1c-0.1,0-0.2,0-0.4,0c-0.2,0-0.3,0-0.4-0.1s-0.2,0-0.4-0.1s-0.3,0-0.4-0.1
			s-0.2-0.1-0.4-0.1c-0.3-0.1-0.5-0.2-0.8-0.3c-0.2-0.1-0.4-0.3-0.6-0.4c-0.2-0.2-0.3-0.4-0.4-0.6c-0.1-0.2-0.2-0.5-0.2-0.8
			c0-0.3,0-0.5,0.1-0.7c0.1-0.2,0.2-0.4,0.3-0.6c0.1-0.2,0.3-0.3,0.4-0.4c0.2-0.1,0.4-0.2,0.6-0.3s0.4-0.1,0.7-0.2
			c0.3,0,0.5-0.1,0.8-0.1c0.3,0,0.5,0,0.9,0c0.3,0,0.5,0,0.7,0c0.2,0,0.4,0,0.7,0.1c0.3,0,0.5,0.1,0.6,0.1c0.2,0.1,0.4,0.1,0.6,0.2
			s0.3,0.2,0.5,0.4s0.2,0.3,0.3,0.5c0.1,0.2,0.1,0.4,0.1,0.7c0,0.2,0,0.4,0,0.5l-3-0.2v-0.9H197v1.1c0,0,0.1,0.1,0.3,0.1
			c0.1,0,0.3,0,0.6,0.1c0.3,0,0.5,0.1,0.7,0.1c0.2,0,0.4,0.1,0.6,0.1c0.3,0.1,0.5,0.2,0.7,0.3s0.4,0.2,0.6,0.4
			c0.2,0.2,0.3,0.3,0.4,0.6s0.2,0.5,0.2,0.7c0,0.3,0,0.5-0.1,0.7c-0.1,0.2-0.1,0.4-0.2,0.6c-0.1,0.2-0.2,0.3-0.4,0.4
			c-0.1,0.1-0.3,0.2-0.5,0.3c-0.2,0.1-0.4,0.1-0.6,0.2s-0.4,0.1-0.6,0.1c-0.2,0-0.5,0-0.7,0.1s-0.4,0-0.7,0c-0.3,0-0.6,0-0.8,0
			c-0.2,0-0.5,0-0.7-0.1c-0.3,0-0.5-0.1-0.6-0.2s-0.3-0.2-0.5-0.3s-0.3-0.3-0.4-0.4s-0.2-0.4-0.2-0.6c-0.1-0.2-0.1-0.5-0.1-0.8
			c0-0.1,0-0.1,0-0.2l3,0.2v0.9h0.9V227.2z"/>
	</g>
	<g>
		<path class="st0" d="M175.8,222.4c0.8,0,1.4,0.2,1.8,0.6v-2.7h3.2v9.2h-2.9l-0.2-0.6c-0.2,0.2-0.4,0.4-0.8,0.6
			c-0.3,0.1-0.7,0.2-1.1,0.2c-1.6,0-2.3-0.7-2.3-2.2v-3C173.4,223.1,174.2,222.4,175.8,222.4z M177.6,223.6h-0.9v4.9h0.9V223.6z"/>
		<path class="st0" d="M185,229.6h-3.2v-7h3.2V229.6z M183.1,221.3c0.1-0.1,0.4-0.3,0.7-0.6c0.3-0.3,0.6-0.5,0.8-0.7
			s0.4-0.3,0.6-0.5c0.2-0.2,0.4-0.3,0.5-0.4c0.2-0.1,0.5-0.2,0.7-0.2c0.3,0,0.5,0.1,0.7,0.3c0.2,0.2,0.3,0.4,0.3,0.7
			c0,0.2-0.1,0.4-0.2,0.5s-0.3,0.3-0.5,0.4c-0.1,0.1-0.3,0.2-0.6,0.3c-0.3,0.1-0.6,0.2-0.8,0.3c-0.3,0.1-0.6,0.2-1,0.3
			c-0.4,0.1-0.7,0.2-0.9,0.3c-0.1,0-0.1,0-0.2,0c-0.1,0-0.2,0-0.3-0.1c-0.1-0.1-0.1-0.1-0.1-0.2C182.9,221.5,183,221.4,183.1,221.3z
			"/>
		<path class="st0" d="M193,228.2c0,0.5,0.1,0.9,0.2,1.4h-2.9l-0.3-0.7c-0.2,0.3-0.4,0.5-0.8,0.7c-0.3,0.2-0.7,0.2-1.1,0.2
			c-0.8,0-1.4-0.2-1.8-0.6c-0.4-0.4-0.6-0.9-0.6-1.7c0-0.8,0.2-1.4,0.7-1.8s1.1-0.6,2-0.6c0.5,0,1,0.1,1.5,0.2v-1.7H189v1l-2.9,0.1
			c0-0.2-0.1-0.4-0.1-0.6c0-0.2,0-0.4,0.1-0.6c0.1-0.2,0.2-0.3,0.3-0.4s0.3-0.2,0.5-0.3s0.4-0.2,0.6-0.2c0.2,0,0.4-0.1,0.6-0.1
			c0.2,0,0.5,0,0.6-0.1c0.2,0,0.4,0,0.6,0c0.2,0,0.4,0,0.6,0c0.2,0,0.4,0,0.6,0c0.2,0,0.4,0,0.6,0.1s0.3,0.1,0.5,0.1
			s0.3,0.1,0.5,0.2c0.1,0.1,0.3,0.2,0.4,0.3c0.1,0.1,0.2,0.2,0.3,0.3s0.1,0.3,0.2,0.5c0,0.2,0.1,0.4,0.1,0.6V228.2z M188.9,226.1
			v2.4h0.9v-2.4H188.9z"/>
		<path class="st0" d="M197.9,227.2L197.9,227.2c0,0-0.1-0.1-0.2-0.1c-0.1,0-0.2,0-0.4,0c-0.2,0-0.3,0-0.4-0.1s-0.2,0-0.4-0.1
			s-0.3,0-0.4-0.1s-0.2-0.1-0.4-0.1c-0.3-0.1-0.5-0.2-0.8-0.3c-0.2-0.1-0.4-0.3-0.6-0.4c-0.2-0.2-0.3-0.4-0.4-0.6
			c-0.1-0.2-0.2-0.5-0.2-0.8c0-0.3,0-0.5,0.1-0.7c0.1-0.2,0.2-0.4,0.3-0.6c0.1-0.2,0.3-0.3,0.4-0.4c0.2-0.1,0.4-0.2,0.6-0.3
			s0.4-0.1,0.7-0.2c0.3,0,0.5-0.1,0.8-0.1c0.3,0,0.5,0,0.9,0c0.3,0,0.5,0,0.7,0c0.2,0,0.4,0,0.7,0.1c0.3,0,0.5,0.1,0.6,0.1
			c0.2,0.1,0.4,0.1,0.6,0.2s0.3,0.2,0.5,0.4s0.2,0.3,0.3,0.5c0.1,0.2,0.1,0.4,0.1,0.7c0,0.2,0,0.4,0,0.5l-3-0.2v-0.9H197v1.1
			c0,0,0.1,0.1,0.3,0.1c0.1,0,0.3,0,0.6,0.1c0.3,0,0.5,0.1,0.7,0.1c0.2,0,0.4,0.1,0.6,0.1c0.3,0.1,0.5,0.2,0.7,0.3s0.4,0.2,0.6,0.4
			c0.2,0.2,0.3,0.3,0.4,0.6s0.2,0.5,0.2,0.7c0,0.3,0,0.5-0.1,0.7c-0.1,0.2-0.1,0.4-0.2,0.6c-0.1,0.2-0.2,0.3-0.4,0.4
			c-0.1,0.1-0.3,0.2-0.5,0.3c-0.2,0.1-0.4,0.1-0.6,0.2s-0.4,0.1-0.6,0.1c-0.2,0-0.5,0-0.7,0.1s-0.4,0-0.7,0c-0.3,0-0.6,0-0.8,0
			c-0.2,0-0.5,0-0.7-0.1c-0.3,0-0.5-0.1-0.6-0.2s-0.3-0.2-0.5-0.3s-0.3-0.3-0.4-0.4s-0.2-0.4-0.2-0.6c-0.1-0.2-0.1-0.5-0.1-0.8
			c0-0.1,0-0.1,0-0.2l3,0.2v0.9h0.9V227.2z"/>
	</g>
</g>
<g>
	<g>
		<path d="M301.6,227.2L301.6,227.2c0,0-0.1-0.1-0.2-0.1c-0.1,0-0.2,0-0.4,0s-0.3,0-0.4-0.1s-0.2,0-0.4-0.1c-0.1,0-0.3,0-0.4-0.1
			c-0.1,0-0.2-0.1-0.4-0.1c-0.3-0.1-0.5-0.2-0.8-0.3c-0.2-0.1-0.4-0.3-0.6-0.4c-0.2-0.2-0.3-0.4-0.4-0.6c-0.1-0.2-0.2-0.5-0.2-0.8
			c0-0.3,0-0.5,0.1-0.7c0.1-0.2,0.2-0.4,0.3-0.6c0.1-0.2,0.3-0.3,0.4-0.4c0.2-0.1,0.4-0.2,0.6-0.3c0.2-0.1,0.4-0.1,0.7-0.2
			s0.5-0.1,0.8-0.1c0.3,0,0.5,0,0.9,0c0.3,0,0.5,0,0.7,0c0.2,0,0.4,0,0.7,0.1c0.3,0,0.5,0.1,0.6,0.1s0.4,0.1,0.6,0.2
			s0.3,0.2,0.5,0.4s0.2,0.3,0.3,0.5c0.1,0.2,0.1,0.4,0.1,0.7c0,0.2,0,0.4,0,0.5l-3-0.2v-0.9h-0.9v1.1c0,0,0.1,0.1,0.3,0.1
			c0.1,0,0.3,0,0.6,0.1s0.5,0.1,0.7,0.1c0.2,0,0.4,0.1,0.6,0.1c0.3,0.1,0.5,0.2,0.7,0.3c0.2,0.1,0.4,0.2,0.6,0.4
			c0.2,0.2,0.3,0.3,0.4,0.6c0.1,0.2,0.2,0.5,0.2,0.7c0,0.3,0,0.5-0.1,0.7s-0.1,0.4-0.2,0.6c-0.1,0.2-0.2,0.3-0.4,0.4
			s-0.3,0.2-0.5,0.3s-0.4,0.1-0.6,0.2c-0.2,0.1-0.4,0.1-0.6,0.1c-0.2,0-0.5,0-0.7,0.1c-0.2,0-0.4,0-0.7,0c-0.3,0-0.6,0-0.8,0
			c-0.2,0-0.5,0-0.7-0.1c-0.3,0-0.5-0.1-0.6-0.2s-0.3-0.2-0.5-0.3c-0.2-0.1-0.3-0.3-0.4-0.4s-0.2-0.4-0.2-0.6
			c-0.1-0.2-0.1-0.5-0.1-0.8c0-0.1,0-0.1,0-0.2l3,0.2v0.9h0.9V227.2z"/>
		<path d="M312.8,227c0,0.2,0,0.4,0,0.6c0,0.8-0.3,1.4-0.9,1.7c-0.6,0.3-1.5,0.5-2.8,0.5c-0.2,0-0.4,0-0.6,0c-0.2,0-0.4,0-0.6,0
			c-0.2,0-0.4,0-0.6-0.1c-0.2,0-0.3-0.1-0.5-0.1c-0.2,0-0.3-0.1-0.5-0.2c-0.1-0.1-0.3-0.2-0.4-0.3s-0.2-0.2-0.3-0.4
			s-0.1-0.3-0.2-0.5c0-0.2-0.1-0.4-0.1-0.6v-3.2c0-0.3,0-0.5,0.1-0.7c0.1-0.2,0.2-0.4,0.3-0.5c0.1-0.1,0.3-0.3,0.5-0.4
			c0.2-0.1,0.4-0.2,0.6-0.2c0.2-0.1,0.4-0.1,0.7-0.1c0.3,0,0.5,0,0.7-0.1c0.2,0,0.4,0,0.7,0c0.2,0,0.4,0,0.6,0c0.2,0,0.3,0,0.6,0
			c0.2,0,0.4,0,0.6,0.1c0.2,0,0.3,0.1,0.5,0.1c0.2,0,0.3,0.1,0.5,0.2s0.3,0.2,0.4,0.3c0.1,0.1,0.2,0.2,0.3,0.3s0.1,0.3,0.2,0.5
			c0.1,0.2,0.1,0.4,0.1,0.6v1.9h-4.1v2.2h0.9V227H312.8z M308.7,225.4h0.9v-1.8h-0.9V225.4z"/>
		<path d="M315.9,222.4c0.9,0,1.5,0.3,1.9,0.8l0.2-0.6h2.9v5.7c0,1.1-0.3,1.9-1,2.5c-0.6,0.5-1.7,0.8-3,0.8c-1,0-1.8-0.1-2.7-0.3
			l0.3-1.6c0.5,0.1,1.2,0.2,1.9,0.2c0.6,0,1.1-0.1,1.3-0.2v-1.2c-0.2,0.2-0.4,0.4-0.7,0.5c-0.3,0.1-0.7,0.2-1.1,0.2
			c-1.6,0-2.3-0.7-2.3-2.1v-2.4C313.6,223.1,314.4,222.4,315.9,222.4z M317.7,223.6h-0.9v4.2h0.9V223.6z"/>
		<path d="M325.7,227.2L325.7,227.2c0,0-0.1-0.1-0.2-0.1c-0.1,0-0.2,0-0.4,0s-0.3,0-0.4-0.1s-0.2,0-0.4-0.1c-0.1,0-0.3,0-0.4-0.1
			c-0.1,0-0.2-0.1-0.4-0.1c-0.3-0.1-0.5-0.2-0.8-0.3c-0.2-0.1-0.4-0.3-0.6-0.4c-0.2-0.2-0.3-0.4-0.4-0.6c-0.1-0.2-0.2-0.5-0.2-0.8
			c0-0.3,0-0.5,0.1-0.7c0.1-0.2,0.2-0.4,0.3-0.6c0.1-0.2,0.3-0.3,0.4-0.4c0.2-0.1,0.4-0.2,0.6-0.3c0.2-0.1,0.4-0.1,0.7-0.2
			s0.5-0.1,0.8-0.1c0.3,0,0.5,0,0.9,0c0.3,0,0.5,0,0.7,0c0.2,0,0.4,0,0.7,0.1c0.3,0,0.5,0.1,0.6,0.1s0.4,0.1,0.6,0.2
			s0.3,0.2,0.5,0.4s0.2,0.3,0.3,0.5c0.1,0.2,0.1,0.4,0.1,0.7c0,0.2,0,0.4,0,0.5l-3-0.2v-0.9h-0.9v1.1c0,0,0.1,0.1,0.3,0.1
			c0.1,0,0.3,0,0.6,0.1s0.5,0.1,0.7,0.1c0.2,0,0.4,0.1,0.6,0.1c0.3,0.1,0.5,0.2,0.7,0.3c0.2,0.1,0.4,0.2,0.6,0.4
			c0.2,0.2,0.3,0.3,0.4,0.6c0.1,0.2,0.2,0.5,0.2,0.7c0,0.3,0,0.5-0.1,0.7s-0.1,0.4-0.2,0.6c-0.1,0.2-0.2,0.3-0.4,0.4
			s-0.3,0.2-0.5,0.3s-0.4,0.1-0.6,0.2c-0.2,0.1-0.4,0.1-0.6,0.1c-0.2,0-0.5,0-0.7,0.1c-0.2,0-0.4,0-0.7,0c-0.3,0-0.6,0-0.8,0
			c-0.2,0-0.5,0-0.7-0.1c-0.3,0-0.5-0.1-0.6-0.2s-0.3-0.2-0.5-0.3c-0.2-0.1-0.3-0.3-0.4-0.4s-0.2-0.4-0.2-0.6
			c-0.1-0.2-0.1-0.5-0.1-0.8c0-0.1,0-0.1,0-0.2l3,0.2v0.9h0.9V227.2z"/>
	</g>
	<g>
		<path class="st0" d="M301.6,227.2L301.6,227.2c0,0-0.1-0.1-0.2-0.1c-0.1,0-0.2,0-0.4,0s-0.3,0-0.4-0.1s-0.2,0-0.4-0.1
			c-0.1,0-0.3,0-0.4-0.1c-0.1,0-0.2-0.1-0.4-0.1c-0.3-0.1-0.5-0.2-0.8-0.3c-0.2-0.1-0.4-0.3-0.6-0.4c-0.2-0.2-0.3-0.4-0.4-0.6
			c-0.1-0.2-0.2-0.5-0.2-0.8c0-0.3,0-0.5,0.1-0.7c0.1-0.2,0.2-0.4,0.3-0.6c0.1-0.2,0.3-0.3,0.4-0.4c0.2-0.1,0.4-0.2,0.6-0.3
			c0.2-0.1,0.4-0.1,0.7-0.2s0.5-0.1,0.8-0.1c0.3,0,0.5,0,0.9,0c0.3,0,0.5,0,0.7,0c0.2,0,0.4,0,0.7,0.1c0.3,0,0.5,0.1,0.6,0.1
			s0.4,0.1,0.6,0.2s0.3,0.2,0.5,0.4s0.2,0.3,0.3,0.5c0.1,0.2,0.1,0.4,0.1,0.7c0,0.2,0,0.4,0,0.5l-3-0.2v-0.9h-0.9v1.1
			c0,0,0.1,0.1,0.3,0.1c0.1,0,0.3,0,0.6,0.1s0.5,0.1,0.7,0.1c0.2,0,0.4,0.1,0.6,0.1c0.3,0.1,0.5,0.2,0.7,0.3
			c0.2,0.1,0.4,0.2,0.6,0.4c0.2,0.2,0.3,0.3,0.4,0.6c0.1,0.2,0.2,0.5,0.2,0.7c0,0.3,0,0.5-0.1,0.7s-0.1,0.4-0.2,0.6
			c-0.1,0.2-0.2,0.3-0.4,0.4s-0.3,0.2-0.5,0.3s-0.4,0.1-0.6,0.2c-0.2,0.1-0.4,0.1-0.6,0.1c-0.2,0-0.5,0-0.7,0.1c-0.2,0-0.4,0-0.7,0
			c-0.3,0-0.6,0-0.8,0c-0.2,0-0.5,0-0.7-0.1c-0.3,0-0.5-0.1-0.6-0.2s-0.3-0.2-0.5-0.3c-0.2-0.1-0.3-0.3-0.4-0.4s-0.2-0.4-0.2-0.6
			c-0.1-0.2-0.1-0.5-0.1-0.8c0-0.1,0-0.1,0-0.2l3,0.2v0.9h0.9V227.2z"/>
		<path class="st0" d="M312.8,227c0,0.2,0,0.4,0,0.6c0,0.8-0.3,1.4-0.9,1.7c-0.6,0.3-1.5,0.5-2.8,0.5c-0.2,0-0.4,0-0.6,0
			c-0.2,0-0.4,0-0.6,0c-0.2,0-0.4,0-0.6-0.1c-0.2,0-0.3-0.1-0.5-0.1c-0.2,0-0.3-0.1-0.5-0.2c-0.1-0.1-0.3-0.2-0.4-0.3
			s-0.2-0.2-0.3-0.4s-0.1-0.3-0.2-0.5c0-0.2-0.1-0.4-0.1-0.6v-3.2c0-0.3,0-0.5,0.1-0.7c0.1-0.2,0.2-0.4,0.3-0.5
			c0.1-0.1,0.3-0.3,0.5-0.4c0.2-0.1,0.4-0.2,0.6-0.2c0.2-0.1,0.4-0.1,0.7-0.1c0.3,0,0.5,0,0.7-0.1c0.2,0,0.4,0,0.7,0
			c0.2,0,0.4,0,0.6,0c0.2,0,0.3,0,0.6,0c0.2,0,0.4,0,0.6,0.1c0.2,0,0.3,0.1,0.5,0.1c0.2,0,0.3,0.1,0.5,0.2s0.3,0.2,0.4,0.3
			c0.1,0.1,0.2,0.2,0.3,0.3s0.1,0.3,0.2,0.5c0.1,0.2,0.1,0.4,0.1,0.6v1.9h-4.1v2.2h0.9V227H312.8z M308.7,225.4h0.9v-1.8h-0.9V225.4
			z"/>
		<path class="st0" d="M315.9,222.4c0.9,0,1.5,0.3,1.9,0.8l0.2-0.6h2.9v5.7c0,1.1-0.3,1.9-1,2.5c-0.6,0.5-1.7,0.8-3,0.8
			c-1,0-1.8-0.1-2.7-0.3l0.3-1.6c0.5,0.1,1.2,0.2,1.9,0.2c0.6,0,1.1-0.1,1.3-0.2v-1.2c-0.2,0.2-0.4,0.4-0.7,0.5
			c-0.3,0.1-0.7,0.2-1.1,0.2c-1.6,0-2.3-0.7-2.3-2.1v-2.4C313.6,223.1,314.4,222.4,315.9,222.4z M317.7,223.6h-0.9v4.2h0.9V223.6z"
			/>
		<path class="st0" d="M325.7,227.2L325.7,227.2c0,0-0.1-0.1-0.2-0.1c-0.1,0-0.2,0-0.4,0s-0.3,0-0.4-0.1s-0.2,0-0.4-0.1
			c-0.1,0-0.3,0-0.4-0.1c-0.1,0-0.2-0.1-0.4-0.1c-0.3-0.1-0.5-0.2-0.8-0.3c-0.2-0.1-0.4-0.3-0.6-0.4c-0.2-0.2-0.3-0.4-0.4-0.6
			c-0.1-0.2-0.2-0.5-0.2-0.8c0-0.3,0-0.5,0.1-0.7c0.1-0.2,0.2-0.4,0.3-0.6c0.1-0.2,0.3-0.3,0.4-0.4c0.2-0.1,0.4-0.2,0.6-0.3
			c0.2-0.1,0.4-0.1,0.7-0.2s0.5-0.1,0.8-0.1c0.3,0,0.5,0,0.9,0c0.3,0,0.5,0,0.7,0c0.2,0,0.4,0,0.7,0.1c0.3,0,0.5,0.1,0.6,0.1
			s0.4,0.1,0.6,0.2s0.3,0.2,0.5,0.4s0.2,0.3,0.3,0.5c0.1,0.2,0.1,0.4,0.1,0.7c0,0.2,0,0.4,0,0.5l-3-0.2v-0.9h-0.9v1.1
			c0,0,0.1,0.1,0.3,0.1c0.1,0,0.3,0,0.6,0.1s0.5,0.1,0.7,0.1c0.2,0,0.4,0.1,0.6,0.1c0.3,0.1,0.5,0.2,0.7,0.3
			c0.2,0.1,0.4,0.2,0.6,0.4c0.2,0.2,0.3,0.3,0.4,0.6c0.1,0.2,0.2,0.5,0.2,0.7c0,0.3,0,0.5-0.1,0.7s-0.1,0.4-0.2,0.6
			c-0.1,0.2-0.2,0.3-0.4,0.4s-0.3,0.2-0.5,0.3s-0.4,0.1-0.6,0.2c-0.2,0.1-0.4,0.1-0.6,0.1c-0.2,0-0.5,0-0.7,0.1c-0.2,0-0.4,0-0.7,0
			c-0.3,0-0.6,0-0.8,0c-0.2,0-0.5,0-0.7-0.1c-0.3,0-0.5-0.1-0.6-0.2s-0.3-0.2-0.5-0.3c-0.2-0.1-0.3-0.3-0.4-0.4s-0.2-0.4-0.2-0.6
			c-0.1-0.2-0.1-0.5-0.1-0.8c0-0.1,0-0.1,0-0.2l3,0.2v0.9h0.9V227.2z"/>
	</g>
</g>
<g>
	<g>
		<path d="M225.6,222.4c1.6,0,2.3,0.7,2.3,2.1v5.1h-3.2v-5.9h-0.9v5.9h-3.2v-9.2h3.2v2.7c0.2-0.2,0.4-0.4,0.7-0.5
			S225.2,222.4,225.6,222.4z"/>
		<path d="M232.8,227.2L232.8,227.2c0,0-0.1-0.1-0.2-0.1c-0.1,0-0.2,0-0.4,0c-0.2,0-0.3,0-0.4-0.1s-0.2,0-0.4-0.1s-0.3,0-0.4-0.1
			s-0.2-0.1-0.4-0.1c-0.3-0.1-0.5-0.2-0.8-0.3c-0.2-0.1-0.4-0.3-0.6-0.4c-0.2-0.2-0.3-0.4-0.4-0.6c-0.1-0.2-0.2-0.5-0.2-0.8
			c0-0.3,0-0.5,0.1-0.7c0.1-0.2,0.2-0.4,0.3-0.6c0.1-0.2,0.3-0.3,0.4-0.4c0.2-0.1,0.4-0.2,0.6-0.3s0.4-0.1,0.7-0.2
			c0.3,0,0.5-0.1,0.8-0.1c0.3,0,0.5,0,0.9,0c0.3,0,0.5,0,0.7,0c0.2,0,0.4,0,0.7,0.1c0.3,0,0.5,0.1,0.6,0.1c0.2,0.1,0.4,0.1,0.6,0.2
			s0.3,0.2,0.5,0.4s0.2,0.3,0.3,0.5c0.1,0.2,0.1,0.4,0.1,0.7c0,0.2,0,0.4,0,0.5l-3-0.2v-0.9h-0.9v1.1c0,0,0.1,0.1,0.3,0.1
			c0.1,0,0.3,0,0.6,0.1c0.3,0,0.5,0.1,0.7,0.1c0.2,0,0.4,0.1,0.6,0.1c0.3,0.1,0.5,0.2,0.7,0.3s0.4,0.2,0.6,0.4
			c0.2,0.2,0.3,0.3,0.4,0.6s0.2,0.5,0.2,0.7c0,0.3,0,0.5-0.1,0.7c-0.1,0.2-0.1,0.4-0.2,0.6c-0.1,0.2-0.2,0.3-0.4,0.4
			c-0.1,0.1-0.3,0.2-0.5,0.3c-0.2,0.1-0.4,0.1-0.6,0.2s-0.4,0.1-0.6,0.1c-0.2,0-0.5,0-0.7,0.1s-0.4,0-0.7,0c-0.3,0-0.6,0-0.8,0
			c-0.2,0-0.5,0-0.7-0.1c-0.3,0-0.5-0.1-0.6-0.2s-0.3-0.2-0.5-0.3s-0.3-0.3-0.4-0.4s-0.2-0.4-0.2-0.6c-0.1-0.2-0.1-0.5-0.1-0.8
			c0-0.1,0-0.1,0-0.2l3,0.2v0.9h0.9V227.2z"/>
	</g>
	<g>
		<path class="st0" d="M225.6,222.4c1.6,0,2.3,0.7,2.3,2.1v5.1h-3.2v-5.9h-0.9v5.9h-3.2v-9.2h3.2v2.7c0.2-0.2,0.4-0.4,0.7-0.5
			S225.2,222.4,225.6,222.4z"/>
		<path class="st0" d="M232.8,227.2L232.8,227.2c0,0-0.1-0.1-0.2-0.1c-0.1,0-0.2,0-0.4,0c-0.2,0-0.3,0-0.4-0.1s-0.2,0-0.4-0.1
			s-0.3,0-0.4-0.1s-0.2-0.1-0.4-0.1c-0.3-0.1-0.5-0.2-0.8-0.3c-0.2-0.1-0.4-0.3-0.6-0.4c-0.2-0.2-0.3-0.4-0.4-0.6
			c-0.1-0.2-0.2-0.5-0.2-0.8c0-0.3,0-0.5,0.1-0.7c0.1-0.2,0.2-0.4,0.3-0.6c0.1-0.2,0.3-0.3,0.4-0.4c0.2-0.1,0.4-0.2,0.6-0.3
			s0.4-0.1,0.7-0.2c0.3,0,0.5-0.1,0.8-0.1c0.3,0,0.5,0,0.9,0c0.3,0,0.5,0,0.7,0c0.2,0,0.4,0,0.7,0.1c0.3,0,0.5,0.1,0.6,0.1
			c0.2,0.1,0.4,0.1,0.6,0.2s0.3,0.2,0.5,0.4s0.2,0.3,0.3,0.5c0.1,0.2,0.1,0.4,0.1,0.7c0,0.2,0,0.4,0,0.5l-3-0.2v-0.9h-0.9v1.1
			c0,0,0.1,0.1,0.3,0.1c0.1,0,0.3,0,0.6,0.1c0.3,0,0.5,0.1,0.7,0.1c0.2,0,0.4,0.1,0.6,0.1c0.3,0.1,0.5,0.2,0.7,0.3s0.4,0.2,0.6,0.4
			c0.2,0.2,0.3,0.3,0.4,0.6s0.2,0.5,0.2,0.7c0,0.3,0,0.5-0.1,0.7c-0.1,0.2-0.1,0.4-0.2,0.6c-0.1,0.2-0.2,0.3-0.4,0.4
			c-0.1,0.1-0.3,0.2-0.5,0.3c-0.2,0.1-0.4,0.1-0.6,0.2s-0.4,0.1-0.6,0.1c-0.2,0-0.5,0-0.7,0.1s-0.4,0-0.7,0c-0.3,0-0.6,0-0.8,0
			c-0.2,0-0.5,0-0.7-0.1c-0.3,0-0.5-0.1-0.6-0.2s-0.3-0.2-0.5-0.3s-0.3-0.3-0.4-0.4s-0.2-0.4-0.2-0.6c-0.1-0.2-0.1-0.5-0.1-0.8
			c0-0.1,0-0.1,0-0.2l3,0.2v0.9h0.9V227.2z"/>
	</g>
</g>
<g>
	<g>
		<path d="M267.2,222.4c0.8,0,1.3,0.2,1.7,0.5s0.6,0.9,0.6,1.5v5.1h-3.1v-5.9h-1c0,0.1,0,0.3,0,0.6v5.4h-3.1v-5.9h-0.9v5.9h-3.1v-7
			h2.9l0.2,0.6c0.2-0.2,0.5-0.4,0.8-0.5s0.8-0.2,1.2-0.2c0.8,0,1.5,0.2,1.9,0.7c0.2-0.2,0.4-0.4,0.8-0.5
			C266.4,222.5,266.8,222.4,267.2,222.4z"/>
		<path d="M273.8,220.4v1.5h-3.2v-1.5H273.8z M273.8,229.6h-3.2v-7h3.2V229.6z"/>
		<path d="M279.8,222.4c0.8,0,1.3,0.2,1.7,0.5c0.4,0.3,0.6,0.9,0.6,1.5v5.1h-3.2v-5.9H278v5.9h-3.2v-7h2.8l0.2,0.6
			c0.2-0.2,0.4-0.4,0.8-0.5C279,222.5,279.3,222.4,279.8,222.4z"/>
	</g>
	<g>
		<path class="st0" d="M267.2,222.4c0.8,0,1.3,0.2,1.7,0.5s0.6,0.9,0.6,1.5v5.1h-3.1v-5.9h-1c0,0.1,0,0.3,0,0.6v5.4h-3.1v-5.9h-0.9
			v5.9h-3.1v-7h2.9l0.2,0.6c0.2-0.2,0.5-0.4,0.8-0.5s0.8-0.2,1.2-0.2c0.8,0,1.5,0.2,1.9,0.7c0.2-0.2,0.4-0.4,0.8-0.5
			C266.4,222.5,266.8,222.4,267.2,222.4z"/>
		<path class="st0" d="M273.8,220.4v1.5h-3.2v-1.5H273.8z M273.8,229.6h-3.2v-7h3.2V229.6z"/>
		<path class="st0" d="M279.8,222.4c0.8,0,1.3,0.2,1.7,0.5c0.4,0.3,0.6,0.9,0.6,1.5v5.1h-3.2v-5.9H278v5.9h-3.2v-7h2.8l0.2,0.6
			c0.2-0.2,0.4-0.4,0.8-0.5C279,222.5,279.3,222.4,279.8,222.4z"/>
	</g>
</g>
<g>
	<g>
		<path class="st1" d="M175.8,222.4c0.8,0,1.4,0.2,1.8,0.6v-2.7h3.2v9.2h-2.9l-0.2-0.6c-0.2,0.2-0.4,0.4-0.8,0.6
			c-0.3,0.1-0.7,0.2-1.1,0.2c-1.6,0-2.3-0.7-2.3-2.2v-3C173.4,223.1,174.2,222.4,175.8,222.4z M177.6,223.6h-0.9v4.9h0.9V223.6z"/>
		<path class="st1" d="M185,229.6h-3.2v-7h3.2V229.6z M183.1,221.3c0.1-0.1,0.4-0.3,0.7-0.6c0.3-0.3,0.6-0.5,0.8-0.7
			s0.4-0.3,0.6-0.5c0.2-0.2,0.4-0.3,0.5-0.4c0.2-0.1,0.5-0.2,0.7-0.2c0.3,0,0.5,0.1,0.7,0.3c0.2,0.2,0.3,0.4,0.3,0.7
			c0,0.2-0.1,0.4-0.2,0.5s-0.3,0.3-0.5,0.4c-0.1,0.1-0.3,0.2-0.6,0.3c-0.3,0.1-0.6,0.2-0.8,0.3c-0.3,0.1-0.6,0.2-1,0.3
			c-0.4,0.1-0.7,0.2-0.9,0.3c-0.1,0-0.1,0-0.2,0c-0.1,0-0.2,0-0.3-0.1c-0.1-0.1-0.1-0.1-0.1-0.2C182.9,221.5,183,221.4,183.1,221.3z
			"/>
		<path class="st1" d="M193,228.2c0,0.5,0.1,0.9,0.2,1.4h-2.9l-0.3-0.7c-0.2,0.3-0.4,0.5-0.8,0.7c-0.3,0.2-0.7,0.2-1.1,0.2
			c-0.8,0-1.4-0.2-1.8-0.6c-0.4-0.4-0.6-0.9-0.6-1.7c0-0.8,0.2-1.4,0.7-1.8s1.1-0.6,2-0.6c0.5,0,1,0.1,1.5,0.2v-1.7H189v1l-2.9,0.1
			c0-0.2-0.1-0.4-0.1-0.6c0-0.2,0-0.4,0.1-0.6c0.1-0.2,0.2-0.3,0.3-0.4s0.3-0.2,0.5-0.3s0.4-0.2,0.6-0.2c0.2,0,0.4-0.1,0.6-0.1
			c0.2,0,0.5,0,0.6-0.1c0.2,0,0.4,0,0.6,0c0.2,0,0.4,0,0.6,0c0.2,0,0.4,0,0.6,0c0.2,0,0.4,0,0.6,0.1s0.3,0.1,0.5,0.1
			s0.3,0.1,0.5,0.2c0.1,0.1,0.3,0.2,0.4,0.3c0.1,0.1,0.2,0.2,0.3,0.3s0.1,0.3,0.2,0.5c0,0.2,0.1,0.4,0.1,0.6V228.2z M188.9,226.1
			v2.4h0.9v-2.4H188.9z"/>
		<path class="st1" d="M197.9,227.2L197.9,227.2c0,0-0.1-0.1-0.2-0.1c-0.1,0-0.2,0-0.4,0c-0.2,0-0.3,0-0.4-0.1s-0.2,0-0.4-0.1
			s-0.3,0-0.4-0.1s-0.2-0.1-0.4-0.1c-0.3-0.1-0.5-0.2-0.8-0.3c-0.2-0.1-0.4-0.3-0.6-0.4c-0.2-0.2-0.3-0.4-0.4-0.6
			c-0.1-0.2-0.2-0.5-0.2-0.8c0-0.3,0-0.5,0.1-0.7c0.1-0.2,0.2-0.4,0.3-0.6c0.1-0.2,0.3-0.3,0.4-0.4c0.2-0.1,0.4-0.2,0.6-0.3
			s0.4-0.1,0.7-0.2c0.3,0,0.5-0.1,0.8-0.1c0.3,0,0.5,0,0.9,0c0.3,0,0.5,0,0.7,0c0.2,0,0.4,0,0.7,0.1c0.3,0,0.5,0.1,0.6,0.1
			c0.2,0.1,0.4,0.1,0.6,0.2s0.3,0.2,0.5,0.4s0.2,0.3,0.3,0.5c0.1,0.2,0.1,0.4,0.1,0.7c0,0.2,0,0.4,0,0.5l-3-0.2v-0.9H197v1.1
			c0,0,0.1,0.1,0.3,0.1c0.1,0,0.3,0,0.6,0.1c0.3,0,0.5,0.1,0.7,0.1c0.2,0,0.4,0.1,0.6,0.1c0.3,0.1,0.5,0.2,0.7,0.3s0.4,0.2,0.6,0.4
			c0.2,0.2,0.3,0.3,0.4,0.6s0.2,0.5,0.2,0.7c0,0.3,0,0.5-0.1,0.7c-0.1,0.2-0.1,0.4-0.2,0.6c-0.1,0.2-0.2,0.3-0.4,0.4
			c-0.1,0.1-0.3,0.2-0.5,0.3c-0.2,0.1-0.4,0.1-0.6,0.2s-0.4,0.1-0.6,0.1c-0.2,0-0.5,0-0.7,0.1s-0.4,0-0.7,0c-0.3,0-0.6,0-0.8,0
			c-0.2,0-0.5,0-0.7-0.1c-0.3,0-0.5-0.1-0.6-0.2s-0.3-0.2-0.5-0.3s-0.3-0.3-0.4-0.4s-0.2-0.4-0.2-0.6c-0.1-0.2-0.1-0.5-0.1-0.8
			c0-0.1,0-0.1,0-0.2l3,0.2v0.9h0.9V227.2z"/>
	</g>
</g>
<g>
	<g>
		<path class="st1" d="M301.6,227.2L301.6,227.2c0,0-0.1-0.1-0.2-0.1c-0.1,0-0.2,0-0.4,0s-0.3,0-0.4-0.1s-0.2,0-0.4-0.1
			c-0.1,0-0.3,0-0.4-0.1c-0.1,0-0.2-0.1-0.4-0.1c-0.3-0.1-0.5-0.2-0.8-0.3c-0.2-0.1-0.4-0.3-0.6-0.4c-0.2-0.2-0.3-0.4-0.4-0.6
			c-0.1-0.2-0.2-0.5-0.2-0.8c0-0.3,0-0.5,0.1-0.7c0.1-0.2,0.2-0.4,0.3-0.6c0.1-0.2,0.3-0.3,0.4-0.4c0.2-0.1,0.4-0.2,0.6-0.3
			c0.2-0.1,0.4-0.1,0.7-0.2s0.5-0.1,0.8-0.1c0.3,0,0.5,0,0.9,0c0.3,0,0.5,0,0.7,0c0.2,0,0.4,0,0.7,0.1c0.3,0,0.5,0.1,0.6,0.1
			s0.4,0.1,0.6,0.2s0.3,0.2,0.5,0.4s0.2,0.3,0.3,0.5c0.1,0.2,0.1,0.4,0.1,0.7c0,0.2,0,0.4,0,0.5l-3-0.2v-0.9h-0.9v1.1
			c0,0,0.1,0.1,0.3,0.1c0.1,0,0.3,0,0.6,0.1s0.5,0.1,0.7,0.1c0.2,0,0.4,0.1,0.6,0.1c0.3,0.1,0.5,0.2,0.7,0.3
			c0.2,0.1,0.4,0.2,0.6,0.4c0.2,0.2,0.3,0.3,0.4,0.6c0.1,0.2,0.2,0.5,0.2,0.7c0,0.3,0,0.5-0.1,0.7s-0.1,0.4-0.2,0.6
			c-0.1,0.2-0.2,0.3-0.4,0.4s-0.3,0.2-0.5,0.3s-0.4,0.1-0.6,0.2c-0.2,0.1-0.4,0.1-0.6,0.1c-0.2,0-0.5,0-0.7,0.1c-0.2,0-0.4,0-0.7,0
			c-0.3,0-0.6,0-0.8,0c-0.2,0-0.5,0-0.7-0.1c-0.3,0-0.5-0.1-0.6-0.2s-0.3-0.2-0.5-0.3c-0.2-0.1-0.3-0.3-0.4-0.4s-0.2-0.4-0.2-0.6
			c-0.1-0.2-0.1-0.5-0.1-0.8c0-0.1,0-0.1,0-0.2l3,0.2v0.9h0.9V227.2z"/>
		<path class="st1" d="M312.8,227c0,0.2,0,0.4,0,0.6c0,0.8-0.3,1.4-0.9,1.7c-0.6,0.3-1.5,0.5-2.8,0.5c-0.2,0-0.4,0-0.6,0
			c-0.2,0-0.4,0-0.6,0c-0.2,0-0.4,0-0.6-0.1c-0.2,0-0.3-0.1-0.5-0.1c-0.2,0-0.3-0.1-0.5-0.2c-0.1-0.1-0.3-0.2-0.4-0.3
			s-0.2-0.2-0.3-0.4s-0.1-0.3-0.2-0.5c0-0.2-0.1-0.4-0.1-0.6v-3.2c0-0.3,0-0.5,0.1-0.7c0.1-0.2,0.2-0.4,0.3-0.5
			c0.1-0.1,0.3-0.3,0.5-0.4c0.2-0.1,0.4-0.2,0.6-0.2c0.2-0.1,0.4-0.1,0.7-0.1c0.3,0,0.5,0,0.7-0.1c0.2,0,0.4,0,0.7,0
			c0.2,0,0.4,0,0.6,0c0.2,0,0.3,0,0.6,0c0.2,0,0.4,0,0.6,0.1c0.2,0,0.3,0.1,0.5,0.1c0.2,0,0.3,0.1,0.5,0.2s0.3,0.2,0.4,0.3
			c0.1,0.1,0.2,0.2,0.3,0.3s0.1,0.3,0.2,0.5c0.1,0.2,0.1,0.4,0.1,0.6v1.9h-4.1v2.2h0.9V227H312.8z M308.7,225.4h0.9v-1.8h-0.9V225.4
			z"/>
		<path class="st1" d="M315.9,222.4c0.9,0,1.5,0.3,1.9,0.8l0.2-0.6h2.9v5.7c0,1.1-0.3,1.9-1,2.5c-0.6,0.5-1.7,0.8-3,0.8
			c-1,0-1.8-0.1-2.7-0.3l0.3-1.6c0.5,0.1,1.2,0.2,1.9,0.2c0.6,0,1.1-0.1,1.3-0.2v-1.2c-0.2,0.2-0.4,0.4-0.7,0.5
			c-0.3,0.1-0.7,0.2-1.1,0.2c-1.6,0-2.3-0.7-2.3-2.1v-2.4C313.6,223.1,314.4,222.4,315.9,222.4z M317.7,223.6h-0.9v4.2h0.9V223.6z"
			/>
		<path class="st1" d="M325.7,227.2L325.7,227.2c0,0-0.1-0.1-0.2-0.1c-0.1,0-0.2,0-0.4,0s-0.3,0-0.4-0.1s-0.2,0-0.4-0.1
			c-0.1,0-0.3,0-0.4-0.1c-0.1,0-0.2-0.1-0.4-0.1c-0.3-0.1-0.5-0.2-0.8-0.3c-0.2-0.1-0.4-0.3-0.6-0.4c-0.2-0.2-0.3-0.4-0.4-0.6
			c-0.1-0.2-0.2-0.5-0.2-0.8c0-0.3,0-0.5,0.1-0.7c0.1-0.2,0.2-0.4,0.3-0.6c0.1-0.2,0.3-0.3,0.4-0.4c0.2-0.1,0.4-0.2,0.6-0.3
			c0.2-0.1,0.4-0.1,0.7-0.2s0.5-0.1,0.8-0.1c0.3,0,0.5,0,0.9,0c0.3,0,0.5,0,0.7,0c0.2,0,0.4,0,0.7,0.1c0.3,0,0.5,0.1,0.6,0.1
			s0.4,0.1,0.6,0.2s0.3,0.2,0.5,0.4s0.2,0.3,0.3,0.5c0.1,0.2,0.1,0.4,0.1,0.7c0,0.2,0,0.4,0,0.5l-3-0.2v-0.9h-0.9v1.1
			c0,0,0.1,0.1,0.3,0.1c0.1,0,0.3,0,0.6,0.1s0.5,0.1,0.7,0.1c0.2,0,0.4,0.1,0.6,0.1c0.3,0.1,0.5,0.2,0.7,0.3
			c0.2,0.1,0.4,0.2,0.6,0.4c0.2,0.2,0.3,0.3,0.4,0.6c0.1,0.2,0.2,0.5,0.2,0.7c0,0.3,0,0.5-0.1,0.7s-0.1,0.4-0.2,0.6
			c-0.1,0.2-0.2,0.3-0.4,0.4s-0.3,0.2-0.5,0.3s-0.4,0.1-0.6,0.2c-0.2,0.1-0.4,0.1-0.6,0.1c-0.2,0-0.5,0-0.7,0.1c-0.2,0-0.4,0-0.7,0
			c-0.3,0-0.6,0-0.8,0c-0.2,0-0.5,0-0.7-0.1c-0.3,0-0.5-0.1-0.6-0.2s-0.3-0.2-0.5-0.3c-0.2-0.1-0.3-0.3-0.4-0.4s-0.2-0.4-0.2-0.6
			c-0.1-0.2-0.1-0.5-0.1-0.8c0-0.1,0-0.1,0-0.2l3,0.2v0.9h0.9V227.2z"/>
	</g>
</g>
<g>
	<g>
		<path class="st1" d="M225.6,222.4c1.6,0,2.3,0.7,2.3,2.1v5.1h-3.2v-5.9h-0.9v5.9h-3.2v-9.2h3.2v2.7c0.2-0.2,0.4-0.4,0.7-0.5
			S225.2,222.4,225.6,222.4z"/>
		<path class="st1" d="M232.8,227.2L232.8,227.2c0,0-0.1-0.1-0.2-0.1c-0.1,0-0.2,0-0.4,0c-0.2,0-0.3,0-0.4-0.1s-0.2,0-0.4-0.1
			s-0.3,0-0.4-0.1s-0.2-0.1-0.4-0.1c-0.3-0.1-0.5-0.2-0.8-0.3c-0.2-0.1-0.4-0.3-0.6-0.4c-0.2-0.2-0.3-0.4-0.4-0.6
			c-0.1-0.2-0.2-0.5-0.2-0.8c0-0.3,0-0.5,0.1-0.7c0.1-0.2,0.2-0.4,0.3-0.6c0.1-0.2,0.3-0.3,0.4-0.4c0.2-0.1,0.4-0.2,0.6-0.3
			s0.4-0.1,0.7-0.2c0.3,0,0.5-0.1,0.8-0.1c0.3,0,0.5,0,0.9,0c0.3,0,0.5,0,0.7,0c0.2,0,0.4,0,0.7,0.1c0.3,0,0.5,0.1,0.6,0.1
			c0.2,0.1,0.4,0.1,0.6,0.2s0.3,0.2,0.5,0.4s0.2,0.3,0.3,0.5c0.1,0.2,0.1,0.4,0.1,0.7c0,0.2,0,0.4,0,0.5l-3-0.2v-0.9h-0.9v1.1
			c0,0,0.1,0.1,0.3,0.1c0.1,0,0.3,0,0.6,0.1c0.3,0,0.5,0.1,0.7,0.1c0.2,0,0.4,0.1,0.6,0.1c0.3,0.1,0.5,0.2,0.7,0.3s0.4,0.2,0.6,0.4
			c0.2,0.2,0.3,0.3,0.4,0.6s0.2,0.5,0.2,0.7c0,0.3,0,0.5-0.1,0.7c-0.1,0.2-0.1,0.4-0.2,0.6c-0.1,0.2-0.2,0.3-0.4,0.4
			c-0.1,0.1-0.3,0.2-0.5,0.3c-0.2,0.1-0.4,0.1-0.6,0.2s-0.4,0.1-0.6,0.1c-0.2,0-0.5,0-0.7,0.1s-0.4,0-0.7,0c-0.3,0-0.6,0-0.8,0
			c-0.2,0-0.5,0-0.7-0.1c-0.3,0-0.5-0.1-0.6-0.2s-0.3-0.2-0.5-0.3s-0.3-0.3-0.4-0.4s-0.2-0.4-0.2-0.6c-0.1-0.2-0.1-0.5-0.1-0.8
			c0-0.1,0-0.1,0-0.2l3,0.2v0.9h0.9V227.2z"/>
	</g>
</g>
<g>
	<g>
		<path class="st1" d="M267.2,222.4c0.8,0,1.3,0.2,1.7,0.5s0.6,0.9,0.6,1.5v5.1h-3.1v-5.9h-1c0,0.1,0,0.3,0,0.6v5.4h-3.1v-5.9h-0.9
			v5.9h-3.1v-7h2.9l0.2,0.6c0.2-0.2,0.5-0.4,0.8-0.5s0.8-0.2,1.2-0.2c0.8,0,1.5,0.2,1.9,0.7c0.2-0.2,0.4-0.4,0.8-0.5
			C266.4,222.5,266.8,222.4,267.2,222.4z"/>
		<path class="st1" d="M273.8,220.4v1.5h-3.2v-1.5H273.8z M273.8,229.6h-3.2v-7h3.2V229.6z"/>
		<path class="st1" d="M279.8,222.4c0.8,0,1.3,0.2,1.7,0.5c0.4,0.3,0.6,0.9,0.6,1.5v5.1h-3.2v-5.9H278v5.9h-3.2v-7h2.8l0.2,0.6
			c0.2-0.2,0.4-0.4,0.8-0.5C279,222.5,279.3,222.4,279.8,222.4z"/>
	</g>
</g>
<g>
	<g>
		<path d="M116.4,143.9L116.4,143.9c0.1-0.3,0.2-0.5,0.3-0.6c0.1-0.1,0.3-0.2,0.5-0.2s0.3,0.1,0.5,0.2c0.1,0.1,0.2,0.3,0.3,0.6
			c0.2,0.7,0.5,1.8,0.9,3.3c0.4,1.5,0.8,2.7,1.1,3.8c0.3,1.1,0.4,1.9,0.4,2.4c0,0.8-0.3,1.5-1,1.9c-0.6,0.5-1.4,0.7-2.3,0.7
			c-0.9,0-1.6-0.2-2.2-0.7c-0.6-0.5-0.9-1.1-0.9-1.9c0-0.5,0.1-1.3,0.4-2.4c0.3-1.1,0.6-2.3,1.1-3.8
			C115.9,145.8,116.2,144.7,116.4,143.9z M114.4,139.1L114.4,139.1c0-0.9,0.3-1.6,0.7-2.1c0.5-0.5,1.1-0.7,1.8-0.7
			c0.7,0,1.3,0.2,1.8,0.7c0.5,0.5,0.8,1.2,0.8,2c0,0.8-0.3,1.4-0.8,1.9c-0.5,0.4-1.1,0.7-1.8,0.7c-0.7,0-1.3-0.2-1.8-0.6
			C114.6,140.5,114.4,139.9,114.4,139.1z"/>
		<path d="M130.6,144.3h0.1l2.3-7.6h6.9l-5.5,12.7v6.3h-7.5v-6.4l-5.5-12.6h6.9L130.6,144.3z"/>
		<path d="M147,151.3l-0.7,4.4h-7.3l3.6-19h11.2l3.7,19h-7.3l-0.7-4.4H147z M148.5,140.4h-0.2l-1,8.4h2.2L148.5,140.4z"/>
		<path d="M163.8,155.7v-19h7.5v16.1h4.2v2.9H163.8z"/>
		<path d="M177.1,155.7v-19h7.5v16.1h4.2v2.9H177.1z"/>
		<path d="M202,136.7v3h-4.2v4.6h3.9v3h-3.9v5.5h4.2v3h-11.7v-19H202z"/>
		<path d="M213.9,154.2c-0.8,1.3-2.3,1.9-4.3,1.9c-0.8,0-1.6-0.1-2.2-0.3s-1.3-0.5-1.8-0.8c-0.5-0.4-1-0.9-1.3-1.5
			c-0.3-0.6-0.5-1.3-0.5-2.1v-10.4c0-0.6,0.1-1.2,0.3-1.7c0.2-0.5,0.4-0.9,0.7-1.2c0.3-0.3,0.7-0.6,1.2-0.9s0.9-0.4,1.4-0.6
			c0.5-0.1,1-0.2,1.6-0.3c0.6-0.1,1.2-0.1,1.7-0.2c0.5,0,1,0,1.7,0c0.5,0,1,0,1.5,0c0.5,0,1,0.1,1.6,0.2c0.6,0.1,1.1,0.2,1.6,0.3
			c0.5,0.1,1,0.3,1.5,0.6c0.5,0.2,0.9,0.5,1.2,0.9c0.3,0.3,0.6,0.7,0.8,1.2c0.2,0.5,0.3,1,0.3,1.6v3h-7.5v-4.5h-2.1v13.4h2.1v-3.6
			h-1.1v-2.8h8.5v9.2h-6L213.9,154.2z"/>
		<path d="M230.1,151.3l-0.7,4.4h-7.3l3.6-19H237l3.7,19h-7.3l-0.7-4.4H230.1z M231.5,140.4h-0.2l-1,8.4h2.2L231.5,140.4z"/>
		<path d="M258.5,136.7v3h-4.2v4.6h3.9v3h-3.9v5.5h4.2v3h-11.7v-19H258.5z"/>
		<path d="M260.4,155.7v-19h7.5v16.1h4.2v2.9H260.4z"/>
		<path d="M295.7,136.7v19h-7.5v-8.2h-2.4v8.2h-7.5v-19h7.5v8.2h2.4v-8.2H295.7z"/>
		<path d="M306.4,156.2c-0.7,0-1.2,0-1.7,0c-0.5,0-1.1-0.1-1.7-0.1s-1.2-0.2-1.6-0.3c-0.5-0.1-0.9-0.3-1.4-0.6
			c-0.5-0.2-0.8-0.5-1.1-0.9s-0.5-0.8-0.7-1.3c-0.2-0.5-0.3-1.1-0.3-1.7v-10.2c0-0.6,0.1-1.2,0.3-1.7c0.2-0.5,0.4-0.9,0.7-1.2
			c0.3-0.3,0.7-0.6,1.2-0.9c0.5-0.2,0.9-0.4,1.4-0.6c0.5-0.1,1-0.2,1.6-0.3s1.2-0.1,1.7-0.2c0.5,0,1,0,1.7,0c0.6,0,1.1,0,1.5,0
			c0.5,0,1,0.1,1.6,0.1c0.6,0.1,1.2,0.2,1.6,0.3c0.5,0.1,1,0.3,1.5,0.6s0.9,0.5,1.2,0.9s0.6,0.8,0.8,1.3c0.2,0.5,0.3,1.1,0.3,1.7
			v10.2c0,0.6-0.1,1.2-0.3,1.7c-0.2,0.5-0.4,0.9-0.7,1.3c-0.3,0.3-0.7,0.6-1.2,0.9c-0.5,0.2-0.9,0.4-1.4,0.6c-0.5,0.1-1,0.2-1.6,0.3
			c-0.6,0.1-1.2,0.1-1.7,0.1C307.6,156.2,307,156.2,306.4,156.2z M305.3,152.9h2.1v-13.4h-2.1V152.9z"/>
		<path d="M332.2,136.7v3.2h-4.4v15.8h-7.5v-15.8H316v-3.2H332.2z"/>
		<path d="M344.8,142.3L344.8,142.3c0,0.1,0,0.1,0.1,0.2s0.1,0.1,0.1,0.1c0,0,0.1,0.1,0.1,0.1c0,0,0.1,0.1,0.2,0.1
			c0.1,0,0.1,0,0.2,0.1c0.1,0,0.1,0,0.2,0.1s0.2,0,0.2,0s0.1,0,0.2,0c0.1,0,0.2,0,0.2,0c1.9,0.3,3.2,0.6,4,0.9
			c1.8,0.6,3,1.6,3.6,2.9c0.3,0.7,0.5,1.5,0.5,2.5c0,1.4-0.2,2.5-0.5,3.4c-0.3,0.9-0.8,1.6-1.5,2.1s-1.6,0.9-2.6,1.1
			c-1,0.2-2.3,0.3-3.8,0.3c-0.6,0-1.1,0-1.5,0c-0.4,0-1-0.1-1.5-0.1c-0.6-0.1-1.1-0.2-1.5-0.3s-0.9-0.3-1.3-0.5s-0.8-0.5-1.2-0.8
			c-0.3-0.3-0.6-0.7-0.8-1.2c-0.2-0.5-0.4-1-0.4-1.6c0-0.5-0.1-1.1-0.1-1.7h7.1v3h2.1v-3c0-0.2,0-0.3-0.1-0.4
			c-0.1-0.1-0.2-0.2-0.4-0.3c-0.2-0.1-0.3-0.2-0.4-0.2c-0.1,0-0.3-0.1-0.5-0.2c-0.3-0.1-0.6-0.2-1.1-0.3s-0.8-0.2-1.1-0.3
			c-0.3-0.1-0.7-0.2-1.1-0.3c-0.4-0.1-0.8-0.3-1-0.4c-0.3-0.1-0.6-0.3-0.9-0.5c-0.3-0.2-0.6-0.4-0.9-0.6c-0.2-0.2-0.5-0.4-0.7-0.7
			s-0.4-0.6-0.6-0.9c-0.1-0.3-0.3-0.7-0.3-1.1c-0.1-0.4-0.1-0.8-0.1-1.3c0-0.7,0.1-1.4,0.2-2c0.1-0.6,0.3-1.1,0.6-1.5
			c0.2-0.4,0.6-0.8,0.9-1.1c0.4-0.3,0.8-0.6,1.2-0.8c0.4-0.2,0.9-0.4,1.5-0.5c0.6-0.1,1.1-0.2,1.7-0.3s1.2-0.1,1.9-0.1
			c0.7,0,1.4,0,1.9,0.1c0.6,0,1.1,0.1,1.7,0.2c0.6,0.1,1.1,0.2,1.5,0.4c0.4,0.2,0.8,0.4,1.2,0.7c0.4,0.3,0.7,0.6,0.9,1
			c0.2,0.4,0.4,0.8,0.5,1.4s0.2,1.1,0.2,1.8h-6.6v-2.1h-2.1V142.3z"/>
		<path d="M363.2,151.3l-0.7,4.4h-7.3l3.6-19h11.2l3.7,19h-7.3l-0.7-4.4H363.2z M364.6,140.4h-0.2l-1,8.4h2.2L364.6,140.4z"/>
		<path d="M375.3,155.7v-19h7.5v16.1h4.2v2.9H375.3z"/>
		<path d="M400.2,136.7v3H396v4.6h3.9v3H396v5.5h4.2v3h-11.7v-19H400.2z"/>
		<path d="M404.8,148.5c-0.2-0.7-0.5-1.9-0.9-3.4c-0.4-1.5-0.8-2.8-1.1-3.8c-0.3-1.1-0.4-1.9-0.4-2.4c0-0.8,0.3-1.5,0.9-1.9
			s1.3-0.7,2.2-0.7c0.9,0,1.6,0.2,2.3,0.7c0.6,0.5,1,1.1,1,1.9c0,0.6-0.1,1.4-0.4,2.5c-0.3,1.1-0.6,2.3-1.1,3.8
			c-0.4,1.5-0.8,2.6-0.9,3.3c-0.1,0.3-0.2,0.5-0.3,0.6c-0.1,0.1-0.3,0.2-0.4,0.2c-0.2,0-0.3-0.1-0.5-0.2
			C405,148.9,404.9,148.7,404.8,148.5z M403.8,155.5c-0.5-0.4-0.7-1.1-0.7-1.8c0-0.8,0.2-1.4,0.7-1.8c0.5-0.4,1.1-0.7,1.8-0.7
			c0.7,0,1.3,0.2,1.8,0.7c0.5,0.4,0.7,1.1,0.7,1.8c0,0.8-0.2,1.4-0.7,1.8c-0.5,0.4-1.1,0.7-1.8,0.7
			C404.9,156.2,404.3,156,403.8,155.5z"/>
	</g>
	<g>
		<path class="st2" d="M116.4,143.9L116.4,143.9c0.1-0.3,0.2-0.5,0.3-0.6c0.1-0.1,0.3-0.2,0.5-0.2s0.3,0.1,0.5,0.2
			c0.1,0.1,0.2,0.3,0.3,0.6c0.2,0.7,0.5,1.8,0.9,3.3c0.4,1.5,0.8,2.7,1.1,3.8c0.3,1.1,0.4,1.9,0.4,2.4c0,0.8-0.3,1.5-1,1.9
			c-0.6,0.5-1.4,0.7-2.3,0.7c-0.9,0-1.6-0.2-2.2-0.7c-0.6-0.5-0.9-1.1-0.9-1.9c0-0.5,0.1-1.3,0.4-2.4c0.3-1.1,0.6-2.3,1.1-3.8
			C115.9,145.8,116.2,144.7,116.4,143.9z M114.4,139.1L114.4,139.1c0-0.9,0.3-1.6,0.7-2.1c0.5-0.5,1.1-0.7,1.8-0.7
			c0.7,0,1.3,0.2,1.8,0.7c0.5,0.5,0.8,1.2,0.8,2c0,0.8-0.3,1.4-0.8,1.9c-0.5,0.4-1.1,0.7-1.8,0.7c-0.7,0-1.3-0.2-1.8-0.6
			C114.6,140.5,114.4,139.9,114.4,139.1z"/>
		<path class="st2" d="M130.6,144.3h0.1l2.3-7.6h6.9l-5.5,12.7v6.3h-7.5v-6.4l-5.5-12.6h6.9L130.6,144.3z"/>
		<path class="st2" d="M147,151.3l-0.7,4.4h-7.3l3.6-19h11.2l3.7,19h-7.3l-0.7-4.4H147z M148.5,140.4h-0.2l-1,8.4h2.2L148.5,140.4z"
			/>
		<path class="st2" d="M163.8,155.7v-19h7.5v16.1h4.2v2.9H163.8z"/>
		<path class="st2" d="M177.1,155.7v-19h7.5v16.1h4.2v2.9H177.1z"/>
		<path class="st2" d="M202,136.7v3h-4.2v4.6h3.9v3h-3.9v5.5h4.2v3h-11.7v-19H202z"/>
		<path class="st2" d="M213.9,154.2c-0.8,1.3-2.3,1.9-4.3,1.9c-0.8,0-1.6-0.1-2.2-0.3s-1.3-0.5-1.8-0.8c-0.5-0.4-1-0.9-1.3-1.5
			c-0.3-0.6-0.5-1.3-0.5-2.1v-10.4c0-0.6,0.1-1.2,0.3-1.7c0.2-0.5,0.4-0.9,0.7-1.2c0.3-0.3,0.7-0.6,1.2-0.9s0.9-0.4,1.4-0.6
			c0.5-0.1,1-0.2,1.6-0.3c0.6-0.1,1.2-0.1,1.7-0.2c0.5,0,1,0,1.7,0c0.5,0,1,0,1.5,0c0.5,0,1,0.1,1.6,0.2c0.6,0.1,1.1,0.2,1.6,0.3
			c0.5,0.1,1,0.3,1.5,0.6c0.5,0.2,0.9,0.5,1.2,0.9c0.3,0.3,0.6,0.7,0.8,1.2c0.2,0.5,0.3,1,0.3,1.6v3h-7.5v-4.5h-2.1v13.4h2.1v-3.6
			h-1.1v-2.8h8.5v9.2h-6L213.9,154.2z"/>
		<path class="st2" d="M230.1,151.3l-0.7,4.4h-7.3l3.6-19H237l3.7,19h-7.3l-0.7-4.4H230.1z M231.5,140.4h-0.2l-1,8.4h2.2
			L231.5,140.4z"/>
		<path class="st2" d="M258.5,136.7v3h-4.2v4.6h3.9v3h-3.9v5.5h4.2v3h-11.7v-19H258.5z"/>
		<path class="st2" d="M260.4,155.7v-19h7.5v16.1h4.2v2.9H260.4z"/>
		<path class="st2" d="M295.7,136.7v19h-7.5v-8.2h-2.4v8.2h-7.5v-19h7.5v8.2h2.4v-8.2H295.7z"/>
		<path class="st2" d="M306.4,156.2c-0.7,0-1.2,0-1.7,0c-0.5,0-1.1-0.1-1.7-0.1s-1.2-0.2-1.6-0.3c-0.5-0.1-0.9-0.3-1.4-0.6
			c-0.5-0.2-0.8-0.5-1.1-0.9s-0.5-0.8-0.7-1.3c-0.2-0.5-0.3-1.1-0.3-1.7v-10.2c0-0.6,0.1-1.2,0.3-1.7c0.2-0.5,0.4-0.9,0.7-1.2
			c0.3-0.3,0.7-0.6,1.2-0.9c0.5-0.2,0.9-0.4,1.4-0.6c0.5-0.1,1-0.2,1.6-0.3s1.2-0.1,1.7-0.2c0.5,0,1,0,1.7,0c0.6,0,1.1,0,1.5,0
			c0.5,0,1,0.1,1.6,0.1c0.6,0.1,1.2,0.2,1.6,0.3c0.5,0.1,1,0.3,1.5,0.6s0.9,0.5,1.2,0.9s0.6,0.8,0.8,1.3c0.2,0.5,0.3,1.1,0.3,1.7
			v10.2c0,0.6-0.1,1.2-0.3,1.7c-0.2,0.5-0.4,0.9-0.7,1.3c-0.3,0.3-0.7,0.6-1.2,0.9c-0.5,0.2-0.9,0.4-1.4,0.6c-0.5,0.1-1,0.2-1.6,0.3
			c-0.6,0.1-1.2,0.1-1.7,0.1C307.6,156.2,307,156.2,306.4,156.2z M305.3,152.9h2.1v-13.4h-2.1V152.9z"/>
		<path class="st2" d="M332.2,136.7v3.2h-4.4v15.8h-7.5v-15.8H316v-3.2H332.2z"/>
		<path class="st2" d="M344.8,142.3L344.8,142.3c0,0.1,0,0.1,0.1,0.2s0.1,0.1,0.1,0.1c0,0,0.1,0.1,0.1,0.1c0,0,0.1,0.1,0.2,0.1
			c0.1,0,0.1,0,0.2,0.1c0.1,0,0.1,0,0.2,0.1s0.2,0,0.2,0s0.1,0,0.2,0c0.1,0,0.2,0,0.2,0c1.9,0.3,3.2,0.6,4,0.9
			c1.8,0.6,3,1.6,3.6,2.9c0.3,0.7,0.5,1.5,0.5,2.5c0,1.4-0.2,2.5-0.5,3.4c-0.3,0.9-0.8,1.6-1.5,2.1s-1.6,0.9-2.6,1.1
			c-1,0.2-2.3,0.3-3.8,0.3c-0.6,0-1.1,0-1.5,0c-0.4,0-1-0.1-1.5-0.1c-0.6-0.1-1.1-0.2-1.5-0.3s-0.9-0.3-1.3-0.5s-0.8-0.5-1.2-0.8
			c-0.3-0.3-0.6-0.7-0.8-1.2c-0.2-0.5-0.4-1-0.4-1.6c0-0.5-0.1-1.1-0.1-1.7h7.1v3h2.1v-3c0-0.2,0-0.3-0.1-0.4
			c-0.1-0.1-0.2-0.2-0.4-0.3c-0.2-0.1-0.3-0.2-0.4-0.2c-0.1,0-0.3-0.1-0.5-0.2c-0.3-0.1-0.6-0.2-1.1-0.3s-0.8-0.2-1.1-0.3
			c-0.3-0.1-0.7-0.2-1.1-0.3c-0.4-0.1-0.8-0.3-1-0.4c-0.3-0.1-0.6-0.3-0.9-0.5c-0.3-0.2-0.6-0.4-0.9-0.6c-0.2-0.2-0.5-0.4-0.7-0.7
			s-0.4-0.6-0.6-0.9c-0.1-0.3-0.3-0.7-0.3-1.1c-0.1-0.4-0.1-0.8-0.1-1.3c0-0.7,0.1-1.4,0.2-2c0.1-0.6,0.3-1.1,0.6-1.5
			c0.2-0.4,0.6-0.8,0.9-1.1c0.4-0.3,0.8-0.6,1.2-0.8c0.4-0.2,0.9-0.4,1.5-0.5c0.6-0.1,1.1-0.2,1.7-0.3s1.2-0.1,1.9-0.1
			c0.7,0,1.4,0,1.9,0.1c0.6,0,1.1,0.1,1.7,0.2c0.6,0.1,1.1,0.2,1.5,0.4c0.4,0.2,0.8,0.4,1.2,0.7c0.4,0.3,0.7,0.6,0.9,1
			c0.2,0.4,0.4,0.8,0.5,1.4s0.2,1.1,0.2,1.8h-6.6v-2.1h-2.1V142.3z"/>
		<path class="st2" d="M363.2,151.3l-0.7,4.4h-7.3l3.6-19h11.2l3.7,19h-7.3l-0.7-4.4H363.2z M364.6,140.4h-0.2l-1,8.4h2.2
			L364.6,140.4z"/>
		<path class="st2" d="M375.3,155.7v-19h7.5v16.1h4.2v2.9H375.3z"/>
		<path class="st2" d="M400.2,136.7v3H396v4.6h3.9v3H396v5.5h4.2v3h-11.7v-19H400.2z"/>
		<path class="st2" d="M404.8,148.5c-0.2-0.7-0.5-1.9-0.9-3.4c-0.4-1.5-0.8-2.8-1.1-3.8c-0.3-1.1-0.4-1.9-0.4-2.4
			c0-0.8,0.3-1.5,0.9-1.9s1.3-0.7,2.2-0.7c0.9,0,1.6,0.2,2.3,0.7c0.6,0.5,1,1.1,1,1.9c0,0.6-0.1,1.4-0.4,2.5
			c-0.3,1.1-0.6,2.3-1.1,3.8c-0.4,1.5-0.8,2.6-0.9,3.3c-0.1,0.3-0.2,0.5-0.3,0.6c-0.1,0.1-0.3,0.2-0.4,0.2c-0.2,0-0.3-0.1-0.5-0.2
			C405,148.9,404.9,148.7,404.8,148.5z M403.8,155.5c-0.5-0.4-0.7-1.1-0.7-1.8c0-0.8,0.2-1.4,0.7-1.8c0.5-0.4,1.1-0.7,1.8-0.7
			c0.7,0,1.3,0.2,1.8,0.7c0.5,0.4,0.7,1.1,0.7,1.8c0,0.8-0.2,1.4-0.7,1.8c-0.5,0.4-1.1,0.7-1.8,0.7
			C404.9,156.2,404.3,156,403.8,155.5z"/>
	</g>
</g>
<g>
	<g>
		<path class="st1" d="M116.4,143.9L116.4,143.9c0.1-0.3,0.2-0.5,0.3-0.6c0.1-0.1,0.3-0.2,0.5-0.2s0.3,0.1,0.5,0.2
			c0.1,0.1,0.2,0.3,0.3,0.6c0.2,0.7,0.5,1.8,0.9,3.3c0.4,1.5,0.8,2.7,1.1,3.8c0.3,1.1,0.4,1.9,0.4,2.4c0,0.8-0.3,1.5-1,1.9
			c-0.6,0.5-1.4,0.7-2.3,0.7c-0.9,0-1.6-0.2-2.2-0.7c-0.6-0.5-0.9-1.1-0.9-1.9c0-0.5,0.1-1.3,0.4-2.4c0.3-1.1,0.6-2.3,1.1-3.8
			C115.9,145.8,116.2,144.7,116.4,143.9z M114.4,139.1L114.4,139.1c0-0.9,0.3-1.6,0.7-2.1c0.5-0.5,1.1-0.7,1.8-0.7
			c0.7,0,1.3,0.2,1.8,0.7c0.5,0.5,0.8,1.2,0.8,2c0,0.8-0.3,1.4-0.8,1.9c-0.5,0.4-1.1,0.7-1.8,0.7c-0.7,0-1.3-0.2-1.8-0.6
			C114.6,140.5,114.4,139.9,114.4,139.1z"/>
		<path class="st1" d="M130.6,144.3h0.1l2.3-7.6h6.9l-5.5,12.7v6.3h-7.5v-6.4l-5.5-12.6h6.9L130.6,144.3z"/>
		<path class="st1" d="M147,151.3l-0.7,4.4h-7.3l3.6-19h11.2l3.7,19h-7.3l-0.7-4.4H147z M148.5,140.4h-0.2l-1,8.4h2.2L148.5,140.4z"
			/>
		<path class="st1" d="M163.8,155.7v-19h7.5v16.1h4.2v2.9H163.8z"/>
		<path class="st1" d="M177.1,155.7v-19h7.5v16.1h4.2v2.9H177.1z"/>
		<path class="st1" d="M202,136.7v3h-4.2v4.6h3.9v3h-3.9v5.5h4.2v3h-11.7v-19H202z"/>
		<path class="st1" d="M213.9,154.2c-0.8,1.3-2.3,1.9-4.3,1.9c-0.8,0-1.6-0.1-2.2-0.3s-1.3-0.5-1.8-0.8c-0.5-0.4-1-0.9-1.3-1.5
			c-0.3-0.6-0.5-1.3-0.5-2.1v-10.4c0-0.6,0.1-1.2,0.3-1.7c0.2-0.5,0.4-0.9,0.7-1.2c0.3-0.3,0.7-0.6,1.2-0.9s0.9-0.4,1.4-0.6
			c0.5-0.1,1-0.2,1.6-0.3c0.6-0.1,1.2-0.1,1.7-0.2c0.5,0,1,0,1.7,0c0.5,0,1,0,1.5,0c0.5,0,1,0.1,1.6,0.2c0.6,0.1,1.1,0.2,1.6,0.3
			c0.5,0.1,1,0.3,1.5,0.6c0.5,0.2,0.9,0.5,1.2,0.9c0.3,0.3,0.6,0.7,0.8,1.2c0.2,0.5,0.3,1,0.3,1.6v3h-7.5v-4.5h-2.1v13.4h2.1v-3.6
			h-1.1v-2.8h8.5v9.2h-6L213.9,154.2z"/>
		<path class="st1" d="M230.1,151.3l-0.7,4.4h-7.3l3.6-19H237l3.7,19h-7.3l-0.7-4.4H230.1z M231.5,140.4h-0.2l-1,8.4h2.2
			L231.5,140.4z"/>
		<path class="st1" d="M258.5,136.7v3h-4.2v4.6h3.9v3h-3.9v5.5h4.2v3h-11.7v-19H258.5z"/>
		<path class="st1" d="M260.4,155.7v-19h7.5v16.1h4.2v2.9H260.4z"/>
		<path class="st1" d="M295.7,136.7v19h-7.5v-8.2h-2.4v8.2h-7.5v-19h7.5v8.2h2.4v-8.2H295.7z"/>
		<path class="st1" d="M306.4,156.2c-0.7,0-1.2,0-1.7,0c-0.5,0-1.1-0.1-1.7-0.1s-1.2-0.2-1.6-0.3c-0.5-0.1-0.9-0.3-1.4-0.6
			c-0.5-0.2-0.8-0.5-1.1-0.9s-0.5-0.8-0.7-1.3c-0.2-0.5-0.3-1.1-0.3-1.7v-10.2c0-0.6,0.1-1.2,0.3-1.7c0.2-0.5,0.4-0.9,0.7-1.2
			c0.3-0.3,0.7-0.6,1.2-0.9c0.5-0.2,0.9-0.4,1.4-0.6c0.5-0.1,1-0.2,1.6-0.3s1.2-0.1,1.7-0.2c0.5,0,1,0,1.7,0c0.6,0,1.1,0,1.5,0
			c0.5,0,1,0.1,1.6,0.1c0.6,0.1,1.2,0.2,1.6,0.3c0.5,0.1,1,0.3,1.5,0.6s0.9,0.5,1.2,0.9s0.6,0.8,0.8,1.3c0.2,0.5,0.3,1.1,0.3,1.7
			v10.2c0,0.6-0.1,1.2-0.3,1.7c-0.2,0.5-0.4,0.9-0.7,1.3c-0.3,0.3-0.7,0.6-1.2,0.9c-0.5,0.2-0.9,0.4-1.4,0.6c-0.5,0.1-1,0.2-1.6,0.3
			c-0.6,0.1-1.2,0.1-1.7,0.1C307.6,156.2,307,156.2,306.4,156.2z M305.3,152.9h2.1v-13.4h-2.1V152.9z"/>
		<path class="st1" d="M332.2,136.7v3.2h-4.4v15.8h-7.5v-15.8H316v-3.2H332.2z"/>
		<path class="st1" d="M344.8,142.3L344.8,142.3c0,0.1,0,0.1,0.1,0.2s0.1,0.1,0.1,0.1c0,0,0.1,0.1,0.1,0.1c0,0,0.1,0.1,0.2,0.1
			c0.1,0,0.1,0,0.2,0.1c0.1,0,0.1,0,0.2,0.1s0.2,0,0.2,0s0.1,0,0.2,0c0.1,0,0.2,0,0.2,0c1.9,0.3,3.2,0.6,4,0.9
			c1.8,0.6,3,1.6,3.6,2.9c0.3,0.7,0.5,1.5,0.5,2.5c0,1.4-0.2,2.5-0.5,3.4c-0.3,0.9-0.8,1.6-1.5,2.1s-1.6,0.9-2.6,1.1
			c-1,0.2-2.3,0.3-3.8,0.3c-0.6,0-1.1,0-1.5,0c-0.4,0-1-0.1-1.5-0.1c-0.6-0.1-1.1-0.2-1.5-0.3s-0.9-0.3-1.3-0.5s-0.8-0.5-1.2-0.8
			c-0.3-0.3-0.6-0.7-0.8-1.2c-0.2-0.5-0.4-1-0.4-1.6c0-0.5-0.1-1.1-0.1-1.7h7.1v3h2.1v-3c0-0.2,0-0.3-0.1-0.4
			c-0.1-0.1-0.2-0.2-0.4-0.3c-0.2-0.1-0.3-0.2-0.4-0.2c-0.1,0-0.3-0.1-0.5-0.2c-0.3-0.1-0.6-0.2-1.1-0.3s-0.8-0.2-1.1-0.3
			c-0.3-0.1-0.7-0.2-1.1-0.3c-0.4-0.1-0.8-0.3-1-0.4c-0.3-0.1-0.6-0.3-0.9-0.5c-0.3-0.2-0.6-0.4-0.9-0.6c-0.2-0.2-0.5-0.4-0.7-0.7
			s-0.4-0.6-0.6-0.9c-0.1-0.3-0.3-0.7-0.3-1.1c-0.1-0.4-0.1-0.8-0.1-1.3c0-0.7,0.1-1.4,0.2-2c0.1-0.6,0.3-1.1,0.6-1.5
			c0.2-0.4,0.6-0.8,0.9-1.1c0.4-0.3,0.8-0.6,1.2-0.8c0.4-0.2,0.9-0.4,1.5-0.5c0.6-0.1,1.1-0.2,1.7-0.3s1.2-0.1,1.9-0.1
			c0.7,0,1.4,0,1.9,0.1c0.6,0,1.1,0.1,1.7,0.2c0.6,0.1,1.1,0.2,1.5,0.4c0.4,0.2,0.8,0.4,1.2,0.7c0.4,0.3,0.7,0.6,0.9,1
			c0.2,0.4,0.4,0.8,0.5,1.4s0.2,1.1,0.2,1.8h-6.6v-2.1h-2.1V142.3z"/>
		<path class="st1" d="M363.2,151.3l-0.7,4.4h-7.3l3.6-19h11.2l3.7,19h-7.3l-0.7-4.4H363.2z M364.6,140.4h-0.2l-1,8.4h2.2
			L364.6,140.4z"/>
		<path class="st1" d="M375.3,155.7v-19h7.5v16.1h4.2v2.9H375.3z"/>
		<path class="st1" d="M400.2,136.7v3H396v4.6h3.9v3H396v5.5h4.2v3h-11.7v-19H400.2z"/>
		<path class="st1" d="M404.8,148.5c-0.2-0.7-0.5-1.9-0.9-3.4c-0.4-1.5-0.8-2.8-1.1-3.8c-0.3-1.1-0.4-1.9-0.4-2.4
			c0-0.8,0.3-1.5,0.9-1.9s1.3-0.7,2.2-0.7c0.9,0,1.6,0.2,2.3,0.7c0.6,0.5,1,1.1,1,1.9c0,0.6-0.1,1.4-0.4,2.5
			c-0.3,1.1-0.6,2.3-1.1,3.8c-0.4,1.5-0.8,2.6-0.9,3.3c-0.1,0.3-0.2,0.5-0.3,0.6c-0.1,0.1-0.3,0.2-0.4,0.2c-0.2,0-0.3-0.1-0.5-0.2
			C405,148.9,404.9,148.7,404.8,148.5z M403.8,155.5c-0.5-0.4-0.7-1.1-0.7-1.8c0-0.8,0.2-1.4,0.7-1.8c0.5-0.4,1.1-0.7,1.8-0.7
			c0.7,0,1.3,0.2,1.8,0.7c0.5,0.4,0.7,1.1,0.7,1.8c0,0.8-0.2,1.4-0.7,1.8c-0.5,0.4-1.1,0.7-1.8,0.7
			C404.9,156.2,404.3,156,403.8,155.5z"/>
	</g>
</g>
<g>
	<g>
		<path d="M193.9,170.1l0,1.2c0,0.2,0,0.5-0.1,0.7c-0.1,0.2-0.1,0.4-0.2,0.5c-0.1,0.2-0.2,0.3-0.4,0.4s-0.3,0.2-0.5,0.3
			s-0.3,0.2-0.6,0.2c-0.2,0.1-0.4,0.1-0.6,0.1c-0.2,0-0.4,0.1-0.7,0.1s-0.5,0-0.7,0c-0.2,0-0.4,0-0.7,0c-0.3,0-0.6,0-0.9,0
			s-0.5,0-0.9-0.1c-0.3,0-0.6-0.1-0.8-0.2s-0.5-0.2-0.7-0.3s-0.4-0.3-0.6-0.4c-0.1-0.2-0.3-0.4-0.4-0.6c-0.1-0.2-0.1-0.5-0.1-0.8
			v-3.8c0-0.2,0-0.5,0.1-0.7c0.1-0.2,0.1-0.4,0.2-0.5c0.1-0.1,0.2-0.3,0.4-0.4c0.2-0.1,0.3-0.2,0.5-0.3c0.2-0.1,0.3-0.1,0.6-0.2
			c0.2-0.1,0.4-0.1,0.6-0.1c0.2,0,0.4-0.1,0.7-0.1c0.3,0,0.5,0,0.7,0c0.2,0,0.4,0,0.7,0c0.3,0,0.6,0,0.8,0c0.2,0,0.5,0,0.8,0
			c0.3,0,0.6,0.1,0.8,0.1s0.4,0.1,0.7,0.2c0.3,0.1,0.5,0.2,0.6,0.4c0.1,0.2,0.3,0.3,0.4,0.6c0.1,0.2,0.2,0.5,0.2,0.8v1.2h-3.7v-2
			h-1.1v5.7h1.1v-2.1H193.9z"/>
		<path d="M197.7,173.7c-0.9,0-1.6-0.2-2.1-0.6c-0.5-0.4-0.7-1-0.7-1.8v-5.9h3.8v6.7h1.1v-6.7h3.8v8.2h-3.4l-0.2-0.7
			c-0.2,0.3-0.5,0.5-0.9,0.7S198.1,173.7,197.7,173.7z"/>
		<path d="M213.2,170.5c0,0.3,0.1,0.5,0.1,0.7c0,0.9-0.3,1.6-1,2c-0.7,0.4-1.8,0.6-3.3,0.6c-0.3,0-0.5,0-0.7,0c-0.2,0-0.4,0-0.7,0
			c-0.3,0-0.5,0-0.7-0.1c-0.2,0-0.4-0.1-0.6-0.1c-0.2-0.1-0.4-0.1-0.6-0.2s-0.3-0.2-0.5-0.3s-0.3-0.3-0.4-0.4
			c-0.1-0.2-0.2-0.3-0.2-0.5c-0.1-0.2-0.1-0.4-0.1-0.7v-3.8c0-0.3,0-0.6,0.1-0.8c0.1-0.2,0.2-0.5,0.4-0.6s0.3-0.3,0.6-0.4
			s0.5-0.2,0.7-0.3c0.2-0.1,0.5-0.1,0.8-0.1c0.3,0,0.6-0.1,0.8-0.1c0.2,0,0.5,0,0.8,0c0.2,0,0.5,0,0.7,0c0.2,0,0.4,0,0.7,0
			c0.3,0,0.5,0,0.7,0.1s0.4,0.1,0.6,0.1s0.4,0.1,0.6,0.2c0.2,0.1,0.3,0.2,0.5,0.3c0.2,0.1,0.3,0.3,0.4,0.4c0.1,0.2,0.2,0.3,0.2,0.5
			s0.1,0.4,0.1,0.7v2.2h-4.8v2.6h1.1v-1.8H213.2z M208.4,168.6h1.1v-2.1h-1.1V168.6z"/>
		<path d="M220.1,165.1c0.9,0,1.6,0.2,2.1,0.6c0.5,0.4,0.7,1,0.7,1.8v6h-3.7v-7H218v7h-3.7v-8.2h3.3l0.2,0.7
			c0.2-0.3,0.5-0.5,0.9-0.6S219.6,165.1,220.1,165.1z"/>
		<path d="M229.3,173.6L229.3,173.6c-0.1,0-0.1,0-0.2,0c0,0-0.1,0-0.2,0c-0.1,0-0.1,0-0.2,0c-0.1,0-0.2,0-0.3,0c-0.1,0-0.2,0-0.3,0
			c-0.1,0-0.2,0-0.3,0c-0.5,0-0.9,0-1.2,0s-0.6-0.1-0.9-0.1c-0.3-0.1-0.5-0.2-0.7-0.3c-0.2-0.1-0.3-0.3-0.5-0.4
			c-0.1-0.2-0.2-0.4-0.3-0.6c-0.1-0.3-0.1-0.5-0.1-0.9v-4.7h-0.9v-1.3h0.9v-1.9h3.7v1.9h1v1.3h-1v4.9c0,0.1,0,0.2,0.1,0.3
			s0.2,0.2,0.3,0.2c0.1,0,0.3,0.1,0.4,0.1c0.1,0,0.3,0,0.5,0V173.6z"/>
		<path d="M238.5,171.9c0,0.5,0.1,1.1,0.2,1.6h-3.4l-0.4-0.9c-0.2,0.3-0.5,0.6-0.9,0.8s-0.8,0.3-1.3,0.3c-0.9,0-1.6-0.2-2.1-0.7
			c-0.5-0.4-0.7-1.1-0.7-2c0-0.9,0.3-1.6,0.8-2.1s1.3-0.7,2.3-0.7c0.6,0,1.2,0.1,1.7,0.3v-2h-0.9v1.2l-3.4,0.1
			c0-0.3-0.1-0.5-0.1-0.7c0-0.3,0-0.5,0.1-0.7c0.1-0.2,0.2-0.4,0.4-0.5c0.2-0.1,0.3-0.3,0.6-0.4c0.2-0.1,0.5-0.2,0.7-0.2
			s0.5-0.1,0.8-0.1c0.3,0,0.5-0.1,0.7-0.1s0.5,0,0.7,0c0.3,0,0.5,0,0.7,0c0.2,0,0.4,0,0.7,0c0.2,0,0.5,0,0.6,0.1
			c0.2,0,0.4,0.1,0.6,0.1c0.2,0.1,0.4,0.1,0.5,0.2s0.3,0.2,0.4,0.3s0.3,0.3,0.3,0.4c0.1,0.2,0.2,0.3,0.2,0.5s0.1,0.4,0.1,0.7V171.9z
			 M233.7,169.4v2.9h1.1v-2.9H233.7z"/>
		<path d="M242.2,173.5l0-8.2h3.2l0.3,0.9c0.1-0.3,0.4-0.6,0.8-0.8s0.8-0.3,1.4-0.3v2.4l-1.9,0.4v5.6H242.2z"/>
		<path d="M256.9,170.5c0,0.3,0.1,0.5,0.1,0.7c0,0.9-0.3,1.6-1,2c-0.7,0.4-1.8,0.6-3.3,0.6c-0.3,0-0.5,0-0.7,0c-0.2,0-0.4,0-0.7,0
			c-0.3,0-0.5,0-0.7-0.1c-0.2,0-0.4-0.1-0.6-0.1c-0.2-0.1-0.4-0.1-0.6-0.2s-0.3-0.2-0.5-0.3s-0.3-0.3-0.4-0.4
			c-0.1-0.2-0.2-0.3-0.2-0.5c-0.1-0.2-0.1-0.4-0.1-0.7v-3.8c0-0.3,0-0.6,0.1-0.8c0.1-0.2,0.2-0.5,0.4-0.6s0.3-0.3,0.6-0.4
			s0.5-0.2,0.7-0.3c0.2-0.1,0.5-0.1,0.8-0.1c0.3,0,0.6-0.1,0.8-0.1c0.2,0,0.5,0,0.8,0c0.2,0,0.5,0,0.7,0c0.2,0,0.4,0,0.7,0
			s0.5,0,0.7,0.1c0.2,0,0.4,0.1,0.6,0.1s0.4,0.1,0.6,0.2s0.3,0.2,0.5,0.3c0.2,0.1,0.3,0.3,0.4,0.4c0.1,0.2,0.2,0.3,0.2,0.5
			c0.1,0.2,0.1,0.4,0.1,0.7v2.2h-4.8v2.6h1.1v-1.8H256.9z M252.1,168.6h1.1v-2.1h-1.1V168.6z"/>
		<path d="M260.6,165.1c1,0,1.8,0.3,2.2,0.9l0.2-0.7h3.4v6.7c0,1.3-0.4,2.3-1.1,2.9c-0.8,0.6-2,0.9-3.6,0.9c-1.1,0-2.2-0.1-3.1-0.4
			l0.4-1.8c0.6,0.2,1.4,0.2,2.3,0.2c0.8,0,1.3-0.1,1.5-0.2v-1.4c-0.2,0.2-0.5,0.4-0.9,0.5c-0.4,0.1-0.8,0.2-1.3,0.2
			c-1.8,0-2.8-0.8-2.8-2.5v-2.8C257.9,166,258.8,165.1,260.6,165.1z M262.7,166.5h-1.1v5h1.1V166.5z"/>
		<path d="M267.6,173.5l0-8.2h3.2l0.3,0.9c0.1-0.3,0.4-0.6,0.8-0.8c0.4-0.2,0.8-0.3,1.4-0.3v2.4l-1.9,0.4v5.6H267.6z"/>
		<path d="M282.3,170.5c0,0.3,0.1,0.5,0.1,0.7c0,0.9-0.3,1.6-1,2c-0.7,0.4-1.8,0.6-3.3,0.6c-0.3,0-0.5,0-0.7,0c-0.2,0-0.4,0-0.7,0
			c-0.3,0-0.5,0-0.7-0.1c-0.2,0-0.4-0.1-0.6-0.1c-0.2-0.1-0.4-0.1-0.6-0.2s-0.3-0.2-0.5-0.3c-0.2-0.1-0.3-0.3-0.4-0.4
			c-0.1-0.2-0.2-0.3-0.2-0.5c-0.1-0.2-0.1-0.4-0.1-0.7v-3.8c0-0.3,0-0.6,0.1-0.8c0.1-0.2,0.2-0.5,0.4-0.6c0.2-0.2,0.3-0.3,0.6-0.4
			c0.2-0.1,0.5-0.2,0.7-0.3c0.2-0.1,0.5-0.1,0.8-0.1c0.3,0,0.6-0.1,0.8-0.1c0.2,0,0.5,0,0.8,0c0.2,0,0.5,0,0.7,0c0.2,0,0.4,0,0.7,0
			s0.5,0,0.7,0.1c0.2,0,0.4,0.1,0.6,0.1s0.4,0.1,0.6,0.2s0.3,0.2,0.5,0.3c0.2,0.1,0.3,0.3,0.4,0.4c0.1,0.2,0.2,0.3,0.2,0.5
			c0.1,0.2,0.1,0.4,0.1,0.7v2.2h-4.8v2.6h1.1v-1.8H282.3z M277.5,168.6h1.1v-2.1h-1.1V168.6z"/>
		<path d="M288,170.7L288,170.7c0,0-0.1-0.1-0.3-0.1c-0.1,0-0.2,0-0.4-0.1c-0.2,0-0.4,0-0.5-0.1c-0.1,0-0.3,0-0.4-0.1
			s-0.3-0.1-0.5-0.1s-0.3-0.1-0.4-0.1c-0.3-0.1-0.6-0.2-0.9-0.3s-0.5-0.3-0.7-0.5c-0.2-0.2-0.4-0.4-0.5-0.7
			c-0.1-0.3-0.2-0.6-0.2-0.9c0-0.3,0-0.6,0.1-0.9c0.1-0.3,0.2-0.5,0.3-0.7c0.1-0.2,0.3-0.3,0.5-0.5c0.2-0.1,0.4-0.2,0.7-0.3
			s0.5-0.2,0.8-0.2s0.6-0.1,0.9-0.1s0.6,0,1,0c0.3,0,0.6,0,0.8,0s0.5,0,0.8,0.1c0.3,0,0.6,0.1,0.8,0.1c0.2,0.1,0.4,0.2,0.6,0.3
			c0.2,0.1,0.4,0.3,0.5,0.4s0.2,0.4,0.3,0.6s0.1,0.5,0.1,0.8c0,0.3,0,0.5,0,0.5l-3.5-0.2v-1h-1.1v1.3c0,0,0.1,0.1,0.3,0.1
			c0.1,0,0.3,0,0.7,0.1c0.3,0,0.6,0.1,0.9,0.1s0.5,0.1,0.7,0.1c0.3,0.1,0.6,0.2,0.9,0.3c0.3,0.1,0.5,0.3,0.7,0.5s0.4,0.4,0.5,0.7
			c0.1,0.3,0.2,0.6,0.2,0.9c0,0.3,0,0.6-0.1,0.9c-0.1,0.3-0.2,0.5-0.3,0.7s-0.3,0.4-0.4,0.5s-0.3,0.3-0.6,0.4s-0.4,0.2-0.7,0.2
			c-0.2,0.1-0.5,0.1-0.7,0.1c-0.3,0-0.5,0-0.8,0.1s-0.5,0-0.8,0c-0.4,0-0.7,0-1,0c-0.3,0-0.5,0-0.8-0.1c-0.3,0-0.5-0.1-0.8-0.2
			s-0.4-0.2-0.6-0.3c-0.2-0.1-0.4-0.3-0.5-0.5c-0.1-0.2-0.2-0.4-0.3-0.7c-0.1-0.3-0.1-0.6-0.1-0.9c0-0.1,0-0.2,0-0.2l3.5,0.2v1.1
			h1.1V170.7z"/>
		<path d="M296.4,162.7v1.8h-3.7v-1.8H296.4z M296.4,173.5h-3.7v-8.2h3.7V173.5z"/>
		<path d="M301.4,171.3L301.4,171.3l0.8-6h3.6l-1.8,8.2h-5.2l-1.8-8.2h3.6L301.4,171.3z"/>
		<path d="M314.6,171.9c0,0.5,0.1,1.1,0.2,1.6h-3.4l-0.4-0.9c-0.2,0.3-0.5,0.6-0.9,0.8c-0.4,0.2-0.8,0.3-1.3,0.3
			c-0.9,0-1.6-0.2-2.1-0.7c-0.5-0.4-0.7-1.1-0.7-2c0-0.9,0.3-1.6,0.8-2.1c0.5-0.4,1.3-0.7,2.3-0.7c0.6,0,1.2,0.1,1.7,0.3v-2h-0.9
			v1.2l-3.4,0.1c0-0.3-0.1-0.5-0.1-0.7c0-0.3,0-0.5,0.1-0.7c0.1-0.2,0.2-0.4,0.4-0.5c0.2-0.1,0.3-0.3,0.6-0.4
			c0.2-0.1,0.5-0.2,0.7-0.2s0.5-0.1,0.8-0.1c0.3,0,0.5-0.1,0.7-0.1c0.2,0,0.5,0,0.7,0c0.3,0,0.5,0,0.7,0c0.2,0,0.4,0,0.7,0
			c0.2,0,0.5,0,0.7,0.1c0.2,0,0.4,0.1,0.6,0.1c0.2,0.1,0.4,0.1,0.5,0.2c0.2,0.1,0.3,0.2,0.4,0.3c0.1,0.1,0.3,0.3,0.3,0.4
			c0.1,0.2,0.2,0.3,0.2,0.5s0.1,0.4,0.1,0.7V171.9z M309.8,169.4v2.9h1.1v-2.9H309.8z"/>
	</g>
	<g>
		<path class="st0" d="M193.9,170.1l0,1.2c0,0.2,0,0.5-0.1,0.7c-0.1,0.2-0.1,0.4-0.2,0.5c-0.1,0.2-0.2,0.3-0.4,0.4s-0.3,0.2-0.5,0.3
			s-0.3,0.2-0.6,0.2c-0.2,0.1-0.4,0.1-0.6,0.1c-0.2,0-0.4,0.1-0.7,0.1s-0.5,0-0.7,0c-0.2,0-0.4,0-0.7,0c-0.3,0-0.6,0-0.9,0
			s-0.5,0-0.9-0.1c-0.3,0-0.6-0.1-0.8-0.2s-0.5-0.2-0.7-0.3s-0.4-0.3-0.6-0.4c-0.1-0.2-0.3-0.4-0.4-0.6c-0.1-0.2-0.1-0.5-0.1-0.8
			v-3.8c0-0.2,0-0.5,0.1-0.7c0.1-0.2,0.1-0.4,0.2-0.5c0.1-0.1,0.2-0.3,0.4-0.4c0.2-0.1,0.3-0.2,0.5-0.3c0.2-0.1,0.3-0.1,0.6-0.2
			c0.2-0.1,0.4-0.1,0.6-0.1c0.2,0,0.4-0.1,0.7-0.1c0.3,0,0.5,0,0.7,0c0.2,0,0.4,0,0.7,0c0.3,0,0.6,0,0.8,0c0.2,0,0.5,0,0.8,0
			c0.3,0,0.6,0.1,0.8,0.1s0.4,0.1,0.7,0.2c0.3,0.1,0.5,0.2,0.6,0.4c0.1,0.2,0.3,0.3,0.4,0.6c0.1,0.2,0.2,0.5,0.2,0.8v1.2h-3.7v-2
			h-1.1v5.7h1.1v-2.1H193.9z"/>
		<path class="st0" d="M197.7,173.7c-0.9,0-1.6-0.2-2.1-0.6c-0.5-0.4-0.7-1-0.7-1.8v-5.9h3.8v6.7h1.1v-6.7h3.8v8.2h-3.4l-0.2-0.7
			c-0.2,0.3-0.5,0.5-0.9,0.7S198.1,173.7,197.7,173.7z"/>
		<path class="st0" d="M213.2,170.5c0,0.3,0.1,0.5,0.1,0.7c0,0.9-0.3,1.6-1,2c-0.7,0.4-1.8,0.6-3.3,0.6c-0.3,0-0.5,0-0.7,0
			c-0.2,0-0.4,0-0.7,0c-0.3,0-0.5,0-0.7-0.1c-0.2,0-0.4-0.1-0.6-0.1c-0.2-0.1-0.4-0.1-0.6-0.2s-0.3-0.2-0.5-0.3s-0.3-0.3-0.4-0.4
			c-0.1-0.2-0.2-0.3-0.2-0.5c-0.1-0.2-0.1-0.4-0.1-0.7v-3.8c0-0.3,0-0.6,0.1-0.8c0.1-0.2,0.2-0.5,0.4-0.6s0.3-0.3,0.6-0.4
			s0.5-0.2,0.7-0.3c0.2-0.1,0.5-0.1,0.8-0.1c0.3,0,0.6-0.1,0.8-0.1c0.2,0,0.5,0,0.8,0c0.2,0,0.5,0,0.7,0c0.2,0,0.4,0,0.7,0
			c0.3,0,0.5,0,0.7,0.1s0.4,0.1,0.6,0.1s0.4,0.1,0.6,0.2c0.2,0.1,0.3,0.2,0.5,0.3c0.2,0.1,0.3,0.3,0.4,0.4c0.1,0.2,0.2,0.3,0.2,0.5
			s0.1,0.4,0.1,0.7v2.2h-4.8v2.6h1.1v-1.8H213.2z M208.4,168.6h1.1v-2.1h-1.1V168.6z"/>
		<path class="st0" d="M220.1,165.1c0.9,0,1.6,0.2,2.1,0.6c0.5,0.4,0.7,1,0.7,1.8v6h-3.7v-7H218v7h-3.7v-8.2h3.3l0.2,0.7
			c0.2-0.3,0.5-0.5,0.9-0.6S219.6,165.1,220.1,165.1z"/>
		<path class="st0" d="M229.3,173.6L229.3,173.6c-0.1,0-0.1,0-0.2,0c0,0-0.1,0-0.2,0c-0.1,0-0.1,0-0.2,0c-0.1,0-0.2,0-0.3,0
			c-0.1,0-0.2,0-0.3,0c-0.1,0-0.2,0-0.3,0c-0.5,0-0.9,0-1.2,0s-0.6-0.1-0.9-0.1c-0.3-0.1-0.5-0.2-0.7-0.3c-0.2-0.1-0.3-0.3-0.5-0.4
			c-0.1-0.2-0.2-0.4-0.3-0.6c-0.1-0.3-0.1-0.5-0.1-0.9v-4.7h-0.9v-1.3h0.9v-1.9h3.7v1.9h1v1.3h-1v4.9c0,0.1,0,0.2,0.1,0.3
			s0.2,0.2,0.3,0.2c0.1,0,0.3,0.1,0.4,0.1c0.1,0,0.3,0,0.5,0V173.6z"/>
		<path class="st0" d="M238.5,171.9c0,0.5,0.1,1.1,0.2,1.6h-3.4l-0.4-0.9c-0.2,0.3-0.5,0.6-0.9,0.8s-0.8,0.3-1.3,0.3
			c-0.9,0-1.6-0.2-2.1-0.7c-0.5-0.4-0.7-1.1-0.7-2c0-0.9,0.3-1.6,0.8-2.1s1.3-0.7,2.3-0.7c0.6,0,1.2,0.1,1.7,0.3v-2h-0.9v1.2
			l-3.4,0.1c0-0.3-0.1-0.5-0.1-0.7c0-0.3,0-0.5,0.1-0.7c0.1-0.2,0.2-0.4,0.4-0.5c0.2-0.1,0.3-0.3,0.6-0.4c0.2-0.1,0.5-0.2,0.7-0.2
			s0.5-0.1,0.8-0.1c0.3,0,0.5-0.1,0.7-0.1s0.5,0,0.7,0c0.3,0,0.5,0,0.7,0c0.2,0,0.4,0,0.7,0c0.2,0,0.5,0,0.6,0.1
			c0.2,0,0.4,0.1,0.6,0.1c0.2,0.1,0.4,0.1,0.5,0.2s0.3,0.2,0.4,0.3s0.3,0.3,0.3,0.4c0.1,0.2,0.2,0.3,0.2,0.5s0.1,0.4,0.1,0.7V171.9z
			 M233.7,169.4v2.9h1.1v-2.9H233.7z"/>
		<path class="st0" d="M242.2,173.5l0-8.2h3.2l0.3,0.9c0.1-0.3,0.4-0.6,0.8-0.8s0.8-0.3,1.4-0.3v2.4l-1.9,0.4v5.6H242.2z"/>
		<path class="st0" d="M256.9,170.5c0,0.3,0.1,0.5,0.1,0.7c0,0.9-0.3,1.6-1,2c-0.7,0.4-1.8,0.6-3.3,0.6c-0.3,0-0.5,0-0.7,0
			c-0.2,0-0.4,0-0.7,0c-0.3,0-0.5,0-0.7-0.1c-0.2,0-0.4-0.1-0.6-0.1c-0.2-0.1-0.4-0.1-0.6-0.2s-0.3-0.2-0.5-0.3s-0.3-0.3-0.4-0.4
			c-0.1-0.2-0.2-0.3-0.2-0.5c-0.1-0.2-0.1-0.4-0.1-0.7v-3.8c0-0.3,0-0.6,0.1-0.8c0.1-0.2,0.2-0.5,0.4-0.6s0.3-0.3,0.6-0.4
			s0.5-0.2,0.7-0.3c0.2-0.1,0.5-0.1,0.8-0.1c0.3,0,0.6-0.1,0.8-0.1c0.2,0,0.5,0,0.8,0c0.2,0,0.5,0,0.7,0c0.2,0,0.4,0,0.7,0
			s0.5,0,0.7,0.1c0.2,0,0.4,0.1,0.6,0.1s0.4,0.1,0.6,0.2s0.3,0.2,0.5,0.3c0.2,0.1,0.3,0.3,0.4,0.4c0.1,0.2,0.2,0.3,0.2,0.5
			c0.1,0.2,0.1,0.4,0.1,0.7v2.2h-4.8v2.6h1.1v-1.8H256.9z M252.1,168.6h1.1v-2.1h-1.1V168.6z"/>
		<path class="st0" d="M260.6,165.1c1,0,1.8,0.3,2.2,0.9l0.2-0.7h3.4v6.7c0,1.3-0.4,2.3-1.1,2.9c-0.8,0.6-2,0.9-3.6,0.9
			c-1.1,0-2.2-0.1-3.1-0.4l0.4-1.8c0.6,0.2,1.4,0.2,2.3,0.2c0.8,0,1.3-0.1,1.5-0.2v-1.4c-0.2,0.2-0.5,0.4-0.9,0.5
			c-0.4,0.1-0.8,0.2-1.3,0.2c-1.8,0-2.8-0.8-2.8-2.5v-2.8C257.9,166,258.8,165.1,260.6,165.1z M262.7,166.5h-1.1v5h1.1V166.5z"/>
		<path class="st0" d="M267.6,173.5l0-8.2h3.2l0.3,0.9c0.1-0.3,0.4-0.6,0.8-0.8c0.4-0.2,0.8-0.3,1.4-0.3v2.4l-1.9,0.4v5.6H267.6z"/>
		<path class="st0" d="M282.3,170.5c0,0.3,0.1,0.5,0.1,0.7c0,0.9-0.3,1.6-1,2c-0.7,0.4-1.8,0.6-3.3,0.6c-0.3,0-0.5,0-0.7,0
			c-0.2,0-0.4,0-0.7,0c-0.3,0-0.5,0-0.7-0.1c-0.2,0-0.4-0.1-0.6-0.1c-0.2-0.1-0.4-0.1-0.6-0.2s-0.3-0.2-0.5-0.3
			c-0.2-0.1-0.3-0.3-0.4-0.4c-0.1-0.2-0.2-0.3-0.2-0.5c-0.1-0.2-0.1-0.4-0.1-0.7v-3.8c0-0.3,0-0.6,0.1-0.8c0.1-0.2,0.2-0.5,0.4-0.6
			c0.2-0.2,0.3-0.3,0.6-0.4c0.2-0.1,0.5-0.2,0.7-0.3c0.2-0.1,0.5-0.1,0.8-0.1c0.3,0,0.6-0.1,0.8-0.1c0.2,0,0.5,0,0.8,0
			c0.2,0,0.5,0,0.7,0c0.2,0,0.4,0,0.7,0s0.5,0,0.7,0.1c0.2,0,0.4,0.1,0.6,0.1s0.4,0.1,0.6,0.2s0.3,0.2,0.5,0.3
			c0.2,0.1,0.3,0.3,0.4,0.4c0.1,0.2,0.2,0.3,0.2,0.5c0.1,0.2,0.1,0.4,0.1,0.7v2.2h-4.8v2.6h1.1v-1.8H282.3z M277.5,168.6h1.1v-2.1
			h-1.1V168.6z"/>
		<path class="st0" d="M288,170.7L288,170.7c0,0-0.1-0.1-0.3-0.1c-0.1,0-0.2,0-0.4-0.1c-0.2,0-0.4,0-0.5-0.1c-0.1,0-0.3,0-0.4-0.1
			s-0.3-0.1-0.5-0.1s-0.3-0.1-0.4-0.1c-0.3-0.1-0.6-0.2-0.9-0.3s-0.5-0.3-0.7-0.5c-0.2-0.2-0.4-0.4-0.5-0.7
			c-0.1-0.3-0.2-0.6-0.2-0.9c0-0.3,0-0.6,0.1-0.9c0.1-0.3,0.2-0.5,0.3-0.7c0.1-0.2,0.3-0.3,0.5-0.5c0.2-0.1,0.4-0.2,0.7-0.3
			s0.5-0.2,0.8-0.2s0.6-0.1,0.9-0.1s0.6,0,1,0c0.3,0,0.6,0,0.8,0s0.5,0,0.8,0.1c0.3,0,0.6,0.1,0.8,0.1c0.2,0.1,0.4,0.2,0.6,0.3
			c0.2,0.1,0.4,0.3,0.5,0.4s0.2,0.4,0.3,0.6s0.1,0.5,0.1,0.8c0,0.3,0,0.5,0,0.5l-3.5-0.2v-1h-1.1v1.3c0,0,0.1,0.1,0.3,0.1
			c0.1,0,0.3,0,0.7,0.1c0.3,0,0.6,0.1,0.9,0.1s0.5,0.1,0.7,0.1c0.3,0.1,0.6,0.2,0.9,0.3c0.3,0.1,0.5,0.3,0.7,0.5s0.4,0.4,0.5,0.7
			c0.1,0.3,0.2,0.6,0.2,0.9c0,0.3,0,0.6-0.1,0.9c-0.1,0.3-0.2,0.5-0.3,0.7s-0.3,0.4-0.4,0.5s-0.3,0.3-0.6,0.4s-0.4,0.2-0.7,0.2
			c-0.2,0.1-0.5,0.1-0.7,0.1c-0.3,0-0.5,0-0.8,0.1s-0.5,0-0.8,0c-0.4,0-0.7,0-1,0c-0.3,0-0.5,0-0.8-0.1c-0.3,0-0.5-0.1-0.8-0.2
			s-0.4-0.2-0.6-0.3c-0.2-0.1-0.4-0.3-0.5-0.5c-0.1-0.2-0.2-0.4-0.3-0.7c-0.1-0.3-0.1-0.6-0.1-0.9c0-0.1,0-0.2,0-0.2l3.5,0.2v1.1
			h1.1V170.7z"/>
		<path class="st0" d="M296.4,162.7v1.8h-3.7v-1.8H296.4z M296.4,173.5h-3.7v-8.2h3.7V173.5z"/>
		<path class="st0" d="M301.4,171.3L301.4,171.3l0.8-6h3.6l-1.8,8.2h-5.2l-1.8-8.2h3.6L301.4,171.3z"/>
		<path class="st0" d="M314.6,171.9c0,0.5,0.1,1.1,0.2,1.6h-3.4l-0.4-0.9c-0.2,0.3-0.5,0.6-0.9,0.8c-0.4,0.2-0.8,0.3-1.3,0.3
			c-0.9,0-1.6-0.2-2.1-0.7c-0.5-0.4-0.7-1.1-0.7-2c0-0.9,0.3-1.6,0.8-2.1c0.5-0.4,1.3-0.7,2.3-0.7c0.6,0,1.2,0.1,1.7,0.3v-2h-0.9
			v1.2l-3.4,0.1c0-0.3-0.1-0.5-0.1-0.7c0-0.3,0-0.5,0.1-0.7c0.1-0.2,0.2-0.4,0.4-0.5c0.2-0.1,0.3-0.3,0.6-0.4
			c0.2-0.1,0.5-0.2,0.7-0.2s0.5-0.1,0.8-0.1c0.3,0,0.5-0.1,0.7-0.1c0.2,0,0.5,0,0.7,0c0.3,0,0.5,0,0.7,0c0.2,0,0.4,0,0.7,0
			c0.2,0,0.5,0,0.7,0.1c0.2,0,0.4,0.1,0.6,0.1c0.2,0.1,0.4,0.1,0.5,0.2c0.2,0.1,0.3,0.2,0.4,0.3c0.1,0.1,0.3,0.3,0.3,0.4
			c0.1,0.2,0.2,0.3,0.2,0.5s0.1,0.4,0.1,0.7V171.9z M309.8,169.4v2.9h1.1v-2.9H309.8z"/>
	</g>
</g>
<g>
	<g>
		<path class="st1" d="M193.9,170.1l0,1.2c0,0.2,0,0.5-0.1,0.7c-0.1,0.2-0.1,0.4-0.2,0.5c-0.1,0.2-0.2,0.3-0.4,0.4s-0.3,0.2-0.5,0.3
			s-0.3,0.2-0.6,0.2c-0.2,0.1-0.4,0.1-0.6,0.1c-0.2,0-0.4,0.1-0.7,0.1s-0.5,0-0.7,0c-0.2,0-0.4,0-0.7,0c-0.3,0-0.6,0-0.9,0
			s-0.5,0-0.9-0.1c-0.3,0-0.6-0.1-0.8-0.2s-0.5-0.2-0.7-0.3s-0.4-0.3-0.6-0.4c-0.1-0.2-0.3-0.4-0.4-0.6c-0.1-0.2-0.1-0.5-0.1-0.8
			v-3.8c0-0.2,0-0.5,0.1-0.7c0.1-0.2,0.1-0.4,0.2-0.5c0.1-0.1,0.2-0.3,0.4-0.4c0.2-0.1,0.3-0.2,0.5-0.3c0.2-0.1,0.3-0.1,0.6-0.2
			c0.2-0.1,0.4-0.1,0.6-0.1c0.2,0,0.4-0.1,0.7-0.1c0.3,0,0.5,0,0.7,0c0.2,0,0.4,0,0.7,0c0.3,0,0.6,0,0.8,0c0.2,0,0.5,0,0.8,0
			c0.3,0,0.6,0.1,0.8,0.1s0.4,0.1,0.7,0.2c0.3,0.1,0.5,0.2,0.6,0.4c0.1,0.2,0.3,0.3,0.4,0.6c0.1,0.2,0.2,0.5,0.2,0.8v1.2h-3.7v-2
			h-1.1v5.7h1.1v-2.1H193.9z"/>
		<path class="st1" d="M197.7,173.7c-0.9,0-1.6-0.2-2.1-0.6c-0.5-0.4-0.7-1-0.7-1.8v-5.9h3.8v6.7h1.1v-6.7h3.8v8.2h-3.4l-0.2-0.7
			c-0.2,0.3-0.5,0.5-0.9,0.7S198.1,173.7,197.7,173.7z"/>
		<path class="st1" d="M213.2,170.5c0,0.3,0.1,0.5,0.1,0.7c0,0.9-0.3,1.6-1,2c-0.7,0.4-1.8,0.6-3.3,0.6c-0.3,0-0.5,0-0.7,0
			c-0.2,0-0.4,0-0.7,0c-0.3,0-0.5,0-0.7-0.1c-0.2,0-0.4-0.1-0.6-0.1c-0.2-0.1-0.4-0.1-0.6-0.2s-0.3-0.2-0.5-0.3s-0.3-0.3-0.4-0.4
			c-0.1-0.2-0.2-0.3-0.2-0.5c-0.1-0.2-0.1-0.4-0.1-0.7v-3.8c0-0.3,0-0.6,0.1-0.8c0.1-0.2,0.2-0.5,0.4-0.6s0.3-0.3,0.6-0.4
			s0.5-0.2,0.7-0.3c0.2-0.1,0.5-0.1,0.8-0.1c0.3,0,0.6-0.1,0.8-0.1c0.2,0,0.5,0,0.8,0c0.2,0,0.5,0,0.7,0c0.2,0,0.4,0,0.7,0
			c0.3,0,0.5,0,0.7,0.1s0.4,0.1,0.6,0.1s0.4,0.1,0.6,0.2c0.2,0.1,0.3,0.2,0.5,0.3c0.2,0.1,0.3,0.3,0.4,0.4c0.1,0.2,0.2,0.3,0.2,0.5
			s0.1,0.4,0.1,0.7v2.2h-4.8v2.6h1.1v-1.8H213.2z M208.4,168.6h1.1v-2.1h-1.1V168.6z"/>
		<path class="st1" d="M220.1,165.1c0.9,0,1.6,0.2,2.1,0.6c0.5,0.4,0.7,1,0.7,1.8v6h-3.7v-7H218v7h-3.7v-8.2h3.3l0.2,0.7
			c0.2-0.3,0.5-0.5,0.9-0.6S219.6,165.1,220.1,165.1z"/>
		<path class="st1" d="M229.3,173.6L229.3,173.6c-0.1,0-0.1,0-0.2,0c0,0-0.1,0-0.2,0c-0.1,0-0.1,0-0.2,0c-0.1,0-0.2,0-0.3,0
			c-0.1,0-0.2,0-0.3,0c-0.1,0-0.2,0-0.3,0c-0.5,0-0.9,0-1.2,0s-0.6-0.1-0.9-0.1c-0.3-0.1-0.5-0.2-0.7-0.3c-0.2-0.1-0.3-0.3-0.5-0.4
			c-0.1-0.2-0.2-0.4-0.3-0.6c-0.1-0.3-0.1-0.5-0.1-0.9v-4.7h-0.9v-1.3h0.9v-1.9h3.7v1.9h1v1.3h-1v4.9c0,0.1,0,0.2,0.1,0.3
			s0.2,0.2,0.3,0.2c0.1,0,0.3,0.1,0.4,0.1c0.1,0,0.3,0,0.5,0V173.6z"/>
		<path class="st1" d="M238.5,171.9c0,0.5,0.1,1.1,0.2,1.6h-3.4l-0.4-0.9c-0.2,0.3-0.5,0.6-0.9,0.8s-0.8,0.3-1.3,0.3
			c-0.9,0-1.6-0.2-2.1-0.7c-0.5-0.4-0.7-1.1-0.7-2c0-0.9,0.3-1.6,0.8-2.1s1.3-0.7,2.3-0.7c0.6,0,1.2,0.1,1.7,0.3v-2h-0.9v1.2
			l-3.4,0.1c0-0.3-0.1-0.5-0.1-0.7c0-0.3,0-0.5,0.1-0.7c0.1-0.2,0.2-0.4,0.4-0.5c0.2-0.1,0.3-0.3,0.6-0.4c0.2-0.1,0.5-0.2,0.7-0.2
			s0.5-0.1,0.8-0.1c0.3,0,0.5-0.1,0.7-0.1s0.5,0,0.7,0c0.3,0,0.5,0,0.7,0c0.2,0,0.4,0,0.7,0c0.2,0,0.5,0,0.6,0.1
			c0.2,0,0.4,0.1,0.6,0.1c0.2,0.1,0.4,0.1,0.5,0.2s0.3,0.2,0.4,0.3s0.3,0.3,0.3,0.4c0.1,0.2,0.2,0.3,0.2,0.5s0.1,0.4,0.1,0.7V171.9z
			 M233.7,169.4v2.9h1.1v-2.9H233.7z"/>
		<path class="st1" d="M242.2,173.5l0-8.2h3.2l0.3,0.9c0.1-0.3,0.4-0.6,0.8-0.8s0.8-0.3,1.4-0.3v2.4l-1.9,0.4v5.6H242.2z"/>
		<path class="st1" d="M256.9,170.5c0,0.3,0.1,0.5,0.1,0.7c0,0.9-0.3,1.6-1,2c-0.7,0.4-1.8,0.6-3.3,0.6c-0.3,0-0.5,0-0.7,0
			c-0.2,0-0.4,0-0.7,0c-0.3,0-0.5,0-0.7-0.1c-0.2,0-0.4-0.1-0.6-0.1c-0.2-0.1-0.4-0.1-0.6-0.2s-0.3-0.2-0.5-0.3s-0.3-0.3-0.4-0.4
			c-0.1-0.2-0.2-0.3-0.2-0.5c-0.1-0.2-0.1-0.4-0.1-0.7v-3.8c0-0.3,0-0.6,0.1-0.8c0.1-0.2,0.2-0.5,0.4-0.6s0.3-0.3,0.6-0.4
			s0.5-0.2,0.7-0.3c0.2-0.1,0.5-0.1,0.8-0.1c0.3,0,0.6-0.1,0.8-0.1c0.2,0,0.5,0,0.8,0c0.2,0,0.5,0,0.7,0c0.2,0,0.4,0,0.7,0
			s0.5,0,0.7,0.1c0.2,0,0.4,0.1,0.6,0.1s0.4,0.1,0.6,0.2s0.3,0.2,0.5,0.3c0.2,0.1,0.3,0.3,0.4,0.4c0.1,0.2,0.2,0.3,0.2,0.5
			c0.1,0.2,0.1,0.4,0.1,0.7v2.2h-4.8v2.6h1.1v-1.8H256.9z M252.1,168.6h1.1v-2.1h-1.1V168.6z"/>
		<path class="st1" d="M260.6,165.1c1,0,1.8,0.3,2.2,0.9l0.2-0.7h3.4v6.7c0,1.3-0.4,2.3-1.1,2.9c-0.8,0.6-2,0.9-3.6,0.9
			c-1.1,0-2.2-0.1-3.1-0.4l0.4-1.8c0.6,0.2,1.4,0.2,2.3,0.2c0.8,0,1.3-0.1,1.5-0.2v-1.4c-0.2,0.2-0.5,0.4-0.9,0.5
			c-0.4,0.1-0.8,0.2-1.3,0.2c-1.8,0-2.8-0.8-2.8-2.5v-2.8C257.9,166,258.8,165.1,260.6,165.1z M262.7,166.5h-1.1v5h1.1V166.5z"/>
		<path class="st1" d="M267.6,173.5l0-8.2h3.2l0.3,0.9c0.1-0.3,0.4-0.6,0.8-0.8c0.4-0.2,0.8-0.3,1.4-0.3v2.4l-1.9,0.4v5.6H267.6z"/>
		<path class="st1" d="M282.3,170.5c0,0.3,0.1,0.5,0.1,0.7c0,0.9-0.3,1.6-1,2c-0.7,0.4-1.8,0.6-3.3,0.6c-0.3,0-0.5,0-0.7,0
			c-0.2,0-0.4,0-0.7,0c-0.3,0-0.5,0-0.7-0.1c-0.2,0-0.4-0.1-0.6-0.1c-0.2-0.1-0.4-0.1-0.6-0.2s-0.3-0.2-0.5-0.3
			c-0.2-0.1-0.3-0.3-0.4-0.4c-0.1-0.2-0.2-0.3-0.2-0.5c-0.1-0.2-0.1-0.4-0.1-0.7v-3.8c0-0.3,0-0.6,0.1-0.8c0.1-0.2,0.2-0.5,0.4-0.6
			c0.2-0.2,0.3-0.3,0.6-0.4c0.2-0.1,0.5-0.2,0.7-0.3c0.2-0.1,0.5-0.1,0.8-0.1c0.3,0,0.6-0.1,0.8-0.1c0.2,0,0.5,0,0.8,0
			c0.2,0,0.5,0,0.7,0c0.2,0,0.4,0,0.7,0s0.5,0,0.7,0.1c0.2,0,0.4,0.1,0.6,0.1s0.4,0.1,0.6,0.2s0.3,0.2,0.5,0.3
			c0.2,0.1,0.3,0.3,0.4,0.4c0.1,0.2,0.2,0.3,0.2,0.5c0.1,0.2,0.1,0.4,0.1,0.7v2.2h-4.8v2.6h1.1v-1.8H282.3z M277.5,168.6h1.1v-2.1
			h-1.1V168.6z"/>
		<path class="st1" d="M288,170.7L288,170.7c0,0-0.1-0.1-0.3-0.1c-0.1,0-0.2,0-0.4-0.1c-0.2,0-0.4,0-0.5-0.1c-0.1,0-0.3,0-0.4-0.1
			s-0.3-0.1-0.5-0.1s-0.3-0.1-0.4-0.1c-0.3-0.1-0.6-0.2-0.9-0.3s-0.5-0.3-0.7-0.5c-0.2-0.2-0.4-0.4-0.5-0.7
			c-0.1-0.3-0.2-0.6-0.2-0.9c0-0.3,0-0.6,0.1-0.9c0.1-0.3,0.2-0.5,0.3-0.7c0.1-0.2,0.3-0.3,0.5-0.5c0.2-0.1,0.4-0.2,0.7-0.3
			s0.5-0.2,0.8-0.2s0.6-0.1,0.9-0.1s0.6,0,1,0c0.3,0,0.6,0,0.8,0s0.5,0,0.8,0.1c0.3,0,0.6,0.1,0.8,0.1c0.2,0.1,0.4,0.2,0.6,0.3
			c0.2,0.1,0.4,0.3,0.5,0.4s0.2,0.4,0.3,0.6s0.1,0.5,0.1,0.8c0,0.3,0,0.5,0,0.5l-3.5-0.2v-1h-1.1v1.3c0,0,0.1,0.1,0.3,0.1
			c0.1,0,0.3,0,0.7,0.1c0.3,0,0.6,0.1,0.9,0.1s0.5,0.1,0.7,0.1c0.3,0.1,0.6,0.2,0.9,0.3c0.3,0.1,0.5,0.3,0.7,0.5s0.4,0.4,0.5,0.7
			c0.1,0.3,0.2,0.6,0.2,0.9c0,0.3,0,0.6-0.1,0.9c-0.1,0.3-0.2,0.5-0.3,0.7s-0.3,0.4-0.4,0.5s-0.3,0.3-0.6,0.4s-0.4,0.2-0.7,0.2
			c-0.2,0.1-0.5,0.1-0.7,0.1c-0.3,0-0.5,0-0.8,0.1s-0.5,0-0.8,0c-0.4,0-0.7,0-1,0c-0.3,0-0.5,0-0.8-0.1c-0.3,0-0.5-0.1-0.8-0.2
			s-0.4-0.2-0.6-0.3c-0.2-0.1-0.4-0.3-0.5-0.5c-0.1-0.2-0.2-0.4-0.3-0.7c-0.1-0.3-0.1-0.6-0.1-0.9c0-0.1,0-0.2,0-0.2l3.5,0.2v1.1
			h1.1V170.7z"/>
		<path class="st1" d="M296.4,162.7v1.8h-3.7v-1.8H296.4z M296.4,173.5h-3.7v-8.2h3.7V173.5z"/>
		<path class="st1" d="M301.4,171.3L301.4,171.3l0.8-6h3.6l-1.8,8.2h-5.2l-1.8-8.2h3.6L301.4,171.3z"/>
		<path class="st1" d="M314.6,171.9c0,0.5,0.1,1.1,0.2,1.6h-3.4l-0.4-0.9c-0.2,0.3-0.5,0.6-0.9,0.8c-0.4,0.2-0.8,0.3-1.3,0.3
			c-0.9,0-1.6-0.2-2.1-0.7c-0.5-0.4-0.7-1.1-0.7-2c0-0.9,0.3-1.6,0.8-2.1c0.5-0.4,1.3-0.7,2.3-0.7c0.6,0,1.2,0.1,1.7,0.3v-2h-0.9
			v1.2l-3.4,0.1c0-0.3-0.1-0.5-0.1-0.7c0-0.3,0-0.5,0.1-0.7c0.1-0.2,0.2-0.4,0.4-0.5c0.2-0.1,0.3-0.3,0.6-0.4
			c0.2-0.1,0.5-0.2,0.7-0.2s0.5-0.1,0.8-0.1c0.3,0,0.5-0.1,0.7-0.1c0.2,0,0.5,0,0.7,0c0.3,0,0.5,0,0.7,0c0.2,0,0.4,0,0.7,0
			c0.2,0,0.5,0,0.7,0.1c0.2,0,0.4,0.1,0.6,0.1c0.2,0.1,0.4,0.1,0.5,0.2c0.2,0.1,0.3,0.2,0.4,0.3c0.1,0.1,0.3,0.3,0.3,0.4
			c0.1,0.2,0.2,0.3,0.2,0.5s0.1,0.4,0.1,0.7V171.9z M309.8,169.4v2.9h1.1v-2.9H309.8z"/>
	</g>
</g>
<g>
	<g>
		<g>
			<g>
				<g>
					<path class="st3" d="M478.1,12l-21.6,6.5c0,0-0.1,0-0.1,0c-0.7,0.2-1.6,0.5-2.4,1.6l-5.3,7.9c-0.2,0.4-0.3,0.8-0.2,1.2l1.8,6.3
						c0.1,0.4,0.4,0.8,0.8,0.9l8.6,3.6c1.3,0.6,2.4,0.2,3,0c0,0,9.8-3,16.3-5l4.3-8.6l-4-13.9C479.3,12.2,478.7,11.9,478.1,12z
						 M454.4,31.9c-0.3,0.5-0.9,0.7-1.4,0.4c-0.5-0.3-0.7-0.9-0.4-1.4c0.3-0.5,0.9-0.7,1.4-0.4C454.5,30.8,454.7,31.4,454.4,31.9z"
						/>
				</g>
			</g>
			<path class="st1" d="M475.3,19.3c0,0.5-0.4,0.9-1,0.9c-0.5,0-1-0.4-1-1c0-0.5,0.4-0.9,1-0.9C474.9,18.3,475.3,18.7,475.3,19.3z
				 M473.6,19.3c0,0.4,0.3,0.8,0.7,0.8c0.4,0,0.7-0.3,0.7-0.7c0-0.4-0.3-0.8-0.7-0.8C473.9,18.5,473.6,18.8,473.6,19.3z M474.2,19.8
				l-0.2,0l0-0.9c0.1,0,0.2,0,0.4,0c0.2,0,0.3,0,0.3,0.1c0.1,0,0.1,0.1,0.1,0.2c0,0.1-0.1,0.2-0.2,0.2l0,0c0.1,0,0.1,0.1,0.2,0.2
				c0,0.1,0,0.2,0.1,0.2l-0.2,0c0,0,0-0.1-0.1-0.2c0-0.1-0.1-0.1-0.2-0.1l-0.1,0L474.2,19.8z M474.2,19.2l0.1,0c0.1,0,0.2,0,0.2-0.1
				c0-0.1-0.1-0.1-0.2-0.1c-0.1,0-0.1,0-0.1,0L474.2,19.2z"/>
			<g>
				<g>
					<path class="st1" d="M463.4,23.1v3.6h-1.8v-3.1c0-0.7-0.4-1.1-1-1.1c-0.7,0-1.2,0.6-1.2,1.4v2.8h-1.8v-7.3l1.8-0.5v3.1
						c0.4-0.7,1.1-1,1.9-1C462.6,20.9,463.4,21.7,463.4,23.1z"/>
					<path class="st1" d="M469.7,23.8c0,1.8-1.3,2.9-3.1,2.9c-1.9,0-3.1-1.2-3.1-2.9s1.3-2.9,3.1-2.9
						C468.4,20.9,469.7,22,469.7,23.8z M465.3,23.8c0,0.9,0.5,1.5,1.3,1.5c0.8,0,1.3-0.6,1.3-1.5c0-0.9-0.5-1.5-1.3-1.5
						C465.8,22.3,465.3,22.9,465.3,23.8z"/>
					<path class="st1" d="M473.6,26.4c-0.4,0.2-1,0.4-1.5,0.4c-1.1,0-1.9-0.6-1.9-1.8v-2.5h-0.8v-1.2h0.8v-1.6h1.8v1.6h1.5v1.2H472
						v2.2c0,0.4,0.2,0.6,0.5,0.6c0.2,0,0.4-0.1,0.7-0.2L473.6,26.4z"/>
					<path class="st1" d="M461.9,28.6l-0.6,1.2c-0.7-0.4-1.3-0.6-1.8-0.6c-0.3,0-0.6,0.1-0.6,0.4c0,0.8,3,0.4,3,2.4
						c0,1.2-1,1.8-2.4,1.8c-1,0-1.9-0.3-2.6-0.8l0.6-1.2c0.6,0.5,1.4,0.7,2,0.7c0.4,0,0.6-0.1,0.6-0.4c0-0.8-3-0.4-3-2.4
						c0-1.2,1-1.8,2.3-1.8C460.4,27.9,461.2,28.2,461.9,28.6z"/>
					<path class="st1" d="M467.3,30v3.7h-1.8v-0.7c-0.4,0.5-1,0.7-1.8,0.7c-1.2,0-2-0.7-2-1.8c0-1.1,0.8-1.7,2.2-1.7h1.5v-0.1
						c0-0.6-0.4-0.9-1.1-0.9c-0.5,0-1.1,0.2-1.7,0.5l-0.5-1.2c0.9-0.4,1.7-0.6,2.7-0.6C466.4,27.9,467.3,28.7,467.3,30z M465.5,31.8
						v-0.5h-1.2c-0.6,0-0.8,0.2-0.8,0.6c0,0.4,0.3,0.7,0.8,0.7C464.9,32.6,465.4,32.3,465.5,31.8z"/>
					<path class="st1" d="M475.9,31.4h-4c0.2,0.7,0.7,1.1,1.4,1.1c0.5,0,1-0.2,1.4-0.6l1,0.9c-0.6,0.6-1.4,1-2.5,1
						c-1.9,0-3-1.2-3-2.9c0-1.8,1.2-2.9,3-2.9C475.1,28,476.1,29.3,475.9,31.4z M474.2,30.4c0-0.7-0.4-1.2-1.1-1.2
						c-0.6,0-1.1,0.5-1.2,1.2H474.2z"/>
					<path class="st1" d="M467.9,33.8v-6.5c0.7-0.2,1.3-0.6,1.8-1.3v7.8H467.9z"/>
				</g>
				<g>
					<path class="st1" d="M457.1,36.6c0,0.2-0.1,0.3-0.3,0.3c-0.2,0-0.3-0.1-0.3-0.3c0-0.2,0.1-0.3,0.3-0.3
						C457,36.3,457.1,36.4,457.1,36.6z"/>
					<path class="st1" d="M458.9,35.3l-0.4,0.3c-0.1-0.1-0.2-0.2-0.4-0.2c-0.3,0-0.4,0.2-0.4,0.5c0,0.3,0.2,0.5,0.4,0.5
						c0.2,0,0.3-0.1,0.4-0.2l0.4,0.3c-0.2,0.3-0.4,0.4-0.8,0.4c-0.6,0-1-0.4-1-0.9c0-0.6,0.4-1,1-1
						C458.5,34.9,458.7,35.1,458.9,35.3z"/>
					<path class="st1" d="M460.8,35.9c0,0.6-0.4,1-1,1c-0.6,0-1-0.4-1-1c0-0.6,0.4-1,1-1C460.4,34.9,460.8,35.3,460.8,35.9z
						 M459.3,35.9c0,0.3,0.2,0.5,0.5,0.5c0.3,0,0.5-0.2,0.5-0.5s-0.2-0.5-0.5-0.5C459.5,35.4,459.3,35.6,459.3,35.9z"/>
					<path class="st1" d="M464.1,35.6v1.2h-0.5v-1c0-0.2-0.1-0.4-0.4-0.4c-0.3,0-0.4,0.2-0.4,0.5v0.9h-0.5v-1c0-0.2-0.1-0.4-0.4-0.4
						c-0.3,0-0.4,0.2-0.4,0.5v0.9h-0.5v-1.9h0.5v0.3c0.1-0.2,0.4-0.3,0.6-0.3c0.3,0,0.5,0.2,0.6,0.4c0.1-0.3,0.4-0.4,0.7-0.4
						C463.8,34.9,464.1,35.2,464.1,35.6z"/>
					<path class="st1" d="M464.7,36.6c0,0.2-0.1,0.3-0.3,0.3c-0.2,0-0.3-0.1-0.3-0.3c0-0.2,0.1-0.3,0.3-0.3
						C464.6,36.3,464.7,36.4,464.7,36.6z"/>
					<path class="st1" d="M465.9,36.6c-0.1,0.2-0.3,0.2-0.6,0.2c-0.4,0-0.6-0.2-0.6-0.6c0-0.4,0.3-0.6,0.7-0.6h0.5v0
						c0-0.2-0.1-0.3-0.4-0.3c-0.2,0-0.4,0.1-0.6,0.2l-0.2-0.4c0.3-0.1,0.5-0.2,0.8-0.2c0.5,0,0.8,0.3,0.8,0.7l0,1.2h-0.5V36.6z
						 M465.9,36.2V36h-0.4c-0.2,0-0.3,0.1-0.3,0.2c0,0.1,0.1,0.2,0.3,0.2C465.7,36.5,465.9,36.3,465.9,36.2z"/>
					<path class="st1" d="M467.2,35.3c0.1-0.2,0.3-0.4,0.6-0.4v0.5c-0.4,0-0.6,0.2-0.6,0.5v0.9h-0.5v-1.9h0.5V35.3z"/>
				</g>
			</g>
			<path class="st4" d="M476.8,29.9c0.2-0.4,1.2-1.4,1.2-1.4l1.2,6.7l-2.3-3.9C476.5,30.8,476.6,30.2,476.8,29.9z"/>
			<path class="st5" d="M483.5,26.7c-0.4,0.1-3,0.9-4.9,1.5c-0.7,0.2-1.1,1-0.9,1.7l1.5,5.4L483.5,26.7z"/>
		</g>
	</g>
	<g>
		<g>
			<path class="st6" d="M476.9,45.7c0.6,0,1.1-0.5,1.1-1.1s-0.5-1.1-1.1-1.1c-0.6,0-1.1,0.5-1.1,1.1S476.2,45.7,476.9,45.7
				 M476.9,46.3c0.4,0,0.8-0.2,1.1-0.4v0.4h0.6v-1.7c0,0,0,0,0,0c0-1-0.8-1.7-1.7-1.7c-1,0-1.7,0.8-1.7,1.7
				C475.1,45.5,475.9,46.3,476.9,46.3z"/>
			<path class="st6" d="M474.1,46.3c0.4,0,0.8-0.1,1.1-0.4c-0.1-0.2-0.2-0.3-0.3-0.5c-0.2,0.2-0.5,0.3-0.8,0.3
				c-0.6,0-1.1-0.5-1.1-1.1s0.5-1.1,1.1-1.1c0.3,0,0.6,0.1,0.8,0.3c0.1-0.2,0.2-0.4,0.3-0.5c-0.3-0.2-0.7-0.4-1.1-0.4
				c-1,0-1.7,0.8-1.7,1.7C472.4,45.5,473.2,46.3,474.1,46.3"/>
			<path class="st7" d="M484.5,44.2h-2.2c0.1-0.5,0.6-0.8,1.1-0.8C484,43.4,484.4,43.7,484.5,44.2 M483.4,46.3c0.5,0,1-0.2,1.3-0.6
				l-0.4-0.5h0c-0.2,0.3-0.5,0.4-0.9,0.4c-0.5,0-1-0.4-1.1-0.8l2.8,0c0-0.1,0-0.2,0-0.3c0-1-0.8-1.7-1.7-1.7c-1,0-1.7,0.8-1.7,1.7
				C481.7,45.5,482.5,46.3,483.4,46.3z"/>
			<path class="st8" d="M480.7,46.3c0.4,0,0.8-0.1,1.1-0.4c-0.1-0.2-0.2-0.3-0.3-0.5c-0.2,0.2-0.5,0.3-0.8,0.3
				c-0.6,0-1.1-0.5-1.1-1.1s0.5-1.1,1.1-1.1c0.3,0,0.6,0.1,0.8,0.3c0.1-0.2,0.2-0.4,0.3-0.5c-0.3-0.2-0.7-0.4-1.1-0.4
				c-1,0-1.7,0.8-1.7,1.7C479,45.5,479.7,46.3,480.7,46.3"/>
		</g>
		<g>
			<path class="st1" d="M448.3,45.8c-0.2,0.1-0.4,0.2-0.7,0.2c-0.3,0-0.5-0.1-0.7-0.2c-0.2-0.1-0.2-0.4-0.2-0.7v-1.4h0.3v1.4
				c0,0.2,0.1,0.4,0.2,0.5c0.1,0.1,0.3,0.2,0.5,0.2c0.2,0,0.3-0.1,0.4-0.2c0.1-0.1,0.1-0.3,0.1-0.5v-1.4h0.3v1.4
				C448.5,45.4,448.5,45.6,448.3,45.8z"/>
			<path class="st1" d="M449.2,44.3v0.3h0c0.1-0.2,0.3-0.3,0.5-0.3c0.1,0,0.2,0,0.3,0c0.1,0,0.1,0.1,0.2,0.1c0,0.1,0.1,0.1,0.1,0.2
				c0,0.1,0,0.2,0,0.2v1.1h-0.3v-1.1c0-0.1,0-0.2-0.1-0.2c-0.1-0.1-0.1-0.1-0.2-0.1c-0.1,0-0.2,0-0.2,0c-0.1,0-0.1,0.1-0.1,0.1
				c0,0-0.1,0.1-0.1,0.2c0,0.1,0,0.1,0,0.2v0.9H449v-1.6H449.2z"/>
			<path class="st1" d="M452.2,45.9c0,0-0.1,0-0.2,0c-0.1,0-0.1,0-0.2-0.1c0,0-0.1-0.1-0.1-0.2c-0.1,0.1-0.2,0.2-0.3,0.2
				c-0.1,0-0.2,0.1-0.3,0.1c-0.1,0-0.1,0-0.2,0c-0.1,0-0.1,0-0.2-0.1c0,0-0.1-0.1-0.1-0.1c0-0.1,0-0.1,0-0.2c0-0.1,0-0.2,0-0.2
				c0-0.1,0.1-0.1,0.1-0.1c0.1,0,0.1-0.1,0.2-0.1c0.1,0,0.1,0,0.2,0c0.1,0,0.1,0,0.2,0c0.1,0,0.1,0,0.2,0c0.1,0,0.1,0,0.1-0.1
				c0,0,0-0.1,0-0.1c0-0.1,0-0.1,0-0.1c0,0-0.1-0.1-0.1-0.1c0,0-0.1,0-0.1,0c0,0-0.1,0-0.1,0c-0.1,0-0.2,0-0.3,0.1
				c-0.1,0-0.1,0.1-0.1,0.2h-0.3c0-0.1,0-0.2,0.1-0.3c0-0.1,0.1-0.1,0.2-0.2c0.1,0,0.1-0.1,0.2-0.1c0.1,0,0.2,0,0.3,0
				c0.1,0,0.1,0,0.2,0c0.1,0,0.1,0,0.2,0.1c0.1,0,0.1,0.1,0.1,0.1c0,0.1,0.1,0.1,0.1,0.2v0.8c0,0.1,0,0.1,0,0.1c0,0,0,0,0.1,0
				c0,0,0.1,0,0.1,0V45.9z M451.8,45.1c0,0-0.1,0-0.1,0.1c-0.1,0-0.1,0-0.2,0c-0.1,0-0.1,0-0.2,0c-0.1,0-0.1,0-0.2,0
				c0,0-0.1,0.1-0.1,0.1c0,0,0,0.1,0,0.2c0,0,0,0.1,0,0.1c0,0,0,0.1,0.1,0.1c0,0,0.1,0,0.1,0c0,0,0.1,0,0.1,0c0.1,0,0.2,0,0.2,0
				c0.1,0,0.1-0.1,0.2-0.1c0,0,0.1-0.1,0.1-0.1c0,0,0-0.1,0-0.1V45.1z"/>
		</g>
		<g>
			<path class="st1" d="M453.8,44v-0.3h0.3V44H453.8z M454,44.3v1.6h-0.3v-1.6H454z"/>
			<path class="st1" d="M454.7,44.3v0.3h0c0.1-0.2,0.3-0.3,0.5-0.3c0.1,0,0.2,0,0.3,0c0.1,0,0.1,0.1,0.2,0.1c0,0.1,0.1,0.1,0.1,0.2
				c0,0.1,0,0.2,0,0.2v1.1h-0.3v-1.1c0-0.1,0-0.2-0.1-0.2c-0.1-0.1-0.1-0.1-0.2-0.1c-0.1,0-0.2,0-0.2,0c-0.1,0-0.1,0.1-0.1,0.1
				c0,0-0.1,0.1-0.1,0.2c0,0.1,0,0.1,0,0.2v0.9h-0.3v-1.6H454.7z"/>
			<path class="st1" d="M456.3,44v-0.3h0.3V44H456.3z M456.5,44.3v1.6h-0.3v-1.6H456.5z"/>
			<path class="st1" d="M457.9,44.6c-0.1-0.1-0.2-0.1-0.3-0.1c-0.1,0-0.2,0-0.2,0.1c-0.1,0-0.1,0.1-0.2,0.1c0,0.1-0.1,0.1-0.1,0.2
				c0,0.1,0,0.2,0,0.2c0,0.1,0,0.1,0,0.2c0,0.1,0,0.1,0.1,0.2c0,0.1,0.1,0.1,0.1,0.1c0.1,0,0.1,0.1,0.2,0.1c0.1,0,0.2,0,0.3-0.1
				c0.1-0.1,0.1-0.2,0.1-0.3h0.3c0,0.2-0.1,0.4-0.2,0.5c-0.1,0.1-0.3,0.2-0.5,0.2c-0.1,0-0.2,0-0.3-0.1c-0.1,0-0.2-0.1-0.2-0.2
				c-0.1-0.1-0.1-0.2-0.1-0.3c0-0.1,0-0.2,0-0.3s0-0.2,0-0.3c0-0.1,0.1-0.2,0.1-0.3c0.1-0.1,0.1-0.1,0.2-0.2c0.1,0,0.2-0.1,0.3-0.1
				c0.1,0,0.2,0,0.3,0c0.1,0,0.2,0.1,0.2,0.1c0.1,0,0.1,0.1,0.2,0.2c0,0.1,0.1,0.2,0.1,0.2h-0.3C458,44.7,458,44.7,457.9,44.6z"/>
			<path class="st1" d="M458.7,44v-0.3h0.3V44H458.7z M459,44.3v1.6h-0.3v-1.6H459z"/>
			<path class="st1" d="M460.8,45.9c0,0-0.1,0-0.2,0c-0.1,0-0.1,0-0.2-0.1c0,0-0.1-0.1-0.1-0.2c-0.1,0.1-0.2,0.2-0.3,0.2
				c-0.1,0-0.2,0.1-0.3,0.1c-0.1,0-0.1,0-0.2,0c-0.1,0-0.1,0-0.2-0.1c0,0-0.1-0.1-0.1-0.1c0-0.1,0-0.1,0-0.2c0-0.1,0-0.2,0-0.2
				c0-0.1,0.1-0.1,0.1-0.1c0.1,0,0.1-0.1,0.2-0.1c0.1,0,0.1,0,0.2,0c0.1,0,0.1,0,0.2,0c0.1,0,0.1,0,0.2,0c0.1,0,0.1,0,0.1-0.1
				c0,0,0-0.1,0-0.1c0-0.1,0-0.1,0-0.1c0,0-0.1-0.1-0.1-0.1c0,0-0.1,0-0.1,0c0,0-0.1,0-0.1,0c-0.1,0-0.2,0-0.3,0.1
				c-0.1,0-0.1,0.1-0.1,0.2h-0.3c0-0.1,0-0.2,0.1-0.3c0-0.1,0.1-0.1,0.2-0.2c0.1,0,0.1-0.1,0.2-0.1c0.1,0,0.2,0,0.3,0
				c0.1,0,0.1,0,0.2,0c0.1,0,0.1,0,0.2,0.1c0.1,0,0.1,0.1,0.1,0.1c0,0.1,0.1,0.1,0.1,0.2v0.8c0,0.1,0,0.1,0,0.1c0,0,0,0,0.1,0
				c0,0,0.1,0,0.1,0V45.9z M460.4,45.1c0,0-0.1,0-0.1,0.1c-0.1,0-0.1,0-0.2,0c-0.1,0-0.1,0-0.2,0c-0.1,0-0.1,0-0.2,0
				c0,0-0.1,0.1-0.1,0.1c0,0,0,0.1,0,0.2c0,0,0,0.1,0,0.1c0,0,0,0.1,0.1,0.1c0,0,0.1,0,0.1,0c0,0,0.1,0,0.1,0c0.1,0,0.2,0,0.2,0
				c0.1,0,0.1-0.1,0.2-0.1c0,0,0.1-0.1,0.1-0.1c0,0,0-0.1,0-0.1V45.1z"/>
			<path class="st1" d="M461.8,44.3v0.2h-0.3v1c0,0,0,0.1,0,0.1c0,0,0,0,0,0c0,0,0,0,0.1,0c0,0,0.1,0,0.1,0h0.1v0.2h-0.2
				c-0.1,0-0.1,0-0.2,0c0,0-0.1,0-0.1-0.1c0,0-0.1-0.1-0.1-0.1c0,0,0-0.1,0-0.2v-1h-0.3v-0.2h0.3v-0.5h0.3v0.5H461.8z"/>
			<path class="st1" d="M462.1,44v-0.3h0.3V44H462.1z M462.4,44.3v1.6h-0.3v-1.6H462.4z"/>
			<path class="st1" d="M463.3,45.9l-0.6-1.6h0.3l0.5,1.3h0l0.4-1.3h0.3l-0.6,1.6H463.3z"/>
			<path class="st1" d="M465.9,45.9c0,0-0.1,0-0.2,0c-0.1,0-0.1,0-0.2-0.1c0,0-0.1-0.1-0.1-0.2c-0.1,0.1-0.2,0.2-0.3,0.2
				c-0.1,0-0.2,0.1-0.3,0.1c-0.1,0-0.1,0-0.2,0c-0.1,0-0.1,0-0.2-0.1c0,0-0.1-0.1-0.1-0.1c0-0.1,0-0.1,0-0.2c0-0.1,0-0.2,0-0.2
				c0-0.1,0.1-0.1,0.1-0.1c0.1,0,0.1-0.1,0.2-0.1c0.1,0,0.1,0,0.2,0c0.1,0,0.1,0,0.2,0c0.1,0,0.1,0,0.2,0c0.1,0,0.1,0,0.1-0.1
				c0,0,0-0.1,0-0.1c0-0.1,0-0.1,0-0.1c0,0-0.1-0.1-0.1-0.1c0,0-0.1,0-0.1,0c0,0-0.1,0-0.1,0c-0.1,0-0.2,0-0.3,0.1
				c-0.1,0-0.1,0.1-0.1,0.2h-0.3c0-0.1,0-0.2,0.1-0.3c0-0.1,0.1-0.1,0.2-0.2c0.1,0,0.1-0.1,0.2-0.1c0.1,0,0.2,0,0.3,0
				c0.1,0,0.1,0,0.2,0c0.1,0,0.1,0,0.2,0.1c0.1,0,0.1,0.1,0.1,0.1c0,0.1,0.1,0.1,0.1,0.2v0.8c0,0.1,0,0.1,0,0.1c0,0,0,0,0.1,0
				c0,0,0.1,0,0.1,0V45.9z M465.5,45.1c0,0-0.1,0-0.1,0.1c-0.1,0-0.1,0-0.2,0c-0.1,0-0.1,0-0.2,0c-0.1,0-0.1,0-0.2,0
				c0,0-0.1,0.1-0.1,0.1c0,0,0,0.1,0,0.2c0,0,0,0.1,0,0.1c0,0,0,0.1,0.1,0.1c0,0,0.1,0,0.1,0c0,0,0.1,0,0.1,0c0.1,0,0.2,0,0.2,0
				c0.1,0,0.1-0.1,0.2-0.1c0,0,0.1-0.1,0.1-0.1c0,0,0-0.1,0-0.1V45.1z"/>
		</g>
		<g>
			<path class="st1" d="M468.7,45.9v-0.2h0c0,0.1-0.1,0.2-0.2,0.2c-0.1,0-0.2,0.1-0.3,0.1c-0.1,0-0.2,0-0.3-0.1
				c-0.1,0-0.2-0.1-0.2-0.2c-0.1-0.1-0.1-0.2-0.1-0.3c0-0.1,0-0.2,0-0.3c0-0.1,0-0.2,0-0.3c0-0.1,0.1-0.2,0.1-0.3
				c0.1-0.1,0.1-0.1,0.2-0.2c0.1,0,0.2-0.1,0.3-0.1c0,0,0.1,0,0.1,0c0,0,0.1,0,0.1,0c0,0,0.1,0,0.1,0.1c0,0,0.1,0.1,0.1,0.1h0v-0.8
				h0.3v2.2H468.7z M467.8,45.4c0,0.1,0.1,0.1,0.1,0.2c0,0.1,0.1,0.1,0.2,0.1c0.1,0,0.1,0.1,0.2,0.1c0.1,0,0.2,0,0.2-0.1
				c0.1,0,0.1-0.1,0.2-0.1c0-0.1,0.1-0.1,0.1-0.2c0-0.1,0-0.1,0-0.2c0-0.1,0-0.2,0-0.2c0-0.1,0-0.1-0.1-0.2c0-0.1-0.1-0.1-0.2-0.1
				c-0.1,0-0.1-0.1-0.2-0.1c-0.1,0-0.2,0-0.2,0.1c-0.1,0-0.1,0.1-0.2,0.1c0,0.1-0.1,0.1-0.1,0.2c0,0.1,0,0.2,0,0.2
				C467.7,45.2,467.7,45.3,467.8,45.4z"/>
			<path class="st1" d="M470.6,45.8c-0.1,0.1-0.3,0.1-0.5,0.1c-0.1,0-0.2,0-0.3-0.1c-0.1,0-0.2-0.1-0.2-0.2
				c-0.1-0.1-0.1-0.2-0.1-0.3c0-0.1-0.1-0.2-0.1-0.3c0-0.1,0-0.2,0.1-0.3c0-0.1,0.1-0.2,0.2-0.3c0.1-0.1,0.1-0.1,0.2-0.2
				c0.1,0,0.2-0.1,0.3-0.1c0.1,0,0.3,0,0.4,0.1c0.1,0.1,0.2,0.1,0.2,0.2c0.1,0.1,0.1,0.2,0.1,0.3c0,0.1,0,0.2,0,0.3h-1.2
				c0,0.1,0,0.1,0,0.2c0,0.1,0,0.1,0.1,0.2c0,0,0.1,0.1,0.2,0.1c0.1,0,0.1,0,0.2,0c0.1,0,0.2,0,0.3-0.1c0.1-0.1,0.1-0.1,0.1-0.2h0.3
				C470.8,45.6,470.7,45.7,470.6,45.8z M470.5,44.8c0-0.1-0.1-0.1-0.1-0.1c0,0-0.1-0.1-0.1-0.1c-0.1,0-0.1,0-0.2,0
				c-0.1,0-0.1,0-0.2,0c-0.1,0-0.1,0.1-0.1,0.1c0,0-0.1,0.1-0.1,0.1c0,0.1,0,0.1,0,0.2h0.9C470.5,44.9,470.5,44.9,470.5,44.8z"/>
		</g>
	</g>
</g>
<g>
	<g>
		<path class="st1" d="M45.1,38.2h-3.7c-0.6,0-1-0.1-1.2-0.3c-0.2-0.2-0.2-0.6,0-1l0.7-2c0.2-0.5,0.4-0.8,0.7-1s0.8-0.3,1.4-0.3h3.7
			l-0.4,1.1h-3.1c-0.3,0-0.6,0.1-0.7,0.2c-0.1,0.1-0.3,0.3-0.3,0.5l-0.4,1.1c0,0.1-0.1,0.2-0.1,0.3s0,0.2,0,0.2
			c0,0.1,0.1,0.1,0.2,0.1s0.2,0,0.4,0H44l0.5-1.5H46L45.1,38.2z"/>
		<path class="st1" d="M52.3,34.9l-1.1,3.3h-1.4l0.6-1.8h-2.5l-0.6,1.8h-1.4l1.1-3.3c0.2-0.5,0.4-0.8,0.7-1s0.8-0.3,1.4-0.3h2
			c0.6,0,1,0.1,1.2,0.3C52.4,34.1,52.4,34.4,52.3,34.9z M48.2,35.3h2.5c0-0.1,0.1-0.2,0.1-0.3c0-0.1,0-0.2,0-0.2s-0.1-0.1-0.2-0.1
			c-0.1,0-0.2,0-0.4,0h-0.9c-0.3,0-0.6,0.1-0.7,0.2C48.4,34.9,48.3,35.1,48.2,35.3z"/>
		<path class="st1" d="M54.9,33.5l1,2.5l2.7-2.5H60l-1.6,4.7H57l0.8-2.5L55.3,38h-0.2l-1-2.3l-0.8,2.5h-1.4l1.6-4.7H54.9z"/>
		<path class="st1" d="M60.5,38.2h-1.4l1.6-4.7h1.4L60.5,38.2z"/>
		<path class="st1" d="M68.2,33.5l-1.6,4.7h-1.3l-1.7-2.7l-0.9,2.7h-1.4l1.6-4.7h1.3l1.7,2.7l0.9-2.7H68.2z"/>
		<path class="st1" d="M72.7,38.2H69c-0.6,0-1-0.1-1.2-0.3c-0.2-0.2-0.2-0.6,0-1l0.7-2c0.2-0.5,0.4-0.8,0.7-1s0.8-0.3,1.4-0.3h3.7
			l-0.4,1.1h-3.1c-0.3,0-0.6,0.1-0.7,0.2c-0.1,0.1-0.3,0.3-0.3,0.5l-0.4,1.1c0,0.1-0.1,0.2-0.1,0.3s0,0.2,0,0.2
			c0,0.1,0.1,0.1,0.2,0.1s0.2,0,0.4,0h1.7l0.5-1.5h1.4L72.7,38.2z"/>
		<path class="st1" d="M79,35.3h2.5l0.6-1.8h1.4l-1.6,4.7h-1.4l0.6-1.8h-2.5L78,38.2h-1.4l1.6-4.7h1.4L79,35.3z"/>
		<path class="st1" d="M89.1,34.9L88,38.2h-1.4l0.6-1.8h-2.5l-0.6,1.8h-1.4l1.1-3.3c0.2-0.5,0.4-0.8,0.7-1s0.8-0.3,1.4-0.3h2
			c0.6,0,1,0.1,1.2,0.3C89.3,34.1,89.3,34.4,89.1,34.9z M85.1,35.3h2.5c0-0.1,0.1-0.2,0.1-0.3c0-0.1,0-0.2,0-0.2s-0.1-0.1-0.2-0.1
			c-0.1,0-0.2,0-0.4,0h-0.9c-0.3,0-0.6,0.1-0.7,0.2C85.2,34.9,85.1,35.1,85.1,35.3z"/>
		<path class="st1" d="M93.2,36.6l1,1.6h-1.6l-1-1.6h-0.9l-0.6,1.6h-1.4l1.6-4.7H94c0.6,0,1,0.1,1.2,0.3c0.2,0.2,0.2,0.6,0,1
			l-0.1,0.4c-0.2,0.4-0.4,0.8-0.7,1C94.1,36.4,93.7,36.5,93.2,36.6z M93.2,34.6h-1.8l-0.3,0.9h1.8c0.1,0,0.3,0,0.4,0
			c0.1,0,0.2,0,0.2-0.1c0.1,0,0.1-0.1,0.2-0.1c0-0.1,0.1-0.1,0.1-0.2c0-0.1,0.1-0.2,0.1-0.2c0-0.1,0-0.1-0.1-0.1
			c0,0-0.1-0.1-0.2-0.1C93.4,34.6,93.3,34.6,93.2,34.6z"/>
		<path class="st1" d="M101.3,34.9l-0.7,2c-0.2,0.5-0.4,0.8-0.7,1s-0.8,0.3-1.4,0.3h-3.7l1.6-4.7h3.7c0.6,0,1,0.1,1.2,0.3
			C101.4,34.1,101.4,34.4,101.3,34.9z M99.1,34.6h-1.7l-0.9,2.5h1.7c0.2,0,0.3,0,0.4,0c0.1,0,0.2-0.1,0.3-0.1
			c0.1-0.1,0.1-0.1,0.2-0.2c0.1-0.1,0.1-0.2,0.1-0.3l0.4-1.1c0-0.1,0.1-0.2,0.1-0.3c0-0.1,0-0.2,0-0.2s-0.1-0.1-0.2-0.1
			C99.4,34.6,99.3,34.6,99.1,34.6z"/>
		<path class="st1" d="M103.7,37.1h0.4l1.3-3.6h1.4l-1.3,3.6h0.4c0.1,0,0.1,0,0.2,0s0.1-0.1,0.2-0.2c0.1-0.1,0.2-0.2,0.3-0.4
			c0.1-0.2,0.3-0.4,0.4-0.6c0.2-0.3,0.4-0.6,0.6-1c0.2-0.4,0.5-0.9,0.9-1.4h1.5l-2,3.3c-0.1,0.1-0.2,0.3-0.3,0.4s-0.3,0.3-0.5,0.4
			c-0.2,0.1-0.3,0.3-0.5,0.3c-0.2,0.1-0.3,0.1-0.5,0.1h-3.5c-0.2,0-0.3,0-0.4-0.1c-0.1-0.1-0.2-0.2-0.3-0.3
			c-0.1-0.1-0.1-0.3-0.1-0.4c0-0.2,0-0.3,0-0.5l0.2-3.3h1.5l-0.1,1.5c0,0.2,0,0.5,0,0.7c0,0.2,0,0.5,0,0.7c0,0.2,0.1,0.4,0.1,0.5
			C103.6,37.1,103.7,37.1,103.7,37.1z"/>
		<path class="st1" d="M115.4,34.9l-1.1,3.3h-1.4l0.6-1.8h-2.5l-0.6,1.8h-1.4l1.1-3.3c0.2-0.5,0.4-0.8,0.7-1s0.8-0.3,1.4-0.3h2
			c0.6,0,1,0.1,1.2,0.3C115.5,34.1,115.5,34.4,115.4,34.9z M111.3,35.3h2.5c0-0.1,0.1-0.2,0.1-0.3c0-0.1,0-0.2,0-0.2
			s-0.1-0.1-0.2-0.1c-0.1,0-0.2,0-0.4,0h-0.9c-0.3,0-0.6,0.1-0.7,0.2C111.5,34.9,111.4,35.1,111.3,35.3z"/>
		<path class="st1" d="M119.4,36.6l1,1.6h-1.6l-1-1.6h-0.9l-0.6,1.6h-1.4l1.6-4.7h3.7c0.6,0,1,0.1,1.2,0.3c0.2,0.2,0.2,0.6,0,1
			l-0.1,0.4c-0.2,0.4-0.4,0.8-0.7,1C120.3,36.4,119.9,36.5,119.4,36.6z M119.4,34.6h-1.8l-0.3,0.9h1.8c0.1,0,0.3,0,0.4,0
			c0.1,0,0.2,0,0.2-0.1c0.1,0,0.1-0.1,0.2-0.1c0-0.1,0.1-0.1,0.1-0.2c0-0.1,0.1-0.2,0.1-0.2c0-0.1,0-0.1-0.1-0.1
			c0,0-0.1-0.1-0.2-0.1C119.7,34.6,119.6,34.6,119.4,34.6z"/>
		<path class="st1" d="M126.4,38.2h-3.7c-0.6,0-1-0.1-1.2-0.3c-0.2-0.2-0.2-0.6,0-1l0.7-2c0.2-0.5,0.4-0.8,0.7-1s0.8-0.3,1.4-0.3
			h3.7l-0.4,1.1h-3.1c-0.3,0-0.6,0.1-0.7,0.2c-0.1,0.1-0.3,0.3-0.3,0.5l0,0h3.9l-0.4,1.1H123l0,0c0,0.1-0.1,0.2-0.1,0.3s0,0.2,0,0.2
			c0,0.1,0.1,0.1,0.2,0.1s0.2,0,0.4,0h3.1L126.4,38.2z"/>
	</g>
	<g>
		<path class="st1" d="M56,21.8l-5.5,5.1l-2.1-5.1H45l-0.7,2l-2.8,8.2H45l1.3-3.8l0.3-0.9l1.9,4.3H49l4.9-4.3l-1.6,4.7h3.4l3.5-10.2
			H56z"/>
		<path class="st1" d="M71.2,22.5c-0.4-0.5-1.3-0.7-2.6-0.7h-4.3c-1.3,0-2.3,0.2-3.1,0.7c-0.8,0.5-1.3,1.3-1.7,2.3l-2.5,7.2h3.4
			l1.3-3.8h4.8l-1.1,3.2h0l-0.2,0.6h3.4l0.6-1.8h0l1.8-5.3C71.6,23.8,71.6,23,71.2,22.5z M62.8,25.5c0.2-0.4,0.4-0.6,0.6-0.8
			c0.3-0.2,0.7-0.3,1.2-0.3h1.9c0.6,0,0.9,0.1,1,0.3c0.1,0.2,0.1,0.4,0.1,0.8H62.8z"/>
		<path class="st1" d="M81.6,21.8l-3.1,2.7l-1.2-2.7h-3.9l2.3,5.1l-1.6,1.4l-4.2,3.6h3.9l3-2.6l1.2,2.6H82l-2.3-5.1l4.7-4.1l0,0
			l1.1-1H81.6z"/>
		<path class="st1" d="M86.6,21.8l-3.5,10.2h3.4l3.5-10.2H86.6z"/>
		<path class="st1" d="M102.3,21.8l-5.5,5.1l-2.1-5.1h-3.3l-3.5,10.2h3.4l1.6-4.7l1.9,4.3h0.6l4.9-4.3l-1.6,4.7h3.4l3.5-10.2H102.3z
			"/>
		<path class="st1" d="M115.3,21.8l-2.2,6.2c-0.1,0.2-0.2,0.4-0.2,0.6c-0.1,0.2-0.2,0.3-0.4,0.4c-0.1,0.1-0.3,0.2-0.5,0.2
			c-0.2,0.1-0.5,0.1-0.8,0.1h-1.9c-0.3,0-0.6,0-0.7-0.1c-0.2-0.1-0.3-0.1-0.4-0.2c-0.1-0.1-0.1-0.2-0.1-0.4c0-0.2,0.1-0.4,0.1-0.6
			l2.2-6.2H107l-2.5,7.2c-0.4,1-0.3,1.8,0.1,2.3c0.4,0.5,1.3,0.7,2.6,0.7h4.3c1.3,0,2.3-0.2,3.1-0.7c0.7-0.5,1.3-1.3,1.6-2.3
			l2.5-7.2H115.3z"/>
		<path class="st1" d="M132,21.8h-9.2c-0.7,0-1.3,0.2-1.9,0.5c-0.5,0.3-1,0.8-1.4,1.4c0,0-0.1,0.1-0.1,0.2c0,0.1-0.1,0.2-0.1,0.3
			c-0.2,0.5-0.2,0.9-0.1,1.4c0.1,0.4,0.3,0.7,0.6,1l4.5,2.6l0.5,0.3c0,0,0,0,0,0h-7.3l-0.9,2.7h9.2c0.7,0,1.3-0.2,1.8-0.5
			c0.5-0.3,1-0.8,1.4-1.4c0.1-0.1,0.2-0.2,0.2-0.4c0,0,0,0,0,0c0.1-0.3,0.1-0.6,0.1-0.9c0-0.3-0.1-0.5-0.1-0.7
			c-0.1-0.2-0.2-0.4-0.3-0.5c-0.1-0.1-0.2-0.2-0.2-0.2l-5-2.8c0,0,0,0,0,0h7.3L132,21.8z"/>
	</g>
	<g>
		<g>
			<path class="st1" d="M26.2,18.8C20,18.8,15,23.8,15,30c0,2.7,1,5.3,2.6,7.2c2.1,2.4,5.1,4,8.6,4c4.5,0,8.4-2.6,10.2-6.4
				c0.7-1.4,1.1-3.1,1.1-4.8C37.4,23.8,32.4,18.8,26.2,18.8z M26.2,39.1c-2.4,0-4.6-0.9-6.2-2.4c-1.8-1.7-2.9-4-2.9-6.7
				c0-5,4.1-9.1,9.1-9.1c5,0,9.1,4.1,9.1,9.1c0,1.8-0.5,3.5-1.4,4.9C32.3,37.4,29.4,39.1,26.2,39.1z"/>
		</g>
	</g>
	<g>
		<g>
			<path class="st1" d="M30.6,25.9c-0.1,0.1-0.5,1.6-0.1-0.6c0.1-0.6-0.2-1.1-0.7-1.5c-1.2-1-3-1.3-4.5-1c-1,0.2-2.3,0.5-3,1.3
				c-0.3,0.3-0.4,0.8-0.4,1.2c0.4,2.2,0,0.6-0.1,0.6c0,0-0.7,6.4-0.5,7.1c0.1,0.5,2.6,2.1,3.6,2.8c0.1,0,0.1,0.1,0.2,0.1l0.4,1.3
				l-0.2-1.2c0,0,0,0,0,0s0-0.1,0-0.4C25.3,34.8,25,32.1,25,30c0,0-2.2-1.8-2.4-2c-0.1-0.2,0-0.2-0.1-0.4c0.1,0,3,1.5,3,1.6
				s0.2,2.7,0.2,2.9c0,0.1,0.5,0.5,0.5,0.5s0.4-0.4,0.5-0.5c0-0.1,0.2-2.7,0.2-2.9s2.9-1.6,3-1.6c-0.1,0.2,0,0.2-0.1,0.4
				c-0.1,0.2-2.4,2-2.4,2c0,1.5-0.1,3.7-0.2,4.8l-0.1,0.7l-0.2,1.7l0.4-1.3c0.2-0.1,0.5-0.3,0.8-0.6c1.2-0.8,2.8-2,3-2.4
				C31.2,32.3,30.6,25.9,30.6,25.9z M25.6,23.1c-0.6,0.2-1.2,0.5-1.7,0.9c-0.3,0.3-0.6,0.6-0.7,1c-0.1,0.3-0.1,0.6-0.1,0.9
				c0,0.1,0.1,0.4,0,0.5c0,0.1-0.1,0.1-0.2,0c-1.9-2.6,2.4-3.3,2.9-3.4C25.7,23.1,25.7,23.1,25.6,23.1z"/>
		</g>
	</g>
</g>
<rect x="0" class="st9" width="500" height="264"/>
</svg>
