<svg xmlns="http://www.w3.org/2000/svg" id="Capa_1" data-name="Capa 1" viewBox="0 0 762 488"><defs><style>.cls-1{fill:#008e0a}.cls-3{fill:#3700af}</style></defs><path d="M214 576c-15 1-31 1-46-2-10-1-14-5-14-16V404c0-12 4-15 13-17a441 441 0 0 1 46-4c34-2 80 3 80 47v5c0 16-8 31-22 39 14 6 24 20 23 36v3c0 45-41 61-80 63Zm37-139c1-19-22-19-35-19l-19 1v44l28-1c13-1 26-7 26-22Zm1 76c0-15-13-22-27-21l-28 2v47l21-1c15 0 35-5 34-24Zm175 37a243 243 0 0 1-42 9c-34 5-63-7-61-46V381a6 6 0 0 1 5-5l33-4a4 4 0 0 1 5 4v131c0 13 4 17 16 15l44-6a4 4 0 0 1 5 4v24c0 3-2 5-5 6Zm171-26-36 6a4 4 0 0 1-5-4l-9-40-52 8-9 43a7 7 0 0 1-5 6l-36 5c-2 0-4-1-4-3a12 12 0 0 0 0-2l38-163c5-21 22-31 42-34 18-3 38 0 42 21l38 151a10 10 0 0 0 0 1 5 5 0 0 1-4 5Zm-72-139c-1-3-1-4-4-3s-3 1-3 4l-16 72 38-6-15-67Zm202 119c-12 5-25 7-38 9-48 7-73-24-75-70v-32c1-47 29-85 75-91 13-1 26-3 38 0 4 0 6 1 6 4v25c0 3-2 5-5 6h-1l-37 2c-24 4-32 26-32 48v32c1 20 7 42 32 38l37-7h1c3 0 5 2 5 5v24c0 4-2 5-6 7Zm180-192-60 87 60 90a5 5 0 0 1 1 3c0 1-1 2-3 2l-44 1c-3 0-4-1-5-3l-52-81v82a6 6 0 0 1-5 6l-33 3a5 5 0 0 1-5-5V319a6 6 0 0 1 5-6l33-3a4 4 0 0 1 5 5v80l56-85a6 6 0 0 1 5-3l39-1c3 0 4 1 4 3a7 7 0 0 1-1 3Z" class="cls-1" transform="translate(-151 -301)"/><path d="M211 579c-15 1-31 1-46-2-10-1-14-5-14-16V407c0-12 4-15 13-17a441 441 0 0 1 46-4c34-2 80 3 80 47v5c0 16-8 31-22 39 14 6 24 20 23 36v3c0 45-41 61-80 63Zm37-139c1-19-22-19-35-19l-19 1v44l28-1c13-1 26-7 26-22Zm1 76c0-15-13-22-27-21l-28 2v47l21-1c15 0 35-5 34-24Zm175 37a243 243 0 0 1-42 9c-34 5-63-7-61-46V384a6 6 0 0 1 5-5l33-4a4 4 0 0 1 5 4v131c0 13 4 17 16 15l44-6a4 4 0 0 1 5 4v24c0 3-2 5-5 6Zm171-26-36 6a4 4 0 0 1-5-4l-9-40-52 8-9 43a7 7 0 0 1-5 6l-36 5c-2 0-4-1-4-3a12 12 0 0 0 0-2l38-163c5-21 22-31 42-34 18-3 38 0 42 21l38 151a10 10 0 0 0 0 1 5 5 0 0 1-4 5Zm-72-139c-1-3-1-4-4-3s-3 1-3 4l-16 72 38-6-15-67Zm202 119c-12 5-25 7-38 9-48 7-73-24-75-70v-32c1-47 29-85 75-91 13-1 26-3 38 0 4 0 6 1 6 4v25c0 3-2 5-5 6h-1l-37 2c-24 4-32 26-32 48v32c1 20 7 42 32 38l37-7h1c3 0 5 2 5 5v24c0 4-2 5-6 7Zm180-192-60 87 60 90a5 5 0 0 1 1 3c0 1-1 2-3 2l-44 1c-3 0-4-1-5-3l-52-81v82a6 6 0 0 1-5 6l-33 3a5 5 0 0 1-5-5V322a6 6 0 0 1 5-6l33-3a4 4 0 0 1 5 5v80l56-85a6 6 0 0 1 5-3l39-1c3 0 4 1 4 3a7 7 0 0 1-1 3Z" class="cls-1" transform="translate(-151 -301)"/><path d="M216 574c-15 1-31 1-46-2-10-1-14-5-14-16V402c0-12 4-15 13-17a441 441 0 0 1 46-4c34-2 80 3 80 47v5c0 16-8 31-22 39 14 6 24 20 23 36v3c0 45-41 61-80 63Zm37-139c1-19-22-19-35-19l-19 1v44l28-1c13-1 26-7 26-22Zm1 76c0-15-13-22-27-21l-28 2v47l21-1c15 0 35-5 34-24Zm175 37a243 243 0 0 1-42 9c-34 5-63-7-61-46V379a6 6 0 0 1 5-5l33-4a4 4 0 0 1 5 4v131c0 13 4 17 16 15l44-6a4 4 0 0 1 5 4v24c0 3-2 5-5 6Zm171-26-36 6a4 4 0 0 1-5-4l-9-40-52 8-9 43a7 7 0 0 1-5 6l-36 5c-2 0-4-1-4-3a12 12 0 0 0 0-2l38-163c5-21 22-31 42-34 18-3 38 0 42 21l38 151a10 10 0 0 0 0 1 5 5 0 0 1-4 5Zm-72-139c-1-3-1-4-4-3s-3 1-3 4l-16 72 38-6-15-67Zm202 119c-12 5-25 7-38 9-48 7-73-24-75-70v-32c1-47 29-85 75-91 13-1 26-3 38 0 4 0 6 1 6 4v25c0 3-2 5-5 6h-1l-37 2c-24 4-32 26-32 48v32c1 20 7 42 32 38l37-7h1c3 0 5 2 5 5v24c0 4-2 5-6 7Zm180-192-60 87 60 90a5 5 0 0 1 1 3c0 1-1 2-3 2l-44 1c-3 0-4-1-5-3l-52-81v82a6 6 0 0 1-5 6l-33 3a5 5 0 0 1-5-5V317a6 6 0 0 1 5-6l33-3a4 4 0 0 1 5 5v80l56-85a6 6 0 0 1 5-3l39-1c3 0 4 1 4 3a7 7 0 0 1-1 3Z" class="cls-1" transform="translate(-151 -301)"/><path fill="#00ff18" d="M218 571c-15 1-31 1-46-2-10-1-14-5-14-16V399c0-12 4-15 13-17a441 441 0 0 1 46-4c34-2 80 3 80 47v5c0 16-8 31-22 39 14 6 24 20 23 36v3c0 45-41 61-80 63Zm37-139c1-19-22-19-35-19l-19 1v44l28-1c13-1 26-7 26-22Zm1 76c0-15-13-22-27-21l-28 2v47l21-1c15 0 35-5 34-24Zm175 37a243 243 0 0 1-42 9c-34 5-63-7-61-46V376a6 6 0 0 1 5-5l33-4a4 4 0 0 1 5 4v131c0 13 4 17 16 15l44-6a4 4 0 0 1 5 4v24c0 3-2 5-5 6Zm171-26-36 6a4 4 0 0 1-5-4l-9-40-52 8-9 43a7 7 0 0 1-5 6l-36 5c-2 0-4-1-4-3a12 12 0 0 0 0-2l38-163c5-21 22-31 42-34 18-3 38 0 42 21l38 151a10 10 0 0 0 0 1 5 5 0 0 1-4 5Zm-72-139c-1-3-1-4-4-3s-3 1-3 4l-16 72 38-6-15-67Zm202 119c-12 5-25 7-38 9-48 7-73-24-75-70v-32c1-47 29-85 75-91 13-1 26-3 38 0 4 0 6 1 6 4v25c0 3-2 5-5 6h-1l-37 2c-24 4-32 26-32 48v32c1 20 7 42 32 38l37-7h1c3 0 5 2 5 5v24c0 4-2 5-6 7Zm180-192-60 87 60 90a5 5 0 0 1 1 3c0 1-1 2-3 2l-44 1c-3 0-4-1-5-3l-52-81v82a6 6 0 0 1-5 6l-33 3a5 5 0 0 1-5-5V314a6 6 0 0 1 5-6l33-3a4 4 0 0 1 5 5v80l56-85a6 6 0 0 1 5-3l39-1c3 0 4 1 4 3a7 7 0 0 1-1 3Z" transform="translate(-151 -301)"/><path d="m250 632-45 3c-11 0-14 4-14 17v23l57-3c3 0 5 2 5 5v24c0 3-2 5-5 5l-57 3v74c0 3-2 5-5 6h-29c-2 0-4-2-4-5V653c-1-36 20-54 54-55a310 310 0 0 1 43 0c3 1 5 2 5 5v24c0 2-2 5-5 5Zm157 136-34 4c-2 1-3-2-4-4l-30-61-2 1-16 1v65c0 2-2 5-5 5l-29 3c-2 0-4-2-4-4V608c0-9 3-12 10-14 14-4 30-6 45-8 36-4 68 10 67 51v3c0 22-9 43-29 55l34 66a7 7 0 0 1 1 3c0 2-1 3-4 4Zm-40-126c1-17-16-21-29-19l-17 3v48l16-1c16-2 31-9 30-28Zm101 116-30 5c-2 0-4-2-4-5V580c0-3 2-5 4-5l30-5c3 0 4 1 4 4v179c0 2-1 5-4 5Zm89-12c-15 3-31 4-47 4-4 0-6-2-6-8V575c0-6 2-9 6-10 15-5 32-9 47-11 47-9 72 24 71 69v32c1 46-24 84-71 91Zm33-118c1-22-8-42-33-38l-15 3v119l15-2c25-4 34-25 33-49Zm187 86-31 3c-2 1-4-1-4-4l-8-40-46 5-8 43c0 3-2 5-4 5l-32 5c-2 0-3-1-3-4a13 13 0 0 0 0-1l33-162c4-20 18-30 37-33 17-2 33 5 37 24l33 154a12 12 0 0 0 0 1 4 4 0 0 1-4 4Zm-63-143c-1-3-1-4-3-4s-3 2-3 4l-14 72 33-4-13-68Zm194-46-34 88c-5 12-9 18-15 20v71c0 3-2 5-4 5l-29 2c-3 0-5-2-5-5v-71c-5-2-10-7-14-18l-34-85a5 5 0 0 1 0-2 4 4 0 0 1 3-4l32-2c3-1 4 1 5 4l24 69c1 4 2 4 3 4l4-4 24-72c0-3 2-5 4-5h32a4 4 0 0 1 4 4 5 5 0 0 1 0 1Z" class="cls-3" transform="translate(-151 -301)"/><path d="m251 630-45 3c-11 0-14 4-14 17v23l57-3c3 0 5 2 5 5v24c0 3-2 5-5 5l-57 3v74c0 3-2 5-5 6h-29c-2 0-4-2-4-5V651c-1-36 20-54 54-55a310 310 0 0 1 43 0c3 1 5 2 5 5v24c0 2-2 5-5 5Zm157 136-34 4c-2 1-3-2-4-4l-30-61-2 1-16 1v65c0 2-2 5-5 5l-29 3c-2 0-4-2-4-4V606c0-9 3-12 10-14 14-4 30-6 45-8 36-4 68 10 67 51v3c0 22-9 43-29 55l34 66a7 7 0 0 1 1 3c0 2-1 3-4 4Zm-40-126c1-17-16-21-29-19l-17 3v48l16-1c16-2 31-9 30-28Zm101 116-30 5c-2 0-4-2-4-5V578c0-3 2-5 4-5l30-5c3 0 4 1 4 4v179c0 2-1 5-4 5Zm89-12c-15 3-31 4-47 4-4 0-6-2-6-8V573c0-6 2-9 6-10 15-5 32-9 47-11 47-9 72 24 71 69v32c1 46-24 84-71 91Zm33-118c1-22-8-42-33-38l-15 3v119l15-2c25-4 34-25 33-49Zm187 86-31 3c-2 1-4-1-4-4l-8-40-46 5-8 43c0 3-2 5-4 5l-32 5c-2 0-3-1-3-4a13 13 0 0 0 0-1l33-162c4-20 18-30 37-33 17-2 33 5 37 24l33 154a12 12 0 0 0 0 1 4 4 0 0 1-4 4Zm-63-143c-1-3-1-4-3-4s-3 2-3 4l-14 72 33-4-13-68Zm194-46-34 88c-5 12-9 18-15 20v71c0 3-2 5-4 5l-29 2c-3 0-5-2-5-5v-71c-5-2-10-7-14-18l-34-85a5 5 0 0 1 0-2 4 4 0 0 1 3-4l32-2c3-1 4 1 5 4l24 69c1 4 2 4 3 4l4-4 24-72c0-3 2-5 4-5h32a4 4 0 0 1 4 4 5 5 0 0 1 0 1Z" class="cls-3" transform="translate(-151 -301)"/><path d="m252 628-45 3c-11 0-14 4-14 17v23l57-3c3 0 5 2 5 5v24c0 3-2 5-5 5l-57 3v74c0 3-2 5-5 6h-29c-2 0-4-2-4-5V649c-1-36 20-54 54-55a310 310 0 0 1 43 0c3 1 5 2 5 5v24c0 2-2 5-5 5Zm157 136-34 4c-2 1-3-2-4-4l-30-61-2 1-16 1v65c0 2-2 5-5 5l-29 3c-2 0-4-2-4-4V604c0-9 3-12 10-14 14-4 30-6 45-8 36-4 68 10 67 51v3c0 22-9 43-29 55l34 66a7 7 0 0 1 1 3c0 2-1 3-4 4Zm-40-126c1-17-16-21-29-19l-17 3v48l16-1c16-2 31-9 30-28Zm101 116-30 5c-2 0-4-2-4-5V576c0-3 2-5 4-5l30-5c3 0 4 1 4 4v179c0 2-1 5-4 5Zm89-12c-15 3-31 4-47 4-4 0-6-2-6-8V571c0-6 2-9 6-10 15-5 32-9 47-11 47-9 72 24 71 69v32c1 46-24 84-71 91Zm33-118c1-22-8-42-33-38l-15 3v119l15-2c25-4 34-25 33-49Zm187 86-31 3c-2 1-4-1-4-4l-8-40-46 5-8 43c0 3-2 5-4 5l-32 5c-2 0-3-1-3-4a13 13 0 0 0 0-1l33-162c4-20 18-30 37-33 17-2 33 5 37 24l33 154a12 12 0 0 0 0 1 4 4 0 0 1-4 4Zm-63-143c-1-3-1-4-3-4s-3 2-3 4l-14 72 33-4-13-68Zm194-46-34 88c-5 12-9 18-15 20v71c0 3-2 5-4 5l-29 2c-3 0-5-2-5-5v-71c-5-2-10-7-14-18l-34-85a5 5 0 0 1 0-2 4 4 0 0 1 3-4l32-2c3-1 4 1 5 4l24 69c1 4 2 4 3 4l4-4 24-72c0-3 2-5 4-5h32a4 4 0 0 1 4 4 5 5 0 0 1 0 1Z" class="cls-3" transform="translate(-151 -301)"/><path d="m253 626-45 3c-11 0-14 4-14 17v23l57-3c3 0 5 2 5 5v24c0 3-2 5-5 5l-57 3v74c0 3-2 5-5 6h-29c-2 0-4-2-4-5V647c-1-36 20-54 54-55a310 310 0 0 1 43 0c3 1 5 2 5 5v24c0 2-2 5-5 5Zm157 136-34 4c-2 1-3-2-4-4l-30-61-2 1-16 1v65c0 2-2 5-5 5l-29 3c-2 0-4-2-4-4V602c0-9 3-12 10-14 14-4 30-6 45-8 36-4 68 10 67 51v3c0 22-9 43-29 55l34 66a7 7 0 0 1 1 3c0 2-1 3-4 4Zm-40-126c1-17-16-21-29-19l-17 3v48l16-1c16-2 31-9 30-28Zm101 116-30 5c-2 0-4-2-4-5V574c0-3 2-5 4-5l30-5c3 0 4 1 4 4v179c0 2-1 5-4 5Zm89-12c-15 3-31 4-47 4-4 0-6-2-6-8V569c0-6 2-9 6-10 15-5 32-9 47-11 47-9 72 24 71 69v32c1 46-24 84-71 91Zm33-118c1-22-8-42-33-38l-15 3v119l15-2c25-4 34-25 33-49Zm187 86-31 3c-2 1-4-1-4-4l-8-40-46 5-8 43c0 3-2 5-4 5l-32 5c-2 0-3-1-3-4a13 13 0 0 0 0-1l33-162c4-20 18-30 37-33 17-2 33 5 37 24l33 154a12 12 0 0 0 0 1 4 4 0 0 1-4 4Zm-63-143c-1-3-1-4-3-4s-3 2-3 4l-14 72 33-4-13-68Zm194-46-34 88c-5 12-9 18-15 20v71c0 3-2 5-4 5l-29 2c-3 0-5-2-5-5v-71c-5-2-10-7-14-18l-34-85a5 5 0 0 1 0-2 4 4 0 0 1 3-4l32-2c3-1 4 1 5 4l24 69c1 4 2 4 3 4l4-4 24-72c0-3 2-5 4-5h32a4 4 0 0 1 4 4 5 5 0 0 1 0 1Z" class="cls-3" transform="translate(-151 -301)"/><path d="m254 624-45 3c-11 0-14 4-14 17v23l57-3c3 0 5 2 5 5v24c0 3-2 5-5 5l-57 3v74c0 3-2 5-5 6h-29c-2 0-4-2-4-5V645c-1-36 20-54 54-55a310 310 0 0 1 43 0c3 1 5 2 5 5v24c0 2-2 5-5 5Zm157 136-34 4c-2 1-3-2-4-4l-30-61-2 1-16 1v65c0 2-2 5-5 5l-29 3c-2 0-4-2-4-4V600c0-9 3-12 10-14 14-4 30-6 45-8 36-4 68 10 67 51v3c0 22-9 43-29 55l34 66a7 7 0 0 1 1 3c0 2-1 3-4 4Zm-40-126c1-17-16-21-29-19l-17 3v48l16-1c16-2 31-9 30-28Zm101 116-30 5c-2 0-4-2-4-5V572c0-3 2-5 4-5l30-5c3 0 4 1 4 4v179c0 2-1 5-4 5Zm89-12c-15 3-31 4-47 4-4 0-6-2-6-8V567c0-6 2-9 6-10 15-5 32-9 47-11 47-9 72 24 71 69v32c1 46-24 84-71 91Zm33-118c1-22-8-42-33-38l-15 3v119l15-2c25-4 34-25 33-49Zm187 86-31 3c-2 1-4-1-4-4l-8-40-46 5-8 43c0 3-2 5-4 5l-32 5c-2 0-3-1-3-4a13 13 0 0 0 0-1l33-162c4-20 18-30 37-33 17-2 33 5 37 24l33 154a12 12 0 0 0 0 1 4 4 0 0 1-4 4Zm-63-143c-1-3-1-4-3-4s-3 2-3 4l-14 72 33-4-13-68Zm194-46-34 88c-5 12-9 18-15 20v71c0 3-2 5-4 5l-29 2c-3 0-5-2-5-5v-71c-5-2-10-7-14-18l-34-85a5 5 0 0 1 0-2 4 4 0 0 1 3-4l32-2c3-1 4 1 5 4l24 69c1 4 2 4 3 4l4-4 24-72c0-3 2-5 4-5h32a4 4 0 0 1 4 4 5 5 0 0 1 0 1Z" class="cls-3" transform="translate(-151 -301)"/><path fill="#5f00ff" d="m255 623-45 3c-11 0-15 4-15 17v23l58-3c2 0 4 2 4 5v24c0 3-2 5-4 5l-58 3v74c0 3-2 5-4 6h-29c-3 0-5-2-5-5V644c-1-36 21-54 55-55a310 310 0 0 1 43 0c3 1 4 2 4 5v24c0 2-2 5-4 5Zm157 136-34 4c-3 1-3-2-5-4l-29-61-3 1-16 1v65c0 2-2 5-4 5l-29 3c-2 0-4-2-4-4V599c0-9 3-12 10-14 14-4 30-6 45-8 36-4 67 10 67 51v3c0 22-10 43-29 55l34 66a7 7 0 0 1 0 3c0 2-1 3-3 4Zm-40-126c1-17-16-21-29-19l-18 3v48l16-1c17-2 31-9 31-28Zm101 116-30 5c-2 0-4-2-4-5V571c0-3 2-5 4-5l30-5c2 0 4 1 4 4v179c0 2-2 5-4 5Zm89-12c-15 3-31 4-47 4-5 0-7-2-7-8V566c0-6 2-9 7-10 15-5 31-9 47-11 47-9 71 24 71 69v32c0 46-24 84-71 91Zm33-118c1-22-8-42-33-38l-16 3v119l16-2c25-4 34-25 33-49Zm187 86-31 3c-3 1-4-1-5-4l-8-40-45 5-8 43c-1 3-3 5-5 5l-31 5c-2 0-4-1-4-4a13 13 0 0 0 0-1l34-162c3-20 18-30 37-33 17-2 33 5 36 24l33 154a12 12 0 0 0 1 1 4 4 0 0 1-4 4Zm-64-144c0-2 0-3-2-3s-3 2-4 4l-13 72 33-4Zm194-45-33 88c-5 12-10 18-15 20v71c0 3-2 5-4 5l-30 2c-2 0-4-2-4-5v-71c-5-2-10-7-15-18l-33-85a5 5 0 0 1-1-2 4 4 0 0 1 4-4l32-2c2-1 4 1 5 4l24 69c1 4 1 4 3 4s2-1 3-4l24-72c1-3 2-5 5-5h32a4 4 0 0 1 3 4 5 5 0 0 1 0 1Z" transform="translate(-151 -301)"/></svg>