<svg xmlns="http://www.w3.org/2000/svg" xmlns:xlink="http://www.w3.org/1999/xlink" viewBox="0 0 5000 5000"><defs><linearGradient id="Degradado_sin_nombre_10" x1="2386.3" x2="2539.4" y1="306.6" y2="306.6" gradientUnits="userSpaceOnUse"><stop offset="0" stop-color="#e30613"/><stop offset="1" stop-color="#790613"/></linearGradient><linearGradient id="Degradado_sin_nombre_47" x1="2386.3" x2="2539.4" y1="421.8" y2="421.8" gradientUnits="userSpaceOnUse"><stop offset="0" stop-color="#790613"/><stop offset="1" stop-color="#e30613"/></linearGradient><linearGradient xlink:href="#Degradado_sin_nombre_10" id="Degradado_sin_nombre_10-2" x1="2386.3" x2="2539.4" y1="529.5" y2="529.5"/><linearGradient xlink:href="#Degradado_sin_nombre_10" id="Degradado_sin_nombre_10-3" x1="302.9" x2="4697.1" y1="2673.3" y2="2673.3"/><linearGradient id="Degradado_sin_nombre_41" x1="726.5" x2="4697.1" y1="2552.8" y2="2552.8" gradientUnits="userSpaceOnUse"><stop offset="0" stop-color="#f10613"/><stop offset="1" stop-color="#790613"/></linearGradient><linearGradient id="Degradado_sin_nombre_104" x1="1052.8" x2="2294" y1="4432.1" y2="4432.1" gradientUnits="userSpaceOnUse"><stop offset="0" stop-color="#26ff15"/><stop offset="1" stop-color="#0f9400"/></linearGradient><linearGradient xlink:href="#Degradado_sin_nombre_104" id="Degradado_sin_nombre_104-2" x1="777" x2="1747.2" y1="4162.4" y2="4162.4"/><linearGradient xlink:href="#Degradado_sin_nombre_104" id="Degradado_sin_nombre_104-3" x1="942.2" x2="1264.7" y1="1057.8" y2="1057.8"/><linearGradient xlink:href="#Degradado_sin_nombre_104" id="Degradado_sin_nombre_104-4" x1="721.5" x2="1083.9" y1="1306.9" y2="1306.9"/><style>.cls-8{fill:#00e000}</style></defs><path id="Capa_4" fill="#840404" d="M2386-463h153v1505h-153z" data-name="Capa 4"/><g id="Capa_5" data-name="Capa 5"><path fill="url(#Degradado_sin_nombre_10)" d="M2539 11v591a309 309 0 0 1-153 3V8a309 309 0 0 1 153 3Z"/><path fill="url(#Degradado_sin_nombre_47)" d="M2463 115a308 308 0 0 1 76 10v594a309 309 0 0 1-153 0V125a308 308 0 0 1 77-10Z"/><path fill="url(#Degradado_sin_nombre_10-2)" d="M2539 234v591a309 309 0 0 1-153 3V231a309 309 0 0 1 153 3Z"/></g><g id="Capa_2" data-name="Capa 2"><path fill="url(#Degradado_sin_nombre_10-3)" d="M4697 2673v41l-1 17v19l-1 7v15l-1 10-1 18v14l-1 6v5l-1 7v9l-1 7-1 16-1 13v1l-1 11-1 3v8l-2 14-1 9-3 22-2 20-1 8-1 7-2 13-2 11v4l-1 4-2 11v5l-2 10v2l-2 8-1 8-2 9v3l-4 20-1 6-2 11-1 3-2 13-1 4-3 11-4 21-4 14-1 8-3 10-2 11-1 1-2 10-8 32-2 4v2l-1 2-6 23-2 8-3 8-2 8-2 8-2 6-6 19-2 6-4 14-2 4-11 33-2 7-3 8-2 7-8 21-2 6-2 6-3 7-14 36-2 6-3 5-2 7-14 33-3 6-4 9-5 12-8 17-2 6-13 28-6 12-6 13-6 11v1l-6 12-3 5-7 14-4 7-3 7-14 25-7 13-8 15-5 8-6 11-1 2-6 9-1 3-5 8-2 4-7 10-6 11-6 9-13 21-5 8-6 9-6 10-19 28-6 9-6 9-6 8-20 29-6 9h-1l-6 9-14 18-6 9-7 9-7 9-7 9-7 9-6 7v1l-7 7-3 5h-1l-8 10-4 5-7 9-2 2-8 9-4 5-14 17-3 3-8 9-8 10-6 6-5 6-3 3-3 3-4 4-28 30-5 6-6 5q-18 20-38 39l-6 7-44 41-7 7-5 4-6 6-7 5-5 6-7 6-9 7-8 7-7 7-6 5-7 5-3 3-3 3-7 5-6 5-6 6-7 5-2 1-10 9h-1l-4 4-5 4-8 6-8 6-10 8-7 5-4 4-8 6-5 3-4 4-19 13a2185 2185 0 0 1-1139 414q-75 5-152 5-61 0-120-3c-461-25-883-191-1225-457 356 74 739 118 1139 128q-101-31-198-70c-366-20-716-68-1043-142a2210 2210 0 0 1-209-209c283 77 586 135 903 171q-56-36-111-75c-302-40-590-99-859-176a2188 2188 0 0 1-474-1364c0-482 155-928 419-1290q154-44 317-81l45-72q-155 34-302 74a2209 2209 0 0 1 160-180q128-32 261-59l62-74q-120 23-236 50a2188 2188 0 0 1 1350-561l7-1q57-3 114-3l39 1q57 1 112 4l10 1h2l5 1h9l4 1h2a1097 1097 0 0 1 19 2h4a1088 1088 0 0 1 20 2h5l4 1h7l1 1h4l11 1 13 2 12 1 2 1 9 1h2l5 1 10 1 27 4h2l1 1 6 1h5l11 2 13 2 9 2 7 1 10 2 11 2 12 2 3 1 9 2 6 1h1a221 221 0 0 1 5 1l7 2h3l9 2 9 2 4 1 22 5 11 3 12 3a1015 1015 0 0 1 12 3 5 5 0 0 1 1 0l5 1 14 4 4 1h1l6 2h1l8 2 3 1 12 3 10 3 6 2 3 1 7 2 9 3 6 1 6 2 4 1 2 1 6 2 6 2 5 1 1 1 6 2 45 15 5 1 9 3 9 4 7 2 4 2 7 2 10 4 7 2 3 2 6 2 41 16 3 1 7 3 7 3 6 2 11 5 6 3 8 3 2 1 7 3 2 1 4 1 4 2 7 3 1 1 8 3 11 5 6 3 5 3 5 2 6 3 7 3 1 1h2v1h1l13 6 3 2 7 3 5 3 7 3 4 2 42 22 3 2 6 3 2 1 5 3 5 2 6 4 12 6 11 6 6 4 6 3 12 7 13 8 6 3 6 4 6 4h1l4 3 8 5 9 5 6 4 3 2 2 1 9 5 3 3 7 4h1l4 3 2 1 7 5 7 5 7 5 7 4a3 3 0 0 1 1 1l2 1 1 1 7 4 2 2 4 3 4 3a208 208 0 0 1 4 2l3 2 5 4 7 4 1 1 4 3 5 3 9 7 18 13 9 7 5 3 4 3 5 4 3 2 2 2 6 4 16 13 4 3 10 7 3 3a6 6 0 0 1 1 1l4 3 18 14 4 4 4 4 18 14 8 7 2 1 6 6 3 2a6 6 0 0 1 0 1l6 5 2 2 8 6 12 11 6 6 6 5 9 8 4 4 6 5 14 14 12 10 2 3 4 3 7 7 6 7 14 13 6 6 7 7 4 5 6 6 3 3 10 10 8 9 7 7 16 17 7 8 10 11 6 6 1 2 3 3 7 8 8 9 28 34 5 6 1 1 7 8 6 8 3 3 31 39 4 5v1l4 5v1l6 7 8 11 5 6 4 6 11 15 3 4 1 1 5 8 4 5 11 16 13 19 2 2 2 4 6 8 11 17 5 9 3 4 2 3 1 1a509 509 0 0 1 3 6l2 3 11 17 4 7 2 3 4 7 6 9v1l4 6v1l3 4 9 16 4 7 5 9 2 4 4 5 4 8 4 6a1 1 0 0 1 0 1v1l8 14 3 5 4 9 5 8v1l4 7v1l1 2a2 2 0 0 1 1 0l4 8 4 9 5 9 3 7 2 3 2 4 3 7 1 1 2 5 12 24 2 5 8 16 3 8 5 12 3 5 4 10a265 265 0 0 1 2 5l4 8 4 9 5 13 4 10 4 9v1l2 4 3 9 1 1a1148 1148 0 0 1 9 22l1 5 2 5 2 5v1l4 10 1 1 4 11 3 9 4 13 2 5 3 7 5 15 3 10 2 4a2 2 0 0 1 0 1l3 9a1 1 0 0 0 0 1l4 12 3 10 1 3 3 11 1 1 3 12a1774 1774 0 0 1 10 34l1 5 13 46 1 4 2 8 1 5 2 9 1 3 3 12 2 10 3 15 3 12v1l3 13 2 12 1 2 2 12 1 6 2 11 1 5 1 5 1 5 1 6 1 7 1 6 6 34 1 5 1 8 2 11v4l2 17 1 7 1 3v4l1 8 2 17 1 6 1 6v3l1 9v4l2 18v2l2 14v7l2 15v10l1 11a409 409 0 0 1 1 7v15l1 10v5l1 15v14l1 4v12l1 19v49Z"/><path fill="url(#Degradado_sin_nombre_41)" d="M4697 2673v41l-1 17v19l-1 7v15l-1 10-1 18v14l-1 6v5l-1 7v9l-1 7-1 16-1 13v1l-1 11-1 3v8l-2 14-1 9-3 22-2 20-1 8-1 7-2 13-2 11v4l-1 4-2 11v5l-2 10v2l-2 8-1 8-2 9v3l-4 20-1 6-2 11-1 3-2 13-1 4-3 11-4 21-4 14-1 8-3 10-2 11-1 1-2 10-8 32-2 4v2l-1 2-6 23-2 8-3 8-2 8-2 8-2 6-6 19-2 6-4 14-2 4-11 33-2 7-3 8-2 7-8 21-2 6-2 6-3 7-14 36-2 6-3 5-2 7-14 33-3 6-4 9-5 12-8 17-2 6-13 28-6 12-6 13-6 11v1l-6 12-3 5-7 14-4 7-3 7-14 25-7 13-8 15-5 8-6 11-1 2-6 9-1 3-5 8-2 4-7 10-6 11-6 9-13 21-5 8-6 9-6 10-19 28-6 9-6 9-6 8-20 29-6 9h-1l-6 9-14 18-6 9-7 9-7 9-7 9-7 9-6 7v1l-7 7-3 5h-1l-8 10-4 5-7 9-2 2-8 9-4 5-14 17-3 3-8 9-8 10-6 6-5 6-3 3-3 3-4 4-28 30-5 6-6 5q-18 20-38 39l-6 7-44 41-7 7-5 4-6 6-7 5-5 6-7 6-9 7-8 7-7 7-6 5-7 5-3 3-3 3-7 5-6 5-6 6-7 5-2 1-10 9h-1l-4 4-5 4-8 6-8 6-10 8-7 5-4 4-8 6-5 3-4 4-19 13a2185 2185 0 0 1-716 173q-75 5-151 5-61 0-121-3a2191 2191 0 0 1-509-88q-101-30-198-70a2188 2188 0 0 1-349-180q-57-36-111-75a2194 2194 0 0 1-597-2911l45-71q56-86 119-166 30-37 62-73a2210 2210 0 0 1 368-338 2186 2186 0 0 1 746-174l7-1q57-3 114-3l39 1q57 1 112 4l10 1h1l6 1h9l4 1h2a1097 1097 0 0 1 19 1l4 1a1088 1088 0 0 1 20 2h5l4 1h7l1 1h4l11 1 13 2 12 1 2 1 9 1h2l4 1 10 1 28 4h2l6 1h1l3 1h2l11 2 13 2 9 2 6 1h1l10 2 11 2 12 2 3 1 9 2 6 1h1a221 221 0 0 1 5 1l7 2h3l9 2 9 2 4 1 22 5 11 3 12 3a1015 1015 0 0 1 12 3 5 5 0 0 1 1 0l5 1 14 4 4 1h1l6 2h1l7 2 3 1 12 3 11 3 6 2 3 1 7 2 9 2 6 2 6 2 4 1 2 1 6 2 6 2 5 1h1l6 2 45 15 5 2 9 3 9 3 7 3 4 2 7 2 10 4 7 2 3 1 6 3 41 16 3 1 7 3 7 3 6 2 11 5 6 2 8 4 2 1 6 3 3 1 4 1 4 2 7 3 1 1 8 3 11 5 6 3 5 3 5 2 6 3 7 3 1 1h2l1 1 13 6 3 2 7 3 5 2 6 4 5 2 42 22 3 2 6 3 2 1 5 3 5 2 6 4 12 6 11 6 6 4 6 3 12 7 13 8 6 3 6 4 6 4h1l4 2 8 6 9 5 6 4 3 2 1 1 10 5 3 3 7 4 5 3 2 1 7 5 7 5 7 4 7 5a3 3 0 0 1 1 0l2 2h1l6 5 3 2 4 3 4 3a208 208 0 0 1 4 2l3 2 5 4 7 4 1 1 4 3 5 3 9 7 18 13 9 7 5 3 4 3 5 4 3 2 2 2 6 4 16 13 4 3 10 7 3 3a6 6 0 0 1 1 1l4 3 18 14 4 4 4 4 18 14 8 7 2 1 6 6 3 2a6 6 0 0 1 0 1l6 5 2 2 8 6 12 11 6 6 6 5 9 8 4 4 6 5 14 14 12 10 2 3 4 3 7 7 6 7 14 13 6 6 7 7 4 5 6 6 3 3 10 10 8 9 7 7 16 17 7 8 10 11 6 6 1 2 3 3 7 8 8 9 28 34 5 6 1 1 7 8 6 8 3 3 31 39 4 5v1l4 5v1l6 7 8 11 5 6 4 6 11 15 3 4 1 1 5 8 4 5 11 16 13 19 2 2 2 4 6 8 11 17 5 9 3 4 2 3 1 1a509 509 0 0 1 3 6l2 3 11 17 4 7 2 3 4 7 6 9v1l4 6v1l3 4 9 16 4 7 5 9 2 4 4 5 4 8 4 6a1 1 0 0 1 0 1v1l8 14 3 5 4 9 5 8v1l4 7v1l1 2a2 2 0 0 1 1 0l4 8 4 9 5 9 3 7 2 3 2 4 3 7 1 1 2 5 12 24 2 5 8 16 3 8 5 12 3 5 4 10a265 265 0 0 1 2 5l4 8 4 9 5 13 4 10 4 9v1l2 4 3 9 1 1a1148 1148 0 0 1 9 22l1 5 2 5 2 5v1l4 10 1 1 4 11 3 9 4 13 2 5 3 7 5 15 3 10 2 4a2 2 0 0 1 0 1l3 9a1 1 0 0 0 0 1l4 12 3 10 1 3 3 11 1 1 3 12a1774 1774 0 0 1 10 34l1 5 13 46 1 4 2 8 1 5 2 9 1 3 3 12 2 10 3 15 3 12v1l3 13 2 12 1 2 2 12 1 6 2 11 1 5 1 5 1 5 1 6 1 7 1 6 6 34 1 5 1 8 2 11v4l2 17 1 7 1 3v4l1 8 2 17 1 6 1 6v3l1 9v4l2 18v2l2 14v7l1 15 1 10 1 11a409 409 0 0 1 1 7v15l1 10v5l1 15v14l1 4v12l1 19v49Z"/></g><g id="Capa_6" data-name="Capa 6"><path fill="url(#Degradado_sin_nombre_104)" d="M2294 4538c-400-10-783-54-1140-128q-52-40-101-83c327 73 677 122 1043 141q97 39 198 70Z"/><path d="m3974 4303-7 6-6 5-6 6-9 8-8 6-8 7-5 5-7 6-3 2-3 3-7 5-6 5-6 6-7 5-2 2-10 8c-435 98-912 152-1411 152q-85 0-169-2-101-30-198-70 181 10 367 10c538 0 1049-63 1511-175Z" class="cls-8"/><path fill="url(#Degradado_sin_nombre_104-2)" d="M1747 4288c-318-36-621-94-903-171q-34-39-67-80c269 77 557 136 859 176q54 39 111 75Z"/><path d="m4223 4037-6 7v1l-7 7-3 5h-1l-8 10-4 5-7 9-2 3-8 9-4 4-14 17-3 3a6334 6334 0 0 1-1656 213c-258 0-510-15-753-42q-57-36-111-75c277 36 567 55 864 55 622 0 1209-84 1723-231Z" class="cls-8"/><path fill="url(#Degradado_sin_nombre_104-3)" d="M1265 992q-32 36-62 73-133 27-261 59 43-43 87-83 116-27 236-49Z"/><path d="M4070 1137a6349 6349 0 0 0-1531-195h-58l-95 1c-415 5-813 48-1183 122q30-37 62-73c352-67 729-106 1121-111l95-1h58c514 5 1002 66 1445 173l4 4 6 5 14 14 12 11 2 2 4 4 7 6 6 7 14 13 6 6 7 7 4 5Z" class="cls-8"/><path fill="url(#Degradado_sin_nombre_104-4)" d="m1084 1231-45 71q-163 37-317 81 29-40 60-79 147-40 302-73Z"/><path d="M4309 1426a6204 6204 0 0 0-1865-274c-497 0-972 53-1405 150l45-72c421-90 880-140 1360-140a6242 6242 0 0 1 1807 257l6 7 8 11 5 6 4 6 11 15 3 4 1 1 5 8 4 5 11 16Z" class="cls-8"/></g><path id="Capa_3" fill="#fff" d="M357 2448c0-95 36-184 96-258 62-75 146-132 242-150 89-17 177 0 242 66 72 73 97 174 98 272 1 104-27 210-95 290a312 312 0 0 1-243 112c-91 0-178-33-244-98-64-63-95-145-96-234Zm172-21c0 50 14 100 48 139a153 153 0 0 0 240-14c33-45 46-102 45-157 0-53-12-108-48-149-31-35-74-50-120-43-49 8-90 36-119 75-32 44-46 96-46 149Zm568 335-6-775q245-37 491-61l1 188q-160 13-320 29l1 143q147-12 293-21l2 188-293 13 2 296h-171Zm546-1-5-840q250-23 501-33l1 197q-165 5-329 14l1 134q151-7 303-10v196l-302 7v142l328-5 1 197-499 1Zm1003-346 151 345h-199l-124-300h-96v300h-169l-2-874q157-5 313-5c72 2 144 20 194 75 51 56 67 135 66 208 0 53-8 108-34 156-22 42-57 75-100 95Zm-39-245c0-23-5-50-22-67s-43-23-67-23h-141l1 185 140-1c25-1 49-5 66-24s23-45 23-70Zm422-71-212-8 1-204q298 10 596 40l-2 195q-105-8-211-14l-3 652h-171l2-661Zm521 516-46 146h-174q130-409 268-814l186 24c83 265 168 529 258 792l-180-1-43-140-269-7Zm137-431-80 249 157 8-77-257Zm781 383a48 48 0 0 0-26-42c-29-16-66-22-98-28-72-14-154-33-209-83-47-42-60-108-59-166 0-64 22-128 76-166 58-42 135-42 202-28a452 452 0 0 1 139 55c45 27 86 61 123 99q-44 55-85 110c-28-26-58-50-91-69-29-17-61-31-94-36-25-4-53-7-77 3-16 6-28 21-28 38 0 18 11 35 27 44 31 18 68 26 103 34 69 16 147 38 202 87 42 37 60 92 60 147 0 61-29 115-77 152-59 45-135 60-207 60a424 424 0 0 1-305-123l84-142c35 31 73 58 114 77 36 16 75 26 115 28 27 1 57 0 82-11 16-7 29-22 29-40ZM721 3125l-1 281-113-30v-446l121 7c67 102 131 206 193 313l2-304 115 5-4 527-120-26c-62-111-125-220-193-327Zm488 288-32 93-121-24q98-260 188-522l130 4q93 300 179 601l-125-17-31-108-188-27Zm97-292-56 172 109 12-53-184Zm363 459q-88-307-179-612l128 4 120 432q64-213 125-427l125 2q-91 308-188 615l-131-14Zm344 32 3-632 120 1-3 638-120-7Zm179 10 2-640 180 1c73 0 141 29 187 86 52 67 68 154 68 236s-18 168-71 235c-45 58-113 90-186 88l-180-6Zm315-315c0-43-8-90-36-126-23-30-59-47-98-47h-59l-1 341 60 2c38 1 74-15 98-45 28-35 36-82 36-125Zm164 321-1-645 350-3v143l-230 4v101q107-2 213-6l1 143-213 8v106q116-3 231-10l1 143q-176 12-352 16Zm513-401 2 372-116 9-3-629 121-2q97 180 199 358l-3-362 115-4 5 594-121 15q-102-174-199-351Zm162-417 62 12c-3 32-6 67-22 94-10 17-26 32-48 32a52 52 0 0 1-21-4c-11-5-21-11-30-17-10-7-19-11-24-14s-11-4-16-4-9 3-12 9c-5 10-7 22-9 33l-63-12c3-32 6-69 22-97 11-17 25-32 48-32a51 51 0 0 1 21 5c11 5 21 12 31 18a265 265 0 0 0 24 14q8 4 15 4c6 0 10-3 13-9 5-10 7-21 9-32Zm333 625-30 107-122 18q87-299 178-597l131-5q90 259 188 516l-125 25-32-92-188 28Zm91-316-53 182 110-13-57-169Zm548 149c1-12-6-22-18-25-21-6-46-3-68-2-47 2-106 4-147-24-34-23-42-68-42-106-1-48 16-94 51-127 39-37 91-51 142-53a283 283 0 0 1 185 58l-60 94c-20-14-41-25-63-32-21-7-44-11-67-8-18 2-38 5-54 15-10 7-19 18-19 31a27 27 0 0 0 19 27c23 7 49 5 73 5 45 0 100 0 141 24 32 19 41 57 42 92 1 45-21 87-53 120-39 41-90 66-143 79a234 234 0 0 1-213-37l57-112c26 17 52 29 81 35a198 198 0 0 0 80 1c19-4 40-10 57-22 11-8 19-19 19-33Z" data-name="Capa 3"/></svg>