<svg xmlns="http://www.w3.org/2000/svg" id="Capa_1" data-name="Capa 1" viewBox="0 0 1018 342"><defs><style>.cls-1{fill:#fcfcfc;stroke:#3aaa35;stroke-miterlimit:10;stroke-width:6px}.cls-2{fill:#008d36}</style></defs><path d="M147 468c0-18 8-38 22-50 14-13 35-18 55-18 19 1 40 9 54 22 14 14 22 33 22 53s-8 39-22 52a77 77 0 0 1-55 19c-20-1-41-9-55-24a80 80 0 0 1-21-54Zm39 3c0 10 4 22 10 30 6 7 19 12 28 13 8 0 21-4 27-11 6-6 11-19 10-29s-3-21-11-29c-6-7-18-12-27-13-8 0-21 4-27 10-6 7-11 20-10 29Zm127 74V405l111-1v31l-72 2v24l66-1v32l-66 1v51l-39 1Zm124-2V403l112-4v31l-74 3v22l68-3v32l-68 3v23l74-3v31l-112 5Zm226-64 34 53-45 2-28-47-22 1v48l-38 2V398l70-3c15 0 32 1 44 10a44 44 0 0 1 7 58c-5 7-14 13-22 16Zm-9-39c0-4-2-8-5-10s-8-4-15-3l-32 1v29l32-1q10 0 15-4a14 14 0 0 0 5-12Zm95-16-48 2v-33c45-1 89-2 134-1v32h-48v107h-38Zm117 82-10 25h-39l59-139 42 2 59 143-40-3-10-25-61-3Zm31-74-18 43 35 2-17-45Z" class="cls-1" transform="translate(-35 -384)"/><path d="M147 468c0-19 8-38 22-51s36-18 55-18c20 1 40 9 55 23 14 13 21 33 21 52s-7 39-21 52a77 77 0 0 1-55 19c-20-1-41-9-55-24a80 80 0 0 1-22-53Zm39 2c0 11 4 22 11 30 6 7 18 13 27 13s21-4 27-10c6-7 11-20 10-29 0-11-3-22-10-30-6-7-19-12-27-13-9 0-21 4-27 11-7 6-11 19-11 28Zm128 74V404l110-1v31l-72 2v25l66-2v32l-66 1v52h-38Zm123-2V402l112-4v32l-73 3v21l68-2v31l-68 3v23l73-3v31l-112 5Zm226-64 34 54-45 1-28-46-21 1v47l-38 2V397l70-3c14 0 31 1 43 10 10 8 15 20 15 33 0 10-3 18-7 25s-15 13-23 16Zm-9-38q0-8-5-11t-15-3l-31 1v30l31-2q10 0 15-4a14 14 0 0 0 5-11Zm95-16-48 1v-33c45-1 89-2 134-1v32h-48v107h-38Zm118 82-10 24h-40l59-138 42 1 60 143-41-2-10-26-60-2Zm30-75-18 44 36 1-18-45Z" class="cls-1" transform="translate(-35 -384)"/><path d="M147 467c0-19 8-38 22-51a85 85 0 0 1 110 5 73 73 0 0 1 0 104 77 77 0 0 1-55 19c-20-1-41-9-55-24a80 80 0 0 1-22-53Zm39 2c1 11 4 22 11 30 6 7 18 13 27 13 9 1 21-4 27-10 7-7 12-20 11-29-1-11-3-22-11-30-6-7-18-12-27-12-9-1-21 3-27 10-6 6-11 19-11 28Zm128 74V404l111-2v31l-72 2v25l66-2v32l-66 1v52h-39Zm123-2V402l113-5v32l-74 3v22l68-3v31l-68 3v23l74-3v31l-113 5Zm226-64 35 54-45 1-28-46-22 1v47l-38 2V397l70-3c14-1 31 1 43 9 11 8 16 20 15 33 0 10-2 18-7 25s-15 13-23 16Zm-8-38q0-8-5-11t-15-3l-32 1v30l32-2q9 0 14-4a14 14 0 0 0 6-11Zm94-16-47 1v-33c44-1 89-2 133-1v32h-47v107h-39Zm118 82-10 24h-39l59-138 42 1 59 144-40-3-10-26-61-2Zm30-74-17 43 35 1-18-44Z" class="cls-1" transform="translate(-35 -384)"/><path d="M148 466c0-19 8-38 22-51s36-18 55-17c20 0 40 8 55 22 14 13 21 33 21 52s-7 39-22 52a77 77 0 0 1-55 19c-20-1-40-9-54-23a80 80 0 0 1-22-54Zm39 2c0 11 4 22 11 30a38 38 0 0 0 54 3c6-7 11-20 10-29-1-11-3-21-10-30-6-6-19-12-28-12-8-1-20 4-27 10-6 7-10 19-10 28Zm128 74V403l110-2v32l-72 1v25l66-1v31l-66 1v52h-38Zm123-2V401l112-5v32l-74 3v22l69-3v31l-69 3v23l74-3v32l-112 4Zm226-64 34 54-45 1-28-46-21 1v47l-39 2V396l71-3c14-1 31 1 43 10 10 7 15 20 15 32a44 44 0 0 1-30 41Zm-9-38q0-7-5-11t-15-3l-31 2v29l31-1q10-1 15-5a14 14 0 0 0 5-11Zm95-16-48 1v-33l134-1v33h-48v106l-38 1Zm117 82-10 25-39-1 59-138 42 1 60 144-41-3-10-26-61-2Zm31-74-18 43 35 1-17-44Z" class="cls-1" transform="translate(-35 -384)"/><path d="M148 465c0-18 8-38 22-50a85 85 0 0 1 110 5 72 72 0 0 1 0 104 77 77 0 0 1-55 19c-20-1-41-10-55-24a80 80 0 0 1-22-54Zm39 3c1 10 4 21 11 30 6 7 18 12 27 13 9 0 21-4 27-11 7-7 12-19 11-29s-3-21-11-29c-6-7-18-13-27-13s-21 4-27 10c-6 7-11 19-11 29Zm128 73V402l111-2v32l-72 1v25l66-1v31l-66 2v51h-39Zm123-2V400l113-4v31l-74 3v22l68-3v32l-68 2v24l74-3v31l-113 4Zm226-63 35 53-45 2-28-47-22 1v48l-38 1V395l70-3c15-1 31 1 43 10 11 7 16 20 16 32-1 10-3 19-8 25s-14 14-23 17Zm-8-39q0-7-5-11t-15-3l-32 2v29l32-1q9-1 14-5a14 14 0 0 0 6-11Zm94-16-47 1v-32c44-2 89-2 133-2v33h-47v106l-39 1Zm118 82-10 25-39-1 59-138 42 2 59 143-40-3-10-25-61-3Zm30-74-17 43 35 2-18-45Z" class="cls-1" transform="translate(-35 -384)"/><path d="M149 464c0-18 8-38 22-50a85 85 0 0 1 110 5c14 13 22 32 22 52s-8 39-22 52a77 77 0 0 1-55 19c-20-1-41-9-55-24a80 80 0 0 1-22-54Zm39 3c0 10 4 22 11 30 6 7 18 12 27 13 9 0 21-4 27-11 7-6 11-19 11-29-1-10-4-21-11-29-6-7-18-12-27-13-9 0-21 4-27 10-7 7-11 20-11 29Zm128 74V401l110-1v31l-72 2v24l66-1v32l-66 1v51l-38 1Zm123-2V399l113-4v31l-74 3v22l68-3v32l-68 3v23l74-3v31l-113 5Zm226-64 34 53-45 2-27-47-22 1v48l-38 2V394l70-3c14 0 31 1 43 10 10 8 15 20 15 33 0 9-2 18-7 25s-15 13-23 16Zm-9-39c0-5-1-8-5-10s-8-4-15-3l-31 1v29l31-1q10 0 15-4a14 14 0 0 0 5-12Zm95-16-48 2v-33l134-2v33h-47v107h-39Zm118 82-10 25h-39l59-139 42 2 59 143-41-3-10-25-60-3Zm30-74-18 43 36 2-18-45Z" class="cls-1" transform="translate(-35 -384)"/><path d="m116 726-30-2v-23a101 101 0 0 1-27-9 103 103 0 0 1-24-16l18-25a105 105 0 0 0 24 15 74 74 0 0 0 25 6l17-2c4-1 6-5 6-8s-2-7-5-9-11-3-21-5c-15-2-32-5-45-15-9-7-12-19-13-30 0-10 5-22 12-28 9-8 21-12 33-13v-19l30 1v20a85 85 0 0 1 21 8 104 104 0 0 1 20 13l-18 26a81 81 0 0 0-20-12 59 59 0 0 0-20-6l-16 2c-3 1-6 4-6 8q0 5 6 8l22 5c14 2 31 5 43 14 9 7 12 19 13 30 0 10-5 22-12 28-9 8-21 13-33 14Zm59-20V565l110 1v32h-73v22h67v31h-67v24h73v31H175Zm234-143 56-2v141l-37 1V603l-31 67-31 1-29-64v99h-37V566l56-2 26 60 27-61Zm111 111-10 26-38 1 58-143 41-2 58 139-39 1-10-24Zm30-77-17 45 34-2-17-43Zm124 12v84l-37 1V554l39-2 61 83v-85h37v140l-39 1-61-82Zm155 56-10 25h-38l58-141h41l58 143-40-1-10-26h-59Zm30-76-18 44h35l-17-44Zm87 103V551l38 2v109l65 4v32q-51-4-103-6Z" class="cls-2" transform="translate(-35 -384)"/><path d="m117 725-31-2v-23a101 101 0 0 1-27-9 103 103 0 0 1-23-16l17-25a104 104 0 0 0 25 15 74 74 0 0 0 25 6q11 0 17-2t6-8q0-6-6-8c-3-2-10-4-20-6-16-2-33-5-45-15-9-7-13-19-13-30 0-9 5-22 12-28 9-8 21-12 32-13v-19l31 1v20a85 85 0 0 1 21 8 103 103 0 0 1 20 13l-19 26a81 81 0 0 0-19-12 59 59 0 0 0-20-6q-11 0-17 2t-6 8q0 5 6 8l22 5c15 2 31 5 43 14 10 7 13 19 13 30 0 10-5 22-12 29-8 8-20 12-32 13Zm58-20V564l110 1v31h-72v23h67v31h-67v24h72v31H175Zm235-143 56-2v141l-38 1V602l-30 67-31 1-29-64v99h-38V565l56-2 26 60 28-61Zm111 111-10 26-38 1 58-143 41-2 58 139-40 1-10-24Zm30-77-18 45 35-2Zm123 12v84l-36 1V553l38-2 62 83v-85h36v140l-38 1-62-82Zm156 56-10 25h-39l58-141h41l59 143-40-1-10-26h-59Zm29-76-17 44h35l-18-44Zm88 103V550l37 2v109l66 4v32l-103-6Z" class="cls-2" transform="translate(-35 -384)"/><path d="m118 724-31-2v-23a101 101 0 0 1-27-9 103 103 0 0 1-23-16l17-25a104 104 0 0 0 25 15 74 74 0 0 0 24 5c8 1 13 0 18-2s6-4 6-8-2-6-6-8-11-3-21-5c-15-2-32-6-44-15-10-7-13-20-13-31 0-9 4-21 12-27 8-8 20-12 32-13v-20l31 2v20a85 85 0 0 1 21 8 103 103 0 0 1 19 13l-18 25a81 81 0 0 0-19-12 59 59 0 0 0-21-5q-10-1-16 2c-4 2-6 4-6 7q0 6 6 8c4 2 11 4 22 5 15 3 31 6 43 15 9 6 13 19 13 30 0 9-5 22-12 28-9 8-20 13-32 14Zm58-20V563h110v32h-72v22h67v32h-67v23h72v32H176Zm234-143 56-2v140l-37 2V601l-30 67h-31l-29-63v98l-38 1V563l56-1 26 60 27-61Zm112 111-10 25-39 2 58-143 42-2 58 138-40 2-10-25Zm29-77-17 45 35-2-18-43Zm124 11v85l-36 1V551l38-1 62 82v-84l36-1v141l-38 1-62-83Zm155 56-9 26h-39l58-141h41l58 142-39-1-10-25-60-1Zm30-75-17 44h34l-17-44Zm87 103V549l38 2v108l66 5v32l-104-6Z" class="cls-2" transform="translate(-35 -384)"/><path d="m119 723-31-2v-23a101 101 0 0 1-27-9 103 103 0 0 1-23-16l17-25a104 104 0 0 0 25 14 74 74 0 0 0 24 6c7 1 13 0 17-2s6-4 6-8-1-6-5-8l-21-5c-15-3-32-6-45-15-9-7-12-20-12-31-1-9 4-21 11-27 9-8 21-12 33-13v-20l31 2v20a85 85 0 0 1 21 7 103 103 0 0 1 19 13l-18 26a81 81 0 0 0-20-12 59 59 0 0 0-20-5q-10-1-16 2t-6 7q0 5 6 8c4 2 11 4 22 5 15 3 31 5 43 15 9 6 13 19 13 30 0 9-5 22-12 28-9 8-21 13-32 14Zm58-21V562h110v32h-72v22h66v32h-66v23h72v32q-55 1-110-1Zm234-143 56-2v141l-37 2V600l-31 66-31 1-29-64v99l-37 1V562l56-1 26 60 27-62Zm112 112-10 25-39 2 58-143 41-2 58 138-39 2-10-25Zm29-78-17 45 35-1-18-44Zm124 12v85l-36 1V550l38-1 61 82v-84l37-1v141l-38 1-62-83Zm155 56-10 26h-38l58-141h41l58 142-39-1-10-25-60-1Zm30-76-17 45h34l-17-45Zm87 104V548l38 2v108l65 5v32q-51-4-103-6Z" class="cls-2" transform="translate(-35 -384)"/><path d="m120 721-31-2v-23a101 101 0 0 1-27-9 103 103 0 0 1-23-16l17-25a105 105 0 0 0 25 15 74 74 0 0 0 24 6l17-2c4-1 7-5 7-8s-2-7-6-8l-21-6c-15-2-32-5-45-15-9-7-12-19-12-30 0-9 4-22 11-28 9-8 21-12 33-13v-19l31 1v20a85 85 0 0 1 21 8 103 103 0 0 1 19 13l-18 26a81 81 0 0 0-19-12 59 59 0 0 0-21-6q-10 0-16 2t-6 8q0 5 6 8l22 5c15 2 31 5 43 14 9 7 13 19 13 30 0 10-5 22-12 28-9 8-20 13-32 14Zm58-20V560l110 1v32h-72v22h67v32l-67-1v24h72v32l-110-1Zm234-143 56-2v141l-37 1V598l-30 67-32 1-29-64v99h-37V561l56-2 26 60 27-61Zm112 111-10 26-39 1 58-143 42-2 58 139-40 1-10-24Zm29-77-17 45 35-2-18-43Zm124 12v84l-36 1V549l38-2 62 83v-85h36v140l-38 1-62-82Zm155 56-10 25h-38l58-141h41l58 143-39-1-10-26h-60Zm30-76-17 44h34l-17-44Zm87 103V546l38 2v109q33 1 65 4v32q-51-4-103-6Z" class="cls-2" transform="translate(-35 -384)"/><path fill="#3aaa35" d="m121 721-31-2v-23a101 101 0 0 1-27-9 104 104 0 0 1-23-16l17-25a105 105 0 0 0 25 15 74 74 0 0 0 24 6l17-2c4-1 6-5 6-8s-1-7-5-9l-21-5c-15-2-32-5-45-15-9-7-12-19-12-30-1-10 4-22 11-28 9-8 21-12 33-13v-19l31 1v20a85 85 0 0 1 21 8 103 103 0 0 1 19 13l-18 25a80 80 0 0 0-20-12 59 59 0 0 0-20-5c-7 0-12 0-16 2s-6 4-6 8q0 5 6 7c3 2 11 4 22 6 15 2 31 5 43 14 9 7 13 19 13 30 0 10-5 22-12 28-9 8-21 13-32 14Zm58-20V560l110 1v31h-72v23h66v31h-66v24h72v31H179Zm234-143 56-2v140l-37 2V598l-31 67-31 1-29-64v99h-37V560l56-1 26 60 27-61Zm111 111-9 26-39 1 58-143 41-2 58 139-39 1-10-25-60 3Zm30-77-17 45 35-2-18-43Zm124 12v84l-37 1V549l39-2 61 83v-85h37v140l-38 1-62-82Zm155 56-10 25h-38l58-141h41l58 143-40-2-9-25h-60Zm30-76-17 44h34l-17-44Zm87 103V546l38 2v108l65 5v32q-51-4-103-6Z" transform="translate(-35 -384)"/></svg>