<svg id="Capa_1" data-name="Capa 1" xmlns="http://www.w3.org/2000/svg" viewBox="0 0 762 483"><defs><style>.cls-1{fill:#008e0a}.cls-3{fill:#3700af}</style></defs><path class="cls-1" d="M214 576c-15 1-31 1-46-2-10-1-14-5-14-16V404c0-12 4-15 13-17a441 441 0 0 1 46-4c34-2 80 3 80 47v5c0 16-8 31-22 39 14 6 24 20 23 36v3c0 45-41 61-80 63Zm37-139c1-19-22-19-35-19l-19 1v44l28-1c13-1 26-7 26-22Zm1 76c0-15-13-22-27-21l-28 2v47l21-1c15 0 35-5 34-24Zm175 37a243 243 0 0 1-42 9c-34 5-63-7-61-46V381a6 6 0 0 1 5-5l33-4a4 4 0 0 1 5 4v131c0 13 4 17 16 15l44-6a4 4 0 0 1 5 4v24c0 3-2 5-5 6Zm171-26-36 6a4 4 0 0 1-5-4l-9-40-52 8-9 43a7 7 0 0 1-5 6l-36 5c-2 0-4-1-4-3a12 12 0 0 0 0-2l38-163c5-21 22-31 42-34 18-3 38 0 42 21l38 151a10 10 0 0 0 0 1 5 5 0 0 1-4 5Zm-72-139c-1-3-1-4-4-3s-3 1-3 4l-16 72 38-6-15-67Zm202 119c-12 5-25 7-38 9-48 7-73-24-75-70v-32c1-47 29-85 75-91 13-1 26-3 38 0 4 0 6 1 6 4v25c0 3-2 5-5 6h-1l-37 2c-24 4-32 26-32 48v32c1 20 7 42 32 38l37-7h1c3 0 5 2 5 5v24c0 4-2 5-6 7Zm180-192-60 87 60 90a5 5 0 0 1 1 3c0 1-1 2-3 2l-44 1c-3 0-4-1-5-3l-52-81v82a6 6 0 0 1-5 6l-33 3a5 5 0 0 1-5-5V319a6 6 0 0 1 5-6l33-3a4 4 0 0 1 5 5v80l56-85a6 6 0 0 1 5-3l39-1c3 0 4 1 4 3a7 7 0 0 1-1 3Z" transform="translate(-151 -301)"/><path class="cls-1" d="M211 579c-15 1-31 1-46-2-10-1-14-5-14-16V407c0-12 4-15 13-17a441 441 0 0 1 46-4c34-2 80 3 80 47v5c0 16-8 31-22 39 14 6 24 20 23 36v3c0 45-41 61-80 63Zm37-139c1-19-22-19-35-19l-19 1v44l28-1c13-1 26-7 26-22Zm1 76c0-15-13-22-27-21l-28 2v47l21-1c15 0 35-5 34-24Zm175 37a243 243 0 0 1-42 9c-34 5-63-7-61-46V384a6 6 0 0 1 5-5l33-4a4 4 0 0 1 5 4v131c0 13 4 17 16 15l44-6a4 4 0 0 1 5 4v24c0 3-2 5-5 6Zm171-26-36 6a4 4 0 0 1-5-4l-9-40-52 8-9 43a7 7 0 0 1-5 6l-36 5c-2 0-4-1-4-3a12 12 0 0 0 0-2l38-163c5-21 22-31 42-34 18-3 38 0 42 21l38 151a10 10 0 0 0 0 1 5 5 0 0 1-4 5Zm-72-139c-1-3-1-4-4-3s-3 1-3 4l-16 72 38-6-15-67Zm202 119c-12 5-25 7-38 9-48 7-73-24-75-70v-32c1-47 29-85 75-91 13-1 26-3 38 0 4 0 6 1 6 4v25c0 3-2 5-5 6h-1l-37 2c-24 4-32 26-32 48v32c1 20 7 42 32 38l37-7h1c3 0 5 2 5 5v24c0 4-2 5-6 7Zm180-192-60 87 60 90a5 5 0 0 1 1 3c0 1-1 2-3 2l-44 1c-3 0-4-1-5-3l-52-81v82a6 6 0 0 1-5 6l-33 3a5 5 0 0 1-5-5V322a6 6 0 0 1 5-6l33-3a4 4 0 0 1 5 5v80l56-85a6 6 0 0 1 5-3l39-1c3 0 4 1 4 3a7 7 0 0 1-1 3Z" transform="translate(-151 -301)"/><path class="cls-1" d="M216 574c-15 1-31 1-46-2-10-1-14-5-14-16V402c0-12 4-15 13-17a441 441 0 0 1 46-4c34-2 80 3 80 47v5c0 16-8 31-22 39 14 6 24 20 23 36v3c0 45-41 61-80 63Zm37-139c1-19-22-19-35-19l-19 1v44l28-1c13-1 26-7 26-22Zm1 76c0-15-13-22-27-21l-28 2v47l21-1c15 0 35-5 34-24Zm175 37a243 243 0 0 1-42 9c-34 5-63-7-61-46V379a6 6 0 0 1 5-5l33-4a4 4 0 0 1 5 4v131c0 13 4 17 16 15l44-6a4 4 0 0 1 5 4v24c0 3-2 5-5 6Zm171-26-36 6a4 4 0 0 1-5-4l-9-40-52 8-9 43a7 7 0 0 1-5 6l-36 5c-2 0-4-1-4-3a12 12 0 0 0 0-2l38-163c5-21 22-31 42-34 18-3 38 0 42 21l38 151a10 10 0 0 0 0 1 5 5 0 0 1-4 5Zm-72-139c-1-3-1-4-4-3s-3 1-3 4l-16 72 38-6-15-67Zm202 119c-12 5-25 7-38 9-48 7-73-24-75-70v-32c1-47 29-85 75-91 13-1 26-3 38 0 4 0 6 1 6 4v25c0 3-2 5-5 6h-1l-37 2c-24 4-32 26-32 48v32c1 20 7 42 32 38l37-7h1c3 0 5 2 5 5v24c0 4-2 5-6 7Zm180-192-60 87 60 90a5 5 0 0 1 1 3c0 1-1 2-3 2l-44 1c-3 0-4-1-5-3l-52-81v82a6 6 0 0 1-5 6l-33 3a5 5 0 0 1-5-5V317a6 6 0 0 1 5-6l33-3a4 4 0 0 1 5 5v80l56-85a6 6 0 0 1 5-3l39-1c3 0 4 1 4 3a7 7 0 0 1-1 3Z" transform="translate(-151 -301)"/><path d="M218 571c-15 1-31 1-46-2-10-1-14-5-14-16V399c0-12 4-15 13-17a441 441 0 0 1 46-4c34-2 80 3 80 47v5c0 16-8 31-22 39 14 6 24 20 23 36v3c0 45-41 61-80 63Zm37-139c1-19-22-19-35-19l-19 1v44l28-1c13-1 26-7 26-22Zm1 76c0-15-13-22-27-21l-28 2v47l21-1c15 0 35-5 34-24Zm175 37a243 243 0 0 1-42 9c-34 5-63-7-61-46V376a6 6 0 0 1 5-5l33-4a4 4 0 0 1 5 4v131c0 13 4 17 16 15l44-6a4 4 0 0 1 5 4v24c0 3-2 5-5 6Zm171-26-36 6a4 4 0 0 1-5-4l-9-40-52 8-9 43a7 7 0 0 1-5 6l-36 5c-2 0-4-1-4-3a12 12 0 0 0 0-2l38-163c5-21 22-31 42-34 18-3 38 0 42 21l38 151a10 10 0 0 0 0 1 5 5 0 0 1-4 5Zm-72-139c-1-3-1-4-4-3s-3 1-3 4l-16 72 38-6-15-67Zm202 119c-12 5-25 7-38 9-48 7-73-24-75-70v-32c1-47 29-85 75-91 13-1 26-3 38 0 4 0 6 1 6 4v25c0 3-2 5-5 6h-1l-37 2c-24 4-32 26-32 48v32c1 20 7 42 32 38l37-7h1c3 0 5 2 5 5v24c0 4-2 5-6 7Zm180-192-60 87 60 90a5 5 0 0 1 1 3c0 1-1 2-3 2l-44 1c-3 0-4-1-5-3l-52-81v82a6 6 0 0 1-5 6l-33 3a5 5 0 0 1-5-5V314a6 6 0 0 1 5-6l33-3a4 4 0 0 1 5 5v80l56-85a6 6 0 0 1 5-3l39-1c3 0 4 1 4 3a7 7 0 0 1-1 3Z" transform="translate(-151 -301)" fill="#00ff18"/><path class="cls-3" d="m392 580-27 170c-1 14-13 21-26 22l-16 2c-11 2-23-2-26-14l-23-74c0-2-1-2-2-2s-2 0-2 2l-23 78c-3 12-14 18-26 19l-16 1c-13 1-24-5-26-19l-27-166c0-3 3-3 5-3l39-1c2 0 4 2 4 5l16 135 2 3 2-4 20-70c3-10 10-13 18-14l28-2c8-1 15 1 18 10l20 68 2 3 2-4 16-137c0-3 2-6 4-6l39-5c2 0 5 0 5 3Zm144 161a469 469 0 0 1-55 12c-34 6-69-1-68-43v-85c-1-42 32-59 69-64a453 453 0 0 1 54-6c4 0 6 1 6 4v24c0 3-2 5-6 6l-57 9c-12 2-18 8-18 20v23l73-11c3-1 6 1 6 4v24c0 3-3 5-6 6l-73 11v27c-2 12 7 18 18 15l57-10c4 0 6 2 6 5v23c0 3-2 5-6 6Zm165-24a548 548 0 0 1-55 11c-35 5-70-2-69-44v-84c0-42 32-60 69-65 18-3 37-4 55-4 4 0 6 1 6 4v23c0 3-3 6-6 6l-58 8c-11 2-18 8-18 20v23l74-10c3-1 5 1 5 4v24c0 3-2 6-5 6l-74 10v27c-1 12 8 18 18 15l58-8c3-1 6 1 6 4v24c0 3-2 5-6 6Zm205-196-68 88q35 44 68 89a4 4 0 0 1 1 2c0 2-1 3-4 3l-48 1c-4 0-5-1-7-3l-57-80v82c0 3-3 5-6 6l-37 3c-3 1-6-1-6-4V529c0-2 3-5 6-5l37-4c3 0 6 2 6 5v80l62-86a7 7 0 0 1 6-3l44-1c3 0 4 1 4 3a7 7 0 0 1-1 3Z" transform="translate(-151 -301)"/><path class="cls-3" d="m393 578-27 170c-1 14-13 21-26 22l-16 2c-11 2-23-2-26-14l-23-74c0-2-1-2-2-2s-2 0-2 2l-23 78c-3 12-14 18-26 19l-16 1c-13 1-24-5-26-19l-27-166c0-3 3-3 5-3l39-1c2 0 4 2 4 5l16 135 2 3 2-4 20-70c3-10 10-13 18-14l28-2c8-1 15 1 18 10l20 68 2 3 2-4 16-137c0-3 2-6 4-6l39-5c2 0 5 0 5 3Zm144 161a469 469 0 0 1-55 12c-34 6-69-1-68-43v-85c-1-42 32-59 69-64a453 453 0 0 1 54-6c4 0 6 1 6 4v24c0 3-2 5-6 6l-57 9c-12 2-18 8-18 20v23l73-11c3-1 6 1 6 4v24c0 3-3 5-6 6l-73 11v27c-2 12 7 18 18 15l57-10c4 0 6 2 6 5v23c0 3-2 5-6 6Zm165-24a548 548 0 0 1-55 11c-35 5-70-2-69-44v-84c0-42 32-60 69-65 18-3 37-4 55-4 4 0 6 1 6 4v23c0 3-3 6-6 6l-58 8c-11 2-18 8-18 20v23l74-10c3-1 5 1 5 4v24c0 3-2 6-5 6l-74 10v27c-1 12 8 18 18 15l58-8c3-1 6 1 6 4v24c0 3-2 5-6 6Zm205-196-68 88q35 44 68 89a4 4 0 0 1 1 2c0 2-1 3-4 3l-48 1c-4 0-5-1-7-3l-57-80v82c0 3-3 5-6 6l-37 3c-3 1-6-1-6-4V527c0-2 3-5 6-5l37-4c3 0 6 2 6 5v80l62-86a7 7 0 0 1 6-3l44-1c3 0 4 1 4 3a7 7 0 0 1-1 3Z" transform="translate(-151 -301)"/><path class="cls-3" d="m394 576-27 170c-1 14-13 21-26 22l-16 2c-11 2-23-2-26-14l-23-74c0-2-1-2-2-2s-2 0-2 2l-23 78c-3 12-14 18-26 19l-16 1c-13 1-24-5-26-19l-27-166c0-3 3-3 5-3l39-1c2 0 4 2 4 5l16 135 2 3 2-4 20-70c3-10 10-13 18-14l28-2c8-1 15 1 18 10l20 68 2 3 2-4 16-137c0-3 2-6 4-6l39-5c2 0 5 0 5 3Zm144 161a469 469 0 0 1-55 12c-34 6-69-1-68-43v-85c-1-42 32-59 69-64a453 453 0 0 1 54-6c4 0 6 1 6 4v24c0 3-2 5-6 6l-57 9c-12 2-18 8-18 20v23l73-11c3-1 6 1 6 4v24c0 3-3 5-6 6l-73 11v27c-2 12 7 18 18 15l57-10c4 0 6 2 6 5v23c0 3-2 5-6 6Zm165-24a548 548 0 0 1-55 11c-35 5-70-2-69-44v-84c0-42 32-60 69-65 18-3 37-4 55-4 4 0 6 1 6 4v23c0 3-3 6-6 6l-58 8c-11 2-18 8-18 20v23l74-10c3-1 5 1 5 4v24c0 3-2 6-5 6l-74 10v27c-1 12 8 18 18 15l58-8c3-1 6 1 6 4v24c0 3-2 5-6 6Zm205-196-68 88q35 44 68 89a4 4 0 0 1 1 2c0 2-1 3-4 3l-48 1c-4 0-5-1-7-3l-57-80v82c0 3-3 5-6 6l-37 3c-3 1-6-1-6-4V525c0-2 3-5 6-5l37-4c3 0 6 2 6 5v80l62-86a7 7 0 0 1 6-3l44-1c3 0 4 1 4 3a7 7 0 0 1-1 3Z" transform="translate(-151 -301)"/><path class="cls-3" d="m395 574-27 170c-1 14-13 21-26 22l-16 2c-11 2-23-2-26-14l-23-74c0-2-1-2-2-2s-2 0-2 2l-23 78c-3 12-14 18-26 19l-16 1c-13 1-24-5-26-19l-27-166c0-3 3-3 5-3l39-1c2 0 4 2 4 5l16 135 2 3 2-4 20-70c3-10 10-13 18-14l28-2c8-1 15 1 18 10l20 68 2 3 2-4 16-137c0-3 2-6 4-6l39-5c2 0 5 0 5 3Zm144 161a469 469 0 0 1-55 12c-34 6-69-1-68-43v-85c-1-42 32-59 69-64a453 453 0 0 1 54-6c4 0 6 1 6 4v24c0 3-2 5-6 6l-57 9c-12 2-18 8-18 20v23l73-11c3-1 6 1 6 4v24c0 3-3 5-6 6l-73 11v27c-2 12 7 18 18 15l57-10c4 0 6 2 6 5v23c0 3-2 5-6 6Zm165-24a548 548 0 0 1-55 11c-35 5-70-2-69-44v-84c0-42 32-60 69-65 18-3 37-4 55-4 4 0 6 1 6 4v23c0 3-3 6-6 6l-58 8c-11 2-18 8-18 20v23l74-10c3-1 5 1 5 4v24c0 3-2 6-5 6l-74 10v27c-1 12 8 18 18 15l58-8c3-1 6 1 6 4v24c0 3-2 5-6 6Zm205-196-68 88q35 44 68 89a4 4 0 0 1 1 2c0 2-1 3-4 3l-48 1c-4 0-5-1-7-3l-57-80v82c0 3-3 5-6 6l-37 3c-3 1-6-1-6-4V523c0-2 3-5 6-5l37-4c3 0 6 2 6 5v80l62-86a7 7 0 0 1 6-3l44-1c3 0 4 1 4 3a7 7 0 0 1-1 3Z" transform="translate(-151 -301)"/><path class="cls-3" d="m396 572-27 170c-1 14-13 21-26 22l-16 2c-11 2-23-2-26-14l-23-74c0-2-1-2-2-2s-2 0-2 2l-23 78c-3 12-14 18-26 19l-16 1c-13 1-24-5-26-19l-27-166c0-3 3-3 5-3l39-1c2 0 4 2 4 5l16 135 2 3 2-4 20-70c3-10 10-13 18-14l28-2c8-1 15 1 18 10l20 68 2 3 2-4 16-137c0-3 2-6 4-6l39-5c2 0 5 0 5 3Zm144 161a469 469 0 0 1-55 12c-34 6-69-1-68-43v-85c-1-42 32-59 69-64a453 453 0 0 1 54-6c4 0 6 1 6 4v24c0 3-2 5-6 6l-57 9c-12 2-18 8-18 20v23l73-11c3-1 6 1 6 4v24c0 3-3 5-6 6l-73 11v27c-2 12 7 18 18 15l57-10c4 0 6 2 6 5v23c0 3-2 5-6 6Zm165-24a548 548 0 0 1-55 11c-35 5-70-2-69-44v-84c0-42 32-60 69-65 18-3 37-4 55-4 4 0 6 1 6 4v23c0 3-3 6-6 6l-58 8c-11 2-18 8-18 20v23l74-10c3-1 5 1 5 4v24c0 3-2 6-5 6l-74 10v27c-1 12 8 18 18 15l58-8c3-1 6 1 6 4v24c0 3-2 5-6 6Zm205-196-68 88q35 44 68 89a4 4 0 0 1 1 2c0 2-1 3-4 3l-48 1c-4 0-5-1-7-3l-57-80v82c0 3-3 5-6 6l-37 3c-3 1-6-1-6-4V521c0-2 3-5 6-5l37-4c3 0 6 2 6 5v80l62-86a7 7 0 0 1 6-3l44-1c3 0 4 1 4 3a7 7 0 0 1-1 3Z" transform="translate(-151 -301)"/><path d="m397 572-26 169c-1 14-14 21-26 23l-17 2c-11 1-23-3-26-15l-22-74c-1-2-1-2-3-1l-2 2-22 77c-4 13-14 18-26 19l-17 1c-13 1-24-5-26-19l-26-165v-1c0-2 2-3 4-3l39-1c2 0 4 2 5 5l16 135 1 3c1 0 2-1 2-3l21-71c3-10 10-13 17-13l29-3c7-1 14 1 17 11l21 67c0 2 1 3 2 3l1-3 16-138c1-3 3-5 5-5l38-6c3 0 5 1 5 3Zm145 161a473 473 0 0 1-55 12c-35 6-70-2-69-44v-84c0-42 32-59 69-65a453 453 0 0 1 55-6c4 0 6 1 6 5v23c0 3-3 6-6 6l-58 9c-11 2-18 8-18 20v23l74-11c3-1 5 1 5 4v24c0 3-2 5-5 6l-74 12v27c-1 11 8 17 18 14l58-9c3-1 6 1 6 4v23c0 4-2 6-6 7Zm164-25a551 551 0 0 1-55 11c-34 5-69-2-69-44v-84c0-42 33-60 70-65 18-2 36-4 54-4 4 0 6 1 6 4v24c0 3-2 5-6 6l-57 8c-12 1-19 7-18 20v23l73-11c3 0 6 2 6 5v24c0 2-3 5-6 5l-73 11v27c-2 11 7 17 18 14l57-8c4 0 6 2 6 5v23c0 3-2 5-6 6Zm205-196-67 88 68 89a4 4 0 0 1 1 3l-4 2-49 1c-3 1-5-1-6-3l-58-80v82c0 3-2 6-5 6l-38 4c-3 0-5-2-5-5V521c0-3 2-5 5-6l38-3c3-1 5 1 5 4v81l63-87a7 7 0 0 1 6-3l43-1c3 0 5 1 5 3a7 7 0 0 1-2 3Z" transform="translate(-151 -301)" fill="#5f00ff"/></svg>