<svg xmlns="http://www.w3.org/2000/svg" id="Capa_1" data-name="Capa 1" viewBox="0 0 762.41 482.97"><defs><style>.cls-1{fill:#008e0a}.cls-2{fill:#00ff18}.cls-3{fill:#3700af}.cls-4{fill:#5f00ff}</style></defs><path d="M214.25,576c-15.31.74-31.31.68-46.39-1.65-10.07-1.56-14-5-14-16.4V403.8c0-11.41,3.64-15.05,13.44-16.56a441,441,0,0,1,45.37-4.11c34.37-1.65,80.6,2.46,80.11,47.17v4.56c.52,15.67-8.12,31.06-21.29,39.2,13.8,6,23.27,20.14,22.56,35.47v3.8C294.44,558.41,252.59,574.14,214.25,576ZM251,436.63c1.07-18.83-22.05-18.92-35-18.16-4,.23-15.72.68-19.27,1v43.86q14.2-.48,28.4-1.27c13.34-.69,25.76-7.06,25.85-21.68Zm1,76.49c0-15.43-12.68-21.74-26.87-20.85q-14.19.8-28.4,1.28V541c4.06-.14,17.28-.48,20.79-.62,15-.59,35.21-5.49,34.48-24.42Z" class="cls-1" transform="translate(-150.91 -300.79)"/><path d="M426.67,550.09a243.49,243.49,0,0,1-41.32,9.2c-34.33,5-63.24-7.55-61.85-46.76V381.46a5.85,5.85,0,0,1,5.07-5.64q16.62-1.95,33.21-4a4.38,4.38,0,0,1,5.07,4.42V507.26c0,13.18,4.31,16.7,16.22,15.08q21.82-3,43.6-6.22a4.28,4.28,0,0,1,5.07,4.32V544C431.74,547.31,430.22,548.8,426.67,550.09Z" class="cls-1" transform="translate(-150.91 -300.79)"/><path d="M597.78,524.12q-17.74,2.77-35.49,5.61a4.44,4.44,0,0,1-5.07-3.75l-9.12-40.11-52,8.34q-4.56,21.51-9.13,43a6.61,6.61,0,0,1-5.07,5.36q-17.73,2.8-35.49,5.53c-2.53.38-4.31-.87-4.31-3.4a12,12,0,0,0,.26-1.31q18.9-81.51,37.77-163c4.56-21.3,22.15-31.62,42.08-34.86,18-2.93,37.3.54,41.83,21.42l37.77,151.21a9.92,9.92,0,0,0,.25,1.23A4.73,4.73,0,0,1,597.78,524.12ZM525.54,384.8c-.51-2.46-1-3.64-3.3-3.28s-3,1.76-3.55,4.38q-7.73,36.23-15.46,72.45L541,452.28Q533.26,418.53,525.54,384.8Z" class="cls-1" transform="translate(-150.91 -300.79)"/><path d="M728.08,503.87c-12.07,4.88-25.14,7.15-37.77,9-47.88,7.16-73.12-23.6-75-69.83V411.14c.21-47.07,28.21-85.63,75-91.15,12.25-1.45,25.24-2.54,37.77-.42,3.54.6,5.57,1.38,5.57,4.93v24.59c0,3-1.52,5.24-4.81,5.63l-.76.09c-12.54.42-25.14,1-37.52,2.66-23.95,3.21-31.4,25.37-31.43,47.17v31.95c1.12,20.21,6.42,42.14,31.43,38.51,12.48-1.81,25.06-4.22,37.52-6.72l.76-.09c3.29-.39,4.81,1.47,4.81,4.51v24.59C733.65,500.94,731.62,502.44,728.08,503.87Z" class="cls-1" transform="translate(-150.91 -300.79)"/><path d="M908.06,312.12q-30.48,43.41-60.34,87.22,30.59,44.54,60.59,89.48a4.71,4.71,0,0,1,1,2.79c0,1.52-1.26,2.53-3.54,2.54q-21.82.17-43.61.9c-3,.11-4.31-1.35-5.57-3.33Q831,451.31,805.14,411.13v82.14a5.61,5.61,0,0,1-5.07,5.47q-16.62,1.38-33.21,3a4.51,4.51,0,0,1-5.07-4.56V318.67a5.51,5.51,0,0,1,5.07-5.33q16.6-1.57,33.21-3a4.44,4.44,0,0,1,5.07,4.42v80.62q27.68-43,55.77-85.64a6,6,0,0,1,5.57-3.24q19.39-.68,38.79-.75c2.79,0,4.05,1.26,4.05,2.78A7.49,7.49,0,0,1,908.06,312.12Z" class="cls-1" transform="translate(-150.91 -300.79)"/><path d="M211.25,579c-15.31.74-31.31.68-46.39-1.65-10.07-1.56-14-5-14-16.4V406.8c0-11.41,3.64-15.05,13.44-16.56a441,441,0,0,1,45.37-4.11c34.37-1.65,80.6,2.46,80.11,47.17v4.56c.52,15.67-8.12,31.06-21.29,39.2,13.8,6,23.27,20.14,22.56,35.47v3.8C291.44,561.41,249.59,577.14,211.25,579ZM248,439.63c1.07-18.83-22.05-18.92-35-18.16-4,.23-15.72.68-19.27,1v43.86q14.2-.48,28.4-1.27c13.34-.69,25.76-7.06,25.85-21.68Zm1,76.49c0-15.43-12.68-21.74-26.87-20.85q-14.19.8-28.4,1.28V544c4.06-.14,17.28-.48,20.79-.62,15-.59,35.21-5.49,34.48-24.42Z" class="cls-1" transform="translate(-150.91 -300.79)"/><path d="M423.67,553.09a243.49,243.49,0,0,1-41.32,9.2c-34.33,5-63.24-7.55-61.85-46.76V384.46a5.85,5.85,0,0,1,5.07-5.64q16.62-1.95,33.21-4a4.38,4.38,0,0,1,5.07,4.42V510.26c0,13.18,4.31,16.7,16.22,15.08q21.82-3,43.6-6.22a4.28,4.28,0,0,1,5.07,4.32V547C428.74,550.31,427.22,551.8,423.67,553.09Z" class="cls-1" transform="translate(-150.91 -300.79)"/><path d="M594.78,527.12q-17.74,2.77-35.49,5.61a4.44,4.44,0,0,1-5.07-3.75l-9.12-40.11-52,8.34q-4.56,21.51-9.13,43a6.61,6.61,0,0,1-5.07,5.36q-17.73,2.8-35.49,5.53c-2.53.38-4.31-.87-4.31-3.4a12,12,0,0,0,.26-1.31q18.9-81.51,37.77-163c4.56-21.3,22.15-31.62,42.08-34.86,18-2.93,37.3.54,41.83,21.42l37.77,151.21a9.92,9.92,0,0,0,.25,1.23A4.73,4.73,0,0,1,594.78,527.12ZM522.54,387.8c-.51-2.46-1-3.64-3.3-3.28s-3,1.76-3.55,4.38q-7.73,36.23-15.46,72.45L538,455.28Q530.26,421.53,522.54,387.8Z" class="cls-1" transform="translate(-150.91 -300.79)"/><path d="M725.08,506.87c-12.07,4.88-25.14,7.15-37.77,9-47.88,7.16-73.12-23.6-75-69.83V414.14c.21-47.07,28.21-85.63,75-91.15,12.25-1.45,25.24-2.54,37.77-.42,3.54.6,5.57,1.38,5.57,4.93v24.59c0,3-1.52,5.24-4.81,5.63l-.76.09c-12.54.42-25.14,1-37.52,2.66-23.95,3.21-31.4,25.37-31.43,47.17v31.95c1.12,20.21,6.42,42.14,31.43,38.51,12.48-1.81,25.06-4.22,37.52-6.72l.76-.09c3.29-.39,4.81,1.47,4.81,4.51v24.59C730.65,503.94,728.62,505.44,725.08,506.87Z" class="cls-1" transform="translate(-150.91 -300.79)"/><path d="M905.06,315.12q-30.48,43.41-60.34,87.22,30.59,44.54,60.59,89.48a4.71,4.71,0,0,1,1,2.79c0,1.52-1.26,2.53-3.54,2.54q-21.82.17-43.61.9c-3,.11-4.31-1.35-5.57-3.33Q828,454.31,802.14,414.13v82.14a5.61,5.61,0,0,1-5.07,5.47q-16.62,1.38-33.21,3a4.51,4.51,0,0,1-5.07-4.56V321.67a5.51,5.51,0,0,1,5.07-5.33q16.6-1.57,33.21-3a4.44,4.44,0,0,1,5.07,4.42v80.62q27.68-43,55.77-85.64a6,6,0,0,1,5.57-3.24q19.39-.68,38.79-.75c2.79,0,4.05,1.26,4.05,2.78A7.49,7.49,0,0,1,905.06,315.12Z" class="cls-1" transform="translate(-150.91 -300.79)"/><path d="M216.25,574c-15.31.74-31.31.68-46.39-1.65-10.07-1.56-14-5-14-16.4V401.8c0-11.41,3.64-15.05,13.44-16.56a441,441,0,0,1,45.37-4.11c34.37-1.65,80.6,2.46,80.11,47.17v4.56c.52,15.67-8.12,31.06-21.29,39.2,13.8,6,23.27,20.14,22.56,35.47v3.8C296.44,556.41,254.59,572.14,216.25,574ZM253,434.63c1.07-18.83-22.05-18.92-35-18.16-4,.23-15.72.68-19.27,1v43.86q14.2-.48,28.4-1.27c13.34-.69,25.76-7.06,25.85-21.68Zm1,76.49c0-15.43-12.68-21.74-26.87-20.85q-14.19.8-28.4,1.28V539c4.06-.14,17.28-.48,20.79-.62,15-.59,35.21-5.49,34.48-24.42Z" class="cls-1" transform="translate(-150.91 -300.79)"/><path d="M428.67,548.09a243.49,243.49,0,0,1-41.32,9.2c-34.33,5-63.24-7.55-61.85-46.76V379.46a5.85,5.85,0,0,1,5.07-5.64q16.62-1.95,33.21-4a4.38,4.38,0,0,1,5.07,4.42V505.26c0,13.18,4.31,16.7,16.22,15.08q21.82-3,43.6-6.22a4.28,4.28,0,0,1,5.07,4.32V542C433.74,545.31,432.22,546.8,428.67,548.09Z" class="cls-1" transform="translate(-150.91 -300.79)"/><path d="M599.78,522.12q-17.74,2.77-35.49,5.61a4.44,4.44,0,0,1-5.07-3.75l-9.12-40.11-52,8.34q-4.56,21.51-9.13,43a6.61,6.61,0,0,1-5.07,5.36q-17.73,2.8-35.49,5.53c-2.53.38-4.31-.87-4.31-3.4a12,12,0,0,0,.26-1.31q18.9-81.51,37.77-163c4.56-21.3,22.15-31.62,42.08-34.86,18-2.93,37.3.54,41.83,21.42l37.77,151.21a9.92,9.92,0,0,0,.25,1.23A4.73,4.73,0,0,1,599.78,522.12ZM527.54,382.8c-.51-2.46-1-3.64-3.3-3.28s-3,1.76-3.55,4.38q-7.73,36.23-15.46,72.45L543,450.28Q535.26,416.53,527.54,382.8Z" class="cls-1" transform="translate(-150.91 -300.79)"/><path d="M730.08,501.87c-12.07,4.88-25.14,7.15-37.77,9-47.88,7.16-73.12-23.6-75-69.83V409.14c.21-47.07,28.21-85.63,75-91.15,12.25-1.45,25.24-2.54,37.77-.42,3.54.6,5.57,1.38,5.57,4.93v24.59c0,3-1.52,5.24-4.81,5.63l-.76.09c-12.54.42-25.14,1-37.52,2.66-23.95,3.21-31.4,25.37-31.43,47.17v31.95c1.12,20.21,6.42,42.14,31.43,38.51,12.48-1.81,25.06-4.22,37.52-6.72l.76-.09c3.29-.39,4.81,1.47,4.81,4.51v24.59C735.65,498.94,733.62,500.44,730.08,501.87Z" class="cls-1" transform="translate(-150.91 -300.79)"/><path d="M910.06,310.12q-30.48,43.41-60.34,87.22,30.59,44.54,60.59,89.48a4.71,4.71,0,0,1,1,2.79c0,1.52-1.26,2.53-3.54,2.54q-21.82.17-43.61.9c-3,.11-4.31-1.35-5.57-3.33Q833,449.31,807.14,409.13v82.14a5.61,5.61,0,0,1-5.07,5.47q-16.62,1.38-33.21,3a4.51,4.51,0,0,1-5.07-4.56V316.67a5.51,5.51,0,0,1,5.07-5.33q16.6-1.57,33.21-3a4.44,4.44,0,0,1,5.07,4.42v80.62q27.68-43,55.77-85.64a6,6,0,0,1,5.57-3.24q19.39-.68,38.79-.75c2.79,0,4.05,1.26,4.05,2.78A7.49,7.49,0,0,1,910.06,310.12Z" class="cls-1" transform="translate(-150.91 -300.79)"/><path d="M218.25,571c-15.31.74-31.31.68-46.39-1.65-10.07-1.56-14-5-14-16.4V398.8c0-11.41,3.64-15.05,13.44-16.56a441,441,0,0,1,45.37-4.11c34.37-1.65,80.6,2.46,80.11,47.17v4.56c.52,15.67-8.12,31.06-21.29,39.2,13.8,6,23.27,20.14,22.56,35.47v3.8C298.44,553.41,256.59,569.14,218.25,571ZM255,431.63c1.07-18.83-22.05-18.92-35-18.16-4,.23-15.72.68-19.27,1v43.86q14.2-.48,28.4-1.27c13.34-.69,25.76-7.06,25.85-21.68Zm1,76.49c0-15.43-12.68-21.74-26.87-20.85q-14.19.8-28.4,1.28V536c4.06-.14,17.28-.48,20.79-.62,15-.59,35.21-5.49,34.48-24.42Z" class="cls-2" transform="translate(-150.91 -300.79)"/><path d="M430.67,545.09a243.49,243.49,0,0,1-41.32,9.2c-34.33,5-63.24-7.55-61.85-46.76V376.46a5.85,5.85,0,0,1,5.07-5.64q16.62-1.95,33.21-4a4.38,4.38,0,0,1,5.07,4.42V502.26c0,13.18,4.31,16.7,16.22,15.08q21.82-3,43.6-6.22a4.28,4.28,0,0,1,5.07,4.32V539C435.74,542.31,434.22,543.8,430.67,545.09Z" class="cls-2" transform="translate(-150.91 -300.79)"/><path d="M601.78,519.12q-17.74,2.77-35.49,5.61a4.44,4.44,0,0,1-5.07-3.75l-9.12-40.11-52,8.34q-4.56,21.51-9.13,43a6.61,6.61,0,0,1-5.07,5.36q-17.73,2.8-35.49,5.53c-2.53.38-4.31-.87-4.31-3.4a12,12,0,0,0,.26-1.31q18.9-81.51,37.77-163c4.56-21.3,22.15-31.62,42.08-34.86,18-2.93,37.3.54,41.83,21.42l37.77,151.21a9.92,9.92,0,0,0,.25,1.23A4.73,4.73,0,0,1,601.78,519.12ZM529.54,379.8c-.51-2.46-1-3.64-3.3-3.28s-3,1.76-3.55,4.38q-7.73,36.23-15.46,72.45L545,447.28Q537.26,413.53,529.54,379.8Z" class="cls-2" transform="translate(-150.91 -300.79)"/><path d="M732.08,498.87c-12.07,4.88-25.14,7.15-37.77,9-47.88,7.16-73.12-23.6-75-69.83V406.14c.21-47.07,28.21-85.63,75-91.15,12.25-1.45,25.24-2.54,37.77-.42,3.54.6,5.57,1.38,5.57,4.93v24.59c0,3-1.52,5.24-4.81,5.63l-.76.09c-12.54.42-25.14,1-37.52,2.66-23.95,3.21-31.4,25.37-31.43,47.17v31.95c1.12,20.21,6.42,42.14,31.43,38.51,12.48-1.81,25.06-4.22,37.52-6.72l.76-.09c3.29-.39,4.81,1.47,4.81,4.51v24.59C737.65,495.94,735.62,497.44,732.08,498.87Z" class="cls-2" transform="translate(-150.91 -300.79)"/><path d="M912.06,307.12q-30.48,43.41-60.34,87.22,30.59,44.54,60.59,89.48a4.71,4.71,0,0,1,1,2.79c0,1.52-1.26,2.53-3.54,2.54q-21.82.17-43.61.9c-3,.11-4.31-1.35-5.57-3.33Q835,446.31,809.14,406.13v82.14a5.61,5.61,0,0,1-5.07,5.47q-16.62,1.38-33.21,3a4.51,4.51,0,0,1-5.07-4.56V313.67a5.51,5.51,0,0,1,5.07-5.33q16.6-1.57,33.21-3a4.44,4.44,0,0,1,5.07,4.42v80.62q27.68-43,55.77-85.64a6,6,0,0,1,5.57-3.24q19.39-.68,38.79-.75c2.79,0,4.05,1.26,4.05,2.78A7.49,7.49,0,0,1,912.06,307.12Z" class="cls-2" transform="translate(-150.91 -300.79)"/><path d="M391.53,580.26,365.16,749.75c-1,14.17-13.38,21.08-26.09,22.52-6.47.77-9.7,1.15-16.17,1.88-11.2,1.75-23-2.53-26.09-14.46Q285.6,722.87,274.41,686c-.57-2-1.13-1.93-2.55-1.81s-1.7.15-2.27,2.22q-11.19,38.74-22.4,77.49c-3.53,12.25-13.83,18.15-26.09,18.84-6.47.34-9.7.5-16.16.77-13.08,1.51-24.07-5-26.09-18.43q-13.22-82.82-26.38-165.64V599c0-2.54,2.27-3.3,4.54-3.31q19.29-.07,38.57-.75c2.27-.08,4.25,1.87,4.53,4.65l16.17,135.07c.28,2.27.57,3.27,1.7,3.21.85,0,1.42-1.09,2-3.4q10.23-35.43,20.42-70.87c2.84-9.82,9.93-12.83,17.58-13.43q14.06-1.06,28.08-2.4c7.65-.72,14.74,1.09,17.58,10.43q10.2,33.72,20.42,67.45c.56,2.22,1.13,3.17,2,3.07,1.14-.13,1.42-1.17,1.7-3.48l16.17-137.7c.28-2.82,2.27-5.09,4.53-5.37q19.31-2.4,38.57-5.06c2.27-.31,4.54.14,4.54,2.67Z" class="cls-3" transform="translate(-150.91 -300.79)"/><path d="M536.44,741.36a468.88,468.88,0,0,1-55,12.1c-34.84,5.77-69.5-1.59-68.9-43.94V625.41c-.34-42,32.3-59.17,69.19-64.78a452.86,452.86,0,0,1,54.73-5.47c3.95-.12,5.67.86,5.67,4.16v23.56c0,2.78-2.55,5.47-5.67,6q-28.79,4.64-57.57,9.22c-11.68,1.45-18.36,8-18.15,20.07v23.05q36.75-5.75,73.45-11.69c3.12-.5,5.67,1.37,5.67,4.15v24.07c0,2.79-2.55,5.48-5.67,6q-36.72,5.91-73.45,11.69v26.85c-1.41,11.65,7.53,17.33,18.15,14.38q28.8-4.56,57.57-9.21c3.12-.5,5.67,1.37,5.67,4.16v23.56C542.11,738.42,540.39,740.2,536.44,741.36Z" class="cls-3" transform="translate(-150.91 -300.79)"/><path d="M700.91,716.78a547.87,547.87,0,0,1-55,10.85c-34.77,5.28-69.52-1.53-68.91-43.93V599.6c-.33-41.91,32.15-59.67,69.19-64.8,18.15-2.51,36.4-4.29,54.73-4.22,4,0,5.67,1.06,5.67,4.35v23.56c0,2.79-2.55,5.39-5.67,5.78Q672.1,568,643.35,572.2c-11.7,1.33-18.37,7.89-18.15,19.93v23q36.67-5.48,73.44-10.34c3.12-.4,5.67,1.56,5.67,4.35v24.06c0,2.79-2.55,5.39-5.67,5.79q-36.76,4.82-73.44,10.34v26.85c-1.41,11.65,7.5,17.35,18.15,14.53q28.75-4.15,57.56-7.93c3.12-.4,5.67,1.56,5.67,4.35v23.56C706.58,714,704.86,715.75,700.91,716.78Z" class="cls-3" transform="translate(-150.91 -300.79)"/><path d="M905.94,521.05q-34.14,43.46-67.5,87.52,34.27,44.25,67.78,89a4.38,4.38,0,0,1,1.13,2.78c0,1.52-1.41,2.53-4,2.54-16.26,0-32.52.46-48.77,1.13-3.41.14-4.82-1.31-6.24-3.27Q819.81,660.72,790.8,621v82.07c0,2.79-2.55,5.28-5.67,5.56q-18.58,1.62-37.15,3.62c-3.12.33-5.67-1.66-5.67-4.45V529.44c0-2.78,2.55-5.09,5.67-5.42q18.56-2,37.15-3.63c3.12-.27,5.67,1.54,5.67,4.33v80.56q30.94-43.37,62.39-86.34a7,7,0,0,1,6.24-3.29q21.69-.74,43.39-.93c3.12,0,4.53,1.26,4.53,2.78A7.06,7.06,0,0,1,905.94,521.05Z" class="cls-3" transform="translate(-150.91 -300.79)"/><path d="M392.53,578.26,366.16,747.75c-1,14.17-13.38,21.08-26.09,22.52-6.47.77-9.7,1.15-16.17,1.88-11.2,1.75-23-2.53-26.09-14.46Q286.6,720.87,275.41,684c-.57-2-1.13-1.93-2.55-1.81s-1.7.15-2.27,2.22q-11.19,38.74-22.4,77.49c-3.53,12.25-13.83,18.15-26.09,18.84-6.47.34-9.7.5-16.16.77-13.08,1.51-24.07-5-26.09-18.43q-13.22-82.82-26.38-165.64V597c0-2.54,2.27-3.3,4.54-3.31q19.29-.07,38.57-.75c2.27-.08,4.25,1.87,4.53,4.65l16.17,135.07c.28,2.27.57,3.27,1.7,3.21.85,0,1.42-1.09,2-3.4q10.23-35.43,20.42-70.87c2.84-9.82,9.93-12.83,17.58-13.43q14.06-1.06,28.08-2.4c7.65-.72,14.74,1.09,17.58,10.43q10.2,33.72,20.42,67.45c.56,2.22,1.13,3.17,2,3.07,1.14-.13,1.42-1.17,1.7-3.48l16.17-137.7c.28-2.82,2.27-5.09,4.53-5.37q19.31-2.4,38.57-5.06c2.27-.31,4.54.14,4.54,2.67Z" class="cls-3" transform="translate(-150.91 -300.79)"/><path d="M537.44,739.36a468.88,468.88,0,0,1-55,12.1c-34.84,5.77-69.5-1.59-68.9-43.94V623.41c-.34-42,32.3-59.17,69.19-64.78a452.86,452.86,0,0,1,54.73-5.47c3.95-.12,5.67.86,5.67,4.16v23.56c0,2.78-2.55,5.47-5.67,6q-28.79,4.64-57.57,9.22c-11.68,1.45-18.36,8-18.15,20.07v23.05q36.75-5.75,73.45-11.69c3.12-.5,5.67,1.37,5.67,4.15v24.07c0,2.79-2.55,5.48-5.67,6q-36.72,5.91-73.45,11.69v26.85c-1.41,11.65,7.53,17.33,18.15,14.38q28.8-4.56,57.57-9.21c3.12-.5,5.67,1.37,5.67,4.16v23.56C543.11,736.42,541.39,738.2,537.44,739.36Z" class="cls-3" transform="translate(-150.91 -300.79)"/><path d="M701.91,714.78a547.87,547.87,0,0,1-55,10.85c-34.77,5.28-69.52-1.53-68.91-43.93V597.6c-.33-41.91,32.15-59.67,69.19-64.8,18.15-2.51,36.4-4.29,54.73-4.22,4,0,5.67,1.06,5.67,4.35v23.56c0,2.79-2.55,5.39-5.67,5.78Q673.1,566,644.35,570.2c-11.7,1.33-18.37,7.89-18.15,19.93v23q36.67-5.48,73.44-10.34c3.12-.4,5.67,1.56,5.67,4.35v24.06c0,2.79-2.55,5.39-5.67,5.79q-36.76,4.82-73.44,10.34v26.85c-1.41,11.65,7.5,17.35,18.15,14.53q28.75-4.15,57.56-7.93c3.12-.4,5.67,1.56,5.67,4.35v23.56C707.58,712,705.86,713.75,701.91,714.78Z" class="cls-3" transform="translate(-150.91 -300.79)"/><path d="M906.94,519.05q-34.14,43.46-67.5,87.52,34.27,44.25,67.78,89a4.38,4.38,0,0,1,1.13,2.78c0,1.52-1.41,2.53-4,2.54-16.26,0-32.52.46-48.77,1.13-3.41.14-4.82-1.31-6.24-3.27Q820.81,658.72,791.8,619v82.07c0,2.79-2.55,5.28-5.67,5.56q-18.58,1.62-37.15,3.62c-3.12.33-5.67-1.66-5.67-4.45V527.44c0-2.78,2.55-5.09,5.67-5.42q18.56-2,37.15-3.63c3.12-.27,5.67,1.54,5.67,4.33v80.56q30.94-43.37,62.39-86.34a7,7,0,0,1,6.24-3.29q21.69-.74,43.39-.93c3.12,0,4.53,1.26,4.53,2.78A7.06,7.06,0,0,1,906.94,519.05Z" class="cls-3" transform="translate(-150.91 -300.79)"/><path d="M393.53,576.26,367.16,745.75c-1,14.17-13.38,21.08-26.09,22.52-6.47.77-9.7,1.15-16.17,1.88-11.2,1.75-23-2.53-26.09-14.46Q287.6,718.87,276.41,682c-.57-2-1.13-1.93-2.55-1.81s-1.7.15-2.27,2.22q-11.19,38.74-22.4,77.49c-3.53,12.25-13.83,18.15-26.09,18.84-6.47.34-9.7.5-16.16.77-13.08,1.51-24.07-5-26.09-18.43q-13.22-82.82-26.38-165.64V595c0-2.54,2.27-3.3,4.54-3.31q19.29-.07,38.57-.75c2.27-.08,4.25,1.87,4.53,4.65l16.17,135.07c.28,2.27.57,3.27,1.7,3.21.85,0,1.42-1.09,2-3.4q10.23-35.43,20.42-70.87c2.84-9.82,9.93-12.83,17.58-13.43q14.06-1.06,28.08-2.4c7.65-.72,14.74,1.09,17.58,10.43q10.2,33.72,20.42,67.45c.56,2.22,1.13,3.17,2,3.07,1.14-.13,1.42-1.17,1.7-3.48l16.17-137.7c.28-2.82,2.27-5.09,4.53-5.37q19.31-2.4,38.57-5.06c2.27-.31,4.54.14,4.54,2.67Z" class="cls-3" transform="translate(-150.91 -300.79)"/><path d="M538.44,737.36a468.88,468.88,0,0,1-55,12.1c-34.84,5.77-69.5-1.59-68.9-43.94V621.41c-.34-42,32.3-59.17,69.19-64.78a452.86,452.86,0,0,1,54.73-5.47c3.95-.12,5.67.86,5.67,4.16v23.56c0,2.78-2.55,5.47-5.67,6q-28.79,4.64-57.57,9.22c-11.68,1.45-18.36,8-18.15,20.07v23.05q36.75-5.75,73.45-11.69c3.12-.5,5.67,1.37,5.67,4.15v24.07c0,2.79-2.55,5.48-5.67,6q-36.72,5.91-73.45,11.69v26.85c-1.41,11.65,7.53,17.33,18.15,14.38q28.8-4.56,57.57-9.21c3.12-.5,5.67,1.37,5.67,4.16v23.56C544.11,734.42,542.39,736.2,538.44,737.36Z" class="cls-3" transform="translate(-150.91 -300.79)"/><path d="M702.91,712.78a547.87,547.87,0,0,1-55,10.85c-34.77,5.28-69.52-1.53-68.91-43.93V595.6c-.33-41.91,32.15-59.67,69.19-64.8,18.15-2.51,36.4-4.29,54.73-4.22,4,0,5.67,1.06,5.67,4.35v23.56c0,2.79-2.55,5.39-5.67,5.78Q674.1,564,645.35,568.2c-11.7,1.33-18.37,7.89-18.15,19.93v23q36.67-5.48,73.44-10.34c3.12-.4,5.67,1.56,5.67,4.35v24.06c0,2.79-2.55,5.39-5.67,5.79q-36.76,4.82-73.44,10.34v26.85c-1.41,11.65,7.5,17.35,18.15,14.53q28.75-4.15,57.56-7.93c3.12-.4,5.67,1.56,5.67,4.35v23.56C708.58,710,706.86,711.75,702.91,712.78Z" class="cls-3" transform="translate(-150.91 -300.79)"/><path d="M907.94,517.05q-34.14,43.46-67.5,87.52,34.27,44.25,67.78,89a4.38,4.38,0,0,1,1.13,2.78c0,1.52-1.41,2.53-4,2.54-16.26,0-32.52.46-48.77,1.13-3.41.14-4.82-1.31-6.24-3.27Q821.81,656.72,792.8,617v82.07c0,2.79-2.55,5.28-5.67,5.56q-18.58,1.62-37.15,3.62c-3.12.33-5.67-1.66-5.67-4.45V525.44c0-2.78,2.55-5.09,5.67-5.42q18.56-2,37.15-3.63c3.12-.27,5.67,1.54,5.67,4.33v80.56q30.94-43.37,62.39-86.34a7,7,0,0,1,6.24-3.29q21.69-.73,43.39-.93c3.12,0,4.53,1.26,4.53,2.78A7.06,7.06,0,0,1,907.94,517.05Z" class="cls-3" transform="translate(-150.91 -300.79)"/><path d="M394.53,574.26,368.16,743.75c-1,14.17-13.38,21.08-26.09,22.52-6.47.77-9.7,1.15-16.17,1.88-11.2,1.75-23-2.53-26.09-14.46Q288.6,716.87,277.41,680c-.57-2-1.13-1.93-2.55-1.81s-1.7.15-2.27,2.22q-11.19,38.74-22.4,77.49c-3.53,12.25-13.83,18.15-26.09,18.84-6.47.34-9.7.5-16.16.77-13.08,1.51-24.07-5-26.09-18.43q-13.22-82.82-26.38-165.64V593c0-2.54,2.27-3.3,4.54-3.31q19.29-.07,38.57-.75c2.27-.08,4.25,1.87,4.53,4.65l16.17,135.07c.28,2.27.57,3.27,1.7,3.21.85,0,1.42-1.09,2-3.4q10.23-35.43,20.42-70.87c2.84-9.82,9.93-12.83,17.58-13.43q14.06-1.06,28.08-2.4c7.65-.72,14.74,1.09,17.58,10.43q10.2,33.72,20.42,67.45c.56,2.22,1.13,3.17,2,3.07,1.14-.13,1.42-1.17,1.7-3.48l16.17-137.7c.28-2.82,2.27-5.09,4.53-5.37q19.31-2.4,38.57-5.06c2.27-.31,4.54.14,4.54,2.67Z" class="cls-3" transform="translate(-150.91 -300.79)"/><path d="M539.44,735.36a468.88,468.88,0,0,1-55,12.1c-34.84,5.77-69.5-1.59-68.9-43.94V619.41c-.34-42,32.3-59.17,69.19-64.78a453.06,453.06,0,0,1,54.73-5.47c3.95-.11,5.67.86,5.67,4.16v23.56c0,2.78-2.55,5.47-5.67,6q-28.79,4.64-57.57,9.22c-11.68,1.45-18.36,8-18.15,20.07v23.05q36.75-5.75,73.45-11.69c3.12-.5,5.67,1.37,5.67,4.15v24.07c0,2.79-2.55,5.48-5.67,6q-36.72,5.91-73.45,11.69v26.85c-1.41,11.65,7.53,17.33,18.15,14.38q28.8-4.56,57.57-9.21c3.12-.5,5.67,1.37,5.67,4.16v23.56C545.11,732.42,543.39,734.2,539.44,735.36Z" class="cls-3" transform="translate(-150.91 -300.79)"/><path d="M703.91,710.78a547.87,547.87,0,0,1-55,10.85c-34.77,5.28-69.52-1.53-68.91-43.93V593.6c-.33-41.91,32.15-59.67,69.19-64.8,18.15-2.51,36.4-4.28,54.73-4.22,4,0,5.67,1.06,5.67,4.35v23.56c0,2.79-2.55,5.39-5.67,5.78Q675.1,562,646.35,566.2c-11.7,1.33-18.37,7.89-18.15,19.93v23q36.67-5.48,73.44-10.34c3.12-.4,5.67,1.56,5.67,4.35v24.06c0,2.79-2.55,5.39-5.67,5.79q-36.76,4.82-73.44,10.34v26.85c-1.41,11.65,7.5,17.35,18.15,14.53q28.75-4.15,57.56-7.93c3.12-.4,5.67,1.56,5.67,4.35v23.56C709.58,708,707.86,709.75,703.91,710.78Z" class="cls-3" transform="translate(-150.91 -300.79)"/><path d="M908.94,515.05q-34.14,43.46-67.5,87.52,34.27,44.25,67.78,89a4.38,4.38,0,0,1,1.13,2.78c0,1.52-1.41,2.53-4,2.54-16.26,0-32.52.46-48.77,1.13-3.41.14-4.82-1.31-6.24-3.27Q822.81,654.72,793.8,615v82.07c0,2.79-2.55,5.28-5.67,5.56q-18.58,1.62-37.15,3.62c-3.12.33-5.67-1.66-5.67-4.45V523.44c0-2.78,2.55-5.09,5.67-5.42q18.56-2,37.15-3.63c3.12-.27,5.67,1.54,5.67,4.33v80.56q30.94-43.37,62.39-86.34a7,7,0,0,1,6.24-3.29q21.69-.73,43.39-.93c3.12,0,4.53,1.26,4.53,2.78A7.06,7.06,0,0,1,908.94,515.05Z" class="cls-3" transform="translate(-150.91 -300.79)"/><path d="M395.53,572.27,369.16,741.75c-1,14.17-13.38,21.08-26.09,22.52-6.47.77-9.7,1.15-16.17,1.88-11.2,1.75-23-2.53-26.09-14.46Q289.6,714.87,278.41,678c-.57-2-1.13-1.93-2.55-1.81s-1.7.15-2.27,2.22q-11.19,38.74-22.4,77.49c-3.53,12.25-13.83,18.15-26.09,18.84-6.47.34-9.7.5-16.16.77-13.08,1.51-24.07-5-26.09-18.43q-13.22-82.82-26.38-165.64V591c0-2.54,2.27-3.3,4.54-3.31q19.29-.07,38.57-.75c2.27-.08,4.25,1.87,4.53,4.65l16.17,135.07c.28,2.27.57,3.27,1.7,3.21.85,0,1.42-1.09,2-3.4q10.23-35.43,20.42-70.87c2.84-9.82,9.93-12.83,17.58-13.43q14.06-1.06,28.08-2.4c7.65-.72,14.74,1.09,17.58,10.43q10.2,33.72,20.42,67.45c.56,2.22,1.13,3.17,2,3.07,1.14-.13,1.42-1.17,1.7-3.48l16.17-137.7c.28-2.82,2.27-5.09,4.53-5.37q19.31-2.4,38.57-5.06c2.27-.31,4.54.14,4.54,2.67Z" class="cls-3" transform="translate(-150.91 -300.79)"/><path d="M540.44,733.36a468.88,468.88,0,0,1-55,12.1c-34.84,5.77-69.5-1.59-68.9-43.94V617.41c-.34-42,32.3-59.17,69.19-64.78a453.06,453.06,0,0,1,54.73-5.47c3.95-.11,5.67.86,5.67,4.16v23.56c0,2.78-2.55,5.47-5.67,6q-28.79,4.64-57.57,9.22c-11.68,1.45-18.36,8-18.15,20.07v23.05q36.75-5.75,73.45-11.69c3.12-.5,5.67,1.37,5.67,4.15v24.07c0,2.79-2.55,5.48-5.67,6q-36.72,5.91-73.45,11.69v26.85c-1.41,11.65,7.53,17.33,18.15,14.38q28.8-4.56,57.57-9.21c3.12-.5,5.67,1.37,5.67,4.16v23.56C546.11,730.42,544.39,732.2,540.44,733.36Z" class="cls-3" transform="translate(-150.91 -300.79)"/><path d="M704.91,708.78a547.87,547.87,0,0,1-55,10.85c-34.77,5.28-69.52-1.53-68.91-43.93V591.6c-.33-41.91,32.15-59.67,69.19-64.8,18.15-2.51,36.4-4.28,54.73-4.22,4,0,5.67,1.06,5.67,4.35v23.56c0,2.79-2.55,5.39-5.67,5.78Q676.1,560,647.35,564.2c-11.7,1.33-18.37,7.89-18.15,19.93v23q36.67-5.48,73.44-10.34c3.12-.4,5.67,1.56,5.67,4.35v24.06c0,2.79-2.55,5.39-5.67,5.79q-36.76,4.82-73.44,10.34v26.85c-1.41,11.65,7.5,17.35,18.15,14.53q28.75-4.15,57.56-7.93c3.12-.4,5.67,1.56,5.67,4.35v23.56C710.58,706,708.86,707.75,704.91,708.78Z" class="cls-3" transform="translate(-150.91 -300.79)"/><path d="M909.94,513.05q-34.14,43.46-67.5,87.52,34.27,44.25,67.78,89a4.38,4.38,0,0,1,1.13,2.78c0,1.52-1.41,2.53-4,2.54-16.26,0-32.52.46-48.77,1.13-3.41.14-4.82-1.31-6.24-3.27Q823.81,652.72,794.8,613v82.07c0,2.79-2.55,5.28-5.67,5.56q-18.58,1.62-37.15,3.62c-3.12.33-5.67-1.66-5.67-4.45V521.44c0-2.78,2.55-5.09,5.67-5.42q18.56-2,37.15-3.63c3.12-.27,5.67,1.54,5.67,4.33v80.56q30.94-43.37,62.39-86.34a7,7,0,0,1,6.24-3.29q21.69-.73,43.39-.93c3.12,0,4.53,1.26,4.53,2.78A7.06,7.06,0,0,1,909.94,513.05Z" class="cls-3" transform="translate(-150.91 -300.79)"/><path d="M397,571.62,370.63,741.11c-1,14.17-13.38,21.08-26.09,22.52-6.47.77-9.7,1.15-16.17,1.88-11.2,1.75-23-2.53-26.09-14.46q-11.2-36.82-22.4-73.65c-.57-2-1.13-1.93-2.55-1.81s-1.7.15-2.27,2.22q-11.19,38.75-22.4,77.48c-3.53,12.25-13.83,18.15-26.09,18.85-6.47.34-9.7.5-16.17.76-13.07,1.52-24.06-5-26.08-18.42q-13.22-82.82-26.38-165.64v-.51c0-2.53,2.27-3.29,4.54-3.3q19.29-.07,38.57-.75c2.27-.08,4.25,1.87,4.53,4.65L221.75,726c.28,2.27.56,3.27,1.7,3.21.85-.05,1.42-1.09,2-3.4q10.23-35.43,20.42-70.88c2.84-9.81,9.93-12.83,17.58-13.42q14.06-1.08,28.08-2.41c7.65-.71,14.74,1.1,17.58,10.43q10.2,33.74,20.42,67.46c.56,2.22,1.13,3.17,2,3.07,1.14-.13,1.42-1.18,1.7-3.49l16.17-137.69c.28-2.83,2.27-5.09,4.53-5.37q19.31-2.4,38.57-5.06c2.27-.31,4.54.13,4.54,2.67Z" class="cls-4" transform="translate(-150.91 -300.79)"/><path d="M541.91,732.72a473,473,0,0,1-55,12.1c-34.84,5.77-69.5-1.59-68.91-44v-84.1c-.33-42,32.31-59.17,69.2-64.78a452.86,452.86,0,0,1,54.73-5.47c4-.12,5.67.86,5.67,4.15v23.56c0,2.79-2.55,5.48-5.67,6q-28.78,4.63-57.57,9.21c-11.68,1.46-18.36,8-18.15,20.08v23q36.75-5.74,73.45-11.69c3.12-.51,5.67,1.36,5.67,4.15v24.07c0,2.78-2.55,5.47-5.67,6q-36.72,5.9-73.45,11.69V693.6c-1.41,11.65,7.53,17.33,18.15,14.38q28.8-4.56,57.57-9.21c3.12-.5,5.67,1.37,5.67,4.15v23.56C547.58,729.78,545.86,731.56,541.91,732.72Z" class="cls-4" transform="translate(-150.91 -300.79)"/><path d="M706.38,708.14a550.69,550.69,0,0,1-55,10.85c-34.77,5.28-69.52-1.53-68.91-43.93V591c-.33-41.9,32.15-59.67,69.19-64.79,18.15-2.51,36.4-4.29,54.73-4.22,4,0,5.67,1,5.67,4.35v23.56c0,2.78-2.55,5.38-5.67,5.78q-28.82,3.75-57.56,7.93c-11.7,1.33-18.37,7.89-18.15,19.92v23.06q36.68-5.49,73.44-10.34c3.12-.4,5.67,1.56,5.67,4.34v24.07c0,2.79-2.55,5.39-5.67,5.79q-36.78,4.82-73.44,10.34v26.85c-1.41,11.64,7.5,17.35,18.15,14.53q28.75-4.15,57.56-7.93c3.12-.4,5.67,1.56,5.67,4.35V702.1C712.05,705.39,710.33,707.11,706.38,708.14Z" class="cls-4" transform="translate(-150.91 -300.79)"/><path d="M911.41,512.4q-34.14,43.47-67.5,87.53,34.27,44.24,67.78,89.05a4.38,4.38,0,0,1,1.13,2.78c0,1.52-1.41,2.53-4,2.54-16.26,0-32.52.46-48.77,1.13-3.41.14-4.82-1.31-6.24-3.28q-28.56-40.06-57.57-79.81v82.08c0,2.79-2.55,5.28-5.67,5.55Q772,701.6,753.45,703.6c-3.12.33-5.67-1.67-5.67-4.45V520.8c0-2.78,2.55-5.09,5.67-5.43q18.56-2,37.15-3.62c3.12-.27,5.67,1.54,5.67,4.33v80.56q30.93-43.36,62.39-86.34A7,7,0,0,1,864.9,507q21.69-.74,43.39-.93c3.12,0,4.53,1.26,4.53,2.78A7,7,0,0,1,911.41,512.4Z" class="cls-4" transform="translate(-150.91 -300.79)"/></svg>