<?xml version="1.0" encoding="UTF-8"?>
<svg id="Capa_1" data-name="Capa 1" xmlns="http://www.w3.org/2000/svg" viewBox="0 0 1075.84 923.12">
  <defs>
    <style>
      .cls-1 {
        fill: #6aa6d8;
      }

      .cls-1, .cls-2, .cls-3 {
        stroke-width: 0px;
      }

      .cls-2 {
        fill: #232b4b;
      }

      .cls-3 {
        fill: #fff;
      }
    </style>
  </defs>
  <path class="cls-3" d="m1002.81,96.33l-.03-.04c-.83-.98-20.63-24.16-55.39-47.58C901.24,17.59,850.2.76,799.81.03c-88.84-1.3-176.17,45.18-259.67,138.12-1.33,1.48-2.69,2.98-4.09,4.53L404.03,10.66c-8.31-8.31-21.83-8.31-30.14,0l-3.46,3.46c-3.11,1.65-5.94,3.75-8.44,6.24L50.03,332.33c-.85.7-1.61,1.41-2.31,2.15l-3.41,3.57-29.99,29.99c-2.17,2.17-4.05,4.62-5.6,7.3l-.86.9c-10.68,11.19-10.45,29.17.52,40.08l501.23,498.49c5.47,5.45,12.79,8.32,20.21,8.32,3.5,0,7.03-.64,10.4-1.95,6.7-1.45,12.76-4.74,17.62-9.61l132.14-132.14c1.02-.71,1.97-1.51,2.85-2.4l227.68-227.68c.53-.53,1.02-1.09,1.46-1.69,14.69-11.57,47.22-39.11,78.71-78.76,42.98-54.1,67.79-109.78,73.76-165.5,7.68-71.78-16.42-141.44-71.63-207.06Z"/>
  <g>
    <path class="cls-3" d="m25.4,378.07c-1.71,1.71-3.05,3.63-4.06,5.68l34.16-35.79-30.1,30.1Z"/>
    <path class="cls-3" d="m673.77,766.99L161.27,254.48c-2.78-2.78-2.78-7.29,0-10.08L379.82,25.86c-2.45,1.05-4.75,2.55-6.75,4.55L60.59,342.89c5.67-4.44,13.91-4.08,19.14,1.18l498.51,501.25c5.52,5.55,5.62,14.49.22,20.16l-37.14,38.99c-1.25,1.31-2.68,2.32-4.22,3.05,4.3-.69,8.44-2.67,11.75-5.99l133.26-133.26c-2.69,1.41-6.08.98-8.34-1.28Z"/>
    <path class="cls-1" d="m518.51,901.52L25.4,408.42c-6.67-6.67-8.01-16.64-4.06-24.66l-2.17,2.27c-5.43,5.69-5.31,14.68.26,20.23l501.23,498.49c4.46,4.44,11.08,5.34,16.43,2.77-6.57,1.06-13.53-.93-18.59-5.99Z"/>
    <path class="cls-1" d="m59.03,344.28l-3.53,3.69,5.08-5.08c-.54.43-1.07.88-1.56,1.39Z"/>
    <path class="cls-1" d="m578.46,865.47c5.4-5.67,5.3-14.61-.22-20.16L79.73,344.06c-5.23-5.26-13.47-5.62-19.14-1.18l-5.08,5.08-34.16,35.79c-3.96,8.02-2.62,17.99,4.06,24.66l493.11,493.11c5.06,5.06,12.03,7.05,18.59,5.99,1.54-.74,2.98-1.74,4.22-3.05l37.14-38.99Z"/>
    <path class="cls-1" d="m403.42,30.41l133.49,133.49c.22-.23.43-.47.65-.7L395.05,20.7c-2.78-2.78-7.29-2.78-10.08,0l-5.16,5.16c7.82-3.34,17.22-1.83,23.6,4.55Z"/>
    <path class="cls-1" d="m911.69,538.68l-229.58,229.58c.62-.33,1.21-.75,1.74-1.28l227.69-227.69c.28-.28.42-.64.43-1.01-.13.1-.25.2-.38.29l.1.1Z"/>
    <path class="cls-1" d="m911.59,538.58c-2.64,2.04-4.12,3.09-4.12,3.09l-239.49-239.49-1.37,1.27-85.31,79.22c-36.11,33.53-84.35,51.7-133.5,48.2-64.21-4.57-100.37-45.71-110.45-59-1.75-2.31-1.51-5.54.54-7.59l168.65-168.65c8.46-8.46,16.75-17.11,24.92-25.85,1.83-1.95,3.63-3.93,5.45-5.89L403.42,30.41c-6.38-6.38-15.78-7.89-23.6-4.55l-218.55,218.55c-2.78,2.78-2.78,7.29,0,10.08l512.51,512.51c2.26,2.26,5.65,2.68,8.34,1.28l229.58-229.58-.1-.1Z"/>
    <path class="cls-2" d="m993,105.47s-195.76-231.11-441.26,42.16c-4.69,5.22-9.43,10.41-14.2,15.57l373.98,373.98c.3.3.44.71.43,1.11,35.34-27.31,262.93-216.66,81.04-432.82Z"/>
    <path class="cls-2" d="m911.54,537.18l-373.98-373.98c-.21.23-.43.47-.65.7l374.68,374.68c.12-.09.25-.19.38-.29.01-.4-.12-.8-.43-1.11Z"/>
    <path class="cls-2" d="m506.54,195.64l-168.65,168.65c-2.05,2.05-2.29,5.28-.54,7.59,10.08,13.29,46.24,54.43,110.45,59,49.15,3.5,97.39-14.68,133.5-48.2l85.31-79.22,1.37-1.27,239.49,239.49s1.47-1.06,4.12-3.09l-374.68-374.68c-1.82,1.96-3.62,3.94-5.45,5.89-8.17,8.75-16.45,17.39-24.92,25.85Z"/>
  </g>
</svg>