<?xml version="1.0" encoding="utf-8"?>
<!-- Generator: Adobe Illustrator 27.9.3, SVG Export Plug-In . SVG Version: 9.03 Build 53313)  -->
<svg version="1.1" id="Capa_1" xmlns="http://www.w3.org/2000/svg" xmlns:xlink="http://www.w3.org/1999/xlink" x="0px" y="0px"
	 viewBox="0 0 1080 1080" style="enable-background:new 0 0 1080 1080;" xml:space="preserve">
<style type="text/css">
	.st0{fill:#6AA6D8;}
	.st1{fill:#232B4B;}
</style>
<g>
	<g>
		<path class="st0" d="M66.6,418.9c-5.9-5.9-15.6-5.8-21.3,0.2l-41.1,43c-5.6,5.9-5.5,15.1,0.3,20.9l516.8,513.9
			c5.9,5.9,15.5,5.8,21.3-0.3l38.3-40.2c5.6-5.8,5.5-15.1-0.2-20.8L66.6,418.9z"/>
	</g>
	<path class="st0" d="M924.2,620.1L689,855.3c-2.6,2.6-6.9,2.6-9.6,0L150.2,326.1c-2.6-2.6-2.6-6.9,0-9.6L381.7,85.1
		c2.6-2.6,6.9-2.6,9.6,0l533,533C924.8,618.6,924.8,619.5,924.2,620.1z"/>
	<path class="st1" d="M1008.2,172.9c0,0-201.8-238.3-454.9,43.5c-6.9,7.7-13.9,15.3-20.9,22.8c-8.4,9-17,17.9-25.7,26.7L332.7,439.7
		c-2.1,2.1-2.4,5.4-0.6,7.8c10.4,13.7,47.7,56.1,113.9,60.8c50.7,3.6,100.4-15.1,137.6-49.7l88-81.7l1.4-1.3L920,622.6
		C920,622.6,1211,413.9,1008.2,172.9z"/>
</g>
</svg>
