<svg xmlns="http://www.w3.org/2000/svg" id="Capa_2" viewBox="0 0 418.27 511.81"><defs><style>.cls-1{fill:#060504}.cls-2{fill:#5fa3fd}.cls-3{fill:#fdd2bd}.cls-4{fill:#020202}.cls-5{fill:#b8dccc}.cls-6{fill:#b8dbcb}.cls-7{fill:#030303}.cls-8{fill:#c1e6d5}.cls-9{fill:#fdbf59}.cls-10{fill:#77cda7}</style></defs><g id="Capa_1-2"><g><g><path d="M57.91,298.93c-8.05-2.13-9.99-4.64-10.01-12.98-.02-8.66-.19-17.33,.09-25.98,.12-3.62-1.08-4.39-4.47-4.32-10.49,.22-20.99,.02-31.48,.1-5.09,.04-9.17-1.43-11.25-6.48-2.03-4.92,.15-8.59,3.44-12.09,26.9-28.66,53.74-57.37,80.62-86.05,5.91-6.31,11.53-6.33,17.46-.03,14.6,15.53,29.15,31.12,43.73,46.67,1.1,1.17,2.29,2.24,3.47,3.39,1.41-1.16,.81-2.58,.81-3.79,.04-31.98-.05-63.96,.14-95.94,.02-3.86-1.05-4.66-4.68-4.55-9.32,.27-18.65,.14-27.98,.08-15.02-.1-25.77-10.78-25.86-25.8-.09-14.66-.04-29.32-.01-43.97,.02-13.22,5.26-20.97,17.62-26.07,.62-.25,1.27-.34,1.44-1.12H393.86c.34,.3,.63,.76,1.03,.87,12.17,3.47,19.02,12.15,19.12,24.73,.12,15.32,.15,30.65-.01,45.97-.15,14.77-10.9,25.27-25.73,25.38-10.33,.07-20.66,.25-30.98-.1-4.14-.14-4.75,1.32-4.74,4.99,.11,46.64,.12,93.28,0,139.91-.01,4.21,1.03,7.55,3.58,10.93,17.85,23.64,35.59,47.35,53.21,71.16,11.48,15.51,11.87,34.26,1.37,50.36-11.26,17.27-22.55,34.52-33.79,51.81-1.31,2.01-3.15,3.87-2.75,6.78,2.26,0,4.42,0,6.58,0,10.55,0,13.52,3.01,13.52,13.74,.01,16.99-.2,33.98,.11,50.97,.11,6.08-1.33,10.9-6.52,14.3H234.92c-5.1-3.46-6.51-8.25-6.4-14.33,.33-17.32,.1-34.65,.12-51.97,.01-9.46,3.21-12.68,12.5-12.71q9.66-.03,9.66-9.94c0-31.82-.08-63.64,.1-95.45,.02-4.04-.81-5.33-5.1-5.29-27.32,.21-54.64,.11-81.96,.1-10.37,0-13.49-3.07-13.5-13.31-.02-16.16-.17-32.32,.11-48.47,.07-4.11-1.27-4.88-5-4.79-9.24,.23-9.25,.06-9.25,9.5,0,39.81,0,79.63,0,119.44,0,10.47-2.9,13.39-13.27,13.39-20.99,0-41.98,.02-62.97,0-8.69,0-12.02-3.37-12.06-12.09-.03-5.83-.04-11.66,0-17.49,.05-7.43,2.62-10.45,9.98-11.83,7.25,1.45,9.91,4.61,10.01,11.94,.03,1.83,.2,3.69-.04,5.49-.46,3.4,1.01,4.11,4.17,4.07,12.99-.16,25.98-.32,38.96,.06,4.64,.14,5.33-1.39,5.32-5.56-.15-41.46-.11-82.92-.08-124.38,0-8.92,3.51-12.39,12.4-12.44,8.09-.04,16.18,0,24.61,0-.38-.9-.45-1.41-.74-1.72-18.86-20.2-37.8-40.33-56.56-60.62-2.68-2.9-3.68-.93-5.26,.75-18.08,19.33-36.19,38.64-54.26,58-.83,.89-2.25,1.5-2.08,3.03,.16,.22,.26,.46,.35,.46,6.99,.05,13.98,.05,20.98,.11,8.59,.07,12.19,3.6,12.22,12.11,.04,12.65,.02,25.31,0,37.96-.01,8.19-2.09,10.9-9.99,13.12ZM252.25,62.3c-17.98,0-35.99,.63-53.93-.25-9.9-.49-16.94,2.85-22.87,10.06-.53,.64-1.1,1.25-1.7,1.83-2.68,2.57-3.55,5.6-3.5,9.37,.2,16.15,1.22,32.4-.26,48.42-1.29,13.99,4.66,22.68,15.12,29.9,.55,.38,1.06,.81,1.61,1.18,26.99,18.56,56.8,23.32,88.53,17.5,20.42-3.74,38.49-12.39,53.17-27.47,2.93-3.01,4.37-6.14,4.31-10.56-.27-18.64-.54-37.31,.09-55.93,.26-7.68-2.2-13.09-7.88-17.59-.91-.72-1.8-1.49-2.6-2.33-3.06-3.2-6.65-4.28-11.16-4.22-19.64,.23-39.29,.1-58.94,.1Zm64.11,211.89c4.27-2.6,8.19-4.95,12.56-5.88,3.29-.71,3.72-2.39,3.72-5.24-.06-27.66-.01-55.31-.04-82.97,0-1.01,.66-2.38-.25-2.75-54.41,34.24-108.07,34.15-162.04-.84,0,9.31,.79,18.67-.19,27.84-.32,13.98,1.83,24.65,12.93,33.16,3.89,2.98,5.2,7.33,3.16,12.09-2.05,4.78-6.11,6.13-10.99,6.21-1.78,.03-5.26-1.41-4.74,2.26,.48,3.38-3.1,8.08,3.05,10.04,15.5,4.94,25.9,15.24,30.89,30.75,.8,2.49,1.78,3.42,4.43,3.39,12.66-.13,25.33-.19,37.98,.02,3.53,.06,4.09-1.34,4.03-4.38-.15-7.49-.22-15,.06-22.49,.6-16.16,14.59-29.93,30.73-30.51,17.65-.64,30.14,9.75,34.71,29.29Zm-.04,0c4.27-2.6,8.19-4.95,12.56-5.88,3.29-.71,3.72-2.39,3.72-5.24-.06-27.66-.01-55.31-.04-82.97,0-1.01,.66-2.38-.25-2.75-54.41,34.24-108.07,34.15-162.04-.84,0,9.31-.39,18.46-.19,27.84-.32,13.98,1.83,24.65,12.93,33.16,3.89,2.98,5.2,7.33,3.16,12.09-2.09,5.14-4.12,6.3-10.99,6.21-3.32-.22-5.81-.92-6,2.51-.05,3.39-1.11,8.08,4.31,9.78,15.5,4.94,25.9,15.24,30.89,30.75,.8,2.49,1.78,3.42,4.43,3.39,12.66-.13,25.33-.19,37.98,.02,3.53,.06,4.09-1.34,4.03-4.38-.15-7.49-.22-15,.06-22.49,.6-16.16,14.59-29.93,30.73-30.51,17.65-.64,30.14,9.75,34.71,29.29Zm37.36,8.54l-1.06,.38c0,1.63,0,3.25,0,4.88-.01,18.33,.08,36.65-.08,54.98-.14,15.76-10.89,27.93-25.31,29.03-17.65,1.35-30.94-11.09-31.04-29.31-.12-21.66,.05-43.32-.1-64.97-.05-7.7-5.7-12.99-12.98-12.83-7.06,.16-12.25,5.44-12.26,13.02-.06,50.48-.02,100.96-.08,151.44,0,2.37,.3,3.54,3.16,3.53,25.32-.11,50.65-.1,75.97-.01,2.47,0,3.52-.71,3.95-3.2,.94-5.49,3.45-10.33,6.5-14.97,11.34-17.23,22.57-34.53,33.82-51.82,5.71-8.78,5.27-17.56-.28-26.2-1.62-2.51-3.51-4.85-5.31-7.25-11.63-15.56-23.27-31.12-34.9-46.68ZM253.22,20c-43.98,0-87.95,0-131.93,0-1.33,0-2.67-.06-4,.03-3.32,.21-5.33,1.95-5.34,5.34-.06,15.33-.05,30.65-.02,45.98,0,3.63,2.02,5.57,5.6,5.59,9.99,.07,19.99,0,29.98,.05,1.7,0,2.59-.28,2.85-2.36,1.45-11.61,.93-12.3-10.56-12.31-1,0-2,.03-3-.01-6.21-.25-10.46-4.12-10.61-9.66-.15-5.44,4-9.67,10.14-10.26,1.16-.11,2.33-.07,3.5-.07,75.46,0,150.92,0,226.38,.01,1.82,0,3.68,.07,5.46,.43,4.92,1,8.25,5.22,8.08,9.96-.18,5.03-3.98,9.04-9.18,9.48-2.48,.21-4.99,.11-7.49,.11-10.7,0-10.58,0-10.53,10.83,.01,3.04,.76,3.97,3.88,3.91,10.16-.2,20.32-.05,30.48-.09,5.56-.02,7.08-1.53,7.09-7.12,.04-13.83,.02-27.65,.01-41.48,0-7.3-1.07-8.36-8.37-8.36-44.14,0-88.29,0-132.43,0Zm62.91,314.18c0,2.99-.1,5.99,.02,8.98,.23,5.55,3.23,8.85,7.99,8.97,5,.12,8.26-3.23,8.43-9.02,.16-5.65-.18-11.32,.12-16.96,.18-3.53-1.29-4.03-4.35-4.04-12.21-.02-12.21-.12-12.2,12.07Zm-139.19-31.9c1.72,0,3.05-.08,4.37,.02,2.87,.21,3.12-.83,1.72-3.09-2.49-4.03-5.63-7.34-9.8-9.63-.96-.53-2.54-1.6-2.71,.13-.38,3.76-.84,7.8,.15,11.33,.78,2.78,4.42,.56,6.28,1.24Zm141.88-.53c13.39,1.91,14.74,.86,13.8-10.45-.01-.16-.01-.33,0-.5,.12-1.96-.88-2.47-2.42-1.57-5.08,2.94-9.21,6.76-11.37,12.52Z" class="cls-4"/><path d="M57.91,298.93c7.9-2.22,9.97-4.93,9.99-13.12,.02-12.65,.04-25.31,0-37.96-.03-8.5-3.63-12.04-12.22-12.11-6.99-.06-13.98-.06-20.98-.11-.1,0-.19-.24-.35-.46-.18-1.53,1.25-2.15,2.08-3.03,18.06-19.35,36.17-38.66,54.26-58,1.58-1.68,2.57-3.66,5.26-.75,18.75,20.3,37.69,40.43,56.56,60.62,.29,.31,.36,.82,.74,1.72-8.43,0-16.52-.03-24.61,0-8.89,.04-12.4,3.52-12.4,12.44-.03,41.46-.07,82.92,.08,124.38,.02,4.17-.68,5.69-5.32,5.56-12.98-.38-25.97-.23-38.96-.06-3.16,.04-4.62-.67-4.17-4.07,.24-1.8,.06-3.66,.04-5.49-.1-7.32-2.76-10.48-10.01-11.94,0-6.17,.01-12.34,.02-18.51,6.44-1.41,9.81-4.76,9.95-9.88,.14-5.23-3.28-8.82-9.94-10.42v-18.82Z" class="cls-9"/><path d="M57.9,317.75c6.66,1.6,10.08,5.19,9.94,10.42-.14,5.12-3.5,8.47-9.95,9.88-6.8-1.36-9.98-4.6-9.96-10.13,.02-5.53,3.09-8.67,9.97-10.17Z" class="cls-1"/><path d="M252.25,62.3c19.65,0,39.29,.13,58.94-.1,4.5-.05,8.1,1.02,11.16,4.22,.8,.84,1.69,1.61,2.6,2.33,5.69,4.5,8.15,9.91,7.88,17.59-.64,18.63-.36,37.29-.09,55.93,.06,4.42-1.37,7.55-4.31,10.56-14.69,15.08-32.76,23.73-53.17,27.47-31.74,5.82-61.54,1.06-88.53-17.5-.55-.38-1.06-.81-1.61-1.18-10.46-7.22-16.41-15.91-15.12-29.9,1.47-16.01,.46-32.27,.26-48.42-.05-3.77,.82-6.8,3.5-9.37,.6-.58,1.17-1.19,1.7-1.83,5.93-7.21,12.97-10.55,22.87-10.06,17.94,.88,35.95,.25,53.93,.25Zm17.62,44.53q9.15,0,9.15,9.09c0,1.83-.11,3.67,.02,5.49,.17,2.33-.84,3.07-3.11,3.41-6.68,1-10.17,5.29-9.41,11.06,.75,5.71,5.46,9.27,11.93,8.74,9.3-.76,16.06-5.35,19.25-14.22,1.12-3.11,1.99-4.78,5.83-4.91,5.73-.19,9.59-5.06,9.29-10.36-.3-5.23-4.19-9.22-9.86-9.22-3.15,0-4.12-1.22-4.95-3.95-2.84-9.29-10.43-14.93-20-15.11-5.33-.1-10.66-.1-15.99,0-11.54,.24-20.45,8.93-20.99,20.51-.18,3.99-.3,8.01,.01,11.99,.31,4-.77,5.52-5.13,5.45-12.04-.21-11.96-.01-12.09-11.95-.04-3.53,.04-6.03,4.56-6.94,4.91-1,7.31-5.78,6.58-10.83-.67-4.58-4.44-7.92-9.28-8.21-8.92-.55-17.84,5.42-20.57,14.33-1.01,3.31-2.13,4.84-5.9,4.76-4.73-.1-7.63,3.03-8.79,7.47-1.14,4.35,.39,9.62,4.13,10.09,8.75,1.1,10.73,7.83,14.55,13.52,2.65,3.94,6.96,6.03,11.7,7.04,3.64,.77,7.31,.32,10.95,.63,18.47,1.6,30.92-6.68,29.33-28.98-.63-8.88-.1-8.92,8.79-8.92Z" class="cls-8"/><path d="M316.36,274.19c-4.57-19.54-17.06-29.93-34.71-29.29-16.14,.58-30.13,14.36-30.73,30.51-.28,7.49-.21,14.99-.06,22.49,.06,3.04-.5,4.44-4.03,4.38-12.66-.21-25.32-.15-37.98-.02-2.65,.03-3.63-.91-4.43-3.39-4.99-15.51-15.39-25.81-30.89-30.75-5.81-1.75-4.47-7.85-4.31-10.23,.29-3.47,4.22-2.04,6-2.07,4.88-.08,8.94-1.43,10.99-6.21,2.04-4.76,.73-9.11-3.16-12.09-11.1-8.52-12.81-18.72-12.93-33.16-.32-8.97,.19-18.52,.19-27.84,53.97,35,107.63,35.08,162.04,.84,.91,.37,.25,1.74,.25,2.75,.03,27.66-.02,55.31,.04,82.97,0,2.85-.43,4.53-3.72,5.24-4.37,.94-8.29,3.28-12.56,5.88Z" class="cls-10"/><path d="M353.68,282.73c11.63,15.56,23.27,31.12,34.9,46.68,1.79,2.4,3.69,4.74,5.31,7.25,5.56,8.64,6,17.42,.28,26.2-11.25,17.29-22.48,34.59-33.82,51.82-3.06,4.64-5.57,9.48-6.5,14.97-.42,2.48-1.48,3.2-3.95,3.2-25.32-.08-50.65-.1-75.97,.01-2.87,.01-3.17-1.16-3.16-3.53,.05-50.48,.01-100.96,.08-151.44,0-7.57,5.2-12.86,12.26-13.02,7.28-.17,12.92,5.13,12.98,12.83,.15,21.66-.02,43.32,.1,64.97,.1,18.22,13.39,30.66,31.04,29.31,14.42-1.1,25.17-13.27,25.31-29.03,.16-18.32,.06-36.65,.08-54.98,0-1.63,0-3.25,0-4.88l1.06-.38Z" class="cls-3"/><path d="M253.22,20c44.14,0,88.29,0,132.43,0,7.3,0,8.36,1.06,8.37,8.36,.01,13.83,.03,27.65-.01,41.48-.02,5.59-1.53,7.09-7.09,7.12-10.16,.04-20.33-.11-30.48,.09-3.12,.06-3.87-.87-3.88-3.91-.05-10.83-.17-10.82,10.53-10.83,2.5,0,5.01,.1,7.49-.11,5.2-.44,8.99-4.44,9.18-9.48,.17-4.75-3.16-8.96-8.08-9.96-1.78-.36-3.64-.43-5.46-.43-75.46-.02-150.92-.02-226.38-.01-1.17,0-2.34-.04-3.5,.07-6.13,.59-10.29,4.82-10.14,10.26,.15,5.54,4.4,9.41,10.61,9.66,1,.04,2,.01,3,.01,11.49,.02,12.01,.71,10.56,12.31-.26,2.08-1.15,2.37-2.85,2.36-9.99-.04-19.99,.02-29.98-.05-3.58-.02-5.59-1.96-5.6-5.59-.03-15.33-.04-30.65,.02-45.98,.01-3.39,2.02-5.13,5.34-5.34,1.33-.08,2.66-.03,4-.03,43.98,0,87.95,0,131.93,0Z" class="cls-2"/><path d="M176.94,302.27c-1.86-.68-5.5,1.54-6.28-1.24-.98-3.53-.52-7.57-.15-11.33,.17-1.73,1.76-.66,2.71-.13,4.17,2.29,7.31,5.6,9.8,9.63,1.4,2.26,1.15,3.29-1.72,3.09-1.32-.09-2.65-.02-4.37-.02Z" class="cls-6"/><path d="M318.82,301.74c2.16-5.76,6.3-9.58,11.37-12.52,1.54-.89,2.54-.39,2.42,1.57-.01,.17,0,.33,0,.5,.94,11.31-.41,12.36-13.8,10.45Z" class="cls-5"/><path d="M269.87,106.84c-8.89,0-9.42,.04-8.79,8.92,1.59,22.3-10.86,30.58-29.33,28.98-3.63-.32-7.31,.14-10.95-.63-4.75-1.01-9.05-3.1-11.7-7.04-3.82-5.69-5.8-12.42-14.55-13.52-3.74-.47-5.27-5.74-4.13-10.09,1.16-4.43,4.06-7.56,8.79-7.47,3.77,.08,4.89-1.46,5.9-4.76,2.73-8.92,11.65-14.88,20.57-14.33,4.84,.3,8.61,3.64,9.28,8.21,.74,5.05-1.67,9.83-6.58,10.83-4.52,.92-4.59,3.42-4.56,6.94,.13,11.94,.05,11.73,12.09,11.95,4.36,.08,5.44-1.45,5.13-5.45-.31-3.97-.2-8-.01-11.99,.53-11.58,9.44-20.27,20.99-20.51,5.33-.11,10.66-.1,15.99,0,9.57,.18,17.16,5.81,20,15.11,.83,2.73,1.8,3.95,4.95,3.95,5.66,0,9.56,3.99,9.86,9.22,.3,5.3-3.56,10.17-9.29,10.36-3.84,.12-4.71,1.8-5.83,4.91-3.19,8.87-9.95,13.46-19.25,14.22-6.47,.53-11.18-3.03-11.93-8.74-.76-5.77,2.73-10.06,9.41-11.06,2.28-.34,3.28-1.08,3.11-3.41-.13-1.82-.02-3.66-.02-5.49q0-9.09-9.15-9.09Z" class="cls-7"/></g><path d="M47.94,268.06v107.23s19.91,1.31,19.91,0v-98.32l-19.91-8.9Z" class="cls-4"/></g></g></svg>