<svg xmlns="http://www.w3.org/2000/svg" viewBox="0 0 3840 834"><defs><style>.cls-4{fill:#c40000;mix-blend-mode:multiply}.cls-5{fill:#c9dde7}.cls-8{fill:#ebf3ef}</style></defs><g style="isolation:isolate"><g id="Capa_1" data-name="Capa 1"><path fill="#0df700" d="M1436 642h7v4h-124v-3h6a17 17 0 0 0 12-6 14 14 0 0 0 4-12l-16-150-93 179h-4l-106-178-16 149a15 15 0 0 0 4 12 16 16 0 0 0 12 5h6v4h-86v-4h6a30 30 0 0 0 20-7c6-5 9-11 10-19l35-264h3l128 210 123-210h4l35 264c1 8 5 14 10 19a30 30 0 0 0 20 7Zm348 0h4v4h-132v-4h4c6 0 10-2 13-6s5-7 5-10a26 26 0 0 0-2-10l-21-51h-96l-22 51a28 28 0 0 0-2 10c0 3 2 7 5 10s7 6 13 6h4v4h-88v-4h3c7 0 13-2 19-6s12-9 16-17l95-216q20-41 21-54h4l122 269q6 12 16 18a36 36 0 0 0 19 6Zm-218-94h82l-40-101Zm427 94q9 0 14-8a19 19 0 0 0 3-9 16 16 0 0 0-3-8l-58-90-60 90a16 16 0 0 0 0 16c4 6 8 9 14 9h6v4h-102v-4h6q23 0 40-23l82-115-77-118a61 61 0 0 0-18-17 44 44 0 0 0-23-7h-6v-5h140v5h-5q-9 0-14 8a19 19 0 0 0-3 9 16 16 0 0 0 2 8l52 79 51-79a16 16 0 0 0 2-8 15 15 0 0 0-3-9c-3-6-8-8-14-8h-5v-5h101v5h-5a42 42 0 0 0-24 6 64 64 0 0 0-18 17l-70 105 83 128a58 58 0 0 0 18 17 45 45 0 0 0 24 7h5v4h-140v-4Zm188 0a25 25 0 0 0 18-8 26 26 0 0 0 8-18V387a26 26 0 0 0-8-18 26 26 0 0 0-18-7h-6v-5h126l-1 5h-5a26 26 0 0 0-18 7 24 24 0 0 0-8 18v229a25 25 0 0 0 8 18 25 25 0 0 0 18 8h5l1 4h-126v-4Zm554 0h7v4h-124v-3h6a17 17 0 0 0 12-6 14 14 0 0 0 5-12l-17-150-93 179h-4l-106-178-16 149c-1 4 1 8 4 12a16 16 0 0 0 12 5h6v4h-86v-4h7a30 30 0 0 0 20-7c5-5 9-11 10-19l34-264h4l128 210 123-210h3l35 264c2 8 5 14 11 19a30 30 0 0 0 19 7Zm317-280h-7a21 21 0 0 0-15 5 19 19 0 0 0-6 14v161q0 51-32 80t-87 30q-65 0-100-29t-35-81V382q0-12-11-18a23 23 0 0 0-10-2h-7v-5h119v5h-7a22 22 0 0 0-15 5 19 19 0 0 0-7 14v158c0 29 8 52 22 69s34 26 59 26 45-8 59-24 22-38 23-66V381c-1-8-5-13-12-17a23 23 0 0 0-10-2h-7v-5h86Zm23 246q0-30 13-51h4a51 51 0 0 0-1 7q0 28 21 49t55 22q28 0 44-14t15-33a33 33 0 0 0-8-21q-7-10-25-21l-72-48q-40-27-40-66a39 39 0 0 1 1-8q3-33 25-53t62-19c15 0 34 1 56 4h26l-6 60h-4q0-21-16-34t-42-13q-32 0-46 20c-5 6-8 13-8 19s1 12 4 16q6 11 25 23l79 51q37 24 37 64 0 43-30 67t-79 23a187 187 0 0 1-52-7q-24-7-35-18a54 54 0 0 1-3-19ZM981 342c-3 3-20 64-5-23 4-25-9-44-27-60-48-39-121-50-180-41-41 6-92 19-120 52a61 61 0 0 0-15 49c15 87-1 26-4 23 0 0-27 260-20 285 6 21 116 94 151 117l17 54-6-47s-15-138-14-244c0 0-90-72-95-80s0-10-5-17c0 0 120 62 120 66s7 110 9 115 18 20 18 20 17-15 18-20l10-115c0-5 119-66 119-66-5 7 0 9-5 17s-95 80-95 80c1 61-4 147-8 191l-13 100 17-53c34-22 146-97 152-118 7-25-19-285-19-285ZM779 231c-23 10-48 20-68 37a87 87 0 0 0-28 39 106 106 0 0 0-5 35c1 6 4 16 2 22-1 3-4 4-6 1-79-106 100-132 115-139l-10 5Z"/><path fill="#d60000" d="M843 58c-20-8-140 19-152 35-10 13-32 137-32 139 1 9 65 8 142-3s138-27 137-37a3 3 0 0 0-1-1c-8-14-74-125-94-133Z"/><path d="M725 213c-6-11 8-46 44-62s67-9 66-18-24-10-22-14 36-17 32-28-69 10-64-6 51-26 51-26l-28-6-126 34-26 205 241-81s-162 13-168 2Z" class="cls-4"/><path d="M938 193c1 9-61 25-137 36-73 10-133 12-141 4-12 6-20 19-18 33l9 61c2 13 12 23 24 26 15 6 75 3 145-7 63-9 117-21 136-31 15-4 26-19 24-34l-9-62c-2-16-17-27-33-26Z" class="cls-5"/><path fill="#dcd7df" d="M716 319c-12-23-39-25-45-29s14-52 14-52c-13-1-22-2-25-5v1l-14 12a30 30 0 0 0-4 20l9 61c2 13 12 23 24 26 15 6 75 3 145-7 30-4 59-9 82-15l29-7c-2 0-204 17-215-5Z" style="mix-blend-mode:multiply"/><path fill="#f10000" d="M652 61c-7 4-35 38-35 113-1 54 10 150 20 149 18-3 64-152 102-210 49-76 111-50 111-50-15-18-137-36-198-2Z"/><ellipse cx="639" cy="343.2" class="cls-5" rx="54.1" ry="52.1" transform="rotate(-8 639 343)"/><path d="M617 174c-1 35 4 86 9 118h6s-10-118 10-180c18-55 48-64 53-66-16 3-31 8-43 15-7 4-35 38-35 113Z" class="cls-4"/><path d="M820 230c-89 13-124 8-126 17-1 10 218-17 224-11s5 57 15 66 21 9 36-2c10-8-3-85-12-93-13-11-31 8-137 23Z" class="cls-8"/><ellipse cx="646.1" cy="337.2" class="cls-8" rx="38.1" ry="36.8" transform="rotate(-8 647 339)"/><path fill="red" d="M802 76c-6 5 40-9 50-1s29 21 18 26c-41 15 32 32 13 37s-77 12-75 18 65 1 78 7 29 38 40 33l10-7c-11-19-62-104-86-126 0 0-16-14-48 13Z"/></g></g></svg>