<svg xmlns="http://www.w3.org/2000/svg" data-name="Capa 1" viewBox="0 0 3840 834"><path fill="#0df700" d="M1418 656h7v5h-141v-4h7a20 20 0 0 0 14-7c4-4 5-9 5-14l-19-170-106 204h-5l-121-203-18 169c-1 5 1 10 5 14s8 7 13 7h7v4h-98v-5h8a34 34 0 0 0 22-8c7-5 11-12 12-21l39-302h4l146 240 140-240h4l40 302c2 9 6 16 12 21a34 34 0 0 0 23 8Zm397 0h4v5h-150v-5h4c7 0 12-2 15-6s5-8 5-12a30 30 0 0 0-2-11l-23-58h-110l-24 58a32 32 0 0 0-3 11c0 4 2 8 5 12s9 6 16 6h4v5h-101v-5h4c7 0 15-2 22-6s13-11 18-20l108-246q22-47 24-62h4l140 307q7 14 18 20t22 7Zm-249-107h94l-46-116Zm487 107q10 0 16-9a21 21 0 0 0 3-10 19 19 0 0 0-3-9l-66-103-69 102a18 18 0 0 0 0 19c4 7 10 10 17 10h6v5h-116v-5h6q26 0 47-26l92-131-87-135a70 70 0 0 0-20-20 50 50 0 0 0-27-8h-7v-4h160v4h-6q-10 0-16 10a22 22 0 0 0-3 10 18 18 0 0 0 3 9l58 91 58-90a19 19 0 0 0 3-10 17 17 0 0 0-3-10c-4-6-10-10-16-10h-6v-4h115v4h-6a48 48 0 0 0-27 8 73 73 0 0 0-20 20l-80 119 94 146a66 66 0 0 0 21 20c9 5 18 7 27 7h6v5h-160v-5Zm214 0a28 28 0 0 0 21-9 30 30 0 0 0 9-20V366a29 29 0 0 0-9-21 29 29 0 0 0-21-9h-6v-4h143l-1 4h-5a30 30 0 0 0-21 9 28 28 0 0 0-9 21v261a28 28 0 0 0 9 20 29 29 0 0 0 21 9h5l1 5h-143v-5Zm632 0h8v5h-141v-4h7a20 20 0 0 0 13-7c4-4 6-9 5-14l-18-170-106 204h-5l-121-203-18 169c-1 5 1 10 4 14a18 18 0 0 0 14 7h7v4h-98v-5h7a35 35 0 0 0 23-8c6-5 10-12 12-21l39-302h4l146 240 140-240h4l40 302c2 9 6 16 12 21a34 34 0 0 0 22 8Zm362-320h-8a24 24 0 0 0-17 7 22 22 0 0 0-8 16v183q0 58-36 92t-99 34q-75 0-114-34t-40-92V360q0-14-12-21a26 26 0 0 0-13-3h-7v-4h135v4h-7a25 25 0 0 0-18 7 22 22 0 0 0-7 16v180q0 49 24 79t68 29q42 0 67-28t26-74V359c-1-9-5-16-13-20a27 27 0 0 0-12-3h-8v-4h99Zm26 281q0-34 14-58h4a60 60 0 0 0 0 8q0 32 23 57t64 24q31 0 49-15t18-38a38 38 0 0 0-9-25q-9-11-29-24l-82-54q-45-30-45-75a45 45 0 0 1 1-10q2-37 28-59t70-23c18 0 39 2 64 5h30l-6 69h-5q0-24-18-39t-48-15q-37 0-53 22a35 35 0 0 0-5 40q7 13 29 27l90 58q42 28 42 73 0 49-34 76t-90 27q-32 0-59-8t-40-21q-3-9-3-22ZM871 304c-4 3-23 73-5-26 5-29-11-51-32-68-54-45-137-58-205-48-46 7-105 22-137 59a69 69 0 0 0-16 56c17 100-2 30-6 27 0 0-30 296-22 324 7 24 132 107 173 134l19 62-7-54s-18-157-16-278c0 0-103-82-108-92s0-10-6-18c0 0 136 70 136 75s9 125 11 131 21 22 21 22 19-16 20-22l11-131c0-5 136-75 136-75-6 8 0 9-6 19s-108 91-108 91c1 70-4 168-9 218l-15 114 19-61c39-25 167-110 174-135 8-28-22-324-22-324ZM641 177c-27 11-55 23-78 42a99 99 0 0 0-31 45 121 121 0 0 0-6 40c0 7 4 18 2 25-1 3-5 4-7 1-90-121 114-151 132-158l-12 5Z"/><path fill="#f9bd2c" d="m770 201-16-8-73-33v-2l15-33a1 1 0 0 1 2 0l10 5 17 8 25 12a2 2 0 0 0 2 0l9-3 14-6 16-5 11-4a2 2 0 0 0 1-1l5-12 8-16 12-26 6-13 12-27 4-8 6-12 1-1 1 9 2 14 2 11 1 9 2 10 2 17a2 2 0 0 1-1 2l-19 7a2 2 0 0 0-1 2l-2 12v8a17 17 0 0 0 3 10 21 21 0 0 0 5 5 23 23 0 0 0 5 2 24 24 0 0 0 12 2 20 20 0 0 0 9-4 19 19 0 0 0 6-6c2-4 3-9 2-13v-5l1-1 11 1 11 1 8 1 7 1h8l5 1 7 1h10c0 2-1 2-2 3l-3 4-3 4-3 4-4 4-3 4-3 3-3 5-3 3-4 4-4 6-3 3-4 5-3 3-3 4-3 4-3 4-3 4-4 4-3 4-3 3-3 4-4 4-3 4a6 6 0 0 1-1 1l-7-3-30-14-17-8-2-1-10-29-5-14-2-6-1-1v1l-1 1-7 15-9 21-13 27-2 4Z"/><path fill="#fdd743" d="m857 16-1 1-6 12-4 8-12 27-6 13-12 26-8 16-5 12a2 2 0 0 1-1 1l-11 4-16 6-14 5-8 3a2 2 0 0 1-2 0l-26-12-17-8-10-5a2 2 0 0 0-2 0l2-8 1-8 1-5 2-11 1-7 2-9 1-5 1-7 1-7 1-5 2-7 1-9 1-6 2-10 2-8 1-8h1l3 2 7 7 5 5 6 6 7 7 6 6 5 5 7 6 1 2v2l-5 4a19 19 0 0 0-7 8 19 19 0 0 0 3 19 25 25 0 0 0 12 9c5 2 11 2 16-1l8-6 7-8 1-2a2 2 0 0 0 1-2l-7-19a769 769 0 0 0 15-10l10-7 12-7 9-6 15-9h1Z"/><path fill="#fe9100" d="m770 201 2-5 13-26 9-21 7-15 1-1v-1l1 1 2 6 5 14 10 29 2 1 17 8 30 14 7 3-8 17-7 17h-2l-71-33-18-8Z"/></svg>